<?xml version="1.0" encoding="UTF-8" standalone="no"?>
<svg xmlns:dc="http://purl.org/dc/elements/1.1/" xmlns:cc="http://creativecommons.org/ns#" xmlns:rdf="http://www.w3.org/1999/02/22-rdf-syntax-ns#" xmlns:svg="http://www.w3.org/2000/svg" xmlns="http://www.w3.org/2000/svg" xmlns:xlink="http://www.w3.org/1999/xlink" xmlns:sodipodi="http://sodipodi.sourceforge.net/DTD/sodipodi-0.dtd" xmlns:inkscape="http://www.inkscape.org/namespaces/inkscape" id="svg309" version="1.1" viewBox="0 0 215.20925 108.58013" height="108.58013mm" width="215.20924mm" sodipodi:docname="06 - Pack the bottle tight, mixing plastics as you go.svg" inkscape:version="0.92.4 (f8dce91, 2019-08-02)" inkscape:export-filename="/home/russs/Documents/GEA NextCloud/Vision Ecobrick Source Files/Graphics/How to Ecobrick/06 - Pack the bottle tight, mixing plastics as you go - 1000px.png" inkscape:export-xdpi="118.02467" inkscape:export-ydpi="118.02467"><defs id="defs303"><linearGradient y2="-671.51752" x2="1938.1232" y1="-643.27985" x1="1938.0685" gradientTransform="matrix(0.28311359,0,0,0.20191221,-327.9684,229.47646)" gradientUnits="userSpaceOnUse" id="linearGradient5148" xlink:href="#linearGradient22576-3"/><linearGradient id="linearGradient22576-3"><stop id="stop22572" offset="0" style="stop-color:#23bea8;stop-opacity:1"/><stop id="stop22574" offset="1" style="stop-color:#d1f4f4;stop-opacity:0.97969544"/></linearGradient></defs><metadata id="metadata306"/><g transform="translate(1.7712861,-167.75589)" id="layer1"><path id="rect21275" d="M 6.3679528,169.11176 H 205.29871 c 3.75799,0 6.78337,3.02539 6.78337,6.78338 v 66.82878 c 0,3.75799 -3.02538,6.78337 -6.78337,6.78337 H 6.3679528 c -3.7579901,0 -6.78336997,-3.02538 -6.78336997,-6.78337 v -66.82878 c 0,-3.75799 3.02537987,-6.78338 6.78336997,-6.78338 z" style="opacity:1;fill:#f2f2f2;fill-opacity:1;stroke:#ececec;stroke-width:2.71173787;stroke-miterlimit:4;stroke-dasharray:none;stroke-opacity:1" inkscape:connector-curvature="0"/><path style="fill:#cccccc;stroke-width:0.12464742" d="m 25.280299,222.89103 c -1.030045,-1.76177 -1.227369,-3.66739 -0.584766,-5.64734 0.451949,-1.39253 0.801659,-1.90703 2.153911,-3.16884 1.103639,-1.02982 1.329571,-1.19232 2.194311,-1.57822 0.530202,-0.2366 1.396798,-0.5429 1.925769,-0.68067 2.740345,-0.71374 21.848334,-6.14907 21.952879,-6.24461 0.06722,-0.0612 0.580665,-0.93414 1.141209,-1.93955 l 1.019167,-1.82803 14.502883,-4.25858 c 7.976589,-2.34222 14.513687,-4.20538 14.526899,-4.14038 0.0132,0.065 -0.210849,0.33439 -0.497911,0.59864 -0.435566,0.40099 -2.961215,1.60333 -15.266277,7.26771 -8.109394,3.73299 -15.310579,7.03492 -16.002642,7.33763 -2.614221,1.14345 -4.34335,2.34653 -6.562453,4.56597 -2.374425,2.37477 -4.253004,5.06958 -5.295297,7.59611 -0.70163,1.70075 -1.260901,2.50056 -2.479802,3.5463 -1.805743,1.54924 -3.668739,2.19685 -6.134796,2.13257 -1.5334,-0.04 -2.693377,-0.34077 -3.924078,-1.0176 -0.961511,-0.52878 -2.159089,-1.66898 -2.669006,-2.54111 z m 4.04379,0.53998 c 2.27996,1.20577 5.450455,0.72628 7.408882,-1.12047 2.400398,-2.26353 2.150141,-5.81388 -0.522321,-7.40999 -3.857895,-2.30407 -9.290055,0.19137 -9.477365,4.35374 -0.07809,1.7354 0.872587,3.26801 2.590804,4.17672 z m 27.033895,-18.09954 c 0.413994,0.0999 1.099403,-0.1876 1.30686,-0.54806 0.401474,-0.69761 0.09227,-1.581 -0.644434,-1.84117 -0.502879,-0.1776 -0.83466,-0.0969 -1.265403,0.30759 -0.682571,0.64107 -0.330517,1.85645 0.602973,2.08162 z M 26.758562,191.58018 c -0.731168,-1.17333 -1.103848,-2.57291 -1.069231,-4.01541 0.03037,-1.26541 0.351909,-2.31653 1.039372,-3.39773 0.646364,-1.01658 1.154958,-1.51038 2.257061,-2.19142 2.162891,-1.33653 5.005872,-1.55562 7.523905,-0.57981 1.411752,0.5471 2.362053,1.18594 3.39572,2.28284 0.998293,1.05999 1.372273,1.72629 1.990178,3.55043 1.151242,3.39859 3.049829,6.50834 5.660493,9.27145 1.977741,2.09261 3.172117,3.0017 5.651364,4.29895 l 0.956317,0.50038 -0.569449,1.05957 c -0.313193,0.58276 -0.627882,1.05696 -0.699297,1.05377 -0.183012,-0.008 -19.561819,-7.34441 -21.248948,-8.0442 -1.88094,-0.7802 -2.803275,-1.37972 -3.810205,-2.47667 -0.444264,-0.4847 -0.92939,-1.07485 -1.077285,-1.31216 z m 4.535288,1.03753 c 2.544126,1.28819 5.627599,0.87622 7.258549,-0.96979 2.449965,-2.77303 0.527904,-7.20822 -3.563211,-8.22215 -1.821651,-0.45148 -3.667245,-0.16737 -4.997914,0.76937 -1.941489,1.36673 -2.489922,3.85813 -1.313405,5.96647 0.402103,0.72057 1.822894,2.05452 2.615981,2.4561 z m 25.272884,15.18185 c 0.06549,-0.0557 1.250371,-0.61044 2.632787,-1.23297 l 2.513488,-1.13187 10.348964,5.75602 c 10.17227,5.65775 10.355848,5.76592 10.752989,6.33548 l 0.404025,0.57946 -13.022721,-4.94408 c -14.690028,-5.57706 -13.792494,-5.22396 -13.629532,-5.36204 z" id="path17447" inkscape:connector-curvature="0"/><ellipse cx="105.36223" cy="263.49011" rx="16.928129" ry="6.5422554" id="ellipse18753-3" style="fill:#cccccc;fill-opacity:1;stroke-width:0.15163232"/><path d="m 114.62819,243.17283 c 0.68656,-4.39449 1.8003,-7.07673 0.30507,-12.91997 -1.87829,-3.14644 -3.83693,-2.94083 -5.89247,-5.45979 -0.0335,-1.52457 -0.0733,-2.91738 -0.0885,-4.54633 -0.0121,-1.28607 -1.39083,-1.39104 -2.84647,-1.3558 l -0.003,-0.0243 c -0.0904,0.0141 -0.18691,0.0246 -0.28597,0.0331 -0.30724,0.0108 -0.61467,0.0234 -0.90989,0.03 -0.29582,-0.003 -0.60327,-0.009 -0.91069,-0.0134 -0.0984,-0.008 -0.19537,-0.0153 -0.28538,-0.0285 l -2e-4,0.0243 c -1.45762,-0.009 -2.8331,0.12075 -2.82285,1.407 0.0134,1.62874 -0.003,3.02117 -0.008,4.54731 -2.009265,2.55561 -3.972831,2.38504 -5.794401,5.56298 -1.38868,5.87043 -0.227076,8.53041 0.537666,12.9127 0.581985,5.84973 -1.253965,5.9165 -0.750168,16.74803 0,4.77678 5.387893,5.86 10.201093,5.86 4.81321,0 10.60091,-0.93551 10.60091,-6.04572 0.31019,-10.83842 -1.52673,-10.87309 -1.04934,-16.73149 z" id="path27620" inkscape:connector-curvature="0" style="fill:#99fff0;stroke-width:0.19694774"/><path stroke-miterlimit="10" d="m 114.62819,243.17283 c 0.68656,-4.39449 1.8003,-7.07673 0.30507,-12.91997 -1.87829,-3.14644 -3.83693,-2.94083 -5.89247,-5.45979 -0.0335,-1.52457 -0.0733,-2.91738 -0.0885,-4.54633 -0.0121,-1.28607 -1.39083,-1.39104 -2.84647,-1.3558 l -0.003,-0.0243 c -0.0904,0.0141 -0.18691,0.0246 -0.28597,0.0331 -0.30724,0.0108 -0.61467,0.0234 -0.90989,0.03 -0.29582,-0.003 -0.60327,-0.009 -0.91069,-0.0134 -0.0984,-0.008 -0.19537,-0.0153 -0.28538,-0.0285 l -2e-4,0.0243 c -1.45762,-0.009 -2.8331,0.12075 -2.82285,1.407 0.0134,1.62874 -0.003,3.02117 -0.008,4.54731 -2.009265,2.55561 -3.972831,2.38504 -5.794401,5.56298 -1.38868,5.87043 -0.227076,8.53041 0.537666,12.9127 0.581985,5.84973 -1.253965,5.9165 -0.750168,16.74803 0,4.77678 5.387893,5.86 10.201093,5.86 4.81321,0 10.60091,-0.93551 10.60091,-6.04572 0.31019,-10.83842 -1.52673,-10.87309 -1.04934,-16.73149 z" id="path27622" inkscape:connector-curvature="0" style="fill:none;stroke:#231f20;stroke-width:0.83748084;stroke-linecap:round;stroke-linejoin:round;stroke-miterlimit:10"/><g id="g27630" transform="matrix(0.19694775,0,0,0.19694775,998.93308,488.31054)"><path d="m -4492.858,-1182.209 c -0.473,-16.984 -2.488,-25.161 -3.704,-33.408 -0.182,-1.258 -0.353,-2.521 -0.491,-3.814 0,0 -25.411,-11.744 -48.927,3.94 -11.413,7.612 -31.415,-3.563 -31.415,-3.563 -0.132,1.295 -0.279,2.562 -0.451,3.822 -1.13,8.257 -3.058,16.452 -3.351,33.44 0,0 14.198,-4.291 33.039,3.621 27.351,11.491 55.3,-4.038 55.3,-4.038 z" id="path27624" inkscape:connector-curvature="0" style="fill:#ff00ff"/><path d="m -4545.98,-1215.491 c 23.516,-15.685 48.927,-3.94 48.927,-3.94 -0.496,-4.605 -0.65,-9.628 -0.079,-16.492 1.063,-6.796 2.343,-12.658 3.273,-18.524 0,0 -28.735,15.45 -55.076,0.257 -17.681,-10.197 -32.027,0.154 -32.027,0.154 0.995,5.861 2.339,11.705 3.47,18.493 0.644,6.86 0.541,11.886 0.098,16.49 0,-10e-4 20,11.174 31.414,3.562 z" id="path27626" inkscape:connector-curvature="0" style="fill:#ffff00"/><path d="m -4492.827,-1180.635 c -0.01,-0.522 -0.023,-1.063 -0.031,-1.574 0,0 -27.948,15.529 -55.3,4.039 -18.841,-7.912 -33.039,-3.621 -33.039,-3.621 -0.01,0.512 -0.01,1.051 -0.017,1.578 -0.052,4.981 0.025,10.656 0.301,17.297 0,18.885 28.031,23.135 44.271,23.135 18.019,0 43.697,-3.75 43.697,-23.548 0.058,-6.647 0.219,-12.323 0.118,-17.306 z" id="path27628" inkscape:connector-curvature="0" style="fill:#ff0000"/></g><path d="m 111.35551,239.19507 c 0.005,1.18051 -0.94496,2.14201 -2.12447,2.14871 v 0 c -1.18032,0.007 -2.14221,-0.94437 -2.1495,-2.12506 l -0.0281,-5.01982 c -0.005,-1.1801 0.94496,-2.1424 2.12449,-2.14948 v 0 c 1.18089,-0.005 2.14199,0.94535 2.14908,2.12546 z" id="path27632" inkscape:connector-curvature="0" style="fill:#ffffff;stroke-width:0.19694774"/><path stroke-miterlimit="10" d="m 109.92842,221.93555 0.17292,-4.66667 c 0.0356,-0.96248 -2.27829,-1.82984 -5.16869,-1.93698 -2.8902,-0.10717 -5.26185,0.5867 -5.2975,1.54918 l -0.17272,4.66669 c -0.0359,0.96367 2.27828,1.83082 5.16849,1.93757 2.88982,0.10758 5.26165,-0.58611 5.2975,-1.54979 z" id="path27634" inkscape:connector-curvature="0" style="fill:#99fff0;stroke:#231f20;stroke-width:0.83742177;stroke-miterlimit:10"/><ellipse transform="rotate(92.126186)" stroke-miterlimit="10" cx="212.78795" cy="-112.86929" rx="1.3215041" ry="3.9668758" id="ellipse27636" style="fill:#99fff0;stroke:#231f20;stroke-width:0.39389098;stroke-miterlimit:10"/><ellipse style="fill:url(#linearGradient5148);fill-opacity:1;stroke:#231f20;stroke-width:0.44972631;stroke-miterlimit:10" id="ellipse12582-9-54" ry="4.3552351" rx="1.5690984" cy="97.42971" cx="220.83841" stroke-miterlimit="10" transform="matrix(0.03430121,0.99941154,0.99919457,-0.04012739,0,0)"/><path stroke-miterlimit="10" d="m 99.61408,217.44811 c 0,0 3.03831,3.03121 10.4081,1.96061" id="path27638" inkscape:connector-curvature="0" style="fill:none;stroke:#231f20;stroke-width:0.39389548;stroke-miterlimit:10"/><path stroke-miterlimit="10" d="m 99.5229,219.91231 c 0,0 2.30034,2.07643 10.42916,1.38357" id="path27640" inkscape:connector-curvature="0" style="fill:none;stroke:#231f20;stroke-width:0.39389548;stroke-miterlimit:10"/><path stroke-miterlimit="10" d="m 75.924529,195.7008 c 0,0 3.183042,-2.57625 6.02513,-0.41777 v 3.27244 l -3.67321,-1.3925 -1.145223,1.18363 c 0,0 0.555305,-1.81028 -1.206697,-2.6458 z" id="path27644" inkscape:connector-curvature="0" style="fill:#ff00ff;fill-opacity:1;stroke:#231f20;stroke-width:0.2359121;stroke-linecap:round;stroke-linejoin:round;stroke-miterlimit:10"/><path stroke-miterlimit="10" d="m 75.970859,201.45483 -4.631707,3.01484 -0.450629,-1.78181 -1.993933,-0.32543 c 0,0 3.910031,-4.31993 7.076269,-0.9076 z" id="path27650" inkscape:connector-curvature="0" style="fill:#f5ff71;stroke:#231f20;stroke-width:0.33082089;stroke-linecap:round;stroke-linejoin:round;stroke-miterlimit:10"/><path stroke-miterlimit="10" d="m 78.185982,207.26628 0.421696,-4.18093 1.321277,0.91448 1.183186,-0.76627 c 0,0 0.738772,4.65956 -2.926159,4.03272 z" id="path27652" inkscape:connector-curvature="0" style="fill:#ffffff;stroke:#231f20;stroke-width:0.33082089;stroke-linecap:round;stroke-linejoin:round;stroke-miterlimit:10"/><path stroke-miterlimit="10" d="m 49.63544,206.37874 c -0.106195,-1.35237 -0.555848,-2.73597 0.990571,-3.9381 0,1.4e-4 3.090915,2.63771 -0.990571,3.9381 z" id="path27660" inkscape:connector-curvature="0" style="fill:#45addb;stroke:#231f20;stroke-width:0.33082089;stroke-linecap:round;stroke-linejoin:round;stroke-miterlimit:10" sodipodi:nodetypes="ccc"/><path stroke-miterlimit="10" d="m 64.711955,203.37138 -3.353471,-0.32602 c 0,0 1.428047,-4.26998 3.353471,0.32602 z" id="path27662" inkscape:connector-curvature="0" style="fill:#ff0000;fill-opacity:1;stroke:#231f20;stroke-width:0.33082089;stroke-linecap:round;stroke-linejoin:round;stroke-miterlimit:10"/><path stroke-miterlimit="10" d="m 68.208303,194.13544 2.881562,-2.12642 c 0,0 0.868139,4.49011 -2.881562,2.12642 z" id="path27664" inkscape:connector-curvature="0" style="fill:#d8597d;stroke:#231f20;stroke-width:0.33082089;stroke-linecap:round;stroke-linejoin:round;stroke-miterlimit:10"/><path stroke-miterlimit="10" d="m 45.580722,212.70644 3.35347,-0.32602 c -0.1589,-0.0973 -4.93129,-6.41579 -3.35347,0.32602 z" id="path27666" inkscape:connector-curvature="0" style="fill:#d8597d;stroke:#231f20;stroke-width:0.33082089;stroke-linecap:round;stroke-linejoin:round;stroke-miterlimit:10" sodipodi:nodetypes="ccc"/><path stroke-miterlimit="10" d="m 81.624821,190.00635 -3.353471,-0.32602 c 0,1.5e-4 1.427928,-4.26997 3.353471,0.32602 z" id="path27670" inkscape:connector-curvature="0" style="fill:#7dd835;stroke:#231f20;stroke-width:0.33082089;stroke-linecap:round;stroke-linejoin:round;stroke-miterlimit:10"/><path stroke-miterlimit="10" d="m 42.804333,215.65612 4.287728,1.23919 c 0,0 -1.956869,3.0661 -4.287728,-1.23919 z" id="path27674" inkscape:connector-curvature="0" style="fill:#6d6d6d;stroke:#231f20;stroke-width:0.33082089;stroke-linecap:round;stroke-linejoin:round;stroke-miterlimit:10"/><path stroke-miterlimit="10" d="m 58.632883,207.27995 -2.274899,-1.94848 0.249878,3.23672 -1.884648,1.19891 c 4.059242,1.40043 3.909669,-2.48715 3.909669,-2.48715 z" id="path27676" inkscape:connector-curvature="0" style="fill:#7dd835;stroke:#231f20;stroke-width:0.33082089;stroke-linecap:round;stroke-linejoin:round;stroke-miterlimit:10"/><ellipse cx="91.53466" cy="266.90009" rx="6.9947524" ry="2.7032788" id="ellipse18753-3-2" style="fill:#cccccc;fill-opacity:1;stroke-width:0.06265492"/><path stroke-miterlimit="10" d="m 96.295454,265.56332 -0.03307,-4.08611 c -0.007,-0.84272 -2.063903,-1.50983 -4.594673,-1.48933 -2.53058,0.0203 -4.576385,0.72054 -4.569667,1.5631 l 0.03307,4.08627 c 0.0071,0.84376 2.063727,1.51071 4.594319,1.48985 2.530758,-0.02 4.576739,-0.72003 4.570021,-1.56378 z" id="path27678" inkscape:connector-curvature="0" style="fill:#3f9ad8;stroke:#231f20;stroke-width:0.73277551;stroke-miterlimit:10"/><path stroke-miterlimit="10" d="m 87.09785,261.55114 c 0.4031,1.40334 8.416748,1.40334 9.085582,0" id="path27680" inkscape:connector-curvature="0" style="fill:none;stroke:#231f20;stroke-width:0.34467334;stroke-linecap:round;stroke-linejoin:round;stroke-miterlimit:10"/><path stroke-miterlimit="10" d="m 98.331471,208.24818 c 0,0 -5.336168,-0.47116 -6.988034,-5.84704 l 2.284468,-3.63699 3.110404,5.39536 2.099149,-0.116 c 0,0 -1.881068,1.43017 -0.505987,4.20467 z" id="path27682" inkscape:connector-curvature="0" style="fill:#7dd835;stroke:#231f20;stroke-width:0.33082089;stroke-linecap:round;stroke-linejoin:round;stroke-miterlimit:10"/><path stroke-miterlimit="10" d="m 83.475499,198.41641 5.102784,0.87875 c 0,0 -2.091924,3.22207 -5.102784,-0.87875 z" id="path27684" inkscape:connector-curvature="0" style="fill:#ffffff;stroke:#231f20;stroke-width:0.35844141;stroke-linecap:round;stroke-linejoin:round;stroke-miterlimit:10"/><path stroke-miterlimit="10" d="m 104.63238,217.0801 c -0.91596,-2.53687 -4.647195,-4.80406 -6.750949,-5.32072 l 2.306129,-1.52913 -0.414494,-2.42895 c 0,0 6.966134,4.56201 4.859314,9.2788 z" id="path27686" inkscape:connector-curvature="0" style="fill:#f5ff71;stroke:#231f20;stroke-width:0.36614498;stroke-linecap:round;stroke-linejoin:round;stroke-miterlimit:10" sodipodi:nodetypes="ccccc"/><path stroke-miterlimit="10" d="m 90.828534,195.92531 -3.936813,-0.32602 c 0,1.5e-4 1.676318,-4.26998 3.936813,0.32602 z" id="path27688" inkscape:connector-curvature="0" style="fill:#d8597d;stroke:#231f20;stroke-width:0.35844141;stroke-linecap:round;stroke-linejoin:round;stroke-miterlimit:10"/><g id="g17759" transform="matrix(0.09418199,0,0,0.09418199,-138.81565,50.146714)"><g id="g17647" style="fill:#cccccc"><ellipse cx="3283.238" cy="2182.177" rx="184.383" ry="55" id="ellipse17641" style="fill:#cccccc"/><ellipse cx="3059.5979" cy="2162.092" rx="107.01" ry="34.915001" id="ellipse17643" style="fill:#cccccc"/><ellipse cx="3070.52" cy="2154.6011" rx="69.655998" ry="22.728001" id="ellipse17645" style="fill:#cccccc"/></g><path stroke-miterlimit="10" d="m 3325.283,2155.14 h -15.162 -8.221 -21.373 l -1.826,15.59 8.643,1.691 c 1.83,5.633 7.648,9.756 14.557,9.756 h 23.383 c 8.373,0 15.162,-6.053 15.162,-13.518 -10e-4,-7.469 -6.79,-13.519 -15.163,-13.519 z" id="path17649" inkscape:connector-curvature="0" style="fill:#231f20;stroke:#231f20;stroke-width:4.25229979;stroke-linecap:round;stroke-linejoin:round;stroke-miterlimit:10"/><path stroke-miterlimit="10" d="m 3207.275,2155.14 h -15.162 -8.221 -21.373 l -1.826,15.59 8.645,1.691 c 1.828,5.633 7.646,9.756 14.555,9.756 h 23.383 c 8.373,0 15.162,-6.053 15.162,-13.518 0,-7.469 -6.79,-13.519 -15.163,-13.519 z" id="path17651" inkscape:connector-curvature="0" style="fill:#231f20;stroke:#231f20;stroke-width:4.25229979;stroke-linecap:round;stroke-linejoin:round;stroke-miterlimit:10"/><path stroke-miterlimit="10" d="m 3395.922,1907.679 c 11.199,13.777 -38.695,54.34 -49.896,40.561 l -45.445,-55.902 c -11.201,-13.774 -9.111,-34.027 4.666,-45.227 v 0 c 13.779,-11.201 34.029,-9.113 45.23,4.666 z" id="path17653" inkscape:connector-curvature="0" style="fill:#bfbebe;stroke:#231f20;stroke-width:4.25229979;stroke-linecap:round;stroke-linejoin:round;stroke-miterlimit:10"/><path stroke-miterlimit="10" d="m 3375.07,2018.104 c -25.445,-165.123 -138.537,-285.387 -138.537,-285.387 0,0 -57.613,143.656 -98.482,226.178 -25.924,47.621 -16.676,75.305 -16.555,75.443 l 35.006,121.797 c 0,0 33.711,6.715 67.383,0 l 30.166,-57.24 19.965,57.24 c 29.852,6.715 66.795,0 66.795,0 40.552,-64.931 34.259,-138.031 34.259,-138.031 z" id="path17655" inkscape:connector-curvature="0" style="fill:#3f4f56;stroke:#231f20;stroke-width:4.25229979;stroke-linecap:round;stroke-linejoin:round;stroke-miterlimit:10"/><path stroke-miterlimit="10" d="m 3345.508,1911.073 c -23.457,-84.844 -108.975,-178.355 -108.975,-178.355 l -96.23,193.51 c 0,0 62.252,-4.035 75.176,-54.061 h 96.572 c 0,0 15.332,36.729 33.457,38.906 z" id="path17657" inkscape:connector-curvature="0" style="fill:#bfbebe;stroke:#231f20;stroke-width:4.25229979;stroke-linecap:round;stroke-linejoin:round;stroke-miterlimit:10"/><path stroke-miterlimit="10" d="m 3233.91,1869.782 c -1.41,3.252 -11.018,8.914 -11.018,8.914 l -12.178,-7.25 c 0,0 0.758,-40.006 -4.678,-65.264 l 23.195,-1.664 c 10e-4,10e-4 5.914,36.524 4.679,65.264 z" id="path17659" inkscape:connector-curvature="0" style="fill:#3f4f56;stroke:#231f20;stroke-width:4.25229979;stroke-linecap:round;stroke-linejoin:round;stroke-miterlimit:10"/><path stroke-miterlimit="10" d="m 3315.125,1871.188 -7.555,8.728 -12.691,-7.271 c 0,0 0.16,-36.82 -10.043,-62.414 2.727,-3.74 14.803,-5.836 18.297,-2.803 6.965,14.077 11.992,63.76 11.992,63.76 z" id="path17661" inkscape:connector-curvature="0" style="fill:#3f4f56;stroke:#231f20;stroke-width:4.25229979;stroke-linecap:round;stroke-linejoin:round;stroke-miterlimit:10"/><path stroke-miterlimit="10" d="m 3502.004,1607.224 c -7.871,-148.916 -104.332,-263.857 -249.324,-255.773 -145.002,8.082 -256.156,135.352 -248.297,284.27 6.088,115.098 102.42,172.477 212.809,188.866 23.186,6.882 28.049,21.909 123.758,19.255 73.75,-2.047 91.313,-33.771 109.732,-57.021 41.379,-35.058 55.894,-93.113 51.322,-179.597 z" id="path17663" inkscape:connector-curvature="0" style="fill:#efcfac;stroke:#231f20;stroke-width:4.25229979;stroke-linecap:round;stroke-linejoin:round;stroke-miterlimit:10"/><path stroke-miterlimit="10" d="m 3167.223,1963.149 c -11.162,0 -20.211,-9.049 -20.211,-20.209 v 0 c 0,-11.162 9.049,-20.211 20.211,-20.211 h 25.08 c 23.393,3.502 48.271,6.486 46.992,19.104 -1.899,18.693 -72.072,21.316 -72.072,21.316 z" id="path17665" inkscape:connector-curvature="0" style="fill:#efcfac;stroke:#231f20;stroke-width:4.25229979;stroke-linecap:round;stroke-linejoin:round;stroke-miterlimit:10"/><path d="m 3340.949,1843.841 c 71.965,-1.996 90.43,-32.248 108.393,-55.314 -7.229,8.711 -25.736,41.111 -108.031,42.123 0,0 -122.301,5.809 -135.273,-39.008 0,0 -3.59,23.383 11.154,32.944 23.576,5.384 28.048,21.909 123.757,19.255 z" id="path17667" inkscape:connector-curvature="0" style="opacity:0.3;fill:#231f20"/><path d="m 3415.057,1674.446 c -6.615,0.182 -11.828,5.695 -11.648,12.309 0.18,6.615 5.686,11.834 12.303,11.65 6.621,-0.18 11.834,-5.688 11.654,-12.313 -0.18,-6.609 -5.694,-11.827 -12.309,-11.646 z" id="path17669" inkscape:connector-curvature="0" style="fill:#231f20"/><path d="m 3247.9,1674.446 c -6.615,0.182 -11.828,5.695 -11.646,12.309 0.178,6.615 5.686,11.834 12.301,11.65 6.623,-0.18 11.836,-5.688 11.654,-12.313 -0.178,-6.609 -5.693,-11.827 -12.309,-11.646 z" id="path17671" inkscape:connector-curvature="0" style="fill:#231f20"/><path stroke-miterlimit="10" d="m 3162.07,2032.802 c 0,0 0.063,24.914 -21.117,28.809" id="path17673" inkscape:connector-curvature="0" style="fill:none;stroke:#231f20;stroke-width:2.92280006;stroke-linecap:round;stroke-linejoin:round;stroke-miterlimit:10"/><path stroke-miterlimit="10" d="m 3270.307,2145.503 c 0,0 36.387,5.557 75.518,2.146" id="path17675" inkscape:connector-curvature="0" style="fill:none;stroke:#231f20;stroke-width:2.92280006;stroke-linecap:round;stroke-linejoin:round;stroke-miterlimit:10"/><path stroke-miterlimit="10" d="m 3153.432,2145.171 c 0,0 29.842,4.415 75.445,1.492" id="path17677" inkscape:connector-curvature="0" style="fill:none;stroke:#231f20;stroke-width:2.92280006;stroke-linecap:round;stroke-linejoin:round;stroke-miterlimit:10"/><path stroke-miterlimit="10" d="m 3352.885,2030.067 c 0,0 -0.756,16.609 15.807,23.916" id="path17679" inkscape:connector-curvature="0" style="fill:none;stroke:#231f20;stroke-width:2.92280006;stroke-linecap:round;stroke-linejoin:round;stroke-miterlimit:10"/><path stroke-miterlimit="10" d="m 3375.07,2016.894 c 0,0 -92.354,6.669 -212.354,-1.331" id="path17681" inkscape:connector-curvature="0" style="fill:none;stroke:#231f20;stroke-width:2.92280006;stroke-linecap:round;stroke-linejoin:round;stroke-miterlimit:10"/><path stroke-miterlimit="10" d="m 3308.223,1886.503 h -81.418 c 0,0 -10.797,25.818 -29.689,32.639" id="path17683" inkscape:connector-curvature="0" style="fill:none;stroke:#231f20;stroke-width:2.92280006;stroke-linecap:round;stroke-linejoin:round;stroke-miterlimit:10"/><path stroke-miterlimit="10" d="m 3251.398,1779.952 c 9.789,15.182 144.52,20.459 163.621,0" id="path17685" inkscape:connector-curvature="0" style="fill:none;stroke:#231f20;stroke-width:4.25229979;stroke-linecap:round;stroke-linejoin:round;stroke-miterlimit:10"/><path stroke-miterlimit="10" d="m 3155.045,1578.229 c 0,0 -12.34,43.093 0,72.213 0,0 -39.66,-12.88 -49.66,-56.213 0,0 -84.176,29.432 -67.434,138.245 -45.24,-44.317 -139.736,-341.302 182.107,-395.299 0,0 256.871,-41.967 279.498,243.004 10e-4,0 -165.677,-42.882 -344.511,-1.95 z" id="path17687" inkscape:connector-curvature="0" style="fill:#c1853e;stroke:#231f20;stroke-width:4.25229979;stroke-linecap:round;stroke-linejoin:round;stroke-miterlimit:10"/><path stroke-miterlimit="10" d="m 3459.188,1445.169 c 0,0 55.496,25.5 55.496,154.492 0,0 -38.998,-29.998 -90.588,-32.676" id="path17689" inkscape:connector-curvature="0" style="fill:#c1853e;stroke:#231f20;stroke-width:4.25229979;stroke-linecap:round;stroke-linejoin:round;stroke-miterlimit:10"/><path stroke-miterlimit="10" d="m 3118.988,1623.231 c 0.955,-36.447 -12.184,-64.054 -46.461,-64.939 -34.277,-0.904 -62.4,11.121 -63.352,47.568 -0.947,36.439 18.15,83.82 52.436,84.711 40.465,5.158 52.484,-17.045 54.561,-30.938" id="path17691" inkscape:connector-curvature="0" style="fill:#efcfac;stroke:#231f20;stroke-width:4.25229979;stroke-linecap:round;stroke-linejoin:round;stroke-miterlimit:10"/><path stroke-miterlimit="10" d="m 3127.643,1531.522 c -38.938,-17.356 -39.676,-48.881 -39.676,-48.881 l -51.758,43.523 c -53.998,-249.604 271.486,-278.986 320.578,-172.221 0,0 138.398,-18.27 157.896,130.223 0,0 -59.996,-37.498 -94.494,-23.998" id="path17693" inkscape:connector-curvature="0" style="fill:#c1853e;stroke:#231f20;stroke-width:4.25229979;stroke-linecap:round;stroke-linejoin:round;stroke-miterlimit:10"/><path stroke-miterlimit="10" d="m 3151.512,1558.245 c 0.191,2.418 -5.811,68.416 61.688,74.415 0,0 72.219,-104.657 172.492,-86.995" id="path17695" inkscape:connector-curvature="0" style="fill:#c1853e;stroke:#231f20;stroke-width:4.25229979;stroke-linecap:round;stroke-linejoin:round;stroke-miterlimit:10"/><g id="g4138_5_"><path d="m 3408.529,1901.755 c -16.711,-1.98 -27.006,-5.814 -48.887,0.656 -11.629,7.541 -10.58,14.918 -19.813,23.041 -5.762,0.34 -11.021,0.686 -17.178,0.971 -4.859,0.229 -5.061,5.454 -4.725,10.951 l -0.092,0.01 c 0.064,0.34 0.117,0.704 0.166,1.076 0.082,1.16 0.172,2.32 0.238,3.436 0.039,1.119 0.053,2.281 0.078,3.445 -0.016,0.373 -0.033,0.74 -0.068,1.082 h 0.092 c 0.17,5.512 0.854,10.693 5.715,10.475 6.156,-0.279 11.42,-0.418 17.193,-0.609 9.939,7.238 9.572,14.686 21.842,21.127 22.387,4.428 32.281,-0.336 48.74,-3.842 22.031,-3.02 22.543,3.912 63.422,0.49 8.582,-0.311 17.219,-8.322 16.619,-17.113 l -0.766,-16.617 -0.584,-12.75 -0.766,-16.621 c -0.211,-8.809 -9.547,-15.99 -18.123,-15.514 -41.015,0.345 -40.888,7.294 -63.103,6.31 z" id="path17697" inkscape:connector-curvature="0" style="fill:#99fff0"/><g id="g4051_59_" transform="translate(1.1866257,-0.5149603)"><path id="path3346-5-5_59_" sodipodi:nodetypes="cscccccc" inkscape:connector-curvature="0" inkscape:export-xdpi="334.53705" inkscape:export-ydpi="334.53705" stroke-miterlimit="10" d="m 3316.649,1937.897 c 1.318,6.576 -1.502,19.861 6.221,19.512 6.156,-0.279 11.42,-0.418 17.193,-0.609 9.939,7.238 9.572,14.686 21.842,21.127 22.387,4.428 32.281,-0.336 48.74,-3.842 22.031,-3.02 22.543,3.912 63.422,0.49 8.582,-0.311 17.219,-8.322 16.619,-17.113 l -1.35,-29.367" style="fill:none;stroke:#231f20;stroke-width:4.25229979;stroke-linecap:round;stroke-linejoin:round;stroke-miterlimit:10"/><path id="path4049_59_" sodipodi:nodetypes="cscccccc" inkscape:connector-curvature="0" inkscape:export-xdpi="334.53705" inkscape:export-ydpi="334.53705" stroke-miterlimit="10" d="m 3317.063,1946.936 c 0.711,-6.66 -3.318,-19.633 4.402,-19.998 6.156,-0.285 11.416,-0.631 17.178,-0.971 9.232,-8.123 8.184,-15.5 19.813,-23.041 21.881,-6.471 32.176,-2.637 48.887,-0.656 22.215,0.984 22.088,-5.965 63.105,-6.311 8.576,-0.477 17.912,6.705 18.123,15.514 l 1.35,29.371" style="fill:none;stroke:#231f20;stroke-width:4.25229979;stroke-linecap:round;stroke-linejoin:round;stroke-miterlimit:10"/></g><g id="g17704"><path d="m 3469.182,1901.668 c -4.953,0.027 -9.182,0.178 -12.889,0.391 -0.389,0.02 -0.791,0.047 -1.172,0.066 0,0 12.334,20.381 4.533,41.063 -5.371,14.245 -1.785,24.699 -1.785,24.699 0.383,-0.01 0.785,-0.021 1.176,-0.032 3.711,-0.097 7.934,-0.312 12.871,-0.701 7.334,-0.239 14.75,-6.894 14.277,-14.216 l -0.58,-13.844 -0.443,-10.622 -0.576,-13.845 c -0.141,-7.333 -8.084,-13.337 -15.412,-12.959 z" id="path17702" inkscape:connector-curvature="0" style="fill:#ff0000"/></g><path d="m 3393.949,1914.685 c 4.461,-0.189 8.23,3.271 8.42,7.73 v 0 c 0.191,4.462 -3.268,8.23 -7.73,8.424 l -18.975,0.809 c -4.461,0.189 -8.23,-3.271 -8.422,-7.73 v 0 c -0.191,-4.463 3.273,-8.229 7.732,-8.422 z" id="path17706" inkscape:connector-curvature="0" style="fill:#ffffff"/><path stroke-miterlimit="10" d="m 3328.902,1922.497 h -17.666 c -3.646,0 -6.602,8.869 -6.602,19.811 0,10.942 2.955,19.811 6.602,19.811 h 17.666 c 3.645,0 6.6,-8.869 6.6,-19.811 0,-10.942 -2.955,-19.811 -6.6,-19.811 z" id="path17708" inkscape:connector-curvature="0" style="fill:#99fff0;stroke:#231f20;stroke-width:4.25199986;stroke-miterlimit:10"/><ellipse stroke-miterlimit="10" cx="3310.2339" cy="1942.308" rx="5" ry="15.008" id="ellipse17710" style="fill:#99fff0;stroke:#231f20;stroke-width:2;stroke-miterlimit:10"/></g><g id="g17723"><path stroke-miterlimit="10" d="m 3433.078,1932.132 c 12.813,3.725 21.793,-5.953 21.859,-15.85 15.432,-3.74 5.994,-25.865 5.994,-25.865 -5.055,-17.443 -23.055,-27.807 -40.805,-24.459 0,0 -35.49,3.758 -33.412,32.961 10.959,1.359 17.135,0.025 18.021,10.917 10e-4,0 1.189,33.12 28.343,22.296 z" id="path17713" inkscape:connector-curvature="0" style="fill:#efcfac;stroke:#231f20;stroke-width:4.25229979;stroke-linecap:round;stroke-linejoin:round;stroke-miterlimit:10"/><g id="g17717"><path d="m 3452.791,1916.731 c 0,0 -0.141,-1.356 -0.412,-3.423 -0.27,-2.059 -0.658,-4.805 -1.146,-7.531 -0.484,-2.727 -1.07,-5.437 -1.658,-7.428 -0.141,-0.501 -0.279,-0.957 -0.428,-1.351 -0.145,-0.396 -0.248,-0.755 -0.383,-1.025 -0.246,-0.558 -0.387,-0.877 -0.387,-0.877 0,0 0.201,0.286 0.553,0.788 0.189,0.247 0.359,0.576 0.584,0.943 0.227,0.367 0.455,0.793 0.695,1.264 0.984,1.874 2.107,4.465 3.133,7.091 1.029,2.624 1.961,5.283 2.641,7.287 0.676,1.997 1.1,3.363 1.1,3.363 l 0.01,0.016 c 0.361,1.162 -0.289,2.397 -1.451,2.758 -1.162,0.361 -2.396,-0.288 -2.758,-1.451 -0.044,-0.136 -0.073,-0.286 -0.089,-0.424 z" id="path17715" inkscape:connector-curvature="0" style="fill:#231f20"/></g><g id="g17721"><path d="m 3430.889,1932.228 c 0,0 0.012,-0.695 -0.016,-1.833 0,-1.139 -0.088,-2.816 -0.174,-4.824 -0.053,-1.004 -0.146,-2.092 -0.225,-3.244 -0.084,-1.152 -0.162,-2.369 -0.309,-3.623 -0.133,-1.256 -0.268,-2.555 -0.406,-3.874 -0.115,-1.324 -0.352,-2.651 -0.525,-3.991 -0.188,-1.338 -0.375,-2.676 -0.559,-3.993 -0.232,-1.31 -0.461,-2.599 -0.682,-3.847 -0.225,-1.249 -0.443,-2.457 -0.648,-3.602 -0.184,-1.152 -0.467,-2.215 -0.678,-3.209 -0.893,-3.971 -1.486,-6.618 -1.486,-6.618 0,0 0.859,2.577 2.148,6.442 0.311,0.971 0.701,2.01 1.002,3.139 0.322,1.125 0.662,2.311 1.014,3.537 0.348,1.229 0.709,2.5 1.074,3.791 0.32,1.304 0.645,2.628 0.969,3.953 0.311,1.328 0.684,2.646 0.936,3.967 0.275,1.318 0.545,2.615 0.807,3.869 0.277,1.254 0.48,2.479 0.684,3.639 0.199,1.16 0.406,2.256 0.564,3.275 0.295,2.041 0.557,3.735 0.684,4.965 0.15,1.23 0.205,1.89 0.205,1.89 v 0.05 c 0.1,1.209 -0.799,2.27 -2.008,2.369 -1.209,0.099 -2.27,-0.801 -2.369,-2.009 -0.01,-0.074 -0.01,-0.148 -0.01,-0.219 z" id="path17719" inkscape:connector-curvature="0" style="fill:#231f20"/></g></g><g id="g17737"><path stroke-miterlimit="10" d="m 3314.938,1937.245 -84.801,0.389 0.051,11 c 0,0 0,0 84.676,-0.658 3.431,-5.16 0.074,-10.731 0.074,-10.731 z" id="path17725" inkscape:connector-curvature="0" style="fill:#c98441;stroke:#231f20;stroke-width:4.25229979;stroke-linecap:round;stroke-linejoin:round;stroke-miterlimit:10"/><path stroke-miterlimit="10" d="m 3218.271,1927.094 c 5.102,-6.854 13.086,-11.702 21.107,-13.732 36.107,-9.132 49.734,23.906 32.764,26.984 0,0 13.859,30.106 -15.258,32.674 -9.764,9.097 -22.141,4.502 -26.656,-4.302 -15.463,3.608 -17.004,-20.395 -17.004,-20.395" id="path17727" inkscape:connector-curvature="0" style="fill:#efcfac;stroke:#231f20;stroke-width:4.25229979;stroke-linecap:round;stroke-linejoin:round;stroke-miterlimit:10"/><g id="g17731"><path d="m 3228.109,1969.283 c 0,0 -0.236,-1.411 -0.531,-3.499 -0.297,-2.095 -0.662,-4.889 -0.926,-7.696 -0.268,-2.805 -0.432,-5.625 -0.396,-7.741 0,-0.528 0.014,-1.011 0.051,-1.442 0.035,-0.428 0.039,-0.799 0.096,-1.105 0.09,-0.605 0.141,-0.952 0.141,-0.952 0,0 0.018,0.349 0.049,0.958 0,0.301 0.072,0.669 0.119,1.087 0.047,0.419 0.129,0.888 0.227,1.399 0.373,2.043 1.07,4.725 1.867,7.379 0.793,2.654 1.68,5.281 2.367,7.24 0.689,1.967 1.174,3.242 1.174,3.242 0.432,1.138 -0.141,2.41 -1.277,2.842 -1.139,0.433 -2.41,-0.14 -2.842,-1.277 -0.051,-0.134 -0.088,-0.27 -0.111,-0.406 z" id="path17729" inkscape:connector-curvature="0" style="fill:#231f20"/></g><g id="g17735"><path d="m 3254.887,1973.921 c 0,0 -0.25,-0.614 -0.668,-1.779 -0.441,-1.155 -0.971,-2.786 -1.627,-4.741 -0.318,-0.98 -0.627,-2.052 -0.973,-3.178 -0.342,-1.127 -0.711,-2.313 -1.027,-3.557 -0.332,-1.237 -0.676,-2.517 -1.025,-3.816 -0.369,-1.293 -0.629,-2.639 -0.951,-3.964 -0.307,-1.329 -0.613,-2.657 -0.916,-3.966 -0.254,-1.316 -0.506,-2.613 -0.748,-3.868 -0.238,-1.253 -0.471,-2.466 -0.689,-3.614 -0.24,-1.143 -0.359,-2.246 -0.518,-3.254 -0.592,-4.031 -0.984,-6.719 -0.984,-6.719 0,0 0.662,2.631 1.654,6.578 0.26,0.982 0.486,2.059 0.84,3.17 0.332,1.115 0.682,2.291 1.045,3.508 0.363,1.213 0.74,2.467 1.123,3.74 0.43,1.26 0.865,2.539 1.299,3.818 0.451,1.273 0.838,2.564 1.33,3.799 0.471,1.24 0.936,2.461 1.383,3.641 0.434,1.186 0.914,2.308 1.357,3.374 0.449,1.064 0.855,2.077 1.26,2.997 0.828,1.831 1.506,3.368 2.02,4.387 0.488,1.026 0.813,1.642 0.813,1.642 0.564,1.073 0.154,2.401 -0.92,2.966 -1.072,0.566 -2.4,0.154 -2.965,-0.918 -0.035,-0.064 -0.064,-0.13 -0.092,-0.195 z" id="path17733" inkscape:connector-curvature="0" style="fill:#231f20"/></g></g><g id="g17753"><path stroke-miterlimit="10" d="m 3100.326,2131.968 c 0,13.807 -11.193,25 -25,25 h -32 c -13.809,0 -25,-11.193 -25,-25 v -53.145 c 0,-13.807 11.191,-25 25,-25 h 32 c 13.807,0 25,11.193 25,25 z" id="path17739" inkscape:connector-curvature="0" style="fill:#00ff00;stroke:#231f20;stroke-width:2;stroke-linecap:round;stroke-linejoin:round;stroke-miterlimit:10"/><path d="m 3090.84,2127.392 c 0,12.93 -11.193,23.41 -25,23.41 h -15.66 c -13.807,0 -25,-10.48 -25,-23.41 v -38.201 c 0,-12.93 11.193,-23.41 25,-23.41 h 15.66 c 13.807,0 25,10.48 25,23.41 z" id="path17741" inkscape:connector-curvature="0" style="opacity:0.5;fill:#ffffff"/><polygon stroke-miterlimit="10" points="2945.254,2074.56 3009.658,2042.026 3013.137,2054.718 2988.992,2078.026 3019.148,2072.448 3038.064,2144.159 2970.002,2163.169 " id="polygon17743" style="fill:#ffff00;stroke:#231f20;stroke-width:2;stroke-linecap:round;stroke-linejoin:round;stroke-miterlimit:10"/><circle cx="2993.4419" cy="2115.8101" r="23.784" id="circle17745" style="fill:#ffffff"/><path stroke-miterlimit="10" d="m 3075.326,2159.579 c 0,11.529 -21.49,20.877 -48,20.877 -26.51,0 -48,-9.348 -48,-20.877 0,-11.531 -4.51,-50.221 22,-50.221 26.51,0 74,38.69 74,50.221 z" id="path17747" inkscape:connector-curvature="0" style="fill:#ff00ff;stroke:#231f20;stroke-width:2;stroke-linecap:round;stroke-linejoin:round;stroke-miterlimit:10"/><path d="m 3018.326,2140.36 c 0,6.074 -4.926,11 -11,11 v 0 c -6.076,0 -11,-4.926 -11,-11 v 0 c 0,-6.076 4.924,-11 11,-11 v 0 c 6.074,0 11,4.924 11,11 z" id="path17749" inkscape:connector-curvature="0" style="opacity:0.5;fill:#ffffff"/><path d="m 3040.873,2157.419 c 0,2.729 -2.211,4.941 -4.939,4.941 v 0 c -2.73,0 -4.941,-2.213 -4.941,-4.941 v 0 c 0,-2.729 2.211,-4.941 4.941,-4.941 v 0 c 2.728,0 4.939,2.212 4.939,4.941 z" id="path17751" inkscape:connector-curvature="0" style="opacity:0.5;fill:#ffffff"/></g><path stroke-miterlimit="10" d="m 3207.287,1889.185 -3.992,31.131 c -4.139,17.265 -67.131,23.179 -62.992,5.912 l 7.518,-64.815 c 4.139,-17.269 21.49,-27.912 38.76,-23.775" id="path17755" inkscape:connector-curvature="0" style="fill:#bfbebe;stroke:#231f20;stroke-width:4.25229979;stroke-linecap:round;stroke-linejoin:round;stroke-miterlimit:10"/><path stroke-miterlimit="10" d="m 3141.172,1918.743 c 0,0 7.123,13.072 40.123,6.072" id="path17757" inkscape:connector-curvature="0" style="fill:none;stroke:#231f20;stroke-width:2.92280006;stroke-linecap:round;stroke-linejoin:round;stroke-miterlimit:10"/></g><path stroke-miterlimit="10" d="m 85.155982,205.76005 c 1.220798,0.92107 2.440533,1.83151 3.35347,-0.32602 -0.1589,-0.0973 -4.93129,-6.41579 -3.35347,0.32602 z" id="path27666-6" inkscape:connector-curvature="0" style="fill:#00ff00;fill-opacity:1;stroke:#231f20;stroke-width:0.33082089;stroke-linecap:round;stroke-linejoin:round;stroke-miterlimit:10" sodipodi:nodetypes="ccc"/><path stroke-miterlimit="10" d="m 64.467636,199.01615 c 1.474937,-0.40407 2.940808,-0.8138 1.79005,-2.85443 0.07564,0.0747 -4.149188,0.11753 -1.79005,2.85443 z" id="path27666-6-5" inkscape:connector-curvature="0" style="fill:#00ffff;fill-opacity:1;stroke:#231f20;stroke-width:0.33082089;stroke-linecap:round;stroke-linejoin:round;stroke-miterlimit:10" sodipodi:nodetypes="ccc"/><path stroke-miterlimit="10" d="m 63.076969,207.14848 3.862281,-2.23674 c 0,0 0.8583,3.53463 -3.862281,2.23674 z" id="path27674-3" inkscape:connector-curvature="0" style="fill:#ca45ce;fill-opacity:1;stroke:#231f20;stroke-width:0.33082089;stroke-linecap:round;stroke-linejoin:round;stroke-miterlimit:10"/><path stroke-miterlimit="10" d="m 56.045013,201.53749 3.777341,-3.54151 c 0,0 1.309614,3.61148 -3.777341,3.54151 z" id="path27684-5" inkscape:connector-curvature="0" style="fill:#ffffff;stroke:#231f20;stroke-width:0.35844141;stroke-linecap:round;stroke-linejoin:round;stroke-miterlimit:10"/><path stroke-miterlimit="10" d="m 95.08949,212.17333 c 0,0 -1.542261,1.37447 -4.268025,-0.92916 l 0.170505,-3.26799 c 2.991045,1.0676 1.59846,3.29733 3.751118,1.29288 0,0 -1.369674,1.97808 0.346402,2.90427 z" id="path27644-6" inkscape:connector-curvature="0" style="fill:#ff00ff;fill-opacity:1;stroke:#231f20;stroke-width:0.2359121;stroke-linecap:round;stroke-linejoin:round;stroke-miterlimit:10" sodipodi:nodetypes="ccccc"/><g id="g103865" transform="matrix(0.11701699,0,0,0.12787532,-25.930159,797.95172)" inkscape:export-filename="/home/russs/Documents/Global Ecobrick Alli Dropbox/Vision Ecobrick Source FIles/Catalyst Program/Company Presentation/Presentation Slides and Graphics/PTR 1.png" inkscape:export-xdpi="198.06807" inkscape:export-ydpi="198.06807"><ellipse inkscape:export-ydpi="508.35941" inkscape:export-xdpi="508.35941" inkscape:export-filename="/home/russs/Documents/Global Ecobrick Alli Dropbox/Vision Ecobrick Source FIles/Catalyst Program/Company Presentation/Presentation Slides and Graphics/weighed plastic.png" ry="50.531254" rx="157.37308" cy="-4257.0298" cx="601.99335" id="path65729-5" style="fill:#cccccc;fill-opacity:1;stroke:#e6e6e6;stroke-width:1.20403528;stroke-miterlimit:4;stroke-dasharray:none;stroke-opacity:1"/><g inkscape:export-filename="/home/russs/Documents/Global Ecobrick Alli Dropbox/Vision Ecobrick Source FIles/Catalyst Program/Company Presentation/Presentation Slides and Graphics/weighed plastic.png" inkscape:export-ydpi="508.35941" inkscape:export-xdpi="508.35941" transform="matrix(0.66082533,0,0,0.63702566,-1150.1523,-5470.3015)" id="g9137-2-4-8"><path style="fill:#806600;stroke:#000000;stroke-width:5.33617592px;stroke-linecap:butt;stroke-linejoin:miter;stroke-opacity:1" d="m 2655.2074,1544.6414 c -155.6351,7.0866 -256.8335,34.3417 -286.3709,64.1041 129.5156,84.1693 247.7765,37.6442 371.6648,56.464 63.0618,-21.8768 99.0341,16.874 186.8175,-71.795 -89.4491,-39.3487 -178.6869,-35.8404 -272.1114,-48.7731 z" id="path1676-2-0-00" inkscape:connector-curvature="0" sodipodi:nodetypes="ccccc"/><g inkscape:export-filename="/home/russs/Dropbox/Vision Ecobrick Source FIles/GEA Main docs/PTR/PTR Ratio Illustration.png" inkscape:export-ydpi="97.071404" inkscape:export-xdpi="97.071404" transform="matrix(1.5132592,0,0,1.5697955,-1848.1395,8126.1655)" id="g1747-2-6-0"><ellipse id="ellipse1697-6-5-4" ry="32.772057" rx="95.946457" cy="-4040.3857" cx="2976.2292" style="fill:#a5a5a5;stroke-width:0.80794978"/><ellipse id="ellipse1699-1-9-7" ry="32.772057" rx="95.946457" cy="-4079.6201" cx="3042.6531" style="fill:#a5a5a5;stroke-width:0.80794978"/><ellipse id="ellipse1701-0-5-5" ry="32.772057" rx="95.946457" cy="-4097.8174" cx="2936.0037" style="fill:#a5a5a5;stroke-width:0.80794978"/><g id="g7928-6-6-3"><path style="fill:#d1eaf2;stroke:#283f00;stroke-width:1.23922789;stroke-linecap:round;stroke-linejoin:round;stroke-miterlimit:10" inkscape:connector-curvature="0" id="path26437-0-1-1-1" d="m 2967.4357,-4173.9935 2.2576,-1.1403 -0.6242,-2.8857 0.019,0.01 c 5.3614,-13.1169 10.5384,-25.6806 10.6564,-25.9864 0,0 3.8852,-7.2313 12.0927,-6.8077 l 0.5652,-1.3899 -0.9438,-1.0245 2.1503,-5.2566 16.5363,6.5064 -2.1401,5.2544 -1.2928,-0.1389 -0.671,1.6659 c 6.1432,5.2552 3.9073,13.0823 3.9073,13.0823 -0.012,0.03 -0.023,0.061 -0.033,0.089 l 0.06,-0.071 c 0,0 -2.9084,7.259 -6.6447,16.5305 l -41.9075,16.4197 c 1.7275,-4.3148 3.8332,-9.5266 6.0126,-14.8546 z" stroke-miterlimit="10"/><path style="fill:#ff2a2a;stroke:#283f00;stroke-width:1.23922789;stroke-linecap:round;stroke-linejoin:round;stroke-miterlimit:10" inkscape:connector-curvature="0" id="path26439-6-5-1-4" d="m 3004.1372,-4220.966 c 4.9746,1.959 8.7617,4.1387 8.4624,4.8799 l -2.0407,5.0039 v 0 l -0.9142,2.25 c 0,0 -1.6545,0.2568 -9.1886,-2.5626 -7.8713,-3.0797 -8.8265,-4.5211 -8.8265,-4.5211 l 0.9215,-2.2561 2.0448,-5.0154 c 0.3003,-0.7283 4.5689,0.27 9.5413,2.2214 z" stroke-miterlimit="10"/><path style="fill:#ff8080;stroke:#283f00;stroke-width:1.23922789;stroke-linecap:round;stroke-linejoin:round;stroke-miterlimit:10" inkscape:connector-curvature="0" id="path26441-1-9-4-2" d="m 2969.0825,-4178.7315 c 0,-0.2598 4.8724,-12.5592 10.1825,-25.5479 l 0.5653,-0.2705 c -0.1314,0.3283 -0.2024,0.5277 -0.2022,0.5611 -1.3817,7.5406 27.384,17.2185 31.1084,12.5775 -2.2601,5.5917 -4.4682,11.0321 -6.2615,15.4044 l -21.2491,8.3256 c -7.68,-2.7764 -14.8524,-7.1915 -14.1434,-11.0502 z" stroke-miterlimit="10"/></g><g id="g1713-4-3-0" transform="matrix(0.73493422,0,0,0.77213845,103.18703,-2042.5169)"><path id="path1703-9-7-1" d="m 3809.506,-2798.195 c 106.289,0 96.223,131.18 96.223,131.18 0,19.547 -95.289,36.221 -95.289,36.221 0,0 -97.156,-16.006 -97.156,-36.221 0,0 -13.114,-131.18 96.222,-131.18 z" stroke-miterlimit="10" inkscape:connector-curvature="0" style="fill:#ffffff;stroke:#231f20;stroke-width:4.25229979;stroke-linecap:round;stroke-linejoin:round;stroke-miterlimit:10"/><path id="path1705-0-2-3" d="m 3807.037,-2783.963 c -56.814,2.341 -69.641,44.773 -69.641,44.773 l 62.508,24.805 80.99,-20.167 c 0,0 1.891,-49.594 -73.857,-49.411 z" inkscape:connector-curvature="0" style="fill:#ca45ce"/><path id="path1707-9-7-0" d="m 3884.189,-2725.708 c 0,0 7.727,19.323 4.213,33.776 l -79.256,23.123 -78.072,-24.764 c 0,0 -0.777,-26.828 6.322,-35.926 l 62.328,21.807 z" inkscape:connector-curvature="0" style="fill:#ca45ce"/><path id="path1709-1-3-0" d="m 3889.318,-2679.48 c 0,0 11.213,25.343 -79.135,37.348 0,0 -60.879,-9.334 -79.133,-24.009 v -13.339 l 76.281,22.048 z" inkscape:connector-curvature="0" style="fill:#ca45ce"/><path id="path1711-7-3-4" d="m 3781.646,-2814.747 c 0,14.61 27.859,26.454 27.859,26.454 0,0 27.857,-11.844 27.857,-26.454 0,-14.61 -55.716,-14.609 -55.716,0 z" stroke-miterlimit="10" inkscape:connector-curvature="0" style="fill:#ffffff;stroke:#231f20;stroke-width:4.25229979;stroke-linecap:round;stroke-linejoin:round;stroke-miterlimit:10"/></g><g id="g1729-7-9-8" transform="matrix(0.80794976,0,0,0.80794976,-146.8634,-1948.4202)"><path id="path1715-1-2-2" d="m 3952.758,-2784.129 c 106.291,0 96.225,131.18 96.225,131.18 0,19.548 -95.289,36.22 -95.289,36.22 0,0 -97.16,-16.006 -97.16,-36.22 0,0 -13.11,-131.18 96.224,-131.18 z" stroke-miterlimit="10" inkscape:connector-curvature="0" style="fill:#ffffff;stroke:#231f20;stroke-width:4.25229979;stroke-linecap:round;stroke-linejoin:round;stroke-miterlimit:10"/><path id="path1717-1-4-20" d="m 3950.291,-2769.897 c -56.816,2.34 -69.641,44.773 -69.641,44.773 l 62.508,24.805 80.988,-20.167 c 0,0 1.891,-49.595 -73.855,-49.411 z" inkscape:connector-curvature="0" style="fill:#d3c24a"/><path id="path1719-5-4-2" d="m 4027.441,-2711.642 c 0,0 7.727,19.323 4.215,33.776 l -79.256,23.123 -78.072,-24.763 c 0,0 -0.777,-26.828 6.322,-35.926 l 62.326,21.807 z" inkscape:connector-curvature="0" style="fill:#d3c24a"/><path id="path1721-9-4-4" d="m 4032.57,-2665.414 c 0,0 11.213,25.343 -79.133,37.347 0,0 -60.879,-9.333 -79.137,-24.009 v -13.338 l 76.285,22.047 z" inkscape:connector-curvature="0" style="fill:#d3c24a"/><path id="path1723-7-9-5" d="m 3953.693,-2616.729 c 0,0 -3.752,-39.72 1.59,-60.606" stroke-miterlimit="10" inkscape:connector-curvature="0" style="fill:none;stroke:#231f20;stroke-width:4.25229979;stroke-linecap:round;stroke-linejoin:round;stroke-miterlimit:10"/><path id="path1725-7-9-8" d="m 3924.896,-2800.682 c 0,14.61 27.861,26.455 27.861,26.455 0,0 27.861,-11.845 27.861,-26.455 0,-14.609 -55.722,-14.609 -55.722,0 z" stroke-miterlimit="10" inkscape:connector-curvature="0" style="fill:#ffffff;stroke:#231f20;stroke-width:4.25229979;stroke-linecap:round;stroke-linejoin:round;stroke-miterlimit:10"/><path id="path1727-6-3-4" d="m 3998.008,-2693.6 c 3.324,-0.145 5.896,-2.821 5.742,-5.979 l -1.125,-23.208 c -0.148,-3.158 -2.969,-5.6 -6.293,-5.455 v 0 c -3.328,0.145 -5.896,2.823 -5.746,5.98 l 1.121,23.208 c 0.152,3.157 2.975,5.599 6.301,5.454 z" inkscape:connector-curvature="0" style="fill:#ffffff"/></g><g id="g1745-7-8-0" transform="matrix(0.80794976,0,0,0.80794976,-117.34084,-1948.4202)"><path id="path1731-3-3-8" d="m 3835.449,-2736.779 c -110.578,0 -100.105,136.473 -100.105,136.473 0,20.336 99.133,37.682 99.133,37.682 0,0 101.078,-16.652 101.078,-37.682 0,0 13.64,-136.473 -100.106,-136.473 z" stroke-miterlimit="10" inkscape:connector-curvature="0" style="fill:#ffffff;stroke:#231f20;stroke-width:4.25229979;stroke-linecap:round;stroke-linejoin:round;stroke-miterlimit:10"/><path id="path1733-6-2-4" d="m 3838.016,-2721.972 c 59.109,2.435 72.453,46.58 72.453,46.58 l -65.033,25.807 -84.258,-20.98 c 0,-10e-4 -1.965,-51.598 76.838,-51.407 z" inkscape:connector-curvature="0" style="fill:#42ad42"/><path id="path1735-5-9-2" d="m 3757.752,-2661.367 c 0,0 -8.037,20.103 -4.383,35.139 l 82.451,24.056 81.225,-25.762 c 0,0 0.809,-27.911 -6.576,-37.376 l -64.848,22.687 z" inkscape:connector-curvature="0" style="fill:#42ad42"/><path id="path1737-6-5-5" d="m 3752.414,-2613.272 c 0,0 -11.662,26.365 82.33,38.854 0,0 63.334,-9.711 82.326,-24.978 v -13.876 l -79.363,22.937 z" inkscape:connector-curvature="0" style="fill:#42ad42"/><path id="path1739-3-4-4" d="m 3834.477,-2562.624 c 0,0 0,-16.65 0,-22.201 -11.752,-9.542 0,-17.347 0,-17.347 0,0 -3.9,-20.583 2.922,-29.833" stroke-miterlimit="10" inkscape:connector-curvature="0" style="fill:none;stroke:#231f20;stroke-width:4.25229979;stroke-linecap:round;stroke-linejoin:round;stroke-miterlimit:10"/><path id="path1741-9-3-2" d="m 3864.432,-2753.998 c 0,15.199 -28.982,27.521 -28.982,27.521 0,0 -28.986,-12.322 -28.986,-27.521 0,-15.199 57.968,-15.199 57.968,0 z" stroke-miterlimit="10" inkscape:connector-curvature="0" style="fill:#ffffff;stroke:#231f20;stroke-width:4.25229979;stroke-linecap:round;stroke-linejoin:round;stroke-miterlimit:10"/><path id="path1743-4-9-7" d="m 3876.055,-2637.795 c -3.461,-0.151 -6.137,-2.935 -5.977,-6.222 l 1.166,-24.145 c 0.16,-3.285 3.094,-5.826 6.555,-5.675 v 0 c 3.459,0.151 6.133,2.936 5.973,6.222 l -1.166,24.144 c -0.159,3.287 -3.092,5.828 -6.551,5.676 z" inkscape:connector-curvature="0" style="fill:#ffffff"/></g><g id="g70415-8-4-5" transform="matrix(0.52112224,-0.35954933,0.35683369,0.52508819,1263.224,-4574.216)" style="opacity:1;fill:#cccccc" inkscape:export-xdpi="20.325682" inkscape:export-ydpi="20.325682"><g style="fill:#cccccc;stroke:#000000" transform="matrix(1.3333333,0,0,-1.3333333,1902.274,2160.587)" id="g69144-1-9-7"><path inkscape:connector-curvature="0" id="path69146-2-5-5" style="fill:#cccccc;fill-opacity:1;fill-rule:nonzero;stroke:#000000" d="m 0,0 c -4.355,0.535 -7.903,12.723 -10.152,11.643 -14.641,-7.045 -49.291,-27.942 -51.049,-24.457 -1.783,3.537 94.445,57.503 98.295,59.046 3.854,1.543 12.275,-17.291 10.684,-18.224 0,0 -6.447,-4.569 -11.364,-6.36 -1.532,-0.558 -8.685,10.989 -9.096,10.77 -0.515,-0.273 -2.98,-1.773 -3.514,-2.063 -0.506,-0.271 4.148,-8.851 -0.675,-9.214 0.82,-2.731 -0.454,-4.186 -2.47,-4.28 -0.047,-0.718 0.547,-2.338 0.58,-4.15 C 8.962,3.061 0,0 0,0"/></g><g style="fill:#cccccc;stroke:#000000" transform="matrix(1.3333333,0,0,-1.3333333,1902.274,2160.587)" id="g69148-9-5-2"><path inkscape:connector-curvature="0" id="path69150-3-7-2" style="fill:#cccccc;stroke:#000000;stroke-width:1.45599997;stroke-linecap:round;stroke-linejoin:round;stroke-miterlimit:10;stroke-dasharray:none;stroke-opacity:1" d="m 0,0 c -4.355,0.535 -7.903,12.723 -10.152,11.643 -14.641,-7.045 -49.291,-27.942 -51.049,-24.457 -1.783,3.537 94.445,57.503 98.295,59.046 3.854,1.543 12.275,-17.291 10.684,-18.224 0,0 -6.447,-4.569 -11.364,-6.36 -1.532,-0.558 -8.685,10.989 -9.096,10.77 -0.515,-0.273 -2.98,-1.773 -3.514,-2.063 -0.506,-0.271 4.148,-8.851 -0.675,-9.214 0.82,-2.731 -0.454,-4.186 -2.47,-4.28 -0.047,-0.718 0.547,-2.338 0.58,-4.15 C 8.962,3.061 0,0 0,0 Z"/></g><g style="fill:#cccccc;stroke:#000000" transform="matrix(1.3333333,0,0,-1.3333333,1905.2155,2157.8709)" id="g69152-9-3-8"><path inkscape:connector-curvature="0" id="path69154-0-9-6" style="fill:#cccccc;fill-opacity:1;fill-rule:nonzero;stroke:#000000;stroke-width:1.45599997;stroke-linecap:round;stroke-linejoin:round;stroke-miterlimit:10;stroke-dasharray:none;stroke-opacity:1" d="M 0,0 C 0,0 -2.245,4.117 -6.53,11.832"/></g><g style="fill:#cccccc;stroke:#000000" transform="matrix(1.3333333,0,0,-1.3333333,1909.0956,2155.5661)" id="g69156-8-0-6"><path inkscape:connector-curvature="0" id="path69158-8-7-0" style="fill:#cccccc;fill-opacity:1;fill-rule:nonzero;stroke:#000000;stroke-width:1.45599997;stroke-linecap:round;stroke-linejoin:round;stroke-miterlimit:10;stroke-dasharray:none;stroke-opacity:1" d="M 0,0 C 0,0 -1.644,4.449 -5.926,12.162"/></g><g style="fill:#cccccc;stroke:#000000" transform="matrix(1.3333333,0,0,-1.3333333,1913.4824,2154.0166)" id="g69160-5-2-0"><path inkscape:connector-curvature="0" id="path69162-0-7-9" style="fill:#cccccc;fill-opacity:1;fill-rule:nonzero;stroke:#000000;stroke-width:1.45599997;stroke-linecap:round;stroke-linejoin:round;stroke-miterlimit:10;stroke-dasharray:none;stroke-opacity:1" d="M 0,0 C 0,0 -1.415,5.35 -5.7,13.063"/></g><g style="fill:#cccccc;stroke:#000000" transform="matrix(1.3333333,0,0,-1.3333333,1918.7897,2150.9073)" id="g69164-9-2-1"><path inkscape:connector-curvature="0" id="path69166-6-9-2" style="fill:#cccccc;fill-opacity:1;fill-rule:nonzero;stroke:#000000;stroke-width:1.45599997;stroke-linecap:round;stroke-linejoin:round;stroke-miterlimit:10;stroke-dasharray:none;stroke-opacity:1" d="M 0,0 C 0,0 -1.879,5.078 -6.165,12.791"/></g><g style="fill:#cccccc;stroke:#000000" transform="matrix(1.3333333,0,0,-1.3333333,1923.5084,2148.139)" id="g69168-3-0-6"><path inkscape:connector-curvature="0" id="path69170-8-5-9" style="fill:#cccccc;fill-opacity:1;fill-rule:nonzero;stroke:#000000;stroke-width:1.45599997;stroke-linecap:round;stroke-linejoin:round;stroke-miterlimit:10;stroke-dasharray:none;stroke-opacity:1" d="M 0,0 C 0,0 -1.367,5.379 -6.186,12.775"/></g><g style="fill:#cccccc;stroke:#000000" transform="matrix(1.3333333,0,0,-1.3333333,1926.2844,2146.1026)" id="g69172-5-0-4"><path inkscape:connector-curvature="0" id="path69174-6-4-8" style="fill:#cccccc;fill-opacity:1;fill-rule:nonzero;stroke:#000000;stroke-width:1.45599997;stroke-linecap:round;stroke-linejoin:round;stroke-miterlimit:10;stroke-dasharray:none;stroke-opacity:1" d="M 0,0 C 0,0 -0.466,5.594 -4.754,13.311"/></g><g style="fill:#cccccc;stroke:#000000" transform="matrix(1.3333333,0,0,-1.3333333,1930.5931,2143.639)" id="g69176-1-1-2"><path inkscape:connector-curvature="0" id="path69178-1-7-82" style="fill:#cccccc;fill-opacity:1;fill-rule:nonzero;stroke:#000000;stroke-width:1.45599997;stroke-linecap:round;stroke-linejoin:round;stroke-miterlimit:10;stroke-dasharray:none;stroke-opacity:1" d="M 0,0 C 0,0 -0.908,5.742 -4.468,13.523"/></g><g style="fill:#cccccc;stroke:#000000" transform="matrix(1.3333333,0,0,-1.3333333,1933.4185,2134.3135)" id="g69180-5-9-7"><path inkscape:connector-curvature="0" id="path69182-9-3-8" style="fill:#cccccc;fill-opacity:1;fill-rule:nonzero;stroke:#000000;stroke-width:1.45599997;stroke-linecap:round;stroke-linejoin:round;stroke-miterlimit:10;stroke-dasharray:none;stroke-opacity:1" d="M 0,0 C -0.593,2.34 -1.546,5.301 -3.071,8.59"/></g><g style="fill:#cccccc;stroke:#000000" transform="matrix(1.3333333,0,0,-1.3333333,1954.3456,2130.0609)" id="g69184-8-6-6"><path inkscape:connector-curvature="0" id="path69186-4-2-7" style="fill:#cccccc;fill-opacity:1;fill-rule:nonzero;stroke:#000000;stroke-width:1.45599997;stroke-linecap:round;stroke-linejoin:round;stroke-miterlimit:10;stroke-dasharray:none;stroke-opacity:1" d="M 0,0 C 0,0 -3.933,3.873 -8.22,11.584"/></g><g style="fill:#cccccc;stroke:#000000" transform="matrix(1.3333333,0,0,-1.3333333,1957.6177,2128.1442)" id="g69188-8-1-7"><path inkscape:connector-curvature="0" id="path69190-1-2-0" style="fill:#cccccc;fill-opacity:1;fill-rule:nonzero;stroke:#000000;stroke-width:1.45599997;stroke-linecap:round;stroke-linejoin:round;stroke-miterlimit:10;stroke-dasharray:none;stroke-opacity:1" d="M 0,0 C 0,0 -2.179,4.904 -7.156,12.207"/></g><g style="fill:#cccccc;stroke:#000000" transform="matrix(1.3333333,0,0,-1.3333333,1962.3065,2125.3942)" id="g69192-0-5-9"><path inkscape:connector-curvature="0" id="path69194-3-3-4" style="fill:#cccccc;fill-opacity:1;fill-rule:nonzero;stroke:#000000;stroke-width:1.45599997;stroke-linecap:round;stroke-linejoin:round;stroke-miterlimit:10;stroke-dasharray:none;stroke-opacity:1" d="M 0,0 C 0,0 -2.086,4.598 -7.157,12.207"/></g></g><g id="g7936-0-9-54" transform="matrix(0.99077454,0.15373858,-0.21373784,0.97614565,-770.08118,-511.35718)"><path stroke-miterlimit="10" d="m 2967.4357,-4173.9935 2.2576,-1.1403 -0.6242,-2.8857 0.019,0.01 c 5.3614,-13.1169 10.5384,-25.6806 10.6564,-25.9864 0,0 3.8852,-7.2313 12.0927,-6.8077 l 0.5652,-1.3899 -0.9438,-1.0245 2.1503,-5.2566 16.5363,6.5064 -2.1401,5.2544 -1.2928,-0.1389 -0.671,1.6659 c 6.1432,5.2552 3.9073,13.0823 3.9073,13.0823 -0.012,0.03 -0.023,0.061 -0.033,0.089 l 0.06,-0.071 c 0,0 -2.9084,7.259 -6.6447,16.5305 l -41.9075,16.4197 c 1.7275,-4.3148 3.8332,-9.5266 6.0126,-14.8546 z" id="path7930-4-1-2" inkscape:connector-curvature="0" style="fill:#d1eaf2;stroke:#283f00;stroke-width:1.23922789;stroke-linecap:round;stroke-linejoin:round;stroke-miterlimit:10"/><path stroke-miterlimit="10" d="m 3004.1372,-4220.966 c 4.9746,1.959 8.7617,4.1387 8.4624,4.8799 l -2.0407,5.0039 v 0 l -0.9142,2.25 c 0,0 -1.6545,0.2568 -9.1886,-2.5626 -7.8713,-3.0797 -8.8265,-4.5211 -8.8265,-4.5211 l 0.9215,-2.2561 2.0448,-5.0154 c 0.3003,-0.7283 4.5689,0.27 9.5413,2.2214 z" id="path7932-4-8-2" inkscape:connector-curvature="0" style="fill:#0000ff;fill-opacity:1;stroke:#283f00;stroke-width:1.23922789;stroke-linecap:round;stroke-linejoin:round;stroke-miterlimit:10"/><path stroke-miterlimit="10" d="m 2969.0825,-4178.7315 c 0,-0.2598 4.8724,-12.5592 10.1825,-25.5479 l 0.5653,-0.2705 c -0.1314,0.3283 -0.2024,0.5277 -0.2022,0.5611 -1.3817,7.5406 27.384,17.2185 31.1084,12.5775 -2.2601,5.5917 -4.4682,11.0321 -6.2615,15.4044 l -21.2491,8.3256 c -7.68,-2.7764 -14.8524,-7.1915 -14.1434,-11.0502 z" id="path7934-4-8-3" inkscape:connector-curvature="0" style="fill:#42a9d1;fill-opacity:1;stroke:#283f00;stroke-width:1.23922789;stroke-linecap:round;stroke-linejoin:round;stroke-miterlimit:10"/></g></g><g inkscape:export-ydpi="20.325682" inkscape:export-xdpi="20.325682" inkscape:export-filename="C:\Users\End User\Documents\Ecobricks\Banners\g3658-9-7-0.png" style="fill:#f2f2f2;stroke:#000000;stroke-width:1.10000002;stroke-miterlimit:4;stroke-dasharray:none;stroke-opacity:1" transform="matrix(-1.4409261,1.3411483,-1.2327735,-1.2395641,3023.5451,1952.1857)" id="g3817-4-7-4-7-9"><g style="fill:#f2f2f2;stroke:#000000;stroke-width:1.10000002;stroke-miterlimit:4;stroke-dasharray:none;stroke-opacity:1" id="g3355-4-0-7-0-6" transform="translate(57.8154,406.502)"><path inkscape:connector-curvature="0" d="m 0,0 c 9.405,5.92 12.372,-4.73 16.621,-12.98 4.37,-8.495 6.773,-18.211 8.172,-34.53 1.395,-16.322 3.662,-26.388 5.532,-31.213 0.976,-2.502 -2.505,-5.779 -5.451,-2.584 -2.951,3.196 -5.607,16.526 -7.458,34.092 -1.158,10.955 -3.498,27.947 -6.74,27.444 C 7.431,-20.273 -3.275,-2.063 0,0" style="fill:#f2f2f2;fill-opacity:1;fill-rule:nonzero;stroke:#000000;stroke-width:1.10000002;stroke-miterlimit:4;stroke-dasharray:none;stroke-opacity:1" id="path3357-3-0-6-5-5"/></g><g style="fill:#f2f2f2;stroke:#000000;stroke-width:1.10000002;stroke-miterlimit:4;stroke-dasharray:none;stroke-opacity:1" id="g3359-6-03-3-2-7" transform="translate(57.8154,406.502)"><path inkscape:connector-curvature="0" d="m 0,0 c 9.405,5.92 12.372,-4.73 16.621,-12.98 4.37,-8.495 6.773,-18.211 8.172,-34.53 1.395,-16.322 3.662,-26.388 5.532,-31.213 0.976,-2.502 -2.505,-5.779 -5.451,-2.584 -2.951,3.196 -5.607,16.526 -7.458,34.092 -1.158,10.955 -3.498,27.947 -6.74,27.444 C 7.431,-20.273 -3.275,-2.063 0,0 Z" style="fill:#f2f2f2;stroke:#000000;stroke-width:1.10000002;stroke-linecap:round;stroke-linejoin:round;stroke-miterlimit:4;stroke-dasharray:none;stroke-opacity:1" id="path3361-4-0-1-7-4"/></g><g style="fill:#f2f2f2;stroke:#000000;stroke-width:1.10000002;stroke-miterlimit:4;stroke-dasharray:none;stroke-opacity:1" id="g3363-8-4-7-9-3" transform="translate(53.2939,404.0117)"><path inkscape:connector-curvature="0" d="m 0,0 c 3.063,-1.512 6.506,0.445 8.692,1.189 2.186,0.741 10.041,-13.144 8.971,-15.314 -1.066,-2.17 -6.041,-4.812 -4.853,-8.311 0,0 -2.387,1.336 -6.044,6.707 -0.397,0.581 2.501,4.579 2.501,4.579 0,0 -4.652,-1.184 -5.135,-0.34 C -0.974,-2.541 0,0 0,0" style="fill:#f2f2f2;fill-opacity:1;fill-rule:nonzero;stroke:#000000;stroke-width:1.10000002;stroke-miterlimit:4;stroke-dasharray:none;stroke-opacity:1" id="path3365-3-0-5-1-94"/></g><g style="fill:#f2f2f2;stroke:#000000;stroke-width:1.10000002;stroke-miterlimit:4;stroke-dasharray:none;stroke-opacity:1" id="g3367-7-4-9-9-4" transform="translate(53.2939,404.0117)"><path inkscape:connector-curvature="0" d="m 0,0 c 3.063,-1.512 6.506,0.445 8.692,1.189 2.186,0.741 10.041,-13.144 8.971,-15.314 -1.066,-2.17 -6.041,-4.812 -4.853,-8.311 0,0 -2.387,1.336 -6.044,6.707 -0.397,0.581 2.501,4.579 2.501,4.579 0,0 -4.652,-1.184 -5.135,-0.34 C -0.974,-2.541 0,0 0,0 Z" style="fill:#f2f2f2;stroke:#000000;stroke-width:1.10000002;stroke-linecap:round;stroke-linejoin:round;stroke-miterlimit:4;stroke-dasharray:none;stroke-opacity:1" id="path3369-7-5-6-6-0"/></g><g style="fill:#f2f2f2;stroke:#000000;stroke-width:1.10000002;stroke-miterlimit:4;stroke-dasharray:none;stroke-opacity:1" id="g3371-9-6-2-3-6" transform="translate(54.9756,399.0488)"><path inkscape:connector-curvature="0" d="M 0,0 C 3.88,-0.412 6.354,2.109 6.424,2.178" style="fill:#f2f2f2;fill-opacity:1;fill-rule:nonzero;stroke:#000000;stroke-width:1.10000002;stroke-linecap:round;stroke-linejoin:round;stroke-miterlimit:4;stroke-dasharray:none;stroke-opacity:1" id="path3373-9-1-1-6-0"/></g><g style="fill:#f2f2f2;stroke:#000000;stroke-width:1.10000002;stroke-miterlimit:4;stroke-dasharray:none;stroke-opacity:1" id="g3375-7-2-7-8-2" transform="translate(62.6191,385.2168)"><path inkscape:connector-curvature="0" d="M 0,0 C 1.328,4.777 4.636,5.9 4.636,5.9" style="fill:#f2f2f2;fill-opacity:1;fill-rule:nonzero;stroke:#000000;stroke-width:1.10000002;stroke-linecap:round;stroke-linejoin:round;stroke-miterlimit:4;stroke-dasharray:none;stroke-opacity:1" id="path3377-1-87-8-4-2"/></g><g style="fill:#f2f2f2;stroke:#000000;stroke-width:1.10000002;stroke-miterlimit:4;stroke-dasharray:none;stroke-opacity:1" id="g3379-8-64-5-6-8" transform="translate(60.1689,388.7129)"><path inkscape:connector-curvature="0" d="m 0,0 c 0.153,1.852 5.042,5.494 5.042,5.494 0,0 -6.103,-2.883 -8.272,-1.066" style="fill:#f2f2f2;stroke:#000000;stroke-width:1.10000002;stroke-linecap:round;stroke-linejoin:round;stroke-miterlimit:4;stroke-dasharray:none;stroke-opacity:1" id="path3381-2-3-7-6-4"/></g><g style="fill:#f2f2f2;stroke:#000000;stroke-width:1.10000002;stroke-miterlimit:4;stroke-dasharray:none;stroke-opacity:1" id="g3383-1-7-4-7-3" transform="translate(55.166,396.6914)"><path inkscape:connector-curvature="0" d="M 0,0 C 2.618,-1.432 6.339,0.346 8.136,0.953" style="fill:#f2f2f2;fill-opacity:1;fill-rule:nonzero;stroke:#000000;stroke-width:1.10000002;stroke-linecap:round;stroke-linejoin:round;stroke-miterlimit:4;stroke-dasharray:none;stroke-opacity:1" id="path3385-2-36-1-2-1"/></g></g><g id="g26465-5-4-1" transform="matrix(0.70271347,0.09166275,-0.09311103,0.71381635,2098.8745,-86.481456)" inkscape:transform-center-x="-0.026344381" inkscape:transform-center-y="-0.90868056"><g id="g26443-9-1-1" transform="translate(624.21183,-395.33416)"><path stroke-miterlimit="10" d="m 381.10249,2705.6863 -6.077,-0.58 -1.315,-7.094 -0.034,0.033 c -24.172,-24.967 -47.417,-48.844 -47.965,-49.432 0,0 -15.389,-12.939 -33.207,-4.691 l -2.555,-2.648 1.136,-3.16 -9.691,-10.004 -30.61,29.43 9.666,10.008 2.739,-1.463 3.048,3.18 c -8.716,17.365 3.57,33.119 3.57,33.119 0.052,0.057 0.106,0.115 0.156,0.174 l -0.2,-0.109 c 0,0 13.247,13.869 30.214,31.564 h 108.368 c -7.871,-8.245 -17.421,-18.187 -27.243,-28.327 z" id="path26437-7-0-90" inkscape:connector-curvature="0" style="fill:#d1eaf2;stroke:#283f00;stroke-width:3;stroke-linecap:round;stroke-linejoin:round;stroke-miterlimit:10"/><path stroke-miterlimit="10" d="m 255.69949,2631.8193 c -9.207,8.857 -15.572,17.16 -14.214,18.574 l 9.211,9.529 v 0 l 4.134,4.287 c 0,0 3.912,-0.887 17.994,-13.967 14.587,-13.969 15.358,-18.084 15.358,-18.084 l -4.156,-4.295 -9.231,-9.551 c -1.348,-1.384 -9.887,4.669 -19.096,13.507 z" id="path26439-5-0-0" inkscape:connector-curvature="0" style="fill:#d17b42;fill-opacity:1;stroke:#283f00;stroke-width:3;stroke-linecap:round;stroke-linejoin:round;stroke-miterlimit:10"/><path stroke-miterlimit="10" d="m 373.01449,2696.4103 c -0.24,-0.59 -22.565,-24.137 -46.503,-48.859 l -1.508,-0.111 c 0.599,0.627 0.943,1.016 0.974,1.092 10.122,15.863 -44.661,63.34 -57.269,56.129 10.248,10.666 20.239,21.035 28.31,29.352 h 54.948 c 14.446,-13.112 26.232,-29.487 21.048,-37.603 z" id="path26441-3-6-02" inkscape:connector-curvature="0" style="fill:#d9d926;fill-opacity:1;stroke:#283f00;stroke-width:3;stroke-linecap:round;stroke-linejoin:round;stroke-miterlimit:10"/><path d="m 618.26792,2699.2637 c 0,8.033 -104.52702,25.5625 -112.54923,26.0624 -168.43857,10.4967 -221.47997,41.7967 -411.588879,-28.9754 -7.430302,-2.7661 -14.548,-6.514 -14.548,-14.547 v 0 c 0,-8.035 30.879199,-29.1818 38.180429,-26.1362 165.58568,69.071 326.93727,33.0941 488.65697,6.2501 7.92869,-1.3161 11.84871,29.3111 11.84871,37.3461 z" id="path26435-8-4-5" inkscape:connector-curvature="0" style="opacity:0.2;fill:#38200e;stroke-width:0.99999994" sodipodi:nodetypes="sssccsss"/></g></g><path style="fill:#d3bc5f;fill-opacity:1;stroke:#000000;stroke-width:5.33617592px;stroke-linecap:butt;stroke-linejoin:miter;stroke-opacity:1" d="m 2370.8017,1611.2518 c 29.7997,94.8907 38.9762,189.7815 95.6741,284.6722 106.1901,50.299 270.7066,49.3951 365.2307,6.4609 60.1441,-95.305 74.6981,-206.6062 96.4374,-312.3275 -97.9442,119.1362 -402.688,115.4857 -557.3422,21.1944 z" id="path1684-8-4-76" inkscape:connector-curvature="0" sodipodi:nodetypes="ccccc"/><g id="g26465-3-1-7-9" transform="matrix(-0.70271346,0.09166275,0.09311104,0.71381633,3378.379,-88.086518)" inkscape:transform-center-x="0.026345611" inkscape:transform-center-y="-0.90868056"><g id="g26443-2-8-3-1" transform="translate(624.21183,-395.33416)"><path d="m 620.96721,2676.4666 c 0,8.033 -16.59853,24.6862 -24.68223,24.4009 -92.90255,-3.2789 -173.91485,-3.1589 -275.67727,-73.3038 -6.47617,-4.464 35.64182,-7.6136 35.64182,-15.6466 v 0 c 0,-8.035 -12.83674,11.234 -6.57732,15.9595 51.59351,38.9497 152.73341,31.037 255.333,40.637 8.04374,0.7526 15.962,-0.082 15.962,7.953 z" id="path26435-5-9-4-9" inkscape:connector-curvature="0" style="opacity:0.2;fill:#38200e;stroke-width:0.99999994" sodipodi:nodetypes="sssccsss"/></g></g><path sodipodi:nodetypes="ccc" inkscape:connector-curvature="0" id="path65119-8" d="m 2382.7393,1638.3123 c 162.5276,73.088 351.0002,87.7796 509.6702,4.5787 28.1366,-15.2624 28.1366,-16.0255 28.1366,-16.0255" style="fill:none;stroke:#000000;stroke-width:3.64842963;stroke-linecap:butt;stroke-linejoin:miter;stroke-miterlimit:4;stroke-dasharray:none;stroke-opacity:1"/><path sodipodi:nodetypes="cc" inkscape:connector-curvature="0" id="path65664-7" d="m 2388.3662,1665.0214 c 63.2543,34.4646 121.1583,39.0547 190.524,54.1814" style="fill:none;stroke:#000000;stroke-width:2.21116948;stroke-linecap:butt;stroke-linejoin:miter;stroke-miterlimit:4;stroke-dasharray:none;stroke-opacity:1"/><path sodipodi:nodetypes="cc" inkscape:connector-curvature="0" id="path65664-2-6" d="m 2392.9343,1689.005 c 63.2543,34.4646 123.57,42.8703 165.6032,47.3133" style="fill:none;stroke:#000000;stroke-width:2.21116948;stroke-linecap:butt;stroke-linejoin:miter;stroke-miterlimit:4;stroke-dasharray:none;stroke-opacity:1"/><path sodipodi:nodetypes="cc" inkscape:connector-curvature="0" id="path65664-2-9-5" d="m 2399.8271,1715.3229 c 63.2543,34.4646 97.8453,37.5285 139.8785,41.9715" style="fill:none;stroke:#000000;stroke-width:2.21116948;stroke-linecap:butt;stroke-linejoin:miter;stroke-miterlimit:4;stroke-dasharray:none;stroke-opacity:1"/><path sodipodi:nodetypes="cc" inkscape:connector-curvature="0" id="path65664-2-9-7-1" d="m 2436.0123,1759.365 c 37.5296,23.0178 70.5365,17.0777 93.2427,20.4415" style="fill:none;stroke:#000000;stroke-width:2.21116948;stroke-linecap:butt;stroke-linejoin:miter;stroke-miterlimit:4;stroke-dasharray:none;stroke-opacity:1"/><path style="fill:none;stroke:#000000;stroke-width:2.21116948;stroke-linecap:butt;stroke-linejoin:miter;stroke-miterlimit:4;stroke-dasharray:none;stroke-opacity:1" d="m 2445.6001,1781.1927 c 37.5296,23.0178 97.2128,28.0007 144.9304,27.0477" id="path65711-1" inkscape:connector-curvature="0" sodipodi:nodetypes="cc"/><path sodipodi:nodetypes="cc" inkscape:connector-curvature="0" id="path65713-48" d="m 2402.8367,1659.6796 c 3.215,35.444 28.1785,127.2491 37.7829,146.5188" style="fill:none;stroke:#000000;stroke-width:1.43726015;stroke-linecap:butt;stroke-linejoin:miter;stroke-miterlimit:4;stroke-dasharray:none;stroke-opacity:1"/><path style="fill:none;stroke:#000000;stroke-width:1.43726015;stroke-linecap:butt;stroke-linejoin:miter;stroke-miterlimit:4;stroke-dasharray:none;stroke-opacity:1" d="m 2430.1692,1674.1789 c 3.215,35.444 41.0408,150.1427 50.6452,169.4124" id="path65715-5" inkscape:connector-curvature="0" sodipodi:nodetypes="cc"/><path sodipodi:nodetypes="cc" inkscape:connector-curvature="0" id="path65717-7" d="m 2459.9134,1678.7576 c 3.215,35.444 24.9629,124.1967 34.5673,143.4664" style="fill:none;stroke:#000000;stroke-width:1.43726015;stroke-linecap:butt;stroke-linejoin:miter;stroke-miterlimit:4;stroke-dasharray:none;stroke-opacity:1"/><path sodipodi:nodetypes="cc" inkscape:connector-curvature="0" id="path65719-66" d="m 2900.4485,1656.6271 c -17.3056,90.2314 -48.2705,151.9365 -75.5662,221.3045" style="fill:none;stroke:#000000;stroke-width:1.43726015;stroke-linecap:butt;stroke-linejoin:miter;stroke-miterlimit:4;stroke-dasharray:none;stroke-opacity:1"/><path sodipodi:nodetypes="cc" inkscape:connector-curvature="0" id="path65721-9" d="m 2876.3314,1667.3108 c -10.2361,56.2101 -28.887,111.4217 -56.2727,165.5968" style="fill:none;stroke:#000000;stroke-width:1.43726015;stroke-linecap:butt;stroke-linejoin:miter;stroke-miterlimit:4;stroke-dasharray:none;stroke-opacity:1"/><path sodipodi:nodetypes="cc" inkscape:connector-curvature="0" id="path65723-1" d="m 2846.5873,1677.9945 c -0.8751,34.5722 -12.9737,65.5929 -26.5286,96.1529" style="fill:none;stroke:#000000;stroke-width:1.43726015;stroke-linecap:butt;stroke-linejoin:miter;stroke-miterlimit:4;stroke-dasharray:none;stroke-opacity:1"/><path sodipodi:nodetypes="cc" inkscape:connector-curvature="0" id="path65725-4" d="m 2909.2916,1672.6526 c -34.8143,17.4709 -67.7888,27.9555 -100.4874,37.3928" style="fill:none;stroke:#000000;stroke-width:1.43726015;stroke-linecap:butt;stroke-linejoin:miter;stroke-miterlimit:4;stroke-dasharray:none;stroke-opacity:1"/><path style="fill:none;stroke:#000000;stroke-width:1.43726015;stroke-linecap:butt;stroke-linejoin:miter;stroke-miterlimit:4;stroke-dasharray:none;stroke-opacity:1" d="m 2878.7435,1703.9405 c -34.8143,17.4709 -67.7888,27.9555 -100.4874,37.3928" id="path65727-36" inkscape:connector-curvature="0" sodipodi:nodetypes="cc"/></g></g><g id="g7466" transform="matrix(0.66062934,0,0,0.62797009,37.560294,89.042753)"><path inkscape:connector-curvature="0" style="fill:#cccccc;fill-opacity:1;stroke:#cccccc;stroke-width:0.4351877px;stroke-linecap:butt;stroke-linejoin:miter;stroke-opacity:1" d="m 71.568425,295.59223 -2.213859,0.68713 c -0.733108,0.33717 -0.252911,0.45373 0.101651,0.59315 l 4.884441,1.36121 c 0.437938,0.23726 1.203583,0.13758 1.966473,-0.14771 l 26.615599,-9.91024 -8.533348,-1.65878" id="path20456-2" sodipodi:nodetypes="ccccccc"/><path style="fill:#cccccc;fill-opacity:1;stroke:#cccccc;stroke-width:0.41078451px;stroke-linecap:butt;stroke-linejoin:miter;stroke-opacity:1" d="m 127.96125,278.87981 11.92598,-4.25563 0.1288,-0.40432 -2.1515,-0.56585 -11.86495,3.49496 z" id="path7468" inkscape:connector-curvature="0" sodipodi:nodetypes="cccccc"/><path inkscape:connector-curvature="0" stroke-miterlimit="10" d="m 136.9247,270.24151 -65.397765,21.86988 3.489642,4.16228 64.609443,-23.27258 c 0.69612,0.28117 2.44391,-3.0529 -2.70132,-2.75958 z" id="path12595-5-37" style="fill:#c98441;stroke:#231f20;stroke-width:0.84945649;stroke-linecap:round;stroke-linejoin:round;stroke-miterlimit:10"/><path inkscape:connector-curvature="0" stroke-miterlimit="10" d="m 75.281051,295.65732 c -0.266171,1.81285 -2.968897,0.52782 -2.968897,0.52782 0,0 -1.843115,-0.48992 -1.636627,-2.52509 0,0 -0.206205,-2.55055 2.700463,-1.22677 2.157655,0.80361 2.04338,2.28127 1.905061,3.22404 z" id="path12597-9-4" style="fill:#d6a370;fill-opacity:1;stroke:#231f20;stroke-width:0.84945649;stroke-linecap:round;stroke-linejoin:round;stroke-miterlimit:10"/></g></g></svg>