<?xml version="1.0" encoding="UTF-8" standalone="no"?>
<svg
   width="282.06726mm"
   height="113.71766mm"
   viewBox="0 0 282.06726 113.71766"
   version="1.1"
   id="svg8"
   inkscape:version="1.3.2 (1:1.3.2+202311252150+091e20ef0f)"
   sodipodi:docname="aes-brk.svg"
   inkscape:export-filename="/home/russs/Documents/New Russ GEA Nextcloud/GEA Vision Ecobrick Source Files/GEA Logos/AES Plastic/AES Plastic Logo - floating -375px.png"
   inkscape:export-xdpi="70.85228"
   inkscape:export-ydpi="70.85228"
   xmlns:inkscape="http://www.inkscape.org/namespaces/inkscape"
   xmlns:sodipodi="http://sodipodi.sourceforge.net/DTD/sodipodi-0.dtd"
   xmlns:xlink="http://www.w3.org/1999/xlink"
   xmlns="http://www.w3.org/2000/svg"
   xmlns:svg="http://www.w3.org/2000/svg">
  <sodipodi:namedview
     id="namedview1"
     pagecolor="#ffffff"
     bordercolor="#000000"
     borderopacity="0.25"
     inkscape:showpageshadow="2"
     inkscape:pageopacity="0.0"
     inkscape:pagecheckerboard="0"
     inkscape:deskcolor="#d1d1d1"
     inkscape:document-units="mm"
     inkscape:zoom="0.65192045"
     inkscape:cx="175.63492"
     inkscape:cy="385.78326"
     inkscape:window-width="1280"
     inkscape:window-height="987"
     inkscape:window-x="0"
     inkscape:window-y="0"
     inkscape:window-maximized="1"
     inkscape:current-layer="layer1" />
  <defs
     id="defs2">
    <clipPath
       id="clipPath6603">
      <path
         transform="matrix(0.38983626,-0.00153776,0.00153776,0.38983626,-191.47698,-165.46688)"
         inkscape:connector-curvature="0"
         id="path6605"
         d="m 638.86215,565.0815 -22.19704,-0.0302 -0.56345,14.49005 3.09372,-0.003 c -0.0212,1.82912 -0.0475,3.62703 -0.072,5.49481 -4.31229,5.38107 -8.47497,4.98377 -12.40135,11.69511 -3.06068,12.42969 -0.64511,18.10036 0.89325,27.41466 1.12506,12.42327 -2.77243,12.52947 -1.90798,35.52946 -0.0464,4.81615 4.21928,9.86503 9.16151,9.75359 l 9.33285,-9.4e-4 v 10e-4 l 16.49507,-6.7e-4 c 4.94223,0.11143 9.20793,-4.9365 9.16153,-9.75265 0.86445,-22.99998 -3.03384,-23.10725 -1.90879,-35.53053 1.53836,-9.31429 3.95343,-14.98492 0.89275,-27.4146 -3.92638,-6.71134 -8.0891,-6.31398 -12.40139,-11.69505 -0.0246,-1.87431 -0.0507,-3.67905 -0.0719,-5.51496 l 2.88672,-0.004 -0.39342,-14.43229 z"
         mask="none"
         style="display:inline;fill:#ffffff;stroke:#000000;stroke-width:3.37;stroke-linecap:round;stroke-linejoin:round;stroke-miterlimit:4;stroke-dasharray:none;stroke-opacity:1;filter:url(#filter4530-5-2)" />
    </clipPath>
    <clipPath
       id="clipPath6603-3">
      <path
         style="display:inline;fill:#ffffff;stroke:#000000;stroke-width:3.37;stroke-linecap:round;stroke-linejoin:round;stroke-miterlimit:4;stroke-dasharray:none;stroke-opacity:1;filter:url(#filter4530-5-2)"
         mask="none"
         d="m 638.86215,565.0815 -22.19704,-0.0302 -0.56345,14.49005 3.09372,-0.003 c -0.0212,1.82912 -0.0475,3.62703 -0.072,5.49481 -4.31229,5.38107 -8.47497,4.98377 -12.40135,11.69511 -3.06068,12.42969 -0.64511,18.10036 0.89325,27.41466 1.12506,12.42327 -2.77243,12.52947 -1.90798,35.52946 -0.0464,4.81615 4.21928,9.86503 9.16151,9.75359 l 9.33285,-9.4e-4 v 10e-4 l 16.49507,-6.7e-4 c 4.94223,0.11143 9.20793,-4.9365 9.16153,-9.75265 0.86445,-22.99998 -3.03384,-23.10725 -1.90879,-35.53053 1.53836,-9.31429 3.95343,-14.98492 0.89275,-27.4146 -3.92638,-6.71134 -8.0891,-6.31398 -12.40139,-11.69505 -0.0246,-1.87431 -0.0507,-3.67905 -0.0719,-5.51496 l 2.88672,-0.004 -0.39342,-14.43229 z"
         id="path6605-6"
         inkscape:connector-curvature="0"
         transform="matrix(0.38983626,-0.00153776,0.00153776,0.38983626,-191.47698,-165.46688)" />
    </clipPath>
    <linearGradient
       inkscape:collect="always"
       xlink:href="#linearGradient52632"
       id="linearGradient18985"
       gradientUnits="userSpaceOnUse"
       gradientTransform="matrix(0.4870518,1.6638141e-8,-4.2556675e-8,0.47336978,161.75201,128.90647)"
       x1="91.161179"
       y1="89.878647"
       x2="114.81354"
       y2="163.29279" />
    <linearGradient
       inkscape:collect="always"
       id="linearGradient52632">
      <stop
         style="stop-color:#ffff00;stop-opacity:1;"
         offset="0"
         id="stop52628" />
      <stop
         style="stop-color:#fffff7;stop-opacity:1"
         offset="1"
         id="stop52630" />
    </linearGradient>
    <filter
       id="filter4326"
       inkscape:label="Drop Shadow"
       style="color-interpolation-filters:sRGB">
      <feFlood
         id="feFlood4316"
         result="flood"
         flood-color="rgb(33,254,246)"
         flood-opacity="1" />
      <feComposite
         id="feComposite4318"
         result="composite1"
         operator="in"
         in2="SourceGraphic"
         in="flood" />
      <feGaussianBlur
         id="feGaussianBlur4320"
         result="blur"
         stdDeviation="2.68052"
         in="composite1" />
      <feOffset
         id="feOffset4322"
         result="offset"
         dy="0"
         dx="0" />
      <feComposite
         id="feComposite4324"
         result="composite2"
         operator="over"
         in2="offset"
         in="SourceGraphic" />
    </filter>
  </defs>
  <metadata
     id="metadata5" />
  <g
     inkscape:label="Layer 1"
     inkscape:groupmode="layer"
     id="layer1"
     transform="translate(134.8324,-29.039516)">
    <path
       id="path3620"
       d="m -119.96478,29.93152 h 104.699392 c 7.7477598,0 13.9851198,6.237364 13.9851198,13.985122 v 69.547608 c 0,7.74776 -6.23736,13.98513 -13.9851198,13.98513 H -119.96478 c -7.74775,0 -13.98512,-6.23737 -13.98512,-13.98513 V 43.916642 c 0,-7.747758 6.23737,-13.985122 13.98512,-13.985122 z"
       style="opacity:1;fill:#ffffff;fill-opacity:1;stroke:#b3b3b3;stroke-width:1.765;stroke-miterlimit:4;stroke-dasharray:none;stroke-opacity:1" />
    <path
       style="opacity:1;fill:#ffffff;fill-opacity:1;stroke:#b3b3b3;stroke-width:1.765;stroke-miterlimit:4;stroke-dasharray:none;stroke-opacity:1"
       d="M 27.667862,29.922016 H 132.36725 c 7.74776,0 13.98512,6.237364 13.98512,13.985122 v 69.547612 c 0,7.74776 -6.23736,13.98513 -13.98512,13.98513 H 27.667862 c -7.747757,0 -13.985122,-6.23737 -13.985122,-13.98513 V 43.907138 c 0,-7.747758 6.237365,-13.985122 13.985122,-13.985122 z"
       id="rect831" />
    <g
       aria-label="AES"
       transform="matrix(1.7673468,0,0,1.7673468,-158.8644,-245.37393)"
       style="font-style:normal;font-weight:normal;font-size:40px;line-height:1.25;font-family:sans-serif;letter-spacing:0px;word-spacing:0px;fill:#ff7f2a;fill-opacity:1;stroke:none"
       id="flowRoot815">
      <path
         d="m 123.50781,182.16852 h -11.60156 l -3.98437,10.07813 h -2.20704 l 11.48438,-28.67188 h 1.26953 l 11.25,28.67188 h -2.24609 z m -10.8789,-1.79687 h 10.21484 l -3.88672,-10.29297 q -0.48828,-1.21094 -1.17187,-3.35937 -0.52735,1.875 -1.15235,3.39843 z"
         style="font-style:normal;font-variant:normal;font-weight:300;font-stretch:normal;font-family:'Open Sans';-inkscape-font-specification:'Open Sans Light';letter-spacing:-4.24568px;word-spacing:-0.904227px;fill:#ff7f2a"
         id="path860" />
      <path
         d="m 145.10198,192.24665 h -15.60547 v -28.55469 h 15.60547 v 1.83594 H 131.4887 v 10.80078 h 12.85156 v 1.83594 H 131.4887 v 12.24609 h 13.61328 z"
         style="font-style:normal;font-variant:normal;font-weight:300;font-stretch:normal;font-family:'Open Sans';-inkscape-font-specification:'Open Sans Light';letter-spacing:-4.24568px;word-spacing:-0.904227px;fill:#ff7f2a"
         id="path862" />
      <path
         d="m 163.12193,184.88337 q 0,3.57422 -2.63672,5.66406 -2.61719,2.08984 -6.97266,2.08984 -5.23437,0 -8.02734,-1.15234 v -1.99219 q 3.08593,1.3086 7.87109,1.3086 3.51563,0 5.56641,-1.60157 2.07031,-1.62109 2.07031,-4.23828 0,-1.62109 -0.68359,-2.67578 -0.6836,-1.07422 -2.22657,-1.95312 -1.54297,-0.87891 -4.53125,-1.89453 -4.375,-1.50391 -6.05468,-3.24219 -1.66016,-1.75781 -1.66016,-4.66797 0,-3.20313 2.5,-5.21484 2.51953,-2.03125 6.46484,-2.03125 4.02344,0 7.5586,1.52343 l -0.72266,1.71875 q -3.55469,-1.48437 -6.79687,-1.48437 -3.16407,0 -5.03907,1.46484 -1.875,1.46485 -1.875,3.98438 0,1.58203 0.56641,2.59765 0.58594,1.01563 1.89453,1.83594 1.30859,0.80078 4.49219,1.93359 3.33984,1.15235 5.01953,2.2461 1.67969,1.07422 2.44141,2.46094 0.78125,1.36718 0.78125,3.32031 z"
         style="font-style:normal;font-variant:normal;font-weight:300;font-stretch:normal;font-family:'Open Sans';-inkscape-font-specification:'Open Sans Light';letter-spacing:-4.24568px;word-spacing:-0.904227px;fill:#ff7f2a"
         id="path864" />
    </g>
    <g
       aria-label="PLASTIC"
       transform="matrix(0.50951885,0,0,0.50951885,-28.386315,-115.08153)"
       style="font-style:normal;font-weight:normal;font-size:40px;line-height:1.25;font-family:sans-serif;letter-spacing:0px;word-spacing:0px;fill:#55ddff;fill-opacity:1;stroke:none"
       id="flowRoot823">
      <path
         d="m 116.44336,424.84961 v 10.95703 h 4.96094 q 2.7539,0 4.25781,-1.42578 1.50391,-1.42578 1.50391,-4.0625 0,-2.61719 -1.50391,-4.04297 -1.50391,-1.42578 -4.25781,-1.42578 z m -3.94531,-3.24219 h 8.90625 q 4.90234,0 7.40234,2.22656 2.51953,2.20704 2.51953,6.48438 0,4.31641 -2.51953,6.52344 -2.5,2.20703 -7.40234,2.20703 h -4.96094 v 11.71875 h -3.94531 z"
         style="letter-spacing:5.93011px;fill:#55ddff;fill-opacity:1"
         id="path867" />
      <path
         d="m 142.56878,421.60742 h 3.94531 v 25.83985 h 14.19922 v 3.32031 h -18.14453 z"
         style="letter-spacing:5.93011px;fill:#55ddff;fill-opacity:1"
         id="path869" />
      <path
         d="m 181.44811,425.49414 -5.35156,14.51172 h 10.72265 z m -2.22656,-3.88672 h 4.47265 l 11.11328,29.16016 h -4.10156 l -2.65625,-7.48047 h -13.14453 l -2.65625,7.48047 h -4.16016 z"
         style="letter-spacing:5.93011px;fill:#55ddff;fill-opacity:1"
         id="path871" />
      <path
         d="m 222.45634,422.56445 v 3.84766 q -2.24609,-1.07422 -4.23828,-1.60156 -1.99218,-0.52735 -3.84765,-0.52735 -3.22266,0 -4.98047,1.25 -1.73828,1.25 -1.73828,3.55469 0,1.93359 1.15234,2.92969 1.17188,0.97656 4.41406,1.58203 l 2.38282,0.48828 q 4.41406,0.83984 6.5039,2.96875 2.10938,2.10938 2.10938,5.66406 0,4.23828 -2.85157,6.42578 -2.83203,2.1875 -8.32031,2.1875 -2.07031,0 -4.41406,-0.46875 -2.32422,-0.46875 -4.82422,-1.38671 v -4.0625 q 2.40234,1.34765 4.70703,2.03125 2.30469,0.68359 4.53125,0.68359 3.37891,0 5.21485,-1.32813 1.83593,-1.32812 1.83593,-3.78906 0,-2.14844 -1.32812,-3.35937 -1.3086,-1.21094 -4.31641,-1.81641 l -2.40234,-0.46875 q -4.41406,-0.87891 -6.38672,-2.75391 -1.97266,-1.875 -1.97266,-5.21484 0,-3.86719 2.71485,-6.09375 2.73437,-2.22656 7.51953,-2.22656 2.05078,0 4.17969,0.37109 2.1289,0.3711 4.35546,1.11328 z"
         style="letter-spacing:5.93011px;fill:#55ddff;fill-opacity:1"
         id="path873" />
      <path
         d="m 232.25364,421.60742 h 24.66797 v 3.32031 h -10.35156 v 25.83985 h -3.96485 v -25.83985 h -10.35156 z"
         style="letter-spacing:5.93011px;fill:#55ddff;fill-opacity:1"
         id="path875" />
      <path
         d="m 266.67984,421.60742 h 3.94531 v 29.16016 h -3.94531 z"
         style="letter-spacing:5.93011px;fill:#55ddff;fill-opacity:1"
         id="path877" />
      <path
         d="m 306.24277,423.85352 v 4.16015 q -1.99219,-1.85547 -4.25782,-2.77344 -2.24609,-0.91796 -4.78515,-0.91796 -5,0 -7.65625,3.0664 -2.65625,3.04688 -2.65625,8.82813 0,5.76172 2.65625,8.82812 2.65625,3.04688 7.65625,3.04688 2.53906,0 4.78515,-0.91797 2.26563,-0.91797 4.25782,-2.77344 v 4.12109 q -2.07032,1.40625 -4.39453,2.10938 -2.30469,0.70312 -4.88282,0.70312 -6.62109,0 -10.42968,-4.04296 -3.8086,-4.0625 -3.8086,-11.07422 0,-7.03125 3.8086,-11.07422 3.80859,-4.0625 10.42968,-4.0625 2.61719,0 4.92188,0.70312 2.32422,0.6836 4.35547,2.07032 z"
         style="letter-spacing:5.93011px;fill:#55ddff;fill-opacity:1"
         id="path879" />
    </g>
    <g
       aria-label="authenticated "
       transform="matrix(0.20934418,0,0,0.20934418,-2.1010219,22.263395)"
       style="font-style:normal;font-weight:normal;font-size:40px;line-height:1.25;font-family:sans-serif;letter-spacing:0px;word-spacing:0px;fill:#666666;fill-opacity:1;stroke:none"
       id="flowRoot833">
      <path
         d="m 107.87305,557.96149 -0.48828,-3.35937 h -0.15625 q -1.60157,2.05078 -3.30079,2.91015 -1.67968,0.83985 -3.984371,0.83985 -3.125,0 -4.863281,-1.60156 -1.738281,-1.60157 -1.738281,-4.4336 0,-3.10547 2.578125,-4.82422 2.597656,-1.71875 7.499998,-1.8164 l 4.04297,-0.11719 v -1.40625 q 0,-3.02734 -1.23047,-4.57031 -1.23047,-1.54297 -3.96484,-1.54297 -2.949221,0 -6.113283,1.64062 l -0.722656,-1.67968 q 3.496093,-1.64063 6.914059,-1.64063 3.4961,0 5.21485,1.81641 1.73828,1.8164 1.73828,5.66406 v 14.12109 z m -7.8125,-1.36718 q 3.39843,0 5.35156,-1.9336 1.97266,-1.95312 1.97266,-5.41015 v -2.08985 l -3.71094,0.15625 q -4.472658,0.21485 -6.386721,1.40625 -1.894531,1.17188 -1.894531,3.67188 0,1.99218 1.210938,3.10547 1.230468,1.09375 3.457034,1.09375 z"
         style="font-style:normal;font-variant:normal;font-weight:300;font-stretch:normal;font-family:'Open Sans';-inkscape-font-specification:'Open Sans Light';letter-spacing:1.26387px;word-spacing:-5.59854px;fill:#666666"
         id="path883" />
      <path
         d="m 119.09785,536.73102 v 13.75 q 0,3.20313 1.34766,4.66797 1.34766,1.44532 4.17969,1.44532 3.78906,0 5.5664,-1.91407 1.79688,-1.91406 1.79688,-6.23047 v -11.71875 h 1.91406 v 21.23047 h -1.64062 l -0.35157,-2.92968 h -0.11718 q -2.07032,3.32031 -7.36329,3.32031 -7.24609,0 -7.24609,-7.75391 v -13.86719 z"
         style="font-style:normal;font-variant:normal;font-weight:300;font-stretch:normal;font-family:'Open Sans';-inkscape-font-specification:'Open Sans Light';letter-spacing:1.26387px;word-spacing:-5.59854px;fill:#666666"
         id="path885" />
      <path
         d="m 147.88125,556.63337 q 1.83594,0 3.20313,-0.3125 v 1.5625 q -1.40625,0.46875 -3.24219,0.46875 -2.8125,0 -4.16016,-1.50391 -1.32812,-1.5039 -1.32812,-4.72656 v -13.71094 h -3.14453 v -1.13281 l 3.14453,-0.87891 0.97656,-4.80468 h 0.99609 v 5.13671 h 6.23047 v 1.67969 h -6.23047 v 13.4375 q 0,2.44141 0.85938,3.61328 0.85937,1.17188 2.69531,1.17188 z"
         style="font-style:normal;font-variant:normal;font-weight:300;font-stretch:normal;font-family:'Open Sans';-inkscape-font-specification:'Open Sans Light';letter-spacing:1.26387px;word-spacing:-5.59854px;fill:#666666"
         id="path887" />
      <path
         d="m 171.78184,557.96149 v -13.76953 q 0,-3.20312 -1.34766,-4.64844 -1.34766,-1.46484 -4.17969,-1.46484 -3.80859,0 -5.58593,1.93359 -1.75782,1.91407 -1.75782,6.23047 v 11.71875 h -1.93359 v -30.39062 h 1.93359 v 9.66797 l -0.0977,2.71484 h 0.13672 q 1.1914,-1.91406 3.00781,-2.77344 1.8164,-0.85937 4.51172,-0.85937 7.22656,0 7.22656,7.7539 v 13.88672 z"
         style="font-style:normal;font-variant:normal;font-weight:300;font-stretch:normal;font-family:'Open Sans';-inkscape-font-specification:'Open Sans Light';letter-spacing:1.26387px;word-spacing:-5.59854px;fill:#666666"
         id="path889" />
      <path
         d="m 190.40899,558.35212 q -4.62891,0 -7.22656,-2.85156 -2.57813,-2.85157 -2.57813,-7.98829 0,-5.07812 2.5,-8.125 2.5,-3.0664 6.73828,-3.0664 3.75,0 5.91797,2.61719 2.16797,2.61718 2.16797,7.10937 v 1.5625 h -15.29297 q 0.0391,4.375 2.03125,6.67969 2.01172,2.30469 5.74219,2.30469 1.81641,0 3.18359,-0.25391 1.38672,-0.25391 3.4961,-1.09375 v 1.75781 q -1.79688,0.78125 -3.32032,1.05469 -1.52343,0.29297 -3.35937,0.29297 z m -0.56641,-20.3125 q -3.0664,0 -4.92187,2.03125 -1.85547,2.01172 -2.16797,5.82031 h 13.125 q 0,-3.69141 -1.60156,-5.76172 -1.60157,-2.08984 -4.4336,-2.08984 z"
         style="font-style:normal;font-variant:normal;font-weight:300;font-stretch:normal;font-family:'Open Sans';-inkscape-font-specification:'Open Sans Light';letter-spacing:1.26387px;word-spacing:-5.59854px;fill:#666666"
         id="path891" />
      <path
         d="m 219.85645,557.96149 v -13.76953 q 0,-3.20312 -1.34766,-4.64844 -1.34766,-1.46484 -4.17969,-1.46484 -3.80859,0 -5.58594,1.93359 -1.75781,1.91407 -1.75781,6.23047 v 11.71875 h -1.93359 v -21.23047 h 1.64062 l 0.3711,2.91016 h 0.11718 q 2.07032,-3.32031 7.36329,-3.32031 7.22656,0 7.22656,7.7539 v 13.88672 z"
         style="font-style:normal;font-variant:normal;font-weight:300;font-stretch:normal;font-family:'Open Sans';-inkscape-font-specification:'Open Sans Light';letter-spacing:1.26387px;word-spacing:-5.59854px;fill:#666666"
         id="path893" />
      <path
         d="m 235.51485,556.63337 q 1.83593,0 3.20312,-0.3125 v 1.5625 q -1.40625,0.46875 -3.24219,0.46875 -2.8125,0 -4.16015,-1.50391 -1.32813,-1.5039 -1.32813,-4.72656 v -13.71094 h -3.14453 v -1.13281 l 3.14453,-0.87891 0.97657,-4.80468 h 0.99609 v 5.13671 h 6.23047 v 1.67969 h -6.23047 v 13.4375 q 0,2.44141 0.85937,3.61328 0.85938,1.17188 2.69532,1.17188 z"
         style="font-style:normal;font-variant:normal;font-weight:300;font-stretch:normal;font-family:'Open Sans';-inkscape-font-specification:'Open Sans Light';letter-spacing:1.26387px;word-spacing:-5.59854px;fill:#666666"
         id="path895" />
      <path
         d="m 246.54434,557.96149 h -1.93359 v -21.23047 h 1.93359 z m -2.20703,-27.1289 q 0,-1.875 1.23047,-1.875 0.60547,0 0.9375,0.48828 0.35156,0.48828 0.35156,1.38672 0,0.8789 -0.35156,1.38672 -0.33203,0.50781 -0.9375,0.50781 -1.23047,0 -1.23047,-1.89453 z"
         style="font-style:normal;font-variant:normal;font-weight:300;font-stretch:normal;font-family:'Open Sans';-inkscape-font-specification:'Open Sans Light';letter-spacing:1.26387px;word-spacing:-5.59854px;fill:#666666"
         id="path897" />
      <path
         d="m 263.41368,558.35212 q -4.55078,0 -7.12891,-2.8711 -2.57812,-2.87109 -2.57812,-8.00781 0,-5.27344 2.67578,-8.20312 2.67578,-2.94922 7.32422,-2.94922 2.75391,0 5.27344,0.95703 l -0.52735,1.71875 q -2.7539,-0.91797 -4.78515,-0.91797 -3.90625,0 -5.91797,2.42188 -2.01172,2.40234 -2.01172,6.93359 0,4.29687 2.01172,6.73828 2.01172,2.42188 5.625,2.42188 2.89062,0 5.37109,-1.03516 v 1.79687 q -2.03125,0.9961 -5.33203,0.9961 z"
         style="font-style:normal;font-variant:normal;font-weight:300;font-stretch:normal;font-family:'Open Sans';-inkscape-font-specification:'Open Sans Light';letter-spacing:1.26387px;word-spacing:-5.59854px;fill:#666666"
         id="path899" />
      <path
         d="m 288.07597,557.96149 -0.48828,-3.35937 h -0.15625 q -1.60156,2.05078 -3.30078,2.91015 -1.67969,0.83985 -3.98437,0.83985 -3.125,0 -4.86329,-1.60156 -1.73828,-1.60157 -1.73828,-4.4336 0,-3.10547 2.57813,-4.82422 2.59765,-1.71875 7.5,-1.8164 l 4.04297,-0.11719 v -1.40625 q 0,-3.02734 -1.23047,-4.57031 -1.23047,-1.54297 -3.96485,-1.54297 -2.94921,0 -6.11328,1.64062 l -0.72265,-1.67968 q 3.49609,-1.64063 6.91406,-1.64063 3.49609,0 5.21484,1.81641 1.73828,1.8164 1.73828,5.66406 v 14.12109 z m -7.8125,-1.36718 q 3.39844,0 5.35157,-1.9336 1.97265,-1.95312 1.97265,-5.41015 v -2.08985 l -3.71094,0.15625 q -4.47265,0.21485 -6.38671,1.40625 -1.89454,1.17188 -1.89454,3.67188 0,1.99218 1.21094,3.10547 1.23047,1.09375 3.45703,1.09375 z"
         style="font-style:normal;font-variant:normal;font-weight:300;font-stretch:normal;font-family:'Open Sans';-inkscape-font-specification:'Open Sans Light';letter-spacing:1.26387px;word-spacing:-5.59854px;fill:#666666"
         id="path901" />
      <path
         d="m 303.22656,556.63337 q 1.83594,0 3.20313,-0.3125 v 1.5625 q -1.40625,0.46875 -3.24219,0.46875 -2.8125,0 -4.16016,-1.50391 -1.32812,-1.5039 -1.32812,-4.72656 v -13.71094 h -3.14453 v -1.13281 l 3.14453,-0.87891 0.97656,-4.80468 h 0.99609 v 5.13671 h 6.23047 v 1.67969 h -6.23047 v 13.4375 q 0,2.44141 0.85938,3.61328 0.85937,1.17188 2.69531,1.17188 z"
         style="font-style:normal;font-variant:normal;font-weight:300;font-stretch:normal;font-family:'Open Sans';-inkscape-font-specification:'Open Sans Light';letter-spacing:1.26387px;word-spacing:-5.59854px;fill:#666666"
         id="path903" />
      <path
         d="m 320.89668,558.35212 q -4.6289,0 -7.22656,-2.85156 -2.57812,-2.85157 -2.57812,-7.98829 0,-5.07812 2.5,-8.125 2.5,-3.0664 6.73828,-3.0664 3.75,0 5.91797,2.61719 2.16796,2.61718 2.16796,7.10937 v 1.5625 h -15.29296 q 0.0391,4.375 2.03125,6.67969 2.01171,2.30469 5.74218,2.30469 1.81641,0 3.1836,-0.25391 1.38672,-0.25391 3.49609,-1.09375 v 1.75781 q -1.79687,0.78125 -3.32031,1.05469 -1.52344,0.29297 -3.35938,0.29297 z m -0.5664,-20.3125 q -3.06641,0 -4.92188,2.03125 -1.85547,2.01172 -2.16797,5.82031 h 13.125 q 0,-3.69141 -1.60156,-5.76172 -1.60156,-2.08984 -4.43359,-2.08984 z"
         style="font-style:normal;font-variant:normal;font-weight:300;font-stretch:normal;font-family:'Open Sans';-inkscape-font-specification:'Open Sans Light';letter-spacing:1.26387px;word-spacing:-5.59854px;fill:#666666"
         id="path905" />
      <path
         d="m 343.3129,536.32087 q 2.30468,0 3.98437,0.83984 1.67969,0.83985 3.00781,2.8711 h 0.11719 q -0.11719,-2.46094 -0.11719,-4.82422 v -7.63672 h 1.91407 v 30.39062 h -1.26953 l -0.48829,-3.24218 h -0.15625 q -2.42187,3.63281 -6.95312,3.63281 -4.39453,0 -6.71875,-2.73438 -2.32422,-2.73437 -2.32422,-7.96875 0,-5.50781 2.30469,-8.41797 2.30469,-2.91015 6.69922,-2.91015 z m 0,1.75781 q -3.47657,0 -5.23438,2.44141 -1.73828,2.4414 -1.73828,7.08984 0,9.02344 7.01172,9.02344 3.59375,0 5.27344,-2.08985 1.67968,-2.08984 1.67968,-6.89453 v -0.33203 q 0,-4.92187 -1.66015,-7.07031 -1.64063,-2.16797 -5.33203,-2.16797 z"
         style="font-style:normal;font-variant:normal;font-weight:300;font-stretch:normal;font-family:'Open Sans';-inkscape-font-specification:'Open Sans Light';letter-spacing:1.26387px;word-spacing:-5.59854px;fill:#666666"
         id="path907" />
    </g>
    <g
       aria-label="sequestration"
       transform="matrix(0.20934418,0,0,0.20934418,69.903443,22.074406)"
       style="font-style:normal;font-weight:normal;font-size:40px;line-height:1.25;font-family:sans-serif;letter-spacing:0px;word-spacing:0px;fill:#666666;fill-opacity:1;stroke:none"
       id="flowRoot10802">
      <path
         d="m 108.14648,552.43415 q 0,2.85156 -2.16796,4.39453 -2.16797,1.52344 -6.152348,1.52344 -4.257813,0 -6.757813,-1.3086 v -2.08984 q 3.203125,1.60156 6.757813,1.60156 3.144528,0 4.765628,-1.03515 1.64062,-1.05469 1.64062,-2.79297 0,-1.60156 -1.30859,-2.69531 -1.28906,-1.09375 -4.25781,-2.14844 -3.183598,-1.15235 -4.472661,-1.97266 -1.289062,-0.83984 -1.953125,-1.875 -0.644531,-1.05469 -0.644531,-2.55859 0,-2.38281 1.992188,-3.76953 2.011718,-1.38672 5.605469,-1.38672 3.4375,0 6.52344,1.28906 l -0.72266,1.75781 q -3.125,-1.28906 -5.80078,-1.28906 -2.597657,0 -4.121094,0.85938 -1.523438,0.85937 -1.523438,2.38281 0,1.66015 1.171875,2.65625 1.191406,0.99609 4.628907,2.22656 2.87109,1.03516 4.17969,1.875 1.30859,0.82031 1.95312,1.875 0.66406,1.05469 0.66406,2.48047 z"
         style="font-style:normal;font-variant:normal;font-weight:300;font-stretch:normal;font-family:'Open Sans';-inkscape-font-specification:'Open Sans Light';letter-spacing:0px;word-spacing:-5.59854px;fill:#666666"
         id="path910" />
      <path
         d="m 122.22852,558.35212 q -4.62891,0 -7.22657,-2.85156 -2.57812,-2.85157 -2.57812,-7.98829 0,-5.07812 2.5,-8.125 2.5,-3.0664 6.73828,-3.0664 3.75,0 5.91797,2.61719 2.16797,2.61718 2.16797,7.10937 v 1.5625 h -15.29297 q 0.0391,4.375 2.03125,6.67969 2.01172,2.30469 5.74219,2.30469 1.8164,0 3.18359,-0.25391 1.38672,-0.25391 3.49609,-1.09375 v 1.75781 q -1.79687,0.78125 -3.32031,1.05469 -1.52344,0.29297 -3.35937,0.29297 z m -0.56641,-20.3125 q -3.06641,0 -4.92188,2.03125 -1.85546,2.01172 -2.16796,5.82031 h 13.125 q 0,-3.69141 -1.60157,-5.76172 -1.60156,-2.08984 -4.43359,-2.08984 z"
         style="font-style:normal;font-variant:normal;font-weight:300;font-stretch:normal;font-family:'Open Sans';-inkscape-font-specification:'Open Sans Light';letter-spacing:0px;word-spacing:-5.59854px;fill:#666666"
         id="path912" />
      <path
         d="m 143.16602,558.35212 q -4.17969,0 -6.48438,-2.77344 -2.30469,-2.77344 -2.30469,-8.00781 0,-5.3711 2.30469,-8.30078 2.30469,-2.94922 6.60156,-2.94922 4.60938,0 6.89453,3.39844 h 0.11719 l 0.35156,-2.98829 h 1.64063 v 30.83985 h -1.91406 v -8.08594 q 0,-2.38281 0.11718,-4.84375 h -0.11718 q -2.30469,3.71094 -7.20703,3.71094 z m 0.0391,-1.71875 q 3.86719,0 5.50781,-2.12891 1.66016,-2.1289 1.66016,-7.14844 v -0.23437 q 0,-4.78516 -1.66016,-6.91406 -1.66016,-2.12891 -5.29297,-2.12891 -3.4375,0 -5.23437,2.42188 -1.77735,2.42187 -1.77735,7.10937 0,4.47266 1.73828,6.75781 1.75782,2.26563 5.0586,2.26563 z"
         style="font-style:normal;font-variant:normal;font-weight:300;font-stretch:normal;font-family:'Open Sans';-inkscape-font-specification:'Open Sans Light';letter-spacing:0px;word-spacing:-5.59854px;fill:#666666"
         id="path914" />
      <path
         d="m 161.11523,536.73102 v 13.75 q 0,3.20313 1.34766,4.66797 1.34766,1.44532 4.17969,1.44532 3.78906,0 5.5664,-1.91407 1.79688,-1.91406 1.79688,-6.23047 v -11.71875 h 1.91406 v 21.23047 h -1.64062 l -0.35157,-2.92968 h -0.11718 q -2.07032,3.32031 -7.36328,3.32031 -7.2461,0 -7.2461,-7.75391 v -13.86719 z"
         style="font-style:normal;font-variant:normal;font-weight:300;font-stretch:normal;font-family:'Open Sans';-inkscape-font-specification:'Open Sans Light';letter-spacing:0px;word-spacing:-5.59854px;fill:#666666"
         id="path916" />
      <path
         d="m 191.60352,558.35212 q -4.62891,0 -7.22657,-2.85156 -2.57812,-2.85157 -2.57812,-7.98829 0,-5.07812 2.5,-8.125 2.5,-3.0664 6.73828,-3.0664 3.75,0 5.91797,2.61719 2.16797,2.61718 2.16797,7.10937 v 1.5625 h -15.29297 q 0.0391,4.375 2.03125,6.67969 2.01172,2.30469 5.74219,2.30469 1.8164,0 3.18359,-0.25391 1.38672,-0.25391 3.49609,-1.09375 v 1.75781 q -1.79687,0.78125 -3.32031,1.05469 -1.52344,0.29297 -3.35937,0.29297 z m -0.56641,-20.3125 q -3.06641,0 -4.92188,2.03125 -1.85546,2.01172 -2.16796,5.82031 h 13.125 q 0,-3.69141 -1.60157,-5.76172 -1.60156,-2.08984 -4.43359,-2.08984 z"
         style="font-style:normal;font-variant:normal;font-weight:300;font-stretch:normal;font-family:'Open Sans';-inkscape-font-specification:'Open Sans Light';letter-spacing:0px;word-spacing:-5.59854px;fill:#666666"
         id="path918" />
      <path
         d="m 218.14648,552.43415 q 0,2.85156 -2.16796,4.39453 -2.16797,1.52344 -6.15235,1.52344 -4.25781,0 -6.75781,-1.3086 v -2.08984 q 3.20312,1.60156 6.75781,1.60156 3.14453,0 4.76563,-1.03515 1.64062,-1.05469 1.64062,-2.79297 0,-1.60156 -1.30859,-2.69531 -1.28906,-1.09375 -4.25781,-2.14844 -3.1836,-1.15235 -4.47266,-1.97266 -1.28906,-0.83984 -1.95313,-1.875 -0.64453,-1.05469 -0.64453,-2.55859 0,-2.38281 1.99219,-3.76953 2.01172,-1.38672 5.60547,-1.38672 3.4375,0 6.52344,1.28906 l -0.72266,1.75781 q -3.125,-1.28906 -5.80078,-1.28906 -2.59766,0 -4.12109,0.85938 -1.52344,0.85937 -1.52344,2.38281 0,1.66015 1.17187,2.65625 1.19141,0.99609 4.62891,2.22656 2.87109,1.03516 4.17969,1.875 1.30859,0.82031 1.95312,1.875 0.66406,1.05469 0.66406,2.48047 z"
         style="font-style:normal;font-variant:normal;font-weight:300;font-stretch:normal;font-family:'Open Sans';-inkscape-font-specification:'Open Sans Light';letter-spacing:0px;word-spacing:-5.59854px;fill:#666666"
         id="path920" />
      <path
         d="m 229.25977,556.63337 q 1.83593,0 3.20312,-0.3125 v 1.5625 q -1.40625,0.46875 -3.24219,0.46875 -2.8125,0 -4.16015,-1.50391 -1.32813,-1.5039 -1.32813,-4.72656 v -13.71094 h -3.14453 v -1.13281 l 3.14453,-0.87891 0.97656,-4.80468 h 0.9961 v 5.13671 h 6.23047 v 1.67969 h -6.23047 v 13.4375 q 0,2.44141 0.85937,3.61328 0.85938,1.17188 2.69532,1.17188 z"
         style="font-style:normal;font-variant:normal;font-weight:300;font-stretch:normal;font-family:'Open Sans';-inkscape-font-specification:'Open Sans Light';letter-spacing:0px;word-spacing:-5.59854px;fill:#666666"
         id="path922" />
      <path
         d="m 245.45117,536.32087 q 1.34766,0 2.89063,0.27344 l -0.3711,1.85546 q -1.32812,-0.33203 -2.7539,-0.33203 -2.71485,0 -4.45313,2.30469 -1.73828,2.30469 -1.73828,5.82031 v 11.71875 h -1.93359 v -21.23047 h 1.64062 l 0.19531,3.82813 h 0.13672 q 1.3086,-2.34375 2.79297,-3.28125 1.48438,-0.95703 3.59375,-0.95703 z"
         style="font-style:normal;font-variant:normal;font-weight:300;font-stretch:normal;font-family:'Open Sans';-inkscape-font-specification:'Open Sans Light';letter-spacing:0px;word-spacing:-5.59854px;fill:#666666"
         id="path924" />
      <path
         d="m 265.5293,557.96149 -0.48828,-3.35937 h -0.15625 q -1.60157,2.05078 -3.30079,2.91015 -1.67968,0.83985 -3.98437,0.83985 -3.125,0 -4.86328,-1.60156 -1.73828,-1.60157 -1.73828,-4.4336 0,-3.10547 2.57812,-4.82422 2.59766,-1.71875 7.5,-1.8164 l 4.04297,-0.11719 v -1.40625 q 0,-3.02734 -1.23047,-4.57031 -1.23047,-1.54297 -3.96484,-1.54297 -2.94922,0 -6.11328,1.64062 l -0.72266,-1.67968 q 3.49609,-1.64063 6.91406,-1.64063 3.4961,0 5.21485,1.81641 1.73828,1.8164 1.73828,5.66406 v 14.12109 z m -7.8125,-1.36718 q 3.39843,0 5.35156,-1.9336 1.97266,-1.95312 1.97266,-5.41015 v -2.08985 l -3.71094,0.15625 q -4.47266,0.21485 -6.38672,1.40625 -1.89453,1.17188 -1.89453,3.67188 0,1.99218 1.21094,3.10547 1.23046,1.09375 3.45703,1.09375 z"
         style="font-style:normal;font-variant:normal;font-weight:300;font-stretch:normal;font-family:'Open Sans';-inkscape-font-specification:'Open Sans Light';letter-spacing:0px;word-spacing:-5.59854px;fill:#666666"
         id="path926" />
      <path
         d="m 279.41602,556.63337 q 1.83593,0 3.20312,-0.3125 v 1.5625 q -1.40625,0.46875 -3.24219,0.46875 -2.8125,0 -4.16015,-1.50391 -1.32813,-1.5039 -1.32813,-4.72656 v -13.71094 h -3.14453 v -1.13281 l 3.14453,-0.87891 0.97656,-4.80468 h 0.9961 v 5.13671 h 6.23047 v 1.67969 h -6.23047 v 13.4375 q 0,2.44141 0.85937,3.61328 0.85938,1.17188 2.69532,1.17188 z"
         style="font-style:normal;font-variant:normal;font-weight:300;font-stretch:normal;font-family:'Open Sans';-inkscape-font-specification:'Open Sans Light';letter-spacing:0px;word-spacing:-5.59854px;fill:#666666"
         id="path928" />
      <path
         d="m 289.18164,557.96149 h -1.93359 v -21.23047 h 1.93359 z m -2.20703,-27.1289 q 0,-1.875 1.23047,-1.875 0.60547,0 0.9375,0.48828 0.35156,0.48828 0.35156,1.38672 0,0.8789 -0.35156,1.38672 -0.33203,0.50781 -0.9375,0.50781 -1.23047,0 -1.23047,-1.89453 z"
         style="font-style:normal;font-variant:normal;font-weight:300;font-stretch:normal;font-family:'Open Sans';-inkscape-font-specification:'Open Sans Light';letter-spacing:0px;word-spacing:-5.59854px;fill:#666666"
         id="path930" />
      <path
         d="m 313.86914,547.31696 q 0,5.19531 -2.51953,8.125 -2.51953,2.91016 -6.95313,2.91016 -2.79296,0 -4.92187,-1.34766 -2.12891,-1.34765 -3.26172,-3.86719 -1.13281,-2.51953 -1.13281,-5.82031 0,-5.19531 2.51953,-8.08594 2.51953,-2.91015 6.91406,-2.91015 4.375,0 6.85547,2.94922 2.5,2.92968 2.5,8.04687 z m -16.75781,0 q 0,4.375 1.91406,6.83594 1.93359,2.44141 5.44922,2.44141 3.51562,0 5.42969,-2.44141 1.93359,-2.46094 1.93359,-6.83594 0,-4.39453 -1.95312,-6.8164 -1.9336,-2.42188 -5.44922,-2.42188 -3.51563,0 -5.42969,2.42188 -1.89453,2.40234 -1.89453,6.8164 z"
         style="font-style:normal;font-variant:normal;font-weight:300;font-stretch:normal;font-family:'Open Sans';-inkscape-font-specification:'Open Sans Light';letter-spacing:0px;word-spacing:-5.59854px;fill:#666666"
         id="path932" />
      <path
         d="m 334.55273,557.96149 v -13.76953 q 0,-3.20312 -1.34765,-4.64844 -1.34766,-1.46484 -4.17969,-1.46484 -3.80859,0 -5.58594,1.93359 -1.75781,1.91407 -1.75781,6.23047 v 11.71875 h -1.93359 v -21.23047 h 1.64062 l 0.3711,2.91016 h 0.11718 q 2.07032,-3.32031 7.36328,-3.32031 7.22657,0 7.22657,7.7539 v 13.88672 z"
         style="font-style:normal;font-variant:normal;font-weight:300;font-stretch:normal;font-family:'Open Sans';-inkscape-font-specification:'Open Sans Light';letter-spacing:0px;word-spacing:-5.59854px;fill:#666666"
         id="path934" />
    </g>
    <path
       id="path1293"
       d="m 78.046422,140.21826 c -0.289277,-0.0779 -0.549118,-0.22832 -0.782981,-0.45326 -0.234546,-0.2256 -0.398626,-0.46142 -0.444803,-0.6393 -0.01807,-0.0696 -0.06988,-0.22966 -0.115134,-0.3557 -0.109524,-0.30502 -0.165786,-1.36429 -0.135914,-2.55893 0.0263,-1.05176 0.06652,-1.51071 0.220928,-2.52074 0.13452,-0.87994 0.182913,-1.91229 0.112948,-2.40942 -0.05226,-0.37132 -0.206736,-1.20625 -0.286728,-1.54974 -0.199923,-0.85846 -0.268478,-2.21415 -0.155546,-3.07593 0.108871,-0.8308 0.182031,-1.08774 0.399149,-1.40181 0.260183,-0.37637 0.613702,-0.70797 1.164988,-1.09277 0.252073,-0.17594 0.600107,-0.46043 0.773408,-0.63219 l 0.315092,-0.31228 v -0.50142 -0.50142 h -0.310722 -0.310722 l 0.02458,-0.92618 c 0.01353,-0.5094 0.03511,-1.19409 0.04798,-1.52152 l 0.02339,-0.59534 2.217498,-0.0247 c 1.219625,-0.0136 2.226972,-0.0153 2.238548,-0.004 0.02329,0.0233 0.110371,2.02408 0.11498,2.64182 l 0.0029,0.39147 h -0.291969 -0.291971 l 0.02435,0.25781 c 0.0134,0.14179 0.02447,0.36605 0.02462,0.49835 l 2.88e-4,0.24055 0.261424,0.25782 c 0.143781,0.1418 0.521486,0.43451 0.839344,0.65048 0.628568,0.42708 1.015239,0.78281 1.261104,1.16018 0.125278,0.19228 0.177031,0.32789 0.252022,0.66036 0.142156,0.63027 0.212385,1.25599 0.212385,1.89228 0,0.72164 -0.03927,1.07685 -0.252957,2.28812 -0.266469,1.51045 -0.265932,1.93581 0.0045,3.53285 0.146043,0.86259 0.193875,1.23662 0.248589,1.94384 0.04797,0.62003 0.04845,2.67164 7.21e-4,3.00204 -0.08512,0.58904 -0.540503,1.20303 -1.095813,1.47748 l -0.287344,0.14201 -0.788798,0.027 c -0.43384,0.0148 -1.742669,0.0361 -2.908509,0.0472 -1.779984,0.017 -2.152737,0.0114 -2.325775,-0.0352 z"
       style="fill:#ff7f2a;fill-opacity:1;stroke:#ffffff;stroke-width:4.138;stroke-miterlimit:4;stroke-dasharray:none;paint-order:markers stroke fill" />
    <g
       transform="matrix(0.98955455,0,0,0.98955455,7.9482376,0.82718136)"
       id="g3480">
      <path
         transform="matrix(0.2673762,0,0,0.2673762,-135.65974,28.510136)"
         id="path3638"
         d=""
         style="opacity:0.9;fill:#ffffff;fill-opacity:1;stroke:#ffffff;stroke-width:8.93659;stroke-linecap:round;stroke-linejoin:round;stroke-miterlimit:4;stroke-dasharray:none;stroke-opacity:0;paint-order:markers stroke fill;stop-color:#000000" />
      <path
         transform="matrix(0.2673762,0,0,0.2673762,-135.65974,28.510136)"
         id="path3652"
         d=""
         style="opacity:0.9;fill:#ffffff;fill-opacity:1;stroke:#ffffff;stroke-width:8.93659;stroke-linecap:round;stroke-linejoin:round;stroke-miterlimit:4;stroke-dasharray:none;stroke-opacity:0;paint-order:markers stroke fill;stop-color:#000000" />
      <g
         id="g4200">
        <g
           transform="matrix(2.2411625,0,0,2.2411625,339.62533,-113.35311)"
           id="g19127"
           inkscape:export-xdpi="308.56387"
           inkscape:export-ydpi="308.56387">
          <path
             style="fill:#ff7f2a;fill-opacity:1;stroke:none;stroke-width:0.0702648"
             d="m -189.06735,101.96266 c -2.64723,-0.32447 -5.02011,-1.08513 -7.62371,-2.443912 -1.94798,-1.01664 -3.15954,-1.89705 -4.6467,-3.3767 -1.17046,-1.16454 -1.8967,-2.09247 -2.72736,-3.48463 -1.71205,-2.86946 -2.63258,-5.76933 -2.43752,-7.67859 0.0401,-0.39345 0.0908,-0.97062 0.1123,-1.2826 0.0722,-1.04823 0.34637,-1.79507 1.0607,-2.89095 0.51326,-0.78743 0.96203,-1.29155 1.82296,-2.04785 1.61511,-1.41885 2.74858,-2.14088 4.28019,-2.72654 2.6563,-1.0157 6.07845,-1.06097 9.24574,-0.12229 0.81761,0.24231 2.05766,0.70621 2.55421,0.95555 0.22606,0.11362 0.41738,0.19644 0.42498,0.18424 0.006,-0.0127 0.16623,-0.29094 0.35242,-0.6194 1.62978,-2.87546 4.8743,-5.21813 8.52163,-6.15294 2.85283,-0.73115 4.96543,-0.54991 7.30692,0.62689 3.26393,1.64041 5.61615,4.4066 6.28238,7.38806 0.13204,0.59137 0.11524,2.10004 -0.0324,2.91599 -0.34364,1.89737 -1.53989,4.33953 -2.81647,5.74971 -1.30274,1.43912 -2.81599,2.44191 -4.93298,3.26898 -1.13164,0.4421 -2.62558,0.84324 -3.6885,0.99041 l -0.32663,0.0451 0.0357,0.26526 c 0.0548,0.40925 -0.10787,1.70857 -0.29515,2.35443 -0.21781,0.75171 -0.548,1.46951 -1.0383,2.25726 -1.83619,2.95027 -5.01321,5.080142 -8.48314,5.687012 -0.65022,0.11377 -2.45779,0.19777 -2.95112,0.13735 z m 0.36456,-0.93276 c 0.18451,-0.0701 1.34875,-0.91849 1.31111,-0.95533 -0.0147,-0.0118 -0.38431,-0.0896 -0.82411,-0.169772 l -0.79963,-0.1459 -0.61306,0.488892 c -0.78565,0.62652 -0.83664,0.68665 -0.62201,0.73357 0.52171,0.11407 1.3102,0.13882 1.5477,0.0486 z m 2.48957,-0.0474 c 0.2912,-0.0601 0.73982,-0.17448 0.99695,-0.25377 0.54132,-0.16711 2.4211,-0.976672 2.37503,-1.022772 -0.0177,-0.0177 -0.27882,0.0177 -0.58149,0.0793 -0.30275,0.0607 -1.01929,0.15622 -1.59229,0.21251 -1.00639,0.099 -1.24174,0.166822 -1.24174,0.358522 0,0.0495 -0.16151,0.2355 -0.35893,0.41296 -0.40276,0.36217 -0.37897,0.37476 0.40247,0.21339 z m -4.91371,-0.79632 c 0.60796,-0.458382 0.83311,-0.678842 0.74669,-0.731012 -0.0315,-0.0206 -0.47959,-0.16447 -0.9958,-0.32301 l -0.93851,-0.28825 -0.64244,0.57441 c -0.35333,0.31593 -0.65116,0.595022 -0.66183,0.620192 -0.0265,0.0604 1.51097,0.54663 1.7541,0.55511 0.12792,0.006 0.36595,-0.12703 0.73779,-0.4073 z m -2.94511,-1.136872 c 0.35654,-0.31186 0.64828,-0.59157 0.64828,-0.6216 0,-0.0516 -1.78099,-0.91932 -1.88642,-0.91932 -0.0265,0 -0.29789,0.25023 -0.60191,0.55599 -0.38986,0.39218 -0.53979,0.58986 -0.50869,0.67086 0.0351,0.0914 1.52117,0.87794 1.66365,0.88044 0.0206,3.2e-4 0.32851,-0.25465 0.68509,-0.56637 z m 9.5016,0.11348 c 2.94391,-0.44712 5.74554,-2.40976 6.81884,-4.77689 0.17389,-0.38354 0.22282,-0.61727 0.28884,-1.37967 0.2744,-3.16829 -0.9373,-6.64892 -3.36164,-9.65621 -0.76803,-0.95268 -2.41188,-2.53943 -3.39518,-3.27726 -3.5671,-2.67658 -7.56565,-4.05583 -11.31218,-3.90202 -2.12731,0.0874 -3.73187,0.58689 -5.37524,1.67346 -0.71595,0.47338 -1.68652,1.40759 -1.99732,1.92245 -0.86792,1.43783 -0.93662,4.86531 -0.1459,7.2744 0.42994,1.30967 1.69513,3.67512 2.79878,5.23258 0.55231,0.77943 1.9962,2.2062 2.96793,2.93273 2.81121,2.10187 6.50841,3.6135 9.72669,3.97679 0.88401,0.0996 2.25673,0.0902 2.98623,-0.0206 z m -2.21334,-1.24112 c -1.36134,-0.10021 -3.47809,-0.66502 -3.47809,-0.9281 0,-0.24169 0.17714,-0.26114 0.70929,-0.0784 3.34655,1.14992 6.40075,0.73007 8.36916,-1.15057 1.34233,-1.28247 1.9484,-2.77779 1.95158,-4.815 0.002,-1.59571 -0.30202,-2.80001 -1.13103,-4.47283 -0.42498,-0.85749 -1.25299,-2.13465 -1.8346,-2.82968 -0.20425,-0.24395 -0.2128,-0.27404 -0.10817,-0.3785 0.15975,-0.15975 0.28089,-0.0898 0.65143,0.37631 2.06179,2.59334 3.12114,5.60406 2.84697,8.09112 -0.44485,4.03489 -3.63065,6.5055 -7.97636,6.18562 z m -5.56251,-1.67205 c -2.10971,-1.01069 -4.18602,-2.53446 -5.96925,-4.38067 -1.17604,-1.21759 -2.459,-2.9503 -2.36672,-3.19638 0.0825,-0.22017 0.29568,-0.0622 0.65019,0.48222 0.59396,0.91192 1.39211,1.85394 2.43767,2.87703 1.69757,1.66115 3.31286,2.82994 5.21021,3.77006 0.78783,0.39035 1.06898,0.5626 1.05325,0.64522 -0.038,0.20012 -0.2862,0.15179 -1.01535,-0.19748 z m 1.20575,-2.06037 -0.59741,-0.71318 0.54483,-0.19659 c 0.29966,-0.10817 0.67919,-0.24699 0.84348,-0.30841 l 0.29866,-0.112 -0.41992,-0.50359 c -0.23107,-0.27706 -1.84497,-2.19522 -3.5867,-4.26275 -3.67725,-4.36511 -3.73045,-4.44369 -3.7804,-5.58588 -0.0265,-0.58605 -0.009,-0.6955 0.14884,-1.04244 0.52519,-1.14717 1.75761,-1.75254 3.56274,-1.75002 0.71229,8.6e-4 1.00724,0.035 1.56031,0.17985 2.44678,0.64087 4.34088,2.43127 4.36452,4.12557 l 0.006,0.45916 0.74088,0.18347 c 2.76474,0.6846 4.94218,2.67329 5.27491,4.81763 0.2013,1.29685 -0.46811,2.49484 -1.75641,3.14359 -0.5048,0.25436 -1.273,0.4847 -1.34259,0.40276 -0.93329,-1.09852 -1.19228,-1.4288 -1.16059,-1.48006 0.0206,-0.0342 0.15798,-0.0822 0.30364,-0.1064 0.39447,-0.0654 0.95017,-0.34809 1.22525,-0.6232 0.38537,-0.38537 0.51291,-0.71332 0.5142,-1.32234 8.4e-4,-0.47303 -0.0265,-0.58865 -0.2632,-1.0653 -0.49825,-1.00813 -1.71311,-1.91006 -2.96793,-2.20344 -0.27499,-0.0643 -0.80183,-0.11613 -1.19448,-0.11789 -0.60731,-0.002 -0.78539,0.0265 -1.31224,0.21103 l -0.60958,0.21398 -0.60804,-0.72612 c -0.33444,-0.39935 -0.59764,-0.75171 -0.58494,-0.78303 0.0118,-0.0314 0.25672,-0.15851 0.54232,-0.28262 0.62591,-0.27208 0.82872,-0.45041 0.92686,-0.81488 0.31838,-1.18228 -1.36077,-2.5812 -3.09446,-2.57805 -0.49091,8.5e-4 -1.02569,0.11751 -1.38011,0.30082 -0.31269,0.16178 -0.64595,0.56877 -0.69947,0.85431 -0.0616,0.32799 0.0704,0.84561 0.31442,1.23304 0.10965,0.1739 2.007,2.46303 4.21659,5.08697 2.20963,2.62394 3.99212,4.79566 3.96111,4.82605 -0.0309,0.0304 -0.68877,0.28206 -1.4617,0.55906 -0.77292,0.27705 -1.52391,0.54656 -1.66886,0.59882 l -0.2635,0.0949 -0.59741,-0.71315 z m -10.20232,-6.71438 c -0.1117,-0.071 -0.53515,-1.17447 -0.71657,-1.86696 -0.45422,-1.73422 -0.34422,-3.43053 0.31234,-4.8163 0.98015,-2.06873 3.08399,-3.47936 5.82892,-3.90828 0.60755,-0.095 1.03604,-0.11247 2.00255,-0.0821 1.76014,0.0555 3.05148,0.34651 4.72011,1.06411 0.57312,0.24646 0.7439,0.38739 0.6512,0.53735 -0.066,0.10672 -0.19099,0.0754 -0.85804,-0.21378 -3.63301,-1.57573 -7.63246,-1.31728 -10.19751,0.65899 -2.26831,1.74768 -2.8857,4.6715 -1.65779,7.85096 0.13764,0.35623 0.23432,0.68913 0.21487,0.73977 -0.0392,0.10228 -0.17095,0.11819 -0.29999,0.0363 z m 17.57685,-5.33962 c -0.88507,-0.76567 -1.83366,-1.48784 -2.97683,-2.26632 -0.72181,-0.49154 -1.05976,-0.76298 -1.05976,-0.8512 0,-0.2428 0.27646,-0.13531 1.14388,0.44461 1.05107,0.70274 2.00027,1.41624 2.9498,2.21735 0.76676,0.64691 0.83491,0.71732 0.80066,0.82717 -0.0625,0.20004 -0.33185,0.0833 -0.85775,-0.37161 z m -12.79215,15.05686 c 0.15032,-0.17596 0.26114,-0.33005 0.24581,-0.3427 -0.0147,-0.0118 -0.31958,-0.21781 -0.67663,-0.45619 l -0.64913,-0.43321 -0.62992,0.56478 c -0.34643,0.31062 -0.6478,0.59375 -0.66967,0.62915 -0.0451,0.0728 0.66988,0.60106 1.17966,0.87142 l 0.33842,0.1795 0.29385,-0.34656 c 0.16181,-0.19069 0.417,-0.49035 0.5674,-0.66619 z m -2.3638,-1.44926 c 0.16416,-0.196 0.29777,-0.39277 0.29671,-0.43725 -0.006,-0.22135 -0.82922,-0.95914 -1.07138,-0.95914 -0.17743,0 -1.45624,0.77531 -1.45624,0.88298 0,0.0442 0.30096,0.37123 0.66885,0.72709 l 0.66882,0.64707 0.2973,-0.25229 c 0.16358,-0.13853 0.43168,-0.41255 0.59594,-0.60858 z m -2.49915,-1.6554 c 0.24316,-0.14236 0.58343,-0.31275 0.75642,-0.37842 0.17301,-0.0657 0.32391,-0.14766 0.33547,-0.18244 0.0236,-0.0749 -0.96386,-1.30168 -1.07951,-1.33911 -0.0707,-0.0236 -0.24817,0.11406 -1.16755,0.90051 l -0.2128,0.18215 0.40503,0.5381 c 0.22282,0.29601 0.43114,0.53817 0.46306,0.53817 0.0318,0 0.25672,-0.11672 0.49991,-0.25908 z m -1.40402,-2.15313 c 0.24346,-0.24463 0.53301,-0.50756 0.64348,-0.58437 l 0.20101,-0.13971 -0.36751,-0.64639 c -0.20219,-0.35551 -0.39483,-0.66328 -0.42823,-0.68388 -0.0634,-0.0392 -1.01101,0.63301 -1.17721,0.83508 -0.059,0.0716 -0.0781,0.18627 -0.0498,0.29875 0.0454,0.18067 0.66189,1.36523 0.71061,1.36523 0.0147,0 0.22459,-0.20013 0.4679,-0.44474 z m 26.61622,-1.33843 c 0,-0.0147 -0.0475,-0.0657 -0.10552,-0.11407 -0.0864,-0.0716 -0.10522,-0.0669 -0.10522,0.0265 0,0.0628 0.0474,0.11406 0.10522,0.11406 0.0581,0 0.10552,-0.0118 0.10552,-0.0265 z m 1.81411,-0.36265 c 0.20013,-0.0595 0.36406,-0.12556 0.36406,-0.14707 0,-0.0206 -0.19511,-0.25053 -0.43391,-0.50949 l -0.43394,-0.47058 -0.65483,0.17832 c -0.36014,0.0981 -0.65496,0.19747 -0.65514,0.22046 -2.1e-4,0.0236 0.18686,0.22076 0.41599,0.43913 0.37662,0.35923 0.44585,0.39716 0.72503,0.39716 0.16977,0 0.4725,-0.0486 0.67274,-0.10816 z m -29.6886,-0.72509 c 0.20131,-0.14913 0.46864,-0.32984 0.59423,-0.40164 0.12556,-0.0716 0.22812,-0.14736 0.22783,-0.168 -0.001,-0.11141 -0.61671,-1.50779 -0.67192,-1.52494 -0.11612,-0.036 -0.9752,0.71374 -1.04493,0.91206 -0.0463,0.13205 -0.0398,0.29622 0.0206,0.52396 0.12497,0.46698 0.33913,0.92969 0.43044,0.92969 0.0424,0 0.24198,-0.12202 0.44311,-0.27115 z m 31.83338,0.009 0.48084,-0.18805 -0.19865,-0.14442 c -0.10935,-0.0793 -0.38885,-0.30561 -0.62134,-0.50259 l -0.42274,-0.3581 -0.52275,0.22252 c -0.28737,0.12232 -0.53327,0.25407 -0.54615,0.29268 -0.0118,0.0386 0.18391,0.26939 0.43742,0.51287 0.52563,0.50468 0.52537,0.50468 1.39334,0.16506 z m 2.03986,-1.00633 c 0.0339,-0.0315 -0.10787,-0.29208 -0.3162,-0.5809 -0.20779,-0.28796 -0.40921,-0.57365 -0.44785,-0.63475 -0.0604,-0.0955 -0.15238,-0.0569 -0.6578,0.27617 -0.32315,0.2131 -0.57609,0.39875 -0.56212,0.41267 0.0147,0.0147 0.27823,0.24787 0.58717,0.52009 l 0.56178,0.49481 0.38681,-0.21546 c 0.2128,-0.11848 0.41443,-0.24139 0.44821,-0.27263 z m -5.05727,-0.0295 c 1.77934,-0.59529 3.27505,-1.35562 4.33528,-2.20388 1.76097,-1.40889 3.19965,-3.83394 3.73053,-6.28814 0.2187,-1.01157 0.21782,-2.77607 -0.001,-3.59676 -0.48393,-1.80723 -1.89676,-3.59968 -3.75839,-4.76844 -1.273,-0.79926 -2.16046,-0.99239 -4.29814,-0.93542 -1.06445,0.0283 -1.50691,0.072 -2.18307,0.21518 -3.15618,0.66841 -5.90037,2.44533 -7.72698,5.0034 -0.41924,0.58709 -0.98614,1.56002 -0.93559,1.60559 0.0147,0.0127 0.2405,0.15362 0.50397,0.31398 l 0.47907,0.29155 0.11377,-0.3008 c 0.1624,-0.42911 0.98717,-2.03846 1.1053,-2.15679 0.0784,-0.0785 0.12084,-0.0815 0.2016,-0.0142 0.0875,0.0727 0.0324,0.22035 -0.37809,1.0128 -0.26438,0.51025 -0.54403,1.08985 -0.62155,1.28798 l -0.14088,0.36026 0.39568,0.27213 c 1.72402,1.18564 3.53221,2.96765 4.88874,4.81797 0.2747,0.37469 0.50751,0.67322 0.51736,0.66338 0.009,-0.009 -0.0295,-0.37966 -0.084,-0.82181 -0.0563,-0.44216 -0.13204,-1.08849 -0.16889,-1.4363 -0.0519,-0.4901 -0.13646,-0.79835 -0.37664,-1.37016 -0.35563,-0.84702 -0.44553,-1.17531 -0.50999,-1.86201 -0.0581,-0.61925 0.0663,-0.93575 0.62411,-1.58929 0.26143,-0.3062 0.3963,-0.52658 0.3963,-0.64733 0,-0.11978 -0.0312,-0.17118 -0.0899,-0.14864 -0.2075,0.0795 -0.31693,-0.15329 -0.46348,-0.98552 -0.1176,-0.66762 -0.13027,-0.8577 -0.061,-0.92101 0.15445,-0.14115 2.6479,-0.76428 2.72993,-0.68223 0.0404,0.0404 0.16829,0.44836 0.28413,0.90638 0.21015,0.83139 0.21015,0.83295 0.0687,0.94747 -0.23461,0.18993 -0.11966,0.38982 0.31779,0.55353 0.87764,0.32838 1.16386,0.56456 1.41539,1.16797 0.224,0.53749 0.29648,0.94303 0.36241,2.02838 0.0563,0.92547 0.0793,1.03841 0.37627,1.82954 0.30063,0.8012 0.68078,2.27942 0.68078,2.64717 0,0.25295 -0.33529,0.88022 -0.55363,1.0357 -0.18245,0.12998 -1.10557,0.41031 -2.67856,0.8135 -0.5083,0.13027 -0.83066,0.17654 -1.03639,0.14884 -0.16417,-0.0206 -0.29863,-0.0295 -0.29863,-0.0147 0,0.0147 0.0881,0.1957 0.19541,0.40269 0.10758,0.20691 0.28325,0.57377 0.39053,0.81548 0.22224,0.50053 0.0985,0.48119 1.20572,0.18864 2.21304,-0.58491 4.97082,-2.17373 5.90223,-3.40041 0.2352,-0.3099 0.45672,-0.37396 0.45672,-0.1321 0,0.23729 -1.12439,1.29383 -1.9965,1.87603 -1.34203,0.89585 -2.89778,1.59942 -4.38411,1.98266 -0.44807,0.11554 -0.82403,0.21929 -0.8355,0.23078 -0.0177,0.0177 0.0737,0.30258 0.36943,1.16004 0.048,0.13941 0.4406,0.0616 1.53461,-0.3042 z m 6.13053,-6.90741 c -0.0206,-0.0336 0.0542,-0.32786 0.16653,-0.65386 0.35047,-1.01709 0.44104,-1.55778 0.44054,-2.63035 -6.4e-4,-1.1456 -0.13027,-1.74516 -0.57692,-2.66626 -1.04723,-2.15964 -3.58287,-3.86962 -5.83735,-3.93657 -0.59859,-0.0177 -0.6675,-0.0335 -0.6675,-0.15146 0,-0.12102 0.0625,-0.13125 0.77293,-0.12677 0.63144,0.005 0.88421,0.0394 1.38096,0.19344 2.32322,0.72052 4.23569,2.49716 4.94787,4.59641 0.52369,1.54371 0.45351,3.35069 -0.19365,4.98128 -0.15061,0.37962 -0.33744,0.54951 -0.43347,0.39416 z m -13.57474,-6.97831 c -0.0651,-0.10508 0.18156,-0.35437 0.90797,-0.91868 1.11556,-0.86651 2.06824,-1.31433 3.63256,-1.70748 0.77525,-0.19485 1.01971,-0.23246 1.09646,-0.16879 0.16388,0.13602 0.0147,0.20623 -0.97399,0.45468 -1.71435,0.43127 -2.75062,0.95607 -3.99226,2.02178 -0.46186,0.3964 -0.58609,0.4554 -0.67074,0.31847 z m 13.4641,13.23207 c 0.2912,-0.19718 0.90823,-0.73709 0.90823,-0.79462 0,-0.0604 -0.80732,-0.70661 -1.03474,-0.8283 -0.0828,-0.0442 -0.19541,-0.0805 -0.25052,-0.0805 -0.13234,0 -0.75232,0.54834 -0.75232,0.6652 0,0.0884 0.84286,1.15888 0.91345,1.16015 0.0206,3.2e-4 0.11642,-0.0545 0.21604,-0.12202 z m -35.8431,-0.85734 c 0.44703,-0.44706 0.6474,-0.79762 0.65161,-1.14014 0.006,-0.47789 -0.0866,-0.9005 -0.19688,-0.9005 -0.18451,0 -0.71507,0.58596 -0.79538,0.87831 -0.0976,0.35478 -0.10316,1.44042 -0.006,1.44042 0.0386,0 0.19541,-0.12497 0.34838,-0.27824 z m 37.38897,-0.6529 c 0.0731,-0.087 0.25141,-0.32675 0.39595,-0.53292 0.22371,-0.31911 0.2464,-0.38397 0.15297,-0.43625 -0.0604,-0.0338 -0.35649,-0.23847 -0.65812,-0.45486 -0.30161,-0.2164 -0.57094,-0.36791 -0.59853,-0.33667 -0.2517,0.28498 -0.63371,0.8262 -0.6175,0.87489 0.0206,0.0581 1.11835,1.03866 1.16816,1.04219 0.0118,8.4e-4 0.0837,-0.0696 0.1571,-0.1565 z m 1.3158,-2.00453 c 0.42118,-0.7902 0.43294,-0.71597 -0.20219,-1.2767 -0.30877,-0.27252 -0.58541,-0.49551 -0.61479,-0.49551 -0.0295,0 -0.19247,0.28345 -0.36212,0.62984 -0.30715,0.62658 -0.30803,0.6306 -0.17301,0.7799 0.20189,0.22302 0.94508,0.76848 1.04715,0.76848 0.0486,0 0.18598,-0.18271 0.30502,-0.40601 z m -38.59365,-0.53185 0.27204,-0.23524 0.0478,-0.94171 c 0.0265,-0.51794 0.036,-0.95447 0.0206,-0.97009 -0.0757,-0.082 -0.62847,1.47204 -0.76605,2.15389 -0.0613,0.30318 0.0684,0.30109 0.42457,-0.007 z m 39.44356,-1.61557 c 0.0931,-0.33237 0.14383,-0.65035 0.1173,-0.73467 -0.046,-0.14472 -0.98964,-1.06832 -1.09156,-1.06832 -0.0457,0 -0.36179,1.08646 -0.38083,1.30932 -0.006,0.0807 1.05964,1.0797 1.15275,1.0797 0.0206,0 0.112,-0.26373 0.20249,-0.58603 z m 0.22518,-2.94914 c -0.0766,-0.12326 -0.31198,-0.39359 -0.52275,-0.60087 -0.43436,-0.42717 -0.42569,-0.43316 -0.50167,0.34601 l -0.0451,0.46097 0.58385,0.55785 0.58385,0.55786 0.0206,-0.54892 c 0.0177,-0.44949 -0.006,-0.58948 -0.11878,-0.7729 z m -0.17065,-1.67397 c -0.0931,-0.24696 -0.26763,-0.64439 -0.3882,-0.88321 -0.26321,-0.52131 -0.99156,-1.66279 -1.03398,-1.62037 -0.0177,0.0165 0.046,0.25409 0.13912,0.52784 0.0931,0.27375 0.20573,0.68223 0.25023,0.90775 0.14531,0.73486 0.20131,0.84683 0.51506,1.03139 0.1621,0.0952 0.37113,0.25525 0.46468,0.35537 0.0937,0.10015 0.18186,0.17042 0.196,0.15615 0.0147,-0.0142 -0.0501,-0.22795 -0.14324,-0.47492 z"
             id="path55428"
             inkscape:connector-curvature="0"
             inkscape:export-xdpi="81.311424"
             inkscape:export-ydpi="81.311424" />
        </g>
        <path
           style="opacity:1;fill:#ffffff;fill-opacity:1;stroke:#ffffff;stroke-width:8.93659;stroke-linecap:round;stroke-linejoin:round;stroke-miterlimit:4;stroke-dasharray:none;stroke-opacity:0;paint-order:markers stroke fill;stop-color:#000000"
           d="M 209.05533,300.71564 C 180.56006,298.7213 142.94819,283.05962 119.60644,263.46891 104.10398,250.4577 93.98212,236.95828 82.609622,214.12665 c -2.02346,-4.06234 -4.358844,-9.10623 -5.189742,-11.20865 -6.32035,-15.99238 -7.956957,-40.26269 -3.761013,-55.77449 1.878206,-6.94346 4.078158,-10.56721 9.952953,-16.39445 10.752919,-10.66587 25.78119,-18.38537 41.16126,-21.14312 11.09155,-1.98879 29.06429,-1.71349 41.42687,0.63457 45.97816,8.73276 91.28977,42.56076 111.97395,83.59565 8.88707,17.63087 13.23722,38.81517 11.49325,55.96965 -0.75116,7.3887 -2.0211,11.06068 -5.89796,17.0537 -12.03341,18.60174 -34.95468,31.96381 -58.12519,33.88437 -7.16333,0.59375 -7.71507,0.59281 -16.58867,-0.0282 z m 26.88493,-12.12984 c 19.81712,-5.22612 33.78463,-17.83566 39.94546,-36.06181 6.27757,-18.57154 3.93928,-38.78954 -6.99251,-60.46052 -5.43085,-10.76602 -13.90796,-23.27334 -17.12535,-25.26713 -1.03081,-0.63878 -2.72782,-0.0132 -3.11499,1.14832 -0.10072,0.30216 1.64316,2.98368 3.87528,5.95894 11.27711,15.03153 18.9965,31.214 21.35555,44.76849 1.13152,6.50141 1.13876,18.73774 0.0149,25.18247 -1.79759,10.3081 -6.68591,19.4799 -14.48896,27.18517 -10.62793,10.49476 -23.76378,15.52486 -40.64042,15.56242 -9.47112,0.0211 -15.1941,-0.83697 -25.64443,-3.84489 -8.54165,-2.45854 -10.35411,-2.57434 -10.35411,-0.66157 0,1.57585 2.62743,2.88947 9.7238,4.86153 9.77636,2.71682 16.18719,3.48098 27.41752,3.26812 9.05601,-0.17165 11.3531,-0.40661 16.02824,-1.63954 z m -61.96915,-10.22642 c 0.60406,-0.97738 -1.20168,-2.21838 -9.69113,-6.66032 -17.98988,-9.41285 -30.57251,-18.87651 -45.83146,-34.47079 -7.7843,-7.95537 -12.71478,-13.84728 -17.4086,-20.80322 -2.52641,-3.74398 -3.686713,-4.82752 -5.169523,-4.82752 -0.288569,0 -0.524672,0.52451 -0.524672,1.16557 0,4.01806 12.041725,19.50416 24.642145,31.6907 14.19959,13.73318 32.17596,26.30709 46.63507,32.61976 4.66345,2.03601 6.66777,2.38673 7.34817,1.28582 z m 19.69533,-17.95443 c 7.36393,-2.69755 13.83895,-5.04173 14.38893,-5.20928 0.54998,-0.16756 0.99996,-0.52093 0.99996,-0.78527 0,-0.81018 -10.01991,-13.06845 -39.66593,-48.52692 -15.63401,-18.69923 -28.91249,-34.94077 -29.50776,-36.09231 -2.88238,-5.57595 -2.50434,-9.80466 1.20844,-13.51744 7.4479,-7.4479 25.17635,-5.59401 34.53758,3.61164 3.345,3.28941 4.95499,6.34167 5.27452,9.99959 0.37062,4.24261 -1.06658,6.12191 -6.99176,9.14256 -2.77418,1.41428 -5.13326,2.8393 -5.24241,3.16672 -0.14242,0.42727 7.53329,10.38941 9.78938,12.70543 0.085,0.0872 2.56873,-0.65217 5.51947,-1.64311 5.21116,-1.75003 5.57799,-1.79287 12.79326,-1.49399 5.38121,0.22291 8.33427,0.62806 10.71594,1.4702 9.0425,3.19736 17.1567,9.38311 21.11901,16.09977 7.07301,11.98977 1.73878,23.52478 -12.26433,26.52096 -0.86425,0.18492 -1.57136,0.69128 -1.57136,1.12524 0,0.43397 2.09908,3.38608 4.66464,6.56027 5.29742,6.55416 5.43813,6.61022 11.49558,4.58082 13.56615,-4.54503 21.63893,-15.99244 19.87612,-28.18486 -1.30849,-9.05013 -5.74849,-16.96119 -13.82311,-24.62963 -8.88907,-8.44193 -19.03219,-13.62914 -34.06989,-17.42342 -2.37212,-0.59853 -2.42879,-0.66857 -2.44244,-3.01919 -0.0871,-14.99958 -14.89978,-29.59455 -36.49401,-35.95756 -5.78619,-1.70498 -19.95993,-1.85244 -25.77517,-0.26817 -8.48361,2.31123 -14.55828,6.77196 -17.56796,12.90044 -1.41489,2.88108 -1.56433,3.75588 -1.47748,8.64871 0.19026,10.71764 -0.644,9.51596 40.915,58.93456 12.86198,15.29442 23.37012,28.02247 23.3514,28.28454 -0.0187,0.26207 -2.9371,1.55576 -6.48529,2.87485 -3.75772,1.39698 -6.38159,2.67966 -6.28436,3.0721 0.11522,0.46502 8.79322,11.26019 9.58601,11.92468 0.0215,0.018 6.06408,-2.17437 13.42802,-4.87193 z M 92.384675,201.98873 c 0.09992,-0.67866 -0.850766,-4.25837 -2.112642,-7.95492 -3.493065,-10.2326 -4.35053,-15.12871 -4.279269,-24.43455 0.07336,-9.57959 1.19189,-14.53252 5.03263,-22.2848 4.380342,-8.84143 10.660326,-15.37132 20.116796,-20.9173 11.60868,-6.80821 23.09244,-9.65287 38.96824,-9.65287 13.40195,0 23.72162,2.11377 38.8199,7.95145 3.96154,1.5317 7.55256,2.6507 7.98006,2.48665 0.42749,-0.16404 0.69938,-0.8293 0.6042,-1.47834 -0.37661,-2.56801 -17.75557,-9.13135 -29.93266,-11.30436 -10.11499,-1.80503 -28.55265,-1.85552 -36.34212,-0.0995 -19.56673,4.41096 -34.111749,13.83462 -42.39223,27.46576 -9.116508,15.00739 -9.836429,34.48658 -2.029505,54.91314 1.854787,4.853 3.469121,7.17411 4.706379,6.7669 0.373199,-0.12282 0.760299,-0.77858 0.860221,-1.45723 z m 152.097765,-41.21 c 0,-1.85359 -12.50187,-12.40346 -25.28852,-21.34006 -12.34551,-8.6283 -15.85264,-10.36968 -15.85264,-7.87124 0,1.16743 2.85534,3.53079 11.4281,9.45899 4.70852,3.25602 14.06625,10.39082 22.8562,17.42673 4.42169,3.53934 6.85686,4.36525 6.85686,2.32558 z"
           id="path3630"
           transform="matrix(0.2673762,0,0,0.2673762,-135.65974,28.510136)" />
        <path
           style="opacity:1;fill:#ffffff;fill-opacity:1;stroke:#ffffff;stroke-width:8.93659;stroke-linecap:round;stroke-linejoin:round;stroke-miterlimit:4;stroke-dasharray:none;stroke-opacity:0;paint-order:markers stroke fill;stop-color:#000000"
           d="m 70.597993,237.85218 c -1.47384,-2.84494 -2.67971,-5.7843 -2.67971,-6.5319 0,-1.0344 1.041394,-2.1198 4.35714,-4.54126 2.396426,-1.75009 4.700669,-3.18198 5.120539,-3.18198 0.419869,0 2.059008,2.19351 3.642531,4.87447 2.858706,4.83989 3.31752,5.98222 2.402745,5.98222 -0.262013,0 -2.552223,1.92849 -5.089356,4.28554 -2.537132,2.35704 -4.71674,4.28554 -4.843574,4.28554 -0.126834,0 -1.436475,-2.32768 -2.910315,-5.17263 z"
           id="path3632"
           transform="matrix(0.2673762,0,0,0.2673762,-135.65974,28.510136)" />
        <path
           style="opacity:1;fill:#ffffff;fill-opacity:1;stroke:#ffffff;stroke-width:8.93659;stroke-linecap:round;stroke-linejoin:round;stroke-miterlimit:4;stroke-dasharray:none;stroke-opacity:0;paint-order:markers stroke fill;stop-color:#000000"
           d="m 61.641249,218.88294 c -0.588571,-1.33566 -1.374534,-3.64389 -1.746584,-5.1294 -0.602142,-2.40421 -0.553303,-2.89543 0.44457,-4.47146 1.031415,-1.62901 6.838021,-6.82703 7.626339,-6.82703 0.317757,0 4.889553,10.33006 5.228021,11.81281 0.155453,0.68101 -8.766003,7.04355 -9.87635,7.04355 -0.333227,0 -1.087425,-1.09281 -1.675996,-2.42847 z"
           id="path3634"
           transform="matrix(0.2673762,0,0,0.2673762,-135.65974,28.510136)" />
        <path
           style="opacity:1;fill:#ffffff;fill-opacity:1;stroke:#ffffff;stroke-width:8.93659;stroke-linecap:round;stroke-linejoin:round;stroke-miterlimit:4;stroke-dasharray:none;stroke-opacity:0;paint-order:markers stroke fill;stop-color:#000000"
           d="m 55.350559,195.74104 c 0.0018,-2.43561 0.261931,-5.35989 0.578174,-6.4984 0.631827,-2.27464 4.776939,-7.35817 5.999854,-7.35817 1.802451,0 2.240305,7.72689 0.612204,10.80367 -1.132353,2.13992 -5.91606,7.48129 -6.700206,7.48129 -0.271267,0 -0.491778,-1.99278 -0.490026,-4.42839 z"
           id="path3636"
           transform="matrix(0.2673762,0,0,0.2673762,-135.65974,28.510136)" />
        <path
           style="opacity:1;fill:#ffffff;fill-opacity:1;stroke:#ffffff;stroke-width:8.93659;stroke-linecap:round;stroke-linejoin:round;stroke-miterlimit:4;stroke-dasharray:none;stroke-opacity:0;paint-order:markers stroke fill;stop-color:#000000"
           d="m 81.901533,256.02427 c -1.515844,-1.9642 -2.966494,-3.85294 -3.223667,-4.19719 -0.402384,-0.53864 3.012246,-3.71265 9.457873,-8.79141 0.986692,-0.77745 1.235353,-0.66133 3.058861,1.42851 1.091674,1.25112 3.117532,3.7369 4.501908,5.52396 l 2.517047,3.24919 -6.324363,3.17911 c -3.478399,1.74851 -6.528486,3.17911 -6.77797,3.17911 -0.249485,0 -1.693845,-1.60707 -3.209689,-3.57128 z"
           id="path3640"
           transform="matrix(0.2673762,0,0,0.2673762,-135.65974,28.510136)" />
        <path
           style="opacity:1;fill:#ffffff;fill-opacity:1;stroke:#ffffff;stroke-width:8.93659;stroke-linecap:round;stroke-linejoin:round;stroke-miterlimit:4;stroke-dasharray:none;stroke-opacity:0;paint-order:markers stroke fill;stop-color:#000000"
           d="m 97.069359,273.03303 c -6.188024,-6.21386 -6.315461,-5.19417 1.210892,-9.689 2.399669,-1.43312 4.864509,-2.60567 5.477429,-2.60567 1.36804,0 5.73849,3.3355 7.50997,5.73155 l 1.30571,1.76606 -2.43704,3.15886 c -2.08011,2.6962 -6.67296,7.05709 -7.43246,7.05709 -0.13098,0 -2.6665,-2.4385 -5.634501,-5.41889 z"
           id="path3642"
           transform="matrix(0.2673762,0,0,0.2673762,-135.65974,28.510136)" />
        <path
           style="opacity:1;fill:#ffffff;fill-opacity:1;stroke:#ffffff;stroke-width:8.93659;stroke-linecap:round;stroke-linejoin:round;stroke-miterlimit:4;stroke-dasharray:none;stroke-opacity:0;paint-order:markers stroke fill;stop-color:#000000"
           d="m 119.08767,290.15887 c -1.80245,-1.08538 -4.55575,-2.91197 -6.11845,-4.05909 l -2.84127,-2.08569 4.14222,-3.78104 c 7.32978,-6.69068 6.04336,-6.41558 11.94465,-2.55431 2.81132,1.83948 5.11553,3.57012 5.12046,3.84587 0.009,0.48732 -7.70972,9.82852 -8.5504,10.34809 -0.23102,0.14277 -1.89476,-0.62845 -3.69721,-1.71383 z"
           id="path3644"
           transform="matrix(0.2673762,0,0,0.2673762,-135.65974,28.510136)" />
        <path
           style="opacity:1;fill:#ffffff;fill-opacity:1;stroke:#ffffff;stroke-width:8.93659;stroke-linecap:round;stroke-linejoin:round;stroke-miterlimit:4;stroke-dasharray:none;stroke-opacity:0;paint-order:markers stroke fill;stop-color:#000000"
           d="m 138.84815,301.05848 c -3.25827,-1.68758 -6.29101,-3.43522 -6.73944,-3.88365 -0.70615,-0.70615 -0.30536,-1.36611 2.9934,-4.92908 2.09479,-2.26257 4.2674,-4.35924 4.82803,-4.65928 0.78295,-0.41903 2.78715,0.32645 8.64334,3.21494 l 7.62402,3.76046 -1.48658,1.23036 c -0.81762,0.67669 -3.33062,2.83743 -5.58444,4.80163 -2.25382,1.96421 -4.15554,3.56266 -4.22604,3.55212 -0.0705,-0.0105 -2.79403,-1.39992 -6.05229,-3.0875 z"
           id="path3646"
           transform="matrix(0.2673762,0,0,0.2673762,-135.65974,28.510136)" />
        <path
           style="opacity:1;fill:#ffffff;fill-opacity:1;stroke:#ffffff;stroke-width:8.93659;stroke-linecap:round;stroke-linejoin:round;stroke-miterlimit:4;stroke-dasharray:none;stroke-opacity:0;paint-order:markers stroke fill;stop-color:#000000"
           d="m 164.77144,311.24563 c -1.57137,-0.46177 -4.33971,-1.37673 -6.15188,-2.03325 -3.83581,-1.38965 -3.99406,-0.96326 2.54552,-6.85861 l 4.52239,-4.07687 7.92118,2.45375 c 4.85764,1.50476 7.81646,2.69866 7.65042,3.08698 -0.30694,0.71782 -5.08932,4.60718 -8.42485,6.85166 -2.50047,1.68257 -3.94663,1.78594 -8.06278,0.57634 z"
           id="path3648"
           transform="matrix(0.2673762,0,0,0.2673762,-135.65974,28.510136)" />
        <path
           style="opacity:1;fill:#ffffff;fill-opacity:1;stroke:#ffffff;stroke-width:8.93659;stroke-linecap:round;stroke-linejoin:round;stroke-miterlimit:4;stroke-dasharray:none;stroke-opacity:0;paint-order:markers stroke fill;stop-color:#000000"
           d="m 183.38716,315.66402 c -1.32769,-0.37114 -1.2586,-0.49128 1.71422,-2.98092 1.70371,-1.42681 4.27303,-3.53461 5.70958,-4.68401 l 2.61192,-2.08981 6.43493,1.20308 c 7.34065,1.37241 7.31034,0.95337 0.42354,5.85662 l -4.48844,3.19567 -5.51115,-0.057 c -3.03113,-0.0313 -6.1337,-0.23098 -6.8946,-0.44367 z"
           id="path3650"
           transform="matrix(0.2673762,0,0,0.2673762,-135.65974,28.510136)" />
        <path
           style="opacity:1;fill:#ffffff;fill-opacity:1;stroke:#ffffff;stroke-width:8.93659;stroke-linecap:round;stroke-linejoin:round;stroke-miterlimit:4;stroke-dasharray:none;stroke-opacity:0;paint-order:markers stroke fill;stop-color:#000000"
           d="m 294.46355,209.26138 c -0.84655,-2.54197 -1.31765,-4.82672 -1.04688,-5.07721 0.27077,-0.2505 3.43272,-1.26735 7.02655,-2.25968 16.31509,-4.5049 31.9264,-12.43771 43.58713,-22.14858 5.64654,-4.70234 9.01905,-8.5378 9.01905,-10.2571 0,-2.33806 -1.49257,-1.52208 -6.6905,3.65768 -11.32678,11.28719 -30.68492,21.63574 -49.51027,26.46739 -2.46874,0.63362 -4.72493,1.07327 -5.01376,0.97699 -0.28882,-0.0963 -1.91923,-3.06569 -3.62312,-6.5987 l -3.09798,-6.42365 h 3.55976 c 3.55658,0 15.4093,-2.86119 25.06634,-6.05089 4.99182,-1.64879 7.08768,-3.54416 8.75938,-7.92144 0.97044,-2.54104 0.97174,-2.88106 0.0282,-7.34549 -1.25137,-5.92087 -3.87032,-15.02765 -5.78313,-20.10954 -1.02681,-2.72796 -1.65055,-5.93476 -2.04853,-10.53194 -0.93719,-10.82554 -1.9688,-16.31097 -3.80576,-20.23646 -1.97849,-4.22794 -3.73768,-5.7395 -9.98794,-8.58202 -4.80272,-2.1842 -5.67856,-3.22855 -4.13656,-4.93244 0.89226,-0.98593 0.92258,-1.47149 0.29303,-4.692814 -0.38619,-1.976204 -1.25284,-5.264457 -1.92587,-7.30723 l -1.22368,-3.714133 -2.1344,0.124795 c -2.34311,0.136999 -12.34087,2.498165 -18.08532,4.271201 l -3.64897,1.126262 0.3593,3.810029 c 0.60508,6.41634 2.17204,11.72399 3.65306,12.37375 0.70712,0.31023 1.28566,0.98439 1.28566,1.49814 0,0.51375 -1.64176,3.13621 -3.64836,5.82769 -4.49098,6.0238 -5.26764,8.63811 -4.40619,14.83168 0.32826,2.36016 1.52716,6.82725 2.66422,9.92688 3.70834,10.10902 4.12744,11.84434 5.3538,22.16795 0.66619,5.60814 1.12153,10.28636 1.01186,10.39603 -0.10967,0.10967 -0.8049,-0.63311 -1.54496,-1.65064 -11.35378,-15.6105 -25.00986,-29.57664 -39.5169,-40.41411 l -6.65933,-4.97485 2.14533,-4.80087 c 1.17994,-2.64048 3.34096,-7.17421 4.80227,-10.07495 3.01966,-5.9941 3.34333,-7.75951 1.37127,-7.47943 -1.03589,0.14712 -2.26841,2.12521 -6.34436,10.18218 -2.78228,5.49978 -5.31511,9.92671 -5.62851,9.83764 -0.3134,-0.0891 -1.98132,-1.06489 -3.7065,-2.16847 -3.61104,-2.30996 -3.62284,-1.94602 0.27335,-8.42877 14.98278,-24.929356 40.07264,-42.462941 69.67798,-48.693175 5.88865,-1.239227 21.73401,-1.987302 29.60336,-1.397606 7.85369,0.588523 12.44363,1.748607 18.12615,4.581293 16.42632,8.188382 30.27508,23.591137 35.94964,39.983638 l 1.87912,5.42834 0.0106,11.71381 c 0.009,9.46644 -0.19469,12.59082 -1.05928,16.28504 -4.30886,18.41077 -14.7003,36.86512 -27.35643,48.58275 -9.97139,9.23198 -27.29769,18.18575 -45.26815,23.39339 -2.75087,0.79717 -5.46598,1.44941 -6.03356,1.44941 -0.7831,0 -1.40316,-1.11459 -2.57116,-4.62177 z m 68.77357,-58.34379 c 2.02299,-4.07709 4.01328,-12.00235 4.72772,-18.82567 1.12794,-10.77243 -0.66455,-20.83792 -5.4297,-30.48986 -7.21649,-14.617176 -20.88693,-26.167021 -37.64315,-31.803841 -4.64947,-1.564089 -6.07692,-1.780787 -12.12665,-1.840912 -6.49864,-0.06458 -6.85686,-0.0084 -6.85686,1.074665 0,1.031558 0.51709,1.182572 5.31168,1.551258 2.92142,0.224647 7.03553,0.8405 9.14248,1.368563 20.26656,5.079407 38.33118,22.416317 43.04304,41.309107 1.05207,4.2184 1.16515,5.98916 0.93048,14.57083 -0.23445,8.57378 -0.45972,10.39797 -1.84142,14.91149 -2.45373,8.01539 -3.06579,10.47462 -2.6984,10.84202 0.85261,0.8526 2.22016,-0.20767 3.44078,-2.66765 z M 252.67717,91.643321 c 11.28381,-9.10078 17.07977,-11.981938 32.86177,-16.335497 7.0171,-1.935709 8.92865,-2.800673 8.33002,-3.769274 -0.54712,-0.885269 -4.15022,-0.550743 -9.97722,0.926326 -13.74761,3.484841 -22.29853,7.741355 -32.98017,16.41703 -4.20934,3.418838 -5.61561,5.153912 -4.99332,6.160804 0.68995,1.116355 1.93866,0.488316 6.75892,-3.399389 z"
           id="path3654"
           transform="matrix(0.2673762,0,0,0.2673762,-135.65974,28.510136)" />
        <path
           style="opacity:1;fill:#ffffff;fill-opacity:1;stroke:#ffffff;stroke-width:8.93659;stroke-linecap:round;stroke-linejoin:round;stroke-miterlimit:4;stroke-dasharray:none;stroke-opacity:0;paint-order:markers stroke fill;stop-color:#000000"
           d="m 387.3348,119.50712 c -1.7279,-1.24777 -3.30849,-2.57271 -3.51243,-2.94431 -0.20394,-0.37159 -1.14825,-3.76121 -2.09847,-7.53249 -0.95022,-3.77127 -1.89766,-7.37112 -2.10542,-7.99967 l -0.37774,-1.142806 0.95007,1.142806 c 3.07294,3.69632 10.94992,18.96269 10.46103,20.2745 -0.0965,0.25885 -1.58915,-0.55026 -3.31704,-1.79803 z"
           id="path3656"
           transform="matrix(0.2673762,0,0,0.2673762,-135.65974,28.510136)" />
        <path
           style="opacity:1;fill:#ffffff;fill-opacity:1;stroke:#ffffff;stroke-width:8.93659;stroke-linecap:round;stroke-linejoin:round;stroke-miterlimit:4;stroke-dasharray:none;stroke-opacity:0;paint-order:markers stroke fill;stop-color:#000000"
           d="m 387.70309,139.11327 -4.46074,-4.48706 0.47431,-3.89483 c 0.26087,-2.14215 0.77204,-3.99349 1.13594,-4.11408 0.36389,-0.1206 2.2281,1.60079 4.14268,3.82531 l 3.48107,4.04458 v 4.55657 c 0,2.50611 -0.0703,4.55657 -0.15626,4.55657 -0.0859,0 -2.16359,-2.01918 -4.617,-4.48706 z"
           id="path3658"
           transform="matrix(0.2673762,0,0,0.2673762,-135.65974,28.510136)" />
        <path
           style="opacity:1;fill:#ffffff;fill-opacity:1;stroke:#ffffff;stroke-width:8.93659;stroke-linecap:round;stroke-linejoin:round;stroke-miterlimit:4;stroke-dasharray:none;stroke-opacity:0;paint-order:markers stroke fill;stop-color:#000000"
           d="m 383.47672,158.50644 c -2.86627,-2.71098 -4.14325,-4.33458 -4.1445,-5.26949 -0.002,-1.67658 2.32178,-9.63662 2.81352,-9.63662 0.19779,0 2.25372,1.90683 4.56873,4.23739 4.07318,4.10055 4.19773,4.30816 3.85661,6.42831 -0.51208,3.18269 -2.07218,8.19329 -2.54526,8.17466 -0.22353,-0.009 -2.27063,-1.77921 -4.5491,-3.93425 z"
           id="path3660"
           transform="matrix(0.2673762,0,0,0.2673762,-135.65974,28.510136)" />
        <path
           style="opacity:1;fill:#ffffff;fill-opacity:1;stroke:#ffffff;stroke-width:8.93659;stroke-linecap:round;stroke-linejoin:round;stroke-miterlimit:4;stroke-dasharray:none;stroke-opacity:0;paint-order:markers stroke fill;stop-color:#000000"
           d="m 375.6199,176.02744 c -2.25908,-1.69424 -4.06647,-3.49711 -4.15295,-4.14256 -0.18447,-1.3769 4.02288,-9.71389 4.90222,-9.71389 0.34117,0 2.45798,1.64532 4.70404,3.65626 3.69252,3.306 4.05166,3.81661 3.74897,5.33008 -0.41168,2.0584 -3.82467,7.87016 -4.62169,7.86998 -0.31942,-7e-5 -2.38068,-1.35001 -4.58059,-2.99987 z"
           id="path3662"
           transform="matrix(0.2673762,0,0,0.2673762,-135.65974,28.510136)" />
        <path
           style="opacity:1;fill:#ffffff;fill-opacity:1;stroke:#ffffff;stroke-width:8.93659;stroke-linecap:round;stroke-linejoin:round;stroke-miterlimit:4;stroke-dasharray:none;stroke-opacity:0;paint-order:markers stroke fill;stop-color:#000000"
           d="m 366.13337,190.05046 c -2.32496,-2.08807 -4.30422,-4.22615 -4.39837,-4.75129 -0.0941,-0.52514 0.88739,-2.29398 2.18119,-3.93076 l 2.35236,-2.97595 1.59031,1.03175 c 7.27918,4.7225 8.60877,5.66442 8.61315,6.10183 0.006,0.57313 -4.91247,7.57992 -5.63315,8.02532 -0.26306,0.16258 -2.38053,-1.41282 -4.70549,-3.5009 z"
           id="path3664"
           transform="matrix(0.2673762,0,0,0.2673762,-135.65974,28.510136)" />
        <path
           style="opacity:1;fill:#ffffff;fill-opacity:1;stroke:#ffffff;stroke-width:8.93659;stroke-linecap:round;stroke-linejoin:round;stroke-miterlimit:4;stroke-dasharray:none;stroke-opacity:0;paint-order:markers stroke fill;stop-color:#000000"
           d="m 353.35671,201.78157 -3.73015,-4.71731 2.40073,-2.44617 c 3.84779,-3.92061 4.17498,-3.87582 10.86239,1.48683 l 3.26912,2.62152 -2.05503,2.10454 c -1.13026,1.15749 -3.17144,2.90629 -4.53596,3.88621 l -2.48095,1.78168 z"
           id="path3666"
           transform="matrix(0.2673762,0,0,0.2673762,-135.65974,28.510136)" />
        <path
           style="opacity:1;fill:#ffffff;fill-opacity:1;stroke:#ffffff;stroke-width:8.93659;stroke-linecap:round;stroke-linejoin:round;stroke-miterlimit:4;stroke-dasharray:none;stroke-opacity:0;paint-order:markers stroke fill;stop-color:#000000"
           d="m 339.11257,210.82153 -4.50864,-4.15909 4.1812,-2.6751 c 2.29967,-1.47131 4.48796,-2.6751 4.86287,-2.6751 0.78865,0 6.54437,8.30219 6.54437,9.43975 0,0.61428 -5.5612,4.33455 -6.35501,4.2513 -0.11888,-0.0125 -2.24503,-1.89426 -4.72479,-4.18176 z"
           id="path3668"
           transform="matrix(0.2673762,0,0,0.2673762,-135.65974,28.510136)" />
        <path
           style="opacity:1;fill:#ffffff;fill-opacity:1;stroke:#ffffff;stroke-width:8.93659;stroke-linecap:round;stroke-linejoin:round;stroke-miterlimit:4;stroke-dasharray:none;stroke-opacity:0;paint-order:markers stroke fill;stop-color:#000000"
           d="m 322.07723,217.81441 -3.57384,-3.497 3.70214,-1.90362 c 2.03617,-1.04699 4.08783,-1.91353 4.55924,-1.92563 0.47141,-0.0121 2.98242,1.6997 5.58002,3.80401 l 4.72292,3.82603 -3.86581,1.56671 c -5.94481,2.40927 -6.91811,2.24562 -11.12467,-1.8705 z"
           id="path3670"
           transform="matrix(0.2673762,0,0,0.2673762,-135.65974,28.510136)" />
        <path
           style="opacity:1;fill:#ffffff;fill-opacity:1;stroke:#ffffff;stroke-width:8.93659;stroke-linecap:round;stroke-linejoin:round;stroke-miterlimit:4;stroke-dasharray:none;stroke-opacity:0;paint-order:markers stroke fill;stop-color:#000000"
           d="m 307.05129,225.37724 c -0.94282,-0.5899 -2.71065,-2.11125 -3.92852,-3.38079 l -2.2143,-2.30825 3.92852,-1.1556 c 7.16308,-2.10706 6.40646,-2.2531 10.15686,1.96046 3.75174,4.21506 3.72538,4.36087 -0.97097,5.3711 -3.83221,0.82435 -5.00697,0.7423 -6.97159,-0.48692 z"
           id="path3672"
           transform="matrix(0.2673762,0,0,0.2673762,-135.65974,28.510136)" />
        <path
           id="path4348"
           d="m 178.59997,262.78956 c -2.86851,-3.08994 -7.64267,-9.06866 -7.64267,-9.57099 0,-0.414 4.17427,-2.16143 11.00789,-4.60813 1.18312,-0.4236 2.08308,-0.95571 1.99992,-1.18247 -0.0832,-0.22675 -10.69362,-12.94432 -23.5788,-28.26126 -25.46377,-30.2694 -34.42263,-41.25362 -37.26774,-45.69299 -2.83363,-4.42147 -3.6585,-7.35191 -3.77025,-13.39422 -0.0959,-5.18663 -0.0133,-5.58918 1.85649,-9.04016 3.28767,-6.06801 8.84851,-10.04345 16.94552,-12.11431 6.6898,-1.71096 18.26252,-1.59378 25.56589,0.25887 15.87211,4.02629 30.32928,15.16859 34.8228,26.83831 0.61715,1.60274 1.28488,4.82725 1.48387,7.16557 l 0.36177,4.25151 3.14273,0.77225 c 9.41221,2.31283 18.73492,6.29811 25.76148,11.01254 4.78604,3.21117 13.43835,12.00981 15.86801,16.13636 8.10492,13.76548 7.50451,25.68617 -1.76036,34.95065 -3.89082,3.89067 -9.82896,7.18182 -15.19118,8.41957 l -2.98782,0.68967 -2.02973,-1.95788 c -3.01093,-2.90437 -8.38997,-10.09728 -8.01035,-10.71153 0.18152,-0.29369 1.52605,-0.83515 2.98786,-1.20324 5.69851,-1.4349 10.20073,-4.73212 12.25449,-8.97462 0.97065,-2.00509 1.25681,-3.62717 1.25681,-7.12406 0,-3.95628 -0.237,-5.01389 -1.87749,-8.37821 -2.51474,-5.15724 -9.0408,-11.63966 -14.69867,-14.60036 -7.27756,-3.80828 -9.90444,-4.49376 -18.42991,-4.80929 -7.14918,-0.26458 -8.02775,-0.18012 -11.99951,1.15359 -2.35705,0.79148 -4.71217,1.5281 -5.23361,1.63692 -0.62801,0.13106 -2.41843,-1.61052 -5.30349,-5.15883 -6.32467,-7.77864 -6.28304,-6.98269 -0.51672,-9.87908 6.11383,-3.07095 7.34177,-4.56917 7.33373,-8.948 -0.008,-4.13272 -1.37401,-6.97133 -5.13716,-10.67194 -9.33454,-9.17941 -26.89653,-11.09495 -34.7634,-3.79175 -3.32608,3.08776 -4.04388,6.64131 -2.34728,11.62055 1.01302,2.97304 3.82322,6.48122 37.44101,46.74038 31.3067,37.49148 33.75905,40.56976 32.3206,40.56976 -0.11293,0 -6.20676,2.18562 -13.54183,4.85694 -7.33508,2.67132 -13.62055,4.85694 -13.96771,4.85694 -0.34716,0 -1.40699,-0.83568 -2.35519,-1.85706 z"
           style="opacity:1;fill:#55ddff;fill-opacity:1;stroke:none;stroke-width:8.93659;stroke-linecap:round;stroke-linejoin:round;stroke-miterlimit:4;stroke-dasharray:none;stroke-opacity:1;paint-order:markers stroke fill;stop-color:#000000"
           transform="matrix(0.2673762,0,0,0.2673762,-135.65974,28.510136)" />
      </g>
    </g>
    <text
       id="text3624"
       y="139.06247"
       x="-116.12124"
       style="font-style:normal;font-weight:normal;font-size:8.75724px;line-height:1.25;font-family:sans-serif;fill:#000000;fill-opacity:1;stroke:none;stroke-width:0.218931"
       xml:space="preserve"><tspan
         style="font-style:normal;font-variant:normal;font-weight:300;font-stretch:normal;font-family:'Open Sans';-inkscape-font-specification:'Open Sans Light';fill:#666666;stroke-width:0.218931"
         y="139.06247"
         x="-116.12124"
         id="tspan3622"
         sodipodi:role="line">brikcoin manual blockchain</tspan></text>
    <ellipse
       ry="33.874889"
       rx="29.433323"
       cy="87.5504"
       cx="-83.55056"
       id="path3626"
       style="opacity:0.9;fill:#000000;fill-opacity:0;stroke:#000000;stroke-width:4.138;stroke-linecap:round;stroke-linejoin:round;stroke-miterlimit:4;stroke-dasharray:none;stroke-opacity:0;paint-order:markers stroke fill;stop-color:#000000" />
    <path
       transform="matrix(0.26458333,0,0,0.26458333,-126.29448,29.039516)"
       id="path4204"
       d="m 214.78594,312.87907 c 1.64354,-1.80707 3.30102,-3.469 3.6833,-3.69318 0.38227,-0.22419 5.04169,-0.92901 10.35425,-1.56627 5.31256,-0.63726 10.68773,-1.31086 11.94482,-1.49688 l 2.28562,-0.33823 -3.14273,1.52688 c -8.49904,4.12924 -22.72875,8.83236 -26.77052,8.84805 -1.21755,0.005 -1.06388,-0.30168 1.64526,-3.28037 z"
       style="opacity:1;fill:#ffffff;fill-opacity:1;stroke:#ffffff;stroke-width:8.93659;stroke-linecap:round;stroke-linejoin:round;stroke-miterlimit:4;stroke-dasharray:none;stroke-opacity:0;paint-order:markers stroke fill;stop-color:#000000" />
    <path
       transform="matrix(0.26458333,0,0,0.26458333,-126.29448,29.039516)"
       id="path4206"
       d="m 56.219295,171.45633 c 0.568481,-2.69782 4.163226,-13.56454 5.150866,-15.57079 0.799621,-1.62432 0.828636,-1.47747 0.553271,2.80038 -0.159832,2.48303 -0.298554,5.95432 -0.308272,7.71397 -0.0171,3.09643 -0.09703,3.25912 -2.48439,5.05644 -1.356697,1.02138 -2.654838,1.85706 -2.884758,1.85706 -0.22992,0 -0.241943,-0.83568 -0.02672,-1.85706 z"
       style="opacity:1;fill:#ffffff;fill-opacity:1;stroke:#ffffff;stroke-width:8.93659;stroke-linecap:round;stroke-linejoin:round;stroke-miterlimit:4;stroke-dasharray:none;stroke-opacity:0;paint-order:markers stroke fill;stop-color:#000000" />
  </g>
</svg>
