<?xml version="1.0" encoding="UTF-8" standalone="no"?>
<svg
   id="svg8"
   width="134.435mm"
   height="186.74045mm"
   version="1.1"
   viewBox="0 0 134.435 186.74045"
   sodipodi:docname="aes-brk-vertical.svg"
   inkscape:version="1.3.2 (1:1.3.2+202311252150+091e20ef0f)"
   xmlns:inkscape="http://www.inkscape.org/namespaces/inkscape"
   xmlns:sodipodi="http://sodipodi.sourceforge.net/DTD/sodipodi-0.dtd"
   xmlns="http://www.w3.org/2000/svg"
   xmlns:svg="http://www.w3.org/2000/svg">
  <defs
     id="defs5" />
  <sodipodi:namedview
     id="namedview5"
     pagecolor="#ffffff"
     bordercolor="#000000"
     borderopacity="0.25"
     inkscape:showpageshadow="2"
     inkscape:pageopacity="0.0"
     inkscape:pagecheckerboard="0"
     inkscape:deskcolor="#d1d1d1"
     inkscape:document-units="mm"
     inkscape:zoom="0.70174736"
     inkscape:cx="166.01416"
     inkscape:cy="348.41599"
     inkscape:window-width="1503"
     inkscape:window-height="933"
     inkscape:window-x="0"
     inkscape:window-y="0"
     inkscape:window-maximized="1"
     inkscape:current-layer="layer1"
     showgrid="false" />
  <g
     id="layer1"
     transform="translate(-12.8005,43.882264)">
    <g
       id="rect831"
       style="stroke:none;fill:#888888;fill-opacity:0.1247605">
      <path
         id="path7"
         style="color:#000000;fill:#888888;-inkscape-stroke:none;fill-opacity:0.1247605;stroke:none"
         d="M 27.66781 -15.939267 C 19.446589 -15.939267 12.801017 -9.2938978 12.801017 -1.072474 L 12.801017 113.45697 C 12.801017 121.67819 19.446386 128.32635 27.66781 128.32635 L 74.337312 128.32635 C 74.306024 127.73288 74.324639 127.13789 74.390022 126.56056 L 27.66781 126.56056 C 20.393664 126.56056 14.566284 120.73092 14.566284 113.45697 L 14.566284 -1.072474 C 14.566284 -8.3466192 20.393861 -14.174 27.66781 -14.174 L 132.36736 -14.174 C 139.6415 -14.174 145.47095 -8.3464221 145.47095 -1.072474 L 145.47095 113.45697 C 145.47095 120.73111 139.6413 126.56056 132.36736 126.56056 L 94.025 126.56056 L 87.44659 126.56056 C 87.49434 126.97042 87.519453 127.38225 87.519453 127.79511 C 87.519453 127.97891 87.515054 128.15219 87.507051 128.32635 L 132.36736 128.32635 C 140.58858 128.32635 147.23622 121.67839 147.23622 113.45697 L 147.23622 -1.072474 C 147.23622 -9.2936948 140.58878 -15.939267 132.36736 -15.939267 L 27.66781 -15.939267 z " />
      <path
         style="color:#000000;fill:#888888;fill-opacity:0.1247605;-inkscape-stroke:none;stroke:none;stroke-opacity:1"
         d="m 27.668,-15.057 h 104.7 c 7.7478,0 13.985,6.2374 13.985,13.985 v 114.53 c 0,7.7478 -6.2374,13.985 -13.985,13.985 h -104.7 c -7.7478,0 -13.985,-6.2374 -13.985,-13.985 V -1.072 c 0,-7.7478 6.2374,-13.985 13.985,-13.985 z"
         id="path6" />
    </g>
    <g
       id="g2">
      <g
         id="g1">
        <g
           id="flowRoot815"
           transform="matrix(1.7673,0,0,1.7673,-158.86,-245.37)"
           fill="#ff7f2a"
           aria-label="AES">
          <path
             id="path860"
             d="m 123.51,182.17 h -11.602 l -3.9844,10.078 h -2.207 l 11.484,-28.672 h 1.2695 l 11.25,28.672 h -2.2461 z m -10.879,-1.7969 h 10.215 l -3.8867,-10.293 q -0.48828,-1.2109 -1.1719,-3.3594 -0.52735,1.875 -1.1524,3.3984 z" />
          <path
             id="path862"
             d="M 145.1,192.25 H 129.495 V 163.695 H 145.1 v 1.8359 h -13.613 v 10.801 h 12.852 v 1.8359 h -12.852 v 12.246 H 145.1 Z" />
          <path
             id="path864"
             d="m 163.12,184.88 q 0,3.5742 -2.6367,5.6641 -2.6172,2.0898 -6.9727,2.0898 -5.2344,0 -8.0273,-1.1523 v -1.9922 q 3.0859,1.3086 7.8711,1.3086 3.5156,0 5.5664,-1.6016 2.0703,-1.6211 2.0703,-4.2383 0,-1.6211 -0.68359,-2.6758 -0.6836,-1.0742 -2.2266,-1.9531 -1.543,-0.87891 -4.5312,-1.8945 -4.375,-1.5039 -6.0547,-3.2422 -1.6602,-1.7578 -1.6602,-4.668 0,-3.2031 2.5,-5.2148 2.5195,-2.0312 6.4648,-2.0312 4.0234,0 7.5586,1.5234 l -0.72266,1.7188 q -3.5547,-1.4844 -6.7969,-1.4844 -3.1641,0 -5.0391,1.4648 -1.875,1.4648 -1.875,3.9844 0,1.582 0.56641,2.5976 0.58594,1.0156 1.8945,1.8359 1.3086,0.80078 4.4922,1.9336 3.3398,1.1524 5.0195,2.2461 1.6797,1.0742 2.4414,2.4609 0.78125,1.3672 0.78125,3.3203 z" />
        </g>
        <g
           id="flowRoot823"
           transform="matrix(0.50952,0,0,0.50952,-28.386,-115.08)"
           fill="#55ddff"
           aria-label="PLASTIC">
          <path
             id="path867"
             d="m 116.44,424.85 v 10.957 h 4.9609 q 2.7539,0 4.2578,-1.4258 1.5039,-1.4258 1.5039,-4.0625 0,-2.6172 -1.5039,-4.043 -1.5039,-1.4258 -4.2578,-1.4258 z m -3.9453,-3.2422 h 8.9062 q 4.9023,0 7.4023,2.2266 2.5195,2.207 2.5195,6.4844 0,4.3164 -2.5195,6.5234 -2.5,2.207 -7.4023,2.207 H 116.44 v 11.719 h -3.9453 z" />
          <path
             id="path869"
             d="m 142.57,421.61 h 3.9453 v 25.84 h 14.199 v 3.3203 h -18.145 z" />
          <path
             id="path871"
             d="m 181.45,425.49 -5.3516,14.512 h 10.723 z m -2.2266,-3.8867 h 4.4726 l 11.113,29.16 h -4.1016 l -2.6562,-7.4805 h -13.145 l -2.6562,7.4805 h -4.1602 z" />
          <path
             id="path873"
             d="m 222.46,422.56 v 3.8477 q -2.2461,-1.0742 -4.2383,-1.6016 -1.9922,-0.52735 -3.8476,-0.52735 -3.2227,0 -4.9805,1.25 -1.7383,1.25 -1.7383,3.5547 0,1.9336 1.1523,2.9297 1.1719,0.97656 4.4141,1.582 l 2.3828,0.48828 q 4.4141,0.83984 6.5039,2.9688 2.1094,2.1094 2.1094,5.6641 0,4.2383 -2.8516,6.4258 -2.832,2.1875 -8.3203,2.1875 -2.0703,0 -4.4141,-0.46875 -2.3242,-0.46875 -4.8242,-1.3867 v -4.0625 q 2.4023,1.3476 4.707,2.0312 2.3047,0.68359 4.5312,0.68359 3.3789,0 5.2148,-1.3281 1.8359,-1.3281 1.8359,-3.7891 0,-2.1484 -1.3281,-3.3594 -1.3086,-1.2109 -4.3164,-1.8164 l -2.4023,-0.46875 q -4.4141,-0.87891 -6.3867,-2.7539 -1.9726,-1.87499 -1.9727,-5.2148 0,-3.8672 2.7148,-6.0938 2.7344,-2.2266 7.5195,-2.2266 2.0508,0 4.1797,0.37109 2.1289,0.3711 4.3555,1.1133 z" />
          <path
             id="path875"
             d="m 232.25,421.61 h 24.668 v 3.3203 h -10.352 v 25.84 h -3.9648 v -25.84 h -10.352 z" />
          <path
             id="path877"
             d="m 266.68,421.61 h 3.9453 v 29.16 H 266.68 Z" />
          <path
             id="path879"
             d="m 306.24,423.85 v 4.1602 q -1.9922,-1.8555 -4.2578,-2.7734 -2.2461,-0.91796 -4.7852,-0.91796 -5,0 -7.6562,3.0664 -2.6562,3.0469 -2.6562,8.8281 0,5.7617 2.6562,8.8281 2.6562,3.0469 7.6562,3.0469 2.5391,0 4.7852,-0.91797 2.2656,-0.91797 4.2578,-2.7734 v 4.1211 q -2.0703,1.4062 -4.3945,2.1094 -2.3047,0.70312 -4.8828,0.70312 -6.6211,0 -10.43,-4.043 -3.8086,-4.0625 -3.8086,-11.074 0,-7.0312 3.8086,-11.074 3.8086,-4.0625 10.43,-4.0625 2.6172,0 4.9219,0.70312 2.3242,0.6836 4.3555,2.0703 z" />
        </g>
        <g
           id="flowRoot833"
           transform="matrix(0.20934,0,0,0.20934,-2.101,22.263)"
           fill="#666666"
           aria-label="authenticated "
           style="fill:#848484;fill-opacity:1">
          <path
             id="path883"
             d="m 107.87,557.96 -0.48828,-3.3594 h -0.15625 q -1.6016,2.0508 -3.3008,2.9102 -1.6797,0.83985 -3.9844,0.83985 -3.125,0 -4.8633,-1.6016 -1.7383,-1.6016 -1.7383,-4.4336 0,-3.1055 2.5781,-4.8242 2.5977,-1.7188 7.5,-1.8164 l 4.043,-0.11719 v -1.4062 q 0,-3.0273 -1.2305,-4.5703 -1.2305,-1.543 -3.9648,-1.543 -2.9492,0 -6.1133,1.6406 l -0.72266,-1.6797 q 3.4961,-1.6406 6.9141,-1.6406 3.4961,0 5.2148,1.8164 1.7383,1.8164 1.7383,5.6641 v 14.121 z m -7.8125,-1.3672 q 3.3984,0 5.3516,-1.9336 1.9727,-1.9531 1.9727,-5.4102 v -2.0898 l -3.7109,0.15625 q -4.4727,0.21485 -6.3867,1.4062 -1.8945,1.1719 -1.8945,3.6719 0,1.9922 1.2109,3.1055 1.2305,1.0938 3.457,1.0938 z"
             style="fill:#848484;fill-opacity:1" />
          <path
             id="path885"
             d="m 119.1,536.73 v 13.75 q 0,3.2031 1.3477,4.668 1.3477,1.4453 4.1797,1.4453 3.7891,0 5.5664,-1.9141 1.7969,-1.9141 1.7969,-6.2305 v -11.719 h 1.9141 v 21.23 h -1.6406 l -0.35157,-2.9297 h -0.11718 q -2.0703,3.3203 -7.3633,3.3203 -7.2461,0 -7.2461,-7.7539 v -13.867 z"
             style="fill:#848484;fill-opacity:1" />
          <path
             id="path887"
             d="m 147.88,556.63 q 1.8359,0 3.2031,-0.3125 v 1.5625 q -1.4062,0.46875 -3.2422,0.46875 -2.8125,0 -4.1602,-1.5039 -1.3281,-1.5039 -1.3281,-4.7266 v -13.711 h -3.1445 v -1.1328 l 3.1445,-0.87891 0.97656,-4.8047 h 0.99609 v 5.1367 h 6.2305 v 1.6797 h -6.2305 v 13.438 q 0,2.4414 0.85938,3.6133 0.85937,1.1719 2.6953,1.1719 z"
             style="fill:#848484;fill-opacity:1" />
          <path
             id="path889"
             d="m 171.78,557.96 v -13.77 q 0,-3.2031 -1.3477,-4.6484 -1.3477,-1.4648 -4.1797,-1.4648 -3.8086,0 -5.5859,1.9336 -1.7578,1.9141 -1.7578,6.2305 v 11.719 h -1.9336 v -30.391 h 1.9336 v 9.668 l -0.0977,2.7148 h 0.13672 q 1.1914,-1.9141 3.0078,-2.7734 1.8164,-0.85937 4.5117,-0.85937 7.2266,0 7.2266,7.7539 v 13.887 z"
             style="fill:#848484;fill-opacity:1" />
          <path
             id="path891"
             d="m 190.41,558.35 q -4.6289,0 -7.2266,-2.8516 -2.5781,-2.8516 -2.5781,-7.9883 0,-5.0781 2.5,-8.125 2.5,-3.0664 6.7383,-3.0664 3.75,0 5.918,2.6172 2.168,2.6172 2.168,7.1094 v 1.5625 h -15.293 q 0.0391,4.375 2.0312,6.6797 2.0117,2.3047 5.7422,2.3047 1.8164,0 3.1836,-0.25391 1.3867,-0.25391 3.4961,-1.0938 v 1.7578 q -1.7969,0.78125 -3.3203,1.0547 -1.5234,0.29297 -3.3594,0.29297 z m -0.56641,-20.312 q -3.0664,0 -4.9219,2.0312 -1.8555,2.0117 -2.168,5.8203 h 13.125 q 0,-3.6914 -1.6016,-5.7617 -1.6016,-2.0898 -4.4336,-2.0898 z"
             style="fill:#848484;fill-opacity:1" />
          <path
             id="path893"
             d="m 219.86,557.96 v -13.77 q 0,-3.2031 -1.3477,-4.6484 -1.3477,-1.4648 -4.1797,-1.4648 -3.8086,0 -5.5859,1.9336 -1.7578,1.9141 -1.7578,6.2305 v 11.719 h -1.9336 v -21.23 h 1.6406 l 0.3711,2.9102 h 0.11718 q 2.0703,-3.3203 7.3633,-3.3203 7.2266,0 7.2266,7.7539 v 13.887 z"
             style="fill:#848484;fill-opacity:1" />
          <path
             id="path895"
             d="m 235.51,556.63 q 1.8359,0 3.2031,-0.3125 v 1.5625 q -1.4062,0.46875 -3.2422,0.46875 -2.8125,0 -4.1602,-1.5039 -1.3281,-1.5039 -1.3281,-4.7266 v -13.711 h -3.1445 v -1.1328 l 3.1445,-0.87891 0.97657,-4.8047 h 0.99609 v 5.1367 h 6.2305 v 1.6797 h -6.2305 v 13.438 q 0,2.4414 0.85937,3.6133 0.85938,1.1719 2.6953,1.1719 z"
             style="fill:#848484;fill-opacity:1" />
          <path
             id="path897"
             d="m 246.54,557.96 h -1.9336 v -21.23 h 1.9336 z m -2.207,-27.129 q 0,-1.875 1.2305,-1.875 0.60547,0 0.9375,0.48828 0.35156,0.48828 0.35156,1.3867 0,0.8789 -0.35156,1.3867 -0.33203,0.50781 -0.9375,0.50781 -1.2305,0 -1.2305,-1.8945 z"
             style="fill:#848484;fill-opacity:1" />
          <path
             id="path899"
             d="m 263.41,558.35 q -4.5508,0 -7.1289,-2.8711 -2.5781,-2.8711 -2.5781,-8.0078 0,-5.2734 2.6758,-8.2031 2.6758,-2.9492 7.3242,-2.9492 2.7539,0 5.2734,0.95703 l -0.52735,1.7188 q -2.7539,-0.91797 -4.7852,-0.91797 -3.9062,0 -5.918,2.4219 -2.0117,2.4023 -2.0117,6.9336 0,4.2969 2.0117,6.7383 2.0117,2.4219 5.625,2.4219 2.8906,0 5.3711,-1.0352 v 1.7969 q -2.0312,0.9961 -5.332,0.9961 z"
             style="fill:#848484;fill-opacity:1" />
          <path
             id="path901"
             d="m 288.08,557.96 -0.48828,-3.3594 h -0.15625 q -1.6016,2.0508 -3.3008,2.9102 -1.6797,0.83985 -3.9844,0.83985 -3.125,0 -4.8633,-1.6016 -1.7383,-1.6016 -1.7383,-4.4336 0,-3.1055 2.5781,-4.8242 2.5976,-1.7188 7.5,-1.8164 l 4.043,-0.11719 v -1.4062 q 0,-3.0273 -1.2305,-4.5703 -1.2305,-1.543 -3.9648,-1.543 -2.9492,0 -6.1133,1.6406 l -0.72265,-1.6797 q 3.4961,-1.6406 6.9141,-1.6406 3.4961,0 5.2148,1.8164 1.7383,1.8164 1.7383,5.6641 v 14.121 z m -7.8125,-1.3672 q 3.3984,0 5.3516,-1.9336 1.9726,-1.9531 1.9726,-5.4102 v -2.0898 l -3.7109,0.15625 q -4.4726,0.21485 -6.3867,1.4062 -1.8945,1.1719 -1.8945,3.6719 0,1.9922 1.2109,3.1055 1.2305,1.0938 3.457,1.0938 z"
             style="fill:#848484;fill-opacity:1" />
          <path
             id="path903"
             d="m 303.23,556.63 q 1.8359,0 3.2031,-0.3125 v 1.5625 q -1.4062,0.46875 -3.2422,0.46875 -2.8125,0 -4.1602,-1.5039 -1.3281,-1.5039 -1.3281,-4.7266 v -13.711 h -3.1445 v -1.1328 l 3.1445,-0.87891 0.97656,-4.8047 h 0.99609 v 5.1367 h 6.2305 v 1.6797 h -6.2305 v 13.438 q 0,2.4414 0.85938,3.6133 0.85937,1.1719 2.6953,1.1719 z"
             style="fill:#848484;fill-opacity:1" />
          <path
             id="path905"
             d="m 320.9,558.35 q -4.6289,0 -7.2266,-2.8516 -2.5781,-2.8516 -2.5781,-7.9883 0,-5.0781 2.5,-8.125 2.5,-3.0664 6.7383,-3.0664 3.75,0 5.918,2.6172 2.168,2.6172 2.168,7.1094 v 1.5625 h -15.293 q 0.0391,4.375 2.0312,6.6797 2.0117,2.3047 5.7422,2.3047 1.8164,0 3.1836,-0.25391 1.3867,-0.25391 3.4961,-1.0938 v 1.7578 q -1.7969,0.78125 -3.3203,1.0547 -1.5234,0.29297 -3.3594,0.29297 z m -0.5664,-20.312 q -3.0664,0 -4.9219,2.0312 -1.8555,2.0117 -2.168,5.8203 h 13.125 q 0,-3.6914 -1.6016,-5.7617 -1.6016,-2.0898 -4.4336,-2.0898 z"
             style="fill:#848484;fill-opacity:1" />
          <path
             id="path907"
             d="m 343.31,536.32 q 2.3047,0 3.9844,0.83984 1.6797,0.83985 3.0078,2.8711 h 0.11719 q -0.11719,-2.4609 -0.11719,-4.8242 v -7.6367 h 1.9141 v 30.391 h -1.2695 l -0.48829,-3.2422 h -0.15625 q -2.4219,3.6328 -6.9531,3.6328 -4.3945,0 -6.7188,-2.7344 -2.3242,-2.7344 -2.3242,-7.9688 0,-5.5078 2.3047,-8.418 2.3047,-2.9102 6.6992,-2.9102 z m 0,1.7578 q -3.4766,0 -5.2344,2.4414 -1.7383,2.4414 -1.7383,7.0898 0,9.0234 7.0117,9.0234 3.5938,0 5.2734,-2.0898 1.6797,-2.0898 1.6797,-6.8945 v -0.33203 q 0,-4.9219 -1.6602,-7.0703 -1.6406,-2.168 -5.332,-2.168 z"
             style="fill:#848484;fill-opacity:1" />
        </g>
        <g
           id="flowRoot10802"
           transform="matrix(0.20934,0,0,0.20934,69.903,22.074)"
           fill="#666666"
           aria-label="sequestration"
           style="fill:#848484;fill-opacity:1">
          <path
             id="path910"
             d="m 108.15,552.43 q 0,2.8516 -2.168,4.3945 -2.168,1.5234 -6.1523,1.5234 -4.2578,0 -6.7578,-1.3086 v -2.0898 q 3.2031,1.6016 6.7578,1.6016 3.1445,0 4.7656,-1.0352 1.6406,-1.0547 1.6406,-2.793 0,-1.6016 -1.3086,-2.6953 -1.2891,-1.0938 -4.2578,-2.1484 -3.1836,-1.1524 -4.4727,-1.9727 -1.2891,-0.83984 -1.9531,-1.875 -0.64453,-1.0547 -0.64453,-2.5586 0,-2.3828 1.9922,-3.7695 2.0117,-1.3867 5.6055,-1.3867 3.4375,0 6.5234,1.2891 l -0.72266,1.7578 q -3.125,-1.2891 -5.8008,-1.2891 -2.5977,0 -4.1211,0.85938 -1.5234,0.85937 -1.5234,2.3828 0,1.6602 1.1719,2.6562 1.1914,0.99609 4.6289,2.2266 2.8711,1.0352 4.1797,1.875 1.3086,0.82031 1.9531,1.875 0.66406,1.0547 0.66406,2.4805 z"
             style="fill:#848484;fill-opacity:1" />
          <path
             id="path912"
             d="m 122.23,558.35 q -4.6289,0 -7.2266,-2.8516 -2.5781,-2.8516 -2.5781,-7.9883 0,-5.0781 2.5,-8.125 2.5,-3.0664 6.7383,-3.0664 3.75,0 5.918,2.6172 2.168,2.6172 2.168,7.1094 v 1.5625 h -15.293 q 0.0391,4.375 2.0312,6.6797 2.0117,2.3047 5.7422,2.3047 1.8164,0 3.1836,-0.25391 1.3867,-0.25391 3.4961,-1.0938 v 1.7578 q -1.7969,0.78125 -3.3203,1.0547 -1.5234,0.29297 -3.3594,0.29297 z m -0.56641,-20.312 q -3.0664,0 -4.9219,2.0312 -1.8555,2.0117 -2.168,5.8203 h 13.125 q 0,-3.6914 -1.6016,-5.7617 -1.6016,-2.0898 -4.4336,-2.0898 z"
             style="fill:#848484;fill-opacity:1" />
          <path
             id="path914"
             d="m 143.17,558.35 q -4.1797,0 -6.4844,-2.7734 -2.3047,-2.7734 -2.3047,-8.0078 0,-5.3711 2.3047,-8.3008 2.3047,-2.9492 6.6016,-2.9492 4.6094,0 6.8945,3.3984 h 0.11719 l 0.35156,-2.9883 h 1.6406 v 30.84 h -1.9141 v -8.0859 q 0,-2.3828 0.11718,-4.8438 h -0.11718 q -2.3047,3.7109 -7.207,3.7109 z m 0.0391,-1.7188 q 3.8672,0 5.5078,-2.1289 1.6602,-2.1289 1.6602,-7.1484 v -0.23437 q 0,-4.7852 -1.6602,-6.9141 -1.6602,-2.1289 -5.293,-2.1289 -3.4375,0 -5.2344,2.4219 -1.7774,2.4219 -1.7774,7.1094 0,4.4727 1.7383,6.7578 1.7578,2.2656 5.0586,2.2656 z"
             style="fill:#848484;fill-opacity:1" />
          <path
             id="path916"
             d="m 161.12,536.73 v 13.75 q 0,3.2031 1.3477,4.668 1.3477,1.4453 4.1797,1.4453 3.7891,0 5.5664,-1.9141 1.7969,-1.9141 1.7969,-6.2305 v -11.719 h 1.9141 v 21.23 h -1.6406 l -0.35157,-2.9297 h -0.11718 q -2.0703,3.3203 -7.3633,3.3203 -7.2461,0 -7.2461,-7.7539 v -13.867 z"
             style="fill:#848484;fill-opacity:1" />
          <path
             id="path918"
             d="m 191.6,558.35 q -4.6289,0 -7.2266,-2.8516 -2.5781,-2.8516 -2.5781,-7.9883 0,-5.0781 2.5,-8.125 2.5,-3.0664 6.7383,-3.0664 3.75,0 5.918,2.6172 2.168,2.6172 2.168,7.1094 v 1.5625 h -15.293 q 0.0391,4.375 2.0312,6.6797 2.0117,2.3047 5.7422,2.3047 1.8164,0 3.1836,-0.25391 1.3867,-0.25391 3.4961,-1.0938 v 1.7578 q -1.7969,0.78125 -3.3203,1.0547 -1.5234,0.29297 -3.3594,0.29297 z m -0.56641,-20.312 q -3.0664,0 -4.9219,2.0312 -1.8555,2.0117 -2.168,5.8203 h 13.125 q 0,-3.6914 -1.6016,-5.7617 -1.6016,-2.0898 -4.4336,-2.0898 z"
             style="fill:#848484;fill-opacity:1" />
          <path
             id="path920"
             d="m 218.15,552.43 q 0,2.8516 -2.168,4.3945 -2.168,1.5234 -6.1524,1.5234 -4.2578,0 -6.7578,-1.3086 v -2.0898 q 3.2031,1.6016 6.7578,1.6016 3.1445,0 4.7656,-1.0352 1.6406,-1.0547 1.6406,-2.793 0,-1.6016 -1.3086,-2.6953 -1.2891,-1.0938 -4.2578,-2.1484 -3.1836,-1.1524 -4.4727,-1.9727 -1.2891,-0.83984 -1.9531,-1.875 -0.64453,-1.0547 -0.64453,-2.5586 0,-2.3828 1.9922,-3.7695 2.0117,-1.3867 5.6055,-1.3867 3.4375,0 6.5234,1.2891 l -0.72266,1.7578 q -3.125,-1.2891 -5.8008,-1.2891 -2.5977,0 -4.1211,0.85938 -1.5234,0.85937 -1.5234,2.3828 0,1.6602 1.1719,2.6562 1.1914,0.99609 4.6289,2.2266 2.8711,1.0352 4.1797,1.875 1.3086,0.82031 1.9531,1.875 0.66406,1.0547 0.66406,2.4805 z"
             style="fill:#848484;fill-opacity:1" />
          <path
             id="path922"
             d="m 229.26,556.63 q 1.8359,0 3.2031,-0.3125 v 1.5625 q -1.4062,0.46875 -3.2422,0.46875 -2.8125,0 -4.1602,-1.5039 -1.3281,-1.5039 -1.3281,-4.7266 v -13.711 h -3.1445 v -1.1328 l 3.1445,-0.87891 0.97656,-4.8047 h 0.9961 v 5.1367 h 6.2305 v 1.6797 h -6.2305 v 13.438 q 0,2.4414 0.85937,3.6133 0.85938,1.1719 2.6953,1.1719 z"
             style="fill:#848484;fill-opacity:1" />
          <path
             id="path924"
             d="m 245.45,536.32 q 1.3477,0 2.8906,0.27344 l -0.3711,1.8555 q -1.3281,-0.33203 -2.7539,-0.33203 -2.7148,0 -4.4531,2.3047 -1.7383,2.3047 -1.7383,5.8203 v 11.719 h -1.9336 v -21.23 h 1.6406 l 0.19531,3.8281 h 0.13672 q 1.3086,-2.3438 2.793,-3.2812 1.4844,-0.95703 3.5938,-0.95703 z"
             style="fill:#848484;fill-opacity:1" />
          <path
             id="path926"
             d="m 265.53,557.96 -0.48828,-3.3594 h -0.15625 q -1.6016,2.0508 -3.3008,2.9102 -1.6797,0.83985 -3.9844,0.83985 -3.125,0 -4.8633,-1.6016 -1.7383,-1.6016 -1.7383,-4.4336 0,-3.1055 2.5781,-4.8242 2.5977,-1.7188 7.5,-1.8164 l 4.043,-0.11719 v -1.4062 q 0,-3.0273 -1.2305,-4.5703 -1.2305,-1.543 -3.9648,-1.543 -2.9492,0 -6.1133,1.6406 l -0.72266,-1.6797 q 3.4961,-1.6406 6.9141,-1.6406 3.4961,0 5.2148,1.8164 1.7383,1.8164 1.7383,5.6641 v 14.121 z m -7.8125,-1.3672 q 3.3984,0 5.3516,-1.9336 1.9727,-1.9531 1.9727,-5.4102 v -2.0898 l -3.7109,0.15625 q -4.4727,0.21485 -6.3867,1.4062 -1.8945,1.1719 -1.8945,3.6719 0,1.9922 1.2109,3.1055 1.2305,1.0938 3.457,1.0938 z"
             style="fill:#848484;fill-opacity:1" />
          <path
             id="path928"
             d="m 279.42,556.63 q 1.8359,0 3.2031,-0.3125 v 1.5625 q -1.4062,0.46875 -3.2422,0.46875 -2.8125,0 -4.1602,-1.5039 -1.3281,-1.5039 -1.3281,-4.7266 v -13.711 h -3.1445 v -1.1328 l 3.1445,-0.87891 0.97656,-4.8047 h 0.9961 v 5.1367 h 6.2305 v 1.6797 h -6.2305 v 13.438 q 0,2.4414 0.85937,3.6133 0.85938,1.1719 2.6953,1.1719 z"
             style="fill:#848484;fill-opacity:1" />
          <path
             id="path930"
             d="m 289.18,557.96 h -1.9336 v -21.23 h 1.9336 z m -2.207,-27.129 q 0,-1.875 1.2305,-1.875 0.60547,0 0.9375,0.48828 0.35156,0.48828 0.35156,1.3867 0,0.8789 -0.35156,1.3867 -0.33203,0.50781 -0.9375,0.50781 -1.2305,0 -1.2305,-1.8945 z"
             style="fill:#848484;fill-opacity:1" />
          <path
             id="path932"
             d="m 313.87,547.32 q 0,5.1953 -2.5195,8.125 -2.5195,2.9102 -6.9531,2.9102 -2.793,0 -4.9219,-1.3477 -2.1289,-1.3476 -3.2617,-3.8672 -1.1328,-2.5195 -1.1328,-5.8203 0,-5.1953 2.5195,-8.0859 2.5195,-2.9102 6.9141,-2.9102 4.375,0 6.8555,2.9492 2.5,2.9297 2.5,8.0469 z m -16.758,0 q 0,4.375 1.9141,6.8359 1.9336,2.4414 5.4492,2.4414 3.5156,0 5.4297,-2.4414 1.9336,-2.4609 1.9336,-6.8359 0,-4.3945 -1.9531,-6.8164 -1.9336,-2.4219 -5.4492,-2.4219 -3.5156,0 -5.4297,2.4219 -1.8945,2.4023 -1.8945,6.8164 z"
             style="fill:#848484;fill-opacity:1" />
          <path
             id="path934"
             d="m 334.55,557.96 v -13.77 q 0,-3.2031 -1.3476,-4.6484 -1.3477,-1.4648 -4.1797,-1.4648 -3.8086,0 -5.5859,1.9336 -1.7578,1.9141 -1.7578,6.2305 v 11.719 h -1.9336 v -21.23 h 1.6406 l 0.3711,2.9102 h 0.11718 q 2.0703,-3.3203 7.3633,-3.3203 7.2266,0 7.2266,7.7539 v 13.887 z"
             style="fill:#848484;fill-opacity:1" />
        </g>
      </g>
      <g
         id="path1293" />
      <path
         id="path5"
         d="m 78.256367,140.51198 c -0.28928,-0.0779 -0.54912,-0.22832 -0.78298,-0.45326 -0.23455,-0.2256 -0.39863,-0.46142 -0.4448,-0.6393 -0.01807,-0.0696 -0.06988,-0.22966 -0.11513,-0.3557 -0.10952,-0.30502 -0.16579,-1.3643 -0.13591,-2.5589 0.0263,-1.0518 0.06652,-1.5107 0.22093,-2.5207 0.13452,-0.87994 0.18291,-1.9123 0.11295,-2.4094 -0.05226,-0.37132 -0.20674,-1.2062 -0.28673,-1.5497 -0.19992,-0.85846 -0.26848,-2.2142 -0.15555,-3.0759 0.10887,-0.8308 0.18203,-1.0877 0.39915,-1.4018 0.26018,-0.37637 0.6137,-0.70797 1.165,-1.0928 0.25207,-0.17594 0.60011,-0.46043 0.77341,-0.63219 l 0.31509,-0.31228 v -1.0028 h -0.62144 l 0.02458,-0.92618 c 0.01353,-0.5094 0.03511,-1.1941 0.04798,-1.5215 l 0.02339,-0.59534 2.2175,-0.0247 c 1.2196,-0.0136 2.227,-0.0153 2.2385,-0.004 0.02329,0.0233 0.11037,2.0241 0.11498,2.6418 l 0.0029,0.39147 h -0.58394 l 0.02435,0.25781 c 0.0134,0.14179 0.02447,0.36605 0.02462,0.49835 l 2.88e-4,0.24055 0.26142,0.25782 c 0.14378,0.1418 0.52149,0.43451 0.83934,0.65048 0.62857,0.42708 1.0152,0.78281 1.2611,1.1602 0.12528,0.19228 0.17703,0.32789 0.25202,0.66036 0.14216,0.63027 0.21238,1.256 0.21238,1.8923 0,0.72164 -0.03927,1.0768 -0.25296,2.2881 -0.26647,1.5104 -0.26593,1.9358 0.0045,3.5328 0.14604,0.86259 0.19388,1.2366 0.24859,1.9438 0.04797,0.62003 0.04845,2.6716 7.21e-4,3.002 -0.08512,0.58904 -0.5405,1.203 -1.0958,1.4775 l -0.28734,0.14201 -0.7888,0.027 c -0.43384,0.0148 -1.7427,0.0361 -2.9085,0.0472 -1.78,0.017 -2.1527,0.0114 -2.3258,-0.0352 z"
         fill="#ff7f2a"
         stroke="#ffffff"
         stroke-width="4.138"
         style="stroke:none;paint-order:markers stroke fill" />
    </g>
    <g
       id="g3480"
       transform="matrix(1.1798,0,0,1.1798,172.29,-106.8)">
      <g
         id="g4200">
        <g
           id="g19127"
           transform="matrix(2.0149,0,0,2.0149,296.73,-87.39)">
          <path
             id="path55428"
             d="m -189.07,101.96 c -2.6472,-0.32447 -5.0201,-1.0851 -7.6237,-2.4439 -1.948,-1.0166 -3.1595,-1.897 -4.6467,-3.3767 -1.1705,-1.1645 -1.8967,-2.0925 -2.7274,-3.4846 -1.712,-2.8695 -2.6326,-5.7693 -2.4375,-7.6786 0.0401,-0.39345 0.0908,-0.97062 0.1123,-1.2826 0.0722,-1.0482 0.34637,-1.7951 1.0607,-2.891 0.51326,-0.78743 0.96203,-1.2916 1.823,-2.0478 1.6151,-1.4188 2.7486,-2.1409 4.2802,-2.7265 2.6563,-1.0157 6.0784,-1.061 9.2457,-0.12229 0.81761,0.24231 2.0577,0.70621 2.5542,0.95555 0.22606,0.11362 0.41738,0.19644 0.42498,0.18424 0.006,-0.0127 0.16623,-0.29094 0.35242,-0.6194 1.6298,-2.8755 4.8743,-5.2181 8.5216,-6.1529 2.8528,-0.73115 4.9654,-0.54991 7.3069,0.62689 3.2639,1.6404 5.6162,4.4066 6.2824,7.3881 0.13204,0.59137 0.11524,2.1 -0.0324,2.916 -0.34364,1.8974 -1.5399,4.3395 -2.8165,5.7497 -1.3027,1.4391 -2.816,2.4419 -4.933,3.269 -1.1316,0.4421 -2.6256,0.84324 -3.6885,0.99041 l -0.32663,0.0451 0.0357,0.26526 c 0.0548,0.40925 -0.10787,1.7086 -0.29515,2.3544 -0.21781,0.75171 -0.548,1.4695 -1.0383,2.2573 -1.8362,2.9503 -5.0132,5.0801 -8.4831,5.687 -0.65022,0.11377 -2.4578,0.19777 -2.9511,0.13735 z m 0.36456,-0.93276 c 0.18451,-0.0701 1.3488,-0.91849 1.3111,-0.95533 -0.0147,-0.0118 -0.38431,-0.0896 -0.82411,-0.16977 l -0.79963,-0.1459 -0.61306,0.48889 c -0.78565,0.62652 -0.83664,0.68665 -0.62201,0.73357 0.52171,0.11407 1.3102,0.13882 1.5477,0.0486 z m 2.4896,-0.0474 c 0.2912,-0.0601 0.73982,-0.17448 0.99695,-0.25377 0.54132,-0.16711 2.4211,-0.97667 2.375,-1.0228 -0.0177,-0.0177 -0.27882,0.0177 -0.58149,0.0793 -0.30275,0.0607 -1.0193,0.15622 -1.5923,0.21251 -1.0064,0.099 -1.2417,0.16682 -1.2417,0.35852 0,0.0495 -0.16151,0.2355 -0.35893,0.41296 -0.40276,0.36217 -0.37897,0.37476 0.40247,0.21339 z m -4.9137,-0.79632 c 0.60796,-0.45838 0.83311,-0.67884 0.74669,-0.73101 -0.0315,-0.0206 -0.47959,-0.16447 -0.9958,-0.32301 l -0.93851,-0.28825 -0.64244,0.57441 c -0.35333,0.31593 -0.65116,0.59502 -0.66183,0.62019 -0.0265,0.0604 1.511,0.54663 1.7541,0.55511 0.12792,0.006 0.36595,-0.12703 0.73779,-0.4073 z m -2.9451,-1.1369 c 0.35654,-0.31186 0.64828,-0.59157 0.64828,-0.6216 0,-0.0516 -1.781,-0.91932 -1.8864,-0.91932 -0.0265,0 -0.29789,0.25023 -0.60191,0.55599 -0.38986,0.39218 -0.53979,0.58986 -0.50869,0.67086 0.0351,0.0914 1.5212,0.87794 1.6636,0.88044 0.0206,3.2e-4 0.32851,-0.25465 0.68509,-0.56637 z m 9.5016,0.11348 c 2.9439,-0.44712 5.7455,-2.4098 6.8188,-4.7769 0.17389,-0.38354 0.22282,-0.61727 0.28884,-1.3797 0.2744,-3.1683 -0.9373,-6.6489 -3.3616,-9.6562 -0.76803,-0.95268 -2.4119,-2.5394 -3.3952,-3.2773 -3.5671,-2.6766 -7.5656,-4.0558 -11.312,-3.902 -2.1273,0.0874 -3.7319,0.58689 -5.3752,1.6735 -0.71595,0.47338 -1.6865,1.4076 -1.9973,1.9224 -0.86792,1.4378 -0.93662,4.8653 -0.1459,7.2744 0.42994,1.3097 1.6951,3.6751 2.7988,5.2326 0.55231,0.77943 1.9962,2.2062 2.9679,2.9327 2.8112,2.1019 6.5084,3.6135 9.7267,3.9768 0.88401,0.0996 2.2567,0.0902 2.9862,-0.0206 z m -2.2133,-1.2411 c -1.3613,-0.10021 -3.4781,-0.66502 -3.4781,-0.9281 0,-0.24169 0.17714,-0.26114 0.70929,-0.0784 3.3466,1.1499 6.4008,0.73007 8.3692,-1.1506 1.3423,-1.2825 1.9484,-2.7778 1.9516,-4.815 0.002,-1.5957 -0.30202,-2.8 -1.131,-4.4728 -0.42498,-0.85749 -1.253,-2.1346 -1.8346,-2.8297 -0.20425,-0.24395 -0.2128,-0.27404 -0.10817,-0.3785 0.15975,-0.15975 0.28089,-0.0898 0.65143,0.37631 2.0618,2.5933 3.1211,5.6041 2.847,8.0911 -0.44485,4.0349 -3.6306,6.5055 -7.9764,6.1856 z m -5.5625,-1.672 c -2.1097,-1.0107 -4.186,-2.5345 -5.9692,-4.3807 -1.176,-1.2176 -2.459,-2.9503 -2.3667,-3.1964 0.0825,-0.22017 0.29568,-0.0622 0.65019,0.48222 0.59396,0.91192 1.3921,1.8539 2.4377,2.877 1.6976,1.6612 3.3129,2.8299 5.2102,3.7701 0.78783,0.39035 1.069,0.5626 1.0532,0.64522 -0.038,0.20012 -0.2862,0.15179 -1.0154,-0.19748 z m 1.2058,-2.0604 -0.59741,-0.71318 0.54483,-0.19659 c 0.29966,-0.10817 0.67919,-0.24699 0.84348,-0.30841 l 0.29866,-0.112 -0.41992,-0.50359 c -0.23107,-0.27706 -1.845,-2.1952 -3.5867,-4.2628 -3.6772,-4.3651 -3.7304,-4.4437 -3.7804,-5.5859 -0.0265,-0.58605 -0.009,-0.6955 0.14884,-1.0424 0.52519,-1.1472 1.7576,-1.7525 3.5627,-1.75 0.71229,8.6e-4 1.0072,0.035 1.5603,0.17985 2.4468,0.64087 4.3409,2.4313 4.3645,4.1256 l 0.006,0.45916 0.74088,0.18347 c 2.7647,0.6846 4.9422,2.6733 5.2749,4.8176 0.2013,1.2968 -0.46811,2.4948 -1.7564,3.1436 -0.5048,0.25436 -1.273,0.4847 -1.3426,0.40276 -0.93329,-1.0985 -1.1923,-1.4288 -1.1606,-1.4801 0.0206,-0.0342 0.15798,-0.0822 0.30364,-0.1064 0.39447,-0.0654 0.95017,-0.34809 1.2252,-0.6232 0.38537,-0.38537 0.51291,-0.71332 0.5142,-1.3223 8.4e-4,-0.47303 -0.0265,-0.58865 -0.2632,-1.0653 -0.49825,-1.0081 -1.7131,-1.9101 -2.9679,-2.2034 -0.27499,-0.0643 -0.80183,-0.11613 -1.1945,-0.11789 -0.60731,-0.002 -0.78539,0.0265 -1.3122,0.21103 l -0.60958,0.21398 -0.60804,-0.72612 c -0.33444,-0.39935 -0.59764,-0.75171 -0.58494,-0.78303 0.0118,-0.0314 0.25672,-0.15851 0.54232,-0.28262 0.62591,-0.27208 0.82872,-0.45041 0.92686,-0.81488 0.31838,-1.1823 -1.3608,-2.5812 -3.0945,-2.578 -0.49091,8.5e-4 -1.0257,0.11751 -1.3801,0.30082 -0.31269,0.16178 -0.64595,0.56877 -0.69947,0.85431 -0.0616,0.32799 0.0704,0.84561 0.31442,1.233 0.10965,0.1739 2.007,2.463 4.2166,5.087 2.2096,2.6239 3.9921,4.7957 3.9611,4.826 -0.0309,0.0304 -0.68877,0.28206 -1.4617,0.55906 -0.77292,0.27705 -1.5239,0.54656 -1.6689,0.59882 l -0.2635,0.0949 -0.59741,-0.71315 z m -10.202,-6.7144 c -0.1117,-0.071 -0.53515,-1.1745 -0.71657,-1.867 -0.45422,-1.7342 -0.34422,-3.4305 0.31234,-4.8163 0.98015,-2.0687 3.084,-3.4794 5.8289,-3.9083 0.60755,-0.095 1.036,-0.11247 2.0026,-0.0821 1.7601,0.0555 3.0515,0.34651 4.7201,1.0641 0.57312,0.24646 0.7439,0.38739 0.6512,0.53735 -0.066,0.10672 -0.19099,0.0754 -0.85804,-0.21378 -3.633,-1.5757 -7.6325,-1.3173 -10.198,0.65899 -2.2683,1.7477 -2.8857,4.6715 -1.6578,7.851 0.13764,0.35623 0.23432,0.68913 0.21487,0.73977 -0.0392,0.10228 -0.17095,0.11819 -0.29999,0.0363 z m 17.577,-5.3396 c -0.88507,-0.76567 -1.8337,-1.4878 -2.9768,-2.2663 -0.72181,-0.49154 -1.0598,-0.76298 -1.0598,-0.8512 0,-0.2428 0.27646,-0.13531 1.1439,0.44461 1.0511,0.70274 2.0003,1.4162 2.9498,2.2174 0.76676,0.64691 0.83491,0.71732 0.80066,0.82717 -0.0625,0.20004 -0.33185,0.0833 -0.85775,-0.37161 z m -12.792,15.057 c 0.15032,-0.17596 0.26114,-0.33005 0.24581,-0.3427 -0.0147,-0.0118 -0.31958,-0.21781 -0.67663,-0.45619 l -0.64913,-0.43321 -0.62992,0.56478 c -0.34643,0.31062 -0.6478,0.59375 -0.66967,0.62915 -0.0451,0.0728 0.66988,0.60106 1.1797,0.87142 l 0.33842,0.1795 0.29385,-0.34656 c 0.16181,-0.19069 0.417,-0.49035 0.5674,-0.66619 z m -2.3638,-1.4493 c 0.16416,-0.196 0.29777,-0.39277 0.29671,-0.43725 -0.006,-0.22135 -0.82922,-0.95914 -1.0714,-0.95914 -0.17743,0 -1.4562,0.77531 -1.4562,0.88298 0,0.0442 0.30096,0.37123 0.66885,0.72709 l 0.66882,0.64707 0.2973,-0.25229 c 0.16358,-0.13853 0.43168,-0.41255 0.59594,-0.60858 z m -2.4992,-1.6554 c 0.24316,-0.14236 0.58343,-0.31275 0.75642,-0.37842 0.17301,-0.0657 0.32391,-0.14766 0.33547,-0.18244 0.0236,-0.0749 -0.96386,-1.3017 -1.0795,-1.3391 -0.0707,-0.0236 -0.24817,0.11406 -1.1676,0.90051 l -0.2128,0.18215 0.40503,0.5381 c 0.22282,0.29601 0.43114,0.53817 0.46306,0.53817 0.0318,0 0.25672,-0.11672 0.49991,-0.25908 z m -1.404,-2.1531 c 0.24346,-0.24463 0.53301,-0.50756 0.64348,-0.58437 l 0.20101,-0.13971 -0.36751,-0.64639 c -0.20219,-0.35551 -0.39483,-0.66328 -0.42823,-0.68388 -0.0634,-0.0392 -1.011,0.63301 -1.1772,0.83508 -0.059,0.0716 -0.0781,0.18627 -0.0498,0.29875 0.0454,0.18067 0.66189,1.3652 0.71061,1.3652 0.0147,0 0.22459,-0.20013 0.4679,-0.44474 z m 26.616,-1.3384 c 0,-0.0147 -0.0475,-0.0657 -0.10552,-0.11407 -0.0864,-0.0716 -0.10522,-0.0669 -0.10522,0.0265 0,0.0628 0.0474,0.11406 0.10522,0.11406 0.0581,0 0.10552,-0.0118 0.10552,-0.0265 z m 1.8141,-0.36265 c 0.20013,-0.0595 0.36406,-0.12556 0.36406,-0.14707 0,-0.0206 -0.19511,-0.25053 -0.43391,-0.50949 l -0.43394,-0.47058 -0.65483,0.17832 c -0.36014,0.0981 -0.65496,0.19747 -0.65514,0.22046 -2.1e-4,0.0236 0.18686,0.22076 0.41599,0.43913 0.37662,0.35923 0.44585,0.39716 0.72503,0.39716 0.16977,0 0.4725,-0.0486 0.67274,-0.10816 z m -29.689,-0.72509 c 0.20131,-0.14913 0.46864,-0.32984 0.59423,-0.40164 0.12556,-0.0716 0.22812,-0.14736 0.22783,-0.168 -0.001,-0.11141 -0.61671,-1.5078 -0.67192,-1.5249 -0.11612,-0.036 -0.9752,0.71374 -1.0449,0.91206 -0.0463,0.13205 -0.0398,0.29622 0.0206,0.52396 0.12497,0.46698 0.33913,0.92969 0.43044,0.92969 0.0424,0 0.24198,-0.12202 0.44311,-0.27115 z m 31.833,0.009 0.48084,-0.18805 -0.19865,-0.14442 c -0.10935,-0.0793 -0.38885,-0.30561 -0.62134,-0.50259 l -0.42274,-0.3581 -0.52275,0.22252 c -0.28737,0.12232 -0.53327,0.25407 -0.54615,0.29268 -0.0118,0.0386 0.18391,0.26939 0.43742,0.51287 0.52563,0.50468 0.52537,0.50468 1.3933,0.16506 z m 2.0399,-1.0063 c 0.0339,-0.0315 -0.10787,-0.29208 -0.3162,-0.5809 -0.20779,-0.28796 -0.40921,-0.57365 -0.44785,-0.63475 -0.0604,-0.0955 -0.15238,-0.0569 -0.6578,0.27617 -0.32315,0.2131 -0.57609,0.39875 -0.56212,0.41267 0.0147,0.0147 0.27823,0.24787 0.58717,0.52009 l 0.56178,0.49481 0.38681,-0.21546 c 0.2128,-0.11848 0.41443,-0.24139 0.44821,-0.27263 z m -5.0573,-0.0295 c 1.7793,-0.59529 3.275,-1.3556 4.3353,-2.2039 1.761,-1.4089 3.1996,-3.8339 3.7305,-6.2881 0.2187,-1.0116 0.21782,-2.7761 -0.001,-3.5968 -0.48393,-1.8072 -1.8968,-3.5997 -3.7584,-4.7684 -1.273,-0.79926 -2.1605,-0.99239 -4.2981,-0.93542 -1.0644,0.0283 -1.5069,0.072 -2.1831,0.21518 -3.1562,0.66841 -5.9004,2.4453 -7.727,5.0034 -0.41924,0.58709 -0.98614,1.56 -0.93559,1.6056 0.0147,0.0127 0.2405,0.15362 0.50397,0.31398 l 0.47907,0.29155 0.11377,-0.3008 c 0.1624,-0.42911 0.98717,-2.0385 1.1053,-2.1568 0.0784,-0.0785 0.12084,-0.0815 0.2016,-0.0142 0.0875,0.0727 0.0324,0.22035 -0.37809,1.0128 -0.26438,0.51025 -0.54403,1.0898 -0.62155,1.288 l -0.14088,0.36026 0.39568,0.27213 c 1.724,1.1856 3.5322,2.9676 4.8887,4.818 0.2747,0.37469 0.50751,0.67322 0.51736,0.66338 0.009,-0.009 -0.0295,-0.37966 -0.084,-0.82181 -0.0563,-0.44216 -0.13204,-1.0885 -0.16889,-1.4363 -0.0519,-0.4901 -0.13646,-0.79835 -0.37664,-1.3702 -0.35563,-0.84702 -0.44553,-1.1753 -0.50999,-1.862 -0.0581,-0.61925 0.0663,-0.93575 0.62411,-1.5893 0.26143,-0.3062 0.3963,-0.52658 0.3963,-0.64733 0,-0.11978 -0.0312,-0.17118 -0.0899,-0.14864 -0.2075,0.0795 -0.31693,-0.15329 -0.46348,-0.98552 -0.1176,-0.66762 -0.13027,-0.8577 -0.061,-0.92101 0.15445,-0.14115 2.6479,-0.76428 2.7299,-0.68223 0.0404,0.0404 0.16829,0.44836 0.28413,0.90638 0.21015,0.83139 0.21015,0.83295 0.0687,0.94747 -0.23461,0.18993 -0.11966,0.38982 0.31779,0.55353 0.87764,0.32838 1.1639,0.56456 1.4154,1.168 0.224,0.53749 0.29648,0.94303 0.36241,2.0284 0.0563,0.92547 0.0793,1.0384 0.37627,1.8295 0.30063,0.8012 0.68078,2.2794 0.68078,2.6472 0,0.25295 -0.33529,0.88022 -0.55363,1.0357 -0.18245,0.12998 -1.1056,0.41031 -2.6786,0.8135 -0.5083,0.13027 -0.83066,0.17654 -1.0364,0.14884 -0.16417,-0.0206 -0.29863,-0.0295 -0.29863,-0.0147 0,0.0147 0.0881,0.1957 0.19541,0.40269 0.10758,0.20691 0.28325,0.57377 0.39053,0.81548 0.22224,0.50053 0.0985,0.48119 1.2057,0.18864 2.213,-0.58491 4.9708,-2.1737 5.9022,-3.4004 0.2352,-0.3099 0.45672,-0.37396 0.45672,-0.1321 0,0.23729 -1.1244,1.2938 -1.9965,1.876 -1.342,0.89585 -2.8978,1.5994 -4.3841,1.9827 -0.44807,0.11554 -0.82403,0.21929 -0.8355,0.23078 -0.0177,0.0177 0.0737,0.30258 0.36943,1.16 0.048,0.13941 0.4406,0.0616 1.5346,-0.3042 z m 6.1305,-6.9074 c -0.0206,-0.0336 0.0542,-0.32786 0.16653,-0.65386 0.35047,-1.0171 0.44104,-1.5578 0.44054,-2.6304 -6.4e-4,-1.1456 -0.13027,-1.7452 -0.57692,-2.6663 -1.0472,-2.1596 -3.5829,-3.8696 -5.8374,-3.9366 -0.59859,-0.0177 -0.6675,-0.0335 -0.6675,-0.15146 0,-0.12102 0.0625,-0.13125 0.77293,-0.12677 0.63144,0.005 0.88421,0.0394 1.381,0.19344 2.3232,0.72052 4.2357,2.4972 4.9479,4.5964 0.52369,1.5437 0.45351,3.3507 -0.19365,4.9813 -0.15061,0.37962 -0.33744,0.54951 -0.43347,0.39416 z m -13.575,-6.9783 c -0.0651,-0.10508 0.18156,-0.35437 0.90797,-0.91868 1.1156,-0.86651 2.0682,-1.3143 3.6326,-1.7075 0.77525,-0.19485 1.0197,-0.23246 1.0965,-0.16879 0.16388,0.13602 0.0147,0.20623 -0.97399,0.45468 -1.7144,0.43127 -2.7506,0.95607 -3.9923,2.0218 -0.46186,0.3964 -0.58609,0.4554 -0.67074,0.31847 z m 13.464,13.232 c 0.2912,-0.19718 0.90823,-0.73709 0.90823,-0.79462 0,-0.0604 -0.80732,-0.70661 -1.0347,-0.8283 -0.0828,-0.0442 -0.19541,-0.0805 -0.25052,-0.0805 -0.13234,0 -0.75232,0.54834 -0.75232,0.6652 0,0.0884 0.84286,1.1589 0.91345,1.1602 0.0206,3.2e-4 0.11642,-0.0545 0.21604,-0.12202 z m -35.843,-0.85734 c 0.44703,-0.44706 0.6474,-0.79762 0.65161,-1.1401 0.006,-0.47789 -0.0866,-0.9005 -0.19688,-0.9005 -0.18451,0 -0.71507,0.58596 -0.79538,0.87831 -0.0976,0.35478 -0.10316,1.4404 -0.006,1.4404 0.0386,0 0.19541,-0.12497 0.34838,-0.27824 z m 37.389,-0.6529 c 0.0731,-0.087 0.25141,-0.32675 0.39595,-0.53292 0.22371,-0.31911 0.2464,-0.38397 0.15297,-0.43625 -0.0604,-0.0338 -0.35649,-0.23847 -0.65812,-0.45486 -0.30161,-0.2164 -0.57094,-0.36791 -0.59853,-0.33667 -0.2517,0.28498 -0.63371,0.8262 -0.6175,0.87489 0.0206,0.0581 1.1184,1.0387 1.1682,1.0422 0.0118,8.4e-4 0.0837,-0.0696 0.1571,-0.1565 z m 1.3158,-2.0045 c 0.42118,-0.7902 0.43294,-0.71597 -0.20219,-1.2767 -0.30877,-0.27252 -0.58541,-0.49551 -0.61479,-0.49551 -0.0295,0 -0.19247,0.28345 -0.36212,0.62984 -0.30715,0.62658 -0.30803,0.6306 -0.17301,0.7799 0.20189,0.22302 0.94508,0.76848 1.0472,0.76848 0.0486,0 0.18598,-0.18271 0.30502,-0.40601 z m -38.594,-0.53185 0.27204,-0.23524 0.0478,-0.94171 c 0.0265,-0.51794 0.036,-0.95447 0.0206,-0.97009 -0.0757,-0.082 -0.62847,1.472 -0.76605,2.1539 -0.0613,0.30318 0.0684,0.30109 0.42457,-0.007 z m 39.444,-1.6156 c 0.0931,-0.33237 0.14383,-0.65035 0.1173,-0.73467 -0.046,-0.14472 -0.98964,-1.0683 -1.0916,-1.0683 -0.0457,0 -0.36179,1.0865 -0.38083,1.3093 -0.006,0.0807 1.0596,1.0797 1.1528,1.0797 0.0206,0 0.112,-0.26373 0.20249,-0.58603 z m 0.22518,-2.9491 c -0.0766,-0.12326 -0.31198,-0.39359 -0.52275,-0.60087 -0.43436,-0.42717 -0.42569,-0.43316 -0.50167,0.34601 l -0.0451,0.46097 0.58385,0.55785 0.58385,0.55786 0.0206,-0.54892 c 0.0177,-0.44949 -0.006,-0.58948 -0.11878,-0.7729 z m -0.17065,-1.674 c -0.0931,-0.24696 -0.26763,-0.64439 -0.3882,-0.88321 -0.26321,-0.52131 -0.99156,-1.6628 -1.034,-1.6204 -0.0177,0.0165 0.046,0.25409 0.13912,0.52784 0.0931,0.27375 0.20573,0.68223 0.25023,0.90775 0.14531,0.73486 0.20131,0.84683 0.51506,1.0314 0.1621,0.0952 0.37113,0.25525 0.46468,0.35537 0.0937,0.10015 0.18186,0.17042 0.196,0.15615 0.0147,-0.0142 -0.0501,-0.22795 -0.14324,-0.47492 z"
             fill="#ff7f2a" />
        </g>
        <path
           id="path3630"
           d="m -80.326,112.44 c -6.8499,-0.47941 -15.891,-4.2443 -21.502,-8.9536 -3.7266,-3.1277 -6.1598,-6.3728 -8.8936,-11.861 -0.48642,-0.97654 -1.0478,-2.189 -1.2476,-2.6944 -1.5193,-3.8444 -1.9128,-9.6786 -0.9041,-13.407 0.4515,-1.6691 0.98034,-2.5402 2.3926,-3.941 2.5849,-2.5639 6.1975,-4.4196 9.8947,-5.0825 2.6663,-0.47808 6.9867,-0.4119 9.9585,0.15254 11.053,2.0992 21.945,10.231 26.917,20.095 2.1363,4.2382 3.1821,9.3307 2.7628,13.454 -0.18057,1.7762 -0.48585,2.6588 -1.4178,4.0995 -2.8927,4.4716 -8.4027,7.6837 -13.973,8.1454 -1.722,0.14273 -1.8546,0.1425 -3.9877,-0.007 z m 6.4628,-2.9159 c 4.7638,-1.2563 8.1214,-4.2875 9.6024,-8.6688 1.509,-4.4644 0.94695,-9.3245 -1.6809,-14.534 -1.3055,-2.588 -3.3433,-5.5946 -4.1167,-6.0739 -0.24779,-0.15355 -0.65573,-0.0032 -0.7488,0.27604 -0.02421,0.07264 0.395,0.71724 0.93157,1.4325 2.7109,3.6134 4.5665,7.5035 5.1336,10.762 0.272,1.5629 0.27374,4.5043 0.0036,6.0536 -0.43212,2.4779 -1.6072,4.6827 -3.483,6.535 -2.5548,2.5228 -5.7125,3.732 -9.7695,3.741 -2.2767,0.005 -3.6525,-0.20119 -6.1646,-0.92426 -2.0533,-0.591 -2.489,-0.61884 -2.489,-0.15903 0,0.37881 0.6316,0.69459 2.3375,1.1686 2.3501,0.65309 3.8912,0.83678 6.5908,0.78561 2.177,-0.0413 2.7291,-0.0977 3.853,-0.39412 z m -14.897,-2.4583 c 0.14521,-0.23495 -0.28887,-0.53327 -2.3296,-1.6011 -4.3245,-2.2627 -7.3493,-4.5377 -11.017,-8.2863 -1.8712,-1.9124 -3.0565,-3.3287 -4.1848,-5.0008 -0.60731,-0.90001 -0.88624,-1.1605 -1.2427,-1.1605 -0.0694,0 -0.12612,0.12609 -0.12612,0.28019 0,0.96589 2.8947,4.6886 5.9237,7.618 3.4134,3.3013 7.7347,6.3239 11.21,7.8414 1.121,0.48943 1.6028,0.57374 1.7664,0.30909 z m 4.7345,-4.316 c 1.7702,-0.64846 3.3267,-1.212 3.4589,-1.2522 0.13221,-0.0403 0.24038,-0.12522 0.24038,-0.18876 0,-0.19476 -2.4087,-3.1415 -9.5352,-11.665 -3.7582,-4.4951 -6.9502,-8.3993 -7.0933,-8.6761 -0.69289,-1.3404 -0.60201,-2.3569 0.29049,-3.2494 1.7904,-1.7904 6.0521,-1.3447 8.3024,0.86819 0.8041,0.79073 1.1911,1.5245 1.2679,2.4038 0.08909,1.0199 -0.25639,1.4716 -1.6807,2.1978 -0.66688,0.33998 -1.234,0.68253 -1.2602,0.76124 -0.03424,0.10271 1.8109,2.4975 2.3532,3.0542 0.02043,0.02096 0.61749,-0.15677 1.3268,-0.39498 1.2527,-0.42068 1.3409,-0.43098 3.0753,-0.35914 1.2936,0.05358 2.0035,0.15098 2.576,0.35342 2.1737,0.76861 4.1243,2.2556 5.0767,3.8702 1.7003,2.8822 0.41798,5.6551 -2.9482,6.3753 -0.20776,0.04445 -0.37774,0.16618 -0.37774,0.27049 0,0.10432 0.50459,0.81397 1.1213,1.577 1.2734,1.5755 1.3073,1.589 2.7634,1.1012 3.2611,-1.0926 5.2017,-3.8444 4.778,-6.7753 -0.31454,-2.1755 -1.3819,-4.0773 -3.3229,-5.9207 -2.1368,-2.0293 -4.5751,-3.2763 -8.19,-4.1884 -0.57023,-0.14388 -0.58385,-0.16072 -0.58713,-0.72578 -0.02094,-3.6057 -3.5817,-7.1142 -8.7727,-8.6438 -1.3909,-0.40986 -4.7981,-0.4453 -6.196,-0.06446 -2.0394,0.55559 -3.4996,1.6279 -4.2231,3.1011 -0.34012,0.69258 -0.37605,0.90287 -0.35517,2.079 0.0457,2.5764 -0.15481,2.2875 9.8355,14.167 3.0919,3.6766 5.6179,6.7363 5.6134,6.7993 -0.0045,0.063 -0.70604,0.37399 -1.559,0.69108 -0.90331,0.33581 -1.5341,0.64415 -1.5107,0.73849 0.0277,0.11179 2.1138,2.7068 2.3044,2.8666 0.0052,0.004 1.4577,-0.52269 3.2279,-1.1712 z m -24.347,-14.043 c 0.024,-0.16314 -0.20451,-1.0237 -0.50785,-1.9123 -0.83969,-2.4598 -1.0458,-3.6368 -1.0287,-5.8738 0.0176,-2.3028 0.28652,-3.4934 1.2098,-5.357 1.053,-2.1254 2.5626,-3.6951 4.8358,-5.0283 2.7906,-1.6366 5.5511,-2.3204 9.3675,-2.3204 3.2217,0 5.7024,0.50812 9.3318,1.9114 0.9523,0.3682 1.8155,0.6372 1.9183,0.59776 0.10276,-0.03943 0.16812,-0.19935 0.14524,-0.35538 -0.09053,-0.61732 -4.2682,-2.1951 -7.1954,-2.7174 -2.4315,-0.43391 -6.8637,-0.44604 -8.7362,-0.02392 -4.7036,1.0603 -8.2,3.3257 -10.191,6.6024 -2.1915,3.6076 -2.3646,8.2901 -0.48787,13.2 0.44587,1.1666 0.83393,1.7246 1.1314,1.6267 0.0897,-0.02952 0.18277,-0.18716 0.20679,-0.3503 z m 36.562,-9.9064 c 0,-0.44558 -3.0053,-2.9816 -6.079,-5.1299 -2.9677,-2.0741 -3.8108,-2.4927 -3.8108,-1.8921 0,0.28064 0.68639,0.84876 2.7472,2.2738 1.1319,0.78271 3.3814,2.4978 5.4943,4.1892 1.0629,0.85081 1.6483,1.0494 1.6483,0.55904 z"
           fill="#ffff00"
           stop-color="#000000"
           stroke-opacity="0"
           style="paint-order:markers stroke fill" />
        <g
           fill="#e6c600"
           id="g3">
          <path
             id="path3632"
             d="m -113.61,97.33 c -0.35429,-0.68389 -0.64417,-1.3905 -0.64417,-1.5702 0,-0.24866 0.25034,-0.50957 1.0474,-1.0917 0.57607,-0.4207 1.13,-0.76491 1.2309,-0.76491 0.1009,0 0.49496,0.52729 0.87562,1.1718 0.6872,1.1634 0.79749,1.4381 0.57759,1.4381 -0.063,0 -0.61352,0.46358 -1.2234,1.0302 -0.60989,0.5666 -1.1338,1.0302 -1.1643,1.0302 -0.0305,0 -0.34531,-0.55954 -0.69961,-1.2434 z"
             stop-color="#000000"
             style="paint-order:markers stroke fill" />
          <path
             id="path3634"
             d="m -115.76,92.771 c -0.14148,-0.32108 -0.33042,-0.87595 -0.41985,-1.233 -0.14475,-0.57794 -0.13301,-0.69602 0.10686,-1.0749 0.24794,-0.39159 1.6438,-1.6411 1.8333,-1.6411 0.0764,0 1.1754,2.4832 1.2568,2.8397 0.0374,0.16371 -2.1072,1.6932 -2.3742,1.6932 -0.0801,0 -0.2614,-0.2627 -0.40289,-0.58377 z"
             stop-color="#000000"
             style="paint-order:markers stroke fill" />
          <path
             id="path3636"
             d="m -117.27,87.207 c 4.3e-4,-0.58549 0.063,-1.2885 0.13898,-1.5621 0.15189,-0.5468 1.1483,-1.7688 1.4423,-1.7688 0.43329,0 0.53855,1.8574 0.14717,2.5971 -0.2722,0.51441 -1.4222,1.7984 -1.6106,1.7984 -0.0652,0 -0.11821,-0.47904 -0.11779,-1.0645 z"
             stop-color="#000000"
             style="paint-order:markers stroke fill" />
          <path
             id="path3640"
             d="m -110.89,101.7 c -0.36439,-0.47217 -0.71311,-0.9262 -0.77493,-1.009 -0.0967,-0.12948 0.72411,-0.89248 2.2736,-2.1133 0.23719,-0.18689 0.29696,-0.15898 0.73531,0.3434 0.26243,0.30075 0.74942,0.8983 1.0822,1.3279 l 0.60507,0.78106 -1.5203,0.76422 c -0.83616,0.42032 -1.5694,0.76422 -1.6293,0.76422 -0.06,0 -0.40718,-0.38632 -0.77157,-0.85849 z"
             stop-color="#000000"
             style="paint-order:markers stroke fill" />
          <path
             id="path3642"
             d="m -107.25,105.79 c -1.4875,-1.4937 -1.5182,-1.2486 0.29108,-2.3291 0.57685,-0.3445 1.1694,-0.62637 1.3167,-0.62637 0.32886,0 1.3795,0.80181 1.8053,1.3778 l 0.31388,0.42454 -0.58584,0.75935 c -0.50003,0.64813 -1.6041,1.6964 -1.7867,1.6964 -0.0315,0 -0.64099,-0.58619 -1.3545,-1.3026 z"
             stop-color="#000000"
             style="paint-order:markers stroke fill" />
          <path
             id="path3644"
             d="m -101.95,109.9 c -0.43329,-0.26091 -1.0952,-0.7 -1.4708,-0.97575 l -0.68301,-0.50137 0.99574,-0.90892 c 1.762,-1.6084 1.4528,-1.5422 2.8713,-0.61402 0.67581,0.44218 1.2297,0.85821 1.2309,0.9245 0.0022,0.11714 -1.8533,2.3626 -2.0554,2.4876 -0.0555,0.0343 -0.45548,-0.15107 -0.88876,-0.41199 z"
             stop-color="#000000"
             style="paint-order:markers stroke fill" />
          <path
             id="path3646"
             d="m -97.203,112.52 c -0.78325,-0.40567 -1.5123,-0.82578 -1.6201,-0.93358 -0.16975,-0.16975 -0.0734,-0.32839 0.71958,-1.1849 0.50356,-0.54389 1.0258,-1.0479 1.1606,-1.12 0.18821,-0.10073 0.67,0.0785 2.0778,0.77283 l 1.8327,0.90397 -0.35736,0.29576 c -0.19654,0.16267 -0.80064,0.68209 -1.3424,1.1543 -0.54179,0.47217 -0.99894,0.85641 -1.0159,0.85388 -0.01695,-0.003 -0.67165,-0.33652 -1.4549,-0.7422 z"
             stop-color="#000000"
             style="paint-order:markers stroke fill" />
          <path
             id="path3648"
             d="m -90.971,114.97 c -0.37774,-0.11101 -1.0432,-0.33095 -1.4788,-0.48877 -0.92208,-0.33405 -0.96012,-0.23156 0.61191,-1.6487 l 1.0871,-0.98003 1.9042,0.58985 c 1.1677,0.36172 1.879,0.64872 1.8391,0.74207 -0.07378,0.17255 -1.2234,1.1075 -2.0252,1.647 -0.60108,0.40447 -0.94872,0.42932 -1.9382,0.13855 z"
             stop-color="#000000"
             style="paint-order:markers stroke fill" />
          <path
             id="path3650"
             d="m -86.496,116.04 c -0.31916,-0.0892 -0.30255,-0.11809 0.41208,-0.71657 0.40955,-0.34299 1.0272,-0.84968 1.3725,-1.126 l 0.62787,-0.50236 1.5469,0.2892 c 1.7646,0.32991 1.7573,0.22918 0.10181,1.4079 l -1.079,0.7682 -1.3248,-0.0137 c -0.72865,-0.008 -1.4745,-0.0555 -1.6574,-0.10666 z"
             stop-color="#000000"
             style="paint-order:markers stroke fill" />
        </g>
        <path
           id="path3654"
           d="m -59.795,90.458 c -0.2035,-0.61106 -0.31675,-1.1603 -0.25166,-1.2205 0.06509,-0.06022 0.82518,-0.30466 1.6891,-0.5432 3.9219,-1.0829 7.6747,-2.9899 10.478,-5.3242 1.3574,-1.1304 2.1681,-2.0524 2.1681,-2.4657 0,-0.56204 -0.3588,-0.36589 -1.6083,0.87926 -2.7228,2.7133 -7.3763,5.201 -11.902,6.3624 -0.59345,0.15232 -1.1358,0.258 -1.2052,0.23486 -0.06943,-0.02315 -0.46136,-0.73695 -0.87095,-1.5862 l -0.74472,-1.5442 h 0.85572 c 0.85496,0 3.7042,-0.6878 6.0256,-1.4546 1.2,-0.39635 1.7038,-0.85197 2.1056,-1.9042 0.23328,-0.61083 0.23359,-0.69257 0.0068,-1.7658 -0.30081,-1.4233 -0.93038,-3.6125 -1.3902,-4.8341 -0.24683,-0.65577 -0.39677,-1.4266 -0.49244,-2.5317 -0.22529,-2.6023 -0.47328,-3.921 -0.91486,-4.8646 -0.4756,-1.0163 -0.89849,-1.3797 -2.401,-2.063 -1.1545,-0.52505 -1.3651,-0.7761 -0.99438,-1.1857 0.21449,-0.237 0.22178,-0.35373 0.07044,-1.1281 -0.09284,-0.47506 -0.30117,-1.2655 -0.46296,-1.7566 l -0.29416,-0.89283 -0.51308,0.03 c -0.56325,0.03293 -2.9666,0.60053 -4.3475,1.0267 l -0.87717,0.27074 0.08637,0.91588 c 0.14545,1.5424 0.52213,2.8183 0.87815,2.9745 0.16998,0.07457 0.30906,0.23664 0.30906,0.36013 0,0.12349 -0.39466,0.75391 -0.87702,1.4009 -1.0796,1.448 -1.2663,2.0765 -1.0592,3.5654 0.07891,0.56735 0.36711,1.6412 0.64044,2.3863 0.89144,2.4301 0.99218,2.8472 1.287,5.3289 0.16014,1.3481 0.2696,2.4727 0.24324,2.4991 -0.02636,0.02636 -0.19349,-0.15219 -0.37139,-0.39679 -2.7293,-3.7526 -6.0121,-7.1099 -9.4994,-9.715 l -1.6008,-1.1959 0.51571,-1.1541 c 0.28364,-0.63474 0.80312,-1.7246 1.1544,-2.4219 0.72589,-1.4409 0.8037,-1.8653 0.32964,-1.798 -0.24902,0.03537 -0.5453,0.51087 -1.5251,2.4477 -0.66883,1.3221 -1.2777,2.3863 -1.353,2.3648 -0.07534,-0.02142 -0.47628,-0.25599 -0.891,-0.52127 -0.86805,-0.55528 -0.87088,-0.4678 0.06571,-2.0262 3.6017,-5.9927 9.633,-10.208 16.75,-11.705 1.4156,-0.2979 5.2246,-0.47772 7.1163,-0.33597 1.8879,0.14147 2.9913,0.42034 4.3573,1.1013 3.9487,1.9684 7.2778,5.671 8.6418,9.6116 l 0.45172,1.3049 0.0025,2.8159 c 0.0022,2.2756 -0.0468,3.0267 -0.25464,3.9147 -1.0358,4.4257 -3.5338,8.8619 -6.5761,11.679 -2.397,2.2193 -6.562,4.3716 -10.882,5.6235 -0.66128,0.19163 -1.314,0.34842 -1.4504,0.34842 -0.18825,0 -0.3373,-0.26793 -0.61808,-1.111 z m 16.532,-14.025 c 0.4863,-0.98008 0.96474,-2.8852 1.1365,-4.5255 0.27114,-2.5896 -0.15975,-5.0092 -1.3052,-7.3294 -1.7348,-3.5138 -5.021,-6.2902 -9.0489,-7.6452 -1.1177,-0.37599 -1.4608,-0.42808 -2.9151,-0.44253 -1.5622,-0.01552 -1.6483,-0.002 -1.6483,0.25834 0,0.24797 0.1243,0.28428 1.2769,0.3729 0.70227,0.054 1.6913,0.20205 2.1977,0.32898 4.8718,1.221 9.2143,5.3886 10.347,9.9302 0.2529,1.0141 0.28009,1.4397 0.22368,3.5026 -0.05636,2.061 -0.11051,2.4995 -0.44266,3.5845 -0.58985,1.9268 -0.73698,2.518 -0.64866,2.6063 0.20496,0.20496 0.5337,-0.04992 0.82712,-0.64127 z M -69.84,62.184 c 2.7125,-2.1877 4.1058,-2.8803 7.8996,-3.9269 1.6868,-0.46532 2.1463,-0.67325 2.0024,-0.90609 -0.13152,-0.21281 -0.99766,-0.13239 -2.3984,0.22268 -3.3048,0.83771 -5.3603,1.8609 -7.928,3.9464 -1.0119,0.82185 -1.3499,1.2389 -1.2003,1.481 0.16586,0.26836 0.46603,0.11739 1.6248,-0.81717 z"
           fill="#ffff00"
           stop-color="#000000"
           stroke-opacity="0"
           style="paint-order:markers stroke fill" />
        <g
           fill="#e6c600"
           stroke-opacity="0"
           id="g4">
          <path
             id="path3656"
             d="m -37.47,68.882 c -0.41537,-0.29995 -0.79532,-0.61845 -0.84434,-0.70778 -0.04902,-0.08933 -0.27602,-0.90415 -0.50445,-1.8107 -0.22842,-0.90657 -0.45617,-1.7719 -0.50612,-1.923 l -0.0908,-0.27472 0.22838,0.27472 c 0.7387,0.88855 2.6322,4.5584 2.5147,4.8737 -0.0232,0.06222 -0.38201,-0.13228 -0.79738,-0.43222 z"
             stop-color="#000000"
             style="paint-order:markers stroke fill" />
          <path
             id="path3658"
             d="m -37.381,73.595 -1.0723,-1.0786 0.11402,-0.93627 c 0.06271,-0.51495 0.18559,-0.95999 0.27307,-0.98897 0.08747,-0.02899 0.53561,0.38481 0.99585,0.91956 l 0.83681,0.97227 v 1.0953 c 0,0.60244 -0.0169,1.0953 -0.03756,1.0953 -0.02065,0 -0.5201,-0.48539 -1.1099,-1.0786 z"
             stop-color="#000000"
             style="paint-order:markers stroke fill" />
          <path
             id="path3660"
             d="m -38.397,78.257 c -0.68902,-0.65169 -0.99598,-1.042 -0.99629,-1.2667 -4.81e-4,-0.40303 0.55813,-2.3165 0.67634,-2.3165 0.04755,0 0.54177,0.45838 1.0983,1.0186 0.97914,0.98572 1.0091,1.0356 0.92708,1.5453 -0.1231,0.76508 -0.49813,1.9696 -0.61185,1.9651 -0.05373,-0.0022 -0.54583,-0.4277 -1.0935,-0.94574 z"
             stop-color="#000000"
             style="paint-order:markers stroke fill" />
          <path
             id="path3662"
             d="m -40.286,82.469 c -0.54306,-0.40727 -0.97753,-0.84066 -0.99832,-0.99582 -0.04434,-0.33099 0.96705,-2.3351 1.1784,-2.3351 0.08201,0 0.59087,0.39551 1.1308,0.87892 0.88764,0.79472 0.97397,0.91747 0.90121,1.2813 -0.09896,0.49481 -0.9194,1.8919 -1.111,1.8918 -0.07678,-1.6e-5 -0.57228,-0.32452 -1.1011,-0.72113 z"
             stop-color="#000000"
             style="paint-order:markers stroke fill" />
          <path
             id="path3664"
             d="m -42.566,85.84 c -0.55889,-0.50195 -1.0347,-1.0159 -1.0573,-1.1422 -0.02262,-0.12624 0.21332,-0.55144 0.52433,-0.9449 l 0.56548,-0.71538 0.38229,0.24802 c 1.7498,1.1352 2.0694,1.3617 2.0705,1.4668 0.0014,0.13777 -1.1809,1.8221 -1.3541,1.9292 -0.06324,0.03908 -0.57225,-0.33962 -1.1311,-0.84157 z"
             stop-color="#000000"
             style="paint-order:markers stroke fill" />
          <path
             id="path3666"
             d="m -45.638,88.66 -0.89668,-1.134 0.57711,-0.58803 c 0.92496,-0.94247 1.0036,-0.9317 2.6112,0.35742 l 0.78586,0.63018 -0.494,0.5059 c -0.2717,0.27825 -0.76238,0.69864 -1.0904,0.9342 l -0.59639,0.42829 z"
             stop-color="#000000"
             style="paint-order:markers stroke fill" />
          <path
             id="path3668"
             d="m -49.062,90.833 -1.0838,-0.99979 1.0051,-0.64306 c 0.55281,-0.35368 1.0788,-0.64306 1.169,-0.64306 0.18958,0 1.5732,1.9957 1.5732,2.2692 0,0.14766 -1.3368,1.042 -1.5277,1.022 -0.02858,-0.003 -0.53968,-0.45536 -1.1358,-1.0052 z"
             stop-color="#000000"
             style="paint-order:markers stroke fill" />
          <path
             id="path3670"
             d="m -53.157,92.514 -0.85911,-0.84064 0.88995,-0.45761 c 0.48947,-0.25168 0.98266,-0.45999 1.096,-0.4629 0.11332,-0.0029 0.71694,0.40859 1.3414,0.91444 l 1.1353,0.91973 -0.92929,0.37662 c -1.4291,0.57916 -1.663,0.53982 -2.6742,-0.44964 z"
             stop-color="#000000"
             style="paint-order:markers stroke fill" />
          <path
             id="path3672"
             d="m -56.769,94.332 c -0.22664,-0.1418 -0.65161,-0.50752 -0.94437,-0.8127 l -0.53229,-0.55488 0.94437,-0.27779 c 1.7219,-0.50651 1.54,-0.54162 2.4416,0.47127 0.90187,1.0132 0.89554,1.0483 -0.23341,1.2911 -0.92122,0.19816 -1.2036,0.17844 -1.6759,-0.11705 z"
             stop-color="#000000"
             style="paint-order:markers stroke fill" />
        </g>
        <path
           id="path4348"
           d="m -87.647,103.33 c -0.68955,-0.74278 -1.8372,-2.18 -1.8372,-2.3008 0,-0.0995 1.0034,-0.51958 2.6462,-1.1077 0.28441,-0.10183 0.50075,-0.22974 0.48076,-0.28425 -0.02,-0.05451 -2.5706,-3.1117 -5.6681,-6.7937 -6.1212,-7.2764 -8.2748,-9.9169 -8.9587,-10.984 -0.68117,-1.0629 -0.87946,-1.7673 -0.90633,-3.2198 -0.023,-1.2468 -0.003,-1.3436 0.44628,-2.1731 0.79031,-1.4587 2.1271,-2.4143 4.0735,-2.9121 1.6081,-0.41129 4.3901,-0.38312 6.1457,0.06223 3.8155,0.96787 7.2908,3.6463 8.371,6.4516 0.14836,0.38528 0.30887,1.1604 0.3567,1.7225 l 0.08697,1.022 0.75547,0.18564 c 2.2626,0.55598 4.5036,1.514 6.1927,2.6473 1.1505,0.77192 3.2304,2.887 3.8145,3.879 1.9483,3.309 1.804,6.1746 -0.42317,8.4017 -0.9353,0.93527 -2.3628,1.7264 -3.6518,2.024 l -0.71823,0.16579 -0.48792,-0.47065 c -0.72379,-0.69818 -2.0168,-2.4273 -1.9256,-2.5749 0.04364,-0.0706 0.36684,-0.20076 0.71824,-0.28924 1.3699,-0.34493 2.4521,-1.1375 2.9458,-2.1574 0.23333,-0.482 0.30212,-0.87193 0.30212,-1.7125 0,-0.95104 -0.05697,-1.2053 -0.45132,-2.014 -0.60451,-1.2397 -2.1733,-2.798 -3.5334,-3.5097 -1.7494,-0.91546 -2.3809,-1.0802 -4.4303,-1.1561 -1.7186,-0.0636 -1.9298,-0.0433 -2.8845,0.27731 -0.56661,0.19026 -1.1327,0.36734 -1.2581,0.3935 -0.15097,0.0315 -0.58136,-0.38715 -1.2749,-1.2401 -1.5204,-1.8699 -1.5104,-1.6786 -0.12421,-2.3748 1.4697,-0.73822 1.7649,-1.0984 1.7629,-2.151 -0.0019,-0.99345 -0.3303,-1.6758 -1.2349,-2.5654 -2.2439,-2.2066 -6.4656,-2.6671 -8.3567,-0.91149 -0.79955,0.74226 -0.9721,1.5965 -0.56426,2.7934 0.24352,0.71468 0.91906,1.558 9.0004,11.236 7.5257,9.0125 8.1153,9.7525 7.7695,9.7525 -0.02715,0 -1.492,0.5254 -3.2553,1.1676 -1.7633,0.64215 -3.2742,1.1676 -3.3577,1.1676 -0.08345,0 -0.33822,-0.20089 -0.56616,-0.44642 z"
           fill="#ff7f2a"
           stop-color="#000000"
           style="paint-order:markers stroke fill" />
        <g
           fill="#e6c600"
           id="g5">
          <path
             id="path1"
             d="m -117.09,81.468 c 0.0994,-0.72508 0.96594,-3.3742 1.3138,-4.0164 0.11522,-0.21271 0.12038,-0.18498 0.11693,0.62799 -0.002,0.46779 -0.0279,1.2989 -0.0575,1.847 l -0.0539,0.99648 -0.26802,0.2296 c -0.47544,0.40726 -0.86828,0.67697 -0.98603,0.67697 -0.0923,0 -0.10515,-0.07102 -0.0653,-0.36166 z" />
          <path
             id="path2"
             d="m -117.04,81.528 c 0,-0.41305 0.7966,-2.9452 1.1941,-3.7958 0.12059,-0.25801 0.12506,-0.19232 0.0959,1.409 -0.0234,1.2864 -0.0558,1.7104 -0.13838,1.8111 -0.1389,0.16934 -0.99267,0.8005 -1.0828,0.8005 -0.0379,0 -0.0688,-0.10121 -0.0688,-0.2249 z" />
          <path
             id="path3"
             d="m -79.223,115.64 c 0.32364,-0.32958 0.63605,-0.70362 0.69424,-0.8312 0.15599,-0.34198 0.60642,-0.45816 2.6966,-0.69551 0.9989,-0.11343 2.3019,-0.2889 2.8955,-0.38993 0.59365,-0.10103 1.0899,-0.17313 1.1028,-0.16023 0.04072,0.0407 -2.0537,0.96725 -3.3479,1.481 -1.1424,0.45353 -2.7189,0.90853 -3.8551,1.1127 -0.82774,0.14873 -0.83098,0.13974 -0.18627,-0.5168 z" />
        </g>
      </g>
    </g>
  </g>
</svg>
