<?xml version="1.0" encoding="UTF-8"?>
<svg width="282.07mm" height="113.72mm" version="1.1" viewBox="0 0 282.07 113.72" xmlns="http://www.w3.org/2000/svg" xmlns:cc="http://creativecommons.org/ns#" xmlns:dc="http://purl.org/dc/elements/1.1/" xmlns:rdf="http://www.w3.org/1999/02/22-rdf-syntax-ns#" xmlns:xlink="http://www.w3.org/1999/xlink">
 <metadata>
  <rdf:RDF>
   <cc:Work rdf:about="">
    <dc:format>image/svg+xml</dc:format>
    <dc:type rdf:resource="http://purl.org/dc/dcmitype/StillImage"/>
   </cc:Work>
  </rdf:RDF>
 </metadata>
 <g transform="translate(134.83 -29.04)">
  <g>
   <path d="m-119.96 29.932h104.7c7.7478 0 13.985 6.2374 13.985 13.985v69.548c0 7.7478-6.2374 13.985-13.985 13.985h-104.7c-7.7478 0-13.985-6.2374-13.985-13.985v-69.548c0-7.7478 6.2374-13.985 13.985-13.985z" fill="#fff" stroke="#b3b3b3" stroke-width="1.765"/>
   <path d="m27.668 29.922h104.7c7.7478 0 13.985 6.2374 13.985 13.985v69.548c0 7.7478-6.2374 13.985-13.985 13.985h-104.7c-7.7478 0-13.985-6.2374-13.985-13.985v-69.548c0-7.7478 6.2374-13.985 13.985-13.985z" fill="#fff" stroke="#b3b3b3" stroke-width="1.765"/>
   <g>
    <g transform="matrix(1.7673 0 0 1.7673 -158.86 -245.37)" fill="#ff7f2a" aria-label="AES">
     <path d="m123.51 182.17h-11.602l-3.9844 10.078h-2.207l11.484-28.672h1.2695l11.25 28.672h-2.2461zm-10.879-1.7969h10.215l-3.8867-10.293q-0.48828-1.2109-1.1719-3.3594-0.52735 1.875-1.1524 3.3984z"/>
     <path d="m145.1 192.25h-15.605v-28.555h15.605v1.8359h-13.613v10.801h12.852v1.8359h-12.852v12.246h13.613z"/>
     <path d="m163.12 184.88q0 3.5742-2.6367 5.6641-2.6172 2.0898-6.9727 2.0898-5.2344 0-8.0273-1.1523v-1.9922q3.0859 1.3086 7.8711 1.3086 3.5156 0 5.5664-1.6016 2.0703-1.6211 2.0703-4.2383 0-1.6211-0.68359-2.6758-0.6836-1.0742-2.2266-1.9531-1.543-0.87891-4.5312-1.8945-4.375-1.5039-6.0547-3.2422-1.6602-1.7578-1.6602-4.668 0-3.2031 2.5-5.2148 2.5195-2.0312 6.4648-2.0312 4.0234 0 7.5586 1.5234l-0.72266 1.7188q-3.5547-1.4844-6.7969-1.4844-3.1641 0-5.0391 1.4648-1.875 1.4648-1.875 3.9844 0 1.582 0.56641 2.5976 0.58594 1.0156 1.8945 1.8359 1.3086 0.80078 4.4922 1.9336 3.3398 1.1524 5.0195 2.2461 1.6797 1.0742 2.4414 2.4609 0.78125 1.3672 0.78125 3.3203z"/>
    </g>
    <g transform="matrix(.50952 0 0 .50952 -28.386 -115.08)" fill="#5df" aria-label="PLASTIC">
     <path d="m116.44 424.85v10.957h4.9609q2.7539 0 4.2578-1.4258t1.5039-4.0625q0-2.6172-1.5039-4.043t-4.2578-1.4258zm-3.9453-3.2422h8.9062q4.9023 0 7.4023 2.2266 2.5195 2.207 2.5195 6.4844 0 4.3164-2.5195 6.5234-2.5 2.207-7.4023 2.207h-4.9609v11.719h-3.9453z"/>
     <path d="m142.57 421.61h3.9453v25.84h14.199v3.3203h-18.145z"/>
     <path d="m181.45 425.49-5.3516 14.512h10.723zm-2.2266-3.8867h4.4726l11.113 29.16h-4.1016l-2.6562-7.4805h-13.145l-2.6562 7.4805h-4.1602z"/>
     <path d="m222.46 422.56v3.8477q-2.2461-1.0742-4.2383-1.6016-1.9922-0.52735-3.8476-0.52735-3.2227 0-4.9805 1.25-1.7383 1.25-1.7383 3.5547 0 1.9336 1.1523 2.9297 1.1719 0.97656 4.4141 1.582l2.3828 0.48828q4.4141 0.83984 6.5039 2.9688 2.1094 2.1094 2.1094 5.6641 0 4.2383-2.8516 6.4258-2.832 2.1875-8.3203 2.1875-2.0703 0-4.4141-0.46875-2.3242-0.46875-4.8242-1.3867v-4.0625q2.4023 1.3476 4.707 2.0312 2.3047 0.68359 4.5312 0.68359 3.3789 0 5.2148-1.3281 1.8359-1.3281 1.8359-3.7891 0-2.1484-1.3281-3.3594-1.3086-1.2109-4.3164-1.8164l-2.4023-0.46875q-4.4141-0.87891-6.3867-2.7539t-1.9727-5.2148q0-3.8672 2.7148-6.0938 2.7344-2.2266 7.5195-2.2266 2.0508 0 4.1797 0.37109 2.1289 0.3711 4.3555 1.1133z"/>
     <path d="m232.25 421.61h24.668v3.3203h-10.352v25.84h-3.9648v-25.84h-10.352z"/>
     <path d="m266.68 421.61h3.9453v29.16h-3.9453z"/>
     <path d="m306.24 423.85v4.1602q-1.9922-1.8555-4.2578-2.7734-2.2461-0.91796-4.7852-0.91796-5 0-7.6562 3.0664-2.6562 3.0469-2.6562 8.8281 0 5.7617 2.6562 8.8281 2.6562 3.0469 7.6562 3.0469 2.5391 0 4.7852-0.91797 2.2656-0.91797 4.2578-2.7734v4.1211q-2.0703 1.4062-4.3945 2.1094-2.3047 0.70312-4.8828 0.70312-6.6211 0-10.43-4.043-3.8086-4.0625-3.8086-11.074 0-7.0312 3.8086-11.074 3.8086-4.0625 10.43-4.0625 2.6172 0 4.9219 0.70312 2.3242 0.6836 4.3555 2.0703z"/>
    </g>
    <g transform="matrix(.20934 0 0 .20934 -2.101 22.263)" fill="#666" aria-label="authenticated  ">
     <path d="m107.87 557.96-0.48828-3.3594h-0.15625q-1.6016 2.0508-3.3008 2.9102-1.6797 0.83985-3.9844 0.83985-3.125 0-4.8633-1.6016-1.7383-1.6016-1.7383-4.4336 0-3.1055 2.5781-4.8242 2.5977-1.7188 7.5-1.8164l4.043-0.11719v-1.4062q0-3.0273-1.2305-4.5703t-3.9648-1.543q-2.9492 0-6.1133 1.6406l-0.72266-1.6797q3.4961-1.6406 6.9141-1.6406 3.4961 0 5.2148 1.8164 1.7383 1.8164 1.7383 5.6641v14.121zm-7.8125-1.3672q3.3984 0 5.3516-1.9336 1.9727-1.9531 1.9727-5.4102v-2.0898l-3.7109 0.15625q-4.4727 0.21485-6.3867 1.4062-1.8945 1.1719-1.8945 3.6719 0 1.9922 1.2109 3.1055 1.2305 1.0938 3.457 1.0938z"/>
     <path d="m119.1 536.73v13.75q0 3.2031 1.3477 4.668 1.3477 1.4453 4.1797 1.4453 3.7891 0 5.5664-1.9141 1.7969-1.9141 1.7969-6.2305v-11.719h1.9141v21.23h-1.6406l-0.35157-2.9297h-0.11718q-2.0703 3.3203-7.3633 3.3203-7.2461 0-7.2461-7.7539v-13.867z"/>
     <path d="m147.88 556.63q1.8359 0 3.2031-0.3125v1.5625q-1.4062 0.46875-3.2422 0.46875-2.8125 0-4.1602-1.5039-1.3281-1.5039-1.3281-4.7266v-13.711h-3.1445v-1.1328l3.1445-0.87891 0.97656-4.8047h0.99609v5.1367h6.2305v1.6797h-6.2305v13.438q0 2.4414 0.85938 3.6133 0.85937 1.1719 2.6953 1.1719z"/>
     <path d="m171.78 557.96v-13.77q0-3.2031-1.3477-4.6484-1.3477-1.4648-4.1797-1.4648-3.8086 0-5.5859 1.9336-1.7578 1.9141-1.7578 6.2305v11.719h-1.9336v-30.391h1.9336v9.668l-0.0977 2.7148h0.13672q1.1914-1.9141 3.0078-2.7734 1.8164-0.85937 4.5117-0.85937 7.2266 0 7.2266 7.7539v13.887z"/>
     <path d="m190.41 558.35q-4.6289 0-7.2266-2.8516-2.5781-2.8516-2.5781-7.9883 0-5.0781 2.5-8.125 2.5-3.0664 6.7383-3.0664 3.75 0 5.918 2.6172 2.168 2.6172 2.168 7.1094v1.5625h-15.293q0.0391 4.375 2.0312 6.6797 2.0117 2.3047 5.7422 2.3047 1.8164 0 3.1836-0.25391 1.3867-0.25391 3.4961-1.0938v1.7578q-1.7969 0.78125-3.3203 1.0547-1.5234 0.29297-3.3594 0.29297zm-0.56641-20.312q-3.0664 0-4.9219 2.0312-1.8555 2.0117-2.168 5.8203h13.125q0-3.6914-1.6016-5.7617-1.6016-2.0898-4.4336-2.0898z"/>
     <path d="m219.86 557.96v-13.77q0-3.2031-1.3477-4.6484-1.3477-1.4648-4.1797-1.4648-3.8086 0-5.5859 1.9336-1.7578 1.9141-1.7578 6.2305v11.719h-1.9336v-21.23h1.6406l0.3711 2.9102h0.11718q2.0703-3.3203 7.3633-3.3203 7.2266 0 7.2266 7.7539v13.887z"/>
     <path d="m235.51 556.63q1.8359 0 3.2031-0.3125v1.5625q-1.4062 0.46875-3.2422 0.46875-2.8125 0-4.1602-1.5039-1.3281-1.5039-1.3281-4.7266v-13.711h-3.1445v-1.1328l3.1445-0.87891 0.97657-4.8047h0.99609v5.1367h6.2305v1.6797h-6.2305v13.438q0 2.4414 0.85937 3.6133 0.85938 1.1719 2.6953 1.1719z"/>
     <path d="m246.54 557.96h-1.9336v-21.23h1.9336zm-2.207-27.129q0-1.875 1.2305-1.875 0.60547 0 0.9375 0.48828 0.35156 0.48828 0.35156 1.3867 0 0.8789-0.35156 1.3867-0.33203 0.50781-0.9375 0.50781-1.2305 0-1.2305-1.8945z"/>
     <path d="m263.41 558.35q-4.5508 0-7.1289-2.8711-2.5781-2.8711-2.5781-8.0078 0-5.2734 2.6758-8.2031 2.6758-2.9492 7.3242-2.9492 2.7539 0 5.2734 0.95703l-0.52735 1.7188q-2.7539-0.91797-4.7852-0.91797-3.9062 0-5.918 2.4219-2.0117 2.4023-2.0117 6.9336 0 4.2969 2.0117 6.7383 2.0117 2.4219 5.625 2.4219 2.8906 0 5.3711-1.0352v1.7969q-2.0312 0.9961-5.332 0.9961z"/>
     <path d="m288.08 557.96-0.48828-3.3594h-0.15625q-1.6016 2.0508-3.3008 2.9102-1.6797 0.83985-3.9844 0.83985-3.125 0-4.8633-1.6016-1.7383-1.6016-1.7383-4.4336 0-3.1055 2.5781-4.8242 2.5976-1.7188 7.5-1.8164l4.043-0.11719v-1.4062q0-3.0273-1.2305-4.5703t-3.9648-1.543q-2.9492 0-6.1133 1.6406l-0.72265-1.6797q3.4961-1.6406 6.9141-1.6406 3.4961 0 5.2148 1.8164 1.7383 1.8164 1.7383 5.6641v14.121zm-7.8125-1.3672q3.3984 0 5.3516-1.9336 1.9726-1.9531 1.9726-5.4102v-2.0898l-3.7109 0.15625q-4.4726 0.21485-6.3867 1.4062-1.8945 1.1719-1.8945 3.6719 0 1.9922 1.2109 3.1055 1.2305 1.0938 3.457 1.0938z"/>
     <path d="m303.23 556.63q1.8359 0 3.2031-0.3125v1.5625q-1.4062 0.46875-3.2422 0.46875-2.8125 0-4.1602-1.5039-1.3281-1.5039-1.3281-4.7266v-13.711h-3.1445v-1.1328l3.1445-0.87891 0.97656-4.8047h0.99609v5.1367h6.2305v1.6797h-6.2305v13.438q0 2.4414 0.85938 3.6133 0.85937 1.1719 2.6953 1.1719z"/>
     <path d="m320.9 558.35q-4.6289 0-7.2266-2.8516-2.5781-2.8516-2.5781-7.9883 0-5.0781 2.5-8.125 2.5-3.0664 6.7383-3.0664 3.75 0 5.918 2.6172 2.168 2.6172 2.168 7.1094v1.5625h-15.293q0.0391 4.375 2.0312 6.6797 2.0117 2.3047 5.7422 2.3047 1.8164 0 3.1836-0.25391 1.3867-0.25391 3.4961-1.0938v1.7578q-1.7969 0.78125-3.3203 1.0547-1.5234 0.29297-3.3594 0.29297zm-0.5664-20.312q-3.0664 0-4.9219 2.0312-1.8555 2.0117-2.168 5.8203h13.125q0-3.6914-1.6016-5.7617-1.6016-2.0898-4.4336-2.0898z"/>
     <path d="m343.31 536.32q2.3047 0 3.9844 0.83984 1.6797 0.83985 3.0078 2.8711h0.11719q-0.11719-2.4609-0.11719-4.8242v-7.6367h1.9141v30.391h-1.2695l-0.48829-3.2422h-0.15625q-2.4219 3.6328-6.9531 3.6328-4.3945 0-6.7188-2.7344-2.3242-2.7344-2.3242-7.9688 0-5.5078 2.3047-8.418 2.3047-2.9102 6.6992-2.9102zm0 1.7578q-3.4766 0-5.2344 2.4414-1.7383 2.4414-1.7383 7.0898 0 9.0234 7.0117 9.0234 3.5938 0 5.2734-2.0898 1.6797-2.0898 1.6797-6.8945v-0.33203q0-4.9219-1.6602-7.0703-1.6406-2.168-5.332-2.168z"/>
    </g>
    <g transform="matrix(.20934 0 0 .20934 69.903 22.074)" fill="#666" aria-label="sequestration">
     <path d="m108.15 552.43q0 2.8516-2.168 4.3945-2.168 1.5234-6.1523 1.5234-4.2578 0-6.7578-1.3086v-2.0898q3.2031 1.6016 6.7578 1.6016 3.1445 0 4.7656-1.0352 1.6406-1.0547 1.6406-2.793 0-1.6016-1.3086-2.6953-1.2891-1.0938-4.2578-2.1484-3.1836-1.1524-4.4727-1.9727-1.2891-0.83984-1.9531-1.875-0.64453-1.0547-0.64453-2.5586 0-2.3828 1.9922-3.7695 2.0117-1.3867 5.6055-1.3867 3.4375 0 6.5234 1.2891l-0.72266 1.7578q-3.125-1.2891-5.8008-1.2891-2.5977 0-4.1211 0.85938-1.5234 0.85937-1.5234 2.3828 0 1.6602 1.1719 2.6562 1.1914 0.99609 4.6289 2.2266 2.8711 1.0352 4.1797 1.875 1.3086 0.82031 1.9531 1.875 0.66406 1.0547 0.66406 2.4805z"/>
     <path d="m122.23 558.35q-4.6289 0-7.2266-2.8516-2.5781-2.8516-2.5781-7.9883 0-5.0781 2.5-8.125 2.5-3.0664 6.7383-3.0664 3.75 0 5.918 2.6172 2.168 2.6172 2.168 7.1094v1.5625h-15.293q0.0391 4.375 2.0312 6.6797 2.0117 2.3047 5.7422 2.3047 1.8164 0 3.1836-0.25391 1.3867-0.25391 3.4961-1.0938v1.7578q-1.7969 0.78125-3.3203 1.0547-1.5234 0.29297-3.3594 0.29297zm-0.56641-20.312q-3.0664 0-4.9219 2.0312-1.8555 2.0117-2.168 5.8203h13.125q0-3.6914-1.6016-5.7617-1.6016-2.0898-4.4336-2.0898z"/>
     <path d="m143.17 558.35q-4.1797 0-6.4844-2.7734t-2.3047-8.0078q0-5.3711 2.3047-8.3008 2.3047-2.9492 6.6016-2.9492 4.6094 0 6.8945 3.3984h0.11719l0.35156-2.9883h1.6406v30.84h-1.9141v-8.0859q0-2.3828 0.11718-4.8438h-0.11718q-2.3047 3.7109-7.207 3.7109zm0.0391-1.7188q3.8672 0 5.5078-2.1289 1.6602-2.1289 1.6602-7.1484v-0.23437q0-4.7852-1.6602-6.9141-1.6602-2.1289-5.293-2.1289-3.4375 0-5.2344 2.4219-1.7774 2.4219-1.7774 7.1094 0 4.4727 1.7383 6.7578 1.7578 2.2656 5.0586 2.2656z"/>
     <path d="m161.12 536.73v13.75q0 3.2031 1.3477 4.668 1.3477 1.4453 4.1797 1.4453 3.7891 0 5.5664-1.9141 1.7969-1.9141 1.7969-6.2305v-11.719h1.9141v21.23h-1.6406l-0.35157-2.9297h-0.11718q-2.0703 3.3203-7.3633 3.3203-7.2461 0-7.2461-7.7539v-13.867z"/>
     <path d="m191.6 558.35q-4.6289 0-7.2266-2.8516-2.5781-2.8516-2.5781-7.9883 0-5.0781 2.5-8.125 2.5-3.0664 6.7383-3.0664 3.75 0 5.918 2.6172 2.168 2.6172 2.168 7.1094v1.5625h-15.293q0.0391 4.375 2.0312 6.6797 2.0117 2.3047 5.7422 2.3047 1.8164 0 3.1836-0.25391 1.3867-0.25391 3.4961-1.0938v1.7578q-1.7969 0.78125-3.3203 1.0547-1.5234 0.29297-3.3594 0.29297zm-0.56641-20.312q-3.0664 0-4.9219 2.0312-1.8555 2.0117-2.168 5.8203h13.125q0-3.6914-1.6016-5.7617-1.6016-2.0898-4.4336-2.0898z"/>
     <path d="m218.15 552.43q0 2.8516-2.168 4.3945-2.168 1.5234-6.1524 1.5234-4.2578 0-6.7578-1.3086v-2.0898q3.2031 1.6016 6.7578 1.6016 3.1445 0 4.7656-1.0352 1.6406-1.0547 1.6406-2.793 0-1.6016-1.3086-2.6953-1.2891-1.0938-4.2578-2.1484-3.1836-1.1524-4.4727-1.9727-1.2891-0.83984-1.9531-1.875-0.64453-1.0547-0.64453-2.5586 0-2.3828 1.9922-3.7695 2.0117-1.3867 5.6055-1.3867 3.4375 0 6.5234 1.2891l-0.72266 1.7578q-3.125-1.2891-5.8008-1.2891-2.5977 0-4.1211 0.85938-1.5234 0.85937-1.5234 2.3828 0 1.6602 1.1719 2.6562 1.1914 0.99609 4.6289 2.2266 2.8711 1.0352 4.1797 1.875 1.3086 0.82031 1.9531 1.875 0.66406 1.0547 0.66406 2.4805z"/>
     <path d="m229.26 556.63q1.8359 0 3.2031-0.3125v1.5625q-1.4062 0.46875-3.2422 0.46875-2.8125 0-4.1602-1.5039-1.3281-1.5039-1.3281-4.7266v-13.711h-3.1445v-1.1328l3.1445-0.87891 0.97656-4.8047h0.9961v5.1367h6.2305v1.6797h-6.2305v13.438q0 2.4414 0.85937 3.6133 0.85938 1.1719 2.6953 1.1719z"/>
     <path d="m245.45 536.32q1.3477 0 2.8906 0.27344l-0.3711 1.8555q-1.3281-0.33203-2.7539-0.33203-2.7148 0-4.4531 2.3047t-1.7383 5.8203v11.719h-1.9336v-21.23h1.6406l0.19531 3.8281h0.13672q1.3086-2.3438 2.793-3.2812 1.4844-0.95703 3.5938-0.95703z"/>
     <path d="m265.53 557.96-0.48828-3.3594h-0.15625q-1.6016 2.0508-3.3008 2.9102-1.6797 0.83985-3.9844 0.83985-3.125 0-4.8633-1.6016-1.7383-1.6016-1.7383-4.4336 0-3.1055 2.5781-4.8242 2.5977-1.7188 7.5-1.8164l4.043-0.11719v-1.4062q0-3.0273-1.2305-4.5703t-3.9648-1.543q-2.9492 0-6.1133 1.6406l-0.72266-1.6797q3.4961-1.6406 6.9141-1.6406 3.4961 0 5.2148 1.8164 1.7383 1.8164 1.7383 5.6641v14.121zm-7.8125-1.3672q3.3984 0 5.3516-1.9336 1.9727-1.9531 1.9727-5.4102v-2.0898l-3.7109 0.15625q-4.4727 0.21485-6.3867 1.4062-1.8945 1.1719-1.8945 3.6719 0 1.9922 1.2109 3.1055 1.2305 1.0938 3.457 1.0938z"/>
     <path d="m279.42 556.63q1.8359 0 3.2031-0.3125v1.5625q-1.4062 0.46875-3.2422 0.46875-2.8125 0-4.1602-1.5039-1.3281-1.5039-1.3281-4.7266v-13.711h-3.1445v-1.1328l3.1445-0.87891 0.97656-4.8047h0.9961v5.1367h6.2305v1.6797h-6.2305v13.438q0 2.4414 0.85937 3.6133 0.85938 1.1719 2.6953 1.1719z"/>
     <path d="m289.18 557.96h-1.9336v-21.23h1.9336zm-2.207-27.129q0-1.875 1.2305-1.875 0.60547 0 0.9375 0.48828 0.35156 0.48828 0.35156 1.3867 0 0.8789-0.35156 1.3867-0.33203 0.50781-0.9375 0.50781-1.2305 0-1.2305-1.8945z"/>
     <path d="m313.87 547.32q0 5.1953-2.5195 8.125-2.5195 2.9102-6.9531 2.9102-2.793 0-4.9219-1.3477-2.1289-1.3476-3.2617-3.8672-1.1328-2.5195-1.1328-5.8203 0-5.1953 2.5195-8.0859 2.5195-2.9102 6.9141-2.9102 4.375 0 6.8555 2.9492 2.5 2.9297 2.5 8.0469zm-16.758 0q0 4.375 1.9141 6.8359 1.9336 2.4414 5.4492 2.4414 3.5156 0 5.4297-2.4414 1.9336-2.4609 1.9336-6.8359 0-4.3945-1.9531-6.8164-1.9336-2.4219-5.4492-2.4219-3.5156 0-5.4297 2.4219-1.8945 2.4023-1.8945 6.8164z"/>
     <path d="m334.55 557.96v-13.77q0-3.2031-1.3476-4.6484-1.3477-1.4648-4.1797-1.4648-3.8086 0-5.5859 1.9336-1.7578 1.9141-1.7578 6.2305v11.719h-1.9336v-21.23h1.6406l0.3711 2.9102h0.11718q2.0703-3.3203 7.3633-3.3203 7.2266 0 7.2266 7.7539v13.887z"/>
    </g>
   </g>
   <path d="m78.046 140.22c-0.28928-0.0779-0.54912-0.22832-0.78298-0.45326-0.23455-0.2256-0.39863-0.46142-0.4448-0.6393-0.01807-0.0696-0.06988-0.22966-0.11513-0.3557-0.10952-0.30502-0.16579-1.3643-0.13591-2.5589 0.0263-1.0518 0.06652-1.5107 0.22093-2.5207 0.13452-0.87994 0.18291-1.9123 0.11295-2.4094-0.05226-0.37132-0.20674-1.2062-0.28673-1.5497-0.19992-0.85846-0.26848-2.2142-0.15555-3.0759 0.10887-0.8308 0.18203-1.0877 0.39915-1.4018 0.26018-0.37637 0.6137-0.70797 1.165-1.0928 0.25207-0.17594 0.60011-0.46043 0.77341-0.63219l0.31509-0.31228v-1.0028h-0.62144l0.02458-0.92618c0.01353-0.5094 0.03511-1.1941 0.04798-1.5215l0.02339-0.59534 2.2175-0.0247c1.2196-0.0136 2.227-0.0153 2.2385-4e-3 0.02329 0.0233 0.11037 2.0241 0.11498 2.6418l0.0029 0.39147h-0.58394l0.02435 0.25781c0.0134 0.14179 0.02447 0.36605 0.02462 0.49835l2.88e-4 0.24055 0.26142 0.25782c0.14378 0.1418 0.52149 0.43451 0.83934 0.65048 0.62857 0.42708 1.0152 0.78281 1.2611 1.1602 0.12528 0.19228 0.17703 0.32789 0.25202 0.66036 0.14216 0.63027 0.21238 1.256 0.21238 1.8923 0 0.72164-0.03927 1.0768-0.25296 2.2881-0.26647 1.5104-0.26593 1.9358 0.0045 3.5328 0.14604 0.86259 0.19388 1.2366 0.24859 1.9438 0.04797 0.62003 0.04845 2.6716 7.21e-4 3.002-0.08512 0.58904-0.5405 1.203-1.0958 1.4775l-0.28734 0.14201-0.7888 0.027c-0.43384 0.0148-1.7427 0.0361-2.9085 0.0472-1.78 0.017-2.1527 0.0114-2.3258-0.0352z" fill="#ff7f2a" stroke="#fff" stroke-width="4.138" style="paint-order:markers stroke fill"/>
  </g>
  <g transform="matrix(.98955 0 0 .98955 7.9482 .82718)">
   <g transform="matrix(2.2412 0 0 2.2412 339.63 -113.35)">
    <path d="m-189.07 101.96c-2.6472-0.32447-5.0201-1.0851-7.6237-2.4439-1.948-1.0166-3.1595-1.897-4.6467-3.3767-1.1705-1.1645-1.8967-2.0925-2.7274-3.4846-1.712-2.8695-2.6326-5.7693-2.4375-7.6786 0.0401-0.39345 0.0908-0.97062 0.1123-1.2826 0.0722-1.0482 0.34637-1.7951 1.0607-2.891 0.51326-0.78743 0.96203-1.2916 1.823-2.0478 1.6151-1.4188 2.7486-2.1409 4.2802-2.7265 2.6563-1.0157 6.0784-1.061 9.2457-0.12229 0.81761 0.24231 2.0577 0.70621 2.5542 0.95555 0.22606 0.11362 0.41738 0.19644 0.42498 0.18424 6e-3 -0.0127 0.16623-0.29094 0.35242-0.6194 1.6298-2.8755 4.8743-5.2181 8.5216-6.1529 2.8528-0.73115 4.9654-0.54991 7.3069 0.62689 3.2639 1.6404 5.6162 4.4066 6.2824 7.3881 0.13204 0.59137 0.11524 2.1-0.0324 2.916-0.34364 1.8974-1.5399 4.3395-2.8165 5.7497-1.3027 1.4391-2.816 2.4419-4.933 3.269-1.1316 0.4421-2.6256 0.84324-3.6885 0.99041l-0.32663 0.0451 0.0357 0.26526c0.0548 0.40925-0.10787 1.7086-0.29515 2.3544-0.21781 0.75171-0.548 1.4695-1.0383 2.2573-1.8362 2.9503-5.0132 5.0801-8.4831 5.687-0.65022 0.11377-2.4578 0.19777-2.9511 0.13735zm0.36456-0.93276c0.18451-0.0701 1.3488-0.91849 1.3111-0.95533-0.0147-0.0118-0.38431-0.0896-0.82411-0.16977l-0.79963-0.1459-0.61306 0.48889c-0.78565 0.62652-0.83664 0.68665-0.62201 0.73357 0.52171 0.11407 1.3102 0.13882 1.5477 0.0486zm2.4896-0.0474c0.2912-0.0601 0.73982-0.17448 0.99695-0.25377 0.54132-0.16711 2.4211-0.97667 2.375-1.0228-0.0177-0.0177-0.27882 0.0177-0.58149 0.0793-0.30275 0.0607-1.0193 0.15622-1.5923 0.21251-1.0064 0.099-1.2417 0.16682-1.2417 0.35852 0 0.0495-0.16151 0.2355-0.35893 0.41296-0.40276 0.36217-0.37897 0.37476 0.40247 0.21339zm-4.9137-0.79632c0.60796-0.45838 0.83311-0.67884 0.74669-0.73101-0.0315-0.0206-0.47959-0.16447-0.9958-0.32301l-0.93851-0.28825-0.64244 0.57441c-0.35333 0.31593-0.65116 0.59502-0.66183 0.62019-0.0265 0.0604 1.511 0.54663 1.7541 0.55511 0.12792 6e-3 0.36595-0.12703 0.73779-0.4073zm-2.9451-1.1369c0.35654-0.31186 0.64828-0.59157 0.64828-0.6216 0-0.0516-1.781-0.91932-1.8864-0.91932-0.0265 0-0.29789 0.25023-0.60191 0.55599-0.38986 0.39218-0.53979 0.58986-0.50869 0.67086 0.0351 0.0914 1.5212 0.87794 1.6636 0.88044 0.0206 3.2e-4 0.32851-0.25465 0.68509-0.56637zm9.5016 0.11348c2.9439-0.44712 5.7455-2.4098 6.8188-4.7769 0.17389-0.38354 0.22282-0.61727 0.28884-1.3797 0.2744-3.1683-0.9373-6.6489-3.3616-9.6562-0.76803-0.95268-2.4119-2.5394-3.3952-3.2773-3.5671-2.6766-7.5656-4.0558-11.312-3.902-2.1273 0.0874-3.7319 0.58689-5.3752 1.6735-0.71595 0.47338-1.6865 1.4076-1.9973 1.9224-0.86792 1.4378-0.93662 4.8653-0.1459 7.2744 0.42994 1.3097 1.6951 3.6751 2.7988 5.2326 0.55231 0.77943 1.9962 2.2062 2.9679 2.9327 2.8112 2.1019 6.5084 3.6135 9.7267 3.9768 0.88401 0.0996 2.2567 0.0902 2.9862-0.0206zm-2.2133-1.2411c-1.3613-0.10021-3.4781-0.66502-3.4781-0.9281 0-0.24169 0.17714-0.26114 0.70929-0.0784 3.3466 1.1499 6.4008 0.73007 8.3692-1.1506 1.3423-1.2825 1.9484-2.7778 1.9516-4.815 2e-3 -1.5957-0.30202-2.8-1.131-4.4728-0.42498-0.85749-1.253-2.1346-1.8346-2.8297-0.20425-0.24395-0.2128-0.27404-0.10817-0.3785 0.15975-0.15975 0.28089-0.0898 0.65143 0.37631 2.0618 2.5933 3.1211 5.6041 2.847 8.0911-0.44485 4.0349-3.6306 6.5055-7.9764 6.1856zm-5.5625-1.672c-2.1097-1.0107-4.186-2.5345-5.9692-4.3807-1.176-1.2176-2.459-2.9503-2.3667-3.1964 0.0825-0.22017 0.29568-0.0622 0.65019 0.48222 0.59396 0.91192 1.3921 1.8539 2.4377 2.877 1.6976 1.6612 3.3129 2.8299 5.2102 3.7701 0.78783 0.39035 1.069 0.5626 1.0532 0.64522-0.038 0.20012-0.2862 0.15179-1.0154-0.19748zm1.2058-2.0604-0.59741-0.71318 0.54483-0.19659c0.29966-0.10817 0.67919-0.24699 0.84348-0.30841l0.29866-0.112-0.41992-0.50359c-0.23107-0.27706-1.845-2.1952-3.5867-4.2628-3.6772-4.3651-3.7304-4.4437-3.7804-5.5859-0.0265-0.58605-9e-3 -0.6955 0.14884-1.0424 0.52519-1.1472 1.7576-1.7525 3.5627-1.75 0.71229 8.6e-4 1.0072 0.035 1.5603 0.17985 2.4468 0.64087 4.3409 2.4313 4.3645 4.1256l6e-3 0.45916 0.74088 0.18347c2.7647 0.6846 4.9422 2.6733 5.2749 4.8176 0.2013 1.2968-0.46811 2.4948-1.7564 3.1436-0.5048 0.25436-1.273 0.4847-1.3426 0.40276-0.93329-1.0985-1.1923-1.4288-1.1606-1.4801 0.0206-0.0342 0.15798-0.0822 0.30364-0.1064 0.39447-0.0654 0.95017-0.34809 1.2252-0.6232 0.38537-0.38537 0.51291-0.71332 0.5142-1.3223 8.4e-4 -0.47303-0.0265-0.58865-0.2632-1.0653-0.49825-1.0081-1.7131-1.9101-2.9679-2.2034-0.27499-0.0643-0.80183-0.11613-1.1945-0.11789-0.60731-2e-3 -0.78539 0.0265-1.3122 0.21103l-0.60958 0.21398-0.60804-0.72612c-0.33444-0.39935-0.59764-0.75171-0.58494-0.78303 0.0118-0.0314 0.25672-0.15851 0.54232-0.28262 0.62591-0.27208 0.82872-0.45041 0.92686-0.81488 0.31838-1.1823-1.3608-2.5812-3.0945-2.578-0.49091 8.5e-4 -1.0257 0.11751-1.3801 0.30082-0.31269 0.16178-0.64595 0.56877-0.69947 0.85431-0.0616 0.32799 0.0704 0.84561 0.31442 1.233 0.10965 0.1739 2.007 2.463 4.2166 5.087 2.2096 2.6239 3.9921 4.7957 3.9611 4.826-0.0309 0.0304-0.68877 0.28206-1.4617 0.55906-0.77292 0.27705-1.5239 0.54656-1.6689 0.59882l-0.2635 0.0949-0.59741-0.71315zm-10.202-6.7144c-0.1117-0.071-0.53515-1.1745-0.71657-1.867-0.45422-1.7342-0.34422-3.4305 0.31234-4.8163 0.98015-2.0687 3.084-3.4794 5.8289-3.9083 0.60755-0.095 1.036-0.11247 2.0026-0.0821 1.7601 0.0555 3.0515 0.34651 4.7201 1.0641 0.57312 0.24646 0.7439 0.38739 0.6512 0.53735-0.066 0.10672-0.19099 0.0754-0.85804-0.21378-3.633-1.5757-7.6325-1.3173-10.198 0.65899-2.2683 1.7477-2.8857 4.6715-1.6578 7.851 0.13764 0.35623 0.23432 0.68913 0.21487 0.73977-0.0392 0.10228-0.17095 0.11819-0.29999 0.0363zm17.577-5.3396c-0.88507-0.76567-1.8337-1.4878-2.9768-2.2663-0.72181-0.49154-1.0598-0.76298-1.0598-0.8512 0-0.2428 0.27646-0.13531 1.1439 0.44461 1.0511 0.70274 2.0003 1.4162 2.9498 2.2174 0.76676 0.64691 0.83491 0.71732 0.80066 0.82717-0.0625 0.20004-0.33185 0.0833-0.85775-0.37161zm-12.792 15.057c0.15032-0.17596 0.26114-0.33005 0.24581-0.3427-0.0147-0.0118-0.31958-0.21781-0.67663-0.45619l-0.64913-0.43321-0.62992 0.56478c-0.34643 0.31062-0.6478 0.59375-0.66967 0.62915-0.0451 0.0728 0.66988 0.60106 1.1797 0.87142l0.33842 0.1795 0.29385-0.34656c0.16181-0.19069 0.417-0.49035 0.5674-0.66619zm-2.3638-1.4493c0.16416-0.196 0.29777-0.39277 0.29671-0.43725-6e-3 -0.22135-0.82922-0.95914-1.0714-0.95914-0.17743 0-1.4562 0.77531-1.4562 0.88298 0 0.0442 0.30096 0.37123 0.66885 0.72709l0.66882 0.64707 0.2973-0.25229c0.16358-0.13853 0.43168-0.41255 0.59594-0.60858zm-2.4992-1.6554c0.24316-0.14236 0.58343-0.31275 0.75642-0.37842 0.17301-0.0657 0.32391-0.14766 0.33547-0.18244 0.0236-0.0749-0.96386-1.3017-1.0795-1.3391-0.0707-0.0236-0.24817 0.11406-1.1676 0.90051l-0.2128 0.18215 0.40503 0.5381c0.22282 0.29601 0.43114 0.53817 0.46306 0.53817 0.0318 0 0.25672-0.11672 0.49991-0.25908zm-1.404-2.1531c0.24346-0.24463 0.53301-0.50756 0.64348-0.58437l0.20101-0.13971-0.36751-0.64639c-0.20219-0.35551-0.39483-0.66328-0.42823-0.68388-0.0634-0.0392-1.011 0.63301-1.1772 0.83508-0.059 0.0716-0.0781 0.18627-0.0498 0.29875 0.0454 0.18067 0.66189 1.3652 0.71061 1.3652 0.0147 0 0.22459-0.20013 0.4679-0.44474zm26.616-1.3384c0-0.0147-0.0475-0.0657-0.10552-0.11407-0.0864-0.0716-0.10522-0.0669-0.10522 0.0265 0 0.0628 0.0474 0.11406 0.10522 0.11406 0.0581 0 0.10552-0.0118 0.10552-0.0265zm1.8141-0.36265c0.20013-0.0595 0.36406-0.12556 0.36406-0.14707 0-0.0206-0.19511-0.25053-0.43391-0.50949l-0.43394-0.47058-0.65483 0.17832c-0.36014 0.0981-0.65496 0.19747-0.65514 0.22046-2.1e-4 0.0236 0.18686 0.22076 0.41599 0.43913 0.37662 0.35923 0.44585 0.39716 0.72503 0.39716 0.16977 0 0.4725-0.0486 0.67274-0.10816zm-29.689-0.72509c0.20131-0.14913 0.46864-0.32984 0.59423-0.40164 0.12556-0.0716 0.22812-0.14736 0.22783-0.168-1e-3 -0.11141-0.61671-1.5078-0.67192-1.5249-0.11612-0.036-0.9752 0.71374-1.0449 0.91206-0.0463 0.13205-0.0398 0.29622 0.0206 0.52396 0.12497 0.46698 0.33913 0.92969 0.43044 0.92969 0.0424 0 0.24198-0.12202 0.44311-0.27115zm31.833 9e-3 0.48084-0.18805-0.19865-0.14442c-0.10935-0.0793-0.38885-0.30561-0.62134-0.50259l-0.42274-0.3581-0.52275 0.22252c-0.28737 0.12232-0.53327 0.25407-0.54615 0.29268-0.0118 0.0386 0.18391 0.26939 0.43742 0.51287 0.52563 0.50468 0.52537 0.50468 1.3933 0.16506zm2.0399-1.0063c0.0339-0.0315-0.10787-0.29208-0.3162-0.5809-0.20779-0.28796-0.40921-0.57365-0.44785-0.63475-0.0604-0.0955-0.15238-0.0569-0.6578 0.27617-0.32315 0.2131-0.57609 0.39875-0.56212 0.41267 0.0147 0.0147 0.27823 0.24787 0.58717 0.52009l0.56178 0.49481 0.38681-0.21546c0.2128-0.11848 0.41443-0.24139 0.44821-0.27263zm-5.0573-0.0295c1.7793-0.59529 3.275-1.3556 4.3353-2.2039 1.761-1.4089 3.1996-3.8339 3.7305-6.2881 0.2187-1.0116 0.21782-2.7761-1e-3 -3.5968-0.48393-1.8072-1.8968-3.5997-3.7584-4.7684-1.273-0.79926-2.1605-0.99239-4.2981-0.93542-1.0644 0.0283-1.5069 0.072-2.1831 0.21518-3.1562 0.66841-5.9004 2.4453-7.727 5.0034-0.41924 0.58709-0.98614 1.56-0.93559 1.6056 0.0147 0.0127 0.2405 0.15362 0.50397 0.31398l0.47907 0.29155 0.11377-0.3008c0.1624-0.42911 0.98717-2.0385 1.1053-2.1568 0.0784-0.0785 0.12084-0.0815 0.2016-0.0142 0.0875 0.0727 0.0324 0.22035-0.37809 1.0128-0.26438 0.51025-0.54403 1.0898-0.62155 1.288l-0.14088 0.36026 0.39568 0.27213c1.724 1.1856 3.5322 2.9676 4.8887 4.818 0.2747 0.37469 0.50751 0.67322 0.51736 0.66338 9e-3 -9e-3 -0.0295-0.37966-0.084-0.82181-0.0563-0.44216-0.13204-1.0885-0.16889-1.4363-0.0519-0.4901-0.13646-0.79835-0.37664-1.3702-0.35563-0.84702-0.44553-1.1753-0.50999-1.862-0.0581-0.61925 0.0663-0.93575 0.62411-1.5893 0.26143-0.3062 0.3963-0.52658 0.3963-0.64733 0-0.11978-0.0312-0.17118-0.0899-0.14864-0.2075 0.0795-0.31693-0.15329-0.46348-0.98552-0.1176-0.66762-0.13027-0.8577-0.061-0.92101 0.15445-0.14115 2.6479-0.76428 2.7299-0.68223 0.0404 0.0404 0.16829 0.44836 0.28413 0.90638 0.21015 0.83139 0.21015 0.83295 0.0687 0.94747-0.23461 0.18993-0.11966 0.38982 0.31779 0.55353 0.87764 0.32838 1.1639 0.56456 1.4154 1.168 0.224 0.53749 0.29648 0.94303 0.36241 2.0284 0.0563 0.92547 0.0793 1.0384 0.37627 1.8295 0.30063 0.8012 0.68078 2.2794 0.68078 2.6472 0 0.25295-0.33529 0.88022-0.55363 1.0357-0.18245 0.12998-1.1056 0.41031-2.6786 0.8135-0.5083 0.13027-0.83066 0.17654-1.0364 0.14884-0.16417-0.0206-0.29863-0.0295-0.29863-0.0147 0 0.0147 0.0881 0.1957 0.19541 0.40269 0.10758 0.20691 0.28325 0.57377 0.39053 0.81548 0.22224 0.50053 0.0985 0.48119 1.2057 0.18864 2.213-0.58491 4.9708-2.1737 5.9022-3.4004 0.2352-0.3099 0.45672-0.37396 0.45672-0.1321 0 0.23729-1.1244 1.2938-1.9965 1.876-1.342 0.89585-2.8978 1.5994-4.3841 1.9827-0.44807 0.11554-0.82403 0.21929-0.8355 0.23078-0.0177 0.0177 0.0737 0.30258 0.36943 1.16 0.048 0.13941 0.4406 0.0616 1.5346-0.3042zm6.1305-6.9074c-0.0206-0.0336 0.0542-0.32786 0.16653-0.65386 0.35047-1.0171 0.44104-1.5578 0.44054-2.6304-6.4e-4 -1.1456-0.13027-1.7452-0.57692-2.6663-1.0472-2.1596-3.5829-3.8696-5.8374-3.9366-0.59859-0.0177-0.6675-0.0335-0.6675-0.15146 0-0.12102 0.0625-0.13125 0.77293-0.12677 0.63144 5e-3 0.88421 0.0394 1.381 0.19344 2.3232 0.72052 4.2357 2.4972 4.9479 4.5964 0.52369 1.5437 0.45351 3.3507-0.19365 4.9813-0.15061 0.37962-0.33744 0.54951-0.43347 0.39416zm-13.575-6.9783c-0.0651-0.10508 0.18156-0.35437 0.90797-0.91868 1.1156-0.86651 2.0682-1.3143 3.6326-1.7075 0.77525-0.19485 1.0197-0.23246 1.0965-0.16879 0.16388 0.13602 0.0147 0.20623-0.97399 0.45468-1.7144 0.43127-2.7506 0.95607-3.9923 2.0218-0.46186 0.3964-0.58609 0.4554-0.67074 0.31847zm13.464 13.232c0.2912-0.19718 0.90823-0.73709 0.90823-0.79462 0-0.0604-0.80732-0.70661-1.0347-0.8283-0.0828-0.0442-0.19541-0.0805-0.25052-0.0805-0.13234 0-0.75232 0.54834-0.75232 0.6652 0 0.0884 0.84286 1.1589 0.91345 1.1602 0.0206 3.2e-4 0.11642-0.0545 0.21604-0.12202zm-35.843-0.85734c0.44703-0.44706 0.6474-0.79762 0.65161-1.1401 6e-3 -0.47789-0.0866-0.9005-0.19688-0.9005-0.18451 0-0.71507 0.58596-0.79538 0.87831-0.0976 0.35478-0.10316 1.4404-6e-3 1.4404 0.0386 0 0.19541-0.12497 0.34838-0.27824zm37.389-0.6529c0.0731-0.087 0.25141-0.32675 0.39595-0.53292 0.22371-0.31911 0.2464-0.38397 0.15297-0.43625-0.0604-0.0338-0.35649-0.23847-0.65812-0.45486-0.30161-0.2164-0.57094-0.36791-0.59853-0.33667-0.2517 0.28498-0.63371 0.8262-0.6175 0.87489 0.0206 0.0581 1.1184 1.0387 1.1682 1.0422 0.0118 8.4e-4 0.0837-0.0696 0.1571-0.1565zm1.3158-2.0045c0.42118-0.7902 0.43294-0.71597-0.20219-1.2767-0.30877-0.27252-0.58541-0.49551-0.61479-0.49551-0.0295 0-0.19247 0.28345-0.36212 0.62984-0.30715 0.62658-0.30803 0.6306-0.17301 0.7799 0.20189 0.22302 0.94508 0.76848 1.0472 0.76848 0.0486 0 0.18598-0.18271 0.30502-0.40601zm-38.594-0.53185 0.27204-0.23524 0.0478-0.94171c0.0265-0.51794 0.036-0.95447 0.0206-0.97009-0.0757-0.082-0.62847 1.472-0.76605 2.1539-0.0613 0.30318 0.0684 0.30109 0.42457-7e-3zm39.444-1.6156c0.0931-0.33237 0.14383-0.65035 0.1173-0.73467-0.046-0.14472-0.98964-1.0683-1.0916-1.0683-0.0457 0-0.36179 1.0865-0.38083 1.3093-6e-3 0.0807 1.0596 1.0797 1.1528 1.0797 0.0206 0 0.112-0.26373 0.20249-0.58603zm0.22518-2.9491c-0.0766-0.12326-0.31198-0.39359-0.52275-0.60087-0.43436-0.42717-0.42569-0.43316-0.50167 0.34601l-0.0451 0.46097 0.58385 0.55785 0.58385 0.55786 0.0206-0.54892c0.0177-0.44949-6e-3 -0.58948-0.11878-0.7729zm-0.17065-1.674c-0.0931-0.24696-0.26763-0.64439-0.3882-0.88321-0.26321-0.52131-0.99156-1.6628-1.034-1.6204-0.0177 0.0165 0.046 0.25409 0.13912 0.52784 0.0931 0.27375 0.20573 0.68223 0.25023 0.90775 0.14531 0.73486 0.20131 0.84683 0.51506 1.0314 0.1621 0.0952 0.37113 0.25525 0.46468 0.35537 0.0937 0.10015 0.18186 0.17042 0.196 0.15615 0.0147-0.0142-0.0501-0.22795-0.14324-0.47492z" fill="#ff7f2a"/>
   </g>
   <g fill="#fff" stroke-opacity="0">
    <path transform="matrix(.26738 0 0 .26738 -135.66 28.51)" d="m209.06 300.72c-28.495-1.9943-66.107-17.656-89.449-37.247-15.502-13.011-25.624-26.511-36.997-49.342-2.0235-4.0623-4.3588-9.1062-5.1897-11.209-6.3204-15.992-7.957-40.263-3.761-55.774 1.8782-6.9435 4.0782-10.567 9.953-16.394 10.753-10.666 25.781-18.385 41.161-21.143 11.092-1.9888 29.064-1.7135 41.427 0.63457 45.978 8.7328 91.29 42.561 111.97 83.596 8.8871 17.631 13.237 38.815 11.493 55.97-0.75116 7.3887-2.0211 11.061-5.898 17.054-12.033 18.602-34.955 31.964-58.125 33.884-7.1633 0.59375-7.7151 0.59281-16.589-0.0282zm26.885-12.13c19.817-5.2261 33.785-17.836 39.945-36.062 6.2776-18.572 3.9393-38.79-6.9925-60.461-5.4308-10.766-13.908-23.273-17.125-25.267-1.0308-0.63878-2.7278-0.0132-3.115 1.1483-0.10072 0.30216 1.6432 2.9837 3.8753 5.9589 11.277 15.032 18.996 31.214 21.356 44.768 1.1315 6.5014 1.1388 18.738 0.0149 25.182-1.7976 10.308-6.6859 19.48-14.489 27.185-10.628 10.495-23.764 15.525-40.64 15.562-9.4711 0.0211-15.194-0.83697-25.644-3.8449-8.5416-2.4585-10.354-2.5743-10.354-0.66157 0 1.5758 2.6274 2.8895 9.7238 4.8615 9.7764 2.7168 16.187 3.481 27.418 3.2681 9.056-0.17165 11.353-0.40661 16.028-1.6395zm-61.969-10.226c0.60406-0.97738-1.2017-2.2184-9.6911-6.6603-17.99-9.4128-30.573-18.877-45.831-34.471-7.7843-7.9554-12.715-13.847-17.409-20.803-2.5264-3.744-3.6867-4.8275-5.1695-4.8275-0.28857 0-0.52467 0.52451-0.52467 1.1656 0 4.0181 12.042 19.504 24.642 31.691 14.2 13.733 32.176 26.307 46.635 32.62 4.6634 2.036 6.6678 2.3867 7.3482 1.2858zm19.695-17.954c7.3639-2.6976 13.839-5.0417 14.389-5.2093 0.54998-0.16756 0.99996-0.52093 0.99996-0.78527 0-0.81018-10.02-13.068-39.666-48.527-15.634-18.699-28.912-34.941-29.508-36.092-2.8824-5.576-2.5043-9.8047 1.2084-13.517 7.4479-7.4479 25.176-5.594 34.538 3.6116 3.345 3.2894 4.955 6.3417 5.2745 9.9996 0.37062 4.2426-1.0666 6.1219-6.9918 9.1426-2.7742 1.4143-5.1333 2.8393-5.2424 3.1667-0.14242 0.42727 7.5333 10.389 9.7894 12.705 0.085 0.0872 2.5687-0.65217 5.5195-1.6431 5.2112-1.75 5.578-1.7929 12.793-1.494 5.3812 0.22291 8.3343 0.62806 10.716 1.4702 9.0425 3.1974 17.157 9.3831 21.119 16.1 7.073 11.99 1.7388 23.525-12.264 26.521-0.86425 0.18492-1.5714 0.69128-1.5714 1.1252 0 0.43397 2.0991 3.3861 4.6646 6.5603 5.2974 6.5542 5.4381 6.6102 11.496 4.5808 13.566-4.545 21.639-15.992 19.876-28.185-1.3085-9.0501-5.7485-16.961-13.823-24.63-8.8891-8.4419-19.032-13.629-34.07-17.423-2.3721-0.59853-2.4288-0.66857-2.4424-3.0192-0.0871-15-14.9-29.595-36.494-35.958-5.7862-1.705-19.96-1.8524-25.775-0.26817-8.4836 2.3112-14.558 6.772-17.568 12.9-1.4149 2.8811-1.5643 3.7559-1.4775 8.6487 0.19026 10.718-0.644 9.516 40.915 58.935 12.862 15.294 23.37 28.022 23.351 28.285-0.0187 0.26207-2.9371 1.5558-6.4853 2.8748-3.7577 1.397-6.3816 2.6797-6.2844 3.0721 0.11522 0.46502 8.7932 11.26 9.586 11.925 0.0215 0.018 6.0641-2.1744 13.428-4.8719zm-101.28-58.416c0.09992-0.67866-0.85077-4.2584-2.1126-7.9549-3.4931-10.233-4.3505-15.129-4.2793-24.435 0.07336-9.5796 1.1919-14.533 5.0326-22.285 4.3803-8.8414 10.66-15.371 20.117-20.917 11.609-6.8082 23.092-9.6529 38.968-9.6529 13.402 0 23.722 2.1138 38.82 7.9514 3.9615 1.5317 7.5526 2.6507 7.9801 2.4866 0.42749-0.16404 0.69938-0.8293 0.6042-1.4783-0.37661-2.568-17.756-9.1314-29.933-11.304-10.115-1.805-28.553-1.8555-36.342-0.0995-19.567 4.411-34.112 13.835-42.392 27.466-9.1165 15.007-9.8364 34.487-2.0295 54.913 1.8548 4.853 3.4691 7.1741 4.7064 6.7669 0.3732-0.12282 0.7603-0.77858 0.86022-1.4572zm152.1-41.21c0-1.8536-12.502-12.403-25.289-21.34-12.346-8.6283-15.853-10.37-15.853-7.8712 0 1.1674 2.8553 3.5308 11.428 9.459 4.7085 3.256 14.066 10.391 22.856 17.427 4.4217 3.5393 6.8569 4.3652 6.8569 2.3256z" stop-color="#000000" style="paint-order:markers stroke fill"/>
    <path transform="matrix(.26738 0 0 .26738 -135.66 28.51)" d="m70.598 237.85c-1.4738-2.8449-2.6797-5.7843-2.6797-6.5319 0-1.0344 1.0414-2.1198 4.3571-4.5413 2.3964-1.7501 4.7007-3.182 5.1205-3.182 0.41987 0 2.059 2.1935 3.6425 4.8745 2.8587 4.8399 3.3175 5.9822 2.4027 5.9822-0.26201 0-2.5522 1.9285-5.0894 4.2855-2.5371 2.357-4.7167 4.2855-4.8436 4.2855s-1.4365-2.3277-2.9103-5.1726z" stop-color="#000000" style="paint-order:markers stroke fill"/>
    <path transform="matrix(.26738 0 0 .26738 -135.66 28.51)" d="m61.641 218.88c-0.58857-1.3357-1.3745-3.6439-1.7466-5.1294-0.60214-2.4042-0.5533-2.8954 0.44457-4.4715 1.0314-1.629 6.838-6.827 7.6263-6.827 0.31776 0 4.8896 10.33 5.228 11.813 0.15545 0.68101-8.766 7.0436-9.8764 7.0436-0.33323 0-1.0874-1.0928-1.676-2.4285z" stop-color="#000000" style="paint-order:markers stroke fill"/>
    <path transform="matrix(.26738 0 0 .26738 -135.66 28.51)" d="m55.351 195.74c0.0018-2.4356 0.26193-5.3599 0.57817-6.4984 0.63183-2.2746 4.7769-7.3582 5.9999-7.3582 1.8025 0 2.2403 7.7269 0.6122 10.804-1.1324 2.1399-5.9161 7.4813-6.7002 7.4813-0.27127 0-0.49178-1.9928-0.49003-4.4284z" stop-color="#000000" style="paint-order:markers stroke fill"/>
    <path transform="matrix(.26738 0 0 .26738 -135.66 28.51)" d="m81.902 256.02c-1.5158-1.9642-2.9665-3.8529-3.2237-4.1972-0.40238-0.53864 3.0122-3.7126 9.4579-8.7914 0.98669-0.77745 1.2354-0.66133 3.0589 1.4285 1.0917 1.2511 3.1175 3.7369 4.5019 5.524l2.517 3.2492-6.3244 3.1791c-3.4784 1.7485-6.5285 3.1791-6.778 3.1791-0.24948 0-1.6938-1.6071-3.2097-3.5713z" stop-color="#000000" style="paint-order:markers stroke fill"/>
    <path transform="matrix(.26738 0 0 .26738 -135.66 28.51)" d="m97.069 273.03c-6.188-6.2139-6.3155-5.1942 1.2109-9.689 2.3997-1.4331 4.8645-2.6057 5.4774-2.6057 1.368 0 5.7385 3.3355 7.51 5.7316l1.3057 1.7661-2.437 3.1589c-2.0801 2.6962-6.673 7.0571-7.4325 7.0571-0.13098 0-2.6665-2.4385-5.6345-5.4189z" stop-color="#000000" style="paint-order:markers stroke fill"/>
    <path transform="matrix(.26738 0 0 .26738 -135.66 28.51)" d="m119.09 290.16c-1.8024-1.0854-4.5558-2.912-6.1184-4.0591l-2.8413-2.0857 4.1422-3.781c7.3298-6.6907 6.0434-6.4156 11.945-2.5543 2.8113 1.8395 5.1155 3.5701 5.1205 3.8459 9e-3 0.48732-7.7097 9.8285-8.5504 10.348-0.23102 0.14277-1.8948-0.62845-3.6972-1.7138z" stop-color="#000000" style="paint-order:markers stroke fill"/>
    <path transform="matrix(.26738 0 0 .26738 -135.66 28.51)" d="m138.85 301.06c-3.2583-1.6876-6.291-3.4352-6.7394-3.8836-0.70615-0.70615-0.30536-1.3661 2.9934-4.9291 2.0948-2.2626 4.2674-4.3592 4.828-4.6593 0.78295-0.41903 2.7872 0.32645 8.6433 3.2149l7.624 3.7605-1.4866 1.2304c-0.81762 0.67669-3.3306 2.8374-5.5844 4.8016-2.2538 1.9642-4.1555 3.5627-4.226 3.5521-0.0705-0.0105-2.794-1.3999-6.0523-3.0875z" stop-color="#000000" style="paint-order:markers stroke fill"/>
    <path transform="matrix(.26738 0 0 .26738 -135.66 28.51)" d="m164.77 311.25c-1.5714-0.46177-4.3397-1.3767-6.1519-2.0332-3.8358-1.3896-3.9941-0.96326 2.5455-6.8586l4.5224-4.0769 7.9212 2.4538c4.8576 1.5048 7.8165 2.6987 7.6504 3.087-0.30694 0.71782-5.0893 4.6072-8.4248 6.8517-2.5005 1.6826-3.9466 1.7859-8.0628 0.57634z" stop-color="#000000" style="paint-order:markers stroke fill"/>
    <path transform="matrix(.26738 0 0 .26738 -135.66 28.51)" d="m183.39 315.66c-1.3277-0.37114-1.2586-0.49128 1.7142-2.9809 1.7037-1.4268 4.273-3.5346 5.7096-4.684l2.6119-2.0898 6.4349 1.2031c7.3406 1.3724 7.3103 0.95337 0.42354 5.8566l-4.4884 3.1957-5.5112-0.057c-3.0311-0.0313-6.1337-0.23098-6.8946-0.44367z" stop-color="#000000" style="paint-order:markers stroke fill"/>
    <path transform="matrix(.26738 0 0 .26738 -135.66 28.51)" d="m294.46 209.26c-0.84655-2.542-1.3176-4.8267-1.0469-5.0772 0.27077-0.2505 3.4327-1.2674 7.0266-2.2597 16.315-4.5049 31.926-12.438 43.587-22.149 5.6465-4.7023 9.019-8.5378 9.019-10.257 0-2.3381-1.4926-1.5221-6.6905 3.6577-11.327 11.287-30.685 21.636-49.51 26.467-2.4687 0.63362-4.7249 1.0733-5.0138 0.97699-0.28882-0.0963-1.9192-3.0657-3.6231-6.5987l-3.098-6.4236h3.5598c3.5566 0 15.409-2.8612 25.066-6.0509 4.9918-1.6488 7.0877-3.5442 8.7594-7.9214 0.97044-2.541 0.97174-2.8811 0.0282-7.3455-1.2514-5.9209-3.8703-15.028-5.7831-20.11-1.0268-2.728-1.6506-5.9348-2.0485-10.532-0.93719-10.826-1.9688-16.311-3.8058-20.236-1.9785-4.2279-3.7377-5.7395-9.9879-8.582-4.8027-2.1842-5.6786-3.2286-4.1366-4.9324 0.89226-0.98593 0.92258-1.4715 0.29303-4.6928-0.38619-1.9762-1.2528-5.2645-1.9259-7.3072l-1.2237-3.7141-2.1344 0.1248c-2.3431 0.137-12.341 2.4982-18.085 4.2712l-3.649 1.1263 0.3593 3.81c0.60508 6.4163 2.172 11.724 3.6531 12.374 0.70712 0.31023 1.2857 0.98439 1.2857 1.4981s-1.6418 3.1362-3.6484 5.8277c-4.491 6.0238-5.2676 8.6381-4.4062 14.832 0.32826 2.3602 1.5272 6.8272 2.6642 9.9269 3.7083 10.109 4.1274 11.844 5.3538 22.168 0.66619 5.6081 1.1215 10.286 1.0119 10.396s-0.8049-0.63311-1.545-1.6506c-11.354-15.61-25.01-29.577-39.517-40.414l-6.6593-4.9748 2.1453-4.8009c1.1799-2.6405 3.341-7.1742 4.8023-10.075 3.0197-5.9941 3.3433-7.7595 1.3713-7.4794-1.0359 0.14712-2.2684 2.1252-6.3444 10.182-2.7823 5.4998-5.3151 9.9267-5.6285 9.8376-0.3134-0.0891-1.9813-1.0649-3.7065-2.1685-3.611-2.31-3.6228-1.946 0.27335-8.4288 14.983-24.929 40.073-42.463 69.678-48.693 5.8886-1.2392 21.734-1.9873 29.603-1.3976 7.8537 0.58852 12.444 1.7486 18.126 4.5813 16.426 8.1884 30.275 23.591 35.95 39.984l1.8791 5.4283 0.0106 11.714c9e-3 9.4664-0.19469 12.591-1.0593 16.285-4.3089 18.411-14.7 36.865-27.356 48.583-9.9714 9.232-27.298 18.186-45.268 23.393-2.7509 0.79717-5.466 1.4494-6.0336 1.4494-0.7831 0-1.4032-1.1146-2.5712-4.6218zm68.774-58.344c2.023-4.0771 4.0133-12.002 4.7277-18.826 1.1279-10.772-0.66455-20.838-5.4297-30.49-7.2165-14.617-20.887-26.167-37.643-31.804-4.6495-1.5641-6.0769-1.7808-12.127-1.8409-6.4986-0.06458-6.8569-0.0084-6.8569 1.0747 0 1.0316 0.51709 1.1826 5.3117 1.5513 2.9214 0.22465 7.0355 0.8405 9.1425 1.3686 20.267 5.0794 38.331 22.416 43.043 41.309 1.0521 4.2184 1.1652 5.9892 0.93048 14.571-0.23445 8.5738-0.45972 10.398-1.8414 14.911-2.4537 8.0154-3.0658 10.475-2.6984 10.842 0.85261 0.8526 2.2202-0.20767 3.4408-2.6676zm-110.56-59.274c11.284-9.1008 17.08-11.982 32.862-16.335 7.0171-1.9357 8.9286-2.8007 8.33-3.7693-0.54712-0.88527-4.1502-0.55074-9.9772 0.92633-13.748 3.4848-22.299 7.7414-32.98 16.417-4.2093 3.4188-5.6156 5.1539-4.9933 6.1608 0.68995 1.1164 1.9387 0.48832 6.7589-3.3994z" stop-color="#000000" style="paint-order:markers stroke fill"/>
    <path transform="matrix(.26738 0 0 .26738 -135.66 28.51)" d="m387.33 119.51c-1.7279-1.2478-3.3085-2.5727-3.5124-2.9443-0.20394-0.37159-1.1482-3.7612-2.0985-7.5325-0.95022-3.7713-1.8977-7.3711-2.1054-7.9997l-0.37774-1.1428 0.95007 1.1428c3.0729 3.6963 10.95 18.963 10.461 20.274-0.0965 0.25885-1.5892-0.55026-3.317-1.798z" stop-color="#000000" style="paint-order:markers stroke fill"/>
    <path transform="matrix(.26738 0 0 .26738 -135.66 28.51)" d="m387.7 139.11-4.4607-4.4871 0.47431-3.8948c0.26087-2.1422 0.77204-3.9935 1.1359-4.1141 0.36389-0.1206 2.2281 1.6008 4.1427 3.8253l3.4811 4.0446v4.5566c0 2.5061-0.0703 4.5566-0.15626 4.5566-0.0859 0-2.1636-2.0192-4.617-4.4871z" stop-color="#000000" style="paint-order:markers stroke fill"/>
    <path transform="matrix(.26738 0 0 .26738 -135.66 28.51)" d="m383.48 158.51c-2.8663-2.711-4.1432-4.3346-4.1445-5.2695-2e-3 -1.6766 2.3218-9.6366 2.8135-9.6366 0.19779 0 2.2537 1.9068 4.5687 4.2374 4.0732 4.1006 4.1977 4.3082 3.8566 6.4283-0.51208 3.1827-2.0722 8.1933-2.5453 8.1747-0.22353-9e-3 -2.2706-1.7792-4.5491-3.9342z" stop-color="#000000" style="paint-order:markers stroke fill"/>
    <path transform="matrix(.26738 0 0 .26738 -135.66 28.51)" d="m375.62 176.03c-2.2591-1.6942-4.0665-3.4971-4.153-4.1426-0.18447-1.3769 4.0229-9.7139 4.9022-9.7139 0.34117 0 2.458 1.6453 4.704 3.6563 3.6925 3.306 4.0517 3.8166 3.749 5.3301-0.41168 2.0584-3.8247 7.8702-4.6217 7.87-0.31942-7e-5 -2.3807-1.35-4.5806-2.9999z" stop-color="#000000" style="paint-order:markers stroke fill"/>
    <path transform="matrix(.26738 0 0 .26738 -135.66 28.51)" d="m366.13 190.05c-2.325-2.0881-4.3042-4.2262-4.3984-4.7513-0.0941-0.52514 0.88739-2.294 2.1812-3.9308l2.3524-2.976 1.5903 1.0318c7.2792 4.7225 8.6088 5.6644 8.6132 6.1018 6e-3 0.57313-4.9125 7.5799-5.6332 8.0253-0.26306 0.16258-2.3805-1.4128-4.7055-3.5009z" stop-color="#000000" style="paint-order:markers stroke fill"/>
    <path transform="matrix(.26738 0 0 .26738 -135.66 28.51)" d="m353.36 201.78-3.7302-4.7173 2.4007-2.4462c3.8478-3.9206 4.175-3.8758 10.862 1.4868l3.2691 2.6215-2.055 2.1045c-1.1303 1.1575-3.1714 2.9063-4.536 3.8862l-2.481 1.7817z" stop-color="#000000" style="paint-order:markers stroke fill"/>
    <path transform="matrix(.26738 0 0 .26738 -135.66 28.51)" d="m339.11 210.82-4.5086-4.1591 4.1812-2.6751c2.2997-1.4713 4.488-2.6751 4.8629-2.6751 0.78865 0 6.5444 8.3022 6.5444 9.4398 0 0.61428-5.5612 4.3346-6.355 4.2513-0.11888-0.0125-2.245-1.8943-4.7248-4.1818z" stop-color="#000000" style="paint-order:markers stroke fill"/>
    <path transform="matrix(.26738 0 0 .26738 -135.66 28.51)" d="m322.08 217.81-3.5738-3.497 3.7021-1.9036c2.0362-1.047 4.0878-1.9135 4.5592-1.9256s2.9824 1.6997 5.58 3.804l4.7229 3.826-3.8658 1.5667c-5.9448 2.4093-6.9181 2.2456-11.125-1.8705z" stop-color="#000000" style="paint-order:markers stroke fill"/>
    <path transform="matrix(.26738 0 0 .26738 -135.66 28.51)" d="m307.05 225.38c-0.94282-0.5899-2.7106-2.1112-3.9285-3.3808l-2.2143-2.3082 3.9285-1.1556c7.1631-2.1071 6.4065-2.2531 10.157 1.9605 3.7517 4.2151 3.7254 4.3609-0.97097 5.3711-3.8322 0.82435-5.007 0.7423-6.9716-0.48692z" stop-color="#000000" style="paint-order:markers stroke fill"/>
   </g>
   <path transform="matrix(.26738 0 0 .26738 -135.66 28.51)" d="m178.6 262.79c-2.8685-3.0899-7.6427-9.0687-7.6427-9.571 0-0.414 4.1743-2.1614 11.008-4.6081 1.1831-0.4236 2.0831-0.95571 1.9999-1.1825-0.0832-0.22675-10.694-12.944-23.579-28.261-25.464-30.269-34.423-41.254-37.268-45.693-2.8336-4.4215-3.6585-7.3519-3.7702-13.394-0.0959-5.1866-0.0133-5.5892 1.8565-9.0402 3.2877-6.068 8.8485-10.043 16.946-12.114 6.6898-1.711 18.263-1.5938 25.566 0.25887 15.872 4.0263 30.329 15.169 34.823 26.838 0.61715 1.6027 1.2849 4.8272 1.4839 7.1656l0.36177 4.2515 3.1427 0.77225c9.4122 2.3128 18.735 6.2981 25.761 11.013 4.786 3.2112 13.438 12.01 15.868 16.136 8.1049 13.765 7.5045 25.686-1.7604 34.951-3.8908 3.8907-9.829 7.1818-15.191 8.4196l-2.9878 0.68967-2.0297-1.9579c-3.0109-2.9044-8.39-10.097-8.0104-10.712 0.18152-0.29369 1.526-0.83515 2.9879-1.2032 5.6985-1.4349 10.201-4.7321 12.254-8.9746 0.97065-2.0051 1.2568-3.6272 1.2568-7.1241 0-3.9563-0.237-5.0139-1.8775-8.3782-2.5147-5.1572-9.0408-11.64-14.699-14.6-7.2776-3.8083-9.9044-4.4938-18.43-4.8093-7.1492-0.26458-8.0278-0.18012-12 1.1536-2.357 0.79148-4.7122 1.5281-5.2336 1.6369-0.62801 0.13106-2.4184-1.6105-5.3035-5.1588-6.3247-7.7786-6.283-6.9827-0.51672-9.8791 6.1138-3.071 7.3418-4.5692 7.3337-8.948-8e-3 -4.1327-1.374-6.9713-5.1372-10.672-9.3345-9.1794-26.897-11.095-34.763-3.7918-3.3261 3.0878-4.0439 6.6413-2.3473 11.621 1.013 2.973 3.8232 6.4812 37.441 46.74 31.307 37.491 33.759 40.57 32.321 40.57-0.11293 0-6.2068 2.1856-13.542 4.8569-7.3351 2.6713-13.621 4.8569-13.968 4.8569s-1.407-0.83568-2.3552-1.8571z" fill="#5df" stop-color="#000000" style="paint-order:markers stroke fill"/>
  </g>
  <text x="-121.41293" y="139.06247" fill="#000000" font-family="sans-serif" font-size="8.7572px" stroke-width=".21893" style="line-height:1.25" xml:space="preserve"><tspan x="-121.41293" y="139.06247" fill="#666666" font-family="Mulish" font-weight="300" stroke-width=".21893">brikcoin manual blockchain</tspan></text>
  <g stroke-opacity="0">
   <ellipse cx="-83.551" cy="87.55" rx="29.433" ry="33.875" fill-opacity="0" opacity=".9" stop-color="#000000" style="paint-order:markers stroke fill"/>
   <path transform="matrix(.26458 0 0 .26458 -126.29 29.04)" d="m214.79 312.88c1.6435-1.8071 3.301-3.469 3.6833-3.6932 0.38227-0.22419 5.0417-0.92901 10.354-1.5663s10.688-1.3109 11.945-1.4969l2.2856-0.33823-3.1427 1.5269c-8.499 4.1292-22.729 8.8324-26.771 8.848-1.2176 5e-3 -1.0639-0.30168 1.6453-3.2804z" fill="#fff" stop-color="#000000" style="paint-order:markers stroke fill"/>
   <path transform="matrix(.26458 0 0 .26458 -126.29 29.04)" d="m56.219 171.46c0.56848-2.6978 4.1632-13.565 5.1509-15.571 0.79962-1.6243 0.82864-1.4775 0.55327 2.8004-0.15983 2.483-0.29855 5.9543-0.30827 7.714-0.0171 3.0964-0.09703 3.2591-2.4844 5.0564-1.3567 1.0214-2.6548 1.8571-2.8848 1.8571s-0.24194-0.83568-0.02672-1.8571z" fill="#fff" stop-color="#000000" style="paint-order:markers stroke fill"/>
  </g>
 </g>
</svg>
