<?xml version="1.0" encoding="UTF-8" standalone="no"?>
<svg xmlns:dc="http://purl.org/dc/elements/1.1/" xmlns:cc="http://creativecommons.org/ns#" xmlns:rdf="http://www.w3.org/1999/02/22-rdf-syntax-ns#" xmlns:svg="http://www.w3.org/2000/svg" xmlns="http://www.w3.org/2000/svg" xmlns:xlink="http://www.w3.org/1999/xlink" xmlns:sodipodi="http://sodipodi.sourceforge.net/DTD/sodipodi-0.dtd" xmlns:inkscape="http://www.inkscape.org/namespaces/inkscape" width="133.01854mm" height="122.5917mm" viewBox="0 0 133.01854 122.5917" version="1.1" id="svg8" inkscape:version="1.0.1 (3bc2e813f5, 2020-09-07)" sodipodi:docname="AES Plastic Logo - full vector-shadowed.svg" inkscape:export-filename="/home/russs/Documents/New Russ GEA Nextcloud/GEA Vision Ecobrick Source Files/GEA Logos/AES Plastic/AES Plastic Logo - floating -375px.png" inkscape:export-xdpi="70.85228" inkscape:export-ydpi="70.85228"><defs id="defs2"><clipPath id="clipPath6603"><path transform="matrix(0.38983626,-0.00153776,0.00153776,0.38983626,-191.47698,-165.46688)" inkscape:connector-curvature="0" id="path6605" d="m 638.86215,565.0815 -22.19704,-0.0302 -0.56345,14.49005 3.09372,-0.003 c -0.0212,1.82912 -0.0475,3.62703 -0.072,5.49481 -4.31229,5.38107 -8.47497,4.98377 -12.40135,11.69511 -3.06068,12.42969 -0.64511,18.10036 0.89325,27.41466 1.12506,12.42327 -2.77243,12.52947 -1.90798,35.52946 -0.0464,4.81615 4.21928,9.86503 9.16151,9.75359 l 9.33285,-9.4e-4 v 10e-4 l 16.49507,-6.7e-4 c 4.94223,0.11143 9.20793,-4.9365 9.16153,-9.75265 0.86445,-22.99998 -3.03384,-23.10725 -1.90879,-35.53053 1.53836,-9.31429 3.95343,-14.98492 0.89275,-27.4146 -3.92638,-6.71134 -8.0891,-6.31398 -12.40139,-11.69505 -0.0246,-1.87431 -0.0507,-3.67905 -0.0719,-5.51496 l 2.88672,-0.004 -0.39342,-14.43229 z" mask="none" style="display:inline;fill:#ffffff;stroke:#000000;stroke-width:3.37;stroke-linecap:round;stroke-linejoin:round;stroke-miterlimit:4;stroke-dasharray:none;stroke-opacity:1;filter:url(#filter4530-5-2)"/></clipPath><clipPath id="clipPath6603-3"><path style="display:inline;fill:#ffffff;stroke:#000000;stroke-width:3.37;stroke-linecap:round;stroke-linejoin:round;stroke-miterlimit:4;stroke-dasharray:none;stroke-opacity:1;filter:url(#filter4530-5-2)" mask="none" d="m 638.86215,565.0815 -22.19704,-0.0302 -0.56345,14.49005 3.09372,-0.003 c -0.0212,1.82912 -0.0475,3.62703 -0.072,5.49481 -4.31229,5.38107 -8.47497,4.98377 -12.40135,11.69511 -3.06068,12.42969 -0.64511,18.10036 0.89325,27.41466 1.12506,12.42327 -2.77243,12.52947 -1.90798,35.52946 -0.0464,4.81615 4.21928,9.86503 9.16151,9.75359 l 9.33285,-9.4e-4 v 10e-4 l 16.49507,-6.7e-4 c 4.94223,0.11143 9.20793,-4.9365 9.16153,-9.75265 0.86445,-22.99998 -3.03384,-23.10725 -1.90879,-35.53053 1.53836,-9.31429 3.95343,-14.98492 0.89275,-27.4146 -3.92638,-6.71134 -8.0891,-6.31398 -12.40139,-11.69505 -0.0246,-1.87431 -0.0507,-3.67905 -0.0719,-5.51496 l 2.88672,-0.004 -0.39342,-14.43229 z" id="path6605-6" inkscape:connector-curvature="0" transform="matrix(0.38983626,-0.00153776,0.00153776,0.38983626,-191.47698,-165.46688)"/></clipPath><linearGradient inkscape:collect="always" xlink:href="#linearGradient52632" id="linearGradient18985" gradientUnits="userSpaceOnUse" gradientTransform="matrix(0.4870518,1.6638141e-8,-4.2556675e-8,0.47336978,161.75201,128.90647)" x1="91.161179" y1="89.878647" x2="114.81354" y2="163.29279"/><linearGradient inkscape:collect="always" id="linearGradient52632"><stop style="stop-color:#ffff00;stop-opacity:1;" offset="0" id="stop52628"/><stop style="stop-color:#fffff7;stop-opacity:1" offset="1" id="stop52630"/></linearGradient><filter style="color-interpolation-filters:sRGB" inkscape:label="Drop Shadow" id="filter2179"><feFlood flood-opacity="0.470588" flood-color="rgb(0,12,12)" result="flood" id="feFlood2169"/><feComposite in="flood" in2="SourceGraphic" operator="in" result="composite1" id="feComposite2171"/><feGaussianBlur in="composite1" stdDeviation="1.42727" result="blur" id="feGaussianBlur2173"/><feOffset dx="0" dy="0" result="offset" id="feOffset2175"/><feComposite in="SourceGraphic" in2="offset" operator="over" result="composite2" id="feComposite2177"/></filter></defs><metadata id="metadata5"/><g inkscape:label="Layer 1" inkscape:groupmode="layer" id="layer1" transform="translate(-13.508284,-22.653063)"><g transform="matrix(2.5159722,0,0,2.5159722,400.65362,-131.67093)" id="g19127" inkscape:export-xdpi="308.56387" inkscape:export-ydpi="308.56387"><g id="g2011" style="filter:url(#filter2179)"><path style="opacity:1;fill:#ffffff;fill-opacity:1;stroke:#b3b3b3;stroke-width:1.4747;stroke-miterlimit:4;stroke-dasharray:none;stroke-opacity:1" d="m 36.278085,42.31055 h 87.478935 c 6.47345,0 11.68492,5.211472 11.68492,11.684916 v 58.108774 c 0,6.47345 -5.21147,11.68493 -11.68492,11.68493 H 36.278085 c -6.473443,0 -11.684916,-5.21148 -11.684916,-11.68493 V 53.995466 c 0,-6.473444 5.211473,-11.684916 11.684916,-11.684916 z" id="rect831" transform="matrix(0.39746068,0,0,0.39746068,-159.24406,52.334016)"/><g aria-label="AES" transform="matrix(0.58691511,0,0,0.58691511,-206.77012,-22.271752)" style="font-style:normal;font-weight:normal;font-size:40px;line-height:1.25;font-family:sans-serif;letter-spacing:0px;word-spacing:0px;fill:#ff7f2a;fill-opacity:1;stroke:none" id="flowRoot815"><path d="m 123.50781,182.16852 h -11.60156 l -3.98437,10.07813 h -2.20704 l 11.48438,-28.67188 h 1.26953 l 11.25,28.67188 h -2.24609 z m -10.8789,-1.79687 h 10.21484 l -3.88672,-10.29297 q -0.48828,-1.21094 -1.17187,-3.35937 -0.52735,1.875 -1.15235,3.39843 z" style="font-style:normal;font-variant:normal;font-weight:300;font-stretch:normal;font-family:'Open Sans';-inkscape-font-specification:'Open Sans Light';letter-spacing:-4.24568px;word-spacing:-0.904227px;fill:#ff7f2a" id="path860"/><path d="m 145.10198,192.24665 h -15.60547 v -28.55469 h 15.60547 v 1.83594 H 131.4887 v 10.80078 h 12.85156 v 1.83594 H 131.4887 v 12.24609 h 13.61328 z" style="font-style:normal;font-variant:normal;font-weight:300;font-stretch:normal;font-family:'Open Sans';-inkscape-font-specification:'Open Sans Light';letter-spacing:-4.24568px;word-spacing:-0.904227px;fill:#ff7f2a" id="path862"/><path d="m 163.12193,184.88337 q 0,3.57422 -2.63672,5.66406 -2.61719,2.08984 -6.97266,2.08984 -5.23437,0 -8.02734,-1.15234 v -1.99219 q 3.08593,1.3086 7.87109,1.3086 3.51563,0 5.56641,-1.60157 2.07031,-1.62109 2.07031,-4.23828 0,-1.62109 -0.68359,-2.67578 -0.6836,-1.07422 -2.22657,-1.95312 -1.54297,-0.87891 -4.53125,-1.89453 -4.375,-1.50391 -6.05468,-3.24219 -1.66016,-1.75781 -1.66016,-4.66797 0,-3.20313 2.5,-5.21484 2.51953,-2.03125 6.46484,-2.03125 4.02344,0 7.5586,1.52343 l -0.72266,1.71875 q -3.55469,-1.48437 -6.79687,-1.48437 -3.16407,0 -5.03907,1.46484 -1.875,1.46485 -1.875,3.98438 0,1.58203 0.56641,2.59765 0.58594,1.01563 1.89453,1.83594 1.30859,0.80078 4.49219,1.93359 3.33984,1.15235 5.01953,2.2461 1.67969,1.07422 2.44141,2.46094 0.78125,1.36718 0.78125,3.32031 z" style="font-style:normal;font-variant:normal;font-weight:300;font-stretch:normal;font-family:'Open Sans';-inkscape-font-specification:'Open Sans Light';letter-spacing:-4.24568px;word-spacing:-0.904227px;fill:#ff7f2a" id="path864"/></g><g aria-label="PLASTIC" transform="matrix(0.16920524,0,0,0.16920524,-163.43988,20.996819)" style="font-style:normal;font-weight:normal;font-size:40px;line-height:1.25;font-family:sans-serif;letter-spacing:0px;word-spacing:0px;fill:#55ddff;fill-opacity:1;stroke:none" id="flowRoot823"><path d="m 116.44336,424.84961 v 10.95703 h 4.96094 q 2.7539,0 4.25781,-1.42578 1.50391,-1.42578 1.50391,-4.0625 0,-2.61719 -1.50391,-4.04297 -1.50391,-1.42578 -4.25781,-1.42578 z m -3.94531,-3.24219 h 8.90625 q 4.90234,0 7.40234,2.22656 2.51953,2.20704 2.51953,6.48438 0,4.31641 -2.51953,6.52344 -2.5,2.20703 -7.40234,2.20703 h -4.96094 v 11.71875 h -3.94531 z" style="letter-spacing:5.93011px;fill:#55ddff;fill-opacity:1" id="path867"/><path d="m 142.56878,421.60742 h 3.94531 v 25.83985 h 14.19922 v 3.32031 h -18.14453 z" style="letter-spacing:5.93011px;fill:#55ddff;fill-opacity:1" id="path869"/><path d="m 181.44811,425.49414 -5.35156,14.51172 h 10.72265 z m -2.22656,-3.88672 h 4.47265 l 11.11328,29.16016 h -4.10156 l -2.65625,-7.48047 h -13.14453 l -2.65625,7.48047 h -4.16016 z" style="letter-spacing:5.93011px;fill:#55ddff;fill-opacity:1" id="path871"/><path d="m 222.45634,422.56445 v 3.84766 q -2.24609,-1.07422 -4.23828,-1.60156 -1.99218,-0.52735 -3.84765,-0.52735 -3.22266,0 -4.98047,1.25 -1.73828,1.25 -1.73828,3.55469 0,1.93359 1.15234,2.92969 1.17188,0.97656 4.41406,1.58203 l 2.38282,0.48828 q 4.41406,0.83984 6.5039,2.96875 2.10938,2.10938 2.10938,5.66406 0,4.23828 -2.85157,6.42578 -2.83203,2.1875 -8.32031,2.1875 -2.07031,0 -4.41406,-0.46875 -2.32422,-0.46875 -4.82422,-1.38671 v -4.0625 q 2.40234,1.34765 4.70703,2.03125 2.30469,0.68359 4.53125,0.68359 3.37891,0 5.21485,-1.32813 1.83593,-1.32812 1.83593,-3.78906 0,-2.14844 -1.32812,-3.35937 -1.3086,-1.21094 -4.31641,-1.81641 l -2.40234,-0.46875 q -4.41406,-0.87891 -6.38672,-2.75391 -1.97266,-1.875 -1.97266,-5.21484 0,-3.86719 2.71485,-6.09375 2.73437,-2.22656 7.51953,-2.22656 2.05078,0 4.17969,0.37109 2.1289,0.3711 4.35546,1.11328 z" style="letter-spacing:5.93011px;fill:#55ddff;fill-opacity:1" id="path873"/><path d="m 232.25364,421.60742 h 24.66797 v 3.32031 h -10.35156 v 25.83985 h -3.96485 v -25.83985 h -10.35156 z" style="letter-spacing:5.93011px;fill:#55ddff;fill-opacity:1" id="path875"/><path d="m 266.67984,421.60742 h 3.94531 v 29.16016 h -3.94531 z" style="letter-spacing:5.93011px;fill:#55ddff;fill-opacity:1" id="path877"/><path d="m 306.24277,423.85352 v 4.16015 q -1.99219,-1.85547 -4.25782,-2.77344 -2.24609,-0.91796 -4.78515,-0.91796 -5,0 -7.65625,3.0664 -2.65625,3.04688 -2.65625,8.82813 0,5.76172 2.65625,8.82812 2.65625,3.04688 7.65625,3.04688 2.53906,0 4.78515,-0.91797 2.26563,-0.91797 4.25782,-2.77344 v 4.12109 q -2.07032,1.40625 -4.39453,2.10938 -2.30469,0.70312 -4.88282,0.70312 -6.62109,0 -10.42968,-4.04296 -3.8086,-4.0625 -3.8086,-11.07422 0,-7.03125 3.8086,-11.07422 3.80859,-4.0625 10.42968,-4.0625 2.61719,0 4.92188,0.70312 2.32422,0.6836 4.35547,2.07032 z" style="letter-spacing:5.93011px;fill:#55ddff;fill-opacity:1" id="path879"/></g><g aria-label="authenticated " transform="matrix(0.06952075,0,0,0.06952075,-154.71084,66.607457)" style="font-style:normal;font-weight:normal;font-size:40px;line-height:1.25;font-family:sans-serif;letter-spacing:0px;word-spacing:0px;fill:#666666;fill-opacity:1;stroke:none" id="flowRoot833"><path d="m 107.87305,557.96149 -0.48828,-3.35937 h -0.15625 q -1.60157,2.05078 -3.30079,2.91015 -1.67968,0.83985 -3.984371,0.83985 -3.125,0 -4.863281,-1.60156 -1.738281,-1.60157 -1.738281,-4.4336 0,-3.10547 2.578125,-4.82422 2.597656,-1.71875 7.499998,-1.8164 l 4.04297,-0.11719 v -1.40625 q 0,-3.02734 -1.23047,-4.57031 -1.23047,-1.54297 -3.96484,-1.54297 -2.949221,0 -6.113283,1.64062 l -0.722656,-1.67968 q 3.496093,-1.64063 6.914059,-1.64063 3.4961,0 5.21485,1.81641 1.73828,1.8164 1.73828,5.66406 v 14.12109 z m -7.8125,-1.36718 q 3.39843,0 5.35156,-1.9336 1.97266,-1.95312 1.97266,-5.41015 v -2.08985 l -3.71094,0.15625 q -4.472658,0.21485 -6.386721,1.40625 -1.894531,1.17188 -1.894531,3.67188 0,1.99218 1.210938,3.10547 1.230468,1.09375 3.457034,1.09375 z" style="font-style:normal;font-variant:normal;font-weight:300;font-stretch:normal;font-family:'Open Sans';-inkscape-font-specification:'Open Sans Light';letter-spacing:1.26387px;word-spacing:-5.59854px;fill:#666666" id="path883"/><path d="m 119.09785,536.73102 v 13.75 q 0,3.20313 1.34766,4.66797 1.34766,1.44532 4.17969,1.44532 3.78906,0 5.5664,-1.91407 1.79688,-1.91406 1.79688,-6.23047 v -11.71875 h 1.91406 v 21.23047 h -1.64062 l -0.35157,-2.92968 h -0.11718 q -2.07032,3.32031 -7.36329,3.32031 -7.24609,0 -7.24609,-7.75391 v -13.86719 z" style="font-style:normal;font-variant:normal;font-weight:300;font-stretch:normal;font-family:'Open Sans';-inkscape-font-specification:'Open Sans Light';letter-spacing:1.26387px;word-spacing:-5.59854px;fill:#666666" id="path885"/><path d="m 147.88125,556.63337 q 1.83594,0 3.20313,-0.3125 v 1.5625 q -1.40625,0.46875 -3.24219,0.46875 -2.8125,0 -4.16016,-1.50391 -1.32812,-1.5039 -1.32812,-4.72656 v -13.71094 h -3.14453 v -1.13281 l 3.14453,-0.87891 0.97656,-4.80468 h 0.99609 v 5.13671 h 6.23047 v 1.67969 h -6.23047 v 13.4375 q 0,2.44141 0.85938,3.61328 0.85937,1.17188 2.69531,1.17188 z" style="font-style:normal;font-variant:normal;font-weight:300;font-stretch:normal;font-family:'Open Sans';-inkscape-font-specification:'Open Sans Light';letter-spacing:1.26387px;word-spacing:-5.59854px;fill:#666666" id="path887"/><path d="m 171.78184,557.96149 v -13.76953 q 0,-3.20312 -1.34766,-4.64844 -1.34766,-1.46484 -4.17969,-1.46484 -3.80859,0 -5.58593,1.93359 -1.75782,1.91407 -1.75782,6.23047 v 11.71875 h -1.93359 v -30.39062 h 1.93359 v 9.66797 l -0.0977,2.71484 h 0.13672 q 1.1914,-1.91406 3.00781,-2.77344 1.8164,-0.85937 4.51172,-0.85937 7.22656,0 7.22656,7.7539 v 13.88672 z" style="font-style:normal;font-variant:normal;font-weight:300;font-stretch:normal;font-family:'Open Sans';-inkscape-font-specification:'Open Sans Light';letter-spacing:1.26387px;word-spacing:-5.59854px;fill:#666666" id="path889"/><path d="m 190.40899,558.35212 q -4.62891,0 -7.22656,-2.85156 -2.57813,-2.85157 -2.57813,-7.98829 0,-5.07812 2.5,-8.125 2.5,-3.0664 6.73828,-3.0664 3.75,0 5.91797,2.61719 2.16797,2.61718 2.16797,7.10937 v 1.5625 h -15.29297 q 0.0391,4.375 2.03125,6.67969 2.01172,2.30469 5.74219,2.30469 1.81641,0 3.18359,-0.25391 1.38672,-0.25391 3.4961,-1.09375 v 1.75781 q -1.79688,0.78125 -3.32032,1.05469 -1.52343,0.29297 -3.35937,0.29297 z m -0.56641,-20.3125 q -3.0664,0 -4.92187,2.03125 -1.85547,2.01172 -2.16797,5.82031 h 13.125 q 0,-3.69141 -1.60156,-5.76172 -1.60157,-2.08984 -4.4336,-2.08984 z" style="font-style:normal;font-variant:normal;font-weight:300;font-stretch:normal;font-family:'Open Sans';-inkscape-font-specification:'Open Sans Light';letter-spacing:1.26387px;word-spacing:-5.59854px;fill:#666666" id="path891"/><path d="m 219.85645,557.96149 v -13.76953 q 0,-3.20312 -1.34766,-4.64844 -1.34766,-1.46484 -4.17969,-1.46484 -3.80859,0 -5.58594,1.93359 -1.75781,1.91407 -1.75781,6.23047 v 11.71875 h -1.93359 v -21.23047 h 1.64062 l 0.3711,2.91016 h 0.11718 q 2.07032,-3.32031 7.36329,-3.32031 7.22656,0 7.22656,7.7539 v 13.88672 z" style="font-style:normal;font-variant:normal;font-weight:300;font-stretch:normal;font-family:'Open Sans';-inkscape-font-specification:'Open Sans Light';letter-spacing:1.26387px;word-spacing:-5.59854px;fill:#666666" id="path893"/><path d="m 235.51485,556.63337 q 1.83593,0 3.20312,-0.3125 v 1.5625 q -1.40625,0.46875 -3.24219,0.46875 -2.8125,0 -4.16015,-1.50391 -1.32813,-1.5039 -1.32813,-4.72656 v -13.71094 h -3.14453 v -1.13281 l 3.14453,-0.87891 0.97657,-4.80468 h 0.99609 v 5.13671 h 6.23047 v 1.67969 h -6.23047 v 13.4375 q 0,2.44141 0.85937,3.61328 0.85938,1.17188 2.69532,1.17188 z" style="font-style:normal;font-variant:normal;font-weight:300;font-stretch:normal;font-family:'Open Sans';-inkscape-font-specification:'Open Sans Light';letter-spacing:1.26387px;word-spacing:-5.59854px;fill:#666666" id="path895"/><path d="m 246.54434,557.96149 h -1.93359 v -21.23047 h 1.93359 z m -2.20703,-27.1289 q 0,-1.875 1.23047,-1.875 0.60547,0 0.9375,0.48828 0.35156,0.48828 0.35156,1.38672 0,0.8789 -0.35156,1.38672 -0.33203,0.50781 -0.9375,0.50781 -1.23047,0 -1.23047,-1.89453 z" style="font-style:normal;font-variant:normal;font-weight:300;font-stretch:normal;font-family:'Open Sans';-inkscape-font-specification:'Open Sans Light';letter-spacing:1.26387px;word-spacing:-5.59854px;fill:#666666" id="path897"/><path d="m 263.41368,558.35212 q -4.55078,0 -7.12891,-2.8711 -2.57812,-2.87109 -2.57812,-8.00781 0,-5.27344 2.67578,-8.20312 2.67578,-2.94922 7.32422,-2.94922 2.75391,0 5.27344,0.95703 l -0.52735,1.71875 q -2.7539,-0.91797 -4.78515,-0.91797 -3.90625,0 -5.91797,2.42188 -2.01172,2.40234 -2.01172,6.93359 0,4.29687 2.01172,6.73828 2.01172,2.42188 5.625,2.42188 2.89062,0 5.37109,-1.03516 v 1.79687 q -2.03125,0.9961 -5.33203,0.9961 z" style="font-style:normal;font-variant:normal;font-weight:300;font-stretch:normal;font-family:'Open Sans';-inkscape-font-specification:'Open Sans Light';letter-spacing:1.26387px;word-spacing:-5.59854px;fill:#666666" id="path899"/><path d="m 288.07597,557.96149 -0.48828,-3.35937 h -0.15625 q -1.60156,2.05078 -3.30078,2.91015 -1.67969,0.83985 -3.98437,0.83985 -3.125,0 -4.86329,-1.60156 -1.73828,-1.60157 -1.73828,-4.4336 0,-3.10547 2.57813,-4.82422 2.59765,-1.71875 7.5,-1.8164 l 4.04297,-0.11719 v -1.40625 q 0,-3.02734 -1.23047,-4.57031 -1.23047,-1.54297 -3.96485,-1.54297 -2.94921,0 -6.11328,1.64062 l -0.72265,-1.67968 q 3.49609,-1.64063 6.91406,-1.64063 3.49609,0 5.21484,1.81641 1.73828,1.8164 1.73828,5.66406 v 14.12109 z m -7.8125,-1.36718 q 3.39844,0 5.35157,-1.9336 1.97265,-1.95312 1.97265,-5.41015 v -2.08985 l -3.71094,0.15625 q -4.47265,0.21485 -6.38671,1.40625 -1.89454,1.17188 -1.89454,3.67188 0,1.99218 1.21094,3.10547 1.23047,1.09375 3.45703,1.09375 z" style="font-style:normal;font-variant:normal;font-weight:300;font-stretch:normal;font-family:'Open Sans';-inkscape-font-specification:'Open Sans Light';letter-spacing:1.26387px;word-spacing:-5.59854px;fill:#666666" id="path901"/><path d="m 303.22656,556.63337 q 1.83594,0 3.20313,-0.3125 v 1.5625 q -1.40625,0.46875 -3.24219,0.46875 -2.8125,0 -4.16016,-1.50391 -1.32812,-1.5039 -1.32812,-4.72656 v -13.71094 h -3.14453 v -1.13281 l 3.14453,-0.87891 0.97656,-4.80468 h 0.99609 v 5.13671 h 6.23047 v 1.67969 h -6.23047 v 13.4375 q 0,2.44141 0.85938,3.61328 0.85937,1.17188 2.69531,1.17188 z" style="font-style:normal;font-variant:normal;font-weight:300;font-stretch:normal;font-family:'Open Sans';-inkscape-font-specification:'Open Sans Light';letter-spacing:1.26387px;word-spacing:-5.59854px;fill:#666666" id="path903"/><path d="m 320.89668,558.35212 q -4.6289,0 -7.22656,-2.85156 -2.57812,-2.85157 -2.57812,-7.98829 0,-5.07812 2.5,-8.125 2.5,-3.0664 6.73828,-3.0664 3.75,0 5.91797,2.61719 2.16796,2.61718 2.16796,7.10937 v 1.5625 h -15.29296 q 0.0391,4.375 2.03125,6.67969 2.01171,2.30469 5.74218,2.30469 1.81641,0 3.1836,-0.25391 1.38672,-0.25391 3.49609,-1.09375 v 1.75781 q -1.79687,0.78125 -3.32031,1.05469 -1.52344,0.29297 -3.35938,0.29297 z m -0.5664,-20.3125 q -3.06641,0 -4.92188,2.03125 -1.85547,2.01172 -2.16797,5.82031 h 13.125 q 0,-3.69141 -1.60156,-5.76172 -1.60156,-2.08984 -4.43359,-2.08984 z" style="font-style:normal;font-variant:normal;font-weight:300;font-stretch:normal;font-family:'Open Sans';-inkscape-font-specification:'Open Sans Light';letter-spacing:1.26387px;word-spacing:-5.59854px;fill:#666666" id="path905"/><path d="m 343.3129,536.32087 q 2.30468,0 3.98437,0.83984 1.67969,0.83985 3.00781,2.8711 h 0.11719 q -0.11719,-2.46094 -0.11719,-4.82422 v -7.63672 h 1.91407 v 30.39062 h -1.26953 l -0.48829,-3.24218 h -0.15625 q -2.42187,3.63281 -6.95312,3.63281 -4.39453,0 -6.71875,-2.73438 -2.32422,-2.73437 -2.32422,-7.96875 0,-5.50781 2.30469,-8.41797 2.30469,-2.91015 6.69922,-2.91015 z m 0,1.75781 q -3.47657,0 -5.23438,2.44141 -1.73828,2.4414 -1.73828,7.08984 0,9.02344 7.01172,9.02344 3.59375,0 5.27344,-2.08985 1.67968,-2.08984 1.67968,-6.89453 v -0.33203 q 0,-4.92187 -1.66015,-7.07031 -1.64063,-2.16797 -5.33203,-2.16797 z" style="font-style:normal;font-variant:normal;font-weight:300;font-stretch:normal;font-family:'Open Sans';-inkscape-font-specification:'Open Sans Light';letter-spacing:1.26387px;word-spacing:-5.59854px;fill:#666666" id="path907"/></g><g aria-label="sequestration" transform="matrix(0.06952075,0,0,0.06952075,-130.799,66.544696)" style="font-style:normal;font-weight:normal;font-size:40px;line-height:1.25;font-family:sans-serif;letter-spacing:0px;word-spacing:0px;fill:#666666;fill-opacity:1;stroke:none" id="flowRoot10802"><path d="m 108.14648,552.43415 q 0,2.85156 -2.16796,4.39453 -2.16797,1.52344 -6.152348,1.52344 -4.257813,0 -6.757813,-1.3086 v -2.08984 q 3.203125,1.60156 6.757813,1.60156 3.144528,0 4.765628,-1.03515 1.64062,-1.05469 1.64062,-2.79297 0,-1.60156 -1.30859,-2.69531 -1.28906,-1.09375 -4.25781,-2.14844 -3.183598,-1.15235 -4.472661,-1.97266 -1.289062,-0.83984 -1.953125,-1.875 -0.644531,-1.05469 -0.644531,-2.55859 0,-2.38281 1.992188,-3.76953 2.011718,-1.38672 5.605469,-1.38672 3.4375,0 6.52344,1.28906 l -0.72266,1.75781 q -3.125,-1.28906 -5.80078,-1.28906 -2.597657,0 -4.121094,0.85938 -1.523438,0.85937 -1.523438,2.38281 0,1.66015 1.171875,2.65625 1.191406,0.99609 4.628907,2.22656 2.87109,1.03516 4.17969,1.875 1.30859,0.82031 1.95312,1.875 0.66406,1.05469 0.66406,2.48047 z" style="font-style:normal;font-variant:normal;font-weight:300;font-stretch:normal;font-family:'Open Sans';-inkscape-font-specification:'Open Sans Light';letter-spacing:0px;word-spacing:-5.59854px;fill:#666666" id="path910"/><path d="m 122.22852,558.35212 q -4.62891,0 -7.22657,-2.85156 -2.57812,-2.85157 -2.57812,-7.98829 0,-5.07812 2.5,-8.125 2.5,-3.0664 6.73828,-3.0664 3.75,0 5.91797,2.61719 2.16797,2.61718 2.16797,7.10937 v 1.5625 h -15.29297 q 0.0391,4.375 2.03125,6.67969 2.01172,2.30469 5.74219,2.30469 1.8164,0 3.18359,-0.25391 1.38672,-0.25391 3.49609,-1.09375 v 1.75781 q -1.79687,0.78125 -3.32031,1.05469 -1.52344,0.29297 -3.35937,0.29297 z m -0.56641,-20.3125 q -3.06641,0 -4.92188,2.03125 -1.85546,2.01172 -2.16796,5.82031 h 13.125 q 0,-3.69141 -1.60157,-5.76172 -1.60156,-2.08984 -4.43359,-2.08984 z" style="font-style:normal;font-variant:normal;font-weight:300;font-stretch:normal;font-family:'Open Sans';-inkscape-font-specification:'Open Sans Light';letter-spacing:0px;word-spacing:-5.59854px;fill:#666666" id="path912"/><path d="m 143.16602,558.35212 q -4.17969,0 -6.48438,-2.77344 -2.30469,-2.77344 -2.30469,-8.00781 0,-5.3711 2.30469,-8.30078 2.30469,-2.94922 6.60156,-2.94922 4.60938,0 6.89453,3.39844 h 0.11719 l 0.35156,-2.98829 h 1.64063 v 30.83985 h -1.91406 v -8.08594 q 0,-2.38281 0.11718,-4.84375 h -0.11718 q -2.30469,3.71094 -7.20703,3.71094 z m 0.0391,-1.71875 q 3.86719,0 5.50781,-2.12891 1.66016,-2.1289 1.66016,-7.14844 v -0.23437 q 0,-4.78516 -1.66016,-6.91406 -1.66016,-2.12891 -5.29297,-2.12891 -3.4375,0 -5.23437,2.42188 -1.77735,2.42187 -1.77735,7.10937 0,4.47266 1.73828,6.75781 1.75782,2.26563 5.0586,2.26563 z" style="font-style:normal;font-variant:normal;font-weight:300;font-stretch:normal;font-family:'Open Sans';-inkscape-font-specification:'Open Sans Light';letter-spacing:0px;word-spacing:-5.59854px;fill:#666666" id="path914"/><path d="m 161.11523,536.73102 v 13.75 q 0,3.20313 1.34766,4.66797 1.34766,1.44532 4.17969,1.44532 3.78906,0 5.5664,-1.91407 1.79688,-1.91406 1.79688,-6.23047 v -11.71875 h 1.91406 v 21.23047 h -1.64062 l -0.35157,-2.92968 h -0.11718 q -2.07032,3.32031 -7.36328,3.32031 -7.2461,0 -7.2461,-7.75391 v -13.86719 z" style="font-style:normal;font-variant:normal;font-weight:300;font-stretch:normal;font-family:'Open Sans';-inkscape-font-specification:'Open Sans Light';letter-spacing:0px;word-spacing:-5.59854px;fill:#666666" id="path916"/><path d="m 191.60352,558.35212 q -4.62891,0 -7.22657,-2.85156 -2.57812,-2.85157 -2.57812,-7.98829 0,-5.07812 2.5,-8.125 2.5,-3.0664 6.73828,-3.0664 3.75,0 5.91797,2.61719 2.16797,2.61718 2.16797,7.10937 v 1.5625 h -15.29297 q 0.0391,4.375 2.03125,6.67969 2.01172,2.30469 5.74219,2.30469 1.8164,0 3.18359,-0.25391 1.38672,-0.25391 3.49609,-1.09375 v 1.75781 q -1.79687,0.78125 -3.32031,1.05469 -1.52344,0.29297 -3.35937,0.29297 z m -0.56641,-20.3125 q -3.06641,0 -4.92188,2.03125 -1.85546,2.01172 -2.16796,5.82031 h 13.125 q 0,-3.69141 -1.60157,-5.76172 -1.60156,-2.08984 -4.43359,-2.08984 z" style="font-style:normal;font-variant:normal;font-weight:300;font-stretch:normal;font-family:'Open Sans';-inkscape-font-specification:'Open Sans Light';letter-spacing:0px;word-spacing:-5.59854px;fill:#666666" id="path918"/><path d="m 218.14648,552.43415 q 0,2.85156 -2.16796,4.39453 -2.16797,1.52344 -6.15235,1.52344 -4.25781,0 -6.75781,-1.3086 v -2.08984 q 3.20312,1.60156 6.75781,1.60156 3.14453,0 4.76563,-1.03515 1.64062,-1.05469 1.64062,-2.79297 0,-1.60156 -1.30859,-2.69531 -1.28906,-1.09375 -4.25781,-2.14844 -3.1836,-1.15235 -4.47266,-1.97266 -1.28906,-0.83984 -1.95313,-1.875 -0.64453,-1.05469 -0.64453,-2.55859 0,-2.38281 1.99219,-3.76953 2.01172,-1.38672 5.60547,-1.38672 3.4375,0 6.52344,1.28906 l -0.72266,1.75781 q -3.125,-1.28906 -5.80078,-1.28906 -2.59766,0 -4.12109,0.85938 -1.52344,0.85937 -1.52344,2.38281 0,1.66015 1.17187,2.65625 1.19141,0.99609 4.62891,2.22656 2.87109,1.03516 4.17969,1.875 1.30859,0.82031 1.95312,1.875 0.66406,1.05469 0.66406,2.48047 z" style="font-style:normal;font-variant:normal;font-weight:300;font-stretch:normal;font-family:'Open Sans';-inkscape-font-specification:'Open Sans Light';letter-spacing:0px;word-spacing:-5.59854px;fill:#666666" id="path920"/><path d="m 229.25977,556.63337 q 1.83593,0 3.20312,-0.3125 v 1.5625 q -1.40625,0.46875 -3.24219,0.46875 -2.8125,0 -4.16015,-1.50391 -1.32813,-1.5039 -1.32813,-4.72656 v -13.71094 h -3.14453 v -1.13281 l 3.14453,-0.87891 0.97656,-4.80468 h 0.9961 v 5.13671 h 6.23047 v 1.67969 h -6.23047 v 13.4375 q 0,2.44141 0.85937,3.61328 0.85938,1.17188 2.69532,1.17188 z" style="font-style:normal;font-variant:normal;font-weight:300;font-stretch:normal;font-family:'Open Sans';-inkscape-font-specification:'Open Sans Light';letter-spacing:0px;word-spacing:-5.59854px;fill:#666666" id="path922"/><path d="m 245.45117,536.32087 q 1.34766,0 2.89063,0.27344 l -0.3711,1.85546 q -1.32812,-0.33203 -2.7539,-0.33203 -2.71485,0 -4.45313,2.30469 -1.73828,2.30469 -1.73828,5.82031 v 11.71875 h -1.93359 v -21.23047 h 1.64062 l 0.19531,3.82813 h 0.13672 q 1.3086,-2.34375 2.79297,-3.28125 1.48438,-0.95703 3.59375,-0.95703 z" style="font-style:normal;font-variant:normal;font-weight:300;font-stretch:normal;font-family:'Open Sans';-inkscape-font-specification:'Open Sans Light';letter-spacing:0px;word-spacing:-5.59854px;fill:#666666" id="path924"/><path d="m 265.5293,557.96149 -0.48828,-3.35937 h -0.15625 q -1.60157,2.05078 -3.30079,2.91015 -1.67968,0.83985 -3.98437,0.83985 -3.125,0 -4.86328,-1.60156 -1.73828,-1.60157 -1.73828,-4.4336 0,-3.10547 2.57812,-4.82422 2.59766,-1.71875 7.5,-1.8164 l 4.04297,-0.11719 v -1.40625 q 0,-3.02734 -1.23047,-4.57031 -1.23047,-1.54297 -3.96484,-1.54297 -2.94922,0 -6.11328,1.64062 l -0.72266,-1.67968 q 3.49609,-1.64063 6.91406,-1.64063 3.4961,0 5.21485,1.81641 1.73828,1.8164 1.73828,5.66406 v 14.12109 z m -7.8125,-1.36718 q 3.39843,0 5.35156,-1.9336 1.97266,-1.95312 1.97266,-5.41015 v -2.08985 l -3.71094,0.15625 q -4.47266,0.21485 -6.38672,1.40625 -1.89453,1.17188 -1.89453,3.67188 0,1.99218 1.21094,3.10547 1.23046,1.09375 3.45703,1.09375 z" style="font-style:normal;font-variant:normal;font-weight:300;font-stretch:normal;font-family:'Open Sans';-inkscape-font-specification:'Open Sans Light';letter-spacing:0px;word-spacing:-5.59854px;fill:#666666" id="path926"/><path d="m 279.41602,556.63337 q 1.83593,0 3.20312,-0.3125 v 1.5625 q -1.40625,0.46875 -3.24219,0.46875 -2.8125,0 -4.16015,-1.50391 -1.32813,-1.5039 -1.32813,-4.72656 v -13.71094 h -3.14453 v -1.13281 l 3.14453,-0.87891 0.97656,-4.80468 h 0.9961 v 5.13671 h 6.23047 v 1.67969 h -6.23047 v 13.4375 q 0,2.44141 0.85937,3.61328 0.85938,1.17188 2.69532,1.17188 z" style="font-style:normal;font-variant:normal;font-weight:300;font-stretch:normal;font-family:'Open Sans';-inkscape-font-specification:'Open Sans Light';letter-spacing:0px;word-spacing:-5.59854px;fill:#666666" id="path928"/><path d="m 289.18164,557.96149 h -1.93359 v -21.23047 h 1.93359 z m -2.20703,-27.1289 q 0,-1.875 1.23047,-1.875 0.60547,0 0.9375,0.48828 0.35156,0.48828 0.35156,1.38672 0,0.8789 -0.35156,1.38672 -0.33203,0.50781 -0.9375,0.50781 -1.23047,0 -1.23047,-1.89453 z" style="font-style:normal;font-variant:normal;font-weight:300;font-stretch:normal;font-family:'Open Sans';-inkscape-font-specification:'Open Sans Light';letter-spacing:0px;word-spacing:-5.59854px;fill:#666666" id="path930"/><path d="m 313.86914,547.31696 q 0,5.19531 -2.51953,8.125 -2.51953,2.91016 -6.95313,2.91016 -2.79296,0 -4.92187,-1.34766 -2.12891,-1.34765 -3.26172,-3.86719 -1.13281,-2.51953 -1.13281,-5.82031 0,-5.19531 2.51953,-8.08594 2.51953,-2.91015 6.91406,-2.91015 4.375,0 6.85547,2.94922 2.5,2.92968 2.5,8.04687 z m -16.75781,0 q 0,4.375 1.91406,6.83594 1.93359,2.44141 5.44922,2.44141 3.51562,0 5.42969,-2.44141 1.93359,-2.46094 1.93359,-6.83594 0,-4.39453 -1.95312,-6.8164 -1.9336,-2.42188 -5.44922,-2.42188 -3.51563,0 -5.42969,2.42188 -1.89453,2.40234 -1.89453,6.8164 z" style="font-style:normal;font-variant:normal;font-weight:300;font-stretch:normal;font-family:'Open Sans';-inkscape-font-specification:'Open Sans Light';letter-spacing:0px;word-spacing:-5.59854px;fill:#666666" id="path932"/><path d="m 334.55273,557.96149 v -13.76953 q 0,-3.20312 -1.34765,-4.64844 -1.34766,-1.46484 -4.17969,-1.46484 -3.80859,0 -5.58594,1.93359 -1.75781,1.91407 -1.75781,6.23047 v 11.71875 h -1.93359 v -21.23047 h 1.64062 l 0.3711,2.91016 h 0.11718 q 2.07032,-3.32031 7.36328,-3.32031 7.22657,0 7.22657,7.7539 v 13.88672 z" style="font-style:normal;font-variant:normal;font-weight:300;font-stretch:normal;font-family:'Open Sans';-inkscape-font-specification:'Open Sans Light';letter-spacing:0px;word-spacing:-5.59854px;fill:#666666" id="path934"/></g><path id="path1293" d="m 78.370625,134.46582 c -0.241698,-0.0651 -0.458802,-0.19077 -0.654201,-0.37871 -0.195969,-0.1885 -0.333062,-0.38553 -0.371643,-0.53415 -0.0151,-0.0582 -0.05839,-0.19189 -0.0962,-0.2972 -0.09151,-0.25485 -0.138519,-1.1399 -0.11356,-2.13805 0.02198,-0.87877 0.05558,-1.26223 0.18459,-2.10613 0.112395,-0.73521 0.152829,-1.59778 0.09437,-2.01314 -0.04366,-0.31024 -0.172733,-1.00785 -0.239568,-1.29485 -0.167041,-0.71726 -0.224321,-1.84997 -0.129962,-2.57001 0.09096,-0.69415 0.152091,-0.90883 0.333498,-1.17124 0.21739,-0.31448 0.512764,-0.59153 0.973377,-0.91305 0.210613,-0.147 0.501404,-0.3847 0.646201,-0.5282 l 0.263267,-0.26092 v -0.41895 -0.41894 h -0.259615 -0.259616 l 0.02054,-0.77386 c 0.01131,-0.42561 0.02934,-0.99768 0.04009,-1.27126 l 0.01954,-0.49742 1.852776,-0.0207 c 1.019027,-0.0114 1.86069,-0.0128 1.870362,-0.003 0.01946,0.0195 0.09222,1.69117 0.09607,2.20731 l 0.0024,0.32708 h -0.243948 -0.243949 l 0.02035,0.21541 c 0.01119,0.11847 0.02044,0.30585 0.02057,0.41639 l 2.41e-4,0.20098 0.218427,0.21541 c 0.120132,0.11848 0.435714,0.36305 0.701293,0.5435 0.525183,0.35683 0.848257,0.65406 1.053684,0.96936 0.104672,0.16065 0.147913,0.27395 0.21057,0.55174 0.118775,0.52661 0.177452,1.04941 0.177452,1.58105 0,0.60295 -0.03281,0.89973 -0.211352,1.91178 -0.222641,1.26202 -0.222192,1.61742 0.0038,2.95179 0.122023,0.72071 0.161988,1.03322 0.207703,1.62413 0.04008,0.51804 0.04048,2.23222 6.02e-4,2.50827 -0.07112,0.49216 -0.451604,1.00516 -0.915579,1.23447 l -0.240083,0.11866 -0.65906,0.0225 c -0.362485,0.0124 -1.456043,0.0301 -2.430131,0.0394 -1.487221,0.0142 -1.798666,0.009 -1.943243,-0.0294 z" style="fill:#ff7f2a;fill-opacity:1;stroke:#ffffff;stroke-width:3.4574;stroke-miterlimit:4;stroke-dasharray:none;paint-order:markers stroke fill" transform="matrix(0.39746068,0,0,0.39746068,-159.24406,52.334016)"/><ellipse style="opacity:1;fill:#ffffff;fill-opacity:1;stroke:none;stroke-width:0.0140215;stroke-linejoin:round;stroke-miterlimit:4;stroke-dasharray:none;stroke-opacity:1" id="path51495" cx="-127.23147" cy="69.328644" rx="4.2491651" ry="3.9304776"/><g aria-label="Ecobricks.org" transform="matrix(0.34114228,0,0,0.34114228,-238.92245,-26.501744)" style="font-style:normal;font-weight:normal;line-height:0.01%;font-family:sans-serif;letter-spacing:0px;word-spacing:0px;fill:#b3b3b3;fill-opacity:1;stroke:none" id="g4330"><g id="g4328" style="font-style:normal;font-weight:normal;font-size:40px;line-height:0px;font-family:sans-serif;letter-spacing:0px;word-spacing:0px;fill:#b3b3b3;fill-opacity:1;stroke:none" transform="matrix(0.14204723,0,0,0.14204723,278.94557,191.12579)" aria-label="ecobricks.org"><g id="g4326" style="fill:#b3b3b3;fill-opacity:1"><path style="display:inline;opacity:1;fill:#b3b3b3;fill-opacity:1;stroke:none;stroke-width:1.17203;stroke-miterlimit:4;stroke-dasharray:none;stroke-opacity:1" d="m 317.24362,688.51336 c -4.68491,-0.50152 -9.1838,-2.71998 -12.27716,-6.30089 -4.63355,-4.96585 -6.03692,-12.50184 -3.94605,-18.90035 2.15037,-6.33636 7.72895,-11.37849 14.31509,-12.68842 6.09355,-1.25605 12.77909,0.53565 17.20007,4.97539 5.68038,5.26586 7.46986,14.10241 4.43703,21.20526 -1.61941,4.01081 -4.78285,7.33589 -8.50657,9.47715 -3.42951,1.81126 -7.35641,2.64752 -11.22241,2.23186 z m 4.64793,-13.75943 c 3.50141,-1.48151 4.71498,-6.43684 2.23794,-9.33945 -1.14828,-1.62355 -3.08572,-2.48171 -5.05393,-2.39466 -3.78817,-0.16262 -6.85832,4.00529 -5.82565,7.61001 0.63176,3.09133 3.86984,5.19895 6.94574,4.6367 0.58585,-0.0888 1.15954,-0.26035 1.6959,-0.5126 z" id="path4312" inkscape:connector-curvature="0"/><path inkscape:connector-curvature="0" id="path4314" d="m 357.98385,688.51336 c -4.68491,-0.50152 -9.1838,-2.71998 -12.27716,-6.30089 -4.63355,-4.96585 -6.03692,-12.50184 -3.94605,-18.90035 2.15037,-6.33636 7.72895,-11.37849 14.31509,-12.68842 6.09355,-1.25605 12.77909,0.53565 17.20007,4.97539 5.68038,5.26586 7.46986,14.10241 4.43703,21.20526 -1.61941,4.01081 -4.78285,7.33589 -8.50657,9.47715 -3.42951,1.81126 -7.35641,2.64752 -11.22241,2.23186 z m 4.64793,-13.75943 c 3.50141,-1.48151 4.71498,-6.43684 2.23794,-9.33945 -1.14828,-1.62355 -3.08572,-2.48171 -5.05393,-2.39466 -3.78817,-0.16262 -6.85832,4.00529 -5.82565,7.61001 0.63176,3.09133 3.86984,5.19895 6.94574,4.6367 0.58585,-0.0888 1.15954,-0.26035 1.6959,-0.5126 z" style="display:inline;opacity:1;fill:#b3b3b3;fill-opacity:1;stroke:none;stroke-width:1.17203;stroke-miterlimit:4;stroke-dasharray:none;stroke-opacity:1"/><path style="display:inline;opacity:1;fill:#b3b3b3;fill-opacity:1;stroke:none;stroke-width:1.17203;stroke-miterlimit:4;stroke-dasharray:none;stroke-opacity:1" d="m 337.60457,653.40834 c -4.68491,-0.50152 -9.1838,-2.71998 -12.27716,-6.30089 -4.63355,-4.96585 -6.03692,-12.50184 -3.94605,-18.90035 2.15037,-6.33636 7.72895,-11.37849 14.31509,-12.68842 6.09355,-1.25605 12.77909,0.53565 17.20007,4.97539 5.68038,5.26586 7.46986,14.10241 4.43703,21.20526 -1.61941,4.01081 -4.78285,7.33589 -8.50657,9.47715 -3.42951,1.81126 -7.35641,2.64752 -11.22241,2.23186 z m 4.64793,-13.75943 c 3.50141,-1.48151 4.71498,-6.43684 2.23794,-9.33945 -1.14828,-1.62355 -3.08572,-2.48171 -5.05393,-2.39466 -3.78817,-0.16262 -6.85832,4.00529 -5.82565,7.61001 0.63176,3.09133 3.86984,5.19895 6.94574,4.6367 0.58585,-0.0888 1.15954,-0.26035 1.6959,-0.5126 z" id="path4316" inkscape:connector-curvature="0"/><path inkscape:connector-curvature="0" id="path4318" d="m 296.99743,653.3953 c -4.68491,-0.50152 -9.1838,-2.71998 -12.27716,-6.30089 -4.63355,-4.96585 -6.03692,-12.50184 -3.94605,-18.90035 2.15037,-6.33636 7.72895,-11.37849 14.31509,-12.68842 6.09355,-1.25605 12.77909,0.53565 17.20007,4.97539 5.68038,5.26586 7.46986,14.10241 4.43703,21.20526 -1.61941,4.01081 -4.78285,7.33589 -8.50657,9.47715 -3.42951,1.81126 -7.35641,2.64752 -11.22241,2.23186 z m 4.64793,-13.75943 c 3.50141,-1.48151 4.71498,-6.43684 2.23794,-9.33945 -1.14828,-1.62355 -3.08572,-2.48171 -5.05393,-2.39466 -3.78817,-0.16262 -6.85832,4.00529 -5.82565,7.61001 0.63176,3.09133 3.86984,5.19895 6.94574,4.6367 0.58585,-0.0888 1.15954,-0.26035 1.6959,-0.5126 z" style="display:inline;opacity:1;fill:#b3b3b3;fill-opacity:1;stroke:none;stroke-width:1.17203;stroke-miterlimit:4;stroke-dasharray:none;stroke-opacity:1"/><path inkscape:connector-curvature="0" id="path4320" d="m 378.15334,653.3953 c -4.68491,-0.50152 -9.1838,-2.71998 -12.27716,-6.30089 -4.63355,-4.96585 -6.03692,-12.50184 -3.94605,-18.90035 2.15037,-6.33636 7.72895,-11.37849 14.31509,-12.68842 6.09355,-1.25605 12.77909,0.53565 17.20007,4.97539 5.68038,5.26586 7.46986,14.10241 4.43703,21.20526 -1.61941,4.01081 -4.78285,7.33589 -8.50657,9.47715 -3.42951,1.81126 -7.35641,2.64752 -11.22241,2.23186 z m 4.64793,-13.75943 c 3.50141,-1.48151 4.71498,-6.43684 2.23794,-9.33945 -1.14828,-1.62355 -3.08572,-2.48171 -5.05393,-2.39466 -3.78817,-0.16262 -6.85832,4.00529 -5.82565,7.61001 0.63176,3.09133 3.86984,5.19895 6.94574,4.6367 0.58585,-0.0888 1.15954,-0.26035 1.6959,-0.5126 z" style="display:inline;opacity:1;fill:#b3b3b3;fill-opacity:1;stroke:none;stroke-width:1.17203;stroke-miterlimit:4;stroke-dasharray:none;stroke-opacity:1"/><path style="font-style:normal;font-weight:normal;font-size:40px;line-height:0px;font-family:sans-serif;letter-spacing:0px;word-spacing:0px;display:inline;opacity:1;fill:#b3b3b3;fill-opacity:1;stroke:none;stroke-width:1.17203;stroke-miterlimit:4;stroke-dasharray:none;stroke-opacity:1" d="m 357.87227,618.38718 c -4.68491,-0.50152 -9.1838,-2.71998 -12.27716,-6.30089 -4.63355,-4.96585 -6.03692,-12.50184 -3.94605,-18.90035 2.15037,-6.33636 7.72895,-11.37849 14.31509,-12.68842 6.09355,-1.25605 12.77909,0.53565 17.20007,4.97539 5.68038,5.26586 7.46986,14.10241 4.43703,21.20526 -1.61941,4.01081 -4.78285,7.33589 -8.50657,9.47715 -3.42951,1.81126 -7.35641,2.64752 -11.22241,2.23186 z m 4.64793,-13.75943 c 3.50141,-1.48151 4.71498,-6.43684 2.23794,-9.33945 -1.14828,-1.62355 -3.08572,-2.48171 -5.05393,-2.39466 -3.78817,-0.16262 -6.85832,4.00529 -5.82565,7.61001 0.63176,3.09133 3.86984,5.19895 6.94574,4.6367 0.58585,-0.0888 1.15954,-0.26035 1.6959,-0.5126 z" id="path4322" inkscape:connector-curvature="0"/><path inkscape:connector-curvature="0" id="path4324" d="m 317.39551,618.19842 c -4.68491,-0.50152 -9.1838,-2.71998 -12.27716,-6.30089 -4.63355,-4.96585 -6.03692,-12.50184 -3.94605,-18.90035 2.15037,-6.33636 7.72895,-11.37849 14.31509,-12.68842 6.09355,-1.25605 12.77909,0.53565 17.20007,4.97539 5.68038,5.26586 7.46986,14.10241 4.43703,21.20526 -1.61941,4.01081 -4.78285,7.33589 -8.50657,9.47715 -3.42951,1.81126 -7.35641,2.64752 -11.22241,2.23186 z m 4.64793,-13.75943 c 3.50141,-1.48151 4.71498,-6.43684 2.23794,-9.33945 -1.14828,-1.62355 -3.08572,-2.48171 -5.05393,-2.39466 -3.78817,-0.16262 -6.85832,4.00529 -5.82565,7.61001 0.63176,3.09133 3.86984,5.19895 6.94574,4.6367 0.58585,-0.0888 1.15954,-0.26035 1.6959,-0.5126 z" style="font-style:normal;font-weight:normal;font-size:40px;line-height:0px;font-family:sans-serif;letter-spacing:0px;word-spacing:0px;display:inline;opacity:1;fill:#b3b3b3;fill-opacity:1;stroke:none;stroke-width:1.17203;stroke-miterlimit:4;stroke-dasharray:none;stroke-opacity:1"/></g></g></g></g></g></g></svg>