<?xml version="1.0" encoding="UTF-8" standalone="no"?>
<svg
   width="134.43463mm"
   height="114.37538mm"
   viewBox="0 0 134.43463 114.37538"
   version="1.1"
   id="svg8"
   inkscape:version="1.1 (ce6663b3b7, 2021-05-25)"
   sodipodi:docname="aes.svg"
   inkscape:export-filename="/home/russs/Documents/New Russ GEA Nextcloud/GEA Vision Ecobrick Source Files/GEA Logos/AES Plastic/AES Plastic Logo - floating -375px.png"
   inkscape:export-xdpi="70.85228"
   inkscape:export-ydpi="70.85228"
   xmlns:inkscape="http://www.inkscape.org/namespaces/inkscape"
   xmlns:sodipodi="http://sodipodi.sourceforge.net/DTD/sodipodi-0.dtd"
   xmlns:xlink="http://www.w3.org/1999/xlink"
   xmlns="http://www.w3.org/2000/svg"
   xmlns:svg="http://www.w3.org/2000/svg"
   xmlns:rdf="http://www.w3.org/1999/02/22-rdf-syntax-ns#"
   xmlns:cc="http://creativecommons.org/ns#"
   xmlns:dc="http://purl.org/dc/elements/1.1/">
  <defs
     id="defs2">
    <clipPath
       id="clipPath6603"
       clipPathUnits="userSpaceOnUse">
      <path
         transform="matrix(0.38983626,-0.00153776,0.00153776,0.38983626,-191.47698,-165.46688)"
         inkscape:connector-curvature="0"
         id="path6605"
         d="m 638.86215,565.0815 -22.19704,-0.0302 -0.56345,14.49005 3.09372,-0.003 c -0.0212,1.82912 -0.0475,3.62703 -0.072,5.49481 -4.31229,5.38107 -8.47497,4.98377 -12.40135,11.69511 -3.06068,12.42969 -0.64511,18.10036 0.89325,27.41466 1.12506,12.42327 -2.77243,12.52947 -1.90798,35.52946 -0.0464,4.81615 4.21928,9.86503 9.16151,9.75359 l 9.33285,-9.4e-4 v 10e-4 l 16.49507,-6.7e-4 c 4.94223,0.11143 9.20793,-4.9365 9.16153,-9.75265 0.86445,-22.99998 -3.03384,-23.10725 -1.90879,-35.53053 1.53836,-9.31429 3.95343,-14.98492 0.89275,-27.4146 -3.92638,-6.71134 -8.0891,-6.31398 -12.40139,-11.69505 -0.0246,-1.87431 -0.0507,-3.67905 -0.0719,-5.51496 l 2.88672,-0.004 -0.39342,-14.43229 z"
         mask="none"
         style="display:inline;fill:#ffffff;stroke:#000000;stroke-width:3.36999989;stroke-linecap:round;stroke-linejoin:round;stroke-miterlimit:4;stroke-dasharray:none;stroke-opacity:1;filter:url(#filter4530-5-2)" />
    </clipPath>
    <clipPath
       clipPathUnits="userSpaceOnUse"
       id="clipPath6603-3">
      <path
         style="display:inline;fill:#ffffff;stroke:#000000;stroke-width:3.37;stroke-linecap:round;stroke-linejoin:round;stroke-miterlimit:4;stroke-dasharray:none;stroke-opacity:1;filter:url(#filter4530-5-2)"
         mask="none"
         d="m 638.86215,565.0815 -22.19704,-0.0302 -0.56345,14.49005 3.09372,-0.003 c -0.0212,1.82912 -0.0475,3.62703 -0.072,5.49481 -4.31229,5.38107 -8.47497,4.98377 -12.40135,11.69511 -3.06068,12.42969 -0.64511,18.10036 0.89325,27.41466 1.12506,12.42327 -2.77243,12.52947 -1.90798,35.52946 -0.0464,4.81615 4.21928,9.86503 9.16151,9.75359 l 9.33285,-9.4e-4 v 10e-4 l 16.49507,-6.7e-4 c 4.94223,0.11143 9.20793,-4.9365 9.16153,-9.75265 0.86445,-22.99998 -3.03384,-23.10725 -1.90879,-35.53053 1.53836,-9.31429 3.95343,-14.98492 0.89275,-27.4146 -3.92638,-6.71134 -8.0891,-6.31398 -12.40139,-11.69505 -0.0246,-1.87431 -0.0507,-3.67905 -0.0719,-5.51496 l 2.88672,-0.004 -0.39342,-14.43229 z"
         id="path6605-6"
         inkscape:connector-curvature="0"
         transform="matrix(0.38983626,-0.00153776,0.00153776,0.38983626,-191.47698,-165.46688)" />
    </clipPath>
    <linearGradient
       inkscape:collect="always"
       xlink:href="#linearGradient52632"
       id="linearGradient18985"
       gradientUnits="userSpaceOnUse"
       gradientTransform="matrix(0.4870518,1.6638141e-8,-4.2556675e-8,0.47336978,161.75201,128.90647)"
       x1="91.161179"
       y1="89.878647"
       x2="114.81354"
       y2="163.29279" />
    <linearGradient
       inkscape:collect="always"
       id="linearGradient52632">
      <stop
         style="stop-color:#ffff00;stop-opacity:1;"
         offset="0"
         id="stop52628" />
      <stop
         style="stop-color:#fffff7;stop-opacity:1"
         offset="1"
         id="stop52630" />
    </linearGradient>
    <filter
       style="color-interpolation-filters:sRGB;"
       inkscape:label="Drop Shadow"
       id="filter52139"
       x="-0.098993098"
       y="-0.11835065"
       width="1.1979862"
       height="1.2715669">
      <feFlood
         flood-opacity="0.431373"
         flood-color="rgb(0,0,0)"
         result="flood"
         id="feFlood52129" />
      <feComposite
         in="flood"
         in2="SourceGraphic"
         operator="in"
         result="composite1"
         id="feComposite52131" />
      <feGaussianBlur
         in="composite1"
         stdDeviation="4.41449"
         result="blur"
         id="feGaussianBlur52133" />
      <feOffset
         dx="0"
         dy="2.4"
         result="offset"
         id="feOffset52135" />
      <feComposite
         in="SourceGraphic"
         in2="offset"
         operator="over"
         result="composite2"
         id="feComposite52137" />
    </filter>
  </defs>
  <sodipodi:namedview
     guidetolerance="1"
     gridtolerance="1"
     objecttolerance="1"
     id="base"
     pagecolor="#ffffff"
     bordercolor="#666666"
     borderopacity="1.0"
     inkscape:pageopacity="0.0"
     inkscape:pageshadow="2"
     inkscape:zoom="0.87503604"
     inkscape:cx="201.70598"
     inkscape:cy="282.84549"
     inkscape:document-units="mm"
     inkscape:current-layer="g51827"
     showgrid="false"
     showguides="true"
     inkscape:guide-bbox="true"
     inkscape:window-width="1840"
     inkscape:window-height="1016"
     inkscape:window-x="80"
     inkscape:window-y="27"
     inkscape:window-maximized="1"
     fit-margin-top="0"
     fit-margin-left="0"
     fit-margin-right="0"
     fit-margin-bottom="0"
     inkscape:document-rotation="0"
     inkscape:pagecheckerboard="0">
    <sodipodi:guide
       position="67.708685,33.891095"
       orientation="1,0"
       id="guide10794"
       inkscape:locked="false" />
  </sodipodi:namedview>
  <metadata
     id="metadata5">
    <rdf:RDF>
      <cc:Work
         rdf:about="">
        <dc:format>image/svg+xml</dc:format>
        <dc:type
           rdf:resource="http://purl.org/dc/dcmitype/StillImage" />
      </cc:Work>
    </rdf:RDF>
  </metadata>
  <g
     inkscape:label="Layer 1"
     inkscape:groupmode="layer"
     id="layer1"
     transform="translate(-12.80024,-29.039516)">
    <g
       id="g51475">
      <g
         id="g51827"
         style="filter:url(#filter52139)">
        <path
           style="opacity:1;fill:#ffffff;fill-opacity:1;stroke:#b3b3b3;stroke-width:1.5264;stroke-miterlimit:4;stroke-dasharray:none;stroke-opacity:1"
           d="m 34.744616,37.496372 h 90.545874 c 6.70041,0 12.09458,5.394183 12.09458,12.09458 v 60.146008 c 0,6.70039 -5.39417,12.09458 -12.09458,12.09458 H 34.744616 c -6.700397,0 -12.09458,-5.39419 -12.09458,-12.09458 V 49.590952 c 0,-6.700397 5.394183,-12.09458 12.09458,-12.09458 z"
           id="rect831" />
        <g
           aria-label="AES"
           transform="matrix(1.5284328,0,0,1.5284328,-126.57178,-200.58442)"
           style="font-style:normal;font-weight:normal;font-size:40px;line-height:1.25;font-family:sans-serif;letter-spacing:0px;word-spacing:0px;fill:#ff7f2a;fill-opacity:1;stroke:none"
           id="flowRoot815">
          <path
             d="m 123.50781,182.16852 h -11.60156 l -3.98437,10.07813 h -2.20704 l 11.48438,-28.67188 h 1.26953 l 11.25,28.67188 h -2.24609 z m -10.8789,-1.79687 h 10.21484 l -3.88672,-10.29297 q -0.48828,-1.21094 -1.17187,-3.35937 -0.52735,1.875 -1.15235,3.39843 z"
             style="font-style:normal;font-variant:normal;font-weight:300;font-stretch:normal;font-family:'Open Sans';-inkscape-font-specification:'Open Sans Light';letter-spacing:-4.24568px;word-spacing:-0.904227px;fill:#ff7f2a"
             id="path860" />
          <path
             d="m 145.10198,192.24665 h -15.60547 v -28.55469 h 15.60547 v 1.83594 H 131.4887 v 10.80078 h 12.85156 v 1.83594 H 131.4887 v 12.24609 h 13.61328 z"
             style="font-style:normal;font-variant:normal;font-weight:300;font-stretch:normal;font-family:'Open Sans';-inkscape-font-specification:'Open Sans Light';letter-spacing:-4.24568px;word-spacing:-0.904227px;fill:#ff7f2a"
             id="path862" />
          <path
             d="m 163.12193,184.88337 q 0,3.57422 -2.63672,5.66406 -2.61719,2.08984 -6.97266,2.08984 -5.23437,0 -8.02734,-1.15234 v -1.99219 q 3.08593,1.3086 7.87109,1.3086 3.51563,0 5.56641,-1.60157 2.07031,-1.62109 2.07031,-4.23828 0,-1.62109 -0.68359,-2.67578 -0.6836,-1.07422 -2.22657,-1.95312 -1.54297,-0.87891 -4.53125,-1.89453 -4.375,-1.50391 -6.05468,-3.24219 -1.66016,-1.75781 -1.66016,-4.66797 0,-3.20313 2.5,-5.21484 2.51953,-2.03125 6.46484,-2.03125 4.02344,0 7.5586,1.52343 l -0.72266,1.71875 q -3.55469,-1.48437 -6.79687,-1.48437 -3.16407,0 -5.03907,1.46484 -1.875,1.46485 -1.875,3.98438 0,1.58203 0.56641,2.59765 0.58594,1.01563 1.89453,1.83594 1.30859,0.80078 4.49219,1.93359 3.33984,1.15235 5.01953,2.2461 1.67969,1.07422 2.44141,2.46094 0.78125,1.36718 0.78125,3.32031 z"
             style="font-style:normal;font-variant:normal;font-weight:300;font-stretch:normal;font-family:'Open Sans';-inkscape-font-specification:'Open Sans Light';letter-spacing:-4.24568px;word-spacing:-0.904227px;fill:#ff7f2a"
             id="path864" />
        </g>
        <g
           aria-label="PLASTIC"
           transform="matrix(0.44064089,0,0,0.44064089,-13.732025,-87.905255)"
           style="font-style:normal;font-weight:normal;font-size:40px;line-height:1.25;font-family:sans-serif;letter-spacing:0px;word-spacing:0px;fill:#55ddff;fill-opacity:1;stroke:none"
           id="flowRoot823">
          <path
             d="m 116.44336,424.84961 v 10.95703 h 4.96094 q 2.7539,0 4.25781,-1.42578 1.50391,-1.42578 1.50391,-4.0625 0,-2.61719 -1.50391,-4.04297 -1.50391,-1.42578 -4.25781,-1.42578 z m -3.94531,-3.24219 h 8.90625 q 4.90234,0 7.40234,2.22656 2.51953,2.20704 2.51953,6.48438 0,4.31641 -2.51953,6.52344 -2.5,2.20703 -7.40234,2.20703 h -4.96094 v 11.71875 h -3.94531 z"
             style="letter-spacing:5.93011px;fill:#55ddff;fill-opacity:1"
             id="path867" />
          <path
             d="m 142.56878,421.60742 h 3.94531 v 25.83985 h 14.19922 v 3.32031 h -18.14453 z"
             style="letter-spacing:5.93011px;fill:#55ddff;fill-opacity:1"
             id="path869" />
          <path
             d="m 181.44811,425.49414 -5.35156,14.51172 h 10.72265 z m -2.22656,-3.88672 h 4.47265 l 11.11328,29.16016 h -4.10156 l -2.65625,-7.48047 h -13.14453 l -2.65625,7.48047 h -4.16016 z"
             style="letter-spacing:5.93011px;fill:#55ddff;fill-opacity:1"
             id="path871" />
          <path
             d="m 222.45634,422.56445 v 3.84766 q -2.24609,-1.07422 -4.23828,-1.60156 -1.99218,-0.52735 -3.84765,-0.52735 -3.22266,0 -4.98047,1.25 -1.73828,1.25 -1.73828,3.55469 0,1.93359 1.15234,2.92969 1.17188,0.97656 4.41406,1.58203 l 2.38282,0.48828 q 4.41406,0.83984 6.5039,2.96875 2.10938,2.10938 2.10938,5.66406 0,4.23828 -2.85157,6.42578 -2.83203,2.1875 -8.32031,2.1875 -2.07031,0 -4.41406,-0.46875 -2.32422,-0.46875 -4.82422,-1.38671 v -4.0625 q 2.40234,1.34765 4.70703,2.03125 2.30469,0.68359 4.53125,0.68359 3.37891,0 5.21485,-1.32813 1.83593,-1.32812 1.83593,-3.78906 0,-2.14844 -1.32812,-3.35937 -1.3086,-1.21094 -4.31641,-1.81641 l -2.40234,-0.46875 q -4.41406,-0.87891 -6.38672,-2.75391 -1.97266,-1.875 -1.97266,-5.21484 0,-3.86719 2.71485,-6.09375 2.73437,-2.22656 7.51953,-2.22656 2.05078,0 4.17969,0.37109 2.1289,0.3711 4.35546,1.11328 z"
             style="letter-spacing:5.93011px;fill:#55ddff;fill-opacity:1"
             id="path873" />
          <path
             d="m 232.25364,421.60742 h 24.66797 v 3.32031 h -10.35156 v 25.83985 h -3.96485 v -25.83985 h -10.35156 z"
             style="letter-spacing:5.93011px;fill:#55ddff;fill-opacity:1"
             id="path875" />
          <path
             d="m 266.67984,421.60742 h 3.94531 v 29.16016 h -3.94531 z"
             style="letter-spacing:5.93011px;fill:#55ddff;fill-opacity:1"
             id="path877" />
          <path
             d="m 306.24277,423.85352 v 4.16015 q -1.99219,-1.85547 -4.25782,-2.77344 -2.24609,-0.91796 -4.78515,-0.91796 -5,0 -7.65625,3.0664 -2.65625,3.04688 -2.65625,8.82813 0,5.76172 2.65625,8.82812 2.65625,3.04688 7.65625,3.04688 2.53906,0 4.78515,-0.91797 2.26563,-0.91797 4.25782,-2.77344 v 4.12109 q -2.07032,1.40625 -4.39453,2.10938 -2.30469,0.70312 -4.88282,0.70312 -6.62109,0 -10.42968,-4.04296 -3.8086,-4.0625 -3.8086,-11.07422 0,-7.03125 3.8086,-11.07422 3.80859,-4.0625 10.42968,-4.0625 2.61719,0 4.92188,0.70312 2.32422,0.6836 4.35547,2.07032 z"
             style="letter-spacing:5.93011px;fill:#55ddff;fill-opacity:1"
             id="path879" />
        </g>
        <g
           aria-label="authenticated  "
           transform="matrix(0.18104454,0,0,0.18104454,8.99996,30.873062)"
           style="font-style:normal;font-weight:normal;font-size:40px;line-height:1.25;font-family:sans-serif;letter-spacing:0px;word-spacing:0px;fill:#ffffff;fill-opacity:1;stroke:#ffffff"
           id="flowRoot833">
          <path
             d="m 107.87305,557.96149 -0.48828,-3.35937 h -0.15625 q -1.60157,2.05078 -3.30079,2.91015 -1.67968,0.83985 -3.984371,0.83985 -3.125,0 -4.863281,-1.60156 -1.738281,-1.60157 -1.738281,-4.4336 0,-3.10547 2.578125,-4.82422 2.597656,-1.71875 7.499998,-1.8164 l 4.04297,-0.11719 v -1.40625 q 0,-3.02734 -1.23047,-4.57031 -1.23047,-1.54297 -3.96484,-1.54297 -2.949221,0 -6.113283,1.64062 l -0.722656,-1.67968 q 3.496093,-1.64063 6.914059,-1.64063 3.4961,0 5.21485,1.81641 1.73828,1.8164 1.73828,5.66406 v 14.12109 z m -7.8125,-1.36718 q 3.39843,0 5.35156,-1.9336 1.97266,-1.95312 1.97266,-5.41015 v -2.08985 l -3.71094,0.15625 q -4.472658,0.21485 -6.386721,1.40625 -1.894531,1.17188 -1.894531,3.67188 0,1.99218 1.210938,3.10547 1.230468,1.09375 3.457034,1.09375 z"
             style="font-style:normal;font-variant:normal;font-weight:300;font-stretch:normal;font-family:'Open Sans';-inkscape-font-specification:'Open Sans Light';letter-spacing:1.26387px;word-spacing:-5.59854px;fill:#ffffff;stroke:#ffffff"
             id="path883" />
          <path
             d="m 119.09785,536.73102 v 13.75 q 0,3.20313 1.34766,4.66797 1.34766,1.44532 4.17969,1.44532 3.78906,0 5.5664,-1.91407 1.79688,-1.91406 1.79688,-6.23047 v -11.71875 h 1.91406 v 21.23047 h -1.64062 l -0.35157,-2.92968 h -0.11718 q -2.07032,3.32031 -7.36329,3.32031 -7.24609,0 -7.24609,-7.75391 v -13.86719 z"
             style="font-style:normal;font-variant:normal;font-weight:300;font-stretch:normal;font-family:'Open Sans';-inkscape-font-specification:'Open Sans Light';letter-spacing:1.26387px;word-spacing:-5.59854px;fill:#ffffff;stroke:#ffffff"
             id="path885" />
          <path
             d="m 147.88125,556.63337 q 1.83594,0 3.20313,-0.3125 v 1.5625 q -1.40625,0.46875 -3.24219,0.46875 -2.8125,0 -4.16016,-1.50391 -1.32812,-1.5039 -1.32812,-4.72656 v -13.71094 h -3.14453 v -1.13281 l 3.14453,-0.87891 0.97656,-4.80468 h 0.99609 v 5.13671 h 6.23047 v 1.67969 h -6.23047 v 13.4375 q 0,2.44141 0.85938,3.61328 0.85937,1.17188 2.69531,1.17188 z"
             style="font-style:normal;font-variant:normal;font-weight:300;font-stretch:normal;font-family:'Open Sans';-inkscape-font-specification:'Open Sans Light';letter-spacing:1.26387px;word-spacing:-5.59854px;fill:#ffffff;stroke:#ffffff"
             id="path887" />
          <path
             d="m 171.78184,557.96149 v -13.76953 q 0,-3.20312 -1.34766,-4.64844 -1.34766,-1.46484 -4.17969,-1.46484 -3.80859,0 -5.58593,1.93359 -1.75782,1.91407 -1.75782,6.23047 v 11.71875 h -1.93359 v -30.39062 h 1.93359 v 9.66797 l -0.0977,2.71484 h 0.13672 q 1.1914,-1.91406 3.00781,-2.77344 1.8164,-0.85937 4.51172,-0.85937 7.22656,0 7.22656,7.7539 v 13.88672 z"
             style="font-style:normal;font-variant:normal;font-weight:300;font-stretch:normal;font-family:'Open Sans';-inkscape-font-specification:'Open Sans Light';letter-spacing:1.26387px;word-spacing:-5.59854px;fill:#ffffff;stroke:#ffffff"
             id="path889" />
          <path
             d="m 190.40899,558.35212 q -4.62891,0 -7.22656,-2.85156 -2.57813,-2.85157 -2.57813,-7.98829 0,-5.07812 2.5,-8.125 2.5,-3.0664 6.73828,-3.0664 3.75,0 5.91797,2.61719 2.16797,2.61718 2.16797,7.10937 v 1.5625 h -15.29297 q 0.0391,4.375 2.03125,6.67969 2.01172,2.30469 5.74219,2.30469 1.81641,0 3.18359,-0.25391 1.38672,-0.25391 3.4961,-1.09375 v 1.75781 q -1.79688,0.78125 -3.32032,1.05469 -1.52343,0.29297 -3.35937,0.29297 z m -0.56641,-20.3125 q -3.0664,0 -4.92187,2.03125 -1.85547,2.01172 -2.16797,5.82031 h 13.125 q 0,-3.69141 -1.60156,-5.76172 -1.60157,-2.08984 -4.4336,-2.08984 z"
             style="font-style:normal;font-variant:normal;font-weight:300;font-stretch:normal;font-family:'Open Sans';-inkscape-font-specification:'Open Sans Light';letter-spacing:1.26387px;word-spacing:-5.59854px;fill:#ffffff;stroke:#ffffff"
             id="path891" />
          <path
             d="m 219.85645,557.96149 v -13.76953 q 0,-3.20312 -1.34766,-4.64844 -1.34766,-1.46484 -4.17969,-1.46484 -3.80859,0 -5.58594,1.93359 -1.75781,1.91407 -1.75781,6.23047 v 11.71875 h -1.93359 v -21.23047 h 1.64062 l 0.3711,2.91016 h 0.11718 q 2.07032,-3.32031 7.36329,-3.32031 7.22656,0 7.22656,7.7539 v 13.88672 z"
             style="font-style:normal;font-variant:normal;font-weight:300;font-stretch:normal;font-family:'Open Sans';-inkscape-font-specification:'Open Sans Light';letter-spacing:1.26387px;word-spacing:-5.59854px;fill:#ffffff;stroke:#ffffff"
             id="path893" />
          <path
             d="m 235.51485,556.63337 q 1.83593,0 3.20312,-0.3125 v 1.5625 q -1.40625,0.46875 -3.24219,0.46875 -2.8125,0 -4.16015,-1.50391 -1.32813,-1.5039 -1.32813,-4.72656 v -13.71094 h -3.14453 v -1.13281 l 3.14453,-0.87891 0.97657,-4.80468 h 0.99609 v 5.13671 h 6.23047 v 1.67969 h -6.23047 v 13.4375 q 0,2.44141 0.85937,3.61328 0.85938,1.17188 2.69532,1.17188 z"
             style="font-style:normal;font-variant:normal;font-weight:300;font-stretch:normal;font-family:'Open Sans';-inkscape-font-specification:'Open Sans Light';letter-spacing:1.26387px;word-spacing:-5.59854px;fill:#ffffff;stroke:#ffffff"
             id="path895" />
          <path
             d="m 246.54434,557.96149 h -1.93359 v -21.23047 h 1.93359 z m -2.20703,-27.1289 q 0,-1.875 1.23047,-1.875 0.60547,0 0.9375,0.48828 0.35156,0.48828 0.35156,1.38672 0,0.8789 -0.35156,1.38672 -0.33203,0.50781 -0.9375,0.50781 -1.23047,0 -1.23047,-1.89453 z"
             style="font-style:normal;font-variant:normal;font-weight:300;font-stretch:normal;font-family:'Open Sans';-inkscape-font-specification:'Open Sans Light';letter-spacing:1.26387px;word-spacing:-5.59854px;fill:#ffffff;stroke:#ffffff"
             id="path897" />
          <path
             d="m 263.41368,558.35212 q -4.55078,0 -7.12891,-2.8711 -2.57812,-2.87109 -2.57812,-8.00781 0,-5.27344 2.67578,-8.20312 2.67578,-2.94922 7.32422,-2.94922 2.75391,0 5.27344,0.95703 l -0.52735,1.71875 q -2.7539,-0.91797 -4.78515,-0.91797 -3.90625,0 -5.91797,2.42188 -2.01172,2.40234 -2.01172,6.93359 0,4.29687 2.01172,6.73828 2.01172,2.42188 5.625,2.42188 2.89062,0 5.37109,-1.03516 v 1.79687 q -2.03125,0.9961 -5.33203,0.9961 z"
             style="font-style:normal;font-variant:normal;font-weight:300;font-stretch:normal;font-family:'Open Sans';-inkscape-font-specification:'Open Sans Light';letter-spacing:1.26387px;word-spacing:-5.59854px;fill:#ffffff;stroke:#ffffff"
             id="path899" />
          <path
             d="m 288.07597,557.96149 -0.48828,-3.35937 h -0.15625 q -1.60156,2.05078 -3.30078,2.91015 -1.67969,0.83985 -3.98437,0.83985 -3.125,0 -4.86329,-1.60156 -1.73828,-1.60157 -1.73828,-4.4336 0,-3.10547 2.57813,-4.82422 2.59765,-1.71875 7.5,-1.8164 l 4.04297,-0.11719 v -1.40625 q 0,-3.02734 -1.23047,-4.57031 -1.23047,-1.54297 -3.96485,-1.54297 -2.94921,0 -6.11328,1.64062 l -0.72265,-1.67968 q 3.49609,-1.64063 6.91406,-1.64063 3.49609,0 5.21484,1.81641 1.73828,1.8164 1.73828,5.66406 v 14.12109 z m -7.8125,-1.36718 q 3.39844,0 5.35157,-1.9336 1.97265,-1.95312 1.97265,-5.41015 v -2.08985 l -3.71094,0.15625 q -4.47265,0.21485 -6.38671,1.40625 -1.89454,1.17188 -1.89454,3.67188 0,1.99218 1.21094,3.10547 1.23047,1.09375 3.45703,1.09375 z"
             style="font-style:normal;font-variant:normal;font-weight:300;font-stretch:normal;font-family:'Open Sans';-inkscape-font-specification:'Open Sans Light';letter-spacing:1.26387px;word-spacing:-5.59854px;fill:#ffffff;stroke:#ffffff"
             id="path901" />
          <path
             d="m 303.22656,556.63337 q 1.83594,0 3.20313,-0.3125 v 1.5625 q -1.40625,0.46875 -3.24219,0.46875 -2.8125,0 -4.16016,-1.50391 -1.32812,-1.5039 -1.32812,-4.72656 v -13.71094 h -3.14453 v -1.13281 l 3.14453,-0.87891 0.97656,-4.80468 h 0.99609 v 5.13671 h 6.23047 v 1.67969 h -6.23047 v 13.4375 q 0,2.44141 0.85938,3.61328 0.85937,1.17188 2.69531,1.17188 z"
             style="font-style:normal;font-variant:normal;font-weight:300;font-stretch:normal;font-family:'Open Sans';-inkscape-font-specification:'Open Sans Light';letter-spacing:1.26387px;word-spacing:-5.59854px;fill:#ffffff;stroke:#ffffff"
             id="path903" />
          <path
             d="m 320.89668,558.35212 q -4.6289,0 -7.22656,-2.85156 -2.57812,-2.85157 -2.57812,-7.98829 0,-5.07812 2.5,-8.125 2.5,-3.0664 6.73828,-3.0664 3.75,0 5.91797,2.61719 2.16796,2.61718 2.16796,7.10937 v 1.5625 h -15.29296 q 0.0391,4.375 2.03125,6.67969 2.01171,2.30469 5.74218,2.30469 1.81641,0 3.1836,-0.25391 1.38672,-0.25391 3.49609,-1.09375 v 1.75781 q -1.79687,0.78125 -3.32031,1.05469 -1.52344,0.29297 -3.35938,0.29297 z m -0.5664,-20.3125 q -3.06641,0 -4.92188,2.03125 -1.85547,2.01172 -2.16797,5.82031 h 13.125 q 0,-3.69141 -1.60156,-5.76172 -1.60156,-2.08984 -4.43359,-2.08984 z"
             style="font-style:normal;font-variant:normal;font-weight:300;font-stretch:normal;font-family:'Open Sans';-inkscape-font-specification:'Open Sans Light';letter-spacing:1.26387px;word-spacing:-5.59854px;fill:#ffffff;stroke:#ffffff"
             id="path905" />
          <path
             d="m 343.3129,536.32087 q 2.30468,0 3.98437,0.83984 1.67969,0.83985 3.00781,2.8711 h 0.11719 q -0.11719,-2.46094 -0.11719,-4.82422 v -7.63672 h 1.91407 v 30.39062 h -1.26953 l -0.48829,-3.24218 h -0.15625 q -2.42187,3.63281 -6.95312,3.63281 -4.39453,0 -6.71875,-2.73438 -2.32422,-2.73437 -2.32422,-7.96875 0,-5.50781 2.30469,-8.41797 2.30469,-2.91015 6.69922,-2.91015 z m 0,1.75781 q -3.47657,0 -5.23438,2.44141 -1.73828,2.4414 -1.73828,7.08984 0,9.02344 7.01172,9.02344 3.59375,0 5.27344,-2.08985 1.67968,-2.08984 1.67968,-6.89453 v -0.33203 q 0,-4.92187 -1.66015,-7.07031 -1.64063,-2.16797 -5.33203,-2.16797 z"
             style="font-style:normal;font-variant:normal;font-weight:300;font-stretch:normal;font-family:'Open Sans';-inkscape-font-specification:'Open Sans Light';letter-spacing:1.26387px;word-spacing:-5.59854px;fill:#ffffff;stroke:#ffffff"
             id="path907" />
        </g>
        <g
           aria-label="sequestration"
           transform="matrix(0.18104454,0,0,0.18104454,71.270693,30.70962)"
           style="font-style:normal;font-weight:normal;font-size:40px;line-height:1.25;font-family:sans-serif;letter-spacing:0px;word-spacing:0px;fill:#ffffff;fill-opacity:1;stroke:#ffffff"
           id="flowRoot10802">
          <path
             d="m 108.14648,552.43415 q 0,2.85156 -2.16796,4.39453 -2.16797,1.52344 -6.152348,1.52344 -4.257813,0 -6.757813,-1.3086 v -2.08984 q 3.203125,1.60156 6.757813,1.60156 3.144528,0 4.765628,-1.03515 1.64062,-1.05469 1.64062,-2.79297 0,-1.60156 -1.30859,-2.69531 -1.28906,-1.09375 -4.25781,-2.14844 -3.183598,-1.15235 -4.472661,-1.97266 -1.289062,-0.83984 -1.953125,-1.875 -0.644531,-1.05469 -0.644531,-2.55859 0,-2.38281 1.992188,-3.76953 2.011718,-1.38672 5.605469,-1.38672 3.4375,0 6.52344,1.28906 l -0.72266,1.75781 q -3.125,-1.28906 -5.80078,-1.28906 -2.597657,0 -4.121094,0.85938 -1.523438,0.85937 -1.523438,2.38281 0,1.66015 1.171875,2.65625 1.191406,0.99609 4.628907,2.22656 2.87109,1.03516 4.17969,1.875 1.30859,0.82031 1.95312,1.875 0.66406,1.05469 0.66406,2.48047 z"
             style="font-style:normal;font-variant:normal;font-weight:300;font-stretch:normal;font-family:'Open Sans';-inkscape-font-specification:'Open Sans Light';letter-spacing:0px;word-spacing:-5.59854px;fill:#ffffff;stroke:#ffffff"
             id="path910" />
          <path
             d="m 122.22852,558.35212 q -4.62891,0 -7.22657,-2.85156 -2.57812,-2.85157 -2.57812,-7.98829 0,-5.07812 2.5,-8.125 2.5,-3.0664 6.73828,-3.0664 3.75,0 5.91797,2.61719 2.16797,2.61718 2.16797,7.10937 v 1.5625 h -15.29297 q 0.0391,4.375 2.03125,6.67969 2.01172,2.30469 5.74219,2.30469 1.8164,0 3.18359,-0.25391 1.38672,-0.25391 3.49609,-1.09375 v 1.75781 q -1.79687,0.78125 -3.32031,1.05469 -1.52344,0.29297 -3.35937,0.29297 z m -0.56641,-20.3125 q -3.06641,0 -4.92188,2.03125 -1.85546,2.01172 -2.16796,5.82031 h 13.125 q 0,-3.69141 -1.60157,-5.76172 -1.60156,-2.08984 -4.43359,-2.08984 z"
             style="font-style:normal;font-variant:normal;font-weight:300;font-stretch:normal;font-family:'Open Sans';-inkscape-font-specification:'Open Sans Light';letter-spacing:0px;word-spacing:-5.59854px;fill:#ffffff;stroke:#ffffff"
             id="path912" />
          <path
             d="m 143.16602,558.35212 q -4.17969,0 -6.48438,-2.77344 -2.30469,-2.77344 -2.30469,-8.00781 0,-5.3711 2.30469,-8.30078 2.30469,-2.94922 6.60156,-2.94922 4.60938,0 6.89453,3.39844 h 0.11719 l 0.35156,-2.98829 h 1.64063 v 30.83985 h -1.91406 v -8.08594 q 0,-2.38281 0.11718,-4.84375 h -0.11718 q -2.30469,3.71094 -7.20703,3.71094 z m 0.0391,-1.71875 q 3.86719,0 5.50781,-2.12891 1.66016,-2.1289 1.66016,-7.14844 v -0.23437 q 0,-4.78516 -1.66016,-6.91406 -1.66016,-2.12891 -5.29297,-2.12891 -3.4375,0 -5.23437,2.42188 -1.77735,2.42187 -1.77735,7.10937 0,4.47266 1.73828,6.75781 1.75782,2.26563 5.0586,2.26563 z"
             style="font-style:normal;font-variant:normal;font-weight:300;font-stretch:normal;font-family:'Open Sans';-inkscape-font-specification:'Open Sans Light';letter-spacing:0px;word-spacing:-5.59854px;fill:#ffffff;stroke:#ffffff"
             id="path914" />
          <path
             d="m 161.11523,536.73102 v 13.75 q 0,3.20313 1.34766,4.66797 1.34766,1.44532 4.17969,1.44532 3.78906,0 5.5664,-1.91407 1.79688,-1.91406 1.79688,-6.23047 v -11.71875 h 1.91406 v 21.23047 h -1.64062 l -0.35157,-2.92968 h -0.11718 q -2.07032,3.32031 -7.36328,3.32031 -7.2461,0 -7.2461,-7.75391 v -13.86719 z"
             style="font-style:normal;font-variant:normal;font-weight:300;font-stretch:normal;font-family:'Open Sans';-inkscape-font-specification:'Open Sans Light';letter-spacing:0px;word-spacing:-5.59854px;fill:#ffffff;stroke:#ffffff"
             id="path916" />
          <path
             d="m 191.60352,558.35212 q -4.62891,0 -7.22657,-2.85156 -2.57812,-2.85157 -2.57812,-7.98829 0,-5.07812 2.5,-8.125 2.5,-3.0664 6.73828,-3.0664 3.75,0 5.91797,2.61719 2.16797,2.61718 2.16797,7.10937 v 1.5625 h -15.29297 q 0.0391,4.375 2.03125,6.67969 2.01172,2.30469 5.74219,2.30469 1.8164,0 3.18359,-0.25391 1.38672,-0.25391 3.49609,-1.09375 v 1.75781 q -1.79687,0.78125 -3.32031,1.05469 -1.52344,0.29297 -3.35937,0.29297 z m -0.56641,-20.3125 q -3.06641,0 -4.92188,2.03125 -1.85546,2.01172 -2.16796,5.82031 h 13.125 q 0,-3.69141 -1.60157,-5.76172 -1.60156,-2.08984 -4.43359,-2.08984 z"
             style="font-style:normal;font-variant:normal;font-weight:300;font-stretch:normal;font-family:'Open Sans';-inkscape-font-specification:'Open Sans Light';letter-spacing:0px;word-spacing:-5.59854px;fill:#ffffff;stroke:#ffffff"
             id="path918" />
          <path
             d="m 218.14648,552.43415 q 0,2.85156 -2.16796,4.39453 -2.16797,1.52344 -6.15235,1.52344 -4.25781,0 -6.75781,-1.3086 v -2.08984 q 3.20312,1.60156 6.75781,1.60156 3.14453,0 4.76563,-1.03515 1.64062,-1.05469 1.64062,-2.79297 0,-1.60156 -1.30859,-2.69531 -1.28906,-1.09375 -4.25781,-2.14844 -3.1836,-1.15235 -4.47266,-1.97266 -1.28906,-0.83984 -1.95313,-1.875 -0.64453,-1.05469 -0.64453,-2.55859 0,-2.38281 1.99219,-3.76953 2.01172,-1.38672 5.60547,-1.38672 3.4375,0 6.52344,1.28906 l -0.72266,1.75781 q -3.125,-1.28906 -5.80078,-1.28906 -2.59766,0 -4.12109,0.85938 -1.52344,0.85937 -1.52344,2.38281 0,1.66015 1.17187,2.65625 1.19141,0.99609 4.62891,2.22656 2.87109,1.03516 4.17969,1.875 1.30859,0.82031 1.95312,1.875 0.66406,1.05469 0.66406,2.48047 z"
             style="font-style:normal;font-variant:normal;font-weight:300;font-stretch:normal;font-family:'Open Sans';-inkscape-font-specification:'Open Sans Light';letter-spacing:0px;word-spacing:-5.59854px;fill:#ffffff;stroke:#ffffff"
             id="path920" />
          <path
             d="m 229.25977,556.63337 q 1.83593,0 3.20312,-0.3125 v 1.5625 q -1.40625,0.46875 -3.24219,0.46875 -2.8125,0 -4.16015,-1.50391 -1.32813,-1.5039 -1.32813,-4.72656 v -13.71094 h -3.14453 v -1.13281 l 3.14453,-0.87891 0.97656,-4.80468 h 0.9961 v 5.13671 h 6.23047 v 1.67969 h -6.23047 v 13.4375 q 0,2.44141 0.85937,3.61328 0.85938,1.17188 2.69532,1.17188 z"
             style="font-style:normal;font-variant:normal;font-weight:300;font-stretch:normal;font-family:'Open Sans';-inkscape-font-specification:'Open Sans Light';letter-spacing:0px;word-spacing:-5.59854px;fill:#ffffff;stroke:#ffffff"
             id="path922" />
          <path
             d="m 245.45117,536.32087 q 1.34766,0 2.89063,0.27344 l -0.3711,1.85546 q -1.32812,-0.33203 -2.7539,-0.33203 -2.71485,0 -4.45313,2.30469 -1.73828,2.30469 -1.73828,5.82031 v 11.71875 h -1.93359 v -21.23047 h 1.64062 l 0.19531,3.82813 h 0.13672 q 1.3086,-2.34375 2.79297,-3.28125 1.48438,-0.95703 3.59375,-0.95703 z"
             style="font-style:normal;font-variant:normal;font-weight:300;font-stretch:normal;font-family:'Open Sans';-inkscape-font-specification:'Open Sans Light';letter-spacing:0px;word-spacing:-5.59854px;fill:#ffffff;stroke:#ffffff"
             id="path924" />
          <path
             d="m 265.5293,557.96149 -0.48828,-3.35937 h -0.15625 q -1.60157,2.05078 -3.30079,2.91015 -1.67968,0.83985 -3.98437,0.83985 -3.125,0 -4.86328,-1.60156 -1.73828,-1.60157 -1.73828,-4.4336 0,-3.10547 2.57812,-4.82422 2.59766,-1.71875 7.5,-1.8164 l 4.04297,-0.11719 v -1.40625 q 0,-3.02734 -1.23047,-4.57031 -1.23047,-1.54297 -3.96484,-1.54297 -2.94922,0 -6.11328,1.64062 l -0.72266,-1.67968 q 3.49609,-1.64063 6.91406,-1.64063 3.4961,0 5.21485,1.81641 1.73828,1.8164 1.73828,5.66406 v 14.12109 z m -7.8125,-1.36718 q 3.39843,0 5.35156,-1.9336 1.97266,-1.95312 1.97266,-5.41015 v -2.08985 l -3.71094,0.15625 q -4.47266,0.21485 -6.38672,1.40625 -1.89453,1.17188 -1.89453,3.67188 0,1.99218 1.21094,3.10547 1.23046,1.09375 3.45703,1.09375 z"
             style="font-style:normal;font-variant:normal;font-weight:300;font-stretch:normal;font-family:'Open Sans';-inkscape-font-specification:'Open Sans Light';letter-spacing:0px;word-spacing:-5.59854px;fill:#ffffff;stroke:#ffffff"
             id="path926" />
          <path
             d="m 279.41602,556.63337 q 1.83593,0 3.20312,-0.3125 v 1.5625 q -1.40625,0.46875 -3.24219,0.46875 -2.8125,0 -4.16015,-1.50391 -1.32813,-1.5039 -1.32813,-4.72656 v -13.71094 h -3.14453 v -1.13281 l 3.14453,-0.87891 0.97656,-4.80468 h 0.9961 v 5.13671 h 6.23047 v 1.67969 h -6.23047 v 13.4375 q 0,2.44141 0.85937,3.61328 0.85938,1.17188 2.69532,1.17188 z"
             style="font-style:normal;font-variant:normal;font-weight:300;font-stretch:normal;font-family:'Open Sans';-inkscape-font-specification:'Open Sans Light';letter-spacing:0px;word-spacing:-5.59854px;fill:#ffffff;stroke:#ffffff"
             id="path928" />
          <path
             d="m 289.18164,557.96149 h -1.93359 v -21.23047 h 1.93359 z m -2.20703,-27.1289 q 0,-1.875 1.23047,-1.875 0.60547,0 0.9375,0.48828 0.35156,0.48828 0.35156,1.38672 0,0.8789 -0.35156,1.38672 -0.33203,0.50781 -0.9375,0.50781 -1.23047,0 -1.23047,-1.89453 z"
             style="font-style:normal;font-variant:normal;font-weight:300;font-stretch:normal;font-family:'Open Sans';-inkscape-font-specification:'Open Sans Light';letter-spacing:0px;word-spacing:-5.59854px;fill:#ffffff;stroke:#ffffff"
             id="path930" />
          <path
             d="m 313.86914,547.31696 q 0,5.19531 -2.51953,8.125 -2.51953,2.91016 -6.95313,2.91016 -2.79296,0 -4.92187,-1.34766 -2.12891,-1.34765 -3.26172,-3.86719 -1.13281,-2.51953 -1.13281,-5.82031 0,-5.19531 2.51953,-8.08594 2.51953,-2.91015 6.91406,-2.91015 4.375,0 6.85547,2.94922 2.5,2.92968 2.5,8.04687 z m -16.75781,0 q 0,4.375 1.91406,6.83594 1.93359,2.44141 5.44922,2.44141 3.51562,0 5.42969,-2.44141 1.93359,-2.46094 1.93359,-6.83594 0,-4.39453 -1.95312,-6.8164 -1.9336,-2.42188 -5.44922,-2.42188 -3.51563,0 -5.42969,2.42188 -1.89453,2.40234 -1.89453,6.8164 z"
             style="font-style:normal;font-variant:normal;font-weight:300;font-stretch:normal;font-family:'Open Sans';-inkscape-font-specification:'Open Sans Light';letter-spacing:0px;word-spacing:-5.59854px;fill:#ffffff;stroke:#ffffff"
             id="path932" />
          <path
             d="m 334.55273,557.96149 v -13.76953 q 0,-3.20312 -1.34765,-4.64844 -1.34766,-1.46484 -4.17969,-1.46484 -3.80859,0 -5.58594,1.93359 -1.75781,1.91407 -1.75781,6.23047 v 11.71875 h -1.93359 v -21.23047 h 1.64062 l 0.3711,2.91016 h 0.11718 q 2.07032,-3.32031 7.36328,-3.32031 7.22657,0 7.22657,7.7539 v 13.88672 z"
             style="font-style:normal;font-variant:normal;font-weight:300;font-stretch:normal;font-family:'Open Sans';-inkscape-font-specification:'Open Sans Light';letter-spacing:0px;word-spacing:-5.59854px;fill:#ffffff;stroke:#ffffff"
             id="path934" />
        </g>
        <path
           id="path1293"
           d="m 78.312884,132.88251 c -0.250172,-0.0674 -0.474887,-0.19745 -0.677135,-0.39198 -0.20284,-0.19511 -0.344739,-0.39905 -0.384674,-0.55288 -0.01563,-0.0602 -0.06043,-0.19861 -0.09957,-0.30762 -0.09472,-0.26379 -0.143374,-1.17986 -0.11754,-2.21301 0.02274,-0.90958 0.05753,-1.30649 0.191062,-2.17998 0.116335,-0.76099 0.158186,-1.65378 0.09768,-2.08371 -0.04519,-0.32112 -0.178789,-1.04318 -0.247967,-1.34024 -0.172898,-0.74241 -0.232184,-1.91484 -0.134519,-2.66012 0.09415,-0.71849 0.157424,-0.9407 0.345191,-1.21231 0.225011,-0.32549 0.53074,-0.61227 1.007502,-0.94504 0.217997,-0.15216 0.518983,-0.39819 0.668857,-0.54673 l 0.272497,-0.27007 v -0.43364 -0.43364 H 78.96555 78.696832 l 0.02125,-0.80097 c 0.0117,-0.44054 0.03037,-1.03267 0.0415,-1.31584 l 0.02023,-0.51486 1.917731,-0.0213 c 1.054754,-0.0118 1.925925,-0.0132 1.935936,-0.004 0.02014,0.0201 0.09545,1.75046 0.09944,2.28469 l 0.0025,0.33855 h -0.2525 -0.252501 l 0.02106,0.22296 c 0.01159,0.12262 0.02116,0.31657 0.02129,0.43099 l 2.49e-4,0.20802 0.226084,0.22297 c 0.124344,0.12263 0.45099,0.37577 0.725879,0.56255 0.543596,0.36934 0.877997,0.67698 1.090625,1.00334 0.108343,0.16629 0.153099,0.28356 0.217953,0.57109 0.122939,0.54507 0.183675,1.0862 0.183675,1.63648 0,0.62409 -0.03396,0.93128 -0.218762,1.9788 -0.230447,1.30627 -0.229983,1.67413 0.0039,3.05527 0.1263,0.74599 0.167667,1.06946 0.214984,1.68107 0.04149,0.53622 0.0419,2.31048 6.24e-4,2.59622 -0.07362,0.50941 -0.467437,1.04041 -0.947678,1.27775 l -0.2485,0.12281 -0.682167,0.0233 c -0.375193,0.0128 -1.507091,0.0313 -2.51533,0.0408 -1.539362,0.0147 -1.861725,0.01 -2.011371,-0.0304 z"
           style="fill:#ff7f2a;fill-opacity:1;stroke:#ffffff;stroke-width:3.57861;stroke-miterlimit:4;stroke-dasharray:none;paint-order:markers stroke fill" />
      </g>
    </g>
    <g
       transform="matrix(2.5159722,0,0,2.5159722,400.65362,-131.67093)"
       id="g19127"
       inkscape:export-xdpi="308.56387"
       inkscape:export-ydpi="308.56387" />
  </g>
</svg>
