<?xml version="1.0" encoding="UTF-8"?>
<!-- Created with Inkscape (http://www.inkscape.org/) -->
<svg width="92.578mm" height="132.88mm" version="1.1" viewBox="0 0 92.578 132.88" xmlns="http://www.w3.org/2000/svg" xmlns:cc="http://creativecommons.org/ns#" xmlns:dc="http://purl.org/dc/elements/1.1/" xmlns:rdf="http://www.w3.org/1999/02/22-rdf-syntax-ns#">
 <metadata>
  <rdf:RDF>
   <cc:Work rdf:about="">
    <dc:format>image/svg+xml</dc:format>
    <dc:type rdf:resource="http://purl.org/dc/dcmitype/StillImage"/>
   </cc:Work>
  </rdf:RDF>
 </metadata>
 <g transform="translate(-58.033 -70.296)">
  <rect transform="rotate(90)" x="72.762" y="-144.47" width="127.95" height="83.969" ry="7.3912" fill="#ccc" stroke="#666" stroke-width="4.9315"/>
  <path d="m145.01 184.76-44.986 6.2193c-0.0327 0.69519-0.14016 2.044 0.60815 2.8708l44.493-7.7382c2.6858-0.85013 2.5207-1.2822-0.11474-1.3519z" fill="#666"/>
  <path d="m101.21 190.6c-1.0984-0.12433-2.1832-0.34811-3.38 0.2431 0 0-2.3847 1.592-3.5115 1.6543-1.1268 0.0622-3.8406-0.32768-1.2455 0.22228 2.2318 0.63233 5.0405 1.698 6.2734 0.8495l2.1544-1.2237" fill="#666"/>
  <path d="m62.524 160.9 80.028-0.75102s3.1895 36.551 0.57991 38.053l-2.6096 1.5021-77.128-0.75105-3.7694-5.2573z" fill="#808000" opacity=".3" stroke="#000" stroke-width=".24585px"/>
  <ellipse cx="132.22" cy="162.62" rx="4.9028" ry=".90166" fill="#6e6e48" opacity=".9"/>
  <g>
   <rect transform="rotate(90)" x="72.762" y="-144.47" width="127.95" height="83.969" ry="7.3912" fill="none" stroke="#666" stroke-width="4.9315"/>
   <path d="m127.75 161.21c-0.0132 0.55959 0.0566 1.057 0.46471 1.3006 2.2194 0.16568 4.6057 0.1883 7.3494-0.0955 0.3972-0.12581 0.78238-0.26517 0.76358-0.859l-0.0954-4.7723c-0.34024-0.75833-0.79869-0.80741-1.2408-0.95446h-1.4317l-0.38179-1.8135s-2.1953 0.19089-2.3862 0.0955l-0.19089-0.0955c0.0285 0.71363-0.0128 1.2878-0.0903 1.7894l-1.5852 0.0415c-0.55885 0.3116-0.82264 0.55012-1.2782 1.2234z" fill="#4b4b8e" stroke="#000" stroke-width=".15844px"/>
   <path d="m80.934 156.7 45.764 1.3681 7.6856 14.023-61.484-0.68402z" fill="#4d4d4d" stroke="#000" stroke-width=".31541px"/>
  </g>
  <ellipse cx="103.28" cy="166.6" rx="19.446" ry="3.8254" opacity=".3"/>
  <g stroke="#000">
   <path d="m72.906 171.4-5.1491 10.946 69.762 0.43574-3.1433-10.623" fill="#808080" stroke-width=".33215px"/>
   <path d="m67.757 182.35-0.18437 1.8818 69.869 0.39618 0.0856-1.9025" fill="#b3b3b3" stroke-width=".31541px"/>
   <path d="m84.093 172.39 39.007 0.41725 2.8443 8.7201-45.672-0.34417z" fill="#ccc" stroke-width=".35384px"/>
  </g>
  <g fill="#008080" stroke="#008080" stroke-linecap="round" stroke-linejoin="round" stroke-width=".60854">
   <path d="m99.332 173.72-2.9077-0.0249"/>
   <path d="m98.416 176.75 0.5961-2.1766"/>
   <path d="m104.22 177.24-2.9077-0.0249"/>
   <path d="m93.634 179.66 0.87786-2.1766"/>
   <path d="m97.539 180.1-2.9077-0.0249"/>
   <path d="m104.87 173.74-2.9077-0.0249"/>
   <path d="m105.01 176.77 0.37068-2.4583"/>
   <path d="m97.619 176.83-2.9077-0.0249"/>
   <path d="m103.54 180.15-2.9077-0.0249"/>
   <path d="m107.16 176.63-0.11955-2.4306"/>
   <path d="m110.91 176.66-2.9077-0.0249"/>
   <path d="m104.51 180.2 0.37068-2.4583"/>
   <path d="m111.84 176.58-0.40131-2.4306"/>
   <path d="m112.34 180.01-0.40131-2.4306"/>
  </g>
  <ellipse cx="114" cy="180.05" rx=".33812" ry=".25359" stroke="#008080" stroke-width=".60854"/>
  <g fill="#008080" stroke="#008080" stroke-linecap="round" stroke-linejoin="round" stroke-width=".60854">
   <path d="m116.18 176.74-0.73943-2.487"/>
   <path d="m119.98 176.99-2.9077-0.0249"/>
   <path d="m121 176.86-0.73943-2.487"/>
   <path d="m122.07 180.46-0.73944-2.487"/>
   <path d="m119.27 173.89-2.9077-0.0249"/>
  </g>
  <g transform="matrix(.10015 -.00068781 .00068781 .10015 198.1 75.862)">
   <path d="m-812.7 574.27c10.146-64.939 26.602-104.58 4.508-190.93-27.758-46.496-56.703-43.457-87.078-80.682-0.495-22.531-1.084-43.114-1.307-67.185-0.189-19.007-20.554-20.558-42.066-20.037l-0.015-0.36c-1.336 0.211-2.763 0.363-4.227 0.49-4.539 0.153-9.082 0.344-13.446 0.443-4.373-0.018-8.913-0.131-13.459-0.199-1.454-0.109-2.886-0.228-4.217-0.42l-2e-3 0.359c-21.543-0.13-41.868 1.786-41.717 20.791 0.2 24.069-0.02 44.646-0.108 67.2-29.692 37.765-58.711 35.245-85.63 82.208-20.522 86.752-3.358 126.06 7.947 190.82 8.601 86.446-18.532 87.433-11.085 247.5 0 70.591 79.621 86.599 150.75 86.599 71.128 0 156.66-13.825 156.66-89.344 4.583-160.17-22.563-160.68-15.507-247.26z" fill="#99fff0"/>
   <path d="m-812.7 574.27c10.146-64.939 26.602-104.58 4.508-190.93-27.758-46.496-56.703-43.457-87.078-80.682-0.495-22.531-1.084-43.114-1.307-67.185-0.189-19.007-20.554-20.558-42.066-20.037l-0.015-0.36c-1.336 0.211-2.763 0.363-4.227 0.49-4.539 0.153-9.082 0.344-13.446 0.443-4.373-0.018-8.913-0.131-13.459-0.199-1.454-0.109-2.886-0.228-4.217-0.42l-2e-3 0.359c-21.543-0.13-41.868 1.786-41.717 20.791 0.2 24.069-0.02 44.646-0.108 67.2-29.692 37.765-58.711 35.245-85.63 82.208-20.522 86.752-3.358 126.06 7.947 190.82 8.601 86.446-18.532 87.433-11.085 247.5 0 70.591 79.621 86.599 150.75 86.599 71.128 0 156.66-13.825 156.66-89.344 4.583-160.17-22.563-160.68-15.507-247.26z" fill="none" stroke="#231f20" stroke-linecap="round" stroke-linejoin="round" stroke-miterlimit="10" stroke-width="12.376"/>
   <path d="m-837.35 384.08c-31.619-40.601-78.237-43.035-78.971-85.28-20.373 9.702-55.832 10.123-74.706 0.65458 2.5151 40.516-60.303 58.145-82.797 94.813-24.739 48.75-3.483 152.78-3.483 152.78l52.343 112.71h108.31l89.506-114.13c12.203-95.874 1.0072-147.16-10.197-161.55z" enable-background="new    " fill="#0f0"/>
   <path d="m-820.88 756.1c-1.376-49.433-7.243-73.229-10.78-97.233-0.531-3.659-1.026-7.339-1.43-11.102 0 0-73.958-34.182-142.4 11.469-33.215 22.154-91.433-10.369-91.433-10.369-0.383 3.77-0.812 7.455-1.313 11.125-3.287 24.03-8.897 47.884-9.752 97.326 0 0 41.325-12.488 96.159 10.539 79.608 33.442 160.95-11.755 160.95-11.755z" enable-background="new    " fill="#f0f"/>
   <path d="m-975.49 659.24c68.443-45.65 142.4-11.469 142.4-11.469-1.444-13.404-4.1304-27.128-2.4684-47.105 1.9743-18.437 3.2371-36.395 8.4073-55.033 0 0-80.275 45.191-156.94 0.97175-51.458-29.68-93.214 0.448-93.214 0.448 2.896 17.06 6.808 34.067 10.1 53.824 1.872 19.968 1.573 34.592 0.282 47.993 0 1e-3 58.217 32.525 91.433 10.37z" enable-background="new    " fill="#ff0"/>
   <path d="m-820.79 760.69c-0.021-1.521-0.068-3.097-0.091-4.583 0 0-81.342 45.196-160.95 11.755-54.834-23.027-96.159-10.539-96.159-10.539-0.022 1.49-0.028 3.061-0.048 4.594-0.153 14.498 0.073 31.016 0.876 50.343 0 54.962 81.585 67.332 128.85 67.332 52.44 0 127.18-10.913 127.18-68.535 0.168-19.346 0.636-35.867 0.341-50.367z" fill="#f00"/>
   <path d="m-1076.4 555.28c-10.362-43.07-12.239-91.328-7.4717-136.98 55.436 5.3732 64.225 33.398 115.81 36.072 39.382 0.99621 116.22-42.968 144.92-34.174 4.9573 38.72 4.2447 68.492-4.0558 125.44-30.143 18.315-56.931 23.025-87.074 22.018-43.584-0.12238-62.113-21.568-109.48-32.908-20.674-4.5939-33.316 5.2316-52.649 20.538z" fill="#ff7400"/>
   <g stroke="#231f20">
    <path d="m-879.09 260.43-4.673-67.715c0.526-14.221-26.441-28.291-69.154-29.874-42.711-1.583-71.475 9.104-72.002 23.327l-8.838 68.531c-0.53 14.24 33.667 27.057 76.377 28.633 42.711 1.59 77.761-8.662 78.29-22.902z" fill="#99fff0" stroke-miterlimit="10" stroke-width="12.375"/>
    <path d="m-879.33 233.13 0.578-69.009c0.117-14.232-34.43-26.07-77.171-26.425-42.738-0.36-77.477 10.896-77.6 25.124l-0.578 69.01c-0.121 14.25 34.428 26.083 77.165 26.434 42.743 0.367 77.485-10.887 77.606-25.134z" fill="#2479b3" stroke-miterlimit="10" stroke-width="12.375"/>
    <ellipse cx="-956.92" cy="159.66" rx="76.77" ry="24.052" fill="#3f9ad8" stroke-width="10.314"/>
   </g>
   <path d="m-913.02 379.91c3.848-13.089 5.3951-18.838 31.111-15.29 52.269 36.18 45.525 62.941 44.729 108.83-2.0682 18.178-42.622 14.441-43.146 4.266 5.7632-43.652 2.2307-75.153-32.694-97.806z" fill="#fff"/>
  </g>
  <g>
   <g transform="matrix(.27114 0 0 .25972 -65.044 110.9)" aria-label="Ani Himawati 18/15/2017  235g ">
    <path d="m589.29 138.36c6.9295-1.6276 5.3806 10.649-0.51974 8.0096-3.5094 1.247 1.2817-6.8882 0.51974-8.0096zm0.89844 4.7656c6.0855-1.2013-3.4544-6.4361 0 0z"/>
    <path d="m595.59 139.99c6.4923-4.2062 4.7595 12.129 2.34 1.1979-1.6668 7.3604-5.1286 3.1312-2.4885-1.0725z"/>
    <path d="m602.93 140.31c3.361 8.9627-6.1891 4.5247 0 0zm-1.1719-2.3242c5.4281-1.688-1.5745 5.1653 0 0z"/>
    <path d="m609.99 136.77c1.1326 7.0253 7.2631-1.5338 3.9151 7.5862-5.8535 6.4331-5.5093-4.3622-3.9151-7.5862z"/>
    <path d="m616.99 140.31c3.361 8.9627-6.1891 4.5247 0 0zm-1.1719-2.3242c5.4281-1.688-1.5745 5.1653 0 0z"/>
    <path d="m619.4 140.04c5.8743-5.3944 7.4744 11.101 4.6194 1.96-3.2018 5.5657-2.7894-0.63551-5.3016 3.9303-0.92555-1.7008-1.238-4.7567 0.68215-5.8903z"/>
    <path d="m626.43 140.92c8.5916-5.9536-0.80278 14.016 2.3959 1.4075 2.1832-1.2791-2.7898-1.5483-2.3959-1.4075zm2.6237 3.099c-5.3288-0.62205 2.4995 3.9332 0 0z"/>
    <path d="m632.2 140.04c-0.0465 8.0129 10.926-2.7457 4.0363 7.1077-3.6646 1.6575-6.7756-4.7004-4.0363-7.1077z"/>
    <path d="m639.42 140.92c8.5916-5.9536-0.80273 14.016 2.396 1.4075 2.1833-1.2791-2.7899-1.5483-2.396-1.4075zm2.6237 3.099c-5.3288-0.62206 2.4995 3.9332 0 0z"/>
    <path d="m645.52 137.74c5.2074 7.5139-1.5284 13.154-1.2781 2.7111z"/>
    <path d="m651.47 140.31c3.3608 8.9631-6.1892 4.5242 0 0zm-1.1719-2.3242c5.4281-1.688-1.5745 5.1653 0 0z"/>
    <path d="m591.17 154.32c6.1419 7.119-4.5336 12.257 0 0z"/>
    <path d="m598.17 154.23c9.0527 12.255-12.068 9.7074-1.964-0.4273zm-2.1029 1.1849c-2.5758 6.586 6.778-0.66972 0 0zm7e-3 4.2643c-4.6604 6.8419 8.8037-0.71635 0 0z"/>
    <path d="m605.1 153.48c1.4249 9.915-8.4766 11.224 0 0z"/>
    <path d="m607.78 154.32c6.1419 7.119-4.5336 12.257 0 0z"/>
    <path d="m617.19 154.49c-10.614 1.2001 3.7365 7.3358-4.2305 8.2382-0.34307-2.1357-7.2756-9.8376 2.1255-9.4209z"/>
    <path d="m621.64 153.48c1.4251 9.9151-8.4769 11.224 0 0z"/>
    <path d="m622.84 156.67c5.8195-9.0475 8.5737 9.9745 2.8368 6.2582-8.0749-0.41139 9.3572-7.64-2.8368-6.2582z"/>
    <path d="m634.7 153.87c11.811 5.1278-10.294 15.674-3.8265 1.6269 0.72829-1.2725 2.347-2.2257 3.8265-1.6269zm-0.7552 2.0833c-8.9811 8.6479 10.732 6.5005 0 0z"/>
    <path d="m640.21 154.32c6.1419 7.119-4.5336 12.257 0 0z"/>
    <path d="m644.02 153.74c10.36-2.5717-1.8258 15.648 2.2436 2.6725-3.1124 3.0952-6.2512-1.1666-2.2436-2.6725z"/>
    <path d="m598.92 171.76c2.2879-12.93 18.329 5.7208 4.8792 6.4335 13.81 5.5513-12.46 5.3611-0.0904-2.8448 6.2439-6.8593-3.6276-1.6106-4.7888-3.5887z"/>
    <path d="m612.13 168.02c10.931-1.1191 4.7699 20.955-0.19132 11.263 9.0709-0.0962-3.361-8.4731 0.47242-7.8188-2.9188 1.0109-2.9461-3.3876-0.2811-3.4438z"/>
    <path d="m630.29 168.53c-2.6753 3.1106-14.475 3.4891-3.3134 5.4206 6.5625 5.3894-7.875 12.002-0.95962 3.5764-13.782-1.3652-4.3818-15.856 4.273-8.997z"/>
    <path d="m638.25 172.08c9.4939 4.7142-5.0771 20.377-3.6456 10.3-8.8189-2.2806-3.2607-13.075 3.6456-10.3zm-1.0002 3.0104c-10.292-0.38446 4.4305 11.876 0 0z"/>
   </g>
   <g transform="matrix(0 -.36127 .3537 0 52.93 353.52)" opacity=".9" aria-label="A1234      ">
    <path d="m591.1 132.09c7.0904-8.5667 12.558 14.284 8.0089 15.566-3.8066-6.3512-7.978-0.98635-11.042 0.60378-0.3685-5.5152 2.069-10.81 3.033-16.17zm1.8349 9.7331c8.8614 1.8403-1.6569-14.985-0.56076-1.8288l0.049 1.0001z"/>
    <path d="m605.1 130.29c7.5764-0.4204 1.9422 21.729-0.93378 16.77 2.691-5.9223-3.8883-13.144 0.93378-16.77z"/>
    <path d="m609.78 135.08c-0.13022-12.798 22.214-4.8938 12.486 4.8915-4.8884 3.6192-7.4125 5.4513-0.25245 6.1546 1.2434 8.9357-20.929-0.26011-6.8624-3.9091 8.1726-3.1838 1.9431-13.145-2.311-5.0726-1.4637 0.8106-3.1015-0.48753-3.0597-2.0644z"/>
    <path d="m628.04 129.91c8.8486-2.9953 5.1773 9.0494 9.9119 12.349 1.4782 8.0988-16.023 9.1481-10.445 2.6576 8.8459 2.138 6.6931-6.6123-0.4384-6.7505 5.3415-4.8506 1.7862-2.9802-1.9276-5.9961 0.13128-1.9418 1.6999-1.8392 2.8988-2.2604z"/>
    <path d="m642.45 129.46c-1.7136 5.0119 1.6033 16.012 4.4653 5.968 9.1987-6.4548 1.5988 22.758-1.8995 9.5475-8.0898-0.90002-9.0777-13.379-2.5658-15.516z"/>
   </g>
   <path d="m130.22 154.06 3.442-0.0675-0.2407-2.1674-3.1062 0.10734z" fill="#4b4b8e" stroke="#000" stroke-width=".15844px"/>
  </g>
  <path d="m148.33 182.76-46.967 6.2193c-0.0341 0.69519-0.14634 2.044 0.63491 2.8708l46.452-7.7382c2.8041-0.85013 2.6317-1.2822-0.11979-1.3519z" fill="#a05a2c" stroke="#000" stroke-width=".26458px"/>
  <path d="m101.2 189.54c-1.0984-0.12432-2.1832-0.34808-3.38 0.24313 0 0-2.3847 1.592-3.5115 1.6543-1.1268 0.0623-3.8406-0.32769-1.2455 0.22228 2.2318 0.63233 5.0405 1.6981 6.2734 0.8495l2.1544-1.2237" fill="#333" stroke="#000" stroke-width=".26458px"/>
  <g>
   <rect x="128.98" y="157.17" width="6.4525" height="4.3392" ry=".64806" fill="#7a7ac4" opacity=".9"/>
   <text x="129.89081" y="159.2366" fill="#4b4b8e" font-family="sans-serif" font-size="2.3258px" letter-spacing="0px" stroke="#4b4b8e" stroke-width=".058144" word-spacing="0px" style="line-height:1.25" xml:space="preserve"><tspan x="129.89081" y="159.2366" fill="#4b4b8e" font-family="'Roadshow IAIC 2013'" letter-spacing="-.013229px" stroke="#4b4b8e" stroke-width=".058144" style="line-height:0">perm.</tspan><tspan x="129.89081" y="162.14383"/></text>
   <text x="130.53322" y="160.88898" fill="#4b4b8e" font-family="sans-serif" font-size="1.8587px" letter-spacing="0px" stroke="#4b4b8e" stroke-width=".046468" word-spacing="0px" style="line-height:1.25" xml:space="preserve"><tspan x="130.53322" y="160.88898" fill="#4b4b8e" font-family="'Roadshow IAIC 2013'" letter-spacing="-.010573px" stroke="#4b4b8e" stroke-width=".046468" style="line-height:0">paint</tspan><tspan x="130.53322" y="163.2124"/></text>
  </g>
 </g>
</svg>
