<?xml version="1.0" encoding="UTF-8"?>
<svg width="352.92mm" height="163.09mm" version="1.1" xmlns="http://www.w3.org/2000/svg" xmlns:cc="http://creativecommons.org/ns#" xmlns:dc="http://purl.org/dc/elements/1.1/" xmlns:rdf="http://www.w3.org/1999/02/22-rdf-syntax-ns#" xmlns:xlink="http://www.w3.org/1999/xlink">
 <defs>
  <linearGradient id="linearGradient39864" x1="-788.88" x2="-785.37" y1="-398.1" y2="-526.53" gradientTransform="translate(-3.675 -2.5101)" gradientUnits="userSpaceOnUse">
   <stop stop-color="#2a91da" offset="0"/>
   <stop stop-color="#2a91da" stop-opacity="0" offset="1"/>
  </linearGradient>
 </defs>
 <metadata>
  <rdf:RDF>
   <cc:Work rdf:about="">
    <dc:format>image/svg+xml</dc:format>
    <dc:type rdf:resource="http://purl.org/dc/dcmitype/StillImage"/>
   </cc:Work>
  </rdf:RDF>
 </metadata>
 <g transform="translate(383.9 73.017)">
  <g transform="translate(-39.626 -35.664)" fill="#008080">
   <g transform="matrix(-1.2914 0 0 -1.4244 1319.9 1115.6)">
    <g>
     <path d="m255.78 376.73h1032.9v432.75h-1032.9v-432.75z" color="#000000" fill="#2a91da" stroke-width="0"/>
     <path d="m1235.9 554.9c26.406 2.5628 51.764 13.899 69.199 32.198 26.116 25.376 34.026 63.885 22.242 96.582-12.12 32.379-43.563 58.145-80.685 64.839-34.345 6.4186-72.026-2.7372-96.944-25.425-32.017-26.909-42.103-72.064-25.009-108.36 9.128-20.495 26.958-37.487 47.946-48.429 19.329-9.2557 41.462-13.529 63.252-11.405zm-26.196 70.312c-19.735 7.5707-26.575 32.892-12.614 47.725 6.4717 8.2965 17.392 12.682 28.485 12.237 21.352 0.82946 38.656-20.467 32.836-38.888-3.5607-15.797-21.812-26.567-39.149-23.694-3.3017 0.45532-6.5352 1.3301-9.5582 2.6195z" fill="#fff" opacity=".09"/>
     <path d="m1149 670.75c10.754 1.0437 21.081 5.6606 28.181 13.113 10.636 10.334 13.857 26.017 9.0579 39.333-4.936 13.187-17.741 23.68-32.859 26.406-13.987 2.614-29.334-1.1147-39.482-10.354-13.039-10.959-17.146-29.348-10.185-44.13 3.7172-8.3468 10.979-15.267 19.526-19.723 7.8721-3.7694 16.886-5.5098 25.76-4.6448zm-10.669 28.635c-8.0373 3.0832-10.823 13.396-5.1371 19.436 2.6358 3.3788 7.0831 5.1647 11.601 4.9835 8.6954 0.33779 15.743-8.3354 13.372-15.837-1.4502-6.4334-8.8829-10.819-15.943-9.6494-1.3448 0.18532-2.6616 0.54171-3.8928 1.0668z" fill="#1a1a1a" opacity=".2"/>
     <g transform="matrix(-1.3051 1.3051 -1.3051 -1.3051 73.605 395.11)" fill="#3f9ad8" stroke="#2479b3" stroke-width=".74495">
      <path d="m0 0c-8.6509-2.8847 5.7364-0.47191 0 0z" fill="#3f9ad8" stroke="#2479b3" stroke-width=".74495"/>
     </g>
     <path d="m955.99 453.89c8.057 0.78198 15.794 4.241 21.114 9.8242 7.9687 7.7426 10.382 19.493 6.7863 29.469-3.6981 9.8796-13.292 17.741-24.618 19.784-10.479 1.9584-21.977-0.83517-29.58-7.7576-9.7688-8.2104-12.846-21.988-7.6306-33.063 2.785-6.2536 8.2253-11.438 14.629-14.777 5.8979-2.8241 12.651-4.128 19.3-3.4799zm-7.9933 21.453c-6.0216 2.31-8.1087 10.036-3.8488 14.562 1.9748 2.5314 5.3068 3.8695 8.6916 3.7337 6.5147 0.25308 11.795-6.245 10.019-11.865-1.0865-4.82-6.6552-8.1061-11.945-7.2295-1.0076 0.13885-1.9941 0.40586-2.9166 0.79925z" fill="#1a1a1a" opacity=".2"/>
     <path d="m843.43 629.46c13.35 1.2957 26.17 7.0272 34.985 16.278 13.204 12.829 17.203 32.299 11.245 48.829-6.1276 16.37-22.024 29.396-40.792 32.781-17.364 3.245-36.415-1.3838-49.013-12.854-16.187-13.604-21.286-36.434-12.644-54.784 4.6146-10.362 13.629-18.952 24.24-24.484 9.7726-4.6794 20.963-6.8399 31.979-5.7661zm-13.245 35.548c-9.9777 3.8275-13.436 16.63-6.3773 24.128 3.2721 4.1945 8.7931 6.4116 14.402 6.1866 10.795 0.41934 19.543-10.348 16.601-19.66-1.8003-7.9865-11.027-13.431-19.792-11.979-1.6695 0.23006-3.3042 0.67249-4.8326 1.3243z" fill="#1a1a1a" opacity=".2"/>
     <path d="m1139.4 521.84c9.6722 0.93876 18.96 5.0913 25.347 11.794 9.5664 9.295 12.464 23.401 8.147 35.377-4.4395 11.86-15.957 21.298-29.554 23.75-12.58 2.3511-26.383-1.0026-35.511-9.3129-11.727-9.8565-15.422-26.397-9.1604-39.692 3.3434-7.5074 9.8744-13.731 17.562-17.739 7.0803-3.3903 15.188-4.9556 23.169-4.1776zm-9.5959 25.755c-7.2291 2.7731-9.7343 12.048-4.6204 17.481 2.3707 3.039 6.3707 4.6453 10.434 4.4823 7.8208 0.30382 14.159-7.497 12.027-14.244-1.3044-5.7864-7.9896-9.7313-14.34-8.6789-1.2095 0.16668-2.3938 0.48723-3.5012 0.95949z" fill="#fff" opacity=".2"/>
     <path d="m736.57 496.21c6.3964 0.62081 12.539 3.3669 16.762 7.7994 6.3263 6.1468 8.2423 15.475 5.3876 23.395-2.9359 7.8433-10.552 14.085-19.545 15.706-8.3196 1.5548-17.448-0.66303-23.484-6.1587-7.7554-6.5182-10.199-17.456-6.0579-26.248 2.211-4.9647 6.53-9.0805 11.614-11.731 4.6823-2.242 10.044-3.2772 15.322-2.7627zm-6.3458 17.032c-4.7806 1.8339-6.4374 7.9677-3.0555 11.561 1.5678 2.0097 4.213 3.072 6.9002 2.9642 5.172 0.20092 9.3637-4.9579 7.9538-9.4198-0.86257-3.8266-5.2835-6.4354-9.4831-5.7394-0.79989 0.11021-1.5831 0.3222-2.3154 0.63452z" fill="#fff" opacity=".2"/>
     <path d="m520.04 386.2c22.586 2.1922 44.276 11.889 59.189 27.541 22.339 21.705 29.105 54.645 19.024 82.612-10.367 27.696-37.262 49.734-69.014 55.46-29.378 5.4901-61.609-2.3412-82.923-21.747-27.385-23.017-36.013-61.641-21.391-92.687 7.8073-17.531 23.058-32.064 41.011-41.424 16.534-7.917 35.466-11.572 54.104-9.7555zm-22.408 60.142c-16.881 6.4756-22.731 28.135-10.789 40.822 5.536 7.0965 14.877 10.848 24.366 10.467 18.263 0.70946 33.064-17.507 28.086-33.263-3.0459-13.512-18.657-22.724-33.486-20.267-2.8245 0.38923-5.5902 1.1378-8.1761 2.2405z" fill="#1a1a1a" opacity=".2"/>
     <path d="m595.39 608.92c12.885 1.2506 25.259 6.7825 33.766 15.712 12.744 12.382 16.604 31.174 10.853 47.129-5.9143 15.8-21.257 28.373-39.371 31.639-16.759 3.132-35.147-1.3356-47.306-12.406-15.623-13.131-20.545-35.165-12.203-52.876 4.4539-10.001 13.154-18.292 23.396-23.632 9.4323-4.5165 20.233-6.6017 30.865-5.5654zm-12.783 34.31c-9.6302 3.6942-12.968 16.05-6.1552 23.288 3.1582 4.0484 8.4869 6.1883 13.9 5.9712 10.419 0.40474 18.863-9.9874 16.023-18.976-1.7376-7.7084-10.643-12.964-19.103-11.562-1.6113 0.22205-3.1891 0.64908-4.6643 1.2782z" fill="#1a1a1a" opacity=".1"/>
     <path d="m996.79 559.05c15.138 1.4693 29.676 7.9685 39.671 18.459 14.972 14.548 19.507 36.625 12.751 55.37-6.9486 18.563-24.975 33.334-46.256 37.172-19.69 3.6797-41.293-1.5692-55.579-14.576-18.355-15.427-24.137-41.314-14.337-62.123 5.2328-11.75 15.455-21.491 27.487-27.764 11.082-5.3063 23.771-7.7562 36.263-6.5386zm-15.019 40.309c-11.314 4.3402-15.236 18.857-7.2316 27.361 3.7105 4.7564 9.971 7.2705 16.331 7.0154 12.241 0.47552 22.161-11.734 18.824-22.294-2.0415-9.0564-12.505-15.231-22.444-13.584-1.8931 0.26088-3.7468 0.76258-5.48 1.5017z" fill="#fff" opacity=".1"/>
    </g>
    <g fill="#1a1a1a">
     <path d="m353.14 559.27c5.1498 0.49982 10.095 2.7107 13.495 6.2794 5.0934 4.9489 6.6359 12.459 4.3376 18.836-2.3637 6.3147-8.4958 11.34-15.735 12.645-6.6982 1.2518-14.047-0.53381-18.907-4.9584-6.244-5.2478-8.211-14.054-4.8772-21.133 1.7801-3.9971 5.2574-7.3108 9.3506-9.4447 3.7698-1.8051 8.0863-2.6385 12.336-2.2243zm-5.1091 13.712c-3.8489 1.4764-5.1828 6.4148-2.46 9.3075 1.2622 1.618 3.3919 2.4733 5.5554 2.3865 4.164 0.16176 7.5388-3.9916 6.4037-7.584-0.69447-3.0808-4.2538-5.1812-7.6349-4.6209-0.644 0.0887-1.2746 0.25941-1.8642 0.51086z" opacity=".1"/>
     <path d="m426.81 674.08c9.3997 0.9123 18.426 4.9478 24.632 11.461 9.2968 9.033 12.112 22.741 7.9173 34.38-4.3144 11.526-15.507 20.698-28.721 23.081-12.226 2.2848-25.64-0.97435-34.51-9.0504-11.397-9.5787-14.987-25.653-8.9023-38.573 3.2491-7.2958 9.5961-13.344 17.067-17.239 6.8808-3.2948 14.76-4.8159 22.516-4.0599zm-9.3254 25.029c-7.0252 2.6949-9.46 11.709-4.4902 16.989 2.3039 2.9533 6.1912 4.5144 10.14 4.356 7.6004 0.29525 13.76-7.2858 11.688-13.843-1.2676-5.6233-7.7643-9.457-13.936-8.4343-1.1755 0.1619-2.3264 0.4735-3.4026 0.93246z" opacity=".2"/>
     <path d="m832.31 556.41c5.6687 0.55018 11.112 2.9839 14.855 6.9121 5.6066 5.4476 7.3046 13.715 4.7747 20.734-2.6019 6.9511-9.3519 12.482-17.321 13.919-7.3732 1.3779-15.463-0.58761-20.812-5.4581-6.8732-5.7767-9.0384-15.47-5.3687-23.262 1.9595-4.3999 5.7872-8.0475 10.293-10.396 4.1496-1.987 8.9012-2.9044 13.579-2.4484zm-5.6239 15.094c-4.2367 1.6252-5.7051 7.0612-2.7079 10.245 1.3894 1.7811 3.7337 2.7225 6.1153 2.627 4.5836 0.17806 8.2985-4.3938 7.049-8.3482-0.76445-3.3912-4.6825-5.7033-8.4043-5.0865-0.7089 0.0976-1.403 0.28556-2.052 0.56235z" opacity=".2"/>
    </g>
    <path d="m693 736.24c5.8987 0.57249 11.563 3.1049 15.458 7.1925 5.8341 5.6686 7.601 14.271 4.9684 21.575-2.7075 7.233-9.7313 12.989-18.024 14.484-7.6723 1.4338-16.09-0.61145-21.656-5.6795-7.152-6.011-9.4051-16.098-5.5865-24.206 2.039-4.5784 6.022-8.374 10.71-10.818 4.318-2.0676 9.2622-3.0222 14.13-2.5477zm-5.8521 15.707c-4.4086 1.6912-5.9365 7.3477-2.8178 10.661 1.4458 1.8533 3.8852 2.8329 6.3633 2.7335 4.7696 0.18528 8.6351-4.5721 7.3349-8.6869-0.79544-3.5288-4.8724-5.9346-8.7452-5.2928-0.73765 0.10171-1.4599 0.29712-2.1353 0.58515z" fill="#fff" opacity=".2"/>
    <path d="m537.21 661.63c21.614 2.0977 42.37 11.377 56.641 26.355 21.377 20.771 27.851 52.292 18.205 79.055-9.9207 26.503-35.657 47.593-66.043 53.072-28.113 5.2538-58.957-2.2405-79.353-20.811-26.206-22.026-34.462-58.986-20.47-88.696 7.4711-16.776 22.066-30.684 39.245-39.64 15.822-7.576 33.939-11.074 51.775-9.3354zm-21.443 57.552c-16.154 6.1968-21.753 26.923-10.325 39.064 5.2977 6.7909 14.236 10.38 23.317 10.016 17.477 0.6789 31.641-16.753 26.877-31.831-2.9147-12.93-17.854-21.746-32.044-19.394-2.7029 0.37268-5.3495 1.0887-7.824 2.1441z" fill="#fff" opacity=".1"/>
    <g fill="none">
     <path d="m934.1 603.3-176.23-74.097" stroke="#fff" stroke-opacity=".30141" stroke-width=".73733px"/>
     <g stroke-width=".73733">
      <path d="m1045.9 597.04 55.339-22.069" stroke="#fefefe" stroke-opacity=".37097"/>
      <path d="m471.24 680.66-109.2-89.289" stroke="#fefefe" stroke-opacity=".27408"/>
      <path d="m1113.1 676-138.2-170.01" stroke="#000" stroke-opacity=".29164"/>
     </g>
    </g>
    <path d="m1019.3 711.34c7.9044 0.76715 15.495 4.1606 20.714 9.638 7.8176 7.5959 10.185 19.123 6.6577 28.911-3.628 9.6923-13.04 17.405-24.152 19.409-10.281 1.9213-21.56-0.81934-29.019-7.6106-9.5838-8.0548-12.603-21.571-7.4861-32.436 2.7323-6.1351 8.0695-11.221 14.352-14.496 5.786-2.7706 12.411-4.0497 18.934-3.414zm-7.8416 21.047c-5.9075 2.2662-7.9549 9.846-3.7757 14.286 1.9372 2.4835 5.2059 3.7962 8.5266 3.6629 6.3914 0.24828 11.571-6.1266 9.8289-11.64-1.0658-4.7286-6.5291-7.9525-11.719-7.0925-0.9883 0.13629-1.9562 0.39815-2.8611 0.78411z" fill="#fff" opacity=".2"/>
    <g fill="none" stroke="#000" stroke-width=".73733px">
     <path d="m1109.4 721.56-219.92-37.004" stroke-opacity=".26415"/>
     <path d="m1119.7 740.96-84.757 69.101" stroke-opacity=".24565"/>
     <path d="m540.36 543.37 37.957 68.176" stroke-opacity=".48546"/>
    </g>
    <path d="m1110.8 431.69c4.5525 0.44186 8.9244 2.3964 11.93 5.5512 4.5027 4.375 5.8664 11.014 3.8346 16.652-2.0896 5.5824-7.5106 10.025-13.911 11.179-5.9215 1.1066-12.418-0.47191-16.714-4.3834-5.5199-4.6393-7.2588-12.424-4.3117-18.682 1.5737-3.5336 4.6477-6.463 8.2663-8.3495 3.3326-1.5958 7.1487-2.3325 10.906-1.9664zm-4.5167 12.122c-3.4025 1.3052-4.5818 5.6709-2.1747 8.2282 1.1158 1.4304 2.9985 2.1865 4.9112 2.1097 3.6811 0.143 6.6646-3.5287 5.661-6.7045-0.6139-2.7235-3.7605-4.5804-6.7495-4.085-0.5693 0.0785-1.1268 0.22933-1.648 0.45162z" fill="#1a1a1a" opacity=".2"/>
    <g fill="#fff">
     <path d="m281.13 452.8c11.408 1.1072 22.363 6.0048 29.895 13.91 11.283 10.963 14.7 27.6 9.6087 41.725-5.2361 13.988-18.82 25.12-34.857 28.011-14.838 2.7729-31.117-1.1825-41.882-10.984-13.832-11.625-18.189-31.133-10.804-46.814 3.9434-8.8544 11.646-16.195 20.714-20.922 8.3506-3.9986 17.912-5.8448 27.326-4.9272zm-11.317 30.376c-8.526 3.2707-11.481 14.21-5.4493 20.618 2.7959 3.5842 7.5134 5.4788 12.306 5.2865 9.2244 0.35833 16.7-8.8423 14.186-16.8-1.5382-6.8246-9.4231-11.477-16.913-10.236-1.4264 0.1967-2.8233 0.57463-4.1293 1.1317z" opacity=".2"/>
     <path d="m331.22 693.77c6.6835 0.64866 13.102 3.518 17.514 8.1494 6.6101 6.4227 8.6121 16.17 5.6294 24.445-3.0676 8.1953-11.026 14.717-20.422 16.411-8.6928 1.6246-18.23-0.69279-24.537-6.4351-8.1036-6.8107-10.656-18.24-6.3298-27.426 2.3103-5.1875 6.8232-9.488 12.135-12.257 4.8923-2.3426 10.494-3.4242 16.009-2.8867zm-6.6304 17.796c-4.9951 1.9162-6.7262 8.3252-3.1925 12.079 1.638 2.0999 4.4018 3.2098 7.2096 3.0972 5.4042 0.20994 9.7839-5.1804 8.3108-9.8426-0.90119-3.9983-5.5207-6.7242-9.9087-5.997-0.83566 0.11524-1.6541 0.33665-2.4192 0.663z" opacity=".05"/>
     <path d="m858.67 363.19c17.992 1.7461 35.268 9.4701 47.147 21.938 17.794 17.289 23.183 43.527 15.154 65.805-8.2578 22.061-29.681 39.616-54.973 44.177-23.4 4.3732-49.074-1.8649-66.052-17.323-21.814-18.334-28.686-49.1-17.039-73.83 6.2192-13.964 18.367-25.541 32.668-32.996 13.17-6.3062 28.249-9.2178 43.096-7.7707zm-17.849 47.906c-13.446 5.1582-18.106 22.411-8.594 32.517 4.4094 5.6527 11.849 8.6406 19.408 8.3374 14.548 0.56514 26.337-13.945 22.372-26.495-2.4259-10.763-14.861-18.101-26.673-16.143-2.2495 0.31022-4.4526 0.90624-6.5123 1.7848z" opacity=".05"/>
    </g>
    <g fill="#1a1a1a">
     <path d="m616.64 433.67c6.0261 0.58487 11.813 3.172 15.792 7.3479 5.9601 5.791 7.7651 14.579 5.0757 22.041-2.7659 7.3893-9.9414 13.269-18.413 14.797-7.8379 1.4648-16.437-0.62465-22.124-5.8021-7.3064-6.1408-9.6082-16.446-5.7072-24.729 2.083-4.6772 6.152-8.5548 10.942-11.052 4.4112-2.1122 9.4623-3.0874 14.435-2.6028zm-5.9784 16.046c-4.5038 1.7277-6.0647 7.5064-2.8786 10.891 1.477 1.8933 3.9691 2.8941 6.5008 2.7926 4.8726 0.18929 8.8216-4.6708 7.4933-8.8745-0.81264-3.605-4.9776-6.0628-8.9341-5.4072-0.75359 0.1038-1.4915 0.30355-2.1814 0.59779z" opacity=".1"/>
     <path d="m766.58 744.84c5.1498 0.49982 10.095 2.7107 13.495 6.2794 5.0934 4.9489 6.6359 12.459 4.3376 18.836-2.3637 6.3147-8.4958 11.34-15.735 12.645-6.6982 1.2518-14.047-0.53381-18.907-4.9584-6.244-5.2478-8.211-14.054-4.8772-21.133 1.7801-3.9971 5.2574-7.3108 9.3506-9.4447 3.7698-1.8051 8.0863-2.6385 12.336-2.2243zm-5.1091 13.712c-3.8489 1.4764-5.1828 6.4148-2.46 9.3075 1.2622 1.618 3.3919 2.4733 5.5554 2.3865 4.164 0.16176 7.5388-3.9916 6.4037-7.584-0.69447-3.0808-4.2538-5.1812-7.6349-4.6209-0.644 0.0887-1.2746 0.25941-1.8642 0.51086z" opacity=".05"/>
     <path d="m340.05 627.36c18.191 1.7656 35.66 9.5753 47.671 22.181 17.992 17.481 23.441 44.01 15.322 66.535-8.3496 22.306-30.01 40.056-55.584 44.667-23.661 4.4217-49.62-1.8856-66.786-17.515-22.056-18.537-29.004-49.645-17.228-74.649 6.2879-14.119 18.571-25.824 33.03-33.362 13.316-6.3763 28.564-9.3201 43.575-7.857zm-18.047 48.438c-13.596 5.2154-18.308 22.66-8.6898 32.878 4.4586 5.7155 11.982 8.7365 19.624 8.43 14.709 0.5714 26.63-14.1 22.62-26.789-2.4531-10.883-15.026-18.302-26.969-16.323-2.2748 0.31348-4.5023 0.91635-6.5849 1.8045z" opacity=".1"/>
    </g>
    <g fill="none" stroke-width=".73733px">
     <path d="m426.02 677.48 57.565-129.36" stroke="#000" stroke-opacity=".28235"/>
     <path d="m323.73 490.83 95.72-19.311" stroke="#f8f8f8" stroke-opacity=".39595"/>
     <path d="m1092.7 447.95-106.8 26.172" stroke="#000" stroke-opacity=".38844"/>
    </g>
    <rect transform="scale(-1)" x="-1287.3" y="-529.67" width="1030.6" height="154.65" rx="0" ry="7.3946" fill="url(#linearGradient39864)" stop-color="#000000"/>
    <path d="m746.06 503.73 50.638-49.999" fill="none" stroke="#fdfdfd" stroke-opacity=".30359" stroke-width=".73733px"/>
    <path d="m722.38 502.2-17.079-32.888" fill="none" stroke="#f9f9f9" stroke-opacity=".27451" stroke-width=".73733px"/>
    <path d="m802.75 435.09c3.8227 0.37102 7.4936 2.0122 10.018 4.6612 3.7808 3.6736 4.9259 9.2485 3.2198 13.982-1.7546 4.6874-6.3065 8.4174-11.68 9.3865-4.9721 0.9292-10.427-0.39625-14.035-3.6806-4.6349-3.8955-6.0951-10.433-3.6204-15.687 1.3214-2.9671 3.9026-5.4268 6.941-7.0109 2.7983-1.3399 6.0025-1.9586 9.157-1.6511zm-3.7925 10.179c-2.857 1.096-3.8472 4.7618-1.8261 6.909 0.93696 1.2011 2.5178 1.8359 4.1238 1.7715 3.091 0.12007 5.5961-2.963 4.7535-5.6296-0.5155-2.2869-3.1576-3.846-5.6674-3.4301-0.47804 0.0659-0.94613 0.19256-1.3838 0.37921z" fill="#fff" opacity=".18"/>
    <path d="m704.05 452.16c2.39 0.23196 4.685 1.258 6.263 2.9142 2.3638 2.2967 3.0796 5.7821 2.013 8.7414-1.097 2.9306-3.9428 5.2625-7.3026 5.8684-3.1085 0.58093-6.5191-0.24774-8.7744-2.3011-2.8977-2.4354-3.8106-6.5224-2.2635-9.8074 0.82612-1.855 2.4399-3.3928 4.3395-4.3832 1.7495-0.83772 3.7527-1.2245 5.7249-1.0323zm-2.371 6.3638c-1.7862 0.68521-2.4053 2.977-1.1417 4.3195 0.58578 0.75091 1.5742 1.1478 2.5782 1.1075 1.9325 0.0751 3.4987-1.8525 2.9719-3.5196-0.32229-1.4298-1.9741-2.4045-3.5432-2.1445-0.29887 0.0412-0.59152 0.12039-0.86514 0.23708z" fill="#fff" opacity=".12"/>
   </g>
   <rect x="925.27" y="2739.1" width="477.13" height="477.13" ry="10.25" fill="none"/>
  </g>
 </g>
</svg>
