<?xml version="1.0" encoding="UTF-8"?>
<svg width="201.62mm" height="197.59mm" version="1.1" viewBox="0 0 201.62 197.59" xmlns="http://www.w3.org/2000/svg" xmlns:cc="http://creativecommons.org/ns#" xmlns:dc="http://purl.org/dc/elements/1.1/" xmlns:rdf="http://www.w3.org/1999/02/22-rdf-syntax-ns#">
 <defs>
  <clipPath id="clipPath1921-8">
   <g transform="matrix(6.0676 .27999 -.27999 6.0676 -17817 16994)">
    <path d="m2802.1-2717.7c-5.616 0-7.898-0.734-8.124-1.089l-0.01-0.082-0.013-0.018c-2.926-7.974-7.334-20.103-7.487-20.833l-2.517-44.205c2.708 1.949 8.248 2.394 12.741 2.394 8.139 0 20.094-1.723 23.699-4.514l2.527 44.299c-0.069 0.688-3.069 13.24-5.067 21.496l-0.02 0.079 0.01 0.082c-0.271 0.517-4.145 1.837-11.836 2.276-1.332 0.076-2.646 0.115-3.903 0.115z" fill="#ff871a"/>
    <path d="m2819.9-2785.1 2.469 43.271c-0.203 1.259-3.104 13.397-5.041 21.401-0.764 0.565-4.61 1.659-11.355 2.044-1.323 0.075-2.626 0.114-3.873 0.114-4.56 0-7.019-0.5-7.637-0.854-2.836-7.731-7.1-19.461-7.444-20.69l-2.459-43.139c3.037 1.566 8.02 1.946 12.136 1.946 7.688 0 18.656-1.439 23.204-4.093m0.963-2.372c-0.963 2.846-13.703 5.37-24.168 5.37-6.308 0-11.788-0.916-13.369-3.23l2.604 45.671c0.031 0.544 7.514 20.939 7.514 20.939 0.052 0.948 3.677 1.548 8.656 1.548 1.239 0 2.563-0.037 3.936-0.115 6.891-0.394 12.42-1.671 12.352-2.855 0 0 5.111-21.112 5.082-21.656z" fill="#231f20"/>
   </g>
  </clipPath>
  <clipPath id="clipPath1921">
   <g transform="matrix(6.0676 .27999 -.27999 6.0676 -17817 16994)">
    <path d="m2802.1-2717.7c-5.616 0-7.898-0.734-8.124-1.089l-0.01-0.082-0.013-0.018c-2.926-7.974-7.334-20.103-7.487-20.833l-2.517-44.205c2.708 1.949 8.248 2.394 12.741 2.394 8.139 0 20.094-1.723 23.699-4.514l2.527 44.299c-0.069 0.688-3.069 13.24-5.067 21.496l-0.02 0.079 0.01 0.082c-0.271 0.517-4.145 1.837-11.836 2.276-1.332 0.076-2.646 0.115-3.903 0.115z" fill="#ff871a"/>
    <path d="m2819.9-2785.1 2.469 43.271c-0.203 1.259-3.104 13.397-5.041 21.401-0.764 0.565-4.61 1.659-11.355 2.044-1.323 0.075-2.626 0.114-3.873 0.114-4.56 0-7.019-0.5-7.637-0.854-2.836-7.731-7.1-19.461-7.444-20.69l-2.459-43.139c3.037 1.566 8.02 1.946 12.136 1.946 7.688 0 18.656-1.439 23.204-4.093m0.963-2.372c-0.963 2.846-13.703 5.37-24.168 5.37-6.308 0-11.788-0.916-13.369-3.23l2.604 45.671c0.031 0.544 7.514 20.939 7.514 20.939 0.052 0.948 3.677 1.548 8.656 1.548 1.239 0 2.563-0.037 3.936-0.115 6.891-0.394 12.42-1.671 12.352-2.855 0 0 5.111-21.112 5.082-21.656z" fill="#231f20"/>
   </g>
  </clipPath>
  <clipPath id="clipPath1921-6-3">
   <g transform="matrix(6.0676 .27999 -.27999 6.0676 -17817 16994)">
    <path d="m2802.1-2717.7c-5.616 0-7.898-0.734-8.124-1.089l-0.01-0.082-0.013-0.018c-2.926-7.974-7.334-20.103-7.487-20.833l-2.517-44.205c2.708 1.949 8.248 2.394 12.741 2.394 8.139 0 20.094-1.723 23.699-4.514l2.527 44.299c-0.069 0.688-3.069 13.24-5.067 21.496l-0.02 0.079 0.01 0.082c-0.271 0.517-4.145 1.837-11.836 2.276-1.332 0.076-2.646 0.115-3.903 0.115z" fill="#ff871a"/>
    <path d="m2819.9-2785.1 2.469 43.271c-0.203 1.259-3.104 13.397-5.041 21.401-0.764 0.565-4.61 1.659-11.355 2.044-1.323 0.075-2.626 0.114-3.873 0.114-4.56 0-7.019-0.5-7.637-0.854-2.836-7.731-7.1-19.461-7.444-20.69l-2.459-43.139c3.037 1.566 8.02 1.946 12.136 1.946 7.688 0 18.656-1.439 23.204-4.093m0.963-2.372c-0.963 2.846-13.703 5.37-24.168 5.37-6.308 0-11.788-0.916-13.369-3.23l2.604 45.671c0.031 0.544 7.514 20.939 7.514 20.939 0.052 0.948 3.677 1.548 8.656 1.548 1.239 0 2.563-0.037 3.936-0.115 6.891-0.394 12.42-1.671 12.352-2.855 0 0 5.111-21.112 5.082-21.656z" fill="#231f20"/>
   </g>
  </clipPath>
  <filter id="filter73648" x="-.10272" y="-.10543" width="1.2218" height="1.2289" color-interpolation-filters="sRGB">
   <feFlood flood-color="rgb(3,3,3)" flood-opacity=".37255" result="flood"/>
   <feComposite in="flood" in2="SourceGraphic" operator="out" result="composite1"/>
   <feGaussianBlur in="composite1" result="blur" stdDeviation="3.28507"/>
   <feOffset dx="1.3" dy="1.4" result="offset"/>
   <feComposite in="offset" in2="SourceGraphic" operator="atop" result="composite2"/>
  </filter>
 </defs>
 <metadata>
  <rdf:RDF>
   <cc:Work rdf:about="">
    <dc:format>image/svg+xml</dc:format>
    <dc:type rdf:resource="http://purl.org/dc/dcmitype/StillImage"/>
   </cc:Work>
  </rdf:RDF>
 </metadata>
 <g transform="translate(.094977 -5.2965)">
  <g transform="matrix(2.0721 0 0 2.0721 -105.4 -101.94)">
   <path d="m138.64 98.73a39.82 38.797 0 0 1-39.82 38.797 39.82 38.797 0 0 1-39.82-38.797 39.82 38.797 0 0 1 39.82-38.797 39.82 38.797 0 0 1 39.82 38.797z" fill="#0ff" filter="url(#filter73648)" stroke="#0ff" stroke-width=".59358"/>
   <g fill="#fff">
    <path d="m122.59 85.672c-0.42962 0-0.83858 0.08669-1.2168 0.23719-0.56596-2.4023-2.654-4.1866-5.1453-4.1866-2.4922 0-4.5805 1.7843-5.1458 4.1866-0.378-0.15044-0.78801-0.23719-1.2171-0.23719-1.874 0-3.3931 1.5765-3.3931 3.5196 0 1.9438 1.519 3.5195 3.3931 3.5195h6.3628 6.3621c1.8738 0 3.393-1.5757 3.393-3.5195 0-1.9432-1.5192-3.5196-3.393-3.5196z" opacity=".7" stroke-width=".057868"/>
    <path d="m81.528 79.207c-0.28818 0-0.56252 0.06213-0.81623 0.16973-0.37963-1.7191-1.7803-2.996-3.4515-2.996-1.6717 0-3.0726 1.2769-3.4518 2.996-0.25358-0.10763-0.52861-0.16973-0.81644-0.16973-1.2571 0-2.2761 1.1282-2.2761 2.5187 0 1.3911 1.0189 2.5187 2.2761 2.5187h4.2682 4.2677c1.257 0 2.276-1.1276 2.276-2.5187 0-1.3906-1.0191-2.5187-2.276-2.5187z" opacity=".77" stroke-width=".040094"/>
    <path d="m115.39 73.684c-0.20032 0-0.39106 0.04046-0.56743 0.11058-0.26391-1.1202-1.2376-1.9523-2.3994-1.9523-1.1621 0-2.136 0.83206-2.3996 1.9523-0.17626-0.07013-0.36747-0.11058-0.56755-0.11058-0.87391 0-1.5823 0.73513-1.5823 1.6413 0 0.90645 0.70836 1.6412 1.5823 1.6412h2.9671 2.9668c0.87377 0 1.5822-0.73477 1.5822-1.6412 0-0.90614-0.70843-1.6413-1.5822-1.6413z" opacity=".7" stroke-width=".026985"/>
   </g>
   <g transform="matrix(.8957 0 0 .9353 177.82 327.43)" fill="#c9d700" filter="url(#filter20124)">
    <path d="m-41.64-215.38c-2.687 12.964-13.317 15.016-23.537 15.162-10.582 0.0882-30.309-2.5537-37.684-2.4037-15.572 0.3168-20.213 2.2982-29.914-5.8426-7.692-6.8138 0.32752-16.817 7.8868-19.212 23.838-9.4689 52.682-9.7816 75.771 1.9834 3.5897 2.2839 7.4307 5.701 7.4779 10.312z"/>
    <path d="m-55.518-228.15c0.47259-1.975 2.5194-5.713 1.4479-1.3574-1.2052 3.6711 1.9689-3.008 0.63636 0.69598-1.421 3.73 2.2084-2.4245 0.64999 0.93303 0.16826 1.2748 2.4348-4.44 1.1444-0.6546 0.32742 1.7593 2.9754-6.231 1.6804-1.6756-0.60152 1.564-1.5109 3.9523 0.08998 1.3088 1.5785-3.5406-1.313 5.1923 0.75655 1.463 1.2164-2.2051-1.366 2.9143 1.1869 0.38826-0.34427 1.1212-1.8293 2.7601 0.07263 0.88105 1.45-1.8611-0.14976 1.5847 1.2716-0.20241-0.92126 1.9446-1.3633 4.4296 0.10847 1.1815 1.7327-3.192 0.1962-0.70937 0.42723 1.1473 1.2498-1.1709 2.1382-2.9728 1.0562-0.11128 1.0943 0.20031 2.1237-4.1238 1.498-0.44968-0.13128 1.1106-0.26255 2.2212-0.39383 3.3318" stroke-opacity="0"/>
    <path d="m-132.08-223.08c-0.80889-1.3214-1.7382-1.8072 0.12052-0.64736 0.96933-1.9337-3.8038-5.78-0.27376-2.4488 1.0507 0.0418-0.49545-2.9109 0.87587-0.62353 0.93193 2.2484 0.40311-2.999 0.83158 0.37046 0.67558 2.9178 0.47709-3.1084 1.4028 0.29359 1.2911-1.0973-1.5899-5.5514 0.3635-2.1684 0.71804 2.1967 2.0844 2.2704 1.2688-0.39932 0.13976 0.38257 1.4371 2.5207 0.85557-0.10729-0.65618-2.5047 0.49838-0.23068 1.1773 0.78801 1.171-2.1486 1.2999 1.8038 2.4308-1.1571 0.44053 0.37071 1.8905 1.6884 1.5368-0.95451 0.0112-0.54134 0.60232 0.92106 0.73973 1.1018" stroke-opacity="0"/>
   </g>
   <path d="m133.78 119.25c-3.6011 5.0124-11.717 3.7575-17.266 3.8108-2.7821-0.61457-9.6655-0.51311-9.1232-4.6033 5.3714-4.1261 13.069-3.297 19.451-2.7081 2.2863 0.61687 6.1267 0.79557 6.9379 3.5006z" fill="#a7b300" filter="url(#filter20124)" stroke-width=".083865"/>
   <g transform="matrix(.066006 0 0 .066006 -6.0951 295.04)" filter="url(#filter20124)">
    <path d="m1492-2653c-80.859 61.444-205.07 38.815-303.07 42.465-49.42-11.114-138.82 3.7326-163.64-46.903 94.965-54.868 217.54-37.201 323.87-36.504 44.215 9.2427 113.37 1.413 142.84 40.942z" fill="#4d4d4d" fill-opacity=".47103" opacity=".6" stroke-width=".57818"/>
    <g transform="matrix(.90595 0 0 1 87.775 32.215)" fill="#aa611f" stroke="#231f20" stroke-linecap="round" stroke-linejoin="round" stroke-miterlimit="10" stroke-width="3">
     <path d="m1453.9-2710.3c26.902-17.051-16.152-29.103-2.6376-51.307-24.614-14.437-19.319-49.119-63.482-43.769-22.774-40.372-86.726-19.582-128.2-25.381-52.518 0.255-96.37 21.301-129.41 50.523-34.682 13.405 3.7236 42.71-21.793 58.101-18.152 6.4337-35.596 36.77 3.179 39.566 59.164 10.704 117.18 8.9571 176.55 11.225 59.462-25.557 116.7 7.2861 176.86-7.8871 30.202-7.9245 11.036-30.051-11.06-31.072z"/>
     <path d="m1193.8-2714.4c-2.5791 18.809-67.679 11.525-41.25-7.702"/>
     <path d="m1218.1-2744.3c-4.568 11.066-22.608 8.8205-31.49 4.579"/>
     <path d="m1336.9-2808.8c-4.568 11.066-22.608 8.8204-31.49 4.58"/>
     <path d="m1240.7-2825c-0.6363 15.998-25.278 4.0197-13.174-6.3637 5.0512-4.2744 13.377-0.2704 13.174 6.3637z"/>
     <path d="m1343-2754c-1.4012 13.165-19.524-0.6342-7.2247-5.4923 3.4981-1.0745 7.3262 1.8278 7.2247 5.4923z"/>
     <path d="m1211.1-2761.4c-0.5629 14.153-22.362 3.5561-11.654-5.6298 4.4686-3.7814 11.834-0.2391 11.654 5.6298z"/>
     <path d="m1243.6-2726.5c5.4967-26.954 37.252 4.7141 10.421 10.42"/>
    </g>
    <path d="m1343.6-2725.3c0.037 10.136-6.2026 20.121-15.807 23.915" fill="none" stroke="#231f20" stroke-linecap="round" stroke-linejoin="round" stroke-miterlimit="10" stroke-width="2.9228"/>
    <path d="m1151.8-2731.9c-1.9125-47.407 60.598-46.298 92.919-42.409" fill="#aa611f" stroke="#000" stroke-width="2.9087px"/>
   </g>
   <g transform="matrix(.070122 0 0 .063963 -9.4669 290.76)" fill="#ddb95e" filter="url(#filter20124)" stroke="#231f20" stroke-linecap="round" stroke-linejoin="round" stroke-miterlimit="10" stroke-width="3">
    <path d="m2003.6-2684.6c27.677-36.923-19.7-100.36-63.269-120.25 5.387-17.694-46.092-2.933-40.883-30.328-39.14 17.477-124.41 16.442-156.93 75.119-1.8287 18.838-41.66 8.1437-14.769 25.006-18.334 61.55 35.536 55.264 83.943 64.132 31.636 5.0288 69.174-6.2956 82.156 16.152 13.456-32.835 76.755-6.8279 104.31-36.474z"/>
    <path d="m1967.5-2771.9c18.022-4.4582 60.328 6.4094 15.151 13.272"/>
    <path d="m1969.7-2700.8c15.351 10.441 35.501 49.193 0.233 20.14"/>
    <path d="m1833.9-2797.8c-3.7148-18.188-31.696-51.726-18.493-7.982"/>
    <path d="m1990.5-2723.5c18.548-0.7765 56.108-23.068 10.821-16.988"/>
    <path d="m1849.5-2685c-6.4228 17.417-39.151 46.341-19.486 5.094"/>
    <path d="m1843.8-2787.6c18.023-4.4594 60.328 6.4108 15.15 13.272"/>
    <path d="m1872.1-2748c18.13 3.9952 51.23 32.494 7.694 18.615"/>
    <path d="m1772-2767.3c-16.796-7.9133-60.411-5.5648-17.462 10.039"/>
   </g>
   <path d="m74.012 120.5c-2.2987 1.0237-6.9696 1.1293-4.5733 4.7708 3.3817 2.4122 8.5903 1.253 12.049-0.50982 1.2057 1.7343 3.153 2.2169 5.0414 2.8746 1.937 0.83594 4.1161 0.14418 6.1652 0.27304 7.2606-0.20857 14.521-0.41715 21.782-0.62573-2.0106-3.5642-4.0212-7.1283-6.0318-10.692" fill="#a7b300" filter="url(#filter20124)" stroke="#a7b300" stroke-width=".26459px"/>
   <g transform="matrix(0 -.068981 .064665 0 289.02 443.62)" filter="url(#filter20124)" stroke="#231f20" stroke-linecap="round" stroke-linejoin="round" stroke-miterlimit="10">
    <g stroke-width="3">
     <path d="m5120-2993.2c-2.6437-43.254-5.2126-84.992-10.673-127.75-18.37-25.635 35.382-95.993-21.577-96.79-22.89 8.3129-45.766 10.86-71.037 9.061-15.454 2.1602-36.95-4.1035-49.013 2.7097-44.944-2.2903-93.822-2.3685-141.2-1.1857-46.105 4.2756-98.905-9.4425-141.02 4.5897-19.817 18.402-39.635 36.804-59.452 55.205 141.95 175.26 283.9 350.53 425.85 525.79 18.444-20.194 42.548-38.022 57.442-59.7v-109.38c23.91-53.084-19.225-108.2 0.6925-163.19-0.1388-12.656 13.619-24.363 9.9805-39.37z" fill="#f1b778"/>
     <path d="m5051.9-3006v-62.191c20.786-21.251-8.6619-44.753 0-70.744 0.658-17.846-30.876-3.6791-42.747-8.886-34.851-19.92-80.495 32.025-117.69 0.468h-265.42v525.79h232.24c26.451 20.533 66.086-8.4998 90.769 1.948 19.171 10.416 35.641-8.5865 60.563-1.947 13.528-4.5595 47.312 11.137 42.283-11.98v-145.39c20.43-46.224-3.6561-97.535-12.886-145.63-0.052-26.251 36.243-59.12 12.887-81.44z" fill="#eac59d"/>
     <path d="m5093.4-3172.5c7.7746-7.6059 14.213-16.635 18.509-26.649" fill="none"/>
     <path d="m5051.9-3147.4c11.232-3.7178 21.792-9.3793 31.281-16.421" fill="none"/>
    </g>
    <g fill="#2882e5" stroke-width="1.4614">
     <path d="m5030.1-3095.1c-17.124 83.695-109.77-30.238-24.487-30.048 13.931 2.5891 24.746 15.948 24.487 30.048z"/>
     <path d="m5001.6-3102.4c30.08-36.622-33.875-36.179-4.195 0"/>
     <path d="m5005.7-3094.6c44.373 16.663 23.312-43.738-1.354-3.971"/>
     <path d="m4994.6-3098.6c-24.964-40.288-45.168 20.409-1.35 3.971"/>
     <path d="m4992.5-3090.3c-44.899 15.171 9.6181 48.62 3.56 2.218"/>
     <path d="m5002.9-3088.1c-6.1573 46.988 47.887 12.786 3.564-2.218"/>
    </g>
    <g fill="#e53333" stroke-width="1.4614">
     <path d="m4886-3098.3c17.126-83.696 109.77 30.237 24.488 30.048-13.932-2.5887-24.747-15.948-24.488-30.048z"/>
     <path d="m4914.6-3091c-30.078 36.627 33.879 36.177 4.194 0"/>
     <path d="m4910.5-3098.7c-44.367-16.66-23.317 43.736 1.35 3.971"/>
     <path d="m4921.5-3094.8c24.965 40.285 45.166-20.403 1.352-3.97"/>
     <path d="m4923.7-3103.1c44.907-15.174-9.6302-48.616-3.562-2.217"/>
     <path d="m4913.2-3105.3c6.1581-46.994-47.891-12.778-3.559 2.217"/>
    </g>
    <g fill="#2882e5" stroke-width="1.4614">
     <path d="m4868.9-3095.1c-17.125 83.696-109.77-30.237-24.488-30.048 13.932 2.5885 24.747 15.948 24.488 30.048z"/>
     <path d="m4840.4-3102.4c30.076-36.631-33.886-36.17-4.195 0"/>
     <path d="m4844.5-3094.6c44.371 16.664 23.314-43.738-1.353-3.971"/>
     <path d="m4833.4-3098.6c-24.969-40.286-45.164 20.405-1.354 3.971"/>
     <path d="m4831.3-3090.3c-44.894 15.168 9.6124 48.62 3.562 2.218"/>
     <path d="m4841.7-3088.1c-6.1602 46.99 47.892 12.781 3.563-2.218"/>
    </g>
    <g fill="#2882e5" stroke-width="1.4614">
     <path d="m4710.1-3095.1c-17.126 83.695-109.77-30.235-24.49-30.048 13.932 2.5884 24.749 15.947 24.49 30.048z"/>
     <path d="m4681.5-3102.4c30.081-36.623-33.876-36.178-4.195 0"/>
     <path d="m4685.6-3094.6c44.368 16.66 23.317-43.737-1.354-3.971"/>
     <path d="m4674.6-3098.6c-24.971-40.285-45.167 20.408-1.35 3.971"/>
     <path d="m4672.4-3090.3c-44.907 15.167 9.6207 48.621 3.56 2.218"/>
     <path d="m4682.9-3088.1c-6.1526 46.992 47.89 12.779 3.562-2.218"/>
    </g>
    <g fill="#e53333" stroke-width="1.4614">
     <path d="m4724.8-3098.3c17.126-83.695 109.77 30.236 24.489 30.048-13.932-2.5887-24.748-15.947-24.489-30.048z"/>
     <path d="m4753.4-3091c-30.084 36.626 33.882 36.177 4.192 0"/>
     <path d="m4749.3-3098.7c-44.367-16.658-23.316 43.733 1.355 3.971"/>
     <path d="m4760.3-3094.8c24.968 40.282 45.172-20.401 1.355-3.97"/>
     <path d="m4762.5-3103.1c44.903-15.168-9.6153-48.621-3.561-2.217"/>
     <path d="m4752-3105.3c6.1608-46.991-47.894-12.782-3.563 2.217"/>
    </g>
    <g fill="#e53333" stroke-width="1.4614">
     <path d="m5030.1-3016.5c-17.124-83.695-109.77 30.239-24.487 30.048 13.931-2.5891 24.746-15.948 24.487-30.048z"/>
     <path d="m5001.6-3009.2c30.08 36.622-33.875 36.18-4.195 0"/>
     <path d="m5005.7-3016.9c44.374-16.66 23.311 43.736-1.354 3.971"/>
     <path d="m4994.6-3012.9c-24.964 40.285-45.169-20.407-1.35-3.971"/>
     <path d="m4992.5-3021.2c-44.9-15.172 9.6189-48.62 3.56-2.218"/>
     <path d="m5002.9-3023.4c-6.158-46.988 47.888-12.787 3.564 2.218"/>
    </g>
    <g fill="#2882e5" stroke-width="1.4614">
     <path d="m4886-3013.2c17.127 83.694 109.77-30.239 24.488-30.048-13.932 2.5883-24.748 15.947-24.488 30.048z"/>
     <path d="m4914.6-3020.5c-30.078-36.627 33.879-36.176 4.194 0"/>
     <path d="m4910.5-3012.8c-44.367 16.663-23.318-43.739 1.35-3.97"/>
     <path d="m4921.5-3016.8c24.965-40.288 45.166 20.406 1.352 3.97"/>
     <path d="m4923.7-3008.5c44.906 15.175-9.6297 48.617-3.562 2.218"/>
     <path d="m4913.2-3006.3c6.158 46.994-47.891 12.78-3.559-2.217"/>
    </g>
    <g fill="#e53333" stroke-width="1.4614">
     <path d="m4868.9-3016.5c-17.125-83.696-109.77 30.238-24.488 30.048 13.932-2.5885 24.747-15.948 24.488-30.048z"/>
     <path d="m4840.4-3009.2c30.076 36.631-33.885 36.17-4.195 0"/>
     <path d="m4844.5-3016.9c44.371-16.662 23.313 43.736-1.353 3.971"/>
     <path d="m4833.4-3012.9c-24.968 40.284-45.164-20.402-1.354-3.971"/>
     <path d="m4831.3-3021.2c-44.895-15.169 9.6132-48.621 3.562-2.218"/>
     <path d="m4841.7-3023.4c-6.161-46.99 47.892-12.782 3.563 2.218"/>
    </g>
    <g fill="#e53333" stroke-width="1.4614">
     <path d="m4710.1-3016.5c-17.126-83.695-109.77 30.236-24.49 30.048 13.932-2.5884 24.749-15.947 24.49-30.048z"/>
     <path d="m4681.5-3009.2c30.081 36.623-33.876 36.178-4.195 0"/>
     <path d="m4685.6-3016.9c44.368-16.658 23.316 43.735-1.354 3.971"/>
     <path d="m4674.6-3012.9c-24.97 40.283-45.167-20.405-1.35-3.971"/>
     <path d="m4672.4-3021.2c-44.908-15.168 9.6215-48.622 3.56-2.218"/>
     <path d="m4682.9-3023.4c-6.1533-46.992 47.891-12.78 3.562 2.218"/>
    </g>
    <g fill="#2882e5" stroke-width="1.4614">
     <path d="m4724.8-3013.2c17.127 83.694 109.77-30.238 24.489-30.048-13.932 2.5884-24.748 15.947-24.489 30.048z"/>
     <path d="m4753.4-3020.5c-30.084-36.626 33.882-36.177 4.192 0"/>
     <path d="m4749.3-3012.8c-44.367 16.661-23.316-43.736 1.355-3.97"/>
     <path d="m4760.3-3016.8c24.968-40.285 45.171 20.405 1.355 3.97"/>
     <path d="m4762.5-3008.5c44.902 15.17-9.6148 48.622-3.561 2.218"/>
     <path d="m4752-3006.3c6.1607 46.99-47.894 12.784-3.563-2.217"/>
    </g>
    <g fill="#2882e5" stroke-width="1.4614">
     <path d="m5030.1-2761.7c-17.125 83.695-109.77-30.239-24.487-30.048 13.931 2.5891 24.746 15.948 24.487 30.048z"/>
     <path d="m5001.6-2769c30.08-36.622-33.874-36.181-4.195 0"/>
     <path d="m5005.7-2761.3c44.374 16.66 23.311-43.737-1.354-3.97"/>
     <path d="m4994.6-2765.3c-24.963-40.287-45.169 20.406-1.35 3.97"/>
     <path d="m4992.5-2757c-44.899 15.173 9.6191 48.62 3.56 2.218"/>
     <path d="m5002.9-2754.8c-6.1581 46.988 47.887 12.788 3.564-2.218"/>
    </g>
    <g fill="#e53333" stroke-width="1.4614">
     <path d="m4886-2765c17.127-83.694 109.77 30.239 24.488 30.048-13.932-2.5881-24.748-15.947-24.488-30.048z"/>
     <path d="m4914.6-2757.7c-30.078 36.626 33.879 36.175 4.194 0"/>
     <path d="m4910.5-2765.4c-44.366-16.662-23.318 43.739 1.35 3.971"/>
     <path d="m4921.5-2761.4c24.965 40.286 45.166-20.404 1.352-3.97"/>
     <path d="m4923.7-2769.7c44.907-15.173-9.6297-48.618-3.562-2.218"/>
     <path d="m4913.2-2772c6.1581-46.994-47.891-12.778-3.559 2.217"/>
    </g>
    <g fill="#2882e5" stroke-width="1.4614">
     <path d="m4868.9-2761.7c-17.125 83.696-109.77-30.238-24.488-30.048 13.932 2.5885 24.747 15.948 24.488 30.048z"/>
     <path d="m4840.4-2769c30.076-36.632-33.885-36.172-4.195 0"/>
     <path d="m4844.5-2761.3c44.372 16.662 23.313-43.737-1.353-3.97"/>
     <path d="m4833.4-2765.3c-24.967-40.286-45.165 20.401-1.354 3.97"/>
     <path d="m4831.3-2757c-44.894 15.17 9.6133 48.621 3.562 2.218"/>
     <path d="m4841.7-2754.8c-6.161 46.99 47.892 12.783 3.563-2.218"/>
    </g>
    <g fill="#2882e5" stroke-width="1.4614">
     <path d="m4710.1-2761.7c-17.126 83.695-109.77-30.236-24.49-30.048 13.932 2.5884 24.749 15.947 24.49 30.048z"/>
     <path d="m4681.5-2769c30.081-36.624-33.876-36.18-4.195 0"/>
     <path d="m4685.6-2761.3c44.368 16.658 23.316-43.736-1.354-3.97"/>
     <path d="m4674.6-2765.3c-24.97-40.285-45.168 20.404-1.35 3.97"/>
     <path d="m4672.4-2757c-44.907 15.169 9.6217 48.622 3.56 2.218"/>
     <path d="m4682.9-2754.8c-6.1534 46.992 47.89 12.781 3.562-2.218"/>
    </g>
    <g fill="#e53333" stroke-width="1.4614">
     <path d="m4724.8-2765c17.127-83.694 109.77 30.238 24.489 30.048-13.932-2.5881-24.749-15.947-24.489-30.048z"/>
     <path d="m4753.4-2757.7c-30.084 36.625 33.882 36.175 4.192 0"/>
     <path d="m4749.3-2765.4c-44.366-16.66-23.316 43.736 1.355 3.971"/>
     <path d="m4760.3-2761.4c24.968 40.284 45.171-20.403 1.355-3.97"/>
     <path d="m4762.5-2769.7c44.902-15.168-9.6147-48.622-3.561-2.218"/>
     <path d="m4752-2772c6.1608-46.991-47.894-12.782-3.563 2.217"/>
    </g>
    <g fill="#e53333" stroke-width="1.4614">
     <path d="m5030.1-2683.1c-17.124-83.695-109.77 30.238-24.487 30.048 13.931-2.5894 24.745-15.948 24.487-30.048z"/>
     <path d="m5001.6-2675.8c30.08 36.621-33.875 36.18-4.195 0"/>
     <path d="m5005.7-2683.6c44.374-16.663 23.311 43.738-1.354 3.969"/>
     <path d="m4994.6-2679.6c-24.964 40.288-45.168-20.407-1.35-3.969"/>
     <path d="m4992.5-2687.9c-44.9-15.171 9.6177-48.62 3.56-2.218"/>
     <path d="m5002.9-2690.1c-6.1571-46.988 47.887-12.786 3.564 2.218"/>
    </g>
    <g fill="#2882e5" stroke-width="1.4614">
     <path d="m4886-2679.9c17.128 83.694 109.77-30.239 24.488-30.049-13.932 2.5887-24.747 15.948-24.488 30.049z"/>
     <path d="m4914.6-2687.2c-30.078-36.626 33.879-36.177 4.194 0"/>
     <path d="m4910.5-2679.5c-44.368 16.66-23.317-43.737 1.35-3.97"/>
     <path d="m4921.5-2683.4c24.964-40.286 45.167 20.404 1.352 3.97"/>
     <path d="m4923.7-2675.1c44.907 15.174-9.6296 48.617-3.562 2.217"/>
     <path d="m4913.2-2672.9c6.1581 46.994-47.891 12.778-3.559-2.217"/>
    </g>
    <g fill="#e53333" stroke-width="1.4614">
     <path d="m4868.9-2683.1c-17.125-83.696-109.77 30.238-24.488 30.048 13.932-2.5889 24.747-15.948 24.488-30.048z"/>
     <path d="m4840.4-2675.8c30.076 36.631-33.885 36.17-4.195 0"/>
     <path d="m4844.5-2683.6c44.371-16.664 23.313 43.738-1.353 3.969"/>
     <path d="m4833.4-2679.6c-24.968 40.287-45.164-20.402-1.354-3.969"/>
     <path d="m4831.3-2687.9c-44.894-15.168 9.612-48.621 3.562-2.218"/>
     <path d="m4841.7-2690.1c-6.16-46.99 47.892-12.782 3.563 2.218"/>
    </g>
    <g fill="#e53333" stroke-width="1.4614">
     <path d="m4710.1-2683.1c-17.126-83.695-109.77 30.235-24.49 30.048 13.932-2.5887 24.749-15.947 24.49-30.048z"/>
     <path d="m4681.5-2675.8c30.081 36.623-33.876 36.178-4.195 0"/>
     <path d="m4685.6-2683.6c44.368-16.66 23.316 43.737-1.354 3.969"/>
     <path d="m4674.6-2679.6c-24.971 40.286-45.167-20.405-1.35-3.969"/>
     <path d="m4672.4-2687.9c-44.907-15.167 9.6203-48.622 3.56-2.218"/>
     <path d="m4682.9-2690.1c-6.1524-46.992 47.89-12.78 3.562 2.218"/>
    </g>
    <g fill="#2882e5" stroke-width="1.4614">
     <path d="m4724.8-2679.9c17.128 83.694 109.77-30.238 24.489-30.049-13.932 2.5887-24.748 15.948-24.489 30.049z"/>
     <path d="m4753.4-2687.2c-30.084-36.626 33.882-36.177 4.192 0"/>
     <path d="m4749.3-2679.5c-44.367 16.658-23.315-43.734 1.355-3.97"/>
     <path d="m4760.3-2683.4c24.967-40.284 45.172 20.402 1.355 3.97"/>
     <path d="m4762.5-2675.1c44.902 15.168-9.6146 48.621-3.561 2.217"/>
     <path d="m4752-2672.9c6.1608 46.991-47.894 12.782-3.563-2.217"/>
    </g>
    <g fill="#2882e5" stroke-width="1.4614">
     <path d="m5030.1-2926.1c-17.125 83.695-109.77-30.238-24.487-30.048 13.931 2.5888 24.746 15.948 24.487 30.048z"/>
     <path d="m5001.6-2933.4c30.08-36.622-33.875-36.179-4.195 0"/>
     <path d="m5005.7-2925.7c44.373 16.66 23.312-43.736-1.354-3.971"/>
     <path d="m4994.6-2929.7c-24.964-40.285-45.169 20.406-1.35 3.971"/>
     <path d="m4992.5-2921.4c-44.9 15.172 9.6183 48.621 3.56 2.218"/>
     <path d="m5002.9-2919.1c-6.1576 46.989 47.888 12.786 3.564-2.218"/>
    </g>
    <g fill="#e53333" stroke-width="1.4614">
     <path d="m4886-2929.3c17.127-83.694 109.77 30.238 24.488 30.049-13.932-2.5887-24.747-15.948-24.488-30.049z"/>
     <path d="m4914.6-2922.1c-30.078 36.627 33.879 36.176 4.194 0"/>
     <path d="m4910.5-2929.8c-44.366-16.661-23.319 43.737 1.35 3.971"/>
     <path d="m4921.5-2925.8c24.964 40.287 45.166-20.405 1.352-3.971"/>
     <path d="m4923.7-2934.1c44.907-15.174-9.6291-48.615-3.562-2.217"/>
     <path d="m4913.2-2936.3c6.1573-46.993-47.891-12.778-3.559 2.217"/>
    </g>
    <g fill="#2882e5" stroke-width="1.4614">
     <path d="m4868.9-2926.1c-17.125 83.695-109.77-30.237-24.488-30.048 13.932 2.5882 24.747 15.948 24.488 30.048z"/>
     <path d="m4840.4-2933.4c30.076-36.631-33.886-36.17-4.195 0"/>
     <path d="m4844.5-2925.7c44.371 16.661 23.314-43.736-1.353-3.971"/>
     <path d="m4833.4-2929.7c-24.968-40.284-45.164 20.402-1.354 3.971"/>
     <path d="m4831.3-2921.4c-44.894 15.169 9.6126 48.622 3.562 2.218"/>
     <path d="m4841.7-2919.1c-6.1606 46.991 47.892 12.782 3.563-2.218"/>
    </g>
    <g fill="#2882e5" stroke-width="1.4614">
     <path d="m4710.1-2926.1c-17.126 83.695-109.77-30.235-24.49-30.048 13.932 2.5881 24.749 15.947 24.49 30.048z"/>
     <path d="m4681.5-2933.4c30.081-36.623-33.876-36.178-4.195 0"/>
     <path d="m4685.6-2925.7c44.368 16.658 23.316-43.735-1.354-3.971"/>
     <path d="m4674.6-2929.7c-24.97-40.282-45.167 20.405-1.35 3.971"/>
     <path d="m4672.4-2921.4c-44.907 15.168 9.6209 48.623 3.56 2.218"/>
     <path d="m4682.9-2919.1c-6.1529 46.993 47.89 12.78 3.562-2.218"/>
    </g>
    <g fill="#e53333" stroke-width="1.4614">
     <path d="m4724.8-2929.3c17.127-83.693 109.77 30.237 24.489 30.049-13.932-2.5887-24.748-15.948-24.489-30.049z"/>
     <path d="m4753.4-2922.1c-30.084 36.626 33.882 36.177 4.192 0"/>
     <path d="m4749.3-2929.8c-44.366-16.659-23.317 43.734 1.355 3.971"/>
     <path d="m4760.3-2925.8c24.968 40.284 45.172-20.403 1.355-3.971"/>
     <path d="m4762.5-2934.1c44.902-15.168-9.6142-48.62-3.561-2.217"/>
     <path d="m4752-2936.3c6.16-46.99-47.894-12.783-3.563 2.217"/>
    </g>
    <g fill="#e53333" stroke-width="1.4614">
     <path d="m5030.1-2847.5c-17.124-83.695-109.77 30.238-24.487 30.047 13.931-2.5891 24.746-15.947 24.487-30.047z"/>
     <path d="m5001.6-2840.2c30.08 36.622-33.875 36.18-4.195 0"/>
     <path d="m5005.7-2847.9c44.373-16.658 23.312 43.738-1.354 3.972"/>
     <path d="m4994.6-2844c-24.964 40.285-45.169-20.405-1.35-3.972"/>
     <path d="m4992.5-2852.3c-44.899-15.173 9.6182-48.621 3.56-2.219"/>
     <path d="m5002.9-2854.5c-6.1574-46.988 47.887-12.787 3.564 2.219"/>
    </g>
    <g fill="#2882e5" stroke-width="1.4614">
     <path d="m4886-2844.3c17.126 83.694 109.77-30.238 24.488-30.048-13.932 2.5887-24.747 15.948-24.488 30.048z"/>
     <path d="m4914.6-2851.6c-30.078-36.627 33.879-36.176 4.194 0"/>
     <path d="m4910.5-2843.8c-44.367 16.664-23.318-43.738 1.35-3.97"/>
     <path d="m4921.5-2847.8c24.965-40.288 45.166 20.405 1.352 3.969"/>
     <path d="m4923.7-2839.5c44.907 15.174-9.6301 48.616-3.562 2.217"/>
     <path d="m4913.2-2837.3c6.1581 46.994-47.891 12.778-3.559-2.217"/>
    </g>
    <g fill="#e53333" stroke-width="1.4614">
     <path d="m4868.9-2847.5c-17.124-83.696-109.77 30.237-24.488 30.047 13.931-2.5885 24.747-15.947 24.488-30.047z"/>
     <path d="m4840.4-2840.2c30.076 36.631-33.885 36.17-4.195 0"/>
     <path d="m4844.5-2847.9c44.37-16.66 23.314 43.738-1.353 3.972"/>
     <path d="m4833.4-2844c-24.968 40.284-45.164-20.4-1.354-3.972"/>
     <path d="m4831.3-2852.3c-44.894-15.17 9.6125-48.622 3.562-2.219"/>
     <path d="m4841.7-2854.5c-6.1604-46.99 47.892-12.783 3.563 2.219"/>
    </g>
    <g fill="#e53333" stroke-width="1.4614">
     <path d="m4710.1-2847.5c-17.125-83.695-109.77 30.235-24.49 30.047 13.932-2.5883 24.749-15.946 24.49-30.047z"/>
     <path d="m4681.5-2840.2c30.081 36.623-33.876 36.178-4.195 0"/>
     <path d="m4685.6-2847.9c44.368-16.656 23.317 43.737-1.354 3.972"/>
     <path d="m4674.6-2844c-24.97 40.282-45.167-20.403-1.35-3.972"/>
     <path d="m4672.4-2852.3c-44.907-15.169 9.6208-48.623 3.56-2.219"/>
     <path d="m4682.9-2854.5c-6.1528-46.992 47.89-12.781 3.562 2.219"/>
    </g>
    <g fill="#2882e5" stroke-width="1.4614">
     <path d="m4724.8-2844.3c17.126 83.693 109.77-30.237 24.489-30.048-13.932 2.5887-24.748 15.947-24.489 30.048z"/>
     <path d="m4753.4-2851.6c-30.084-36.626 33.882-36.177 4.192 0"/>
     <path d="m4749.3-2843.8c-44.366 16.662-23.316-43.735 1.355-3.97"/>
     <path d="m4760.3-2847.8c24.968-40.285 45.171 20.404 1.355 3.969"/>
     <path d="m4762.5-2839.5c44.903 15.168-9.6152 48.62-3.561 2.217"/>
     <path d="m4752-2837.3c6.1608 46.991-47.894 12.782-3.563-2.217"/>
    </g>
    <g fill="none" stroke-width="1.4614">
     <path d="m4926.6-3186.9c-38.611-0.5247 6.4846-22.118 16.774-5.447"/>
     <path d="m4863.3-3163.4c49.638 4.5669-68.038-35.033-8.5297-6.6861l-3.5333 2.7691"/>
     <path d="m4997.1-3174.1c49.577 4.6102-67.877-35.145-8.5298-6.6861l-3.5332 2.7691"/>
     <path d="m5077.1-3041.7c4.5447-49.678-34.971 68.132-6.6855 8.5301l2.7695 3.5329"/>
     <path d="m5077.1-3125.8c-4.5118 49.714 34.894-68.223 6.6856-8.5301l-2.7666-3.5329"/>
     <path d="m5085.2-2960c-4.5571 49.65 35.01-68.059 6.686-8.5298l-2.767-3.5332"/>
     <path d="m5073.2-2732c-4.4562 49.795 34.744-68.432 6.6851-8.5301l-2.7691-3.5329"/>
     <path d="m5085.2-2863.6c-4.5197-49.704 34.914 68.199 6.686 8.5301l-2.767 3.5329"/>
     <path d="m4819.6-3190.8c-49.946-4.3488 68.827 34.476 8.5315 6.6871l3.5335-2.7691"/>
    </g>
   </g>
   <g transform="matrix(.060838 .011203 .011203 -.060838 27.578 -76.704)" filter="url(#filter20124)" stroke="#231f20" stroke-linecap="round" stroke-linejoin="round" stroke-miterlimit="10" stroke-width="4.2523">
    <path d="m1330.9-2916.3c26.792 1.9189 19.965 38.946 28.686 58.044 17.49 77.816 38.535 155.77 53.852 233.5-32.244 25.278-31.538-16.959-37.333-36.677-18.361-81.089-39.773-161.77-56.23-243.11 0.8949-5.6525 5.4198-10.518 11.025-11.752z" fill="#77401c"/>
    <path d="m1371.8-3019.2c6.5087 27.563 13.017 55.125 19.526 82.688-13.492 8.1787-52.995 0.285-42.453 23.315-15.593 32.515-33.053-3.4339-44.995-2.6639-19.398 4.6652-43.57 17.058-41.185-13.53-6.0575-34.318-27.406-72.728 1.4831-103.35 28.568-35.85 88.02-27.26 107.62 13.542z" fill="#c6c5c4"/>
    <path d="m1345.9-2925.8c-0.3452-3.9152-2.9706-9.1575-7.872-8.346" fill="none"/>
    <path d="m1313.3-2918.1c-0.9654-3.8929-1.7877-10.227 3.25-12.037" fill="none"/>
   </g>
   <path d="m74.014 116.81c-0.02249 1.031-0.47736 2.9597-0.22784 3.426 0.65044-0.82137 2.2121-1.814 2.3134-2.5322-0.69517-0.29794-1.3903-0.59587-2.0855-0.89381z" fill="#b3b3b3" filter="url(#filter20124)" stroke="#b3b3b3" stroke-width=".21927px"/>
   <g transform="matrix(.55408 0 0 .55408 28.205 52.1)">
    <path d="m143.89 136.48c-1.7338 0.7146-3.4677 1.4292-5.2015 2.1438-0.11597 0.69764-0.18571 1.3791 0.49677 1.7979 3.2096 3.3758 6.3612 6.8279 9.607 10.156 0.68858 0.35648 1.3437 0.85464 2.1617 0.66342 5.144-0.10081 10.288-0.20163 15.432-0.30244 1.676-0.73747 2.8646-2.1707 4.2626-3.3049 2.5667-2.2561 5.1335-4.5122 7.7002-6.7684-0.0266-0.56846 0.72492-1.4497-0.0155-1.7312-2.0614-1.3441-4.1229-2.6882-6.1843-4.0323" fill="#a7b300"/>
    <g fill="#40bfb8" stroke="#231f20" stroke-linecap="round" stroke-linejoin="round" stroke-miterlimit="10">
     <path d="m158.58 117.56c3.3267-0.036 6.6534-0.072 9.98-0.10795 0.0658 6.0785 0.13151 12.157 0.19726 18.236-3.3267 0.036-6.6534 0.072-9.98 0.10796-0.0658-6.0785-0.13151-12.157-0.19726-18.236z" stroke-width=".4388"/>
     <path d="m148.77 117.67c3.2707-0.0354 6.5414-0.0708 9.8121-0.10614 0.0784 7.2482 0.15681 14.496 0.23521 21.745-3.2707 0.0354-6.5414 0.0708-9.8121 0.10614-0.0784-7.2482-0.15681-14.496-0.23522-21.745z" stroke-width=".4388"/>
     <path d="m153.72 121.4c3.419-0.037 6.838-0.074 10.257-0.11095 0.0676 6.2472 0.13515 12.494 0.20273 18.742-3.419 0.037-6.838 0.074-10.257 0.11095-0.0676-6.2472-0.13516-12.494-0.20273-18.742z" stroke-width=".45097"/>
    </g>
    <g stroke="#231f20" stroke-linecap="round" stroke-linejoin="round" stroke-miterlimit="10">
     <path d="m158.67 117.27c-0.89014 2.3796-4.2931 2.2329-6.4225 2.1204-1.6112 0.16508-5.0299-1.6858-2.6709-3.2342 2.5099-1.3113 5.7769-1.3564 8.2923-0.0374 0.39337 0.25856 0.79328 0.64679 0.80117 1.1512z" fill="#6adbd8" stroke-width=".4388"/>
     <g stroke-width=".45096">
      <path d="m158.17 142.96c-0.86008-2.0147-3.6869-1.8573-5.5616-1.7006-1.4432 0.10381-3.3631 0.92929-2.9733 2.6597-0.3019 1.414 0.91109 2.4474 2.2639 2.5733 1.9806 0.35204 4.327 0.36064 5.9628-0.9679 0.57034-0.69699 0.23012-1.729 0.30808-2.5644z" fill="#3b79c4"/>
      <path d="m152.61 138.6c-0.86027-2.0145-3.6869-1.857-5.5616-1.7004-1.4431 0.10383-3.3631 0.92911-2.9733 2.6594-0.30188 1.4141 0.91084 2.4477 2.2639 2.5735 1.9807 0.35162 4.3273 0.36084 5.963-0.96805 0.57026-0.69737 0.22986-1.728 0.30796-2.5645z" fill="#3b79c4"/>
      <path d="m143.05 121.9c0.0944 3.6417-0.0248 7.2998 0.1956 10.932 0.40816 1.8197 1.1038 3.559 1.7875 5.289 0.58042 1.6882 3.3953 1.2185 4.923 1.0977 2.0604-0.01 1.8814-2.1928 2.5643-3.62 0.68891-1.8079 1.0139-3.7203 0.84252-5.6528-0.0294-2.7187-0.0589-5.4374-0.0884-8.1561-3.4082 0.0368-6.8164 0.0736-10.225 0.11039z" fill="#6adbd8"/>
      <path d="m153.27 121.79c-0.44169 1.7902-2.7537 2.0266-4.3099 2.2274-1.9424 0.0803-4.2272 4e-3 -5.6779-1.4632-0.88747-1.8707 1.9404-2.6096 3.3325-2.7992 2.1671-0.22776 4.7559-0.22925 6.4185 1.3815 0.14007 0.18784 0.23567 0.41632 0.23681 0.65349z" fill="#6adbd8"/>
      <path d="m173.85 138.37c-0.86002-2.0146-3.6869-1.8572-5.5616-1.7005-1.4432 0.10385-3.3631 0.92921-2.9733 2.6596-0.30193 1.4141 0.91182 2.4474 2.2644 2.5734 1.9805 0.35183 4.3268 0.3605 5.9624-0.96814 0.57146-0.69658 0.2291-1.7301 0.30798-2.5644z" fill="#3b79c4"/>
      <path d="m163.23 138.49c-0.85996-2.0147-3.6869-1.8575-5.5616-1.7007-1.443 0.10395-3.3636 0.92912-2.9735 2.6596-0.30153 1.4142 0.9114 2.4477 2.2645 2.5734 1.9805 0.35134 4.3269 0.3609 5.9624-0.96791 0.571-0.69693 0.22914-1.7293 0.30815-2.5644z" fill="#25619e"/>
      <path d="m164.28 121.67c0.0944 3.6418-0.0247 7.3 0.19599 10.932 0.40806 1.8196 1.1036 3.559 1.7871 5.289 0.58135 1.6884 3.3954 1.2186 4.9234 1.098 2.061-0.01 1.8814-2.1926 2.5647-3.6202 0.68909-1.8078 1.0132-3.7203 0.84208-5.6528-0.0293-2.7187-0.0587-5.4374-0.0881-8.1562-3.4084 0.0367-6.8168 0.0734-10.225 0.11015z" fill="#6adbd8"/>
     </g>
    </g>
    <g transform="matrix(.2055 .0094831 -.0094831 .2055 -453.95 669.88)">
     <g transform="matrix(.16446 -.0075891 .0075891 .16446 2801.2 -2929.8)" clip-path="url(#clipPath1921-6-3)">
      <path d="m81.199 834.25c-28.145-26.72-73.839-59.194-87.256-82.077-37.58 12.59-70.293-17.516-79.98 30.011-55.112 33.924-96.822 87.924-80.258 156.93-1.977 42.354 16.391 79.442 34.485 116.14 8.4645 18.227 16.929 36.453 25.394 54.68 58.46-3.288 116.92-6.576 175.38-9.864 18.092-84.499 43.447-173.32 16.389-258.68z" fill="#05f30a"/>
      <path d="m97.667 1219.4c8.4674-76.236-81.473-53.687-128.84-50.299-38.68 28.831-111.4-20.514-124.3 24.356-17.48 51.186 70.084 11.232 99.661 32.62 50.904 7.955 103.33 4.4167 153.48-6.6769z" fill="#f0f" stroke-width=".67478"/>
      <path d="m-56.662 1197.4c35.669-44.971 122.07-11.866 141.17-24.847-17.414-31.672 34.689-130.24-22.275-91.669-53.318 23.826-108.62 0.9959-155.21-25.191-48.777-15.132-80.141 21.304-56.664 66.45-12.533 56.537 28.917 99.479 86.475 79.308z" fill="#ff0" stroke-width="1.0707"/>
      <path d="m97.758 1210.9c-35.793 7.7108-98.878 31.903-146.11 12.551-40.361-18.344-135.73-44.956-110.53 31.902 1.7235 72.221 95.398 75.898 149.65 73.868 63.054 5.5959 124.2-39.853 107.09-107.05z" fill="#f0f"/>
      <path d="m-157.81 954.83c-17.219-40.275-20.213-111.54 39.931-78.122 62.593 29.859 129.17 2.9026 192.67-7.0598 46.494-2.9646 27.585 108.04-26.937 90.608-57.395 13.246-111.15-15.391-167.25-18.93-13.802 0.91358-26.27 7.4883-38.419 13.504z" fill="#00e6ff"/>
     </g>
     <path d="m2821.5-2797.5c-4.3086 8.4814-17.045 7.5022-25.336 7.7697-5.2384 0.927-20.3-4.1816-10.969-9.9957 10.467-4.6414 23.426-5.5026 34.008-0.8021 1.0745 0.6709 2.2241 1.6636 2.2975 3.0281z" fill="#00e6ff" stroke="#040404" stroke-linejoin="round" stroke-opacity=".99484" stroke-width="1.2152"/>
     <path d="m2807.9-2798.1c-2.4833 5.4561-19.09 0.551-7.4024-1.5612 2.3502-0.072 5.9247-0.7199 7.4024 1.5612z" fill="#6adbd8" stroke="#231f20" stroke-linecap="round" stroke-linejoin="round" stroke-miterlimit="10" stroke-width="1.03"/>
     <path d="m2794.6-2764c-2.2023 10.19-7.6917-0.7553-6.0454-5.9656-2.0992-5.744 4.5483-14.998 5.8834-4.461 0.054 3.4756 0.108 6.9511 0.162 10.427z" fill="#fff" stroke-width=".79843"/>
     <g stroke-linejoin="round">
      <g transform="translate(2.2616 -3.5901)" fill="none" stroke="#040404" stroke-opacity=".99484" stroke-width="1.2152">
       <path d="m2799.9-2713.9c-11.751 2.9886-10.429-11.57-14.419-18.473-4.3807-15.451-2.839-31.854-3.7319-47.754 11.74 3.8979 25.153 2.7346 36.44-2.12 1.5301 15.496 3.934 31.264 1.9871 46.787-3.5836 7.0059 0.1397 21.804-11.317 20.977-2.9692 0.3883-5.9648 0.574-8.9589 0.5831z" fill="none" stroke="#040404" stroke-linejoin="round" stroke-opacity=".99484" stroke-width="1.2152"/>
      </g>
      <path d="m2846.7-2820.3c-4.3087 8.4814-17.045 7.5022-25.336 7.7697-5.2385 0.927-20.3-4.1816-10.969-9.9956 10.467-4.6415 23.426-5.5026 34.008-0.802 1.0746 0.6707 2.2242 1.6635 2.2976 3.0279z" fill="#ff1e00" stroke="#040404" stroke-opacity=".99484" stroke-width="1.2152"/>
      <path d="m2833-2820.9c-2.4833 5.4561-19.09 0.551-7.4024-1.5612 2.3502-0.072 5.9247-0.7199 7.4024 1.5612z" fill="#6adbd8" stroke="#231f20" stroke-linecap="round" stroke-miterlimit="10" stroke-width="1.03"/>
     </g>
    </g>
    <g stroke="#231f20" stroke-linecap="round" stroke-linejoin="round" stroke-miterlimit="10" stroke-width=".45096">
     <path d="m153.7 121.67c0.0944 3.6418-0.0247 7.3 0.19599 10.932 0.40806 1.8196 1.1036 3.559 1.7871 5.289 0.58134 1.6884 3.3954 1.2186 4.9234 1.098 2.061-0.01 1.8814-2.1926 2.5647-3.6202 0.68909-1.8078 1.0132-3.7203 0.84207-5.6528-0.0293-2.7187-0.0587-5.4374-0.0881-8.1562-3.4084 0.0367-6.8168 0.0734-10.225 0.11014z" fill="#6adbd8"/>
     <path d="m148.6 126.26c0.0948 3.6417-0.0243 7.2999 0.19665 10.932 0.4084 1.8196 1.1038 3.5589 1.7873 5.2889 0.5816 1.6881 3.3954 1.2191 4.9234 1.0978 2.0607-0.0101 1.881-2.1928 2.5644-3.6202 0.68915-1.8078 1.0141-3.7203 0.84263-5.6529l-0.0879-8.1561c-3.4088 0.0368-6.8176 0.0737-10.226 0.1105z" fill="#6adbd8"/>
     <path d="m168.39 142.85c-0.86059-2.0147-3.6871-1.8576-5.562-1.7008-1.4434 0.10373-3.3631 0.92939-2.9733 2.6599-0.30186 1.4139 0.91081 2.4474 2.2637 2.5731 1.9807 0.35158 4.3272 0.36056 5.9631-0.96795 0.57069-0.69687 0.22944-1.7291 0.30844-2.5642z" fill="#3b79c4"/>
     <path d="m164.28 121.67c0.48009 1.7801 2.7964 1.9666 4.3565 2.1336 1.9437 0.0382 4.2264-0.0871 5.645-1.5857 0.8463-1.8896-1.9963-2.567-3.3922-2.7265-2.1714-0.181-4.7597-0.12624-6.3868 1.5201-0.13594 0.19085-0.22652 0.42136-0.22244 0.65849z" fill="#6adbd8"/>
    </g>
    <g transform="matrix(.2055 .0094831 -.0094831 .2055 -432.95 669.81)">
     <g transform="matrix(.16446 -.0075891 .0075891 .16446 2801.2 -2929.8)" clip-path="url(#clipPath1921)">
      <g>
       <path d="m81.199 834.25c-28.145-26.72-73.839-59.194-87.256-82.077-37.58 12.59-70.293-17.516-79.98 30.011-55.112 33.924-96.822 87.924-80.258 156.93-1.977 42.354 16.391 79.442 34.485 116.14 8.4645 18.227 16.929 36.453 25.394 54.68 58.46-3.288 116.92-6.576 175.38-9.864 18.092-84.499 43.447-173.32 16.389-258.68z" fill="#fa8d04"/>
       <path d="m97.667 1206.3c-4.7679-50.531 6.8281-132.69-68.268-120.49-53.235-11.499-92.365 47.937-144.52 26.746-55.751-37.457-36.669 58.688-44.326 94.959 63.086-18.142 118.85 34.541 182.07 21.516 26.042-3.197 51.669-10.766 75.04-22.732z" fill="#05f30a"/>
       <path d="m-56.662 1157.4c37.575-39.27 119.06-10.578 141.17-21.675-14.417-36.822 34.705-119.49-31.903-77.254-54.111 19.548-104.97-9.3245-154.14-26.158-49.868-10.516-66.42 25.609-46.84 66.723-18.509 58.845 47.815 77.918 91.715 58.363z" fill="#00e6ff"/>
       <path d="m97.758 1210.9c-35.793 7.7108-98.878 31.903-146.11 12.551-40.361-18.344-135.73-44.956-110.53 31.902 1.7235 72.221 95.398 75.898 149.65 73.868 63.054 5.5959 124.2-39.853 107.09-107.05z" fill="#05f30a"/>
      </g>
      <path d="m-157.81 954.83c-17.219-40.275-20.213-111.54 39.931-78.122 62.593 29.859 129.17 2.9026 192.67-7.0598 46.494-2.9646 27.585 108.04-26.937 90.608-57.395 13.246-111.15-15.391-167.25-18.93-13.802 0.91358-26.27 7.4883-38.419 13.504z" fill="#ff0"/>
     </g>
     <path d="m2821.5-2797.5c-4.3086 8.4814-17.045 7.5022-25.336 7.7697-5.2384 0.927-20.3-4.1816-10.969-9.9957 10.467-4.6414 23.426-5.5026 34.008-0.8021 1.0745 0.6709 2.2241 1.6636 2.2975 3.0281z" fill="#ff0" stroke="#040404" stroke-linejoin="round" stroke-opacity=".99484" stroke-width="1.2152"/>
     <path d="m2807.9-2798.1c-2.4833 5.4561-19.09 0.551-7.4024-1.5612 2.3502-0.072 5.9247-0.7199 7.4024 1.5612z" fill="#6adbd8" stroke="#231f20" stroke-linecap="round" stroke-linejoin="round" stroke-miterlimit="10" stroke-width="1.03"/>
     <path d="m2794.6-2764c-2.2023 10.19-7.6917-0.7553-6.0454-5.9656-2.0992-5.744 4.5483-14.998 5.8834-4.461 0.054 3.4756 0.108 6.9511 0.162 10.427z" fill="#fff" stroke-width=".79843"/>
     <g transform="translate(2.2616 -3.5901)" fill="none" stroke="#040404" stroke-linejoin="round" stroke-opacity=".99484" stroke-width="1.2152">
      <path d="m2799.9-2713.9c-11.751 2.9886-10.429-11.57-14.419-18.473-4.3807-15.451-2.839-31.854-3.7319-47.754 11.74 3.8979 25.153 2.7346 36.44-2.12 1.5301 15.496 3.934 31.264 1.9871 46.787-3.5836 7.0059 0.1397 21.804-11.317 20.977-2.9692 0.3883-5.9648 0.574-8.9589 0.5831z" fill="none" stroke="#040404" stroke-linejoin="round" stroke-opacity=".99484" stroke-width="1.2152"/>
     </g>
    </g>
    <g fill="#6adbd8" stroke="#231f20" stroke-linecap="round" stroke-linejoin="round" stroke-miterlimit="10">
     <g stroke-width=".45096">
      <path d="m158.83 126.14c0.0941 3.6417-0.0254 7.2999 0.1956 10.932 0.40814 1.8196 1.1038 3.559 1.7875 5.2889 0.581 1.6883 3.3953 1.2187 4.9231 1.0978 2.0601-0.01 1.8817-2.1932 2.5645-3.6202 0.68897-1.8079 1.0144-3.7203 0.84272-5.6529-0.0294-2.7187-0.0588-5.4374-0.0883-8.1561-3.4084 0.0369-6.8168 0.0737-10.225 0.11055z"/>
      <path d="m158.83 126.14c-0.44207 1.79-2.7538 2.0266-4.3101 2.2274-1.9426 0.0802-4.2274 4e-3 -5.6785-1.4631-0.88751-1.8709 1.9411-2.6096 3.3332-2.7992 2.1671-0.22787 4.7556-0.2289 6.4183 1.3815 0.14013 0.18783 0.23583 0.41629 0.23705 0.65349z"/>
      <path d="m158.83 126.14c0.48045 1.7801 2.7969 1.9664 4.3571 2.1334 1.9437 0.0382 4.2263-0.0873 5.645-1.5857 0.8466-1.8897-1.9971-2.5667-3.3928-2.7262-2.1714-0.18128-4.7594-0.12618-6.3866 1.52-0.13598 0.19085-0.22665 0.42134-0.22265 0.6585z"/>
     </g>
     <path d="m168.63 117.18c-0.89026 2.3794-4.2932 2.2326-6.4225 2.1202-1.611 0.16509-5.03-1.6856-2.6709-3.2339 2.5099-1.3112 5.7769-1.3563 8.2923-0.0375 0.39335 0.25852 0.79327 0.64672 0.80116 1.1511z" stroke-width=".4388"/>
     <path d="m163.89 121.68c-0.44184 1.79-2.7536 2.0265-4.3098 2.2274-1.9423 0.0802-4.2271 4e-3 -5.6777-1.4632-0.88677-1.871 1.9403-2.6097 3.3325-2.7993 2.167-0.22804 4.7556-0.22892 6.4181 1.3816 0.14008 0.18785 0.23572 0.41632 0.23686 0.65351z" stroke-width=".45096"/>
     <path d="m165.58 126.01c-0.59382 0.85617-3.4906 0.96844-3.4113-0.19253 0.94596-0.47518 2.6768-0.66458 3.4113 0.19253z" stroke-width=".30064"/>
    </g>
    <g transform="matrix(.2055 .0094831 -.0094831 .2055 -448.54 674.45)">
     <g transform="matrix(.16446 -.0075891 .0075891 .16446 2801.2 -2929.8)" clip-path="url(#clipPath1921)">
      <path d="m81.199 834.25c-28.145-26.72-73.839-59.194-87.256-82.077-37.58 12.59-70.293-17.516-79.98 30.011-55.112 33.924-96.822 87.924-80.258 156.93-1.9758 42.346 16.383 79.429 34.476 116.12 8.4676 18.233 16.935 36.466 25.403 54.7 58.46-3.288 116.92-6.576 175.38-9.864 18.092-84.499 43.446-173.32 16.389-258.68z" fill="#05f30a"/>
      <path d="m97.667 1219.4c8.4674-76.236-81.473-53.687-128.84-50.299-38.68 28.831-111.4-20.514-124.3 24.356-17.48 51.186 70.084 11.232 99.661 32.62 50.904 7.955 103.33 4.4167 153.48-6.6769z" fill="#f0f" stroke-width=".67478"/>
      <path d="m-56.662 1197.4c35.669-44.971 122.07-11.866 141.17-24.847-17.414-31.672 34.689-130.24-22.275-91.669-53.318 23.826-108.62 0.9959-155.21-25.191-48.777-15.132-80.141 21.304-56.664 66.45-12.533 56.537 28.917 99.479 86.475 79.308z" fill="#ff0" stroke-width="1.0707"/>
      <path d="m97.758 1210.9c-35.793 7.7108-98.878 31.903-146.11 12.551-40.361-18.344-135.73-44.956-110.53 31.902 1.7235 72.221 95.398 75.898 149.65 73.868 63.054 5.5959 124.2-39.853 107.09-107.05z" fill="#f0f"/>
      <path d="m-157.81 954.83c-17.219-40.275-20.213-111.54 39.931-78.122 62.593 29.859 129.17 2.9026 192.67-7.0598 46.494-2.9646 27.585 108.04-26.937 90.608-57.395 13.246-111.15-15.391-167.25-18.93-13.802 0.91358-26.27 7.4883-38.419 13.504z" fill="#fa8d04"/>
     </g>
     <path d="m2821.5-2797.5c-4.3086 8.4814-17.045 7.5022-25.336 7.7697-5.2384 0.927-20.3-4.1816-10.969-9.9957 10.467-4.6414 23.426-5.5026 34.008-0.8021 1.0745 0.6709 2.2241 1.6636 2.2975 3.0281z" fill="#fa8d04" stroke="#040404" stroke-linejoin="round" stroke-opacity=".99484" stroke-width="1.2152"/>
     <path d="m2807.9-2798.1c-2.4833 5.4561-19.09 0.551-7.4024-1.5612 2.3502-0.072 5.9247-0.7199 7.4024 1.5612z" fill="#6adbd8" stroke="#231f20" stroke-linecap="round" stroke-linejoin="round" stroke-miterlimit="10" stroke-width="1.03"/>
     <path d="m2794.6-2764c-2.2013 10.189-7.6917-0.7533-6.0453-5.9636-2.0988-5.7441 4.5465-15.001 5.8833-4.4632l0.162 10.427z" fill="#fff" stroke-width=".79843"/>
     <g transform="translate(2.2616 -3.5901)" fill="none" stroke="#040404" stroke-linejoin="round" stroke-opacity=".99484" stroke-width="1.2152">
      <path d="m2799.9-2713.9c-11.751 2.9886-10.429-11.57-14.419-18.473-4.3807-15.451-2.839-31.854-3.7319-47.754 11.74 3.8979 25.153 2.7346 36.44-2.12 1.5301 15.496 3.934 31.264 1.9871 46.787-3.5836 7.0059 0.1397 21.804-11.317 20.977-2.9692 0.3883-5.9648 0.574-8.9589 0.5831z" fill="none" stroke="#040404" stroke-linejoin="round" stroke-opacity=".99484" stroke-width="1.2152"/>
     </g>
    </g>
    <g transform="matrix(.2055 .0094831 -.0094831 .2055 -438.28 674.35)">
     <g transform="matrix(.16446 -.0075891 .0075891 .16446 2801.2 -2929.8)" clip-path="url(#clipPath1921-8)">
      <path d="m81.199 834.25c-28.145-26.72-73.839-59.194-87.256-82.077-37.58 12.59-70.293-17.516-79.98 30.011-55.112 33.924-96.822 87.924-80.258 156.93-1.9758 42.346 16.383 79.429 34.476 116.12 8.4676 18.233 16.935 36.466 25.403 54.7 58.46-3.288 116.92-6.576 175.38-9.864 18.092-84.499 43.446-173.32 16.389-258.68z" fill="#05f30a"/>
      <path d="m-159.44 1203.1c4.2889-50.058-5.601-129.87 68.268-117.34 53-11.261 92.55 46.724 144.52 26.048 55.137-36.836 36.941 56.63 44.326 92.479-51.378 31.987-113.88 48.289-173.17 29.61-28.99-7.1262-57.221-17.49-83.943-30.795z" fill="#ff1e00" stroke-width=".98686"/>
      <path d="m-56.662 1157.4c37.575-39.27 119.06-10.578 141.17-21.675-14.417-36.822 34.705-119.49-31.903-77.254-54.111 19.548-104.97-9.3245-154.14-26.158-49.868-10.516-66.42 25.609-46.84 66.723-18.509 58.845 47.815 77.918 91.715 58.363z" fill="#ff0"/>
      <path d="m97.758 1210.9c-35.793 7.7108-98.878 31.903-146.11 12.551-40.361-18.344-135.73-44.956-110.53 31.902 1.7235 72.221 95.398 75.898 149.65 73.868 63.054 5.5959 124.2-39.853 107.09-107.05z" fill="#ff1e00"/>
      <path d="m-160.6 1058.9c-16.305-40.525-21.869-116.05 39.931-81.393 59.502 29.352 123.76 6.0332 184.12-6.1756 57.582-17.68 39.665 111.27-18.38 93.222-57.531 13.786-111.12-16.038-167.25-19.723-13.881 0.9675-26.314 7.8336-38.419 14.07z" fill="#f0f"/>
     </g>
     <path d="m2821.5-2798.1c-3.9177 8.8796-16.948 8.1566-25.282 8.294-5.6235 0.9291-20.27-4.7824-10.996-10.832 10.337-4.974 23.533-5.8367 33.971-0.7391 1.1152 0.7479 2.2374 1.8495 2.3064 3.2776z" fill="#05f30a" stroke="#040404" stroke-linejoin="round" stroke-opacity=".99484" stroke-width="1.262"/>
     <path d="m2807.9-2798.1c-2.4833 5.4561-19.09 0.551-7.4024-1.5612 2.3502-0.072 5.9247-0.7199 7.4024 1.5612z" fill="#6adbd8" stroke="#231f20" stroke-linecap="round" stroke-linejoin="round" stroke-miterlimit="10" stroke-width="1.03"/>
     <path d="m2794.6-2764c-2.2013 10.189-7.6917-0.7533-6.0453-5.9636-2.0988-5.7441 4.5465-15.001 5.8833-4.4632l0.162 10.427z" fill="#fff" stroke-width=".79843"/>
     <g stroke-linejoin="round">
      <g transform="translate(2.2616 -3.5901)" fill="none" stroke="#040404" stroke-opacity=".99484" stroke-width="1.2152">
       <path d="m2799.9-2713.9c-11.751 2.9886-10.429-11.57-14.419-18.473-4.3807-15.451-2.839-31.854-3.7319-47.754 11.74 3.8979 25.153 2.7346 36.44-2.12 1.5301 15.496 3.934 31.264 1.9871 46.787-3.5836 7.0059 0.1397 21.804-11.317 20.977-2.9692 0.3883-5.9648 0.574-8.9589 0.5831z" fill="none" stroke="#040404" stroke-linejoin="round" stroke-opacity=".99484" stroke-width="1.2152"/>
      </g>
      <path d="m2795-2818.5c-3.9178 8.8795-16.948 8.1566-25.282 8.294-5.6234 0.929-20.27-4.7823-10.996-10.832 10.336-4.974 23.533-5.8367 33.971-0.7392 1.1152 0.7479 2.2375 1.8497 2.3065 3.2777z" fill="#999" stroke="#040404" stroke-opacity=".99484" stroke-width="1.262"/>
      <path d="m2781.5-2818.5c-2.4833 5.4561-19.09 0.551-7.4024-1.5612 2.3502-0.072 5.9247-0.7199 7.4024 1.5612z" fill="#6adbd8" stroke="#231f20" stroke-linecap="round" stroke-miterlimit="10" stroke-width="1.03"/>
     </g>
    </g>
    <path d="m167.77 117.25c-0.96586 1.7021-3.574 1.3801-5.2804 1.3564-1.0853 0.14082-4.132-1.0518-2.1595-2.1582 2.1951-0.85458 4.8664-0.90866 6.9964 0.15767 0.21447 0.14805 0.44129 0.36296 0.44343 0.64405z" fill="#f0f" stroke="#040404" stroke-linejoin="round" stroke-opacity=".99484" stroke-width=".25"/>
    <path d="m164.98 117c-0.56204 1.0977-3.9283-0.0676-1.5064-0.39103 0.48368 7e-3 1.2244-0.0919 1.5064 0.39103z" fill="#6adbd8" stroke="#231f20" stroke-linecap="round" stroke-linejoin="round" stroke-miterlimit="10" stroke-width=".2119"/>
   </g>
  </g>
 </g>
</svg>
