<?xml version="1.0" encoding="UTF-8"?>
<svg width="85.562mm" height="90.637mm" version="1.1" viewBox="0 0 85.562 90.637" xmlns="http://www.w3.org/2000/svg" xmlns:cc="http://creativecommons.org/ns#" xmlns:dc="http://purl.org/dc/elements/1.1/" xmlns:rdf="http://www.w3.org/1999/02/22-rdf-syntax-ns#">
 <metadata>
  <rdf:RDF>
   <cc:Work rdf:about="">
    <dc:format>image/svg+xml</dc:format>
    <dc:type rdf:resource="http://purl.org/dc/dcmitype/StillImage"/>
   </cc:Work>
  </rdf:RDF>
 </metadata>
 <g transform="translate(-62.662 -75.105)">
  <path d="m71.639 81.584h67.94c1.4008 0 2.5348 1.1277 2.5284 2.5284l-0.33302 72.623c-7e-3 1.4007-1.1277 2.5284-2.5284 2.5284h-67.94c-1.4007 0-2.5348-1.1277-2.5284-2.5284l0.33301-72.623c0.0063-1.4007 1.1277-2.5284 2.5284-2.5284z" fill="#4d4d4d" filter="url(#filter25990)"/>
  <g transform="matrix(.13498 0 0 .13498 25.634 65.161)" fill="#fff" filter="url(#filter25990)" aria-label="  CATALYST PROGRAM   ">
   <path d="m426.73 486.14q-2.0417-2.9167-3.6823-4.1198-1.6406-1.2396-3.5365-1.75-1.8958-0.54687-3.974-0.54687-3.0625 0-5.6875 1.3854-2.625 1.349-4.5573 3.7188-1.8958 2.3333-2.9896 5.4687-1.0938 3.099-1.0938 6.599 0 3.5365 1.0573 6.6719 1.0938 3.099 2.9896 5.4323t4.5208 3.7188q2.625 1.349 5.7604 1.349 2.1875 0 4.0833-0.69271 1.8958-0.72917 3.4271-1.8958 1.5677-1.1667 2.7344-2.6615 1.1667-1.5312 1.8229-3.1719l11.74 3.2812q-1.1302 3.5729-3.3177 6.6354-2.1875 3.026-5.2865 5.25-3.0625 2.224-6.9271 3.5-3.8281 1.276-8.276 1.276-3.7552 0-7.1823-1.0208-3.4271-1.0208-6.4167-2.8802-2.9531-1.8594-5.3958-4.4844-2.4062-2.625-4.1198-5.7969-1.7135-3.2083-2.6615-6.8542-0.94792-3.6823-0.94792-7.6562 0-5.9427 2.0781-11.12 2.0781-5.2135 5.6875-9.0781 3.6094-3.901 8.4583-6.125 4.8854-2.2604 10.5-2.2604 4.4844 0 7.5469 1.1302 3.0625 1.0938 6.7448 4.375h8.1667v12.323z"/>
   <path d="m475.69 514.62h5.5052l-2.4792-7.9479h-16.99l-2.4792 7.9479h5.8333v9.9896h-20.964v-9.9896h4.1198l15.057-45.281h14.62l14.729 45.281h4.0104v9.9896h-20.964zm-11.083-17.281h11.156l-5.6146-17.974z"/>
   <path d="m507.55 514.62h5.724v-35.62h-6.7083v7.1458h-11.885v-16.807h50.276v16.807h-11.958v-7.1458h-7.6198v35.62h5.8333v9.9896h-23.661z"/>
   <path d="m575.07 514.62h5.5052l-2.4792-7.9479h-16.99l-2.4792 7.9479h5.8333v9.9896h-20.964v-9.9896h4.1198l15.057-45.281h14.62l14.729 45.281h4.0104v9.9896h-20.964zm-11.083-17.281h11.156l-5.6146-17.974z"/>
   <path d="m601.11 469.33h23.661v10.026h-5.8333v35.255h12.031q0.47395 0 0.91145-0.25521 0.47396-0.29166 0.80209-0.72916 0.36458-0.4375 0.58333-0.94792t0.21875-0.98437v-7.401h11.812v20.307h-44.188v-9.9896h5.724v-35.255h-5.724z"/>
   <path d="m647.85 469.33h23.661v10.026h-4.6302l7.401 12.687 7.8385-12.687h-5.2865v-10.026h23.661v10.026h-4.0833l-16.443 22.312v12.943h6.7083v9.9896h-24.646v-9.9896h6.125v-13.089l-15.458-22.167h-4.849z"/>
   <path d="m732.83 484.9q-0.18229-1.276-0.91145-2.4062-0.69271-1.1302-1.8229-1.9323-1.0938-0.83854-2.5156-1.3125-1.3854-0.47396-2.9167-0.47396-1.3854 0-2.5885 0.29167-1.2031 0.29167-2.1146 0.91146-0.875 0.58333-1.4219 1.5312-0.51042 0.94791-0.51042 2.2604 0 1.6406 0.69271 2.625 0.72917 0.94792 1.8229 1.5677 1.1302 0.61979 2.4792 0.98438 1.349 0.36458 2.625 0.80208l10.026 3.3542q2.0781 0.72916 3.901 2.0052 1.8229 1.276 3.1354 3.099 1.349 1.8229 2.1146 4.1927 0.76562 2.3698 0.76562 5.3229 0 4.0104-1.4948 7.3281-1.4583 3.3177-4.1198 5.6875t-6.3802 3.6823-8.2396 1.3125q-3.1719 0-6.0156-0.72916-2.8073-0.69271-5.1406-2.0417-2.3333-1.349-4.0833-3.2083-1.75-1.8958-2.7344-4.2656h-3.7552v-10.974h13.198v2.2604q0 1.6406 0.51041 3.026 0.54688 1.3854 1.6042 2.4062 1.0573 1.0208 2.6615 1.6042 1.6042 0.54687 3.7552 0.54687 3.2812 0 4.9948-1.4948 1.7135-1.5312 1.7135-4.2292 0-1.3854-0.61979-2.2969-0.58334-0.94792-1.5312-1.5677-0.94792-0.65625-2.1146-1.0938-1.1667-0.4375-2.2969-0.80208l-8.349-2.6979q-2.3698-0.72916-4.5938-2.0417-2.1875-1.3125-3.901-3.2812-1.6771-1.9688-2.6979-4.5938-0.98437-2.6615-0.98437-6.0521 0-3.9375 1.4583-7 1.4583-3.099 4.0833-5.2135 2.625-2.1146 6.2344-3.2083 3.6094-1.0938 7.9115-1.0938 3.3906 0 6.2708 0.80208 2.8802 0.76563 5.1406 2.0781 2.2969 1.3125 3.8646 3.026 1.6042 1.6771 2.4427 3.5h3.6458v11.01h-13.198z"/>
   <path d="m761.09 514.62h5.724v-35.62h-6.7083v7.1458h-11.885v-16.807h50.276v16.807h-11.958v-7.1458h-7.6198v35.62h5.8333v9.9896h-23.661z"/>
   <path d="m386.51 527.42h25.521q4.2656 0 7.8385 1.349 3.5729 1.3125 6.1615 3.5729t4.0469 5.2135q1.4583 2.9531 1.4583 6.1615 0 3.8646-1.1667 7.2552-1.1302 3.3542-3.5365 5.8333t-6.0885 3.9375q-3.6823 1.4219-8.7135 1.4219h-7.6927v10.536h5.0677v9.9896h-22.896v-9.9896h5.724v-35.255h-5.724zm17.828 10.026v14.839h4.9948q4.1562 0 6.599-1.75t2.4427-5.5417q0-3.5365-2.2969-5.5417-2.2969-2.0052-6.7448-2.0052z"/>
   <path d="m437.55 527.42h29.24q4.2656 0 7.6198 1.276 3.3542 1.276 5.651 3.4271 2.2969 2.1146 3.5 4.9583 1.2396 2.8073 1.2396 5.8698 0 2.8073-0.61979 4.9219-0.58334 2.1146-1.75 3.7552-1.1302 1.6406-2.8073 2.9167-1.6771 1.2396-3.8281 2.2604 1.8594 0.94792 3.2812 2.9167 1.4219 1.9323 2.151 5.0312l1.8594 7.1823h4.5573l0.0729 10.755h-16.042l-2.1875-13.125q-0.32813-2.3333-1.0208-4.0104-0.65625-1.7135-1.7865-2.7708-1.1302-1.0938-2.7708-1.6042-1.6042-0.51042-3.8281-0.51042h-4.7031v12.031h5.0677v9.9896h-22.896v-9.9896h5.724v-35.255h-5.724zm17.828 10.026v13.38h7.2552q2.0781 0 3.7188-0.36458 1.6771-0.40104 2.8438-1.2031 1.2031-0.83855 1.8229-2.0781 0.65625-1.2396 0.65625-2.9531 0-3.2083-2.2969-4.9948-2.2969-1.7864-6.7448-1.7864z"/>
   <path d="m518.42 583.67q-3.7552 0-7.1823-1.0208-3.4271-1.0208-6.4167-2.8802-2.9531-1.8594-5.3958-4.4479-2.4062-2.625-4.1198-5.7969-1.7135-3.2083-2.6615-6.8542-0.94792-3.6458-0.94792-7.6198t0.94792-7.6198q0.94792-3.6823 2.6615-6.8542 1.7135-3.2083 4.1198-5.7969 2.4427-2.625 5.3958-4.4844 2.9896-1.8594 6.4167-2.8802 3.4271-1.0208 7.1823-1.0208t7.1823 1.0208q3.4635 1.0208 6.4167 2.8802 2.9896 1.8594 5.3958 4.4844 2.4427 2.5885 4.1562 5.7969 1.75 3.1719 2.6979 6.8542 0.94791 3.6458 0.94791 7.6198 0 3.9375-0.94791 7.6198-0.94792 3.6458-2.6979 6.8542-1.7135 3.1719-4.1562 5.7969-2.4062 2.5885-5.3958 4.4479-2.9531 1.8594-6.4167 2.8802-3.4271 1.0208-7.1823 1.0208zm0-11.448q3.1719 0 5.7969-1.349 2.6614-1.3854 4.5573-3.7188 1.8958-2.3698 2.9167-5.4688 1.0573-3.1354 1.0573-6.6354 0-3.5365-1.0573-6.6719-1.0573-3.1354-2.9896-5.4688-1.8958-2.3698-4.5208-3.7188-2.625-1.3854-5.7604-1.3854t-5.7604 1.3854q-2.625 1.349-4.5208 3.7188-1.8958 2.3333-2.9896 5.4688-1.0573 3.1354-1.0573 6.6719 0 3.5 1.0573 6.6354 1.0938 3.099 2.9896 5.4688 1.8958 2.3333 4.5208 3.7188 2.625 1.349 5.7604 1.349z"/>
   <path d="m592.54 582.69v-9.4792q-2.2604 3.974-4.4115 5.8333-2.151 1.8594-4.8854 2.9896-2.6979 1.1302-7.2552 1.0938-2.2604-0.0365-4.5208-0.51042-2.2604-0.51042-4.375-1.3854-2.1146-0.91146-4.1562-2.151-2.0052-1.276-3.6458-2.9167-4.0469-4.0833-6.3073-9.4427-2.224-5.3958-2.224-11.74 0-3.901 0.94792-7.5469t2.6615-6.8177q1.7135-3.1719 4.1198-5.7604 2.4427-2.625 5.3958-4.4844 2.9896-1.8594 6.4167-2.8802t7.1823-1.0208q4.3021 0 7.474 1.1667 3.1719 1.1302 6.8177 4.2656h8.1667v12.323h-11.266q-1.6771-2.5886-3.1719-3.7552-1.4583-1.1667-3.2083-1.9323-1.7135-0.76563-4.8125-0.76563-3.0625 0-5.6875 1.3854-2.625 1.3854-4.5573 3.7552-1.8958 2.3333-2.9896 5.5417-1.0938 3.1719-1.0938 6.526 0 3.3177 0.98437 6.3073 0.98438 2.9896 2.9896 5.3958 2.0052 2.3698 4.6667 3.6458t5.6875 1.276q3.8646 0 6.7448-2.2604 2.8802-2.2604 4.1562-6.1615h-10.536v-9.9896h25.594v29.495z"/>
   <path d="m612.12 527.42h29.24q4.2656 0 7.6198 1.276 3.3542 1.276 5.651 3.4271 2.2969 2.1146 3.5 4.9583 1.2396 2.8073 1.2396 5.8698 0 2.8073-0.61979 4.9219-0.58333 2.1146-1.75 3.7552-1.1302 1.6406-2.8073 2.9167-1.6771 1.2396-3.8281 2.2604 1.8594 0.94792 3.2812 2.9167 1.4219 1.9323 2.151 5.0312l1.8594 7.1823h4.5573l0.0729 10.755h-16.042l-2.1875-13.125q-0.32812-2.3333-1.0208-4.0104-0.65625-1.7135-1.7865-2.7708-1.1302-1.0938-2.7708-1.6042-1.6042-0.51042-3.8281-0.51042h-4.7031v12.031h5.0677v9.9896h-22.896v-9.9896h5.724v-35.255h-5.724zm17.828 10.026v13.38h7.2552q2.0781 0 3.7188-0.36458 1.6771-0.40104 2.8438-1.2031 1.2031-0.83855 1.8229-2.0781 0.65625-1.2396 0.65625-2.9531 0-3.2083-2.2969-4.9948-2.2969-1.7864-6.7448-1.7864z"/>
   <path d="m696.41 572.7h5.5052l-2.4792-7.9479h-16.99l-2.4792 7.9479h5.8333v9.9896h-20.964v-9.9896h4.1198l15.057-45.281h14.62l14.729 45.281h4.0104v9.9896h-20.964zm-11.083-17.281h11.156l-5.6146-17.974z"/>
   <path d="m722.37 572.7h5.1406v-35.255h-5.1406v-10.026h22.75l16.297 39.885 15.13-39.885h23.078v10.026h-5.1406v35.255h5.0677v9.9896h-20.672v-9.9896h3.7917v-31.792l-16.552 41.125h-10.245l-16.844-40.031v30.698h4.1198v9.9896h-20.781z"/>
  </g>
  <g fill="#00e6ff">
   <path d="m79.005 151.21q-0.36824 0-0.63695-0.15924-0.26871-0.15922-0.41799-0.44786-0.14431-0.28861-0.14431-0.68172 0-0.38813 0.14928-0.68173 0.14929-0.29857 0.42298-0.46278 0.27368-0.16422 0.6469-0.16422 0.25378 0 0.48765 0.0896 0.23886 0.0846 0.39312 0.23885l-0.13435 0.29857q-0.18412-0.14431-0.36326-0.21398-0.17417-0.0746-0.36326-0.0746-0.37819 0-0.60211 0.25379-0.21896 0.25378-0.21896 0.71657 0 0.4578 0.21896 0.70661 0.21895 0.2488 0.60211 0.2488 0.18412 0 0.36326-0.0696 0.17914-0.0747 0.36326-0.21895l0.13435 0.29857q-0.15924 0.14928-0.40307 0.23886-0.23885 0.0846-0.49761 0.0846z" filter="url(#filter25990)"/>
   <path d="m82.465 150.87q-0.16421 0.15424-0.42297 0.24382-0.25379 0.0896-0.52249 0.0896-0.38814 0-0.67179-0.15426-0.27865-0.15426-0.43292-0.44288-0.14928-0.29359-0.14928-0.69666 0-0.38813 0.14928-0.68173 0.14928-0.29359 0.41302-0.45781 0.26872-0.16421 0.61705-0.16421 0.3334 0 0.57225 0.14929 0.23885 0.14431 0.36326 0.418 0.12938 0.27368 0.12938 0.65684v0.0746h-1.8909v-0.26373h1.662l-0.12938 0.18412q0.01-0.4379-0.17416-0.67179-0.17914-0.23387-0.52747-0.23387-0.36326 0-0.57226 0.25876-0.20402 0.25378-0.20402 0.7066 0 0.48766 0.21398 0.73649 0.21895 0.24879 0.63694 0.24879 0.21895 0 0.418-0.0696 0.20402-0.0747 0.38814-0.22392z" filter="url(#filter25990)"/>
   <path d="m83.126 151.17v-1.8014q0-0.17416-0.01-0.34833-5e-3 -0.17913-0.0298-0.3533h0.38316l0.0548 0.61704-0.0548-0.015q0.0696-0.32842 0.29856-0.49263 0.23388-0.16919 0.5225-0.16919 0.0647 0 0.11942 0.01 0.0597 5e-3 0.10948 0.0199l-0.01 0.36824q-0.11445-0.0398-0.26373-0.0398-0.25877 0-0.418 0.11445-0.15426 0.11445-0.2289 0.29359-0.0696 0.17417-0.0696 0.36823v1.4282z" filter="url(#filter25990)"/>
   <path d="m84.765 148.99v-0.31847h1.6073v0.31847zm1.5973 1.8262v0.34335q-0.0846 0.0249-0.16919 0.0349-0.0796 0.0149-0.17914 0.0149-0.34833 0-0.55733-0.19904-0.20402-0.19905-0.20402-0.59714v-2.3836l0.40307-0.1443v2.4731q0 0.19904 0.0548 0.30852 0.0597 0.10947 0.15924 0.15426 0.0995 0.0398 0.22393 0.0398 0.0747 0 0.13435-0.01 0.0597-0.01 0.13436-0.0349z" filter="url(#filter25990)"/>
   <path d="m86.858 151.17v-2.503h0.40306v2.503zm-0.0398-3.5629h0.49264v0.4578h-0.49264z" filter="url(#filter25990)"/>
   <path d="m89.666 147.58h0.50259v0.46776h-0.50259zm0.45282 1.0848v2.503h-0.40307v-2.1845h-2.0253v-0.31847zm-1.9407 2.503v-2.8364q0-0.29856 0.0896-0.48269 0.0945-0.18411 0.30354-0.26871 0.209-0.0896 0.56729-0.0896h0.15923v0.3135h-0.1244q-0.24383 0-0.37321 0.0448t-0.17417 0.17416q-0.0448 0.12938-0.0448 0.38814v2.7568z" filter="url(#filter25990)"/>
   <path d="m92.942 150.87q-0.16422 0.15424-0.42298 0.24382-0.25378 0.0896-0.52249 0.0896-0.38814 0-0.67178-0.15426-0.27867-0.15426-0.43292-0.44288-0.14929-0.29359-0.14929-0.69666 0-0.38813 0.14929-0.68173 0.14928-0.29359 0.41302-0.45781 0.26871-0.16421 0.61703-0.16421 0.3334 0 0.57226 0.14929 0.23885 0.14431 0.36326 0.418 0.12938 0.27368 0.12938 0.65684v0.0746h-1.8909v-0.26373h1.662l-0.12937 0.18412q0.01-0.4379-0.17417-0.67179-0.17914-0.23387-0.52747-0.23387-0.36326 0-0.57225 0.25876-0.20402 0.25378-0.20402 0.7066 0 0.48766 0.21397 0.73649 0.21895 0.24879 0.63694 0.24879 0.21895 0 0.418-0.0696 0.20402-0.0747 0.38813-0.22392z" filter="url(#filter25990)"/>
   <path d="m95.807 151.17h-0.39809v-0.67178l0.0597 0.0548q-0.0846 0.3135-0.32344 0.48269-0.23886 0.1692-0.58221 0.1692-0.32843 0-0.58221-0.15924-0.24881-0.16423-0.38814-0.45781-0.13933-0.29856-0.13933-0.69168 0-0.39311 0.13436-0.68174 0.13933-0.28862 0.38813-0.44785 0.25378-0.15923 0.58719-0.15923 0.34335 0 0.58221 0.17417 0.23885 0.16919 0.32344 0.4777l-0.0647 0.0497v-1.8014h0.40307zm-1.1644-0.29855q0.36326 0 0.5623-0.24882 0.20403-0.25378 0.20403-0.71656 0-0.45781-0.19905-0.70661-0.19904-0.25378-0.56728-0.25378-0.36823 0-0.57723 0.2488-0.20402 0.24882-0.20402 0.70163 0 0.46278 0.20402 0.72155 0.209 0.25379 0.57723 0.25379z" filter="url(#filter25990)"/>
  </g>
  <g fill="#f0f">
   <path d="m97.354 152.25v-2.8762q0-0.17416-0.01-0.34833-5e-3 -0.17913-0.0298-0.3533h0.38316l0.0448 0.51752-0.0398 0.0746q0.0846-0.3135 0.32345-0.48268 0.23885-0.16919 0.57723-0.16919 0.32842 0 0.57723 0.16421 0.25378 0.16422 0.39312 0.45779 0.14431 0.29361 0.14431 0.68672 0 0.39312-0.14431 0.68671-0.13934 0.28862-0.38814 0.44784-0.24881 0.15426-0.58221 0.15426-0.33838 0-0.57723-0.16919-0.23886-0.16918-0.32345-0.48269l0.0548-0.0497v1.7416zm1.1744-1.3734q0.36326 0 0.56728-0.24882 0.20402-0.24881 0.20402-0.70661t-0.20402-0.71158q-0.20402-0.25876-0.56728-0.25876-0.37321 0-0.57226 0.2488-0.19904 0.24882-0.19904 0.71159 0 0.46278 0.19904 0.71656 0.19905 0.24882 0.57226 0.24882z" filter="url(#filter25990)"/>
   <path d="m100.34 151.17v-3.6624h0.40307v3.6624z" filter="url(#filter25990)"/>
   <path d="m102.48 151.21q-0.3334 0-0.58718-0.15426-0.24881-0.15924-0.38815-0.44785-0.13435-0.2936-0.13435-0.68671t0.13934-0.68671q0.13932-0.29359 0.38813-0.4578 0.25378-0.16422 0.58221-0.16422 0.34335 0 0.5822 0.16921 0.23886 0.16918 0.32346 0.48268l-0.0597 0.0398v-0.63197h0.39809v2.503h-0.39809v-0.6469l0.0597 0.0298q-0.0846 0.3135-0.32346 0.48269-0.23885 0.16919-0.5822 0.16919zm0.0796-0.33339q0.36823 0 0.56728-0.24882 0.19904-0.25378 0.19904-0.71656 0-0.46277-0.20402-0.71159-0.19904-0.2488-0.5623-0.2488-0.36823 0-0.57723 0.25876-0.20402 0.25378-0.20402 0.71158t0.20402 0.70661q0.209 0.24882 0.57723 0.24882z" filter="url(#filter25990)"/>
   <path d="m105.35 151.21q-0.63197 0-1.0002-0.32345l0.13436-0.29857q0.19904 0.15426 0.40804 0.2289 0.21398 0.0696 0.47273 0.0696 0.28364 0 0.42795-0.0945 0.14928-0.0995 0.14928-0.28363 0-0.14929-0.0995-0.23389-0.0995-0.0896-0.32842-0.14429l-0.42297-0.0995q-0.3135-0.0696-0.48767-0.24881-0.16918-0.17914-0.16918-0.42795 0-0.21895 0.11942-0.38316 0.11943-0.16919 0.3334-0.26374 0.21398-0.0945 0.50757-0.0945 0.26374 0 0.49761 0.0846 0.23388 0.0846 0.39312 0.24382l-0.13435 0.29361q-0.17915-0.1493-0.36825-0.21897-0.18411-0.0746-0.38813-0.0746-0.26871 0-0.41799 0.10451-0.14431 0.10449-0.14431 0.28364 0 0.15426 0.0896 0.24383 0.0945 0.0896 0.29857 0.13933l0.42298 0.1045q0.3533 0.0746 0.51751 0.2488 0.16919 0.16919 0.16919 0.43292 0 0.32346-0.26375 0.51753-0.26372 0.19406-0.71655 0.19406z" filter="url(#filter25990)"/>
   <path d="m106.59 148.99v-0.31847h1.6073v0.31847zm1.5974 1.8262v0.34335q-0.0846 0.0249-0.16919 0.0349-0.0796 0.0149-0.17914 0.0149-0.34833 0-0.55733-0.19904-0.20402-0.19905-0.20402-0.59714v-2.3836l0.40306-0.1443v2.4731q0 0.19904 0.0548 0.30852 0.0597 0.10947 0.15924 0.15426 0.0995 0.0398 0.22392 0.0398 0.0746 0 0.13436-0.01 0.0597-0.01 0.13436-0.0349z" filter="url(#filter25990)"/>
   <path d="m108.69 151.17v-2.503h0.40307v2.503zm-0.0398-3.5629h0.49264v0.4578h-0.49264z" filter="url(#filter25990)"/>
   <path d="m110.92 151.21q-0.36823 0-0.63694-0.15924-0.26871-0.15922-0.41799-0.44786-0.14431-0.28861-0.14431-0.68172 0-0.38813 0.14928-0.68173 0.14929-0.29857 0.42298-0.46278 0.27368-0.16422 0.64689-0.16422 0.25379 0 0.48766 0.0896 0.23885 0.0846 0.39311 0.23885l-0.13435 0.29857q-0.18412-0.14431-0.36325-0.21398-0.17417-0.0746-0.36326-0.0746-0.37819 0-0.60212 0.25379-0.21895 0.25378-0.21895 0.71657 0 0.4578 0.21895 0.70661 0.21895 0.2488 0.60212 0.2488 0.18411 0 0.36326-0.0696 0.17913-0.0747 0.36325-0.21895l0.13435 0.29857q-0.15923 0.14928-0.40306 0.23886-0.23885 0.0846-0.49762 0.0846z" filter="url(#filter25990)"/>
  </g>
  <g fill="#fa8d04">
   <path d="m112.74 148.99v-0.31847h1.6073v0.31847zm1.5973 1.8262v0.34335q-0.0846 0.0249-0.16918 0.0349-0.0796 0.0149-0.17914 0.0149-0.34833 0-0.55733-0.19904-0.20402-0.19905-0.20402-0.59714v-2.3836l0.40307-0.1443v2.4731q0 0.19904 0.0547 0.30852 0.0597 0.10947 0.15924 0.15426 0.0995 0.0398 0.22393 0.0398 0.0746 0 0.13435-0.01 0.0597-0.01 0.13435-0.0349z" filter="url(#filter25990)"/>
   <path d="m114.84 151.17v-1.8014q0-0.17416-0.01-0.34833-5e-3 -0.17913-0.0298-0.3533h0.38316l0.0547 0.61704-0.0547-0.015q0.0696-0.32842 0.29856-0.49263 0.23389-0.16919 0.5225-0.16919 0.0647 0 0.11943 0.01 0.0597 5e-3 0.10948 0.0199l-0.01 0.36824q-0.11445-0.0398-0.26373-0.0398-0.25877 0-0.418 0.11445-0.15426 0.11445-0.2289 0.29359-0.0697 0.17417-0.0697 0.36823v1.4282z" filter="url(#filter25990)"/>
   <path d="m117.55 151.21q-0.3334 0-0.58718-0.15426-0.2488-0.15924-0.38814-0.44785-0.13435-0.2936-0.13435-0.68671t0.13933-0.68671q0.13933-0.29359 0.38814-0.4578 0.25378-0.16422 0.5822-0.16422 0.34336 0 0.58221 0.16921 0.23886 0.16918 0.32345 0.48268l-0.0597 0.0398v-0.63197h0.39809v2.503h-0.39809v-0.6469l0.0597 0.0298q-0.0846 0.3135-0.32345 0.48269t-0.58221 0.16919zm0.0797-0.33339q0.36823 0 0.56728-0.24882 0.19904-0.25378 0.19904-0.71656 0-0.46277-0.20402-0.71159-0.19904-0.2488-0.5623-0.2488-0.36823 0-0.57723 0.25876-0.20402 0.25378-0.20402 0.71158t0.20402 0.70661q0.209 0.24882 0.57723 0.24882z" filter="url(#filter25990)"/>
   <path d="m119.57 151.17v-1.8014q0-0.17416-0.01-0.34833-5e-3 -0.17913-0.0298-0.3533h0.38316l0.0448 0.51752-0.0497 0.0398q0.1045-0.30355 0.34833-0.45781 0.24383-0.15923 0.5623-0.15923 0.90068 0 0.90068 0.99025v1.5724h-0.40306v-1.5526q0-0.34833-0.13934-0.50757-0.13933-0.16421-0.4379-0.16421-0.34833 0-0.55733 0.21397-0.20899 0.21398-0.20899 0.57724v1.4331z" filter="url(#filter25990)"/>
   <path d="m123.33 151.21q-0.63197 0-1.0002-0.32345l0.13435-0.29857q0.19905 0.15426 0.40805 0.2289 0.21397 0.0696 0.47273 0.0696 0.28364 0 0.42795-0.0945 0.14928-0.0995 0.14928-0.28363 0-0.14929-0.0995-0.23389-0.0995-0.0896-0.32843-0.14429l-0.42297-0.0995q-0.31349-0.0696-0.48766-0.24881-0.16919-0.17914-0.16919-0.42795 0-0.21895 0.11943-0.38316 0.11943-0.16919 0.3334-0.26374 0.21397-0.0945 0.50757-0.0945 0.26373 0 0.49761 0.0846t0.39312 0.24382l-0.13436 0.29361q-0.17914-0.1493-0.36824-0.21897-0.18412-0.0746-0.38813-0.0746-0.26871 0-0.418 0.10451-0.14431 0.10449-0.14431 0.28364 0 0.15426 0.0896 0.24383 0.0945 0.0896 0.29857 0.13933l0.42297 0.1045q0.3533 0.0746 0.51752 0.2488 0.16918 0.16919 0.16918 0.43292 0 0.32346-0.26373 0.51753-0.26373 0.19406-0.71656 0.19406z" filter="url(#filter25990)"/>
   <path d="m124.95 151.17v-2.503h0.40306v2.503zm-0.0398-3.5629h0.49264v0.4578h-0.49264z" filter="url(#filter25990)"/>
   <path d="m125.79 148.99v-0.31847h1.6073v0.31847zm1.5973 1.8262v0.34335q-0.0846 0.0249-0.16919 0.0349-0.0796 0.0149-0.17914 0.0149-0.34833 0-0.55732-0.19904-0.20403-0.19905-0.20403-0.59714v-2.3836l0.40307-0.1443v2.4731q0 0.19904 0.0548 0.30852 0.0597 0.10947 0.15924 0.15426 0.0995 0.0398 0.22392 0.0398 0.0746 0 0.13435-0.01 0.0597-0.01 0.13436-0.0349z" filter="url(#filter25990)"/>
   <path d="m127.88 151.17v-2.503h0.40306v2.503zm-0.0398-3.5629h0.49264v0.4578h-0.49264z" filter="url(#filter25990)"/>
   <path d="m130.1 151.21q-0.35828 0-0.62699-0.15924-0.26374-0.15922-0.41302-0.44786-0.14431-0.29357-0.14431-0.69167 0-0.39311 0.14431-0.6867 0.14928-0.2936 0.41302-0.45284 0.26871-0.15924 0.62699-0.15924 0.35829 0 0.62201 0.15924 0.26872 0.15924 0.41302 0.45284 0.14929 0.29359 0.14929 0.6867 0 0.3981-0.14929 0.69167-0.1443 0.28864-0.41302 0.44786-0.26372 0.15924-0.62201 0.15924zm0-0.33339q0.36823 0 0.56728-0.24384 0.20402-0.24881 0.20402-0.72154 0-0.46277-0.20402-0.71159-0.20402-0.2488-0.56728-0.2488t-0.57226 0.2488q-0.20402 0.24882-0.20402 0.71159 0 0.47273 0.19905 0.72154 0.20403 0.24384 0.57723 0.24384z" filter="url(#filter25990)"/>
   <path d="m131.91 151.17v-1.8014q0-0.17416-0.01-0.34833-5e-3 -0.17913-0.0298-0.3533h0.38316l0.0448 0.51752-0.0497 0.0398q0.1045-0.30355 0.34833-0.45781 0.24382-0.15923 0.5623-0.15923 0.90068 0 0.90068 0.99025v1.5724h-0.40306v-1.5526q0-0.34833-0.13934-0.50757-0.13933-0.16421-0.4379-0.16421-0.34833 0-0.55733 0.21397-0.209 0.21398-0.209 0.57724v1.4331z" filter="url(#filter25990)"/>
  </g>
  <path d="m104.26 123.24c-4.0544-0.43399-7.9478-2.3539-10.625-5.4529-4.01-4.2975-5.2245-10.819-3.415-16.357 1.8609-5.4835 6.6888-9.8471 12.388-10.981 5.2735-1.087 11.059 0.46356 14.885 4.3058 4.9159 4.5572 6.4645 12.204 3.8399 18.351-1.4014 3.471-4.1392 6.3486-7.3617 8.2017-2.968 1.5675-6.3663 2.2912-9.7121 1.9315zm4.0224-11.908c3.0302-1.2821 4.0804-5.5705 1.9368-8.0825-0.99374-1.405-2.6704-2.1477-4.3738-2.0724-3.2783-0.14065-5.9353 3.4662-5.0416 6.5858 0.54671 2.6753 3.349 4.4992 6.0109 4.0127 0.507-0.077 1.0035-0.22521 1.4677-0.44362z" fill="#05f30a" filter="url(#filter25990)"/>
 </g>
</svg>
