<?xml version="1.0" encoding="UTF-8"?>
<svg width="155.06mm" height="102.75mm" version="1.1" viewBox="0 0 155.06 102.75" xmlns="http://www.w3.org/2000/svg">
 <defs>
  <clipPath id="clipPath37587-3-3-3-6-3">
   <rect x="34.508" y="74.654" width="195.25" height="104.13"/>
  </clipPath>
  <clipPath id="clipPath37599-7-6-5-3-7-75">
   <rect x="34.508" y="74.654" width="195.25" height="104.13"/>
  </clipPath>
  <clipPath id="clipPath37599-7-6-5-3-7-9-5">
   <rect x="34.508" y="74.654" width="195.25" height="104.13"/>
  </clipPath>
  <clipPath id="clipPath37599-7-6-5-3-7-7-2">
   <rect x="34.508" y="74.654" width="195.25" height="104.13"/>
  </clipPath>
  <clipPath id="clipPath37599-7-6-5-3-7-9-1-7">
   <rect x="34.508" y="74.654" width="195.25" height="104.13"/>
  </clipPath>
 </defs>
 <g transform="matrix(1.0022 0 0 1 -27.191 -89.744)" fill="#97caca">
  <rect x="27.131" y="89.744" width="154.72" height="102.75" fill="#97caca" stroke-width=".16399"/>
 </g>
 <g transform="translate(-90.087 -17.242)">
  <g transform="matrix(1.0022 0 0 1 62.896 -72.502)" fill="#00e6ff">
   <rect x="27.131" y="89.744" width="154.72" height="102.75" fill="#00e6ff" stroke-width=".16399"/>
  </g>
 </g>
 <path transform="matrix(.78185 0 0 .87037 -51.977 -57.484)" d="m146.34 113.86c1.4333 0.86188 1.6505 0.26727 3.2525 0.2405 1.9941 0.3378 2.2598 0.37971 3.074 0.24187 1.7867-0.99493 4.4519 0.081 5.8989-0.27229-0.7532-0.47994-2.8116 0.13228-2.9644-1.1219-1.2445-0.90277-1.7902-1.2271-2.4952-0.69913-1.0574 0.99535-0.89823 0.57957-2.115 0.56486-1.4409-0.95525-3.5327-1.2777-4.6266-8e-3 -2.4228 0.10306-2.2999 0.54046-4.632 0.61008 1.6626-0.0572 2.968 0.19954 4.6077 0.44399z" clip-path="url(#clipPath37599-7-6-5-3-7-9-1-7)" fill="#fff" fill-opacity=".92941" fill-rule="evenodd" opacity=".8"/>
 <path transform="matrix(-1.2294 0 0 1.3686 202.38 -82.01)" d="m146.34 113.86c1.4333 0.86188 1.6505 0.26727 3.2525 0.2405 1.9941 0.3378 2.2598 0.37971 3.074 0.24187 1.7867-0.99493 4.4519 0.081 5.8989-0.27229-0.7532-0.47994-2.8116 0.13228-2.9644-1.1219-1.2445-0.90277-1.7902-1.2271-2.4952-0.69913-1.0574 0.99535-0.89823 0.57957-2.115 0.56486-1.4409-0.95525-3.5327-1.2777-4.6266-8e-3 -2.4228 0.10306-2.2999 0.54046-4.632 0.61008 1.6626-0.0572 2.968 0.19954 4.6077 0.44399z" clip-path="url(#clipPath37599-7-6-5-3-7-7-2)" fill="#fff" fill-opacity=".92941" fill-rule="evenodd" opacity=".8"/>
 <path transform="matrix(1.6839 0 0 1.8745 -199.45 -153.13)" d="m146.34 113.86c1.4333 0.86188 1.6505 0.26727 3.2525 0.2405 1.9941 0.3378 2.2598 0.37971 3.074 0.24187 1.7867-0.99493 4.4519 0.081 5.8989-0.27229-0.7532-0.47994-2.8116 0.13228-2.9644-1.1219-1.2445-0.90277-1.7902-1.2271-2.4952-0.69913-1.0574 0.99535-0.89823 0.57957-2.115 0.56486-1.4409-0.95525-3.5327-1.2777-4.6266-8e-3 -2.4228 0.10306-2.2999 0.54046-4.632 0.61008 1.6626-0.0572 2.968 0.19954 4.6077 0.44399z" clip-path="url(#clipPath37599-7-6-5-3-7-9-5)" fill="#fff" fill-opacity=".92941" fill-rule="evenodd" opacity=".8"/>
 <path transform="matrix(-1.2294 0 0 1.3686 312.53 -110.98)" d="m146.34 113.86c1.4333 0.86188 1.6505 0.26727 3.2525 0.2405 1.9941 0.3378 2.2598 0.37971 3.074 0.24187 1.7867-0.99493 4.4519 0.081 5.8989-0.27229-0.7532-0.47994-2.8116 0.13228-2.9644-1.1219-1.2445-0.90277-1.7902-1.2271-2.4952-0.69913-1.0574 0.99535-0.89823 0.57957-2.115 0.56486-1.4409-0.95525-3.5327-1.2777-4.6266-8e-3 -2.4228 0.10306-2.2999 0.54046-4.632 0.61008 1.6626-0.0572 2.968 0.19954 4.6077 0.44399z" clip-path="url(#clipPath37599-7-6-5-3-7-75)" fill="#fff" fill-opacity=".92941" fill-rule="evenodd" opacity=".8"/>
 <path d="m142.97 19.869c2.24 1.1894 2.5794 0.36881 5.0833 0.33191 3.1166 0.46614 3.5318 0.52398 4.8043 0.33377 2.7924-1.373 6.9578 0.11179 9.2195-0.37576-1.1772-0.6623-4.3942 0.18265-4.633-1.5482-1.945-1.2458-2.798-1.6934-3.8999-0.96479-1.6524 1.3736-1.4038 0.79979-3.3054 0.77949-2.252-1.3182-6.0771-3.2949-7.7868-1.5429-3.3452 1.3859-5.8298-1.3933-7.0653-0.9465-2.8424 1.0281-4.8069 3.8771-7.1806 4.2189 2.5986-0.07875 10.815 0.09599 13.378 0.4332 1.574-0.05626 1.0281-0.46221 1.3859-0.71908z" fill="#fff" fill-opacity=".92941" opacity=".8" stroke-width="1.2334"/>
 <path transform="matrix(-1.2222 0 0 1.4308 272.54 -159.33)" d="m207.66 133.22c-1.9442 1.1523-2.2389-0.50324-4.412-0.53902-2.705 0.45162-3.0654 0.50765-4.1699 0.32337-4.3789 0.0664-6.039 0.10833-8.0019-0.36405 1.0217-0.64167 5.1962-0.46492 5.4035-2.1418 0.95635-2.3988 2.045-1.9242 3.0013-1.2183 1.4343 1.3308 0.21958 1.7002 1.8701 1.6806 1.9545-1.2772 4.7921-0.84764 6.276 0.84997 3.2865 0.13778 3.759 0.66504 6.9224 0.75812-2.2554-0.0765-4.6652 0.32433-6.8896 0.65116z" clip-path="url(#clipPath37587-3-3-3-6-3)" fill="#fff" opacity=".804"/>
</svg>
