<?xml version="1.0" encoding="UTF-8" standalone="no"?>
<!-- Created with Inkscape (http://www.inkscape.org/) -->

<svg
   width="155.06038mm"
   height="102.75mm"
   viewBox="0 0 155.06038 102.75"
   version="1.1"
   id="svg4894"
   inkscape:version="1.1.2 (76b9e6a115, 2022-02-25)"
   sodipodi:docname="cloud-back.svg"
   xmlns:inkscape="http://www.inkscape.org/namespaces/inkscape"
   xmlns:sodipodi="http://sodipodi.sourceforge.net/DTD/sodipodi-0.dtd"
   xmlns="http://www.w3.org/2000/svg"
   xmlns:svg="http://www.w3.org/2000/svg">
  <sodipodi:namedview
     id="namedview4896"
     pagecolor="#ffffff"
     bordercolor="#666666"
     borderopacity="1.0"
     inkscape:pageshadow="2"
     inkscape:pageopacity="0.0"
     inkscape:pagecheckerboard="0"
     inkscape:document-units="mm"
     showgrid="false"
     inkscape:zoom="1.096075"
     inkscape:cx="317.04035"
     inkscape:cy="262.29957"
     inkscape:window-width="1864"
     inkscape:window-height="1016"
     inkscape:window-x="0"
     inkscape:window-y="0"
     inkscape:window-maximized="1"
     inkscape:current-layer="layer3" />
  <defs
     id="defs4891">
    <clipPath
       id="clipPath37587-3-3-3-6">
      <rect
         x="34.507999"
         y="74.653999"
         width="195.25"
         height="104.13"
         id="rect37376-5-2" />
    </clipPath>
    <clipPath
       id="clipPath37599-7-6-5-3-7-9">
      <rect
         x="34.507999"
         y="74.653999"
         width="195.25"
         height="104.13"
         id="rect37347-6-5-1" />
    </clipPath>
    <clipPath
       id="clipPath37599-7-6-5-3-7">
      <rect
         x="34.507999"
         y="74.653999"
         width="195.25"
         height="104.13"
         id="rect37347-6-5" />
    </clipPath>
    <clipPath
       id="clipPath37599-7-6-5-3-7-7">
      <rect
         x="34.507999"
         y="74.653999"
         width="195.25"
         height="104.13"
         id="rect37347-6-5-0" />
    </clipPath>
    <clipPath
       id="clipPath37587-3-3-3-6-3">
      <rect
         x="34.507999"
         y="74.653999"
         width="195.25"
         height="104.13"
         id="rect37376-5-2-6" />
    </clipPath>
    <clipPath
       id="clipPath37599-7-6-5-3-7-75">
      <rect
         x="34.507999"
         y="74.653999"
         width="195.25"
         height="104.13"
         id="rect37347-6-5-3" />
    </clipPath>
    <clipPath
       id="clipPath37599-7-6-5-3-7-9-5">
      <rect
         x="34.507999"
         y="74.653999"
         width="195.25"
         height="104.13"
         id="rect37347-6-5-1-6" />
    </clipPath>
    <clipPath
       id="clipPath37599-7-6-5-3-7-7-2">
      <rect
         x="34.507999"
         y="74.653999"
         width="195.25"
         height="104.13"
         id="rect37347-6-5-0-9" />
    </clipPath>
    <clipPath
       id="clipPath37599-7-6-5-3-7-9-1">
      <rect
         x="34.507999"
         y="74.653999"
         width="195.25"
         height="104.13"
         id="rect37347-6-5-1-2" />
    </clipPath>
    <clipPath
       id="clipPath37599-7-6-5-3-7-9-1-7">
      <rect
         x="34.507999"
         y="74.653999"
         width="195.25"
         height="104.13"
         id="rect37347-6-5-1-2-0" />
    </clipPath>
  </defs>
  <g
     inkscape:groupmode="layer"
     id="layer8"
     inkscape:label="Grey Sky">
    <g
       transform="matrix(1.0022,0,0,1,-27.190689,-89.744002)"
       id="g13195"
       style="fill:#97caca;fill-opacity:1">
      <rect
         x="27.131001"
         y="89.744003"
         width="154.72"
         height="102.75"
         fill="url(#linearGradient68268)"
         stroke-width="0.16399"
         id="rect13193"
         style="fill:#97caca;fill-opacity:1" />
    </g>
  </g>
  <g
     inkscape:label="blue sky"
     inkscape:groupmode="layer"
     id="layer1"
     transform="translate(-90.087049,-17.242243)"
     style="display:inline">
    <g
       transform="matrix(1.0022,0,0,1,62.89636,-72.501759)"
       id="g2017"
       style="fill:#00e6ff;fill-opacity:1">
      <rect
         x="27.131001"
         y="89.744003"
         width="154.72"
         height="102.75"
         fill="url(#linearGradient68268)"
         stroke-width="0.16399"
         id="rect2015"
         style="fill:#00e6ff;fill-opacity:1" />
    </g>
  </g>
  <g
     inkscape:groupmode="layer"
     id="layer7"
     inkscape:label="Cloud 6">
    <path
       transform="matrix(0.78184978,0,0,0.87037,-51.976681,-57.483686)"
       d="m 146.34,113.86 c 1.4333,0.86188 1.6505,0.26727 3.2525,0.2405 1.9941,0.3378 2.2598,0.37971 3.074,0.24187 1.7867,-0.99493 4.4519,0.081 5.8989,-0.27229 -0.7532,-0.47994 -2.8116,0.13228 -2.9644,-1.1219 -1.2445,-0.90277 -1.7902,-1.2271 -2.4952,-0.69913 -1.0574,0.99535 -0.89823,0.57957 -2.115,0.56486 -1.4409,-0.95525 -3.5327,-1.2777 -4.6266,-0.008 -2.4228,0.10306 -2.2999,0.54046 -4.632,0.61008 1.6626,-0.0572 2.968,0.19954 4.6077,0.44399 z"
       clip-path="url(#clipPath37599-7-6-5-3-7-9-1-7)"
       fill="#ffffff"
       fill-opacity="0.92941"
       fill-rule="evenodd"
       opacity="0.8"
       id="path37519-2"
       style="fill:#ffffff" />
  </g>
  <g
     inkscape:groupmode="layer"
     id="layer6"
     inkscape:label="Cloud 5">
    <path
       transform="matrix(-1.2293699,0,0,1.3685579,202.38107,-82.009725)"
       d="m 146.34,113.86 c 1.4333,0.86188 1.6505,0.26727 3.2525,0.2405 1.9941,0.3378 2.2598,0.37971 3.074,0.24187 1.7867,-0.99493 4.4519,0.081 5.8989,-0.27229 -0.7532,-0.47994 -2.8116,0.13228 -2.9644,-1.1219 -1.2445,-0.90277 -1.7902,-1.2271 -2.4952,-0.69913 -1.0574,0.99535 -0.89823,0.57957 -2.115,0.56486 -1.4409,-0.95525 -3.5327,-1.2777 -4.6266,-0.008 -2.4228,0.10306 -2.2999,0.54046 -4.632,0.61008 1.6626,-0.0572 2.968,0.19954 4.6077,0.44399 z"
       clip-path="url(#clipPath37599-7-6-5-3-7-7-2)"
       fill="#ffffff"
       fill-opacity="0.92941"
       fill-rule="evenodd"
       opacity="0.8"
       id="path37519-9"
       style="fill:#ffffff" />
  </g>
  <g
     inkscape:groupmode="layer"
     id="layer5"
     inkscape:label="Cloud 4">
    <path
       transform="matrix(1.6838572,0,0,1.8745019,-199.45006,-153.1334)"
       d="m 146.34,113.86 c 1.4333,0.86188 1.6505,0.26727 3.2525,0.2405 1.9941,0.3378 2.2598,0.37971 3.074,0.24187 1.7867,-0.99493 4.4519,0.081 5.8989,-0.27229 -0.7532,-0.47994 -2.8116,0.13228 -2.9644,-1.1219 -1.2445,-0.90277 -1.7902,-1.2271 -2.4952,-0.69913 -1.0574,0.99535 -0.89823,0.57957 -2.115,0.56486 -1.4409,-0.95525 -3.5327,-1.2777 -4.6266,-0.008 -2.4228,0.10306 -2.2999,0.54046 -4.632,0.61008 1.6626,-0.0572 2.968,0.19954 4.6077,0.44399 z"
       clip-path="url(#clipPath37599-7-6-5-3-7-9-5)"
       fill="#ffffff"
       fill-opacity="0.92941"
       fill-rule="evenodd"
       opacity="0.8"
       id="path6126"
       style="fill:#ffffff" />
  </g>
  <g
     inkscape:groupmode="layer"
     id="layer4"
     inkscape:label="Cloud 3">
    <path
       transform="matrix(-1.2293699,0,0,1.3685579,312.52598,-110.97864)"
       d="m 146.34,113.86 c 1.4333,0.86188 1.6505,0.26727 3.2525,0.2405 1.9941,0.3378 2.2598,0.37971 3.074,0.24187 1.7867,-0.99493 4.4519,0.081 5.8989,-0.27229 -0.7532,-0.47994 -2.8116,0.13228 -2.9644,-1.1219 -1.2445,-0.90277 -1.7902,-1.2271 -2.4952,-0.69913 -1.0574,0.99535 -0.89823,0.57957 -2.115,0.56486 -1.4409,-0.95525 -3.5327,-1.2777 -4.6266,-0.008 -2.4228,0.10306 -2.2999,0.54046 -4.632,0.61008 1.6626,-0.0572 2.968,0.19954 4.6077,0.44399 z"
       clip-path="url(#clipPath37599-7-6-5-3-7-75)"
       fill="#ffffff"
       fill-opacity="0.92941"
       fill-rule="evenodd"
       opacity="0.8"
       id="path37519"
       style="fill:#ffffff" />
  </g>
  <g
     inkscape:groupmode="layer"
     id="layer3"
     inkscape:label="Cloud 2">
    <path
       d="m 155.00042,19.258591 c 2.24001,1.189388 2.57943,0.368811 5.08327,0.331909 3.11657,0.466135 3.53185,0.523979 4.80431,0.333771 2.79243,-1.372974 6.95785,0.111787 9.21946,-0.375755 -1.17722,-0.6623 -4.3942,0.182648 -4.63298,-1.548232 -1.94501,-1.245815 -2.79799,-1.693401 -3.89988,-0.964794 -1.65245,1.373589 -1.40381,0.799794 -3.30539,0.779493 -2.25199,-1.318212 -6.07713,-3.294913 -7.78681,-1.54293 -3.34523,1.385924 -5.82983,-1.393323 -7.06529,-0.946503 -2.84239,1.028078 -4.80688,3.877058 -7.1806,4.218945 2.59856,-0.07875 10.81519,0.09599 13.37823,0.433205 1.57401,-0.05626 1.02807,-0.462213 1.38592,-0.719084 z"
       fill-opacity="0.92941"
       opacity="0.8"
       id="path37531"
       style="fill:#ffffff;stroke-width:1.23337" />
  </g>
  <g
     inkscape:groupmode="layer"
     id="layer2"
     inkscape:label="Cloud 1">
    <path
       transform="matrix(-1.2221913,0,0,1.4308448,272.54217,-159.32868)"
       d="m 207.66,133.22 c -1.9442,1.1523 -2.2389,-0.50324 -4.412,-0.53902 -2.705,0.45162 -3.0654,0.50765 -4.1699,0.32337 -4.3789,0.0664 -6.039,0.10833 -8.0019,-0.36405 1.0217,-0.64167 5.1962,-0.46492 5.4035,-2.1418 0.95635,-2.3988 2.045,-1.9242 3.0013,-1.2183 1.4343,1.3308 0.21958,1.7002 1.8701,1.6806 1.9545,-1.2772 4.7921,-0.84764 6.276,0.84997 3.2865,0.13778 3.759,0.66504 6.9224,0.75812 -2.2554,-0.0765 -4.6652,0.32433 -6.8896,0.65116 z"
       clip-path="url(#clipPath37587-3-3-3-6-3)"
       opacity="0.804"
       id="path37541"
       style="fill:#ffffff" />
  </g>
</svg>
