<?xml version="1.0" encoding="UTF-8" standalone="no"?>

<svg
   width="51.371502mm"
   height="52.378387mm"
   viewBox="0 0 51.371502 52.378388"
   version="1.1"
   id="svg56100"
   inkscape:version="1.1.2 (0a00cf5339, 2022-02-04)"
   sodipodi:docname="ecobrickable-square.svg"
   xmlns:inkscape="http://www.inkscape.org/namespaces/inkscape"
   xmlns:sodipodi="http://sodipodi.sourceforge.net/DTD/sodipodi-0.dtd"
   xmlns="http://www.w3.org/2000/svg"
   xmlns:svg="http://www.w3.org/2000/svg">
  <sodipodi:namedview
     id="namedview56102"
     pagecolor="#ffffff"
     bordercolor="#666666"
     borderopacity="1.0"
     inkscape:pageshadow="2"
     inkscape:pageopacity="0.0"
     inkscape:pagecheckerboard="0"
     inkscape:document-units="mm"
     showgrid="false"
     inkscape:zoom="2.4806388"
     inkscape:cx="119.72722"
     inkscape:cy="111.46322"
     inkscape:window-width="1920"
     inkscape:window-height="1016"
     inkscape:window-x="0"
     inkscape:window-y="0"
     inkscape:window-maximized="1"
     inkscape:current-layer="layer1" />
  <defs
     id="defs56097" />
  <g
     inkscape:label="Layer 1"
     inkscape:groupmode="layer"
     id="layer1"
     transform="translate(-34.957355,-75.776492)">
    <path
       style="fill:#ffffff;stroke-width:0.0097727"
       d="m 69.569891,121.97267 c -0.373247,-0.0371 -0.57196,-0.0926 -0.944077,-0.26326 -0.12576,-0.0577 -0.62445,-0.28735 -1.108198,-0.51035 -0.483753,-0.223 -0.916929,-0.42206 -0.962615,-0.44238 -0.0457,-0.0203 -0.454676,-0.2084 -0.908862,-0.41798 -0.45419,-0.20959 -1.312807,-0.60562 -1.908046,-0.8801 -1.181955,-0.54501 -1.234229,-0.57026 -1.373522,-0.6633 -0.375071,-0.25052 -0.666446,-0.58895 -0.881464,-1.02379 -0.168977,-0.34174 -0.266357,-0.67505 -0.314146,-1.07528 -0.01878,-0.15735 -0.01591,-0.53583 0.0053,-0.69387 0.03527,-0.26304 0.09557,-0.49937 0.17978,-0.70456 0.563538,-1.37311 1.185102,-2.67496 1.758436,-3.68299 0.327188,-0.57525 0.501487,-0.84904 1.225892,-1.92563 0.137437,-0.20425 0.29518,-0.44393 0.350544,-0.53261 0.295108,-0.47276 0.536897,-0.94705 0.748062,-1.46742 0.189298,-0.46649 0.225644,-0.58716 0.43374,-1.43998 0.274671,-1.12567 0.360826,-1.45558 0.488733,-1.87147 0.396625,-1.28966 0.973477,-2.37665 1.905966,-3.59148 0.455449,-0.58139 1.289019,-0.914959 1.921123,-1.078212 0.22319,-0.0559 0.407237,-0.0917 0.813482,-0.158171 0.584315,-0.09562 0.834215,-0.150705 1.130343,-0.249101 0.171439,-0.05695 0.430704,-0.162171 0.449844,-0.182536 0.0067,-0.0071 0.12318,-0.245979 0.258938,-0.530843 0.52391,-1.099402 0.757466,-1.599758 0.793988,-1.701006 l 0.02469,-0.06846 -0.04036,-0.08277 c -0.03793,-0.0778 -0.04057,-0.08881 -0.04389,-0.18316 -0.0034,-0.09789 -0.0027,-0.102546 0.03353,-0.187877 0.03103,-0.07332 0.04742,-0.09756 0.101066,-0.149663 0.158173,-0.153587 0.378192,-0.17385 0.577086,-0.05314 0.05856,0.03554 0.530012,0.259367 0.986279,0.468247 0.104393,0.04779 0.193154,0.08346 0.19725,0.07929 0.0099,-0.0101 0.146611,-0.468864 0.286276,-0.960447 0.751084,-2.643608 1.251284,-5.255596 1.397996,-7.300244 0.03499,-0.48774 0.03931,-0.616678 0.03945,-1.177613 1.12e-4,-0.667394 -0.01516,-0.93186 -0.07916,-1.368181 -0.132915,-0.905984 -0.428385,-1.453832 -0.864655,-1.603188 -0.405933,-0.138976 -0.921307,0.06784 -1.5823,0.634985 -0.136558,0.11717 -0.511866,0.49234 -0.675269,0.675022 -0.873671,1.03471 -1.365425,1.747983 -2.035075,2.75336 l -0.01675,-0.04271 c -0.09165,-0.233933 -2.661859,-6.986357 -2.664877,-7.001141 0.37236,-0.230779 0.932336,-0.484582 1.390017,-0.680799 2.315692,-0.990631 4.171139,-1.193395 5.591086,-0.610994 0.972857,0.399022 1.748803,1.207381 2.271286,2.366161 0.412799,0.915525 0.697183,2.088818 0.805581,3.323622 0.237719,2.707913 -0.322241,5.922127 -1.76384,10.124554 -0.181559,0.529269 -0.476542,1.358168 -0.551944,1.550931 -0.0049,0.01246 0.0017,0.02013 0.0261,0.03059 0.01793,0.0077 0.294286,0.127162 0.614098,0.265479 0.319809,0.138308 0.603464,0.257949 0.630338,0.265867 0.02688,0.0079 0.07525,0.02894 0.107503,0.04666 0.06689,0.03681 0.170119,0.08179 0.282531,0.123092 0.110173,0.04049 0.169727,0.08513 0.234819,0.176048 0.07162,0.100041 0.08501,0.133864 0.09106,0.230112 0.01121,0.178689 -0.0885,0.343496 -0.253313,0.418586 -0.05482,0.02495 -0.18712,0.04584 -0.238665,0.03762 -0.03559,-0.0056 -0.05908,0.0181 -0.121039,0.122379 -0.04385,0.07381 -0.313653,0.665905 -0.726813,1.595041 l -0.280505,0.6308 0.03397,0.11192 c 0.11618,0.3828 0.274454,0.70959 0.629097,1.29889 0.131149,0.21791 0.27621,0.46437 0.322365,0.54768 0.272877,0.49254 0.443516,0.96207 0.543421,1.49523 0.139351,0.50211 -0.0033,1.01095 -0.111372,1.4473 -0.214349,0.85864 -0.46851,1.56393 -0.8167,2.26634 -0.329648,0.66502 -0.675653,1.21068 -1.406671,2.21842 -0.27054,0.37294 -0.654242,0.9131 -0.739333,1.0408 -0.176389,0.26471 -0.465086,0.82639 -0.650478,1.26555 -0.189795,0.44961 -0.308433,0.81328 -0.540385,1.65648 -0.198034,0.71991 -0.283048,1.00869 -0.417181,1.41705 -0.332151,1.01119 -0.754965,2.03689 -1.351578,3.27876 -0.22317,0.46454 -0.536036,1.08368 -0.595077,1.17762 -0.228619,0.36374 -0.5844,0.71499 -0.961906,0.94966 -0.373503,0.23219 -0.799846,0.38758 -1.22818,0.44767 -0.107328,0.015 -0.44041,0.0271 -0.52284,0.0189 z m 4.54145,-11.11746 c -0.695982,-0.34474 -1.242867,-0.60761 -1.982859,-0.96954 -0.0011,-9.6e-4 0.0752,-0.17072 0.169399,-0.37752 0.794907,-1.74526 1.364753,-3.1156 1.995295,-4.79818 0.361133,-0.96366 0.510533,-1.37677 1.477337,-4.085 0.348261,-0.975569 0.750781,-2.100472 0.894488,-2.499801 0.143701,-0.39933 0.259638,-0.727661 0.257631,-0.72963 -0.0071,-0.007 -1.394805,-0.601478 -1.404033,-0.601478 -0.01189,0 0.0011,-0.0336 -0.210834,0.547269 -1.503338,4.12086 -2.570163,6.60724 -4.140737,9.65058 -0.336881,0.65278 -0.998542,1.90601 -1.015847,1.92407 -1.02282,-0.61106 -1.052238,-0.63512 -2.037432,-1.24377 0.0312,2.1593 0.02442,4.36431 0.06586,6.2139 2.05602,-1.08307 3.886531,-1.9247 5.931732,-3.0309 z m -6.990897,-5.99865 c 0,-0.01 -0.0033,-0.008 -0.0084,0.005 -0.0046,0.0108 -0.0084,0.0261 -0.0084,0.0342 0,0.01 0.0034,0.008 0.0084,-0.005 0.0046,-0.0107 0.0084,-0.0261 0.0084,-0.0342 z m 0.01956,-0.0684 c 0,-0.01 -0.0034,-0.008 -0.0084,0.005 -0.0046,0.0108 -0.0084,0.0261 -0.0084,0.0342 0,0.01 0.0033,0.008 0.0084,-0.005 0.0046,-0.0107 0.0084,-0.0261 0.0084,-0.0342 z M 59.84602,90.797107 c 0,-0.0079 3.879441,-5.895529 3.885012,-5.896019 1.826362,1.60383 3.224202,2.888658 5.16696,4.588679 -1.189542,-2.216608 -2.156824,-3.927193 -3.416252,-6.284076 0.699141,-0.548405 1.181935,-1.065566 1.943122,-1.621558 0.0162,0.01675 3.550944,8.638411 3.551616,8.66281 6.75e-4,0.01965 -0.111744,0.152067 -0.521129,0.614519 l -0.521819,0.589459 c -0.864727,1.550806 -1.677269,3.131468 -2.553797,4.675552 C 64.75629,94.217374 62.60463,92.862656 59.84602,90.797107 Z"
       id="path3403-7"
       inkscape:connector-curvature="0"
       sodipodi:nodetypes="ccscccccccccsccccccccccccccccscccscccscccccsccccccccccccccccccccccccscccccccccccccscsccccccccscccscscssccccccsccc"
       inkscape:export-filename="/home/russs/Documents/GEA Files/GEA Circles/Development Circle/Github Code - LIVE/ecobricks-org/ecobricks-org/webp/ecobrickable-200px.webp"
       inkscape:export-xdpi="249.02916"
       inkscape:export-ydpi="249.02916" />
  </g>
</svg>
