<?xml version="1.0" encoding="UTF-8"?>
<!-- Created with Inkscape (http://www.inkscape.org/) -->
<svg width="51.372mm" height="52.378mm" version="1.1" viewBox="0 0 51.372 52.378" xmlns="http://www.w3.org/2000/svg">
 <g transform="translate(-34.957 -75.776)">
  <path d="m64.897 123.86c-0.38995-0.0388-0.59756-0.0967-0.98633-0.27504-0.13139-0.0603-0.6524-0.30021-1.1578-0.53319-0.5054-0.23298-0.95797-0.44095-1.0057-0.46218-0.04774-0.0212-0.47503-0.21773-0.94954-0.43669-0.47452-0.21897-1.3716-0.63273-1.9934-0.91949-1.2349-0.56941-1.2895-0.59579-1.435-0.69299-0.39186-0.26173-0.69627-0.61531-0.92092-1.0696-0.17654-0.35704-0.27828-0.70527-0.32821-1.1234-0.01962-0.16439-0.01662-0.55981 0.0055-0.72492 0.03685-0.27482 0.09985-0.52172 0.18783-0.7361 0.58876-1.4346 1.2381-2.7947 1.8371-3.8478 0.34183-0.601 0.52393-0.88704 1.2808-2.0118 0.14359-0.21339 0.30839-0.4638 0.36623-0.55644 0.30832-0.49392 0.56093-0.98944 0.78154-1.5331 0.19777-0.48737 0.23574-0.61344 0.45315-1.5044 0.28696-1.176 0.37698-1.5207 0.51061-1.9552 0.41438-1.3474 1.017-2.483 1.9913-3.7522 0.47583-0.60741 1.3467-0.95591 2.0071-1.1265 0.23318-0.0584 0.42546-0.0958 0.84989-0.16525 0.61047-0.0999 0.87155-0.15745 1.1809-0.26025 0.17911-0.0595 0.44998-0.16943 0.46998-0.19071 7e-3 -0.0074 0.12869-0.25699 0.27053-0.5546 0.54736-1.1486 0.79137-1.6714 0.82952-1.7771l0.02579-0.07152-0.04217-0.08648c-0.03963-0.08128-0.04239-0.09278-0.04585-0.19136-0.0036-0.10227-0.0028-0.10714 0.03503-0.19629 0.03242-0.0766 0.04954-0.10193 0.10559-0.15636 0.16525-0.16046 0.39512-0.18163 0.60292-0.05552 0.06118 0.03713 0.55373 0.27098 1.0304 0.4892 0.10906 0.04993 0.2018 0.0872 0.20608 0.08284 0.0103-0.01055 0.15317-0.48985 0.29909-1.0034 0.7847-2.7619 1.3073-5.4908 1.4606-7.627 0.03656-0.50957 0.04107-0.64428 0.04121-1.2303 1.17e-4 -0.69726-0.01584-0.97357-0.0827-1.4294-0.13886-0.94653-0.44756-1.5189-0.90336-1.6749-0.4241-0.1452-0.96254 0.07088-1.6531 0.66341-0.14267 0.12241-0.53478 0.51438-0.70549 0.70523-0.91277 1.081-1.4265 1.8262-2.1262 2.8766l-0.0175-0.04462c-0.09575-0.2444-2.781-7.299-2.7842-7.3145 0.38903-0.24111 0.97406-0.50627 1.4522-0.71127 2.4193-1.035 4.3578-1.2468 5.8413-0.63834 1.0164 0.41688 1.8271 1.2614 2.3729 2.4721 0.43127 0.9565 0.72839 2.1823 0.84164 3.4724 0.24836 2.8291-0.33666 6.1872-1.8428 10.578-0.18968 0.55296-0.49787 1.419-0.57665 1.6203-0.0051 0.01302 0.0018 0.02103 0.02727 0.03196 0.01873 8e-3 0.30746 0.13285 0.64158 0.27736 0.33412 0.1445 0.63047 0.26949 0.65855 0.27777 0.02808 0.0083 0.07862 0.03023 0.11231 0.04875 0.06988 0.03846 0.17773 0.08545 0.29518 0.1286 0.1151 0.0423 0.17732 0.08894 0.24533 0.18393 0.07483 0.10452 0.08882 0.13986 0.09514 0.24041 0.01171 0.18669-0.09246 0.35887-0.26465 0.43732-0.05727 0.02607-0.1955 0.04789-0.24935 0.0393-0.03718-0.0059-0.06172 0.01891-0.12646 0.12786-0.04581 0.07711-0.32769 0.69571-0.75934 1.6664l-0.29306 0.65904 0.03549 0.11692c0.12138 0.39994 0.28674 0.74135 0.65725 1.357 0.13702 0.22766 0.28857 0.48515 0.33679 0.57219 0.28509 0.51459 0.46337 1.0051 0.56774 1.5622 0.14559 0.52458-0.0035 1.0562-0.11636 1.5121-0.22394 0.89707-0.48948 1.6339-0.85325 2.3678-0.3444 0.69478-0.70589 1.2649-1.4696 2.3177-0.28265 0.38963-0.68352 0.95397-0.77242 1.0874-0.18428 0.27656-0.4859 0.86338-0.67959 1.3222-0.19829 0.46973-0.32224 0.84968-0.56457 1.7306-0.2069 0.75213-0.29572 1.0538-0.43585 1.4805-0.34702 1.0564-0.78876 2.128-1.4121 3.4255-0.23316 0.48533-0.56003 1.1322-0.62171 1.2303-0.23885 0.38002-0.61056 0.747-1.005 0.99217-0.39022 0.24258-0.83565 0.40493-1.2832 0.46771-0.11213 0.0157-0.46012 0.0283-0.54624 0.0197zm4.7447-11.615c-0.72713-0.36017-1.2985-0.6348-2.0716-1.0129-0.0011-1e-3 0.07857-0.17836 0.17698-0.39442 0.83048-1.8234 1.4258-3.255 2.0846-5.0129 0.3773-1.0068 0.53338-1.4384 1.5435-4.2678 0.36385-1.0192 0.78438-2.1945 0.93452-2.6117 0.15013-0.4172 0.27126-0.76023 0.26916-0.76229-0.0074-0.0073-1.4572-0.6284-1.4669-0.6284-0.01242 0 0.0011-0.0351-0.22027 0.57176-1.5706 4.3053-2.6852 6.903-4.3261 10.083-0.35196 0.682-1.0432 1.9913-1.0613 2.0102-1.0686-0.63841-1.0993-0.66355-2.1286-1.2994 0.0326 2.2559 0.02551 4.5596 0.06881 6.492 2.148-1.1316 4.0605-2.0108 6.1972-3.1666zm-7.3038-6.2671c0-0.01-0.0035-8e-3 -0.0088 5e-3 -0.0048 0.0113-0.0088 0.0273-0.0088 0.0357 0 0.01 0.0035 8e-3 0.0088-5e-3 0.0048-0.0112 0.0088-0.0273 0.0088-0.0357zm0.02043-0.0715c0-0.01-0.0035-8e-3 -0.0088 5e-3 -0.0048 0.0113-0.0088 0.0273-0.0088 0.0357 0 0.01 0.0035 8e-3 0.0088-5e-3 0.0048-0.0112 0.0088-0.0273 0.0088-0.0357zm-7.6204-14.617c0-0.0083 4.0531-6.1594 4.0589-6.1599 1.9081 1.6756 3.3685 3.0179 5.3982 4.7941-1.2428-2.3158-2.2534-4.103-3.5692-6.5653 0.73043-0.57295 1.2348-1.1133 2.0301-1.6941 0.01693 0.0175 3.7099 9.025 3.7106 9.0505 7.05e-4 0.02053-0.11674 0.15887-0.54445 0.64202l-0.54518 0.61584c-0.90343 1.6202-1.7523 3.2716-2.6681 4.8848-2.7409-1.9945-4.9888-3.4099-7.8709-5.5679z" fill="#fff" stroke-width=".01021"/>
 </g>
</svg>
