<?xml version="1.0" encoding="UTF-8" standalone="no"?> <svg xmlns:dc="http://purl.org/dc/elements/1.1/" xmlns:cc="http://creativecommons.org/ns#" xmlns:rdf="http://www.w3.org/1999/02/22-rdf-syntax-ns#" xmlns:svg="http://www.w3.org/2000/svg" xmlns="http://www.w3.org/2000/svg" xmlns:sodipodi="http://sodipodi.sourceforge.net/DTD/sodipodi-0.dtd" xmlns:inkscape="http://www.inkscape.org/namespaces/inkscape" inkscape:export-ydpi="196.37715" inkscape:export-xdpi="196.37715" inkscape:export-filename="/home/russs/Documents/Global Ecobrick Alli Dropbox/Vision Ecobrick Source FIles/GEA Logos/GEA Logos/GEA Logo Horizontal v2.2 - 1000px.png" sodipodi:docname="GEA Logo Horizontal 2.3.svg" inkscape:version="1.0 (6e3e5246a0, 2020-05-07)" id="svg4724" version="1.1" viewBox="0 0 127.4202 23.093682" height="23.093681mm" width="127.4202mm"><defs id="defs4718"></defs><metadata id="metadata4721"></metadata><g transform="translate(-39.064837,-94.729306)" id="layer1" inkscape:groupmode="layer" inkscape:label="Layer 1"><g transform="matrix(0.26458333,0,0,0.26458333,34.812877,100.62615)" inkscape:export-ydpi="78.429047" inkscape:export-xdpi="78.429047" id="g396"><g aria-label="Global Ecobrick Alliance" transform="matrix(0.71875538,0,0,0.71875538,662.95516,-14.03968)" style="font-style:normal;font-weight:normal;line-height:0.01%;font-family:sans-serif;letter-spacing:0px;word-spacing:0px;fill:#666666;fill-opacity:1;stroke:none;stroke-width:1px;stroke-linecap:butt;stroke-linejoin:miter;stroke-opacity:1" id="flowRoot14146"><path d="m -731.18652,103.95626 c 0,-1.97917 0,-3.958335 0,-5.937502 -1.69611,3.761742 -5.79582,5.926652 -9.81163,6.041642 -3.75759,0.19762 -7.66013,-1.0879 -10.2392,-3.89919 -4.166,-4.377172 -5.16013,-11.162722 -3.27765,-16.789516 1.47556,-4.508749 5.24721,-8.277514 9.91951,-9.350968 4.02883,-0.940399 8.54046,-0.191403 11.7514,2.518158 0.9361,0.501276 1.49433,1.7727 2.45644,2.026749 0.52147,0 1.04294,0 1.56441,0 0,1.158854 0,2.317708 0,3.476562 -1.39974,0 -2.79948,0 -4.19922,0 -1.78357,-3.18778 -5.48417,-5.158407 -9.13002,-4.731979 -4.24212,0.295134 -7.65062,3.801363 -8.75877,7.762985 -1.24866,4.291032 -0.48415,9.398192 2.66845,12.698975 2.19083,2.232584 5.43771,3.227694 8.51523,2.776854 2.89636,-0.2458 5.68221,-1.94416 6.91946,-4.625762 0.22469,-0.769625 1.40194,-2.488584 0.686,-2.806854 -2.65037,0 -5.30075,0 -7.95113,0 0,-1.119792 0,-2.239583 0,-3.359375 4.17318,0 8.34635,0 12.51953,0 0,4.733074 0,9.466147 0,14.199221 -1.21094,0 -2.42187,0 -3.63281,0 z" style="font-style:normal;font-variant:normal;font-weight:normal;font-stretch:normal;font-size:40px;line-height:111%;font-family:Arvo;-inkscape-font-specification:Arvo;text-align:center;text-anchor:middle;fill:#666666;fill-opacity:1" id="path1071"></path><path d="m -722.14355,73.448445 h 6.5625 V 100.4797 h 3.04687 v 3.35937 h -9.60937 v -3.35937 h 2.92968 V 76.80782 h -2.92968 z" style="font-style:normal;font-variant:normal;font-weight:normal;font-stretch:normal;font-size:40px;line-height:111%;font-family:Arvo;-inkscape-font-specification:Arvo;text-align:center;text-anchor:middle;fill:#666666;fill-opacity:1" id="path1073" inkscape:connector-curvature="0"></path><path d="m -709.21387,93.721883 c -0.0362,-3.331671 1.31052,-6.791751 4.04988,-8.802758 2.85568,-2.11187 6.81395,-2.417108 10.09159,-1.185513 2.95147,1.09013 5.0932,3.818968 5.78117,6.84908 0.88219,3.795944 0.17234,8.175358 -2.62985,11.029818 -2.26898,2.35825 -5.75002,3.2029 -8.92231,2.70309 -3.13111,-0.42027 -5.97387,-2.50461 -7.25601,-5.40138 -0.76739,-1.61597 -1.10454,-3.410123 -1.11447,-5.192337 z m 3.84766,0 c -0.0691,2.748654 1.16495,5.728457 3.72658,7.000277 2.64557,1.35806 6.20277,0.33431 7.70561,-2.23862 1.47781,-2.430377 1.57417,-5.543673 0.69283,-8.199768 -0.69416,-2.118422 -2.58468,-3.821479 -4.83041,-4.071349 -2.41817,-0.40941 -5.03854,0.753797 -6.21063,2.939147 -0.80377,1.378436 -1.08955,2.990929 -1.08398,4.570313 z" style="font-style:normal;font-variant:normal;font-weight:normal;font-stretch:normal;font-size:40px;line-height:111%;font-family:Arvo;-inkscape-font-specification:Arvo;text-align:center;text-anchor:middle;fill:#666666;fill-opacity:1" id="path1075"></path><path d="m -685.87402,73.448445 c 2.1875,0 4.375,0 6.5625,0 0,3.945313 0,7.890625 0,11.835938 2.64895,-2.137509 6.46236,-2.856398 9.60937,-1.425782 3.54859,1.523609 5.40787,5.492775 5.38804,9.208146 0.17662,3.938007 -1.65422,8.154103 -5.27161,10.007473 -3.00865,1.52133 -6.9447,1.53127 -9.7258,-0.50468 -0.0885,0.38467 0.18438,1.13079 -0.15007,1.26953 -1.16092,0 -2.32183,0 -3.48275,0 0,-9.010417 0,-18.020833 0,-27.03125 -0.97656,0 -1.95312,0 -2.92968,0 0,-1.119792 0,-2.239583 0,-3.359375 z m 11.5625,12.871094 c -1.87242,-0.01023 -3.70736,0.827161 -5,2.167969 0,3.626302 0,7.252604 0,10.878906 1.80215,1.663686 4.55361,1.989066 6.84959,1.331176 2.8444,-0.858471 4.37559,-3.933924 4.39217,-6.748656 0.19856,-2.817333 -1.06002,-6.01794 -3.81989,-7.141114 -0.76162,-0.330372 -1.5927,-0.490119 -2.42187,-0.488281 z" style="font-style:normal;font-variant:normal;font-weight:normal;font-stretch:normal;font-size:40px;line-height:111%;font-family:Arvo;-inkscape-font-specification:Arvo;text-align:center;text-anchor:middle;fill:#666666;fill-opacity:1" id="path1077"></path><path d="m -648.68652,101.96407 c -1.66782,1.5836 -3.93062,2.65397 -6.27106,2.42493 -2.687,-0.0997 -5.41362,-1.87698 -6.05492,-4.582448 -0.56328,-2.346628 0.33618,-5.04075 2.40853,-6.361387 2.61095,-1.717407 5.89616,-1.726103 8.89175,-1.391978 0.64933,0.155475 1.24759,0.316644 1.05315,-0.509141 0.0562,-1.40019 0.02,-2.958962 -1.04219,-4.018753 -1.47134,-1.472254 -3.76328,-1.262603 -5.6366,-0.928345 -1.16748,0.241535 -2.34029,0.593079 -3.34869,1.246032 -0.39714,-0.839844 -0.79427,-1.679687 -1.19141,-2.519531 2.95503,-1.842262 6.65227,-2.670037 10.07263,-1.838989 1.97074,0.42094 3.69181,1.868079 4.30764,3.806457 0.68655,1.984869 0.40215,4.102958 0.45753,6.160669 -0.005,2.342704 -0.009,4.685409 -0.0136,7.028114 0.7487,0 1.49739,0 2.24609,0 0,1.11979 0,2.23958 0,3.35937 -1.95963,0 -3.91927,0 -5.8789,0 0,-0.625 0,-1.25 0,-1.875 z m -4.92188,-0.60547 c 1.83965,-0.0256 3.68576,-0.81483 4.92188,-2.187499 0.006,-1.523437 0.013,-3.046875 0.0195,-4.570312 -1.74284,0.02613 -3.4903,-0.05968 -5.2295,0.05859 -1.63584,0.147834 -3.44515,1.109595 -3.70544,2.879028 -0.29644,1.396456 0.4349,2.964779 1.82373,3.439029 0.68208,0.29249 1.43374,0.37753 2.16983,0.38116 z" style="font-style:normal;font-variant:normal;font-weight:normal;font-stretch:normal;font-size:40px;line-height:111%;font-family:Arvo;-inkscape-font-specification:Arvo;text-align:center;text-anchor:middle;fill:#666666;fill-opacity:1" id="path1079"></path><path d="m -638.8623,73.448445 h 6.5625 V 100.4797 h 3.04687 v 3.35937 h -9.60937 v -3.35937 h 2.92968 V 76.80782 h -2.92968 z" style="font-style:normal;font-variant:normal;font-weight:normal;font-stretch:normal;font-size:40px;line-height:111%;font-family:Arvo;-inkscape-font-specification:Arvo;text-align:center;text-anchor:middle;fill:#666666;fill-opacity:1" id="path1081" inkscape:connector-curvature="0"></path><path d="m -627.6123,103.83907 q 0,0 0,0 z" style="font-style:normal;font-variant:normal;font-weight:normal;font-stretch:normal;font-size:40px;line-height:111%;font-family:Arvo;-inkscape-font-specification:Arvo;text-align:center;text-anchor:middle;fill:#666666;fill-opacity:1" id="path1083" inkscape:connector-curvature="0"></path><path d="m -616.06934,74.229695 h 21.21094 v 8.378906 h -4.0039 v -5 h -10.56641 v 9.472657 h 8.88672 v 3.359375 h -8.88672 V 100.4797 h 10.56641 v -5.000005 h 4.0039 v 8.359375 h -21.21094 v -3.35937 h 2.8125 V 77.608601 h -2.8125 z" style="font-style:normal;font-variant:normal;font-weight:normal;font-stretch:normal;font-size:40px;line-height:111%;font-family:Arvo;-inkscape-font-specification:Arvo;text-align:center;text-anchor:middle;fill:#666666;fill-opacity:1" id="path1085" inkscape:connector-curvature="0"></path><path d="m -577.14355,88.99532 c -0.9243,-1.840645 -2.97183,-2.907077 -5,-2.832031 -2.42465,-0.05336 -4.61824,1.676409 -5.44976,3.901824 -0.89097,2.271074 -0.91089,4.915268 6.9e-4,7.183076 0.86365,2.191514 3.03499,3.909081 5.44907,3.836971 2.09798,0.0773 4.15495,-1.085533 5.14122,-2.944561 0.15721,-0.661958 0.50516,-0.651606 0.98692,-0.304239 0.78281,0.38632 1.56561,0.77264 2.34842,1.15896 -1.28654,2.88868 -4.13208,4.99279 -7.28088,5.33539 -2.92259,0.38788 -6.03003,-0.58579 -8.06153,-2.75727 -2.77106,-2.931694 -3.47388,-7.379585 -2.47131,-11.197505 0.88349,-3.38105 3.58517,-6.288574 7.01456,-7.133464 3.11531,-0.765849 6.70521,0.01412 8.94369,2.393474 0.68359,0 1.36719,0 2.05078,0 0,1.119792 0,2.239583 0,3.359375 -1.22396,0 -2.44791,0 -3.67187,0 z" style="font-style:normal;font-variant:normal;font-weight:normal;font-stretch:normal;font-size:40px;line-height:111%;font-family:Arvo;-inkscape-font-specification:Arvo;text-align:center;text-anchor:middle;fill:#666666;fill-opacity:1" id="path1087"></path><path d="m -570.15137,93.721883 c -0.0362,-3.331671 1.31052,-6.791751 4.04988,-8.802758 2.85568,-2.11187 6.81395,-2.417108 10.09159,-1.185513 2.95147,1.09013 5.0932,3.818968 5.78117,6.84908 0.88219,3.795944 0.17234,8.175358 -2.62985,11.029818 -2.26898,2.35825 -5.75002,3.2029 -8.92231,2.70309 -3.13111,-0.42027 -5.97387,-2.50461 -7.25601,-5.40138 -0.76739,-1.61597 -1.10454,-3.410123 -1.11447,-5.192337 z m 3.84766,0 c -0.0691,2.748654 1.16495,5.728457 3.72658,7.000277 2.64557,1.35806 6.20277,0.33431 7.70561,-2.23862 1.47781,-2.430377 1.57417,-5.543673 0.69283,-8.199768 -0.69416,-2.118422 -2.58468,-3.821479 -4.83041,-4.071349 -2.41817,-0.40941 -5.03854,0.753797 -6.21063,2.939147 -0.80377,1.378436 -1.08955,2.990929 -1.08398,4.570313 z" style="font-style:normal;font-variant:normal;font-weight:normal;font-stretch:normal;font-size:40px;line-height:111%;font-family:Arvo;-inkscape-font-specification:Arvo;text-align:center;text-anchor:middle;fill:#666666;fill-opacity:1" id="path1089"></path><path d="m -546.81152,73.448445 c 2.1875,0 4.375,0 6.5625,0 0,3.945313 0,7.890625 0,11.835938 2.64895,-2.137509 6.46236,-2.856398 9.60937,-1.425782 3.54859,1.523609 5.40787,5.492775 5.38804,9.208146 0.17662,3.938007 -1.65422,8.154103 -5.27161,10.007473 -3.00865,1.52133 -6.9447,1.53127 -9.7258,-0.50468 -0.0885,0.38467 0.18438,1.13079 -0.15007,1.26953 -1.16092,0 -2.32183,0 -3.48275,0 0,-9.010417 0,-18.020833 0,-27.03125 -0.97656,0 -1.95312,0 -2.92968,0 0,-1.119792 0,-2.239583 0,-3.359375 z m 11.5625,12.871094 c -1.87242,-0.01023 -3.70736,0.827161 -5,2.167969 0,3.626302 0,7.252604 0,10.878906 1.80215,1.663686 4.55361,1.989066 6.84959,1.331176 2.8444,-0.858471 4.37559,-3.933924 4.39217,-6.748656 0.19856,-2.817333 -1.06002,-6.01794 -3.81989,-7.141114 -0.76162,-0.330372 -1.5927,-0.490119 -2.42187,-0.488281 z" style="font-style:normal;font-variant:normal;font-weight:normal;font-stretch:normal;font-size:40px;line-height:111%;font-family:Arvo;-inkscape-font-specification:Arvo;text-align:center;text-anchor:middle;fill:#666666;fill-opacity:1" id="path1091"></path><path d="m -506.96777,87.882039 c -1.23698,0 -2.47396,0 -3.71094,0 0,-0.416667 0,-0.833333 0,-1.25 -2.11552,-0.0011 -3.82875,1.821911 -4.18579,3.822937 -0.11328,0.844935 -0.0241,1.710228 -0.0525,2.563697 0,2.487009 0,4.974018 0,7.461027 1.14583,0 2.29167,0 3.4375,0 0,1.11979 0,2.23958 0,3.35937 -3.34635,0 -6.69271,0 -10.03906,0 0,-1.11979 0,-2.23958 0,-3.35937 0.93099,0 1.86197,0 2.79296,0 0.006,-4.50521 0.013,-9.01042 0.0195,-13.51563 -0.9375,0 -1.875,0 -2.8125,0 0,-1.119792 0,-2.239583 0,-3.359375 2.15495,0 4.30989,0 6.46484,0 0,0.93099 0,1.861979 0,2.792969 0.8552,-1.634164 2.4918,-3.025476 4.4251,-2.949219 1.22033,0.0044 2.44133,-0.01754 3.66084,0.03906 10e-6,1.464845 3e-5,2.929689 4e-5,4.394534 z" style="font-style:normal;font-variant:normal;font-weight:normal;font-stretch:normal;font-size:40px;line-height:111%;font-family:Arvo;-inkscape-font-specification:Arvo;text-align:center;text-anchor:middle;fill:#666666;fill-opacity:1" id="path1093"></path><path d="m -502.9248,83.604695 c 2.20052,0 4.40104,0 6.60156,0 0,5.625002 0,11.250003 0,16.875005 1.01562,0 2.03125,0 3.04687,0 0,1.11979 0,2.23958 0,3.35937 -3.20312,0 -6.40625,0 -9.60937,0 0,-1.11979 0,-2.23958 0,-3.35937 0.96354,0 1.92708,0 2.89062,0 0,-4.50521 0,-9.01042 0,-13.51563 -0.97656,0 -1.95312,0 -2.92968,0 0,-1.119792 0,-2.239583 0,-3.359375 z m 2.24609,-7.167969 c -0.0621,-1.813121 2.18032,-3.176571 3.74145,-2.197265 1.38497,0.700831 1.76524,2.680054 0.74097,3.841553 -0.98412,1.394236 -3.33814,1.20771 -4.10949,-0.310364 -0.25069,-0.397189 -0.37526,-0.865368 -0.37293,-1.333924 z" style="font-style:normal;font-variant:normal;font-weight:normal;font-stretch:normal;font-size:40px;line-height:111%;font-family:Arvo;-inkscape-font-specification:Arvo;text-align:center;text-anchor:middle;fill:#666666;fill-opacity:1" id="path1095"></path><path d="m -475.34668,88.99532 q -0.82031,-1.464844 -2.08984,-2.148437 -1.25,-0.683594 -2.91016,-0.683594 -1.26953,0 -2.38281,0.527344 -1.11328,0.527343 -1.95313,1.503906 -0.82031,0.976562 -1.30859,2.382812 -0.46875,1.386719 -0.46875,3.105469 0,1.699219 0.46875,3.066406 0.48828,1.367188 1.32812,2.34375 0.83985,0.957034 1.9336,1.484374 1.11328,0.50781 2.38281,0.50781 1.875,0 3.26172,-0.89843 1.38672,-0.917972 2.20703,-2.675785 l 3.00781,1.484375 q -0.58593,1.25 -1.44531,2.24609 -0.85937,0.9961 -1.95312,1.69922 -1.07422,0.70313 -2.38282,1.07422 -1.28906,0.39063 -2.73437,0.39063 -2.10938,0 -3.90625,-0.78125 -1.77735,-0.80078 -3.08594,-2.22657 -1.28906,-1.425777 -2.01172,-3.398434 -0.72265,-1.972656 -0.72265,-4.316406 0,-2.34375 0.76171,-4.316406 0.76172,-1.972656 2.08985,-3.378906 1.32812,-1.425782 3.10547,-2.226563 1.77734,-0.800781 3.80859,-0.800781 1.91406,0 3.61328,0.664062 1.71875,0.664063 3.00781,2.011719 h 2.05079 v 3.359375 z" style="font-style:normal;font-variant:normal;font-weight:normal;font-stretch:normal;font-size:40px;line-height:111%;font-family:Arvo;-inkscape-font-specification:Arvo;text-align:center;text-anchor:middle;fill:#666666;fill-opacity:1" id="path1097" inkscape:connector-curvature="0"></path><path d="m -468.2373,73.448445 h 7.1289 v 3.359375 h -0.0391 v 15.117188 h 3.51562 l 4.80469,-4.960938 h -1.21094 v -3.359375 h 7.67579 v 3.359375 h -2.5586 l -6.15234,6.347656 6.71875,7.167974 h 2.4414 v 3.35937 h -4.27734 l -8.28125,-9.042969 h -2.67578 v 5.683599 h 1.67969 v 3.35937 h -8.65235 v -3.35937 h 3.32032 V 76.80782 h -3.4375 z" style="font-style:normal;font-variant:normal;font-weight:normal;font-stretch:normal;font-size:40px;line-height:111%;font-family:Arvo;-inkscape-font-specification:Arvo;text-align:center;text-anchor:middle;fill:#666666;fill-opacity:1" id="path1099" inkscape:connector-curvature="0"></path><path d="m -444.87793,103.83907 q 0,0 0,0 z" style="font-style:normal;font-variant:normal;font-weight:normal;font-stretch:normal;font-size:40px;line-height:111%;font-family:Arvo;-inkscape-font-specification:Arvo;text-align:center;text-anchor:middle;fill:#666666;fill-opacity:1" id="path1101" inkscape:connector-curvature="0"></path><path d="m -415.81543,100.4797 h 2.46094 l -2.34375,-6.718755 h -11.38672 l -2.28516,6.718755 h 3.04688 v 3.35937 h -9.60938 v -3.35937 h 2.57813 l 9.21875,-26.250005 h 5.76172 l 9.19922,26.250005 h 2.96875 v 3.35937 h -9.60938 z m -10.15625,-9.960942 h 9.14063 l -4.60938,-13.242188 z" style="font-style:normal;font-variant:normal;font-weight:normal;font-stretch:normal;font-size:40px;line-height:111%;font-family:Arvo;-inkscape-font-specification:Arvo;text-align:center;text-anchor:middle;fill:#666666;fill-opacity:1" id="path1103" inkscape:connector-curvature="0"></path><path d="m -404.1748,73.448445 h 6.5625 V 100.4797 h 3.04687 v 3.35937 h -9.60937 v -3.35937 h 2.92968 V 76.80782 h -2.92968 z" style="font-style:normal;font-variant:normal;font-weight:normal;font-stretch:normal;font-size:40px;line-height:111%;font-family:Arvo;-inkscape-font-specification:Arvo;text-align:center;text-anchor:middle;fill:#666666;fill-opacity:1" id="path1105" inkscape:connector-curvature="0"></path><path d="m -391.12793,73.448445 h 6.5625 V 100.4797 h 3.04688 v 3.35937 h -9.60938 v -3.35937 h 2.92969 V 76.80782 h -2.92969 z" style="font-style:normal;font-variant:normal;font-weight:normal;font-stretch:normal;font-size:40px;line-height:111%;font-family:Arvo;-inkscape-font-specification:Arvo;text-align:center;text-anchor:middle;fill:#666666;fill-opacity:1" id="path1107" inkscape:connector-curvature="0"></path><path d="m -378.08105,83.604695 c 2.20052,0 4.40104,0 6.60156,0 0,5.625002 0,11.250003 0,16.875005 1.01562,0 2.03125,0 3.04687,0 0,1.11979 0,2.23958 0,3.35937 -3.20312,0 -6.40625,0 -9.60937,0 0,-1.11979 0,-2.23958 0,-3.35937 0.96354,0 1.92708,0 2.89062,0 0,-4.50521 0,-9.01042 0,-13.51563 -0.97656,0 -1.95312,0 -2.92968,0 0,-1.119792 0,-2.239583 0,-3.359375 z m 2.24609,-7.167969 c -0.0621,-1.813121 2.18032,-3.176571 3.74145,-2.197265 1.38497,0.700831 1.76524,2.680054 0.74097,3.841553 -0.98412,1.394236 -3.33814,1.20771 -4.10949,-0.310364 -0.25069,-0.397189 -0.37526,-0.865368 -0.37293,-1.333924 z" style="font-style:normal;font-variant:normal;font-weight:normal;font-stretch:normal;font-size:40px;line-height:111%;font-family:Arvo;-inkscape-font-specification:Arvo;text-align:center;text-anchor:middle;fill:#666666;fill-opacity:1" id="path1109"></path><path d="m -353.21777,101.96407 c -1.66782,1.5836 -3.93062,2.65397 -6.27106,2.42493 -2.687,-0.0997 -5.41362,-1.87698 -6.05492,-4.582448 -0.56328,-2.346628 0.33618,-5.04075 2.40853,-6.361387 2.61095,-1.717407 5.89616,-1.726103 8.89175,-1.391978 0.64933,0.155475 1.24759,0.316644 1.05315,-0.509141 0.0562,-1.40019 0.02,-2.958962 -1.04219,-4.018753 -1.47134,-1.472254 -3.76328,-1.262603 -5.6366,-0.928345 -1.16748,0.241535 -2.34029,0.593079 -3.34869,1.246032 -0.39714,-0.839844 -0.79427,-1.679687 -1.19141,-2.519531 2.95503,-1.842262 6.65227,-2.670037 10.07263,-1.838989 1.97074,0.42094 3.69181,1.868079 4.30764,3.806457 0.68655,1.984869 0.40215,4.102958 0.45753,6.160669 -0.005,2.342704 -0.009,4.685409 -0.0136,7.028114 0.7487,0 1.49739,0 2.24609,0 0,1.11979 0,2.23958 0,3.35937 -1.95963,0 -3.91927,0 -5.8789,0 0,-0.625 0,-1.25 0,-1.875 z m -4.92188,-0.60547 c 1.83965,-0.0256 3.68576,-0.81483 4.92188,-2.187499 0.006,-1.523437 0.013,-3.046875 0.0195,-4.570312 -1.74284,0.02613 -3.4903,-0.05968 -5.22949,0.05859 -1.63585,0.147834 -3.44516,1.109595 -3.70545,2.879028 -0.29644,1.396456 0.4349,2.964779 1.82373,3.439029 0.68208,0.29249 1.43374,0.37753 2.16983,0.38116 z" style="font-style:normal;font-variant:normal;font-weight:normal;font-stretch:normal;font-size:40px;line-height:111%;font-family:Arvo;-inkscape-font-specification:Arvo;text-align:center;text-anchor:middle;fill:#666666;fill-opacity:1" id="path1111"></path><path d="m -329.91699,100.4797 c 0.95052,0 1.90104,0 2.85156,0 -0.0117,-3.267091 0.0239,-6.535227 -0.0186,-9.801641 -0.0367,-1.722238 -1.07697,-3.484014 -2.81867,-3.931427 -1.89539,-0.588037 -3.93648,-0.0198 -5.5465,1.052399 -0.56449,0.386091 -1.41115,0.683311 -1.18652,1.500855 0,3.726605 0,7.453209 0,11.179814 0.95052,0 1.90104,0 2.85156,0 0,1.11979 0,2.23958 0,3.35937 -3.15104,0 -6.30208,0 -9.45312,0 0,-1.11979 0,-2.23958 0,-3.35937 0.9375,0 1.875,0 2.8125,0 0,-4.50521 0,-9.01042 0,-13.51563 -0.9375,0 -1.875,0 -2.8125,0 0,-1.119792 0,-2.239583 0,-3.359375 2.14844,0 4.29687,0 6.44531,0 0,0.794271 0,1.588542 0,2.382813 1.87626,-1.618902 4.28063,-2.91574 6.84574,-2.746888 2.26646,0.02138 4.70176,1.030357 5.73547,3.162842 1.23083,2.32119 0.87884,4.995233 0.93445,7.521339 0,2.184967 0,4.369933 0,6.554899 0.9375,0 1.875,0 2.8125,0 0,1.11979 0,2.23958 0,3.35937 -3.15104,0 -6.30208,0 -9.45312,0 -1e-5,-1.11979 -3e-5,-2.23958 -4e-5,-3.35937 z" style="font-style:normal;font-variant:normal;font-weight:normal;font-stretch:normal;font-size:40px;line-height:111%;font-family:Arvo;-inkscape-font-specification:Arvo;text-align:center;text-anchor:middle;fill:#666666;fill-opacity:1" id="path1113"></path><path d="m -301.90918,88.99532 c -0.92429,-1.840653 -2.97183,-2.907078 -5,-2.832031 -2.42464,-0.05335 -4.61824,1.676406 -5.44975,3.901824 -0.89097,2.271076 -0.91089,4.915265 6.8e-4,7.183076 0.86365,2.191517 3.035,3.909071 5.44907,3.836971 2.09798,0.0773 4.15496,-1.085525 5.14122,-2.944561 0.15721,-0.661959 0.50516,-0.651605 0.98692,-0.304239 0.78281,0.38632 1.56561,0.77264 2.34842,1.15896 -1.28654,2.88869 -4.13207,4.9928 -7.28088,5.33539 -2.92259,0.38788 -6.03002,-0.5858 -8.06153,-2.75727 -2.77106,-2.931698 -3.47386,-7.379583 -2.47131,-11.197505 0.88349,-3.381051 3.58518,-6.288569 7.01456,-7.133464 3.11531,-0.765849 6.70521,0.01412 8.94369,2.393474 0.6836,0 1.36719,0 2.05079,0 0,1.119792 0,2.239583 0,3.359375 -1.22396,0 -2.44792,0 -3.67188,0 z" style="font-style:normal;font-variant:normal;font-weight:normal;font-stretch:normal;font-size:40px;line-height:111%;font-family:Arvo;-inkscape-font-specification:Arvo;text-align:center;text-anchor:middle;fill:#666666;fill-opacity:1" id="path1115"></path><path d="m -291.20605,94.190633 c -0.0689,2.453561 1.05396,5.168114 3.40797,6.210787 2.47316,1.13898 5.40229,0.65545 7.79983,-0.444871 0.54846,-0.0155 1.3636,-1.183856 1.63731,-0.340896 0.41231,0.698167 0.82461,1.396337 1.23692,2.094507 -3.09918,2.20106 -7.11958,3.29215 -10.86495,2.37221 -2.56774,-0.59221 -4.75155,-2.47778 -5.76631,-4.902761 -1.11298,-2.541137 -1.26274,-5.434748 -0.80801,-8.14663 0.47947,-2.789003 2.06231,-5.485488 4.61252,-6.838551 2.25125,-1.246932 4.99809,-1.375732 7.46427,-0.784741 2.49122,0.633784 4.44498,2.715895 5.11345,5.17151 0.60083,1.805272 0.74049,3.718839 0.73735,5.609436 -4.85678,0 -9.71357,0 -14.57035,0 z m 5.68359,-8.066407 c -1.78978,-0.06463 -3.67491,0.740158 -4.55902,2.358399 -0.51196,0.878401 -0.75942,1.881936 -0.92926,2.875976 3.49609,0 6.99219,0 10.48828,0 -0.11386,-1.74291 -0.63525,-3.741438 -2.29615,-4.628906 -0.81674,-0.468904 -1.77497,-0.606119 -2.70385,-0.605469 z" style="font-style:normal;font-variant:normal;font-weight:normal;font-stretch:normal;font-size:40px;line-height:111%;font-family:Arvo;-inkscape-font-specification:Arvo;text-align:center;text-anchor:middle;fill:#666666;fill-opacity:1" id="path1117"></path></g><g aria-label="Ecobricks.org" transform="matrix(10.203003,0,0,10.203003,-3037.5217,-2980.9307)" style="font-style:normal;font-weight:normal;line-height:0.01%;font-family:sans-serif;letter-spacing:0px;word-spacing:0px;fill:#666666;fill-opacity:1;stroke:none" id="g1615"><g id="flowRoot1613" style="font-style:normal;font-weight:normal;font-size:40px;line-height:0px;font-family:sans-serif;letter-spacing:0px;word-spacing:0px;fill:#666666;fill-opacity:1;stroke:none" transform="matrix(0.14204723,0,0,0.14204723,278.94557,191.12579)" aria-label="ecobricks.org"><path d="m 220.69141,720.5004 c 0.0605,2.19954 2.16322,3.8166 4.2215,4.07623 2.45474,0.33278 4.90379,-0.36081 7.16522,-1.26368 0.71615,1.33463 1.43229,2.66927 2.14844,4.0039 -1.99281,1.26888 -4.19517,2.34192 -6.59195,2.48475 -2.95761,0.29464 -6.12367,-0.14753 -8.55811,-1.96587 -3.12559,-2.21298 -4.51274,-6.25189 -4.1578,-9.97444 0.26207,-3.74067 2.66992,-7.2619 6.13945,-8.73352 2.64364,-1.13714 5.75248,-1.20184 8.44459,-0.18914 2.87173,1.05996 4.94142,3.70688 5.64484,6.64358 0.3981,1.60294 0.49585,3.27284 0.44621,4.91824 -4.96746,-2e-5 -9.93493,-3e-5 -14.90239,-5e-5 z m 4.66796,-7.38281 c -1.67059,-0.0716 -3.4893,0.70303 -4.15161,2.32788 -0.43805,0.6726 -0.38251,1.11431 0.43892,0.93383 2.55918,0 5.11836,0 7.67754,0 -0.22117,-1.33996 -1.03005,-2.69574 -2.42249,-3.05237 -0.49666,-0.16146 -1.02253,-0.20827 -1.54236,-0.20934 z" style="font-style:normal;font-variant:normal;font-weight:bold;font-stretch:normal;font-family:Arvo;-inkscape-font-specification:'Arvo Bold';letter-spacing:-1.37997px" id="path698"></path><path d="m 252.41691,716.10587 c -0.99915,-1.32628 -2.62732,-2.2223 -4.31641,-2.05078 -2.23223,-0.23714 -4.35964,1.43365 -4.86938,3.58031 -0.6632,2.28981 0.20168,5.09271 2.39379,6.22559 1.31769,0.70954 2.94899,0.9189 4.32343,0.23071 1.28639,-0.54212 2.24433,-1.66036 2.82013,-2.90771 1.79036,0.49479 3.58073,0.98959 5.37109,1.48438 -1.0987,3.7308 -4.59488,6.43526 -8.3794,7.01776 -3.04249,0.4971 -6.33376,-0.15786 -8.73516,-2.15746 -2.95501,-2.35461 -4.33914,-6.33413 -3.82597,-10.03713 0.48689,-4.2074 3.81566,-7.93395 7.98874,-8.76625 1.71646,-0.3135 3.50777,-0.33253 5.22131,0.004 1.274,0.26573 2.46319,0.86166 3.57166,1.49757 1.2756,0 2.55119,0 3.82679,0 0,1.95964 0,3.91927 0,5.87891 -1.79687,0 -3.59375,0 -5.39062,0 z" style="font-style:normal;font-variant:normal;font-weight:bold;font-stretch:normal;font-family:Arvo;-inkscape-font-specification:'Arvo Bold';letter-spacing:-1.37997px" id="path700"></path><path d="m 258.77131,719.15274 c -0.0717,-3.9838 2.3029,-7.91452 5.94116,-9.58527 4.11364,-1.97639 9.48267,-1.18374 12.66295,2.15655 3.41512,3.49411 3.85305,9.34063 1.21034,13.40529 -1.9627,3.12601 -5.71037,4.86742 -9.35615,4.70375 -3.66629,0.006 -7.31359,-1.98369 -9.08562,-5.22898 -0.94365,-1.64933 -1.37627,-3.5591 -1.37268,-5.45134 z m 5.83985,0 c -0.0884,2.43691 1.69729,4.88838 4.17663,5.21851 2.0632,0.36374 4.2552,-0.78661 5.08797,-2.72011 1.02923,-2.30553 0.58797,-5.45198 -1.59371,-6.94664 -2.24937,-1.51733 -5.76876,-0.82206 -7.00942,1.679 -0.46313,0.84426 -0.6673,1.81056 -0.66147,2.76924 z" style="font-style:normal;font-variant:normal;font-weight:bold;font-stretch:normal;font-family:Arvo;-inkscape-font-specification:'Arvo Bold';letter-spacing:-1.37997px" id="path702"></path><path id="path704" style="font-style:normal;font-variant:normal;font-weight:bold;font-stretch:normal;font-family:Arvo;-inkscape-font-specification:'Arvo Bold';letter-spacing:-1.37997px" d="m 280.84837,698.95743 h 8.82813 v 10.60547 q 1.05469,-0.50781 2.16797,-0.78125 1.11328,-0.27344 2.28515,-0.27344 2.2461,0 4.16016,0.83984 1.91406,0.83985 3.30078,2.28516 1.38672,1.44531 2.16797,3.37891 0.80078,1.93359 0.80078,4.10156 0,2.1875 -0.78125,4.12109 -0.76172,1.9336 -2.14844,3.37891 -1.38672,1.42578 -3.30078,2.26562 -1.91406,0.82032 -4.19922,0.82032 -1.23047,0 -2.34375,-0.23438 -1.11328,-0.23437 -2.10937,-0.66406 v 0.54687 h -5.9961 v -25.03906 h -2.83203 z m 12.8711,14.94141 q -1.28907,0 -2.32422,0.58593 -1.01563,0.58594 -1.71875,1.67969 v 6.05469 q 0.625,0.9375 1.66015,1.52344 1.05469,0.5664 2.34375,0.5664 0.9961,0 1.89454,-0.35156 0.89843,-0.37109 1.5625,-1.03516 0.68359,-0.68359 1.07421,-1.62109 0.39063,-0.95703 0.39063,-2.14844 0,-1.21094 -0.39063,-2.1875 -0.39062,-0.97656 -1.05468,-1.66015 -0.66407,-0.6836 -1.5625,-1.03516 -0.87891,-0.37109 -1.875,-0.37109 z" inkscape:connector-curvature="0"></path><path id="path706" style="font-style:normal;font-variant:normal;font-weight:bold;font-stretch:normal;font-family:Arvo;-inkscape-font-specification:'Arvo Bold';letter-spacing:-1.37997px" d="m 324.29263,716.47696 h -5.48829 v -2.08984 q -0.80078,0 -1.46484,0.11718 -0.66406,0.0977 -1.17187,0.35157 -0.48829,0.2539 -0.83985,0.70312 -0.33203,0.44922 -0.46875,1.11328 v 7.32422 h 4.1211 v 5.35156 H 305.777 v -5.35156 h 3.02734 v -9.53125 h -2.98828 v -5.35156 h 9.00391 v 1.42578 q 0.85937,-0.68359 1.93359,-1.05469 1.07422,-0.37109 2.34375,-0.37109 1.28907,0 2.65625,0.0195 1.36719,0.0195 2.53907,0.0195 z" inkscape:connector-curvature="0"></path><path id="path708" style="font-style:normal;font-variant:normal;font-weight:bold;font-stretch:normal;font-family:Arvo;-inkscape-font-specification:'Arvo Bold';letter-spacing:-1.37997px" d="m 326.27203,709.11368 h 9.08203 v 14.88281 h 2.8125 v 5.35156 h -11.89453 v -5.35156 h 3.04688 v -9.53125 h -3.04688 z m 2.73438,-6.52344 q 0,-0.72265 0.2539,-1.34765 0.27344,-0.64454 0.74219,-1.11329 0.46875,-0.46875 1.09375,-0.74218 0.64453,-0.27344 1.38672,-0.27344 0.70313,0 1.32813,0.27344 0.625,0.27343 1.09375,0.74218 0.46875,0.46875 0.74218,1.11329 0.27344,0.625 0.27344,1.34765 0,0.72266 -0.27344,1.36719 -0.27343,0.625 -0.74218,1.09375 -0.46875,0.46875 -1.09375,0.74219 -0.625,0.27343 -1.32813,0.27343 -0.74219,0 -1.38672,-0.27343 -0.625,-0.27344 -1.09375,-0.74219 -0.46875,-0.46875 -0.74219,-1.09375 -0.2539,-0.64453 -0.2539,-1.36719 z" inkscape:connector-curvature="0"></path><path id="path710" style="font-style:normal;font-variant:normal;font-weight:bold;font-stretch:normal;font-family:Arvo;-inkscape-font-specification:'Arvo Bold';letter-spacing:-1.37997px" d="m 355.51706,716.10587 q -0.83984,-1.05469 -1.875,-1.58203 -1.03516,-0.54688 -2.44141,-0.46875 -1.13281,-0.0781 -2.07031,0.3125 -0.91797,0.39062 -1.60156,1.09375 -0.66406,0.70312 -1.03516,1.67968 -0.37109,0.95703 -0.37109,2.16797 0,1.07422 0.39062,2.03125 0.39063,0.95703 1.05469,1.66016 0.68359,0.68359 1.60156,1.07422 0.9375,0.39062 2.03125,0.46875 0.91797,-0.0781 1.66016,-0.3711 0.76172,-0.3125 1.34766,-0.78125 0.58593,-0.48828 0.99609,-1.07422 0.42969,-0.60546 0.66406,-1.13281 l 5.3711,1.48438 q -0.33204,1.17187 -1.15235,2.4414 -0.80078,1.26953 -2.10937,2.32422 -1.28907,1.03516 -3.08594,1.71875 -1.77734,0.6836 -4.0625,0.6836 -2.32422,0 -4.27734,-0.83985 -1.95313,-0.85937 -3.35938,-2.32422 -1.40625,-1.46484 -2.20703,-3.4375 -0.78125,-1.97265 -0.78125,-4.23828 0,-2.24609 0.80078,-4.16015 0.82031,-1.9336 2.24609,-3.35938 1.42579,-1.44531 3.37891,-2.24609 1.97266,-0.80078 4.27734,-0.72266 1.64063,-0.0781 3.1836,0.37109 1.54297,0.44922 2.92969,1.34766 h 3.88671 v 5.87891 z" inkscape:connector-curvature="0"></path><path id="path712" style="font-style:normal;font-variant:normal;font-weight:bold;font-stretch:normal;font-family:Arvo;-inkscape-font-specification:'Arvo Bold';letter-spacing:-1.37997px" d="m 361.61757,698.95743 h 9.12109 v 17.51953 h 3.41797 l 1.40625,-2.01172 v -5.35156 h 10.46875 v 5.35156 h -3.63281 l -3.76953,4.35547 3.84765,4.64844 h 3.35938 v 5.8789 h -5.48828 l -6.5625,-8.67187 h -3.04688 v 3.32031 h 2.07032 v 5.35156 h -11.19141 v -5.35156 h 3.125 v -19.6875 h -3.125 z" inkscape:connector-curvature="0"></path><path d="m 401.91728,715.30509 c -0.0721,-1.31884 -1.52632,-1.92129 -2.63672,-2.16797 -1.32447,-0.24718 -2.83035,-0.39221 -4.0332,0.32712 -1.07814,0.67041 -0.45651,2.2983 0.70313,2.4121 2.56412,0.60337 5.23902,0.82723 7.67617,1.88554 1.69575,0.70149 3.18712,2.1475 3.45176,4.02755 0.41266,2.10961 -0.42425,4.35353 -2.07786,5.71731 -2.45539,2.03143 -5.8482,2.60275 -8.94676,2.20941 -1.44329,-0.19839 -2.89128,-0.68022 -3.99979,-1.65719 -1.17839,0 -2.35677,0 -3.53516,0 0,-1.8099 0,-3.61979 0,-5.42969 1.84245,0 3.6849,0 5.52735,0 -0.0496,1.31175 1.33123,2.03379 2.4414,2.26563 1.32,0.20431 2.76544,0.25945 4.00391,-0.3125 1.03915,-0.41962 1.04374,-1.98845 0.032,-2.43133 -1.11286,-0.50093 -2.35186,-0.60356 -3.52839,-0.89972 -2.47969,-0.50894 -5.17229,-1.02197 -6.98338,-2.94276 -1.94645,-2.06418 -1.79293,-5.6265 0.23139,-7.58827 2.40392,-2.42533 6.10257,-2.93656 9.35159,-2.42904 1.4263,0.18873 2.82321,0.69279 3.96316,1.58409 1.13281,0 2.26562,0 3.39843,0 0,1.8099 0,3.61979 0,5.42969 -1.67969,10e-6 -3.35938,2e-5 -5.03907,3e-5 z" style="font-style:normal;font-variant:normal;font-weight:bold;font-stretch:normal;font-family:Arvo;-inkscape-font-specification:'Arvo Bold';letter-spacing:-1.37997px" id="path714"></path><path d="m 408.99434,726.18399 c -0.031,-1.36255 0.75207,-2.70675 1.96411,-3.33496 1.0374,-0.576 2.35348,-0.64344 3.41992,-0.10414 1.2539,0.57085 2.1388,1.8695 2.18951,3.24959 0.0809,1.49506 -0.79839,3.01164 -2.17347,3.62879 -1.24114,0.62627 -2.8052,0.43122 -3.90837,-0.39332 -0.91145,-0.64497 -1.46285,-1.73553 -1.48743,-2.84729 -0.003,-0.0662 -0.004,-0.13243 -0.004,-0.19867 z" style="font-style:normal;font-variant:normal;font-weight:bold;font-stretch:normal;font-family:Arvo;-inkscape-font-specification:'Arvo Bold';letter-spacing:-1.37997px" id="path716"></path><path d="m 418.23938,719.23087 c -0.0362,-3.33167 1.31051,-6.79176 4.04987,-8.80276 2.85569,-2.11187 6.81395,-2.41712 10.09159,-1.18551 2.95148,1.09013 5.0932,3.81896 5.78118,6.84907 0.88219,3.79595 0.17234,8.17536 -2.62985,11.02982 -2.26899,2.35824 -5.75002,3.2029 -8.92232,2.70309 -3.1311,-0.42027 -5.97385,-2.50462 -7.256,-5.40137 -0.76739,-1.61597 -1.10454,-3.41013 -1.11447,-5.19234 z m 3.84766,0 c -0.0691,2.74865 1.16495,5.72845 3.72657,7.00027 2.64557,1.35805 6.20278,0.33432 7.70561,-2.23862 1.47782,-2.43037 1.57418,-5.54367 0.69283,-8.19976 -0.69416,-2.11842 -2.58466,-3.82149 -4.8304,-4.07136 -2.41817,-0.40941 -5.03855,0.7538 -6.21063,2.93916 -0.80377,1.37843 -1.08955,2.99093 -1.08398,4.57031 z" style="letter-spacing:-2.06995px" id="path718"></path><path d="m 454.60192,713.39102 c -1.23698,0 -2.47396,0 -3.71094,0 0,-0.41667 0,-0.83333 0,-1.25 -2.11552,-10e-4 -3.82875,1.82191 -4.18579,3.82294 -0.11328,0.84493 -0.0241,1.71022 -0.0525,2.56369 0,2.48701 0,4.97402 0,7.46103 1.14583,0 2.29167,0 3.4375,0 0,1.11979 0,2.23958 0,3.35937 -3.34635,0 -6.69271,0 -10.03906,0 0,-1.11979 0,-2.23958 0,-3.35937 0.93099,0 1.86197,0 2.79296,0 0.007,-4.50521 0.013,-9.01042 0.0195,-13.51563 -0.9375,0 -1.875,0 -2.8125,0 0,-1.11979 0,-2.23958 0,-3.35937 2.15495,0 4.30989,0 6.46484,0 0,0.93099 0,1.86198 0,2.79297 0.8552,-1.63417 2.4918,-3.02548 4.4251,-2.94922 1.22033,0.004 2.44133,-0.0176 3.66084,0.0391 10e-6,1.46483 3e-5,2.92966 4e-5,4.39449 z" style="letter-spacing:-2.06995px" id="path720"></path><path d="m 470.45388,727.57071 c -1.6922,1.87611 -4.37326,2.53404 -6.81213,2.12768 -3.20675,-0.34994 -6.0715,-2.57923 -7.23206,-5.5844 -1.13347,-2.86919 -1.21885,-6.15654 -0.29877,-9.09531 0.97394,-3.18954 3.81965,-5.65109 7.10175,-6.20285 2.45094,-0.42727 5.19628,-0.21551 7.24121,1.33301 0.10419,-0.33419 -0.25544,-1.1322 0.27997,-1.03516 1.11761,0 2.23523,0 3.35284,0 -0.009,6.72328 0.0183,13.44703 -0.0139,20.17002 -0.0642,2.92306 -1.07272,6.17149 -3.74647,7.71881 -2.70229,1.50482 -5.98664,1.49766 -8.94954,0.91 -1.89831,-0.44154 -3.783,-1.16913 -5.27832,-2.45117 0.65104,-0.98307 1.30208,-1.96615 1.95312,-2.94922 2.56906,2.10969 6.24027,2.86957 9.43207,1.92597 2.05021,-0.66991 2.78513,-2.95565 2.90299,-4.90121 0.0584,-0.65369 0.0702,-1.31022 0.0673,-1.96617 z m -4.84375,-0.9375 c 1.79483,0.007 3.79356,-0.63507 4.84375,-2.1403 0,-3.66808 0,-7.33615 0,-11.00423 -1.75286,-1.50825 -4.28722,-1.94942 -6.51123,-1.46943 -2.42304,0.55044 -4.14686,2.77627 -4.52569,5.16724 -0.43142,2.79395 -0.0331,6.08044 2.18018,8.0655 1.09913,0.95366 2.57379,1.38864 4.01299,1.38122 z" style="letter-spacing:-2.06995px" id="path722"></path></g></g></g><path inkscape:connector-curvature="0" id="path1024-5-7-9-3" d="m 47.013678,117.80072 c -0.995314,-0.10655 -1.951108,-0.57786 -2.608295,-1.33863 -0.984402,-1.055 -1.28255,-2.65603 -0.838342,-4.0154 0.456848,-1.34616 1.642023,-2.41737 3.041255,-2.69566 1.29458,-0.26685 2.71493,0.1138 3.654171,1.05702 1.206803,1.11874 1.58698,2.99607 0.942652,4.50508 -0.344045,0.8521 -1.016122,1.55852 -1.807229,2.01343 -0.728603,0.3848 -1.562877,0.56247 -2.384212,0.47416 z m 0.987457,-2.9232 c 0.743878,-0.31475 1.001702,-1.36752 0.475452,-1.98418 -0.243953,-0.34492 -0.655564,-0.52724 -1.073712,-0.50875 -0.8048,-0.0345 -1.457057,0.85093 -1.237665,1.61676 0.134218,0.65675 0.822151,1.10452 1.475629,0.98507 0.124465,-0.0189 0.246346,-0.0553 0.360296,-0.1089 z" style="font-style:normal;font-weight:normal;font-size:40px;line-height:0px;font-family:sans-serif;letter-spacing:0px;word-spacing:0px;display:inline;opacity:1;fill:#00e6ff;fill-opacity:1;stroke:none;stroke-width:0.248999;stroke-miterlimit:4;stroke-dasharray:none;stroke-opacity:1"></path><path style="font-style:normal;font-weight:normal;font-size:40px;line-height:0px;font-family:sans-serif;letter-spacing:0px;word-spacing:0px;display:inline;opacity:1;fill:#05f30a;fill-opacity:1;stroke:none;stroke-width:0.248999;stroke-miterlimit:4;stroke-dasharray:none;stroke-opacity:1" d="m 55.668979,117.80072 c -0.995313,-0.10655 -1.951107,-0.57786 -2.608294,-1.33863 -0.984402,-1.055 -1.28255,-2.65603 -0.838342,-4.0154 0.456848,-1.34616 1.642023,-2.41737 3.041254,-2.69566 1.294581,-0.26685 2.714931,0.1138 3.654172,1.05702 1.206802,1.11874 1.586979,2.99607 0.942652,4.50508 -0.344046,0.8521 -1.016122,1.55852 -1.80723,2.01343 -0.728603,0.3848 -1.562876,0.56247 -2.384212,0.47416 z m 0.987457,-2.9232 c 0.743879,-0.31475 1.001703,-1.36752 0.475453,-1.98418 -0.243953,-0.34492 -0.655564,-0.52724 -1.073712,-0.50875 -0.804801,-0.0345 -1.457057,0.85093 -1.237665,1.61676 0.134218,0.65675 0.822151,1.10452 1.475629,0.98507 0.124464,-0.0189 0.246346,-0.0553 0.360295,-0.1089 z" id="path3782-3-5-4-6" inkscape:connector-curvature="0"></path><path inkscape:connector-curvature="0" id="path3784-5-3-7-1" d="m 51.339381,110.34263 c -0.995313,-0.10655 -1.951107,-0.57787 -2.608294,-1.33863 -0.984402,-1.055 -1.28255,-2.65603 -0.838342,-4.0154 0.456848,-1.34617 1.642023,-2.41737 3.041254,-2.69567 1.294581,-0.26685 2.714931,0.1138 3.654172,1.05703 1.206802,1.11873 1.586979,2.99607 0.942652,4.50508 -0.344046,0.8521 -1.016122,1.55851 -1.80723,2.01343 -0.728603,0.3848 -1.562876,0.56246 -2.384212,0.47416 z m 0.987458,-2.92321 c 0.743878,-0.31475 1.001702,-1.36751 0.475452,-1.98417 -0.243953,-0.34493 -0.655564,-0.52725 -1.073712,-0.50875 -0.804801,-0.0345 -1.457057,0.85093 -1.237665,1.61675 0.134218,0.65676 0.822151,1.10452 1.475629,0.98507 0.124464,-0.0189 0.246346,-0.0553 0.360296,-0.1089 z" style="font-style:normal;font-weight:normal;font-size:40px;line-height:0px;font-family:sans-serif;letter-spacing:0px;word-spacing:0px;display:inline;opacity:1;fill:#999999;fill-opacity:1;stroke:none;stroke-width:0.248999;stroke-miterlimit:4;stroke-dasharray:none;stroke-opacity:1"></path><path style="font-style:normal;font-weight:normal;font-size:40px;line-height:0px;font-family:sans-serif;letter-spacing:0px;word-spacing:0px;display:inline;opacity:1;fill:#ff13ff;fill-opacity:1;stroke:none;stroke-width:0.248999;stroke-miterlimit:4;stroke-dasharray:none;stroke-opacity:1" d="m 42.712355,110.33986 c -0.995314,-0.10655 -1.951108,-0.57787 -2.608295,-1.33863 -0.984402,-1.055 -1.28255,-2.65603 -0.838342,-4.0154 0.456848,-1.34617 1.642023,-2.41737 3.041255,-2.69567 1.29458,-0.26685 2.71493,0.1138 3.654171,1.05703 1.206803,1.11873 1.586979,2.99607 0.942652,4.50508 -0.344046,0.8521 -1.016121,1.55851 -1.807229,2.01342 -0.728603,0.38481 -1.562877,0.56247 -2.384212,0.47417 z m 0.987457,-2.92321 c 0.743878,-0.31475 1.001702,-1.36751 0.475453,-1.98417 -0.243954,-0.34493 -0.655565,-0.52725 -1.073713,-0.50875 -0.8048,-0.0345 -1.457057,0.85093 -1.237665,1.61675 0.134218,0.65676 0.822151,1.10452 1.475629,0.98507 0.124465,-0.0189 0.246346,-0.0553 0.360296,-0.1089 z" id="path3786-6-5-8-0" inkscape:connector-curvature="0"></path><path style="font-style:normal;font-weight:normal;font-size:40px;line-height:0px;font-family:sans-serif;letter-spacing:0px;word-spacing:0px;display:inline;opacity:1;fill:#fddf00;fill-opacity:1;stroke:none;stroke-width:0.248999;stroke-miterlimit:4;stroke-dasharray:none;stroke-opacity:1" d="m 59.954007,110.33986 c -0.995313,-0.10655 -1.951107,-0.57787 -2.608294,-1.33863 -0.984403,-1.055 -1.28255,-2.65603 -0.838343,-4.0154 0.456849,-1.34617 1.642023,-2.41737 3.041255,-2.69567 1.294581,-0.26685 2.714931,0.1138 3.654172,1.05703 1.206802,1.11873 1.586979,2.99607 0.942651,4.50508 -0.344045,0.8521 -1.016121,1.55851 -1.807229,2.01342 -0.728603,0.38481 -1.562876,0.56247 -2.384212,0.47417 z m 0.987458,-2.92321 c 0.743878,-0.31475 1.001702,-1.36751 0.475452,-1.98417 -0.243953,-0.34493 -0.655564,-0.52725 -1.073712,-0.50875 -0.804801,-0.0345 -1.457057,0.85093 -1.237665,1.61675 0.134218,0.65676 0.822151,1.10452 1.475629,0.98507 0.124464,-0.0189 0.246345,-0.0553 0.360296,-0.1089 z" id="path3788-2-6-4-6" inkscape:connector-curvature="0"></path><path inkscape:connector-curvature="0" id="path3790-9-2-5-3" d="m 55.645274,102.90235 c -0.995314,-0.10655 -1.951107,-0.57787 -2.608295,-1.33863 -0.984402,-1.055 -1.282549,-2.656043 -0.838342,-4.015413 0.456848,-1.34616 1.642023,-2.41737 3.041255,-2.69566 1.294581,-0.26685 2.71493,0.1138 3.654172,1.05702 1.206802,1.11874 1.586979,2.99607 0.942651,4.505093 -0.344045,0.8521 -1.016121,1.55851 -1.807229,2.01343 -0.728603,0.3848 -1.562876,0.56246 -2.384212,0.47416 z m 0.987457,-2.923213 c 0.743878,-0.31475 1.001702,-1.36751 0.475453,-1.98418 -0.243953,-0.34492 -0.655564,-0.52724 -1.073713,-0.50874 -0.8048,-0.0345 -1.457056,0.85092 -1.237665,1.61675 0.134219,0.65676 0.822152,1.104523 1.47563,0.985073 0.124464,-0.0189 0.246345,-0.0553 0.360295,-0.108903 z" style="font-style:normal;font-weight:normal;font-size:40px;line-height:0px;font-family:sans-serif;letter-spacing:0px;word-spacing:0px;display:inline;opacity:1;fill:#fa8d04;fill-opacity:1;stroke:none;stroke-width:0.248999;stroke-miterlimit:4;stroke-dasharray:none;stroke-opacity:1"></path><path style="font-style:normal;font-weight:normal;font-size:40px;line-height:0px;font-family:sans-serif;letter-spacing:0px;word-spacing:0px;display:inline;opacity:1;fill:#ff0000;fill-opacity:1;stroke:none;stroke-width:0.248999;stroke-miterlimit:4;stroke-dasharray:none;stroke-opacity:1" d="m 47.045947,102.86224 c -0.995314,-0.10654 -1.951108,-0.57786 -2.608295,-1.33863 -0.984402,-1.055 -1.28255,-2.656033 -0.838342,-4.015403 0.456848,-1.34616 1.642023,-2.41737 3.041255,-2.69566 1.29458,-0.26685 2.71493,0.11379 3.654172,1.05702 1.206802,1.11874 1.586979,2.99607 0.942651,4.505083 -0.344045,0.8521 -1.016121,1.55852 -1.807229,2.01343 -0.728603,0.38481 -1.562877,0.56247 -2.384212,0.47416 z m 0.987457,-2.923203 c 0.743878,-0.31475 1.001702,-1.36752 0.475453,-1.98418 -0.243954,-0.34492 -0.655565,-0.52724 -1.073713,-0.50875 -0.8048,-0.0345 -1.457057,0.85093 -1.237665,1.61676 0.134218,0.65675 0.822151,1.104523 1.475629,0.985073 0.124465,-0.0189 0.246346,-0.0553 0.360296,-0.108903 z" id="path3792-1-9-0-2" inkscape:connector-curvature="0"></path></g></svg> 