<?xml version="1.0" encoding="UTF-8"?>
<svg width="573.77mm" height="202.52mm" version="1.1" viewBox="0 0 573.77 202.52" xmlns="http://www.w3.org/2000/svg" xmlns:xlink="http://www.w3.org/1999/xlink">
 <defs>
  <clipPath id="clipPath22667">
   <rect x="-186.72" y="13.518" width="573.77" height="275.92" rx=".84981" fill="#999" stroke-width=".27334"/>
  </clipPath>
  <radialGradient id="radialGradient25291" cx="100.16" cy="151.48" r="286.88" gradientTransform="matrix(.99961 -.026348 .029413 .60114 -4.4167 26.356)" gradientUnits="userSpaceOnUse">
   <stop stop-color="#4a0" offset="0"/>
   <stop stop-color="#5e5e5e" offset="1"/>
  </radialGradient>
  <linearGradient id="linearGradient1326" x1="270.32" x2="274.15" y1="203.52" y2="99.524" gradientTransform="matrix(1 0 0 1.8109 0 -167.16)" gradientUnits="userSpaceOnUse">
   <stop stop-color="#4f8a28" offset="0"/>
   <stop stop-color="#808080" stop-opacity="0" offset="1"/>
  </linearGradient>
 </defs>
 <g transform="translate(186.72,-13.518)">
  <g opacity=".8">
   <g clip-path="url(#clipPath22667)">
    <path d="m-185.87 13.518h572.07c0.47079 0 0.84981 0.27818 0.84981 0.62373v201.27c0 0.34555-0.37902 0.62374-0.84981 0.62374h-572.07c-0.4708 0-0.84982-0.27819-0.84982-0.62374v-201.27c0-0.34555 0.37902-0.62373 0.84982-0.62373z" fill="url(#radialGradient25291)" opacity="1" stroke-width=".23417"/>
    <g fill="#fff">
     <path d="m386.55 36.76c-3.4638-0.37079-6.79-2.011-9.077-4.6585-3.4258-3.6714-4.4633-9.2431-2.9175-13.974 1.5898-4.6847 5.7143-8.4125 10.584-9.381 4.5052-0.92865 9.4481 0.39602 12.717 3.6785 4.1997 3.8932 5.5228 10.426 3.2805 15.678-1.1973 2.9653-3.5362 5.4237-6.2892 7.0068-2.5356 1.3391-5.4389 1.9574-8.2972 1.6501zm3.4364-10.173c2.5888-1.0953 3.486-4.759 1.6546-6.905-0.84897-1.2004-2.2814-1.8348-3.7366-1.7705-2.8007-0.12024-5.0706 2.9612-4.3071 5.6263 0.46707 2.2855 2.8611 3.8438 5.1352 3.4281 0.43313-0.06573 0.85729-0.19249 1.2538-0.37899z" opacity=".15"/>
     <path d="m-188.01 36.76c-3.4638-0.37079-6.79-2.011-9.077-4.6585-3.4258-3.6714-4.4633-9.2431-2.9175-13.974 1.5898-4.6847 5.7143-8.4125 10.584-9.381 4.5052-0.92865 9.4481 0.39602 12.717 3.6785 4.1997 3.8932 5.5228 10.426 3.2805 15.678-1.1973 2.9653-3.5362 5.4237-6.2892 7.0068-2.5356 1.3391-5.4389 1.9574-8.2972 1.6501zm3.4364-10.173c2.5888-1.0953 3.486-4.759 1.6546-6.905-0.84897-1.2004-2.2814-1.8348-3.7366-1.7705-2.8007-0.12024-5.0706 2.9612-4.3071 5.6263 0.46707 2.2855 2.8611 3.8438 5.1353 3.4281 0.43313-0.06573 0.85728-0.19249 1.2538-0.37899z" opacity=".15"/>
     <path d="m401.69 115.1c-3.4637-0.3708-6.79-2.011-9.077-4.6585-3.4258-3.6715-4.4633-9.2432-2.9175-13.974 1.5898-4.6847 5.7143-8.4126 10.584-9.3811 4.5052-0.92865 9.4481 0.39603 12.717 3.6785 4.1997 3.8933 5.5228 10.426 3.2805 15.678-1.1973 2.9654-3.5362 5.4237-6.2892 7.0069-2.5356 1.3391-5.4389 1.9574-8.2972 1.6501zm3.4364-10.173c2.5888-1.0954 3.486-4.759 1.6546-6.905-0.84897-1.2004-2.2814-1.8348-3.7366-1.7705-2.8008-0.12025-5.0706 2.9613-4.3071 5.6264 0.46707 2.2856 2.8611 3.8438 5.1352 3.4281 0.43313-0.0657 0.85728-0.19249 1.2538-0.37899z" opacity="1"/>
     <path d="m99.136 167.1c-3.4638-0.37078-6.79-2.011-9.077-4.6585-3.4258-3.6715-4.4633-9.2431-2.9175-13.974 1.5898-4.6847 5.7143-8.4126 10.584-9.3811 4.5052-0.92865 9.4481 0.39602 12.717 3.6785 4.1997 3.8932 5.5228 10.426 3.2805 15.678-1.1973 2.9654-3.5362 5.4237-6.2892 7.0068-2.5356 1.3391-5.4389 1.9574-8.2972 1.6501zm3.4364-10.173c2.5887-1.0953 3.486-4.759 1.6546-6.905-0.84897-1.2004-2.2814-1.8348-3.7366-1.7705-2.8007-0.12024-5.0706 2.9613-4.3071 5.6264 0.46707 2.2855 2.8611 3.8438 5.1353 3.4281 0.43313-0.0657 0.85728-0.19248 1.2538-0.37898z" opacity=".4"/>
     <path d="m84.379 141.18c-3.4637-0.3708-6.7899-2.011-9.077-4.6585-3.4258-3.6715-4.4633-9.2432-2.9175-13.974 1.5898-4.6847 5.7143-8.4126 10.584-9.3811 4.5052-0.92865 9.448 0.39603 12.717 3.6785 4.1997 3.8933 5.5227 10.426 3.2805 15.678-1.1973 2.9654-3.5361 5.4237-6.2892 7.0069-2.5356 1.3391-5.4389 1.9574-8.2971 1.6501zm3.4364-10.173c2.5887-1.0953 3.486-4.759 1.6546-6.905-0.84896-1.2004-2.2814-1.8348-3.7366-1.7705-2.8007-0.12024-5.0706 2.9613-4.3071 5.6264 0.46707 2.2856 2.8611 3.8438 5.1353 3.4281 0.43313-0.0657 0.85728-0.1925 1.2538-0.379z" opacity=".5"/>
     <path d="m114.45 141.18c-3.4638-0.3708-6.79-2.011-9.077-4.6585-3.4258-3.6715-4.4633-9.2432-2.9175-13.974 1.5899-4.6847 5.7144-8.4126 10.584-9.3811 4.5052-0.92865 9.4481 0.39603 12.717 3.6785 4.1997 3.8933 5.5228 10.426 3.2805 15.678-1.1973 2.9654-3.5362 5.4237-6.2892 7.0069-2.5356 1.3391-5.4389 1.9574-8.2972 1.6501zm3.4364-10.173c2.5888-1.0953 3.486-4.759 1.6546-6.905-0.84897-1.2004-2.2814-1.8348-3.7366-1.7705-2.8008-0.12024-5.0706 2.9613-4.3072 5.6264 0.46708 2.2856 2.8611 3.8438 5.1353 3.4281 0.43313-0.0657 0.85728-0.1925 1.2538-0.379z" opacity=".5"/>
     <path d="m68.842 167.1c-3.4637-0.37078-6.7899-2.011-9.077-4.6585-3.4258-3.6715-4.4633-9.2431-2.9175-13.974 1.5898-4.6847 5.7143-8.4126 10.584-9.3811 4.5052-0.92865 9.4481 0.39602 12.717 3.6785 4.1997 3.8932 5.5228 10.426 3.2805 15.678-1.1973 2.9654-3.5362 5.4237-6.2892 7.0068-2.5356 1.3391-5.4389 1.9574-8.2972 1.6501zm3.4364-10.173c2.5887-1.0953 3.486-4.759 1.6546-6.905-0.84897-1.2004-2.2814-1.8348-3.7366-1.7705-2.8007-0.12024-5.0706 2.9613-4.3071 5.6264 0.46707 2.2855 2.8611 3.8438 5.1353 3.4281 0.43313-0.0657 0.85728-0.19248 1.2538-0.37898z" opacity=".5"/>
     <path d="m129.2 167.1c-3.4637-0.37078-6.79-2.011-9.077-4.6585-3.4258-3.6715-4.4633-9.2431-2.9175-13.974 1.5899-4.6847 5.7143-8.4126 10.584-9.3811 4.5052-0.92865 9.4481 0.39602 12.717 3.6785 4.1997 3.8932 5.5228 10.426 3.2805 15.678-1.1973 2.9654-3.5362 5.4237-6.2892 7.0068-2.5356 1.3391-5.4389 1.9574-8.2972 1.6501zm3.4364-10.173c2.5887-1.0953 3.486-4.759 1.6546-6.905-0.84897-1.2004-2.2814-1.8348-3.7366-1.7705-2.8007-0.12024-5.0706 2.9613-4.3071 5.6264 0.46708 2.2855 2.8611 3.8438 5.1353 3.4281 0.43313-0.0657 0.85727-0.19248 1.2538-0.37898z" opacity=".5"/>
     <path d="m83.599 193.58c-3.4637-0.3708-6.7899-2.011-9.077-4.6585-3.4258-3.6715-4.4633-9.2432-2.9175-13.974 1.5898-4.6847 5.7143-8.4126 10.584-9.3811 4.5052-0.92866 9.4481 0.39602 12.717 3.6785 4.1997 3.8933 5.5227 10.426 3.2805 15.678-1.1973 2.9654-3.5361 5.4238-6.2892 7.0069-2.5356 1.3391-5.4389 1.9574-8.2972 1.6501zm3.4364-10.173c2.5887-1.0953 3.486-4.759 1.6546-6.905-0.84897-1.2004-2.2814-1.8348-3.7366-1.7705-2.8007-0.12025-5.0706 2.9612-4.3071 5.6264 0.46708 2.2856 2.8611 3.8438 5.1353 3.4281 0.43313-0.0657 0.85728-0.19249 1.2538-0.379z" opacity=".5"/>
     <path d="m113.67 193.58c-3.4637-0.3708-6.7899-2.011-9.077-4.6585-3.4258-3.6715-4.4633-9.2432-2.9175-13.974 1.5899-4.6847 5.7143-8.4126 10.584-9.3811 4.5052-0.92866 9.4481 0.39602 12.717 3.6785 4.1997 3.8933 5.5228 10.426 3.2805 15.678-1.1973 2.9654-3.5362 5.4238-6.2892 7.0069-2.5356 1.3391-5.4389 1.9574-8.2972 1.6501zm3.4364-10.173c2.5887-1.0953 3.486-4.759 1.6546-6.905-0.84897-1.2004-2.2814-1.8348-3.7366-1.7705-2.8008-0.12025-5.0706 2.9612-4.3071 5.6264 0.46707 2.2856 2.8611 3.8438 5.1353 3.4281 0.43313-0.0657 0.85727-0.19249 1.2538-0.379z" opacity=".5"/>
     <g opacity=".55">
      <path d="m68.842 115.1c-3.4637-0.3708-6.7899-2.011-9.077-4.6585-3.4258-3.6715-4.4633-9.2432-2.9175-13.974 1.5898-4.6847 5.7143-8.4126 10.584-9.3811 4.5052-0.92865 9.4481 0.39603 12.717 3.6785 4.1997 3.8933 5.5228 10.426 3.2805 15.678-1.1973 2.9654-3.5362 5.4237-6.2892 7.0069-2.5356 1.3391-5.4389 1.9574-8.2972 1.6501zm3.4364-10.173c2.5887-1.0954 3.486-4.759 1.6546-6.905-0.84897-1.2004-2.2814-1.8348-3.7366-1.7705-2.8007-0.12025-5.0706 2.9613-4.3071 5.6264 0.46707 2.2856 2.8611 3.8438 5.1353 3.4281 0.43313-0.0657 0.85728-0.19249 1.2538-0.37899z" opacity="1"/>
      <path d="m99.136 115.1c-3.4638-0.3708-6.79-2.011-9.077-4.6585-3.4258-3.6715-4.4633-9.2432-2.9175-13.974 1.5898-4.6847 5.7143-8.4126 10.584-9.3811 4.5052-0.92865 9.4481 0.39603 12.717 3.6785 4.1997 3.8933 5.5228 10.426 3.2805 15.678-1.1973 2.9654-3.5362 5.4237-6.2892 7.0069-2.5356 1.3391-5.4389 1.9574-8.2972 1.6501zm3.4364-10.173c2.5887-1.0954 3.486-4.759 1.6546-6.905-0.84897-1.2004-2.2814-1.8348-3.7366-1.7705-2.8007-0.12025-5.0706 2.9613-4.3071 5.6264 0.46707 2.2856 2.8611 3.8438 5.1353 3.4281 0.43313-0.0657 0.85728-0.19249 1.2538-0.37899z" opacity="1"/>
      <path d="m129.2 115.1c-3.4637-0.3708-6.79-2.011-9.077-4.6585-3.4258-3.6715-4.4633-9.2432-2.9175-13.974 1.5899-4.6847 5.7143-8.4126 10.584-9.3811 4.5052-0.92865 9.4481 0.39603 12.717 3.6785 4.1997 3.8933 5.5228 10.426 3.2805 15.678-1.1973 2.9654-3.5362 5.4237-6.2892 7.0069-2.5356 1.3391-5.4389 1.9574-8.2972 1.6501zm3.4364-10.173c2.5887-1.0954 3.486-4.759 1.6546-6.905-0.84897-1.2004-2.2814-1.8348-3.7366-1.7705-2.8007-0.12025-5.0706 2.9613-4.3071 5.6264 0.46708 2.2856 2.8611 3.8438 5.1353 3.4281 0.43313-0.0657 0.85727-0.19249 1.2538-0.37899z" opacity="1"/>
      <path d="m54.086 141.18c-3.4637-0.3708-6.7899-2.011-9.077-4.6585-3.4258-3.6715-4.4633-9.2432-2.9175-13.974 1.5898-4.6847 5.7143-8.4126 10.584-9.3811 4.5052-0.92865 9.4481 0.39603 12.717 3.6785 4.1997 3.8933 5.5228 10.426 3.2805 15.678-1.1973 2.9654-3.5362 5.4237-6.2892 7.0069-2.5356 1.3391-5.4389 1.9574-8.2972 1.6501zm3.4364-10.173c2.5887-1.0953 3.486-4.759 1.6546-6.905-0.84897-1.2004-2.2814-1.8348-3.7366-1.7705-2.8007-0.12024-5.0706 2.9613-4.3071 5.6264 0.46708 2.2856 2.8611 3.8438 5.1353 3.4281 0.43313-0.0657 0.85728-0.1925 1.2538-0.379z" opacity="1"/>
      <path d="m144.74 141.18c-3.4638-0.3708-6.79-2.011-9.077-4.6585-3.4258-3.6715-4.4633-9.2432-2.9175-13.974 1.5898-4.6847 5.7143-8.4126 10.584-9.3811 4.5052-0.92865 9.4481 0.39603 12.717 3.6785 4.1997 3.8933 5.5228 10.426 3.2805 15.678-1.1973 2.9654-3.5362 5.4237-6.2892 7.0069-2.5356 1.3391-5.4389 1.9574-8.2972 1.6501zm3.4364-10.173c2.5887-1.0953 3.486-4.759 1.6546-6.905-0.84897-1.2004-2.2814-1.8348-3.7366-1.7705-2.8008-0.12024-5.0706 2.9613-4.3071 5.6264 0.46708 2.2856 2.8611 3.8438 5.1353 3.4281 0.43313-0.0657 0.85728-0.1925 1.2538-0.379z" opacity="1"/>
      <path d="m38.549 167.1c-3.4637-0.37078-6.7899-2.011-9.077-4.6585-3.4258-3.6715-4.4633-9.2431-2.9175-13.974 1.5898-4.6847 5.7143-8.4126 10.584-9.3811 4.5052-0.92865 9.4481 0.39602 12.717 3.6785 4.1997 3.8932 5.5228 10.426 3.2805 15.678-1.1973 2.9654-3.5362 5.4237-6.2892 7.0068-2.5356 1.3391-5.4389 1.9574-8.2972 1.6501zm3.4364-10.173c2.5887-1.0953 3.486-4.759 1.6546-6.905-0.84897-1.2004-2.2814-1.8348-3.7366-1.7705-2.8007-0.12024-5.0706 2.9613-4.3071 5.6264 0.46707 2.2855 2.8611 3.8438 5.1353 3.4281 0.43313-0.0657 0.85728-0.19248 1.2538-0.37898z" opacity="1"/>
      <path d="m159.5 167.1c-3.4637-0.37078-6.7899-2.011-9.077-4.6585-3.4258-3.6715-4.4633-9.2431-2.9175-13.974 1.5898-4.6847 5.7143-8.4126 10.584-9.3811 4.5052-0.92865 9.4481 0.39602 12.717 3.6785 4.1997 3.8932 5.5228 10.426 3.2805 15.678-1.1973 2.9654-3.5362 5.4237-6.2892 7.0068-2.5356 1.3391-5.4389 1.9574-8.2972 1.6501zm3.4364-10.173c2.5888-1.0953 3.486-4.759 1.6546-6.905-0.84897-1.2004-2.2814-1.8348-3.7366-1.7705-2.8008-0.12024-5.0706 2.9613-4.3071 5.6264 0.46707 2.2855 2.8611 3.8438 5.1352 3.4281 0.43313-0.0657 0.85728-0.19248 1.2538-0.37898z" opacity="1"/>
      <path d="m53.305 193.58c-3.4637-0.3708-6.7899-2.011-9.077-4.6585-3.4258-3.6715-4.4633-9.2432-2.9175-13.974 1.5898-4.6847 5.7143-8.4126 10.584-9.3811 4.5052-0.92866 9.4481 0.39602 12.717 3.6785 4.1997 3.8933 5.5228 10.426 3.2805 15.678-1.1973 2.9654-3.5362 5.4238-6.2892 7.0069-2.5356 1.3391-5.4389 1.9574-8.2972 1.6501zm3.4364-10.173c2.5887-1.0953 3.486-4.759 1.6546-6.905-0.84897-1.2004-2.2814-1.8348-3.7366-1.7705-2.8007-0.12025-5.0706 2.9612-4.3071 5.6264 0.46707 2.2856 2.8611 3.8438 5.1353 3.4281 0.43313-0.0657 0.85728-0.19249 1.2538-0.379z" opacity="1"/>
      <path d="m143.96 193.58c-3.4638-0.3708-6.79-2.011-9.077-4.6585-3.4258-3.6715-4.4633-9.2432-2.9175-13.974 1.5898-4.6847 5.7143-8.4126 10.584-9.3811 4.5052-0.92866 9.4481 0.39602 12.717 3.6785 4.1997 3.8933 5.5228 10.426 3.2805 15.678-1.1973 2.9654-3.5362 5.4238-6.2892 7.0069-2.5356 1.3391-5.4389 1.9574-8.2972 1.6501zm3.4364-10.173c2.5888-1.0953 3.486-4.759 1.6546-6.905-0.84897-1.2004-2.2814-1.8348-3.7366-1.7705-2.8007-0.12025-5.0706 2.9612-4.3071 5.6264 0.46708 2.2856 2.8611 3.8438 5.1353 3.4281 0.43313-0.0657 0.85729-0.19249 1.2538-0.379z" opacity="1"/>
      <path d="m68.842 219.66c-3.4637-0.37078-6.7899-2.011-9.077-4.6585-3.4258-3.6715-4.4633-9.2432-2.9175-13.974 1.5898-4.6847 5.7143-8.4126 10.584-9.3811 4.5052-0.92865 9.448 0.39603 12.717 3.6785 4.1997 3.8932 5.5227 10.426 3.2805 15.678-1.1973 2.9654-3.5361 5.4238-6.2892 7.0069-2.5356 1.3392-5.4389 1.9574-8.2971 1.6501zm3.4364-10.173c2.5887-1.0953 3.486-4.759 1.6546-6.905-0.84896-1.2004-2.2814-1.8348-3.7366-1.7705-2.8007-0.12023-5.0706 2.9613-4.3071 5.6264 0.46707 2.2856 2.8611 3.8438 5.1353 3.4281 0.43313-0.0657 0.85728-0.19249 1.2538-0.37901z" opacity="1"/>
      <path d="m98.911 219.66c-3.4637-0.37078-6.7899-2.011-9.077-4.6585-3.4258-3.6715-4.4633-9.2432-2.9175-13.974 1.5899-4.6847 5.7143-8.4126 10.584-9.3811 4.5052-0.92865 9.4481 0.39603 12.717 3.6785 4.1997 3.8932 5.5228 10.426 3.2805 15.678-1.1973 2.9654-3.5362 5.4238-6.2892 7.0069-2.5356 1.3392-5.4389 1.9574-8.2972 1.6501zm3.4364-10.173c2.5887-1.0953 3.486-4.759 1.6546-6.905-0.84897-1.2004-2.2814-1.8348-3.7366-1.7705-2.8007-0.12023-5.0706 2.9613-4.3071 5.6264 0.46707 2.2856 2.8611 3.8438 5.1353 3.4281 0.43312-0.0657 0.85727-0.19249 1.2538-0.37901z" opacity="1"/>
      <path d="m129.2 219.66c-3.4637-0.37078-6.79-2.011-9.077-4.6585-3.4258-3.6715-4.4633-9.2432-2.9175-13.974 1.5898-4.6847 5.7143-8.4126 10.584-9.3811 4.5052-0.92865 9.4481 0.39603 12.717 3.6785 4.1997 3.8932 5.5228 10.426 3.2805 15.678-1.1973 2.9654-3.5362 5.4238-6.2892 7.0069-2.5356 1.3392-5.4389 1.9574-8.2972 1.6501zm3.4364-10.173c2.5887-1.0953 3.486-4.759 1.6546-6.905-0.84896-1.2004-2.2814-1.8348-3.7366-1.7705-2.8007-0.12023-5.0706 2.9613-4.3071 5.6264 0.46708 2.2856 2.8611 3.8438 5.1353 3.4281 0.43313-0.0657 0.85727-0.19249 1.2538-0.37901z" opacity="1"/>
     </g>
     <path d="m53.696 88.76c-3.4637-0.37079-6.7899-2.011-9.077-4.6585-3.4258-3.6715-4.4633-9.2431-2.9175-13.974 1.5899-4.6847 5.7143-8.4125 10.584-9.381 4.5052-0.92865 9.4481 0.39602 12.717 3.6785 4.1997 3.8932 5.5228 10.426 3.2805 15.678-1.1973 2.9653-3.5362 5.4237-6.2892 7.0068-2.5356 1.3391-5.4389 1.9574-8.2972 1.6501zm3.4364-10.173c2.5887-1.0953 3.486-4.759 1.6546-6.905-0.84897-1.2004-2.2814-1.8348-3.7366-1.7705-2.8007-0.12024-5.0706 2.9612-4.3071 5.6263 0.46708 2.2855 2.8611 3.8438 5.1353 3.4281 0.43313-0.06573 0.85728-0.19249 1.2538-0.37899z" opacity=".45"/>
     <path d="m83.989 88.76c-3.4637-0.37079-6.7899-2.011-9.077-4.6585-3.4258-3.6715-4.4633-9.2431-2.9175-13.974 1.5898-4.6847 5.7143-8.4125 10.584-9.381 4.5052-0.92865 9.448 0.39602 12.717 3.6785 4.1997 3.8932 5.5227 10.426 3.2805 15.678-1.1973 2.9653-3.5362 5.4237-6.2892 7.0068-2.5356 1.3391-5.4389 1.9574-8.2971 1.6501zm3.4364-10.173c2.5887-1.0953 3.486-4.759 1.6546-6.905-0.84896-1.2004-2.2814-1.8348-3.7366-1.7705-2.8007-0.12024-5.0706 2.9612-4.3071 5.6263 0.46707 2.2855 2.8611 3.8438 5.1353 3.4281 0.43313-0.06573 0.85728-0.19249 1.2538-0.37899z" opacity=".45"/>
     <path d="m114.06 88.76c-3.4637-0.37079-6.7899-2.011-9.077-4.6585-3.4258-3.6715-4.4634-9.2431-2.9175-13.974 1.5899-4.6847 5.7143-8.4125 10.584-9.381 4.5052-0.92865 9.4481 0.39602 12.717 3.6785 4.1997 3.8932 5.5228 10.426 3.2805 15.678-1.1973 2.9653-3.5362 5.4237-6.2892 7.0068-2.5356 1.3391-5.4389 1.9574-8.2972 1.6501zm3.4364-10.173c2.5888-1.0953 3.486-4.759 1.6546-6.905-0.84897-1.2004-2.2814-1.8348-3.7366-1.7705-2.8007-0.12024-5.0706 2.9612-4.3071 5.6263 0.46708 2.2855 2.8611 3.8438 5.1353 3.4281 0.43313-0.06573 0.85728-0.19249 1.2538-0.37899z" opacity=".45"/>
     <path d="m144.35 88.76c-3.4638-0.37079-6.7899-2.011-9.077-4.6585-3.4258-3.6715-4.4633-9.2431-2.9175-13.974 1.5898-4.6847 5.7143-8.4125 10.584-9.381 4.5052-0.92865 9.4481 0.39602 12.717 3.6785 4.1997 3.8932 5.5228 10.426 3.2805 15.678-1.1973 2.9653-3.5362 5.4237-6.2892 7.0068-2.5356 1.3391-5.4389 1.9574-8.2972 1.6501zm3.4364-10.173c2.5888-1.0953 3.486-4.759 1.6546-6.905-0.84897-1.2004-2.2814-1.8348-3.7366-1.7705-2.8007-0.12024-5.0706 2.9612-4.3071 5.6263 0.46707 2.2855 2.8611 3.8438 5.1352 3.4281 0.43313-0.06573 0.85729-0.19249 1.2538-0.37899z" opacity=".45"/>
     <path d="m38.549 115.1c-3.4637-0.3708-6.7899-2.011-9.077-4.6585-3.4258-3.6715-4.4633-9.2432-2.9175-13.974 1.5898-4.6847 5.7143-8.4126 10.584-9.3811 4.5052-0.92865 9.4481 0.39603 12.717 3.6785 4.1997 3.8933 5.5228 10.426 3.2805 15.678-1.1973 2.9654-3.5362 5.4237-6.2892 7.0069-2.5356 1.3391-5.4389 1.9574-8.2972 1.6501zm3.4364-10.173c2.5887-1.0954 3.486-4.759 1.6546-6.905-0.84897-1.2004-2.2814-1.8348-3.7366-1.7705-2.8007-0.12025-5.0706 2.9613-4.3071 5.6264 0.46707 2.2856 2.8611 3.8438 5.1353 3.4281 0.43313-0.0657 0.85728-0.19249 1.2538-0.37899z" opacity=".45"/>
     <path d="m159.5 115.1c-3.4637-0.3708-6.7899-2.011-9.077-4.6585-3.4258-3.6715-4.4633-9.2432-2.9175-13.974 1.5898-4.6847 5.7143-8.4126 10.584-9.3811 4.5052-0.92865 9.4481 0.39603 12.717 3.6785 4.1997 3.8933 5.5228 10.426 3.2805 15.678-1.1973 2.9654-3.5362 5.4237-6.2892 7.0069-2.5356 1.3391-5.4389 1.9574-8.2972 1.6501zm3.4364-10.173c2.5888-1.0954 3.486-4.759 1.6546-6.905-0.84897-1.2004-2.2814-1.8348-3.7366-1.7705-2.8008-0.12025-5.0706 2.9613-4.3071 5.6264 0.46707 2.2856 2.8611 3.8438 5.1352 3.4281 0.43313-0.0657 0.85728-0.19249 1.2538-0.37899z" opacity=".45"/>
     <path d="m23.793 141.18c-3.4637-0.3708-6.7899-2.011-9.077-4.6585-3.4258-3.6715-4.4633-9.2432-2.9175-13.974 1.5898-4.6847 5.7143-8.4126 10.584-9.3811 4.5052-0.92865 9.4481 0.39603 12.717 3.6785 4.1997 3.8933 5.5228 10.426 3.2805 15.678-1.1973 2.9654-3.5362 5.4237-6.2892 7.0069-2.5356 1.3391-5.4389 1.9574-8.2972 1.6501zm3.4364-10.173c2.5887-1.0953 3.486-4.759 1.6546-6.905-0.84897-1.2004-2.2814-1.8348-3.7366-1.7705-2.8008-0.12024-5.0706 2.9613-4.3071 5.6264 0.46707 2.2856 2.8611 3.8438 5.1353 3.4281 0.43313-0.0657 0.85728-0.1925 1.2538-0.379z" opacity=".45"/>
     <path d="m175.03 141.18c-3.4637-0.3708-6.7899-2.011-9.077-4.6585-3.4258-3.6715-4.4633-9.2432-2.9175-13.974 1.5898-4.6847 5.7143-8.4126 10.584-9.3811 4.5052-0.92865 9.448 0.39603 12.717 3.6785 4.1997 3.8933 5.5227 10.426 3.2805 15.678-1.1973 2.9654-3.5362 5.4237-6.2892 7.0069-2.5356 1.3391-5.4388 1.9574-8.2971 1.6501zm3.4364-10.173c2.5887-1.0953 3.486-4.759 1.6546-6.905-0.84896-1.2004-2.2814-1.8348-3.7365-1.7705-2.8008-0.12024-5.0706 2.9613-4.3071 5.6264 0.46708 2.2856 2.8611 3.8438 5.1353 3.4281 0.43312-0.0657 0.85727-0.1925 1.2538-0.379z" opacity=".45"/>
     <path d="m8.6668 167.1c-3.4637-0.37078-6.7899-2.011-9.077-4.6585-3.4258-3.6715-4.4633-9.2431-2.9175-13.974 1.5898-4.6847 5.7143-8.4126 10.584-9.3811 4.5052-0.92865 9.448 0.39602 12.717 3.6785 4.1997 3.8932 5.5227 10.426 3.2805 15.678-1.1973 2.9654-3.5361 5.4237-6.2892 7.0068-2.5356 1.3391-5.4389 1.9574-8.2971 1.6501zm3.4364-10.173c2.5887-1.0953 3.486-4.759 1.6546-6.905-0.84897-1.2004-2.2814-1.8348-3.7366-1.7705-2.8007-0.12024-5.0706 2.9613-4.3071 5.6264 0.46707 2.2855 2.8611 3.8438 5.1353 3.4281 0.43313-0.0657 0.85728-0.19248 1.2538-0.37898z" opacity=".45"/>
     <path d="m189.79 167.1c-3.4638-0.37078-6.79-2.011-9.077-4.6585-3.4258-3.6715-4.4633-9.2431-2.9175-13.974 1.5898-4.6847 5.7143-8.4126 10.584-9.3811 4.5052-0.92865 9.448 0.39602 12.717 3.6785 4.1997 3.8932 5.5228 10.426 3.2805 15.678-1.1973 2.9654-3.5362 5.4237-6.2892 7.0068-2.5356 1.3391-5.4389 1.9574-8.2971 1.6501zm3.4364-10.173c2.5887-1.0953 3.486-4.759 1.6546-6.905-0.84897-1.2004-2.2814-1.8348-3.7366-1.7705-2.8007-0.12024-5.0706 2.9613-4.3071 5.6264 0.46707 2.2855 2.8611 3.8438 5.1352 3.4281 0.43312-0.0657 0.85727-0.19248 1.2538-0.37898z" opacity=".45"/>
     <path d="m23.012 193.58c-3.4637-0.3708-6.7899-2.011-9.077-4.6585-3.4258-3.6715-4.4633-9.2432-2.9175-13.974 1.5898-4.6847 5.7143-8.4126 10.584-9.3811 4.5052-0.92866 9.4481 0.39602 12.717 3.6785 4.1997 3.8933 5.5228 10.426 3.2805 15.678-1.1973 2.9654-3.5362 5.4238-6.2892 7.0069-2.5356 1.3391-5.4389 1.9574-8.2972 1.6501zm3.4364-10.173c2.5887-1.0953 3.486-4.759 1.6546-6.905-0.84897-1.2004-2.2814-1.8348-3.7366-1.7705-2.8007-0.12025-5.0706 2.9612-4.3071 5.6264 0.46707 2.2856 2.8611 3.8438 5.1353 3.4281 0.43313-0.0657 0.85728-0.19249 1.2538-0.379z" opacity=".45"/>
     <path d="m174.25 193.58c-3.4638-0.3708-6.79-2.011-9.077-4.6585-3.4258-3.6715-4.4633-9.2432-2.9175-13.974 1.5898-4.6847 5.7143-8.4126 10.584-9.3811 4.5052-0.92866 9.448 0.39602 12.717 3.6785 4.1997 3.8933 5.5227 10.426 3.2805 15.678-1.1973 2.9654-3.5361 5.4238-6.2892 7.0069-2.5356 1.3391-5.4388 1.9574-8.2971 1.6501zm3.4364-10.173c2.5887-1.0953 3.486-4.759 1.6546-6.905-0.84897-1.2004-2.2814-1.8348-3.7366-1.7705-2.8008-0.12025-5.0706 2.9612-4.3071 5.6264 0.46708 2.2856 2.8611 3.8438 5.1353 3.4281 0.43312-0.0657 0.85727-0.19249 1.2538-0.379z" opacity=".45"/>
     <path d="m38.549 219.66c-3.4637-0.37078-6.7899-2.011-9.077-4.6585-3.4258-3.6715-4.4633-9.2432-2.9175-13.974 1.5898-4.6847 5.7143-8.4126 10.584-9.3811 4.5052-0.92865 9.4481 0.39603 12.717 3.6785 4.1997 3.8932 5.5228 10.426 3.2805 15.678-1.1973 2.9654-3.5362 5.4238-6.2892 7.0069-2.5356 1.3392-5.4389 1.9574-8.2972 1.6501zm3.4364-10.173c2.5887-1.0953 3.486-4.759 1.6546-6.905-0.84897-1.2004-2.2814-1.8348-3.7366-1.7705-2.8007-0.12023-5.0706 2.9613-4.3071 5.6264 0.46708 2.2856 2.8611 3.8438 5.1353 3.4281 0.43313-0.0657 0.85728-0.19249 1.2538-0.37901z" opacity=".45"/>
     <path d="m159.5 219.66c-3.4638-0.37078-6.79-2.011-9.077-4.6585-3.4258-3.6715-4.4633-9.2432-2.9175-13.974 1.5898-4.6847 5.7143-8.4126 10.584-9.3811 4.5052-0.92865 9.448 0.39603 12.717 3.6785 4.1997 3.8932 5.5227 10.426 3.2805 15.678-1.1973 2.9654-3.5362 5.4238-6.2892 7.0069-2.5356 1.3392-5.4389 1.9574-8.2971 1.6501zm3.4364-10.173c2.5888-1.0953 3.486-4.759 1.6546-6.905-0.84897-1.2004-2.2814-1.8348-3.7366-1.7705-2.8007-0.12023-5.0706 2.9613-4.3071 5.6264 0.46707 2.2856 2.8611 3.8438 5.1352 3.4281 0.43312-0.0657 0.85728-0.19249 1.2538-0.37901z" opacity=".45"/>
     <g opacity=".4">
      <path d="m38.939 62.836c-3.4637-0.37079-6.7899-2.011-9.077-4.6585-3.4258-3.6714-4.4633-9.2431-2.9175-13.974 1.5899-4.6847 5.7143-8.4125 10.584-9.381 4.5052-0.92865 9.4481 0.39602 12.717 3.6785 4.1997 3.8932 5.5228 10.426 3.2805 15.678-1.1973 2.9653-3.5362 5.4237-6.2892 7.0068-2.5356 1.3391-5.4389 1.9574-8.2972 1.6501zm3.4364-10.173c2.5887-1.0953 3.486-4.759 1.6546-6.905-0.84897-1.2004-2.2814-1.8348-3.7366-1.7705-2.8007-0.12024-5.0706 2.9612-4.3071 5.6263 0.46707 2.2855 2.8611 3.8438 5.1353 3.4281 0.43313-0.06573 0.85728-0.19249 1.2538-0.37899z" opacity="1"/>
      <path d="m69.233 62.836c-3.4637-0.37079-6.7899-2.011-9.077-4.6585-3.4258-3.6714-4.4633-9.2431-2.9175-13.974 1.5899-4.6847 5.7143-8.4125 10.584-9.381 4.5052-0.92865 9.448 0.39602 12.717 3.6785 4.1997 3.8932 5.5227 10.426 3.2805 15.678-1.1973 2.9653-3.5361 5.4237-6.2892 7.0068-2.5356 1.3391-5.4389 1.9574-8.2971 1.6501zm3.4364-10.173c2.5887-1.0953 3.486-4.759 1.6546-6.905-0.84897-1.2004-2.2814-1.8348-3.7366-1.7705-2.8007-0.12024-5.0706 2.9612-4.3071 5.6263 0.46707 2.2855 2.8611 3.8438 5.1353 3.4281 0.43313-0.06573 0.85728-0.19249 1.2538-0.37899z" opacity="1"/>
      <path d="m99.301 62.836c-3.4637-0.37079-6.7899-2.011-9.077-4.6585-3.4258-3.6714-4.4633-9.2431-2.9175-13.974 1.5899-4.6847 5.7143-8.4125 10.584-9.381 4.5052-0.92865 9.4481 0.39602 12.717 3.6785 4.1997 3.8932 5.5228 10.426 3.2805 15.678-1.1973 2.9653-3.5362 5.4237-6.2892 7.0068-2.5356 1.3391-5.4389 1.9574-8.2972 1.6501zm3.4364-10.173c2.5888-1.0953 3.486-4.759 1.6546-6.905-0.84897-1.2004-2.2814-1.8348-3.7366-1.7705-2.8008-0.12024-5.0706 2.9612-4.3071 5.6263 0.46707 2.2855 2.8611 3.8438 5.1353 3.4281 0.43313-0.06573 0.85728-0.19249 1.2538-0.37899z" opacity="1"/>
      <path d="m129.59 62.836c-3.4637-0.37079-6.79-2.011-9.077-4.6585-3.4258-3.6714-4.4633-9.2431-2.9175-13.974 1.5898-4.6847 5.7143-8.4125 10.584-9.381 4.5052-0.92865 9.4481 0.39602 12.717 3.6785 4.1997 3.8932 5.5228 10.426 3.2805 15.678-1.1973 2.9653-3.5362 5.4237-6.2892 7.0068-2.5356 1.3391-5.4389 1.9574-8.2972 1.6501zm3.4364-10.173c2.5887-1.0953 3.486-4.759 1.6546-6.905-0.84897-1.2004-2.2814-1.8348-3.7366-1.7705-2.8007-0.12024-5.0706 2.9612-4.3071 5.6263 0.46707 2.2855 2.8611 3.8438 5.1352 3.4281 0.43313-0.06573 0.85728-0.19249 1.2538-0.37899z" opacity="1"/>
      <path d="m159.89 62.836c-3.4637-0.37079-6.7899-2.011-9.077-4.6585-3.4258-3.6714-4.4633-9.2431-2.9175-13.974 1.5898-4.6847 5.7143-8.4125 10.584-9.381 4.5052-0.92865 9.448 0.39602 12.717 3.6785 4.1997 3.8932 5.5227 10.426 3.2805 15.678-1.1973 2.9653-3.5362 5.4237-6.2892 7.0068-2.5356 1.3391-5.4389 1.9574-8.2971 1.6501zm3.4364-10.173c2.5887-1.0953 3.4859-4.759 1.6546-6.905-0.84896-1.2004-2.2814-1.8348-3.7366-1.7705-2.8008-0.12024-5.0706 2.9612-4.3071 5.6263 0.46708 2.2855 2.8611 3.8438 5.1353 3.4281 0.43312-0.06573 0.85728-0.19249 1.2538-0.37899z" opacity="1"/>
      <path d="m23.403 88.76c-3.4637-0.37079-6.7899-2.011-9.077-4.6585-3.4258-3.6715-4.4633-9.2431-2.9175-13.974 1.5899-4.6847 5.7143-8.4125 10.584-9.381 4.5052-0.92865 9.4481 0.39602 12.717 3.6785 4.1997 3.8932 5.5228 10.426 3.2805 15.678-1.1973 2.9653-3.5362 5.4237-6.2892 7.0068-2.5356 1.3391-5.4389 1.9574-8.2972 1.6501zm3.4364-10.173c2.5887-1.0953 3.486-4.759 1.6546-6.905-0.84897-1.2004-2.2814-1.8348-3.7366-1.7705-2.8007-0.12024-5.0706 2.9612-4.3071 5.6263 0.46708 2.2855 2.8611 3.8438 5.1353 3.4281 0.43313-0.06573 0.85728-0.19249 1.2538-0.37899z" opacity="1"/>
      <path d="m174.64 88.76c-3.4638-0.37079-6.79-2.011-9.077-4.6585-3.4258-3.6715-4.4633-9.2431-2.9175-13.974 1.5898-4.6847 5.7143-8.4125 10.584-9.381 4.5052-0.92865 9.448 0.39602 12.717 3.6785 4.1997 3.8932 5.5228 10.426 3.2805 15.678-1.1973 2.9653-3.5361 5.4237-6.2892 7.0068-2.5356 1.3391-5.4388 1.9574-8.2971 1.6501zm3.4364-10.173c2.5887-1.0953 3.486-4.759 1.6546-6.905-0.84897-1.2004-2.2814-1.8348-3.7366-1.7705-2.8007-0.12024-5.0706 2.9612-4.3071 5.6263 0.46706 2.2855 2.8611 3.8438 5.1352 3.4281 0.43312-0.06573 0.85727-0.19249 1.2538-0.37899z" opacity="1"/>
      <path d="m8.6668 115.1c-3.4637-0.3708-6.7899-2.011-9.077-4.6585-3.4258-3.6715-4.4633-9.2432-2.9175-13.974 1.5898-4.6847 5.7143-8.4126 10.584-9.3811 4.5052-0.92865 9.448 0.39603 12.717 3.6785 4.1997 3.8933 5.5227 10.426 3.2805 15.678-1.1973 2.9654-3.5361 5.4237-6.2892 7.0069-2.5356 1.3391-5.4389 1.9574-8.2971 1.6501zm3.4364-10.173c2.5887-1.0954 3.486-4.759 1.6546-6.905-0.84897-1.2004-2.2814-1.8348-3.7366-1.7705-2.8007-0.12025-5.0706 2.9613-4.3071 5.6264 0.46707 2.2856 2.8611 3.8438 5.1353 3.4281 0.43313-0.0657 0.85728-0.19249 1.2538-0.37899z" opacity="1"/>
      <path d="m189.79 115.1c-3.4638-0.3708-6.79-2.011-9.077-4.6585-3.4258-3.6715-4.4633-9.2432-2.9175-13.974 1.5898-4.6847 5.7143-8.4126 10.584-9.3811 4.5052-0.92865 9.448 0.39603 12.717 3.6785 4.1997 3.8933 5.5228 10.426 3.2805 15.678-1.1973 2.9654-3.5362 5.4237-6.2892 7.0069-2.5356 1.3391-5.4389 1.9574-8.2971 1.6501zm3.4364-10.173c2.5887-1.0954 3.486-4.759 1.6546-6.905-0.84897-1.2004-2.2814-1.8348-3.7366-1.7705-2.8007-0.12025-5.0706 2.9613-4.3071 5.6264 0.46707 2.2856 2.8611 3.8438 5.1352 3.4281 0.43312-0.0657 0.85727-0.19249 1.2538-0.37899z" opacity="1"/>
      <path d="m-6.0897 141.18c-3.4637-0.3708-6.7899-2.011-9.077-4.6585-3.4258-3.6715-4.4633-9.2432-2.9175-13.974 1.5899-4.6847 5.7143-8.4126 10.584-9.3811 4.5052-0.92865 9.448 0.39603 12.717 3.6785 4.1997 3.8933 5.5227 10.426 3.2805 15.678-1.1973 2.9654-3.5361 5.4237-6.2892 7.0069-2.5356 1.3391-5.4388 1.9574-8.2971 1.6501zm3.4364-10.173c2.5887-1.0953 3.4859-4.759 1.6546-6.905-0.84897-1.2004-2.2814-1.8348-3.7366-1.7705-2.8007-0.12024-5.0706 2.9613-4.3071 5.6264 0.46707 2.2856 2.8611 3.8438 5.1353 3.4281 0.43313-0.0657 0.85728-0.1925 1.2538-0.379z" opacity="1"/>
      <path d="m205.81 141.18c-3.4638-0.3708-6.79-2.011-9.077-4.6585-3.4258-3.6715-4.4633-9.2432-2.9175-13.974 1.5898-4.6847 5.7143-8.4126 10.584-9.3811 4.5052-0.92865 9.4481 0.39603 12.717 3.6785 4.1997 3.8933 5.5228 10.426 3.2805 15.678-1.1973 2.9654-3.5362 5.4237-6.2892 7.0069-2.5356 1.3391-5.4389 1.9574-8.2972 1.6501zm3.4364-10.173c2.5887-1.0953 3.486-4.759 1.6546-6.905-0.84897-1.2004-2.2814-1.8348-3.7366-1.7705-2.8008-0.12024-5.0706 2.9613-4.3071 5.6264 0.46708 2.2856 2.8611 3.8438 5.1353 3.4281 0.43313-0.0657 0.85728-0.1925 1.2538-0.379z" opacity="1"/>
      <path d="m-21.626 167.1c-3.4637-0.37078-6.7899-2.011-9.077-4.6585-3.4258-3.6715-4.4633-9.2431-2.9175-13.974 1.5898-4.6847 5.7143-8.4126 10.584-9.3811 4.5052-0.92865 9.4481 0.39602 12.717 3.6785 4.1997 3.8932 5.5228 10.426 3.2805 15.678-1.1973 2.9654-3.5362 5.4237-6.2892 7.0068-2.5356 1.3391-5.4389 1.9574-8.2972 1.6501zm3.4364-10.173c2.5887-1.0953 3.486-4.759 1.6546-6.905-0.84897-1.2004-2.2814-1.8348-3.7366-1.7705-2.8007-0.12024-5.0706 2.9613-4.3071 5.6264 0.46707 2.2855 2.8611 3.8438 5.1353 3.4281 0.43313-0.0657 0.85728-0.19248 1.2538-0.37898z" opacity="1"/>
      <path d="m220.57 167.1c-3.4637-0.37078-6.7899-2.011-9.077-4.6585-3.4258-3.6715-4.4633-9.2431-2.9175-13.974 1.5898-4.6847 5.7143-8.4126 10.584-9.3811 4.5052-0.92865 9.4481 0.39602 12.717 3.6785 4.1997 3.8932 5.5228 10.426 3.2805 15.678-1.1973 2.9654-3.5362 5.4237-6.2892 7.0068-2.5356 1.3391-5.4389 1.9574-8.2972 1.6501zm3.4364-10.173c2.5888-1.0953 3.486-4.759 1.6546-6.905-0.84897-1.2004-2.2814-1.8348-3.7366-1.7705-2.8008-0.12024-5.0706 2.9613-4.3071 5.6264 0.46707 2.2855 2.8611 3.8438 5.1352 3.4281 0.43313-0.0657 0.85728-0.19248 1.2538-0.37898z" opacity="1"/>
      <path d="m-6.8701 193.58c-3.4637-0.3708-6.7899-2.011-9.077-4.6585-3.4258-3.6715-4.4633-9.2432-2.9175-13.974 1.5898-4.6847 5.7143-8.4126 10.584-9.3811 4.5052-0.92866 9.4481 0.39602 12.717 3.6785 4.1997 3.8933 5.5227 10.426 3.2805 15.678-1.1973 2.9654-3.5361 5.4238-6.2892 7.0069-2.5356 1.3391-5.4389 1.9574-8.2971 1.6501zm3.4364-10.173c2.5887-1.0953 3.486-4.759 1.6546-6.905-0.84897-1.2004-2.2814-1.8348-3.7366-1.7705-2.8007-0.12025-5.0706 2.9612-4.3071 5.6264 0.46707 2.2856 2.8611 3.8438 5.1353 3.4281 0.43313-0.0657 0.85728-0.19249 1.2538-0.379z" opacity="1"/>
      <path d="m205.03 193.58c-3.4638-0.3708-6.79-2.011-9.077-4.6585-3.4258-3.6715-4.4633-9.2432-2.9175-13.974 1.5898-4.6847 5.7143-8.4126 10.584-9.3811 4.5052-0.92866 9.4481 0.39602 12.717 3.6785 4.1997 3.8933 5.5228 10.426 3.2805 15.678-1.1973 2.9654-3.5362 5.4238-6.2892 7.0069-2.5356 1.3391-5.4389 1.9574-8.2972 1.6501zm3.4364-10.173c2.5888-1.0953 3.486-4.759 1.6546-6.905-0.84897-1.2004-2.2814-1.8348-3.7366-1.7705-2.8007-0.12025-5.0706 2.9612-4.3071 5.6264 0.46708 2.2856 2.8611 3.8438 5.1353 3.4281 0.43313-0.0657 0.85729-0.19249 1.2538-0.379z" opacity="1"/>
      <path d="m8.2557 219.66c-3.4637-0.37078-6.7899-2.011-9.077-4.6585-3.4258-3.6715-4.4633-9.2432-2.9175-13.974 1.5899-4.6847 5.7143-8.4126 10.584-9.3811 4.5052-0.92865 9.4481 0.39603 12.717 3.6785 4.1997 3.8932 5.5228 10.426 3.2805 15.678-1.1973 2.9654-3.5362 5.4238-6.2892 7.0069-2.5356 1.3392-5.4389 1.9574-8.2972 1.6501zm3.4364-10.173c2.5887-1.0953 3.486-4.759 1.6546-6.905-0.84897-1.2004-2.2814-1.8348-3.7366-1.7705-2.8007-0.12023-5.0706 2.9613-4.3071 5.6264 0.46707 2.2856 2.8611 3.8438 5.1353 3.4281 0.43313-0.0657 0.85728-0.19249 1.2538-0.37901z" opacity="1"/>
      <path d="m190.28 219.66c-3.4637-0.37078-6.7899-2.011-9.077-4.6585-3.4258-3.6715-4.4633-9.2432-2.9175-13.974 1.5898-4.6847 5.7143-8.4126 10.584-9.3811 4.5052-0.92865 9.4481 0.39603 12.717 3.6785 4.1997 3.8932 5.5228 10.426 3.2805 15.678-1.1973 2.9654-3.5362 5.4238-6.2892 7.0069-2.5356 1.3392-5.4389 1.9574-8.2972 1.6501zm3.4364-10.173c2.5888-1.0953 3.486-4.759 1.6546-6.905-0.84896-1.2004-2.2814-1.8348-3.7366-1.7705-2.8008-0.12023-5.0706 2.9613-4.3071 5.6264 0.46707 2.2856 2.8611 3.8438 5.1352 3.4281 0.43314-0.0657 0.85728-0.19249 1.2538-0.37901z" opacity="1"/>
     </g>
     <g opacity=".35">
      <path d="m23.403 36.76c-3.4637-0.37079-6.7899-2.011-9.077-4.6585-3.4258-3.6714-4.4633-9.2431-2.9175-13.974 1.5899-4.6847 5.7143-8.4125 10.584-9.381 4.5052-0.92865 9.4481 0.39602 12.717 3.6785 4.1997 3.8932 5.5228 10.426 3.2805 15.678-1.1973 2.9653-3.5362 5.4237-6.2892 7.0068-2.5356 1.3391-5.4389 1.9574-8.2972 1.6501zm3.4364-10.173c2.5887-1.0953 3.486-4.759 1.6546-6.905-0.84897-1.2004-2.2814-1.8348-3.7366-1.7705-2.8007-0.12024-5.0706 2.9612-4.3071 5.6263 0.46708 2.2855 2.8611 3.8438 5.1353 3.4281 0.43313-0.06573 0.85728-0.19249 1.2538-0.37899z" opacity="1"/>
      <path d="m53.696 36.76c-3.4637-0.37079-6.7899-2.011-9.077-4.6585-3.4258-3.6714-4.4633-9.2431-2.9175-13.974 1.5899-4.6847 5.7143-8.4125 10.584-9.381 4.5052-0.92865 9.4481 0.39602 12.717 3.6785 4.1997 3.8932 5.5228 10.426 3.2805 15.678-1.1973 2.9653-3.5362 5.4237-6.2892 7.0068-2.5356 1.3391-5.4389 1.9574-8.2972 1.6501zm3.4364-10.173c2.5887-1.0953 3.486-4.759 1.6546-6.905-0.84897-1.2004-2.2814-1.8348-3.7366-1.7705-2.8007-0.12024-5.0706 2.9612-4.3071 5.6263 0.46708 2.2855 2.8611 3.8438 5.1353 3.4281 0.43313-0.06573 0.85728-0.19249 1.2538-0.37899z" opacity="1"/>
      <path d="m83.989 36.76c-3.4637-0.37079-6.7899-2.011-9.077-4.6585-3.4258-3.6714-4.4633-9.2431-2.9175-13.974 1.5898-4.6847 5.7143-8.4125 10.584-9.381 4.5052-0.92865 9.448 0.39602 12.717 3.6785 4.1997 3.8932 5.5227 10.426 3.2805 15.678-1.1973 2.9653-3.5362 5.4237-6.2892 7.0068-2.5356 1.3391-5.4389 1.9574-8.2971 1.6501zm3.4364-10.173c2.5887-1.0953 3.486-4.759 1.6546-6.905-0.84896-1.2004-2.2814-1.8348-3.7366-1.7705-2.8007-0.12024-5.0706 2.9612-4.3071 5.6263 0.46707 2.2855 2.8611 3.8438 5.1353 3.4281 0.43313-0.06573 0.85728-0.19249 1.2538-0.37899z" opacity="1"/>
      <path d="m114.06 36.76c-3.4637-0.37079-6.7899-2.011-9.077-4.6585-3.4258-3.6714-4.4634-9.2431-2.9175-13.974 1.5899-4.6847 5.7143-8.4125 10.584-9.381 4.5052-0.92865 9.4481 0.39602 12.717 3.6785 4.1997 3.8932 5.5228 10.426 3.2805 15.678-1.1973 2.9653-3.5362 5.4237-6.2892 7.0068-2.5356 1.3391-5.4389 1.9574-8.2972 1.6501zm3.4364-10.173c2.5888-1.0953 3.486-4.759 1.6546-6.905-0.84897-1.2004-2.2814-1.8348-3.7366-1.7705-2.8007-0.12024-5.0706 2.9612-4.3071 5.6263 0.46708 2.2855 2.8611 3.8438 5.1353 3.4281 0.43313-0.06573 0.85728-0.19249 1.2538-0.37899z" opacity="1"/>
      <path d="m144.35 36.76c-3.4638-0.37079-6.7899-2.011-9.077-4.6585-3.4258-3.6714-4.4633-9.2431-2.9175-13.974 1.5898-4.6847 5.7143-8.4125 10.584-9.381 4.5052-0.92865 9.4481 0.39602 12.717 3.6785 4.1997 3.8932 5.5228 10.426 3.2805 15.678-1.1973 2.9653-3.5362 5.4237-6.2892 7.0068-2.5356 1.3391-5.4389 1.9574-8.2972 1.6501zm3.4364-10.173c2.5888-1.0953 3.486-4.759 1.6546-6.905-0.84897-1.2004-2.2814-1.8348-3.7366-1.7705-2.8007-0.12024-5.0706 2.9612-4.3071 5.6263 0.46707 2.2855 2.8611 3.8438 5.1352 3.4281 0.43313-0.06573 0.85729-0.19249 1.2538-0.37899z" opacity="1"/>
      <path d="m174.64 36.76c-3.4638-0.37079-6.79-2.011-9.077-4.6585-3.4258-3.6714-4.4633-9.2431-2.9175-13.974 1.5898-4.6847 5.7143-8.4125 10.584-9.381 4.5052-0.92865 9.448 0.39602 12.717 3.6785 4.1997 3.8932 5.5228 10.426 3.2805 15.678-1.1973 2.9653-3.5361 5.4237-6.2892 7.0068-2.5356 1.3391-5.4388 1.9574-8.2971 1.6501zm3.4364-10.173c2.5887-1.0953 3.486-4.759 1.6546-6.905-0.84897-1.2004-2.2814-1.8348-3.7366-1.7705-2.8007-0.12024-5.0706 2.9612-4.3071 5.6263 0.46706 2.2855 2.8611 3.8438 5.1352 3.4281 0.43312-0.06573 0.85727-0.19249 1.2538-0.37899z" opacity="1"/>
      <path d="m8.646 62.836c-3.4637-0.37079-6.7899-2.011-9.077-4.6585-3.4258-3.6714-4.4633-9.2431-2.9175-13.974 1.5898-4.6847 5.7143-8.4125 10.584-9.381 4.5052-0.92865 9.4481 0.39602 12.717 3.6785 4.1997 3.8932 5.5228 10.426 3.2805 15.678-1.1973 2.9653-3.5362 5.4237-6.2892 7.0068-2.5356 1.3391-5.4389 1.9574-8.2972 1.6501zm3.4364-10.173c2.5887-1.0953 3.486-4.759 1.6546-6.905-0.84897-1.2004-2.2814-1.8348-3.7366-1.7705-2.8007-0.12024-5.0706 2.9612-4.3071 5.6263 0.46708 2.2855 2.8611 3.8438 5.1353 3.4281 0.43313-0.06573 0.85728-0.19249 1.2538-0.37899z" opacity="1"/>
      <path d="m190.67 62.836c-3.4637-0.37079-6.79-2.011-9.077-4.6585-3.4258-3.6714-4.4633-9.2431-2.9175-13.974 1.5898-4.6847 5.7143-8.4125 10.584-9.381 4.5052-0.92865 9.4481 0.39602 12.717 3.6785 4.1997 3.8932 5.5228 10.426 3.2805 15.678-1.1973 2.9653-3.5362 5.4237-6.2892 7.0068-2.5356 1.3391-5.4389 1.9574-8.2972 1.6501zm3.4364-10.173c2.5887-1.0953 3.486-4.759 1.6546-6.905-0.84896-1.2004-2.2814-1.8348-3.7366-1.7705-2.8008-0.12024-5.0706 2.9612-4.3071 5.6263 0.46708 2.2855 2.8611 3.8438 5.1353 3.4281 0.43313-0.06573 0.85728-0.19249 1.2538-0.37899z" opacity="1"/>
      <path d="m-6.4797 88.76c-3.4637-0.37079-6.7899-2.011-9.077-4.6585-3.4258-3.6715-4.4633-9.2431-2.9175-13.974 1.5898-4.6847 5.7143-8.4125 10.584-9.381 4.5052-0.92865 9.448 0.39602 12.717 3.6785 4.1997 3.8932 5.5227 10.426 3.2805 15.678-1.1973 2.9653-3.5361 5.4237-6.2892 7.0068-2.5356 1.3391-5.4389 1.9574-8.2971 1.6501zm3.4364-10.173c2.5887-1.0953 3.4859-4.759 1.6546-6.905-0.84897-1.2004-2.2814-1.8348-3.7366-1.7705-2.8007-0.12024-5.0706 2.9612-4.3071 5.6263 0.46707 2.2855 2.8611 3.8438 5.1353 3.4281 0.43313-0.06573 0.85728-0.19249 1.2538-0.37899z" opacity="1"/>
      <path d="m205.42 88.76c-3.4638-0.37079-6.7899-2.011-9.077-4.6585-3.4258-3.6715-4.4633-9.2431-2.9175-13.974 1.5898-4.6847 5.7143-8.4125 10.584-9.381 4.5052-0.92865 9.4481 0.39602 12.717 3.6785 4.1997 3.8932 5.5228 10.426 3.2805 15.678-1.1973 2.9653-3.5362 5.4237-6.2892 7.0068-2.5356 1.3391-5.4389 1.9574-8.2972 1.6501zm3.4364-10.173c2.5888-1.0953 3.486-4.759 1.6546-6.905-0.84897-1.2004-2.2814-1.8348-3.7366-1.7705-2.8007-0.12024-5.0706 2.9612-4.3071 5.6263 0.46707 2.2855 2.8611 3.8438 5.1352 3.4281 0.43313-0.06573 0.85729-0.19249 1.2538-0.37899z" opacity="1"/>
      <path d="m-21.626 115.1c-3.4637-0.3708-6.7899-2.011-9.077-4.6585-3.4258-3.6715-4.4633-9.2432-2.9175-13.974 1.5898-4.6847 5.7143-8.4126 10.584-9.3811 4.5052-0.92865 9.4481 0.39603 12.717 3.6785 4.1997 3.8933 5.5228 10.426 3.2805 15.678-1.1973 2.9654-3.5362 5.4237-6.2892 7.0069-2.5356 1.3391-5.4389 1.9574-8.2972 1.6501zm3.4364-10.173c2.5887-1.0954 3.486-4.759 1.6546-6.905-0.84897-1.2004-2.2814-1.8348-3.7366-1.7705-2.8007-0.12025-5.0706 2.9613-4.3071 5.6264 0.46707 2.2856 2.8611 3.8438 5.1353 3.4281 0.43313-0.0657 0.85728-0.19249 1.2538-0.37899z" opacity="1"/>
      <path d="m220.57 115.1c-3.4637-0.3708-6.7899-2.011-9.077-4.6585-3.4258-3.6715-4.4633-9.2432-2.9175-13.974 1.5898-4.6847 5.7143-8.4126 10.584-9.3811 4.5052-0.92865 9.4481 0.39603 12.717 3.6785 4.1997 3.8933 5.5228 10.426 3.2805 15.678-1.1973 2.9654-3.5362 5.4237-6.2892 7.0069-2.5356 1.3391-5.4389 1.9574-8.2972 1.6501zm3.4364-10.173c2.5888-1.0954 3.486-4.759 1.6546-6.905-0.84897-1.2004-2.2814-1.8348-3.7366-1.7705-2.8008-0.12025-5.0706 2.9613-4.3071 5.6264 0.46707 2.2856 2.8611 3.8438 5.1352 3.4281 0.43313-0.0657 0.85728-0.19249 1.2538-0.37899z" opacity="1"/>
      <path d="m-36.383 141.18c-3.4637-0.3708-6.7899-2.011-9.077-4.6585-3.4258-3.6715-4.4633-9.2432-2.9175-13.974 1.5899-4.6847 5.7143-8.4126 10.584-9.3811 4.5052-0.92865 9.4481 0.39603 12.717 3.6785 4.1997 3.8933 5.5228 10.426 3.2805 15.678-1.1973 2.9654-3.5362 5.4237-6.2892 7.0069-2.5356 1.3391-5.4389 1.9574-8.2972 1.6501zm3.4364-10.173c2.5887-1.0953 3.486-4.759 1.6546-6.905-0.84897-1.2004-2.2814-1.8348-3.7366-1.7705-2.8007-0.12024-5.0706 2.9613-4.3071 5.6264 0.46707 2.2856 2.8611 3.8438 5.1353 3.4281 0.43313-0.0657 0.85728-0.1925 1.2538-0.379z" opacity="1"/>
      <path d="m236.11 141.18c-3.4637-0.3708-6.7899-2.011-9.077-4.6585-3.4258-3.6715-4.4633-9.2432-2.9175-13.974 1.5898-4.6847 5.7143-8.4126 10.584-9.3811 4.5052-0.92865 9.4481 0.39603 12.717 3.6785 4.1997 3.8933 5.5228 10.426 3.2805 15.678-1.1973 2.9654-3.5362 5.4237-6.2892 7.0069-2.5356 1.3391-5.4389 1.9574-8.2972 1.6501zm3.4364-10.173c2.5887-1.0953 3.486-4.759 1.6546-6.905-0.84897-1.2004-2.2814-1.8348-3.7366-1.7705-2.8008-0.12024-5.0706 2.9613-4.3071 5.6264 0.46708 2.2856 2.8611 3.8438 5.1353 3.4281 0.43313-0.0657 0.85727-0.1925 1.2538-0.379z" opacity="1"/>
      <path d="m-51.92 167.1c-3.4637-0.37078-6.7899-2.011-9.077-4.6585-3.4258-3.6715-4.4633-9.2431-2.9175-13.974 1.5898-4.6847 5.7143-8.4126 10.584-9.3811 4.5052-0.92865 9.4481 0.39602 12.717 3.6785 4.1997 3.8932 5.5228 10.426 3.2805 15.678-1.1973 2.9654-3.5362 5.4237-6.2892 7.0068-2.5356 1.3391-5.4389 1.9574-8.2972 1.6501zm3.4364-10.173c2.5887-1.0953 3.486-4.759 1.6546-6.905-0.84897-1.2004-2.2814-1.8348-3.7366-1.7705-2.8007-0.12024-5.0706 2.9613-4.3071 5.6264 0.46708 2.2855 2.8611 3.8438 5.1353 3.4281 0.43313-0.0657 0.85728-0.19248 1.2538-0.37898z" opacity="1"/>
      <path d="m250.86 167.1c-3.4637-0.37078-6.79-2.011-9.077-4.6585-3.4258-3.6715-4.4633-9.2431-2.9175-13.974 1.5898-4.6847 5.7143-8.4126 10.584-9.3811 4.5052-0.92865 9.4481 0.39602 12.717 3.6785 4.1997 3.8932 5.5228 10.426 3.2805 15.678-1.1973 2.9654-3.5362 5.4237-6.2892 7.0068-2.5356 1.3391-5.4389 1.9574-8.2972 1.6501zm3.4364-10.173c2.5888-1.0953 3.486-4.759 1.6546-6.905-0.84897-1.2004-2.2814-1.8348-3.7366-1.7705-2.8007-0.12024-5.0706 2.9613-4.3071 5.6264 0.46707 2.2855 2.8611 3.8438 5.1352 3.4281 0.43313-0.0657 0.85728-0.19248 1.2538-0.37898z" opacity="1"/>
      <path d="m-37.163 193.58c-3.4637-0.3708-6.7899-2.011-9.077-4.6585-3.4258-3.6715-4.4633-9.2432-2.9175-13.974 1.5898-4.6847 5.7143-8.4126 10.584-9.3811 4.5052-0.92866 9.4481 0.39602 12.717 3.6785 4.1997 3.8933 5.5228 10.426 3.2805 15.678-1.1973 2.9654-3.5362 5.4238-6.2892 7.0069-2.5356 1.3391-5.4389 1.9574-8.2972 1.6501zm3.4364-10.173c2.5887-1.0953 3.486-4.759 1.6546-6.905-0.84897-1.2004-2.2814-1.8348-3.7366-1.7705-2.8007-0.12025-5.0706 2.9612-4.3071 5.6264 0.46707 2.2856 2.8611 3.8438 5.1353 3.4281 0.43313-0.0657 0.85728-0.19249 1.2538-0.379z" opacity="1"/>
      <path d="m235.32 193.58c-3.4638-0.3708-6.79-2.011-9.077-4.6585-3.4258-3.6715-4.4633-9.2432-2.9175-13.974 1.5898-4.6847 5.7143-8.4126 10.584-9.3811 4.5052-0.92866 9.4481 0.39602 12.717 3.6785 4.1998 3.8933 5.5228 10.426 3.2805 15.678-1.1973 2.9654-3.5362 5.4238-6.2892 7.0069-2.5356 1.3391-5.4389 1.9574-8.2972 1.6501zm3.4364-10.173c2.5887-1.0953 3.486-4.759 1.6546-6.905-0.84897-1.2004-2.2814-1.8348-3.7366-1.7705-2.8008-0.12025-5.0706 2.9612-4.3071 5.6264 0.46708 2.2856 2.8611 3.8438 5.1353 3.4281 0.43313-0.0657 0.85728-0.19249 1.2538-0.379z" opacity="1"/>
      <path d="m-21.627 219.66c-3.4637-0.37078-6.7899-2.011-9.077-4.6585-3.4258-3.6715-4.4633-9.2432-2.9175-13.974 1.5899-4.6847 5.7143-8.4126 10.584-9.3811 4.5052-0.92865 9.448 0.39603 12.717 3.6785 4.1997 3.8932 5.5227 10.426 3.2805 15.678-1.1973 2.9654-3.5361 5.4238-6.2892 7.0069-2.5356 1.3392-5.4389 1.9574-8.2971 1.6501zm3.4364-10.173c2.5887-1.0953 3.4859-4.759 1.6546-6.905-0.84896-1.2004-2.2814-1.8348-3.7366-1.7705-2.8007-0.12023-5.0706 2.9613-4.3071 5.6264 0.46707 2.2856 2.8611 3.8438 5.1353 3.4281 0.43313-0.0657 0.85728-0.19249 1.2538-0.37901z" opacity="1"/>
      <path d="m220.57 219.66c-3.4638-0.37078-6.79-2.011-9.077-4.6585-3.4258-3.6715-4.4633-9.2432-2.9175-13.974 1.5898-4.6847 5.7143-8.4126 10.584-9.3811 4.5052-0.92865 9.4481 0.39603 12.717 3.6785 4.1997 3.8932 5.5228 10.426 3.2805 15.678-1.1973 2.9654-3.5362 5.4238-6.2892 7.0069-2.5356 1.3392-5.4389 1.9574-8.2972 1.6501zm3.4364-10.173c2.5888-1.0953 3.486-4.759 1.6546-6.905-0.84897-1.2004-2.2814-1.8348-3.7366-1.7705-2.8007-0.12023-5.0706 2.9613-4.3071 5.6264 0.46707 2.2856 2.8611 3.8438 5.1352 3.4281 0.43313-0.0657 0.85729-0.19249 1.2538-0.37901z" opacity="1"/>
     </g>
     <g opacity=".3">
      <path d="m-6.4797 36.76c-3.4637-0.37079-6.7899-2.011-9.077-4.6585-3.4258-3.6714-4.4633-9.2431-2.9175-13.974 1.5898-4.6847 5.7143-8.4125 10.584-9.381 4.5052-0.92865 9.448 0.39602 12.717 3.6785 4.1997 3.8932 5.5227 10.426 3.2805 15.678-1.1973 2.9653-3.5361 5.4237-6.2892 7.0068-2.5356 1.3391-5.4389 1.9574-8.2971 1.6501zm3.4364-10.173c2.5887-1.0953 3.4859-4.759 1.6546-6.905-0.84897-1.2004-2.2814-1.8348-3.7366-1.7705-2.8007-0.12024-5.0706 2.9612-4.3071 5.6263 0.46707 2.2855 2.8611 3.8438 5.1353 3.4281 0.43313-0.06573 0.85728-0.19249 1.2538-0.37899z" opacity="1"/>
      <path d="m205.42 36.76c-3.4638-0.37079-6.7899-2.011-9.077-4.6585-3.4258-3.6714-4.4633-9.2431-2.9175-13.974 1.5898-4.6847 5.7143-8.4125 10.584-9.381 4.5052-0.92865 9.4481 0.39602 12.717 3.6785 4.1997 3.8932 5.5228 10.426 3.2805 15.678-1.1973 2.9653-3.5362 5.4237-6.2892 7.0068-2.5356 1.3391-5.4389 1.9574-8.2972 1.6501zm3.4364-10.173c2.5888-1.0953 3.486-4.759 1.6546-6.905-0.84897-1.2004-2.2814-1.8348-3.7366-1.7705-2.8007-0.12024-5.0706 2.9612-4.3071 5.6263 0.46707 2.2855 2.8611 3.8438 5.1352 3.4281 0.43313-0.06573 0.85729-0.19249 1.2538-0.37899z" opacity="1"/>
      <path d="m-21.236 62.836c-3.4637-0.37079-6.7899-2.011-9.077-4.6585-3.4258-3.6714-4.4633-9.2431-2.9175-13.974 1.5898-4.6847 5.7143-8.4125 10.584-9.381 4.5052-0.92865 9.448 0.39602 12.717 3.6785 4.1997 3.8932 5.5227 10.426 3.2805 15.678-1.1973 2.9653-3.5361 5.4237-6.2892 7.0068-2.5356 1.3391-5.4389 1.9574-8.2971 1.6501zm3.4364-10.173c2.5887-1.0953 3.4859-4.759 1.6546-6.905-0.84897-1.2004-2.2814-1.8348-3.7366-1.7705-2.8007-0.12024-5.0706 2.9612-4.3071 5.6263 0.46707 2.2855 2.8611 3.8438 5.1353 3.4281 0.43313-0.06573 0.85728-0.19249 1.2538-0.37899z" opacity="1"/>
      <path d="m220.96 62.836c-3.4637-0.37079-6.7899-2.011-9.077-4.6585-3.4258-3.6714-4.4633-9.2431-2.9175-13.974 1.5898-4.6847 5.7143-8.4125 10.584-9.381 4.5052-0.92865 9.4481 0.39602 12.717 3.6785 4.1997 3.8932 5.5228 10.426 3.2805 15.678-1.1973 2.9653-3.5362 5.4237-6.2892 7.0068-2.5356 1.3391-5.4389 1.9574-8.2972 1.6501zm3.4364-10.173c2.5887-1.0953 3.486-4.759 1.6546-6.905-0.84897-1.2004-2.2814-1.8348-3.7366-1.7705-2.8008-0.12024-5.0706 2.9612-4.3071 5.6263 0.46707 2.2855 2.8611 3.8438 5.1353 3.4281 0.43313-0.06573 0.85728-0.19249 1.2538-0.37899z" opacity="1"/>
      <path d="m-36.773 88.76c-3.4637-0.37079-6.7899-2.011-9.077-4.6585-3.4258-3.6715-4.4633-9.2431-2.9175-13.974 1.5898-4.6847 5.7143-8.4125 10.584-9.381 4.5052-0.92865 9.4481 0.39602 12.717 3.6785 4.1997 3.8932 5.5228 10.426 3.2805 15.678-1.1973 2.9653-3.5362 5.4237-6.2892 7.0068-2.5356 1.3391-5.4389 1.9574-8.2972 1.6501zm3.4364-10.173c2.5887-1.0953 3.486-4.759 1.6546-6.905-0.84897-1.2004-2.2814-1.8348-3.7366-1.7705-2.8007-0.12024-5.0706 2.9612-4.3071 5.6263 0.46707 2.2855 2.8611 3.8438 5.1353 3.4281 0.43313-0.06573 0.85728-0.19249 1.2538-0.37899z" opacity="1"/>
      <path d="m235.72 88.76c-3.4638-0.37079-6.79-2.011-9.077-4.6585-3.4258-3.6715-4.4633-9.2431-2.9175-13.974 1.5898-4.6847 5.7143-8.4125 10.584-9.381 4.5052-0.92865 9.4481 0.39602 12.717 3.6785 4.1997 3.8932 5.5228 10.426 3.2805 15.678-1.1973 2.9653-3.5362 5.4237-6.2892 7.0068-2.5356 1.3391-5.4389 1.9574-8.2972 1.6501zm3.4364-10.173c2.5888-1.0953 3.486-4.759 1.6546-6.905-0.84897-1.2004-2.2814-1.8348-3.7366-1.7705-2.8007-0.12024-5.0706 2.9612-4.3071 5.6263 0.46707 2.2855 2.8611 3.8438 5.1353 3.4281 0.43313-0.06573 0.85728-0.19249 1.2538-0.37899z" opacity="1"/>
      <path d="m-51.92 115.1c-3.4637-0.3708-6.7899-2.011-9.077-4.6585-3.4258-3.6715-4.4633-9.2432-2.9175-13.974 1.5898-4.6847 5.7143-8.4126 10.584-9.3811 4.5052-0.92865 9.4481 0.39603 12.717 3.6785 4.1997 3.8933 5.5228 10.426 3.2805 15.678-1.1973 2.9654-3.5362 5.4237-6.2892 7.0069-2.5356 1.3391-5.4389 1.9574-8.2972 1.6501zm3.4364-10.173c2.5887-1.0954 3.486-4.759 1.6546-6.905-0.84897-1.2004-2.2814-1.8348-3.7366-1.7705-2.8007-0.12025-5.0706 2.9613-4.3071 5.6264 0.46708 2.2856 2.8611 3.8438 5.1353 3.4281 0.43313-0.0657 0.85728-0.19249 1.2538-0.37899z" opacity="1"/>
      <path d="m250.86 115.1c-3.4637-0.3708-6.79-2.011-9.077-4.6585-3.4258-3.6715-4.4633-9.2432-2.9175-13.974 1.5898-4.6847 5.7143-8.4126 10.584-9.3811 4.5052-0.92865 9.4481 0.39603 12.717 3.6785 4.1997 3.8933 5.5228 10.426 3.2805 15.678-1.1973 2.9654-3.5362 5.4237-6.2892 7.0069-2.5356 1.3391-5.4389 1.9574-8.2972 1.6501zm3.4364-10.173c2.5888-1.0954 3.486-4.759 1.6546-6.905-0.84897-1.2004-2.2814-1.8348-3.7366-1.7705-2.8007-0.12025-5.0706 2.9613-4.3071 5.6264 0.46707 2.2856 2.8611 3.8438 5.1352 3.4281 0.43313-0.0657 0.85728-0.19249 1.2538-0.37899z" opacity="1"/>
      <path d="m-66.676 141.18c-3.4637-0.3708-6.7899-2.011-9.077-4.6585-3.4258-3.6715-4.4633-9.2432-2.9175-13.974 1.5898-4.6847 5.7143-8.4126 10.584-9.3811 4.5052-0.92865 9.4481 0.39603 12.717 3.6785 4.1997 3.8933 5.5228 10.426 3.2805 15.678-1.1973 2.9654-3.5362 5.4237-6.2892 7.0069-2.5356 1.3391-5.4389 1.9574-8.2972 1.6501zm3.4364-10.173c2.5887-1.0953 3.486-4.759 1.6546-6.905-0.84897-1.2004-2.2814-1.8348-3.7366-1.7705-2.8007-0.12024-5.0706 2.9613-4.3071 5.6264 0.46707 2.2856 2.8611 3.8438 5.1353 3.4281 0.43313-0.0657 0.85728-0.1925 1.2538-0.379z" opacity="1"/>
      <path d="m266.4 141.18c-3.4637-0.3708-6.7899-2.011-9.077-4.6585-3.4258-3.6715-4.4633-9.2432-2.9175-13.974 1.5898-4.6847 5.7143-8.4126 10.584-9.3811 4.5052-0.92865 9.448 0.39603 12.717 3.6785 4.1997 3.8933 5.5227 10.426 3.2804 15.678-1.1973 2.9654-3.5362 5.4237-6.2892 7.0069-2.5356 1.3391-5.4389 1.9574-8.2972 1.6501zm3.4364-10.173c2.5887-1.0953 3.486-4.759 1.6546-6.905-0.84897-1.2004-2.2814-1.8348-3.7366-1.7705-2.8008-0.12024-5.0706 2.9613-4.3071 5.6264 0.46707 2.2856 2.8611 3.8438 5.1353 3.4281 0.43313-0.0657 0.85727-0.1925 1.2538-0.379z" opacity="1"/>
      <path d="m-81.989 167.1c-3.4637-0.37078-6.7899-2.011-9.0769-4.6585-3.4258-3.6715-4.4633-9.2431-2.9175-13.974 1.5899-4.6847 5.7143-8.4126 10.584-9.3811 4.5052-0.92865 9.448 0.39602 12.717 3.6785 4.1997 3.8932 5.5227 10.426 3.2805 15.678-1.1973 2.9654-3.5361 5.4237-6.2892 7.0068-2.5356 1.3391-5.4389 1.9574-8.2971 1.6501zm3.4364-10.173c2.5887-1.0953 3.486-4.759 1.6546-6.905-0.84897-1.2004-2.2814-1.8348-3.7366-1.7705-2.8007-0.12024-5.0706 2.9613-4.3071 5.6264 0.46707 2.2855 2.8611 3.8438 5.1352 3.4281 0.43313-0.0657 0.85728-0.19248 1.2538-0.37898z" opacity="1"/>
      <path d="m281.16 167.1c-3.4638-0.37078-6.79-2.011-9.077-4.6585-3.4258-3.6715-4.4633-9.2431-2.9175-13.974 1.5898-4.6847 5.7143-8.4126 10.584-9.3811 4.5052-0.92865 9.448 0.39602 12.717 3.6785 4.1997 3.8932 5.5227 10.426 3.2804 15.678-1.1973 2.9654-3.5361 5.4237-6.2892 7.0068-2.5356 1.3391-5.4388 1.9574-8.2971 1.6501zm3.4364-10.173c2.5887-1.0953 3.486-4.759 1.6546-6.905-0.84897-1.2004-2.2814-1.8348-3.7366-1.7705-2.8007-0.12024-5.0706 2.9613-4.3071 5.6264 0.46708 2.2855 2.8611 3.8438 5.1353 3.4281 0.43313-0.0657 0.85728-0.19248 1.2538-0.37898z" opacity="1"/>
      <path d="m-67.457 193.58c-3.4637-0.3708-6.7899-2.011-9.077-4.6585-3.4258-3.6715-4.4633-9.2432-2.9175-13.974 1.5898-4.6847 5.7143-8.4126 10.584-9.3811 4.5052-0.92866 9.4481 0.39602 12.717 3.6785 4.1997 3.8933 5.5228 10.426 3.2805 15.678-1.1973 2.9654-3.5362 5.4238-6.2892 7.0069-2.5356 1.3391-5.4389 1.9574-8.2972 1.6501zm3.4364-10.173c2.5887-1.0953 3.486-4.759 1.6546-6.905-0.84897-1.2004-2.2814-1.8348-3.7366-1.7705-2.8007-0.12025-5.0706 2.9612-4.3071 5.6264 0.46707 2.2856 2.8611 3.8438 5.1353 3.4281 0.43313-0.0657 0.85728-0.19249 1.2538-0.379z" opacity="1"/>
      <path d="m265.62 193.58c-3.4637-0.3708-6.7899-2.011-9.077-4.6585-3.4258-3.6715-4.4633-9.2432-2.9175-13.974 1.5898-4.6847 5.7143-8.4126 10.584-9.3811 4.5052-0.92866 9.448 0.39602 12.717 3.6785 4.1997 3.8933 5.5227 10.426 3.2804 15.678-1.1973 2.9654-3.5361 5.4238-6.2892 7.0069-2.5356 1.3391-5.4388 1.9574-8.2971 1.6501zm3.4364-10.173c2.5887-1.0953 3.486-4.759 1.6546-6.905-0.84897-1.2004-2.2814-1.8348-3.7366-1.7705-2.8008-0.12025-5.0706 2.9612-4.3071 5.6264 0.46708 2.2856 2.8611 3.8438 5.1353 3.4281 0.43313-0.0657 0.85728-0.19249 1.2538-0.379z" opacity="1"/>
      <path d="m-51.92 219.66c-3.4637-0.37078-6.7899-2.011-9.077-4.6585-3.4258-3.6715-4.4633-9.2432-2.9175-13.974 1.5899-4.6847 5.7143-8.4126 10.584-9.3811 4.5052-0.92865 9.4481 0.39603 12.717 3.6785 4.1997 3.8932 5.5228 10.426 3.2805 15.678-1.1973 2.9654-3.5362 5.4238-6.2892 7.0069-2.5356 1.3392-5.4389 1.9574-8.2972 1.6501zm3.4364-10.173c2.5887-1.0953 3.486-4.759 1.6546-6.905-0.84897-1.2004-2.2814-1.8348-3.7366-1.7705-2.8007-0.12023-5.0706 2.9613-4.3071 5.6264 0.46707 2.2856 2.8611 3.8438 5.1353 3.4281 0.43313-0.0657 0.85728-0.19249 1.2538-0.37901z" opacity="1"/>
      <path d="m250.86 219.66c-3.4638-0.37078-6.79-2.011-9.077-4.6585-3.4258-3.6715-4.4633-9.2432-2.9175-13.974 1.5898-4.6847 5.7143-8.4126 10.584-9.3811 4.5052-0.92865 9.448 0.39603 12.717 3.6785 4.1997 3.8932 5.5228 10.426 3.2804 15.678-1.1973 2.9654-3.5361 5.4238-6.2892 7.0069-2.5356 1.3392-5.4388 1.9574-8.2971 1.6501zm3.4364-10.173c2.5887-1.0953 3.486-4.759 1.6546-6.905-0.84897-1.2004-2.2814-1.8348-3.7366-1.7705-2.8007-0.12023-5.0706 2.9613-4.3071 5.6264 0.46707 2.2856 2.8611 3.8438 5.1353 3.4281 0.43313-0.0657 0.85728-0.19249 1.2538-0.37901z" opacity="1"/>
     </g>
     <g opacity=".25">
      <path d="m-36.773 36.76c-3.4637-0.37079-6.7899-2.011-9.077-4.6585-3.4258-3.6714-4.4633-9.2431-2.9175-13.974 1.5898-4.6847 5.7143-8.4125 10.584-9.381 4.5052-0.92865 9.4481 0.39602 12.717 3.6785 4.1997 3.8932 5.5228 10.426 3.2805 15.678-1.1973 2.9653-3.5362 5.4237-6.2892 7.0068-2.5356 1.3391-5.4389 1.9574-8.2972 1.6501zm3.4364-10.173c2.5887-1.0953 3.486-4.759 1.6546-6.905-0.84897-1.2004-2.2814-1.8348-3.7366-1.7705-2.8007-0.12024-5.0706 2.9612-4.3071 5.6263 0.46707 2.2855 2.8611 3.8438 5.1353 3.4281 0.43313-0.06573 0.85728-0.19249 1.2538-0.37899z" opacity="1"/>
      <path d="m235.72 36.76c-3.4638-0.37079-6.79-2.011-9.077-4.6585-3.4258-3.6714-4.4633-9.2431-2.9175-13.974 1.5898-4.6847 5.7143-8.4125 10.584-9.381 4.5052-0.92865 9.4481 0.39602 12.717 3.6785 4.1997 3.8932 5.5228 10.426 3.2805 15.678-1.1973 2.9653-3.5362 5.4237-6.2892 7.0068-2.5356 1.3391-5.4389 1.9574-8.2972 1.6501zm3.4364-10.173c2.5888-1.0953 3.486-4.759 1.6546-6.905-0.84897-1.2004-2.2814-1.8348-3.7366-1.7705-2.8007-0.12024-5.0706 2.9612-4.3071 5.6263 0.46707 2.2855 2.8611 3.8438 5.1353 3.4281 0.43313-0.06573 0.85728-0.19249 1.2538-0.37899z" opacity="1"/>
      <path d="m-51.53 62.836c-3.4637-0.37079-6.7899-2.011-9.077-4.6585-3.4258-3.6714-4.4633-9.2431-2.9175-13.974 1.5898-4.6847 5.7143-8.4125 10.584-9.381 4.5052-0.92865 9.4481 0.39602 12.717 3.6785 4.1997 3.8932 5.5228 10.426 3.2805 15.678-1.1973 2.9653-3.5362 5.4237-6.2892 7.0068-2.5356 1.3391-5.4389 1.9574-8.2972 1.6501zm3.4364-10.173c2.5887-1.0953 3.486-4.759 1.6546-6.905-0.84897-1.2004-2.2814-1.8348-3.7366-1.7705-2.8007-0.12024-5.0706 2.9612-4.3071 5.6263 0.46707 2.2855 2.8611 3.8438 5.1353 3.4281 0.43313-0.06573 0.85728-0.19249 1.2538-0.37899z" opacity="1"/>
      <path d="m251.25 62.836c-3.4638-0.37079-6.7899-2.011-9.077-4.6585-3.4258-3.6714-4.4633-9.2431-2.9175-13.974 1.5898-4.6847 5.7143-8.4125 10.584-9.381 4.5052-0.92865 9.448 0.39602 12.717 3.6785 4.1997 3.8932 5.5227 10.426 3.2804 15.678-1.1973 2.9653-3.5361 5.4237-6.2892 7.0068-2.5356 1.3391-5.4388 1.9574-8.2971 1.6501zm3.4364-10.173c2.5887-1.0953 3.4859-4.759 1.6546-6.905-0.84897-1.2004-2.2814-1.8348-3.7366-1.7705-2.8008-0.12024-5.0706 2.9612-4.3071 5.6263 0.46707 2.2855 2.8611 3.8438 5.1353 3.4281 0.43313-0.06573 0.85727-0.19249 1.2538-0.37899z" opacity="1"/>
      <path d="m-67.066 88.76c-3.4637-0.37079-6.7899-2.011-9.077-4.6585-3.4258-3.6715-4.4633-9.2431-2.9175-13.974 1.5898-4.6847 5.7143-8.4125 10.584-9.381 4.5052-0.92865 9.4481 0.39602 12.717 3.6785 4.1997 3.8932 5.5228 10.426 3.2805 15.678-1.1973 2.9653-3.5362 5.4237-6.2892 7.0068-2.5356 1.3391-5.4389 1.9574-8.2972 1.6501zm3.4364-10.173c2.5887-1.0953 3.486-4.759 1.6546-6.905-0.84897-1.2004-2.2814-1.8348-3.7366-1.7705-2.8007-0.12024-5.0706 2.9612-4.3071 5.6263 0.46707 2.2855 2.8611 3.8438 5.1353 3.4281 0.43313-0.06573 0.85728-0.19249 1.2538-0.37899z" opacity="1"/>
      <path d="m266.01 88.76c-3.4637-0.37079-6.79-2.011-9.077-4.6585-3.4258-3.6715-4.4633-9.2431-2.9175-13.974 1.5898-4.6847 5.7143-8.4125 10.584-9.381 4.5052-0.92865 9.448 0.39602 12.717 3.6785 4.1997 3.8932 5.5227 10.426 3.2804 15.678-1.1973 2.9653-3.5361 5.4237-6.2892 7.0068-2.5356 1.3391-5.4389 1.9574-8.2972 1.6501zm3.4364-10.173c2.5887-1.0953 3.486-4.759 1.6546-6.905-0.84897-1.2004-2.2814-1.8348-3.7366-1.7705-2.8008-0.12024-5.0706 2.9612-4.3071 5.6263 0.46708 2.2855 2.8611 3.8438 5.1353 3.4281 0.43313-0.06573 0.85728-0.19249 1.2538-0.37899z" opacity="1"/>
      <path d="m-81.989 115.1c-3.4637-0.3708-6.7899-2.011-9.0769-4.6585-3.4258-3.6715-4.4633-9.2432-2.9175-13.974 1.5899-4.6847 5.7143-8.4126 10.584-9.3811 4.5052-0.92865 9.448 0.39603 12.717 3.6785 4.1997 3.8933 5.5227 10.426 3.2805 15.678-1.1973 2.9654-3.5361 5.4237-6.2892 7.0069-2.5356 1.3391-5.4389 1.9574-8.2971 1.6501zm3.4364-10.173c2.5887-1.0954 3.4859-4.759 1.6546-6.905-0.84897-1.2004-2.2814-1.8348-3.7366-1.7705-2.8007-0.12025-5.0706 2.9613-4.3071 5.6264 0.46707 2.2856 2.8611 3.8438 5.1352 3.4281 0.43313-0.0657 0.85728-0.19249 1.2538-0.37899z" opacity="1"/>
      <path d="m281.16 115.1c-3.4638-0.3708-6.79-2.011-9.077-4.6585-3.4258-3.6715-4.4633-9.2432-2.9175-13.974 1.5898-4.6847 5.7143-8.4126 10.584-9.3811 4.5052-0.92865 9.448 0.39603 12.717 3.6785 4.1997 3.8933 5.5227 10.426 3.2804 15.678-1.1973 2.9654-3.5361 5.4237-6.2892 7.0069-2.5356 1.3391-5.4388 1.9574-8.2971 1.6501zm3.4364-10.173c2.5887-1.0954 3.486-4.759 1.6546-6.905-0.84897-1.2004-2.2814-1.8348-3.7366-1.7705-2.8007-0.12025-5.0706 2.9613-4.3071 5.6264 0.46708 2.2856 2.8611 3.8438 5.1353 3.4281 0.43313-0.0657 0.85728-0.19249 1.2538-0.37899z" opacity="1"/>
      <path d="m-96.745 141.18c-3.4637-0.3708-6.7899-2.011-9.077-4.6585-3.4258-3.6715-4.4633-9.2432-2.9175-13.974 1.5898-4.6847 5.7143-8.4126 10.584-9.3811 4.5052-0.92865 9.448 0.39603 12.717 3.6785 4.1997 3.8933 5.5227 10.426 3.2804 15.678-1.1973 2.9654-3.5361 5.4237-6.2892 7.0069-2.5356 1.3391-5.4388 1.9574-8.2971 1.6501zm3.4364-10.173c2.5887-1.0953 3.4859-4.759 1.6546-6.905-0.84896-1.2004-2.2814-1.8348-3.7366-1.7705-2.8007-0.12024-5.0706 2.9613-4.3071 5.6264 0.46707 2.2856 2.8611 3.8438 5.1352 3.4281 0.43314-0.0657 0.85729-0.1925 1.2538-0.379z" opacity="1"/>
      <path d="m296.47 141.18c-3.4637-0.3708-6.79-2.011-9.077-4.6585-3.4258-3.6715-4.4633-9.2432-2.9175-13.974 1.5898-4.6847 5.7143-8.4126 10.584-9.3811 4.5052-0.92865 9.4481 0.39603 12.717 3.6785 4.1997 3.8933 5.5228 10.426 3.2805 15.678-1.1973 2.9654-3.5362 5.4237-6.2892 7.0069-2.5356 1.3391-5.4389 1.9574-8.2972 1.6501zm3.4364-10.173c2.5888-1.0953 3.486-4.759 1.6546-6.905-0.84897-1.2004-2.2814-1.8348-3.7366-1.7705-2.8008-0.12024-5.0706 2.9613-4.3071 5.6264 0.46707 2.2856 2.8611 3.8438 5.1352 3.4281 0.43313-0.0657 0.85728-0.1925 1.2538-0.379z" opacity="1"/>
      <path d="m-112.28 167.1c-3.4638-0.37078-6.79-2.011-9.077-4.6585-3.4258-3.6715-4.4633-9.2431-2.9175-13.974 1.5898-4.6847 5.7143-8.4126 10.584-9.3811 4.5052-0.92865 9.4481 0.39602 12.717 3.6785 4.1997 3.8932 5.5228 10.426 3.2805 15.678-1.1973 2.9654-3.5362 5.4237-6.2892 7.0068-2.5356 1.3391-5.4389 1.9574-8.2972 1.6501zm3.4364-10.173c2.5888-1.0953 3.486-4.759 1.6546-6.905-0.84897-1.2004-2.2814-1.8348-3.7366-1.7705-2.8008-0.12024-5.0706 2.9613-4.3071 5.6264 0.46708 2.2855 2.8611 3.8438 5.1353 3.4281 0.43313-0.0657 0.85728-0.19248 1.2538-0.37898z" opacity="1"/>
      <path d="m311.22 167.1c-3.4637-0.37078-6.79-2.011-9.077-4.6585-3.4258-3.6715-4.4633-9.2431-2.9175-13.974 1.5898-4.6847 5.7143-8.4126 10.584-9.3811 4.5052-0.92865 9.4481 0.39602 12.717 3.6785 4.1998 3.8932 5.5228 10.426 3.2805 15.678-1.1973 2.9654-3.5362 5.4237-6.2892 7.0068-2.5356 1.3391-5.4389 1.9574-8.2972 1.6501zm3.4364-10.173c2.5887-1.0953 3.486-4.759 1.6546-6.905-0.84896-1.2004-2.2814-1.8348-3.7366-1.7705-2.8008-0.12024-5.0706 2.9613-4.3071 5.6264 0.46708 2.2855 2.8611 3.8438 5.1353 3.4281 0.43313-0.0657 0.85728-0.19248 1.2538-0.37898z" opacity="1"/>
      <path d="m-97.525 193.58c-3.4637-0.3708-6.7899-2.011-9.077-4.6585-3.4258-3.6715-4.4633-9.2432-2.9175-13.974 1.5898-4.6847 5.7143-8.4126 10.584-9.3811 4.5052-0.92866 9.4481 0.39602 12.717 3.6785 4.1997 3.8933 5.5227 10.426 3.2805 15.678-1.1973 2.9654-3.5361 5.4238-6.2892 7.0069-2.5356 1.3391-5.4389 1.9574-8.2972 1.6501zm3.4364-10.173c2.5888-1.0953 3.486-4.759 1.6546-6.905-0.84896-1.2004-2.2814-1.8348-3.7366-1.7705-2.8008-0.12025-5.0706 2.9612-4.3071 5.6264 0.46708 2.2856 2.8611 3.8438 5.1353 3.4281 0.43313-0.0657 0.85729-0.19249 1.2538-0.379z" opacity="1"/>
      <path d="m295.69 193.58c-3.4638-0.3708-6.7899-2.011-9.077-4.6585-3.4258-3.6715-4.4633-9.2432-2.9175-13.974 1.5899-4.6847 5.7143-8.4126 10.584-9.3811 4.5052-0.92866 9.4481 0.39602 12.717 3.6785 4.1997 3.8933 5.5228 10.426 3.2805 15.678-1.1973 2.9654-3.5362 5.4238-6.2892 7.0069-2.5356 1.3391-5.4389 1.9574-8.2972 1.6501zm3.4364-10.173c2.5887-1.0953 3.486-4.759 1.6546-6.905-0.84897-1.2004-2.2814-1.8348-3.7366-1.7705-2.8008-0.12025-5.0706 2.9612-4.3071 5.6264 0.46707 2.2856 2.8611 3.8438 5.1353 3.4281 0.43313-0.0657 0.85727-0.19249 1.2538-0.379z" opacity="1"/>
      <path d="m-82.213 219.66c-3.4637-0.37078-6.7899-2.011-9.077-4.6585-3.4258-3.6715-4.4633-9.2432-2.9175-13.974 1.5899-4.6847 5.7143-8.4126 10.584-9.3811 4.5052-0.92865 9.4481 0.39603 12.717 3.6785 4.1997 3.8932 5.5228 10.426 3.2805 15.678-1.1973 2.9654-3.5362 5.4238-6.2892 7.0069-2.5356 1.3392-5.4389 1.9574-8.2972 1.6501zm3.4364-10.173c2.5887-1.0953 3.486-4.759 1.6546-6.905-0.84897-1.2004-2.2814-1.8348-3.7366-1.7705-2.8007-0.12023-5.0706 2.9613-4.3071 5.6264 0.46708 2.2856 2.8611 3.8438 5.1353 3.4281 0.43313-0.0657 0.85728-0.19249 1.2538-0.37901z" opacity="1"/>
      <path d="m280.93 219.66c-3.4638-0.37078-6.79-2.011-9.077-4.6585-3.4258-3.6715-4.4633-9.2432-2.9175-13.974 1.5898-4.6847 5.7143-8.4126 10.584-9.3811 4.5052-0.92865 9.4481 0.39603 12.717 3.6785 4.1997 3.8932 5.5228 10.426 3.2805 15.678-1.1973 2.9654-3.5362 5.4238-6.2892 7.0069-2.5356 1.3392-5.4389 1.9574-8.2972 1.6501zm3.4364-10.173c2.5888-1.0953 3.486-4.759 1.6546-6.905-0.84897-1.2004-2.2814-1.8348-3.7366-1.7705-2.8007-0.12023-5.0706 2.9613-4.3071 5.6264 0.46708 2.2856 2.8611 3.8438 5.1353 3.4281 0.43313-0.0657 0.85729-0.19249 1.2538-0.37901z" opacity="1"/>
     </g>
     <g opacity=".22">
      <path d="m-67.066 36.76c-3.4637-0.37079-6.7899-2.011-9.077-4.6585-3.4258-3.6714-4.4633-9.2431-2.9175-13.974 1.5898-4.6847 5.7143-8.4125 10.584-9.381 4.5052-0.92865 9.4481 0.39602 12.717 3.6785 4.1997 3.8932 5.5228 10.426 3.2805 15.678-1.1973 2.9653-3.5362 5.4237-6.2892 7.0068-2.5356 1.3391-5.4389 1.9574-8.2972 1.6501zm3.4364-10.173c2.5887-1.0953 3.486-4.759 1.6546-6.905-0.84897-1.2004-2.2814-1.8348-3.7366-1.7705-2.8007-0.12024-5.0706 2.9612-4.3071 5.6263 0.46707 2.2855 2.8611 3.8438 5.1353 3.4281 0.43313-0.06573 0.85728-0.19249 1.2538-0.37899z" opacity="1"/>
      <path d="m266.01 36.76c-3.4637-0.37079-6.79-2.011-9.077-4.6585-3.4258-3.6714-4.4633-9.2431-2.9175-13.974 1.5898-4.6847 5.7143-8.4125 10.584-9.381 4.5052-0.92865 9.448 0.39602 12.717 3.6785 4.1997 3.8932 5.5227 10.426 3.2804 15.678-1.1973 2.9653-3.5361 5.4237-6.2892 7.0068-2.5356 1.3391-5.4389 1.9574-8.2972 1.6501zm3.4364-10.173c2.5887-1.0953 3.486-4.759 1.6546-6.905-0.84897-1.2004-2.2814-1.8348-3.7366-1.7705-2.8008-0.12024-5.0706 2.9612-4.3071 5.6263 0.46708 2.2855 2.8611 3.8438 5.1353 3.4281 0.43313-0.06573 0.85728-0.19249 1.2538-0.37899z" opacity="1"/>
      <path d="m-81.823 62.836c-3.4637-0.37079-6.7899-2.011-9.077-4.6585-3.4258-3.6714-4.4633-9.2431-2.9175-13.974 1.5898-4.6847 5.7143-8.4125 10.584-9.381 4.5052-0.92865 9.4481 0.39602 12.717 3.6785 4.1997 3.8932 5.5228 10.426 3.2805 15.678-1.1973 2.9653-3.5362 5.4237-6.2892 7.0068-2.5356 1.3391-5.4389 1.9574-8.2972 1.6501zm3.4364-10.173c2.5887-1.0953 3.486-4.759 1.6546-6.905-0.84897-1.2004-2.2814-1.8348-3.7366-1.7705-2.8007-0.12024-5.0706 2.9612-4.3071 5.6263 0.46707 2.2855 2.8611 3.8438 5.1353 3.4281 0.43313-0.06573 0.85728-0.19249 1.2538-0.37899z" opacity="1"/>
      <path d="m281.32 62.836c-3.4638-0.37079-6.79-2.011-9.077-4.6585-3.4258-3.6714-4.4633-9.2431-2.9175-13.974 1.5898-4.6847 5.7143-8.4125 10.584-9.381 4.5052-0.92865 9.4481 0.39602 12.717 3.6785 4.1997 3.8932 5.5228 10.426 3.2805 15.678-1.1973 2.9653-3.5362 5.4237-6.2892 7.0068-2.5356 1.3391-5.4389 1.9574-8.2972 1.6501zm3.4364-10.173c2.5888-1.0953 3.486-4.759 1.6546-6.905-0.84897-1.2004-2.2814-1.8348-3.7366-1.7705-2.8007-0.12024-5.0706 2.9612-4.3071 5.6263 0.46707 2.2855 2.8611 3.8438 5.1352 3.4281 0.43313-0.06573 0.85729-0.19249 1.2538-0.37899z" opacity="1"/>
      <path d="m-97.135 88.76c-3.4637-0.37079-6.7899-2.011-9.077-4.6585-3.4258-3.6715-4.4633-9.2431-2.9175-13.974 1.5898-4.6847 5.7143-8.4125 10.584-9.381 4.5052-0.92865 9.4481 0.39602 12.717 3.6785 4.1997 3.8932 5.5227 10.426 3.2805 15.678-1.1973 2.9653-3.5361 5.4237-6.2892 7.0068-2.5356 1.3391-5.4389 1.9574-8.2972 1.6501zm3.4364-10.173c2.5888-1.0953 3.486-4.759 1.6546-6.905-0.84897-1.2004-2.2814-1.8348-3.7366-1.7705-2.8008-0.12024-5.0706 2.9612-4.3071 5.6263 0.46708 2.2855 2.8611 3.8438 5.1353 3.4281 0.43313-0.06573 0.85728-0.19249 1.2538-0.37899z" opacity="1"/>
      <path d="m296.08 88.76c-3.4638-0.37079-6.79-2.011-9.077-4.6585-3.4258-3.6715-4.4633-9.2431-2.9175-13.974 1.5898-4.6847 5.7143-8.4125 10.584-9.381 4.5052-0.92865 9.4481 0.39602 12.717 3.6785 4.1998 3.8932 5.5228 10.426 3.2805 15.678-1.1973 2.9653-3.5362 5.4237-6.2893 7.0068-2.5356 1.3391-5.4389 1.9574-8.2972 1.6501zm3.4364-10.173c2.5887-1.0953 3.486-4.759 1.6546-6.905-0.84896-1.2004-2.2814-1.8348-3.7366-1.7705-2.8008-0.12024-5.0706 2.9612-4.3071 5.6263 0.46708 2.2855 2.8611 3.8438 5.1353 3.4281 0.43313-0.06573 0.85728-0.19249 1.2538-0.37899z" opacity="1"/>
      <path d="m-112.28 115.1c-3.4638-0.3708-6.79-2.011-9.077-4.6585-3.4258-3.6715-4.4633-9.2432-2.9175-13.974 1.5898-4.6847 5.7143-8.4126 10.584-9.3811 4.5052-0.92865 9.4481 0.39603 12.717 3.6785 4.1997 3.8933 5.5228 10.426 3.2805 15.678-1.1973 2.9654-3.5362 5.4237-6.2892 7.0069-2.5356 1.3391-5.4389 1.9574-8.2972 1.6501zm3.4364-10.173c2.5888-1.0954 3.486-4.759 1.6546-6.905-0.84897-1.2004-2.2814-1.8348-3.7366-1.7705-2.8008-0.12025-5.0706 2.9613-4.3071 5.6264 0.46708 2.2856 2.8611 3.8438 5.1353 3.4281 0.43313-0.0657 0.85728-0.19249 1.2538-0.37899z" opacity="1"/>
      <path d="m311.22 115.1c-3.4637-0.3708-6.79-2.011-9.077-4.6585-3.4258-3.6715-4.4633-9.2432-2.9175-13.974 1.5898-4.6847 5.7143-8.4126 10.584-9.3811 4.5052-0.92865 9.4481 0.39603 12.717 3.6785 4.1998 3.8933 5.5228 10.426 3.2805 15.678-1.1973 2.9654-3.5362 5.4237-6.2892 7.0069-2.5356 1.3391-5.4389 1.9574-8.2972 1.6501zm3.4364-10.173c2.5887-1.0954 3.486-4.759 1.6546-6.905-0.84896-1.2004-2.2814-1.8348-3.7366-1.7705-2.8008-0.12025-5.0706 2.9613-4.3071 5.6264 0.46708 2.2856 2.8611 3.8438 5.1353 3.4281 0.43313-0.0657 0.85728-0.19249 1.2538-0.37899z" opacity="1"/>
      <path d="m-127.04 141.18c-3.4638-0.3708-6.7899-2.011-9.077-4.6585-3.4258-3.6715-4.4633-9.2432-2.9175-13.974 1.5898-4.6847 5.7143-8.4126 10.584-9.3811 4.5052-0.92865 9.4481 0.39603 12.717 3.6785 4.1997 3.8933 5.5228 10.426 3.2805 15.678-1.1973 2.9654-3.5362 5.4237-6.2892 7.0069-2.5356 1.3391-5.4389 1.9574-8.2972 1.6501zm3.4364-10.173c2.5888-1.0953 3.486-4.759 1.6546-6.905-0.84897-1.2004-2.2814-1.8348-3.7366-1.7705-2.8007-0.12024-5.0706 2.9613-4.3071 5.6264 0.46707 2.2856 2.8611 3.8438 5.1352 3.4281 0.43313-0.0657 0.85729-0.1925 1.2538-0.379z" opacity="1"/>
      <path d="m326.76 141.18c-3.4637-0.3708-6.79-2.011-9.077-4.6585-3.4258-3.6715-4.4633-9.2432-2.9175-13.974 1.5898-4.6847 5.7143-8.4126 10.584-9.3811 4.5052-0.92865 9.4481 0.39603 12.717 3.6785 4.1997 3.8933 5.5228 10.426 3.2805 15.678-1.1973 2.9654-3.5362 5.4237-6.2892 7.0069-2.5356 1.3391-5.4389 1.9574-8.2972 1.6501zm3.4364-10.173c2.5888-1.0953 3.486-4.759 1.6546-6.905-0.84897-1.2004-2.2814-1.8348-3.7366-1.7705-2.8007-0.12024-5.0706 2.9613-4.3071 5.6264 0.46707 2.2856 2.8611 3.8438 5.1352 3.4281 0.43313-0.0657 0.85728-0.1925 1.2538-0.379z" opacity="1"/>
      <path d="m-142.57 167.1c-3.4638-0.37078-6.79-2.011-9.077-4.6585-3.4258-3.6715-4.4633-9.2431-2.9175-13.974 1.5898-4.6847 5.7143-8.4126 10.584-9.3811 4.5052-0.92865 9.4481 0.39602 12.717 3.6785 4.1997 3.8932 5.5228 10.426 3.2805 15.678-1.1973 2.9654-3.5362 5.4237-6.2892 7.0068-2.5356 1.3391-5.4389 1.9574-8.2972 1.6501zm3.4364-10.173c2.5888-1.0953 3.486-4.759 1.6546-6.905-0.84897-1.2004-2.2814-1.8348-3.7366-1.7705-2.8007-0.12024-5.0706 2.9613-4.3071 5.6264 0.46707 2.2855 2.8611 3.8438 5.1352 3.4281 0.43313-0.0657 0.85729-0.19248 1.2538-0.37898z" opacity="1"/>
      <path d="m341.52 167.1c-3.4637-0.37078-6.7899-2.011-9.077-4.6585-3.4258-3.6715-4.4633-9.2431-2.9175-13.974 1.5898-4.6847 5.7143-8.4126 10.584-9.3811 4.5052-0.92865 9.4481 0.39602 12.717 3.6785 4.1997 3.8932 5.5228 10.426 3.2805 15.678-1.1973 2.9654-3.5362 5.4237-6.2892 7.0068-2.5356 1.3391-5.4389 1.9574-8.2972 1.6501zm3.4364-10.173c2.5887-1.0953 3.486-4.759 1.6546-6.905-0.84897-1.2004-2.2814-1.8348-3.7366-1.7705-2.8008-0.12024-5.0706 2.9613-4.3071 5.6264 0.46708 2.2855 2.8611 3.8438 5.1353 3.4281 0.43313-0.0657 0.85728-0.19248 1.2538-0.37898z" opacity="1"/>
      <path d="m-127.82 193.58c-3.4637-0.3708-6.7899-2.011-9.077-4.6585-3.4258-3.6715-4.4633-9.2432-2.9175-13.974 1.5898-4.6847 5.7143-8.4126 10.584-9.3811 4.5052-0.92866 9.4481 0.39602 12.717 3.6785 4.1997 3.8933 5.5228 10.426 3.2805 15.678-1.1973 2.9654-3.5362 5.4238-6.2892 7.0069-2.5356 1.3391-5.4389 1.9574-8.2972 1.6501zm3.4364-10.173c2.5887-1.0953 3.486-4.759 1.6546-6.905-0.84896-1.2004-2.2814-1.8348-3.7366-1.7705-2.8008-0.12025-5.0706 2.9612-4.3071 5.6264 0.46707 2.2856 2.8611 3.8438 5.1353 3.4281 0.43313-0.0657 0.85727-0.19249 1.2538-0.379z" opacity="1"/>
      <path d="m325.98 193.58c-3.4637-0.3708-6.7899-2.011-9.077-4.6585-3.4258-3.6715-4.4633-9.2432-2.9175-13.974 1.5898-4.6847 5.7143-8.4126 10.584-9.3811 4.5052-0.92866 9.4481 0.39602 12.717 3.6785 4.1997 3.8933 5.5228 10.426 3.2805 15.678-1.1973 2.9654-3.5362 5.4238-6.2892 7.0069-2.5356 1.3391-5.4389 1.9574-8.2972 1.6501zm3.4364-10.173c2.5888-1.0953 3.486-4.759 1.6546-6.905-0.84897-1.2004-2.2814-1.8348-3.7366-1.7705-2.8008-0.12025-5.0706 2.9612-4.3071 5.6264 0.46707 2.2856 2.8611 3.8438 5.1352 3.4281 0.43313-0.0657 0.85728-0.19249 1.2538-0.379z" opacity="1"/>
      <path d="m-112.28 219.66c-3.4638-0.37078-6.79-2.011-9.077-4.6585-3.4258-3.6715-4.4633-9.2432-2.9175-13.974 1.5898-4.6847 5.7143-8.4126 10.584-9.3811 4.5052-0.92865 9.448 0.39603 12.717 3.6785 4.1997 3.8932 5.5227 10.426 3.2804 15.678-1.1973 2.9654-3.5361 5.4238-6.2892 7.0069-2.5356 1.3392-5.4388 1.9574-8.2971 1.6501zm3.4364-10.173c2.5887-1.0953 3.4859-4.759 1.6546-6.905-0.84896-1.2004-2.2814-1.8348-3.7366-1.7705-2.8007-0.12023-5.0706 2.9613-4.3071 5.6264 0.46708 2.2856 2.8611 3.8438 5.1353 3.4281 0.43313-0.0657 0.85728-0.19249 1.2538-0.37901z" opacity="1"/>
      <path d="m311.22 219.66c-3.4638-0.37078-6.79-2.011-9.077-4.6585-3.4258-3.6715-4.4633-9.2432-2.9175-13.974 1.5898-4.6847 5.7143-8.4126 10.584-9.3811 4.5052-0.92865 9.4481 0.39603 12.717 3.6785 4.1997 3.8932 5.5228 10.426 3.2805 15.678-1.1973 2.9654-3.5362 5.4238-6.2892 7.0069-2.5356 1.3392-5.4389 1.9574-8.2972 1.6501zm3.4364-10.173c2.5887-1.0953 3.486-4.759 1.6546-6.905-0.84897-1.2004-2.2814-1.8348-3.7366-1.7705-2.8008-0.12023-5.0706 2.9613-4.3071 5.6264 0.46708 2.2856 2.8611 3.8438 5.1353 3.4281 0.43313-0.0657 0.85728-0.19249 1.2538-0.37901z" opacity="1"/>
     </g>
     <g opacity=".3">
      <path d="m-97.135 36.76c-3.4637-0.37079-6.7899-2.011-9.077-4.6585-3.4258-3.6714-4.4633-9.2431-2.9175-13.974 1.5898-4.6847 5.7143-8.4125 10.584-9.381 4.5052-0.92865 9.4481 0.39602 12.717 3.6785 4.1997 3.8932 5.5227 10.426 3.2805 15.678-1.1973 2.9653-3.5361 5.4237-6.2892 7.0068-2.5356 1.3391-5.4389 1.9574-8.2971 1.6501zm3.4364-10.173c2.5887-1.0953 3.486-4.759 1.6546-6.905-0.84897-1.2004-2.2814-1.8348-3.7366-1.7705-2.8008-0.12024-5.0706 2.9612-4.3071 5.6263 0.46708 2.2855 2.8611 3.8438 5.1353 3.4281 0.43313-0.06573 0.85727-0.19249 1.2538-0.37899z" opacity="1"/>
      <path d="m296.08 36.76c-3.4638-0.37079-6.79-2.011-9.077-4.6585-3.4258-3.6714-4.4633-9.2431-2.9175-13.974 1.5898-4.6847 5.7143-8.4125 10.584-9.381 4.5052-0.92865 9.4481 0.39602 12.717 3.6785 4.1998 3.8932 5.5228 10.426 3.2805 15.678-1.1973 2.9653-3.5362 5.4237-6.2893 7.0068-2.5356 1.3391-5.4389 1.9574-8.2972 1.6501zm3.4364-10.173c2.5887-1.0953 3.486-4.759 1.6546-6.905-0.84896-1.2004-2.2814-1.8348-3.7366-1.7705-2.8008-0.12024-5.0706 2.9612-4.3071 5.6263 0.46708 2.2855 2.8611 3.8438 5.1353 3.4281 0.43313-0.06573 0.85728-0.19249 1.2538-0.37899z" opacity="1"/>
      <path d="m-111.89 62.836c-3.4638-0.37079-6.79-2.011-9.077-4.6585-3.4258-3.6714-4.4633-9.2431-2.9175-13.974 1.5898-4.6847 5.7143-8.4125 10.584-9.381 4.5052-0.92865 9.448 0.39602 12.717 3.6785 4.1997 3.8932 5.5227 10.426 3.2804 15.678-1.1973 2.9653-3.5361 5.4237-6.2892 7.0068-2.5356 1.3391-5.4388 1.9574-8.2971 1.6501zm3.4364-10.173c2.5887-1.0953 3.486-4.759 1.6546-6.905-0.84897-1.2004-2.2814-1.8348-3.7366-1.7705-2.8007-0.12024-5.0706 2.9612-4.3071 5.6263 0.46707 2.2855 2.8611 3.8438 5.1353 3.4281 0.43313-0.06573 0.85728-0.19249 1.2538-0.37899z" opacity="1"/>
      <path d="m311.61 62.836c-3.4638-0.37079-6.79-2.011-9.077-4.6585-3.4258-3.6714-4.4633-9.2431-2.9175-13.974 1.5898-4.6847 5.7143-8.4125 10.584-9.381 4.5052-0.92865 9.4481 0.39602 12.717 3.6785 4.1997 3.8932 5.5228 10.426 3.2805 15.678-1.1973 2.9653-3.5362 5.4237-6.2892 7.0068-2.5356 1.3391-5.4389 1.9574-8.2972 1.6501zm3.4364-10.173c2.5888-1.0953 3.486-4.759 1.6546-6.905-0.84897-1.2004-2.2814-1.8348-3.7366-1.7705-2.8007-0.12024-5.0706 2.9612-4.3071 5.6263 0.46707 2.2855 2.8611 3.8438 5.1353 3.4281 0.43313-0.06573 0.85728-0.19249 1.2538-0.37899z" opacity="1"/>
      <path d="m-127.43 88.76c-3.4637-0.37079-6.79-2.011-9.077-4.6585-3.4258-3.6715-4.4633-9.2431-2.9175-13.974 1.5898-4.6847 5.7143-8.4125 10.584-9.381 4.5052-0.92865 9.4481 0.39602 12.717 3.6785 4.1997 3.8932 5.5228 10.426 3.2805 15.678-1.1973 2.9653-3.5362 5.4237-6.2893 7.0068-2.5356 1.3391-5.4389 1.9574-8.2972 1.6501zm3.4364-10.173c2.5888-1.0953 3.486-4.759 1.6546-6.905-0.84897-1.2004-2.2814-1.8348-3.7366-1.7705-2.8007-0.12024-5.0706 2.9612-4.3071 5.6263 0.46708 2.2855 2.8611 3.8438 5.1353 3.4281 0.43313-0.06573 0.85728-0.19249 1.2538-0.37899z" opacity="1"/>
      <path d="m326.37 88.76c-3.4637-0.37079-6.7899-2.011-9.077-4.6585-3.4258-3.6715-4.4633-9.2431-2.9175-13.974 1.5898-4.6847 5.7143-8.4125 10.584-9.381 4.5052-0.92865 9.4481 0.39602 12.717 3.6785 4.1997 3.8932 5.5228 10.426 3.2805 15.678-1.1973 2.9653-3.5362 5.4237-6.2892 7.0068-2.5356 1.3391-5.4389 1.9574-8.2972 1.6501zm3.4364-10.173c2.5887-1.0953 3.486-4.759 1.6546-6.905-0.84897-1.2004-2.2814-1.8348-3.7366-1.7705-2.8008-0.12024-5.0706 2.9612-4.3071 5.6263 0.46708 2.2855 2.8611 3.8438 5.1353 3.4281 0.43313-0.06573 0.85728-0.19249 1.2538-0.37899z" opacity="1"/>
      <path d="m-142.57 115.1c-3.4638-0.3708-6.79-2.011-9.077-4.6585-3.4258-3.6715-4.4633-9.2432-2.9175-13.974 1.5898-4.6847 5.7143-8.4126 10.584-9.3811 4.5052-0.92865 9.4481 0.39603 12.717 3.6785 4.1997 3.8933 5.5228 10.426 3.2805 15.678-1.1973 2.9654-3.5362 5.4237-6.2892 7.0069-2.5356 1.3391-5.4389 1.9574-8.2972 1.6501zm3.4364-10.173c2.5888-1.0954 3.486-4.759 1.6546-6.905-0.84897-1.2004-2.2814-1.8348-3.7366-1.7705-2.8007-0.12025-5.0706 2.9613-4.3071 5.6264 0.46707 2.2856 2.8611 3.8438 5.1352 3.4281 0.43313-0.0657 0.85729-0.19249 1.2538-0.37899z" opacity="1"/>
      <path d="m341.52 115.1c-3.4637-0.3708-6.7899-2.011-9.077-4.6585-3.4258-3.6715-4.4633-9.2432-2.9175-13.974 1.5898-4.6847 5.7143-8.4126 10.584-9.3811 4.5052-0.92865 9.4481 0.39603 12.717 3.6785 4.1997 3.8933 5.5228 10.426 3.2805 15.678-1.1973 2.9654-3.5362 5.4237-6.2892 7.0069-2.5356 1.3391-5.4389 1.9574-8.2972 1.6501zm3.4364-10.173c2.5887-1.0954 3.486-4.759 1.6546-6.905-0.84897-1.2004-2.2814-1.8348-3.7366-1.7705-2.8008-0.12025-5.0706 2.9613-4.3071 5.6264 0.46708 2.2856 2.8611 3.8438 5.1353 3.4281 0.43313-0.0657 0.85728-0.19249 1.2538-0.37899z" opacity="1"/>
      <path d="m-157.33 141.18c-3.4637-0.3708-6.7899-2.011-9.077-4.6585-3.4258-3.6715-4.4633-9.2432-2.9175-13.974 1.5898-4.6847 5.7143-8.4126 10.584-9.3811 4.5052-0.92865 9.4481 0.39603 12.717 3.6785 4.1997 3.8933 5.5228 10.426 3.2805 15.678-1.1973 2.9654-3.5362 5.4237-6.2892 7.0069-2.5356 1.3391-5.4389 1.9574-8.2972 1.6501zm3.4364-10.173c2.5887-1.0953 3.486-4.759 1.6546-6.905-0.84897-1.2004-2.2814-1.8348-3.7366-1.7705-2.8008-0.12024-5.0706 2.9613-4.3071 5.6264 0.46707 2.2856 2.8611 3.8438 5.1353 3.4281 0.43313-0.0657 0.85727-0.1925 1.2538-0.379z" opacity="1"/>
      <path d="m357.05 141.18c-3.4638-0.3708-6.79-2.011-9.077-4.6585-3.4258-3.6715-4.4633-9.2432-2.9175-13.974 1.5898-4.6847 5.7143-8.4126 10.584-9.3811 4.5052-0.92865 9.448 0.39603 12.717 3.6785 4.1997 3.8933 5.5227 10.426 3.2805 15.678-1.1973 2.9654-3.5361 5.4237-6.2892 7.0069-2.5356 1.3391-5.4389 1.9574-8.2971 1.6501zm3.4364-10.173c2.5887-1.0953 3.486-4.759 1.6546-6.905-0.84897-1.2004-2.2814-1.8348-3.7366-1.7705-2.8008-0.12024-5.0706 2.9613-4.3071 5.6264 0.46708 2.2856 2.8611 3.8438 5.1353 3.4281 0.43312-0.0657 0.85727-0.1925 1.2538-0.379z" opacity="1"/>
      <path d="m371.81 167.1c-3.4637-0.37078-6.7899-2.011-9.077-4.6585-3.4258-3.6715-4.4633-9.2431-2.9175-13.974 1.5898-4.6847 5.7143-8.4126 10.584-9.3811 4.5052-0.92865 9.4481 0.39602 12.717 3.6785 4.1997 3.8932 5.5227 10.426 3.2805 15.678-1.1973 2.9654-3.5362 5.4237-6.2892 7.0068-2.5356 1.3391-5.4388 1.9574-8.2971 1.6501zm3.4364-10.173c2.5887-1.0953 3.4859-4.759 1.6546-6.905-0.84897-1.2004-2.2814-1.8348-3.7365-1.7705-2.8008-0.12024-5.0706 2.9613-4.3071 5.6264 0.46707 2.2855 2.8611 3.8438 5.1353 3.4281 0.43312-0.0657 0.85726-0.19248 1.2538-0.37898z" opacity="1"/>
      <path d="m-172.35 166.81c-3.4638-0.3708-6.7899-2.011-9.077-4.6585-3.4258-3.6715-4.4633-9.2432-2.9175-13.974 1.5898-4.6847 5.7143-8.4126 10.584-9.3811 4.5052-0.92865 9.4481 0.39602 12.717 3.6785 4.1997 3.8932 5.5228 10.426 3.2805 15.678-1.1973 2.9654-3.5362 5.4237-6.2892 7.0069-2.5356 1.3392-5.4389 1.9574-8.2972 1.6501zm3.4364-10.173c2.5888-1.0954 3.486-4.759 1.6546-6.905-0.84897-1.2004-2.2814-1.8348-3.7366-1.7705-2.8007-0.12025-5.0706 2.9612-4.3071 5.6264 0.46707 2.2856 2.8611 3.8438 5.1353 3.4281 0.43313-0.0657 0.85728-0.19249 1.2538-0.37899z" opacity="1"/>
      <path d="m-158.11 193.58c-3.4637-0.3708-6.7899-2.011-9.077-4.6585-3.4258-3.6715-4.4633-9.2432-2.9175-13.974 1.5898-4.6847 5.7143-8.4126 10.584-9.3811 4.5052-0.92866 9.4481 0.39602 12.717 3.6785 4.1997 3.8933 5.5228 10.426 3.2805 15.678-1.1973 2.9654-3.5362 5.4238-6.2892 7.0069-2.5356 1.3391-5.4389 1.9574-8.2972 1.6501zm3.4364-10.173c2.5887-1.0953 3.486-4.759 1.6546-6.905-0.84897-1.2004-2.2814-1.8348-3.7366-1.7705-2.8008-0.12025-5.0706 2.9612-4.3071 5.6264 0.46708 2.2856 2.8611 3.8438 5.1353 3.4281 0.43313-0.0657 0.85728-0.19249 1.2538-0.379z" opacity="1"/>
      <path d="m356.27 193.58c-3.4637-0.3708-6.79-2.011-9.077-4.6585-3.4258-3.6715-4.4633-9.2432-2.9175-13.974 1.5898-4.6847 5.7143-8.4126 10.584-9.3811 4.5052-0.92866 9.448 0.39602 12.717 3.6785 4.1997 3.8933 5.5228 10.426 3.2805 15.678-1.1973 2.9654-3.5362 5.4238-6.2892 7.0069-2.5356 1.3391-5.4389 1.9574-8.2972 1.6501zm3.4364-10.173c2.5887-1.0953 3.486-4.759 1.6546-6.905-0.84897-1.2004-2.2814-1.8348-3.7366-1.7705-2.8008-0.12025-5.0706 2.9612-4.3071 5.6264 0.46707 2.2856 2.8611 3.8438 5.1353 3.4281 0.43312-0.0657 0.85727-0.19249 1.2538-0.379z" opacity="1"/>
      <path d="m-142.58 219.66c-3.4637-0.37078-6.79-2.011-9.077-4.6585-3.4258-3.6715-4.4633-9.2432-2.9175-13.974 1.5898-4.6847 5.7143-8.4126 10.584-9.3811 4.5052-0.92865 9.4481 0.39603 12.717 3.6785 4.1997 3.8932 5.5228 10.426 3.2805 15.678-1.1973 2.9654-3.5362 5.4238-6.2892 7.0069-2.5356 1.3392-5.4389 1.9574-8.2972 1.6501zm3.4364-10.173c2.5888-1.0953 3.486-4.759 1.6546-6.905-0.84897-1.2004-2.2814-1.8348-3.7366-1.7705-2.8007-0.12023-5.0706 2.9613-4.3071 5.6264 0.46708 2.2856 2.8611 3.8438 5.1353 3.4281 0.43313-0.0657 0.85728-0.19249 1.2538-0.37901z" opacity="1"/>
      <path d="m341.52 219.66c-3.4637-0.37078-6.7899-2.011-9.077-4.6585-3.4258-3.6715-4.4633-9.2432-2.9175-13.974 1.5898-4.6847 5.7143-8.4126 10.584-9.3811 4.5052-0.92865 9.4481 0.39603 12.717 3.6785 4.1997 3.8932 5.5227 10.426 3.2805 15.678-1.1973 2.9654-3.5362 5.4238-6.2892 7.0069-2.5356 1.3392-5.4388 1.9574-8.2971 1.6501zm3.4364-10.173c2.5887-1.0953 3.486-4.759 1.6546-6.905-0.84897-1.2004-2.2814-1.8348-3.7365-1.7705-2.8008-0.12023-5.0706 2.9613-4.3071 5.6264 0.46708 2.2856 2.8611 3.8438 5.1353 3.4281 0.43312-0.0657 0.85726-0.19249 1.2538-0.37901z" opacity="1"/>
     </g>
     <g opacity=".2">
      <path d="m-157.72 36.76c-3.4637-0.37079-6.79-2.011-9.077-4.6585-3.4258-3.6714-4.4633-9.2431-2.9175-13.974 1.5898-4.6847 5.7143-8.4125 10.584-9.381 4.5052-0.92865 9.4481 0.39602 12.717 3.6785 4.1997 3.8932 5.5228 10.426 3.2805 15.678-1.1973 2.9653-3.5362 5.4237-6.2892 7.0068-2.5356 1.3391-5.4389 1.9574-8.2972 1.6501zm3.4364-10.173c2.5888-1.0953 3.486-4.759 1.6546-6.905-0.84897-1.2004-2.2814-1.8348-3.7366-1.7705-2.8007-0.12024-5.0706 2.9612-4.3071 5.6263 0.46707 2.2855 2.8611 3.8438 5.1352 3.4281 0.43313-0.06573 0.85728-0.19249 1.2538-0.37899z" opacity="1"/>
      <path d="m356.66 36.76c-3.4637-0.37079-6.7899-2.011-9.077-4.6585-3.4258-3.6714-4.4633-9.2431-2.9175-13.974 1.5898-4.6847 5.7143-8.4125 10.584-9.381 4.5052-0.92865 9.448 0.39602 12.717 3.6785 4.1997 3.8932 5.5227 10.426 3.2805 15.678-1.1973 2.9653-3.5362 5.4237-6.2892 7.0068-2.5356 1.3391-5.4388 1.9574-8.2972 1.6501zm3.4364-10.173c2.5887-1.0953 3.486-4.759 1.6546-6.905-0.84897-1.2004-2.2814-1.8348-3.7366-1.7705-2.8008-0.12024-5.0706 2.9612-4.3071 5.6263 0.46707 2.2855 2.8611 3.8438 5.1353 3.4281 0.43312-0.06573 0.85726-0.19249 1.2538-0.37899z" opacity="1"/>
      <path d="m-172.48 62.836c-3.4638-0.37079-6.7899-2.011-9.077-4.6585-3.4258-3.6714-4.4633-9.2431-2.9175-13.974 1.5898-4.6847 5.7143-8.4125 10.584-9.381 4.5052-0.92865 9.4481 0.39602 12.717 3.6785 4.1997 3.8932 5.5228 10.426 3.2805 15.678-1.1973 2.9653-3.5362 5.4237-6.2892 7.0068-2.5356 1.3391-5.4389 1.9574-8.2972 1.6501zm3.4364-10.173c2.5887-1.0953 3.486-4.759 1.6546-6.905-0.84897-1.2004-2.2814-1.8348-3.7366-1.7705-2.8008-0.12024-5.0706 2.9612-4.3071 5.6263 0.46707 2.2855 2.8611 3.8438 5.1353 3.4281 0.43313-0.06573 0.85727-0.19249 1.2538-0.37899z" opacity="1"/>
      <path d="m371.79 62.836c-3.4637-0.37079-6.79-2.011-9.077-4.6585-3.4258-3.6714-4.4633-9.2431-2.9175-13.974 1.5898-4.6847 5.7143-8.4125 10.584-9.381 4.5052-0.92865 9.4481 0.39602 12.717 3.6785 4.1997 3.8932 5.5228 10.426 3.2805 15.678-1.1973 2.9653-3.5362 5.4237-6.2892 7.0068-2.5356 1.3391-5.4389 1.9574-8.2972 1.6501zm3.4364-10.173c2.5887-1.0953 3.486-4.759 1.6546-6.905-0.84896-1.2004-2.2814-1.8348-3.7366-1.7705-2.8008-0.12024-5.0706 2.9612-4.3071 5.6263 0.46708 2.2855 2.8611 3.8438 5.1353 3.4281 0.43313-0.06573 0.85728-0.19249 1.2538-0.37899z" opacity="1"/>
      <path d="m386.55 88.76c-3.4638-0.37079-6.79-2.011-9.077-4.6585-3.4258-3.6715-4.4633-9.2431-2.9175-13.974 1.5898-4.6847 5.7143-8.4125 10.584-9.381 4.5052-0.92865 9.4481 0.39602 12.717 3.6785 4.1997 3.8932 5.5228 10.426 3.2805 15.678-1.1973 2.9653-3.5362 5.4237-6.2892 7.0068-2.5356 1.3391-5.4389 1.9574-8.2972 1.6501zm3.4364-10.173c2.5888-1.0953 3.486-4.759 1.6546-6.905-0.84897-1.2004-2.2814-1.8348-3.7366-1.7705-2.8007-0.12024-5.0706 2.9612-4.3071 5.6263 0.46707 2.2855 2.8611 3.8438 5.1352 3.4281 0.43313-0.06573 0.85729-0.19249 1.2538-0.37899z" opacity="1"/>
      <path d="m-187.49 88.468c-3.4637-0.37078-6.7899-2.011-9.077-4.6585-3.4258-3.6715-4.4633-9.2431-2.9175-13.974 1.5898-4.6847 5.7143-8.4125 10.584-9.381 4.5052-0.92865 9.4481 0.39602 12.717 3.6785 4.1997 3.8932 5.5228 10.426 3.2805 15.678-1.1973 2.9654-3.5362 5.4237-6.2892 7.0069-2.5356 1.3392-5.4389 1.9574-8.2972 1.6501zm3.4364-10.173c2.5888-1.0953 3.486-4.759 1.6546-6.905-0.84897-1.2004-2.2814-1.8348-3.7366-1.7705-2.8007-0.12024-5.0706 2.9612-4.3071 5.6263 0.46707 2.2856 2.8611 3.8438 5.1352 3.4281 0.43313-0.06573 0.85728-0.19249 1.2538-0.37899z" opacity="1"/>
     </g>
     <g opacity=".25">
      <path d="m-127.43 36.76c-3.4637-0.37079-6.79-2.011-9.077-4.6585-3.4258-3.6714-4.4633-9.2431-2.9175-13.974 1.5898-4.6847 5.7143-8.4125 10.584-9.381 4.5052-0.92865 9.4481 0.39602 12.717 3.6785 4.1997 3.8932 5.5228 10.426 3.2805 15.678-1.1973 2.9653-3.5362 5.4237-6.2893 7.0068-2.5356 1.3391-5.4389 1.9574-8.2972 1.6501zm3.4364-10.173c2.5888-1.0953 3.486-4.759 1.6546-6.905-0.84897-1.2004-2.2814-1.8348-3.7366-1.7705-2.8007-0.12024-5.0706 2.9612-4.3071 5.6263 0.46708 2.2855 2.8611 3.8438 5.1353 3.4281 0.43313-0.06573 0.85728-0.19249 1.2538-0.37899z" opacity="1"/>
      <path d="m326.37 36.76c-3.4637-0.37079-6.7899-2.011-9.077-4.6585-3.4258-3.6714-4.4633-9.2431-2.9175-13.974 1.5898-4.6847 5.7143-8.4125 10.584-9.381 4.5052-0.92865 9.4481 0.39602 12.717 3.6785 4.1997 3.8932 5.5228 10.426 3.2805 15.678-1.1973 2.9653-3.5362 5.4237-6.2892 7.0068-2.5356 1.3391-5.4389 1.9574-8.2972 1.6501zm3.4364-10.173c2.5887-1.0953 3.486-4.759 1.6546-6.905-0.84897-1.2004-2.2814-1.8348-3.7366-1.7705-2.8008-0.12024-5.0706 2.9612-4.3071 5.6263 0.46708 2.2855 2.8611 3.8438 5.1353 3.4281 0.43313-0.06573 0.85728-0.19249 1.2538-0.37899z" opacity="1"/>
      <path d="m-142.18 62.836c-3.4637-0.37079-6.7899-2.011-9.077-4.6585-3.4258-3.6714-4.4633-9.2431-2.9175-13.974 1.5898-4.6847 5.7143-8.4125 10.584-9.381 4.5052-0.92865 9.4481 0.39602 12.717 3.6785 4.1997 3.8932 5.5228 10.426 3.2805 15.678-1.1973 2.9653-3.5362 5.4237-6.2892 7.0068-2.5356 1.3391-5.4389 1.9574-8.2972 1.6501zm3.4364-10.173c2.5888-1.0953 3.486-4.759 1.6546-6.905-0.84897-1.2004-2.2814-1.8348-3.7366-1.7705-2.8007-0.12024-5.0706 2.9612-4.3071 5.6263 0.46707 2.2855 2.8611 3.8438 5.1352 3.4281 0.43313-0.06573 0.85728-0.19249 1.2538-0.37899z" opacity="1"/>
      <path d="m341.91 62.836c-3.4637-0.37079-6.79-2.011-9.077-4.6585-3.4258-3.6714-4.4633-9.2431-2.9175-13.974 1.5898-4.6847 5.7143-8.4125 10.584-9.381 4.5052-0.92865 9.448 0.39602 12.717 3.6785 4.1997 3.8932 5.5227 10.426 3.2805 15.678-1.1973 2.9653-3.5361 5.4237-6.2892 7.0068-2.5356 1.3391-5.4388 1.9574-8.2971 1.6501zm3.4364-10.173c2.5887-1.0953 3.486-4.759 1.6546-6.905-0.84897-1.2004-2.2814-1.8348-3.7366-1.7705-2.8008-0.12024-5.0706 2.9612-4.3071 5.6263 0.46708 2.2855 2.8611 3.8438 5.1353 3.4281 0.43312-0.06573 0.85727-0.19249 1.2538-0.37899z" opacity="1"/>
      <path d="m-157.72 88.76c-3.4637-0.37079-6.79-2.011-9.077-4.6585-3.4258-3.6715-4.4633-9.2431-2.9175-13.974 1.5898-4.6847 5.7143-8.4125 10.584-9.381 4.5052-0.92865 9.4481 0.39602 12.717 3.6785 4.1997 3.8932 5.5228 10.426 3.2805 15.678-1.1973 2.9653-3.5362 5.4237-6.2892 7.0068-2.5356 1.3391-5.4389 1.9574-8.2972 1.6501zm3.4364-10.173c2.5888-1.0953 3.486-4.759 1.6546-6.905-0.84897-1.2004-2.2814-1.8348-3.7366-1.7705-2.8007-0.12024-5.0706 2.9612-4.3071 5.6263 0.46707 2.2855 2.8611 3.8438 5.1352 3.4281 0.43313-0.06573 0.85728-0.19249 1.2538-0.37899z" opacity="1"/>
      <path d="m356.66 88.76c-3.4637-0.37079-6.7899-2.011-9.077-4.6585-3.4258-3.6715-4.4633-9.2431-2.9175-13.974 1.5898-4.6847 5.7143-8.4125 10.584-9.381 4.5052-0.92865 9.448 0.39602 12.717 3.6785 4.1997 3.8932 5.5227 10.426 3.2805 15.678-1.1973 2.9653-3.5362 5.4237-6.2892 7.0068-2.5356 1.3391-5.4388 1.9574-8.2972 1.6501zm3.4364-10.173c2.5887-1.0953 3.486-4.759 1.6546-6.905-0.84897-1.2004-2.2814-1.8348-3.7366-1.7705-2.8008-0.12024-5.0706 2.9612-4.3071 5.6263 0.46707 2.2855 2.8611 3.8438 5.1353 3.4281 0.43312-0.06573 0.85726-0.19249 1.2538-0.37899z" opacity="1"/>
      <path d="m371.81 115.1c-3.4637-0.3708-6.7899-2.011-9.077-4.6585-3.4258-3.6715-4.4633-9.2432-2.9175-13.974 1.5898-4.6847 5.7143-8.4126 10.584-9.3811 4.5052-0.92865 9.4481 0.39603 12.717 3.6785 4.1997 3.8933 5.5227 10.426 3.2805 15.678-1.1973 2.9654-3.5362 5.4237-6.2892 7.0069-2.5356 1.3391-5.4388 1.9574-8.2971 1.6501zm3.4364-10.173c2.5887-1.0954 3.4859-4.759 1.6546-6.905-0.84897-1.2004-2.2814-1.8348-3.7365-1.7705-2.8008-0.12025-5.0706 2.9613-4.3071 5.6264 0.46707 2.2856 2.8611 3.8438 5.1353 3.4281 0.43312-0.0657 0.85726-0.19249 1.2538-0.37899z" opacity="1"/>
      <path d="m386.94 141.18c-3.4638-0.3708-6.79-2.011-9.077-4.6585-3.4258-3.6715-4.4633-9.2432-2.9175-13.974 1.5898-4.6847 5.7143-8.4126 10.584-9.3811 4.5052-0.92865 9.4481 0.39603 12.717 3.6785 4.1997 3.8933 5.5228 10.426 3.2805 15.678-1.1973 2.9654-3.5362 5.4237-6.2892 7.0069-2.5356 1.3391-5.4389 1.9574-8.2972 1.6501zm3.4364-10.173c2.5887-1.0953 3.486-4.759 1.6546-6.905-0.84897-1.2004-2.2814-1.8348-3.7366-1.7705-2.8008-0.12024-5.0706 2.9613-4.3071 5.6264 0.46708 2.2856 2.8611 3.8438 5.1353 3.4281 0.43313-0.0657 0.85728-0.1925 1.2538-0.379z" opacity="1"/>
      <path d="m401.69 167.1c-3.4637-0.37078-6.79-2.011-9.077-4.6585-3.4258-3.6715-4.4633-9.2431-2.9175-13.974 1.5898-4.6847 5.7143-8.4126 10.584-9.3811 4.5052-0.92865 9.4481 0.39602 12.717 3.6785 4.1997 3.8932 5.5228 10.426 3.2805 15.678-1.1973 2.9654-3.5362 5.4237-6.2892 7.0068-2.5356 1.3391-5.4389 1.9574-8.2972 1.6501zm3.4364-10.173c2.5888-1.0953 3.486-4.759 1.6546-6.905-0.84897-1.2004-2.2814-1.8348-3.7366-1.7705-2.8008-0.12024-5.0706 2.9613-4.3071 5.6264 0.46707 2.2855 2.8611 3.8438 5.1352 3.4281 0.43313-0.0657 0.85728-0.19248 1.2538-0.37898z" opacity="1"/>
      <path d="m-172.87 115.1c-3.4637-0.3708-6.79-2.011-9.077-4.6585-3.4258-3.6715-4.4633-9.2432-2.9175-13.974 1.5898-4.6847 5.7143-8.4126 10.584-9.3811 4.5052-0.92865 9.4481 0.39603 12.717 3.6785 4.1997 3.8933 5.5228 10.426 3.2805 15.678-1.1973 2.9654-3.5362 5.4237-6.2892 7.0069-2.5356 1.3391-5.4389 1.9574-8.2972 1.6501zm3.4364-10.173c2.5888-1.0954 3.486-4.759 1.6546-6.905-0.84897-1.2004-2.2814-1.8348-3.7366-1.7705-2.8007-0.12025-5.0706 2.9613-4.3071 5.6264 0.46707 2.2856 2.8611 3.8438 5.1352 3.4281 0.43313-0.0657 0.85728-0.19249 1.2538-0.37899z" opacity="1"/>
      <path d="m386.16 193.58c-3.4638-0.3708-6.79-2.011-9.077-4.6585-3.4258-3.6715-4.4633-9.2432-2.9175-13.974 1.5898-4.6847 5.7143-8.4126 10.584-9.3811 4.5052-0.92866 9.4481 0.39602 12.717 3.6785 4.1997 3.8933 5.5228 10.426 3.2805 15.678-1.1973 2.9654-3.5362 5.4238-6.2892 7.0069-2.5356 1.3391-5.4389 1.9574-8.2972 1.6501zm3.4364-10.173c2.5888-1.0953 3.486-4.759 1.6546-6.905-0.84897-1.2004-2.2814-1.8348-3.7366-1.7705-2.8007-0.12025-5.0706 2.9612-4.3071 5.6264 0.46708 2.2856 2.8611 3.8438 5.1353 3.4281 0.43313-0.0657 0.85729-0.19249 1.2538-0.379z" opacity="1"/>
      <path d="m-172.87 219.66c-3.4638-0.37078-6.79-2.011-9.077-4.6585-3.4258-3.6715-4.4633-9.2432-2.9175-13.974 1.5898-4.6847 5.7143-8.4126 10.584-9.3811 4.5052-0.92865 9.4481 0.39603 12.717 3.6785 4.1997 3.8932 5.5228 10.426 3.2805 15.678-1.1973 2.9654-3.5362 5.4238-6.2892 7.0069-2.5356 1.3392-5.4389 1.9574-8.2972 1.6501zm3.4364-10.173c2.5888-1.0953 3.486-4.759 1.6546-6.905-0.84897-1.2004-2.2814-1.8348-3.7366-1.7705-2.8007-0.12023-5.0706 2.9613-4.3071 5.6264 0.46707 2.2856 2.8611 3.8438 5.1352 3.4281 0.43314-0.0657 0.85729-0.19249 1.2538-0.37901z" opacity="1"/>
      <path d="m371.4 219.66c-3.4637-0.37078-6.7899-2.011-9.077-4.6585-3.4258-3.6715-4.4633-9.2432-2.9175-13.974 1.5898-4.6847 5.7143-8.4126 10.584-9.3811 4.5052-0.92865 9.4481 0.39603 12.717 3.6785 4.1997 3.8932 5.5228 10.426 3.2805 15.678-1.1973 2.9654-3.5362 5.4238-6.2892 7.0069-2.5356 1.3392-5.4389 1.9574-8.2972 1.6501zm3.4364-10.173c2.5888-1.0953 3.486-4.759 1.6546-6.905-0.84896-1.2004-2.2814-1.8348-3.7366-1.7705-2.8008-0.12023-5.0706 2.9613-4.3071 5.6264 0.46707 2.2856 2.8611 3.8438 5.1352 3.4281 0.43313-0.0657 0.85728-0.19249 1.2538-0.37901z" opacity="1"/>
      <path d="m-188.41 193.58c-3.4638-0.3708-6.79-2.011-9.077-4.6585-3.4258-3.6715-4.4633-9.2432-2.9175-13.974 1.5898-4.6847 5.7143-8.4126 10.584-9.3811 4.5052-0.92866 9.4481 0.39602 12.717 3.6785 4.1998 3.8933 5.5228 10.426 3.2805 15.678-1.1973 2.9654-3.5362 5.4238-6.2893 7.0069-2.5356 1.3391-5.4389 1.9574-8.2972 1.6501zm3.4364-10.173c2.5887-1.0953 3.486-4.759 1.6546-6.905-0.84896-1.2004-2.2814-1.8348-3.7366-1.7705-2.8008-0.12025-5.0706 2.9612-4.3071 5.6264 0.46708 2.2856 2.8611 3.8438 5.1353 3.4281 0.43313-0.0657 0.85728-0.19249 1.2538-0.379z" opacity="1"/>
      <path d="m-186.69 141.11c-3.4637-0.3708-6.7899-2.011-9.077-4.6585-3.4258-3.6715-4.4633-9.2432-2.9175-13.974 1.5898-4.6847 5.7143-8.4126 10.584-9.3811 4.5052-0.92865 9.4481 0.39603 12.717 3.6785 4.1997 3.8933 5.5228 10.426 3.2805 15.678-1.1973 2.9654-3.5362 5.4237-6.2892 7.0069-2.5356 1.3391-5.4389 1.9574-8.2972 1.6501zm3.4364-10.173c2.5887-1.0953 3.486-4.759 1.6546-6.905-0.84897-1.2004-2.2814-1.8348-3.7366-1.7705-2.8008-0.12024-5.0706 2.9613-4.3071 5.6264 0.46707 2.2856 2.8611 3.8438 5.1353 3.4281 0.43313-0.0657 0.85727-0.1925 1.2538-0.379z" opacity="1"/>
     </g>
    </g>
   </g>
  </g>
 </g>
 <rect x=".0644" y="4.3935" width="573.6" height="201.75" fill="url(#linearGradient1326)" stop-color="#000000"/>
</svg>
