<?xml version="1.0" encoding="UTF-8"?>
<svg width="138.92mm" height="138.92mm" version="1.1" viewBox="0 0 138.92 138.92" xmlns="http://www.w3.org/2000/svg" xmlns:cc="http://creativecommons.org/ns#" xmlns:dc="http://purl.org/dc/elements/1.1/" xmlns:rdf="http://www.w3.org/1999/02/22-rdf-syntax-ns#">
 <defs>
  <filter id="filter16988" x="-.038758" y="-.047307" width="1.0775" height="1.0946" color-interpolation-filters="sRGB">
   <feFlood flood-color="rgb(254,254,254)" flood-opacity=".81176" result="flood"/>
   <feComposite in="flood" in2="SourceGraphic" operator="in" result="composite1"/>
   <feGaussianBlur in="composite1" result="blur" stdDeviation="1.48464"/>
   <feOffset dx="0" dy="0" result="offset"/>
   <feComposite in="SourceGraphic" in2="offset" result="composite2"/>
  </filter>
 </defs>
 <metadata>
  <rdf:RDF>
   <cc:Work rdf:about="">
    <dc:format>image/svg+xml</dc:format>
    <dc:type rdf:resource="http://purl.org/dc/dcmitype/StillImage"/>
   </cc:Work>
  </rdf:RDF>
 </metadata>
 <g transform="translate(-44.239 -65.104)">
  <g filter="url(#filter16988)">
   <g transform="matrix(.2457 0 0 .2457 -663.34 253.22)">
    <path transform="matrix(1.0769 0 0 1.0769 2879.9 -765.65)" d="m260.92 113.51c-5.8391 0.1566-11.548 3.1334-14.922 8.873-2.3592 4.0133-2.4239 4.4831-2.7051 19.564-0.2264 12.141-0.53657 15.453-1.4473 15.453-0.6374 0-11.673-1.58-24.523-3.5117-48.015-7.218-75.714-11.201-79.41-11.418-3.0909-0.18144-4.1163 0.15691-5.4394 1.791-2.9553 3.6496-1.6586 8.214 2.5742 9.0606l2.5254 0.50585-4.8301 9.4043c-2.657 5.1721-12.789 26.014-22.516 46.316-15.28 31.894-18.156 37.318-21.15 39.881-2.0536 1.7579-3.8561 4.2755-4.4219 6.1797-1.4265 4.801 0.88416 14.524 5.8301 24.541 7.6103 15.414 22.734 27.64 39.486 31.924 3.7365 0.95541 9.0592 1.4322 15.67 1.4043 11.302-0.0476 19.666-2.187 28.996-7.4199 14.889-8.3509 26.447-23.778 29.904-39.914 1.9375-9.0425 1.2368-12.112-3.8867-17.018-3.6738-3.5172-6.1973-8.34-25.133-48.035-11.577-24.269-20.735-44.241-20.35-44.381 0.562-0.20406 74.408 10.608 85.145 12.467l2.8301 0.49024v216.62l-36.637 0.2539c-35.104 0.24299-36.686 0.3241-37.869 1.9434-1.7045 2.3322-1.5466 6.0282 0.33008 7.7266 1.2637 1.1437 4.0725 1.4736 14.582 1.7109 7.1593 0.16179 48.21 0.27079 91.223 0.24219 76.378-0.0509 78.233-0.0918 79.439-1.7422 1.6736-2.2894 1.561-6.9664-0.20312-8.4316-1.1572-0.96112-8.5634-1.2464-37.869-1.457l-36.432-0.26172v-105.3c0-99.695 0.081-105.3 1.5234-105.31 3.2892-0.0352 79.051 11.62 79.777 12.273 0.43236 0.38858-8.5921 20.346-20.457 45.236-19.118 40.106-21.644 44.939-25.359 48.531-5.0999 4.9316-5.7564 7.7569-3.8476 16.553 4.6939 21.63 20.962 38.762 43.232 45.527 9.3207 2.8315 23.9 2.841 33.082 0.0215 22.533-6.9191 38.816-24.623 43.48-47.273 1.4098-6.8468 0.18489-11.047-4.3184-14.803-2.0567-1.7154-4.318-5.5186-10.901-18.915-1.8077 1.8421-3.1566 2.341-4.5311 2.9151 8.1611 16.486 10.41 22.386 7.475 23.996h2.8867l-0.59961 2.8301c-3.8217 18.076-17.211 33.801-33.74 39.627-7.9586 2.805-22.01 3.5203-29.254 1.4902-7.9827-2.237-14.949-6.5069-21.938-13.447-8.7672-8.7074-13.224-16.703-15.182-27.234l-0.52149-2.8066c-0.0276-6e-3 -0.29394-8e-3 -0.30859-0.0137-1.1928-0.49609 9.2528-19.538 23.078-48.367 7.0799-15.03 14.523-34.398 28.307-48.828 0.40943 0 12.945 18.343 19.588 32.096 2.923 6.1018 6.4314 12.934 8.6465 17.414 2.1975-0.51575 4.2847-0.46515 6.3073-0.0834-0.30797-0.64664-0.9878-1.986-1.2975-2.6353-0.90308-1.8932-0.94685-1.8175-1.9394-3.9023-11.254-23.638-20.461-43.52-20.461-44.182 0-0.82027 1.091-1.2031 3.4316-1.2031 2.5607 0 3.7782-0.49234 4.7891-1.9355 1.6813-2.4003 1.7556-6.2251 0.14648-7.5606-1.4853-1.2327-0.43994-1.0578-60.559-10.1-27.029-4.0652-49.432-7.6857-49.783-8.0449-0.3512-0.3592-0.76232-8.945-0.91406-19.08l-0.27539-18.428-2.6504-3.7734c-3.8956-5.5447-9.8659-8.2074-15.705-8.0508zm59.6 176.68c3.2256 0.69009 93.9 0.10073 95.859 0.0977 1.0995-2e-3 1.8698-0.21738 2.4883-0.55664h-98.434zm-174.8-131.06c0.6192-0.61922 16.424 25.823 38.238 74.906l10.438 23.486v4.6719c0 3.5985-0.69288 6.047-3.0195 10.664-7.8767 15.631-21.094 26.187-37.027 29.572-7.1793 1.5255-13.928 1.4686-20.023-0.16797-20.618-5.5353-36.485-21.982-39.596-41.041l-0.60352-3.6992h0.18359c-0.06295-0.0541-0.1836-0.10161-0.20312-0.16016-0.31248-0.9371 50.704-97.323 51.613-98.232zm-51.41 98.393c2.1784 1.8724 29.811 1.138 50.498 0.80273l49.588-0.80273h-50.135z" fill="#4d4d4d" stroke-width=".87058"/>
    <path d="m3283.9-498.06c-4.3175-1.3476-4.3095-0.6233 0.027 2.2326 4.8539 3.2304 7.2471 6.4733 5.5212 7.496-2.3019 1.3595-8.3066 1.7336-11.596 0.74828-5.6297-1.7088-14.105-8.9803-16.057-13.78-1.0306-2.5443 14.16-6.8473 20.877-5.8995 8.0705 1.1232 12.416 4.989 11.868 10.564-0.2377 2.3948 3.2654 15.905 4.1375 15.905 0.8727 0 2.8863-7.5583 2.6509-9.9407-0.7402-7.5457 8.9229-12.49 19.952-10.215 4.9121 0.99827 13.222 4.0036 13.217 4.7519 0 1.1232-3.3421 5.5004-6.4212 8.4565-3.5466 3.405-10.676 6.9222-14.046 6.9346-2.6231 4e-3 -8.5289-1.4966-8.5289-2.1577 0-1.2467 4.5247-5.8995 7.276-7.496 3.6897-2.1576 3.3158-2.9061-0.8055-1.6215-6.4331 2.0082-10.611 9.7169-11.119 19.837 0.731 8.6671-0.622 15.119 0.8427 18.383 0.5333 1.188-8.6019 1.9072-7.9505-0.42444 6.9091-24.733-3.7917-41.597-9.8448-43.774z" fill="#008000"/>
   </g>
   <circle cx="113.7" cy="134.57" r="58.548" fill="none" stop-color="#000000" stroke="#4d4d4d" stroke-width="3.8488"/>
   <path d="m69.143 133.24h26.53c0.47171 5.3447-4.1849 12.371-13.079 12.31-7.0217-0.0424-12.392-3.4594-13.451-12.31z" fill="#808080"/>
   <path d="m129.02 141.76h26.807c0.4717 5.3447-4.4626 12.371-13.357 12.31-7.0217-0.0424-12.392-3.4594-13.451-12.31z" fill="#008000"/>
  </g>
  <path d="m227.68 170.18 3.0734 13.909-6.425-0.56136-0.97577-19.606z" fill="#fff" stroke="#fff" stroke-width=".26458px"/>
 </g>
</svg>
