<?xml version="1.0" encoding="UTF-8" standalone="no"?>
<!-- Created with Inkscape (http://www.inkscape.org/) -->

<svg
   width="93.651421mm"
   height="93.75457mm"
   viewBox="0 0 93.651421 93.75457"
   version="1.1"
   id="svg6777"
   inkscape:version="1.1 (ce6663b3b7, 2021-05-25)"
   sodipodi:docname="grey-emblem.svg"
   xmlns:inkscape="http://www.inkscape.org/namespaces/inkscape"
   xmlns:sodipodi="http://sodipodi.sourceforge.net/DTD/sodipodi-0.dtd"
   xmlns="http://www.w3.org/2000/svg"
   xmlns:svg="http://www.w3.org/2000/svg"
   xmlns:rdf="http://www.w3.org/1999/02/22-rdf-syntax-ns#"
   xmlns:cc="http://creativecommons.org/ns#"
   xmlns:dc="http://purl.org/dc/elements/1.1/">
  <defs
     id="defs6771" />
  <sodipodi:namedview
     id="base"
     pagecolor="#ffffff"
     bordercolor="#666666"
     borderopacity="1.0"
     inkscape:pageopacity="0.0"
     inkscape:pageshadow="2"
     inkscape:zoom="0.35"
     inkscape:cx="-264.28571"
     inkscape:cy="-135.71429"
     inkscape:document-units="mm"
     inkscape:current-layer="layer1"
     showgrid="false"
     fit-margin-top="0"
     fit-margin-left="0"
     fit-margin-right="0"
     fit-margin-bottom="0"
     inkscape:window-width="1840"
     inkscape:window-height="1016"
     inkscape:window-x="80"
     inkscape:window-y="27"
     inkscape:window-maximized="1"
     inkscape:pagecheckerboard="0" />
  <metadata
     id="metadata6774">
    <rdf:RDF>
      <cc:Work
         rdf:about="">
        <dc:format>image/svg+xml</dc:format>
        <dc:type
           rdf:resource="http://purl.org/dc/dcmitype/StillImage" />
      </cc:Work>
    </rdf:RDF>
  </metadata>
  <g
     inkscape:label="Layer 1"
     inkscape:groupmode="layer"
     id="layer1"
     transform="translate(-18.564168,-19.224635)">
    <path
       style="display:inline;opacity:1;fill:#666666;fill-opacity:1;stroke:none;stroke-width:2.86287189;stroke-miterlimit:4;stroke-dasharray:none;stroke-opacity:1"
       d="M 60.450735,112.69108 C 49.007029,111.46603 38.017745,106.04707 30.461683,97.300069 19.143445,85.170144 15.715482,66.762182 20.822791,51.13272 26.075412,35.655083 39.702064,23.338837 55.789838,20.13909 70.674377,17.070971 87.004933,21.447495 97.803933,32.292347 111.67925,45.15508 116.05034,66.73991 108.64213,84.089839 104.68646,93.8869 96.959212,102.009 87.863394,107.23937 c -8.377177,4.42433 -17.969286,6.46704 -27.412659,5.45171 z M 71.804083,79.081287 c 8.552811,-3.61883 11.517155,-15.723054 5.46657,-22.813163 -2.804869,-3.965824 -7.537427,-6.062 -12.345086,-5.84938 -9.253244,-0.397246 -16.752626,9.783582 -14.230151,18.588737 1.543181,7.551113 9.452728,12.699354 16.96618,11.325948 1.431019,-0.217047 2.832335,-0.635958 4.142487,-1.252142 z"
       id="path1024"
       inkscape:connector-curvature="0" />
  </g>
</svg>
