<?xml version="1.0" encoding="UTF-8"?>
<svg width="155.84mm" height="42.005mm" version="1.1" viewBox="0 0 155.84 42.005" xmlns="http://www.w3.org/2000/svg" xmlns:xlink="http://www.w3.org/1999/xlink">
 <defs>
  <linearGradient id="linearGradient42151" x1="66.917" x2="67.099" y1="32.421" y2="46.425" gradientUnits="userSpaceOnUse">
   <stop stop-color="#9bb7f3" offset="0"/>
   <stop stop-color="#b3c8f6" offset="1"/>
  </linearGradient>
  <clipPath id="clipPath37599-7-6">
   <rect x="34.508" y="74.654" width="195.25" height="104.13"/>
  </clipPath>
  <linearGradient id="linearGradient36760" x1="36.036" x2="34.973" y1="31.809" y2="44.933" gradientUnits="userSpaceOnUse">
   <stop stop-color="#7d9ceb" offset="0"/>
   <stop stop-color="#9fbdf6" offset="1"/>
  </linearGradient>
  <linearGradient id="linearGradient55441" x1="19.494" x2="19.361" y1="40.638" y2="51.133" gradientUnits="userSpaceOnUse" xlink:href="#linearGradient55439"/>
  <linearGradient id="linearGradient55439">
   <stop stop-color="#5972ff" offset="0"/>
   <stop stop-color="#4965ff" stop-opacity="0" offset="1"/>
  </linearGradient>
  <linearGradient id="linearGradient42113" x1="109.97" x2="182.37" y1="154.27" y2="154.27" gradientUnits="userSpaceOnUse">
   <stop stop-color="#87a4ed" offset="0"/>
   <stop stop-color="#97b7f5" offset="1"/>
  </linearGradient>
  <linearGradient id="linearGradient55593" x1="137.2" x2="136.32" y1="40.989" y2="54.144" gradientUnits="userSpaceOnUse" xlink:href="#linearGradient55439"/>
  <clipPath id="clipPath37599-7">
   <rect x="34.508" y="74.654" width="195.25" height="104.13"/>
  </clipPath>
  <clipPath id="clipPath37595-3">
   <rect x="34.508" y="74.654" width="195.25" height="104.13"/>
  </clipPath>
  <clipPath id="clipPath37587-3">
   <rect x="34.508" y="74.654" width="195.25" height="104.13"/>
  </clipPath>
  <linearGradient id="linearGradient43157" x1="101.32" x2="101.51" y1="165.43" y2="158.83" gradientUnits="userSpaceOnUse">
   <stop stop-color="#00e65b" offset="0"/>
   <stop stop-color="#0081c4" offset="1"/>
  </linearGradient>
  <linearGradient id="linearGradient40855" x1="104.73" x2="104.81" y1="164.92" y2="176.6" gradientUnits="userSpaceOnUse">
   <stop stop-color="#00c54e" offset="0"/>
   <stop stop-color="#00a03f" offset="1"/>
  </linearGradient>
  <linearGradient id="linearGradient17187" x1="72.143" x2="202.49" y1="135.92" y2="135.92" gradientTransform="matrix(.30531 0 0 .30531 -182.59 357.82)" gradientUnits="userSpaceOnUse">
   <stop stop-color="#b29931" offset="0"/>
   <stop stop-color="#5c4407" offset="1"/>
  </linearGradient>
  <linearGradient id="linearGradient17179" x1="65.057" x2="210.48" y1="90.181" y2="90.181" gradientTransform="matrix(.30531 0 0 .30531 -182.59 357.82)" gradientUnits="userSpaceOnUse">
   <stop stop-color="#9d592b" offset="0"/>
   <stop stop-color="#d08757" offset="1"/>
  </linearGradient>
  <linearGradient id="linearGradient17177" x1="89.496" x2="90.909" y1="145.81" y2="170.93" gradientTransform="matrix(.26666 0 0 .26666 -178.93 360.82)" gradientUnits="userSpaceOnUse" xlink:href="#linearGradient4582"/>
  <linearGradient id="linearGradient4582">
   <stop stop-color="#784421" offset="0"/>
   <stop stop-color="#784421" stop-opacity="0" offset="1"/>
  </linearGradient>
  <linearGradient id="linearGradient17175" x1="31.617" x2="138.18" y1="217.62" y2="217.62" gradientTransform="matrix(.30531 0 0 .30531 -182.59 357.82)" gradientUnits="userSpaceOnUse">
   <stop stop-color="#9c582b" offset="0"/>
   <stop stop-color="#cf8551" stop-opacity=".99608" offset="1"/>
  </linearGradient>
  <linearGradient id="linearGradient17173" x1="140.24" x2="31.749" y1="186.42" y2="180.95" gradientTransform="matrix(.30531 0 0 .30531 -182.59 357.82)" gradientUnits="userSpaceOnUse">
   <stop stop-color="#e1b292" offset="0"/>
   <stop stop-color="#cf8551" stop-opacity=".99608" offset="1"/>
  </linearGradient>
  <linearGradient id="linearGradient17171" x1="225.2" x2="169.34" y1="218.15" y2="199.49" gradientTransform="matrix(.30531 0 0 .30531 -182.59 357.82)" gradientUnits="userSpaceOnUse">
   <stop stop-color="#a05a2c" offset="0"/>
   <stop stop-color="#784421" offset="1"/>
  </linearGradient>
  <linearGradient id="linearGradient17169" x1="200.18" x2="199.28" y1="140.59" y2="168.52" gradientTransform="matrix(.22221 0 0 .25499 -165.79 364.4)" gradientUnits="userSpaceOnUse" xlink:href="#linearGradient4582"/>
  <clipPath id="clipPath908-3-6">
   <ellipse cx="102.8" cy="142.71" rx="16.567" ry="26.422" fill="#540" opacity=".8" stroke="#000" stroke-linejoin="bevel" stroke-width=".558" style="paint-order:markers stroke fill"/>
  </clipPath>
  <clipPath id="clipPath946-6-9">
   <ellipse cx="191.41" cy="131.01" rx="7.7861" ry="26.229" fill="#540" opacity=".8" stroke="#000" stroke-linejoin="bevel" stroke-width=".38113" style="paint-order:markers stroke fill"/>
  </clipPath>
  <linearGradient id="linearGradient17167" x1="699.99" x2="696.65" y1="67.032" y2="57.916" gradientTransform="matrix(.30531 0 0 .30531 -333.91 358.5)" gradientUnits="userSpaceOnUse">
   <stop stop-color="#502d16" offset="0"/>
   <stop stop-color="#cb8353" stop-opacity=".0092243" offset="1"/>
  </linearGradient>
  <radialGradient id="radialGradient17165" cx="713.26" cy="45.846" r="8.2776" gradientTransform="matrix(.35037 -.3686 .66149 .62879 -395.1 608.25)" gradientUnits="userSpaceOnUse">
   <stop stop-color="#502d16" offset="0"/>
   <stop stop-color="#cd8454" offset="1"/>
  </radialGradient>
  <linearGradient id="linearGradient17163" x1="700.33" x2="696.65" y1="66.593" y2="57.916" gradientTransform="matrix(.30531 .083802 0 .30531 -342.57 302.64)" gradientUnits="userSpaceOnUse">
   <stop stop-color="#502d16" offset="0"/>
   <stop stop-color="#cb8353" stop-opacity=".0091424" offset="1"/>
  </linearGradient>
  <linearGradient id="linearGradient17161" x1="700.33" x2="696.65" y1="66.593" y2="57.916" gradientTransform="matrix(-.30531 .083802 0 .30531 63.733 302.64)" gradientUnits="userSpaceOnUse">
   <stop stop-color="#502d16" offset="0"/>
   <stop stop-color="#cb8353" stop-opacity=".0012917" offset="1"/>
  </linearGradient>
  <radialGradient id="radialGradient17159" cx="552.88" cy="45.989" r="6.3307" gradientTransform="matrix(-.56979 -.48604 .42662 -.50012 129.75 665.93)" gradientUnits="userSpaceOnUse">
   <stop stop-color="#bc7445" offset="0"/>
   <stop stop-color="#774421" offset="1"/>
  </radialGradient>
  <linearGradient id="linearGradient17157" x1="700.14" x2="696.65" y1="66.962" y2="57.916" gradientTransform="matrix(-.3164 -.011304 -.091274 .29135 63.592 365.48)" gradientUnits="userSpaceOnUse">
   <stop stop-color="#502d16" offset="0"/>
   <stop stop-color="#cb8353" stop-opacity=".00058337" offset="1"/>
  </linearGradient>
  <linearGradient id="linearGradient16092" x1="421.46" x2="458.99" y1="81.216" y2="80.958" gradientUnits="userSpaceOnUse">
   <stop stop-color="#d1a448" offset="0"/>
   <stop stop-color="#9b7527" stop-opacity=".9918" offset="1"/>
  </linearGradient>
  <linearGradient id="linearGradient15113" x1="439.64" x2="412.56" y1="53.484" y2="53.871" gradientUnits="userSpaceOnUse">
   <stop stop-color="#96312a" offset="0"/>
   <stop stop-color="#65211c" stop-opacity=".9959" offset="1"/>
  </linearGradient>
  <linearGradient id="linearGradient15105" x1="419.65" x2="452.28" y1="64.964" y2="65.351" gradientUnits="userSpaceOnUse">
   <stop stop-color="#c33f37" offset="0"/>
   <stop stop-color="#b33a33" stop-opacity=".98039" offset="1"/>
  </linearGradient>
  <linearGradient id="linearGradient15121" x1="367.11" x2="367.22" y1="87.487" y2="90.811" gradientUnits="userSpaceOnUse">
   <stop stop-color="#916f6f" offset="0"/>
   <stop stop-color="#685050" stop-opacity=".9918" offset="1"/>
  </linearGradient>
  <linearGradient id="linearGradient59952" x1="108.08" x2="107.78" y1="176.83" y2="163.5" gradientUnits="userSpaceOnUse">
   <stop stop-color="#c59d00" offset="0"/>
   <stop stop-color="#ffd11b" offset="1"/>
  </linearGradient>
  <linearGradient id="linearGradient27072" x1="421.46" x2="458.99" y1="81.216" y2="80.958" gradientUnits="userSpaceOnUse" xlink:href="#linearGradient16092"/>
  <clipPath id="clipPath19827">
   <rect x="-.62165" y="31.11" width="155.84" height="42.005" ry=".24036" fill="#ccc"/>
  </clipPath>
 </defs>
 <g transform="translate(.62165 -31.11)">
  <g clip-path="url(#clipPath19827)">
   <g transform="matrix(1.0038 0 0 1 -.42018 25.707)">
    <path d="m0.12636 48.272-0.12636-15.008c8.1333 4.313 17.409 3.8164 25.916 4.6462l20.652-0.81423c5.5643-2.809 10.5-4.2281 14.986-4.6553 3.7218 4.298 7.7419 7.8208 11.623 9.6968 5.2233-1.8647 3.3821-1.718 9.3455 1.7607 3.5455-3.1956 10.433-6.6687 15.208-8.2884 6.0995 3.4943 9.8126 3.8388 17.707 3.7798l25.081-0.50287c4.6879-1.1498 9.1024-1.6313 14.606-4.5928l-0.20897 17.69-154.45-0.31597" fill="url(#linearGradient42151)"/>
    <path transform="matrix(.85527 0 0 .94042 -85.796 -74.829)" d="m146.34 113.86c1.4333 0.86188 1.6505 0.26727 3.2525 0.2405 1.9941 0.3378 2.2598 0.37971 3.074 0.24187 1.7867-0.99493 4.4519 0.081 5.8989-0.27229-0.7532-0.47994-2.8116 0.13228-2.9644-1.1219-1.2445-0.90277-1.7902-1.2271-2.4952-0.69913-1.0574 0.99535-0.89823 0.57957-2.115 0.56486-1.4409-0.95525-3.5327-1.2777-4.6266-8e-3 -2.4228 0.10306-2.2999 0.54046-4.632 0.61008 1.6626-0.0572 2.968 0.19954 4.6077 0.44399z" clip-path="url(#clipPath37599-7-6)" fill="#fff" fill-opacity=".92941" fill-rule="evenodd" opacity=".8"/>
    <path d="m0 50.443v-11.224c3.9698 0.16764 7.6372 1.1094 11.607-0.45998 10.736-10.101 11.639-7.3262 16.613-8.6221l8.6814-2.4351c0.85822 1.1236 7.9982 7.423 16.171 10.525 8.0555 3.0576 17.317 1.3257 17.338 1.3049 4.0738 3.7099 6.6554 6.7883 9.9455 10.167z" fill="url(#linearGradient36760)"/>
    <path d="m0.1213 51.582 0.086978-7.4748c6.9985-1.2397 5.5035-3.0405 22.679-3.608 18.78 1.5521 15.449 2.6471 23.174 3.9707 0.7584-0.96505 3.6373-2.0284 9.5824-3.2339 13.501-0.37507 15.624 2.9096 23.254 4.4229l-23.137 10.951z" fill="url(#linearGradient55441)"/>
    <path transform="translate(-26.945,-115.51)" d="m109.97 163.02c2.2205-2.9205 5.513-5.1246 9.7161-6.4357 5.5611 1.7331 9.9535-0.11897 11.971-0.66636 0 0 6.9692-2.5463 11.861-7.376l4.4959-4.439c3.996 1.209 7.1011-0.76169 10.117-2.5043 2.331-0.52866 10.796 12.047 13.074 12.231 3.3822 0.27374 4.2494 3.1732 10.927 7e-3l-0.32268 13.367z" fill="url(#linearGradient42113)"/>
    <path d="m83.754 46.125c3.1545-1.1504 4.3114-3.5414 10.596-2.7479 4.9593-0.45536 12.838-1.8832 15.33-1.0452 18.224-0.11668 1.1829 2.7553 7.0958 4.3234 6.2324-2.082 7.6611-4.4251 18.703-6.2455 13.898 0.92851 13.045 2.9042 19.52 4.3597l-0.0899 10.587z" fill="url(#linearGradient55593)"/>
   </g>
   <g transform="translate(-.42018 -6.8489)" fill="#fff" fill-rule="evenodd">
    <path transform="matrix(.86074 0 0 .94643 -13.435 -42.983)" d="m146.34 113.86c1.4333 0.86188 1.6505 0.26727 3.2525 0.2405 1.9941 0.3378 2.2598 0.37971 3.074 0.24187 1.7867-0.99493 4.4519 0.081 5.8989-0.27229-0.7532-0.47994-2.8116 0.13228-2.9644-1.1219-1.2445-0.90277-1.7902-1.2271-2.4952-0.69913-1.0574 0.99535-0.89823 0.57957-2.115 0.56486-1.4409-0.95525-3.5327-1.2777-4.6266-8e-3 -2.4228 0.10306-2.2999 0.54046-4.632 0.61008 1.6626-0.0572 2.968 0.19954 4.6077 0.44399z" clip-path="url(#clipPath37599-7)" fill-opacity=".92941" opacity=".8"/>
    <path transform="matrix(.46309 0 0 .43081 15.623 -7.5177)" d="m58.077 111.93c-5.2149 1.0414-10.055 1.9734-15.071 1.1491-4.2564-2.3702-10.606 0.19302-14.053-0.64866 1.7943-1.1434 6.6979 0.31512 7.0619-2.6727 2.9647-2.1506 4.2648-2.9232 5.9443-1.6655 2.5189 2.3712 4.3608-4.6863 7.2594-4.7214 3.4325-2.2756 6.1948 3.0233 8.8009 6.0481 5.7717 0.2455 9.7444 2.2971 15.3 2.463-3.9277-0.0737-12.089-0.42551-15.242 0.0481z" clip-path="url(#clipPath37595-3)" opacity=".699"/>
    <g fill-opacity=".92941">
     <path transform="matrix(1.2216,0,0,1.4712,-226.95,-140.74)" d="m207.66 132.36c-1.9442 1.1523-2.2389 0.35733-4.412 0.32155-2.705 0.45162-3.0654 0.50765-4.1699 0.32337-4.3789 0.0664-6.039 0.10833-8.0019-0.36405 1.0217-0.64167 5.1962-0.46492 5.4035-2.1418 0.95635-2.3988 1.3714-1.9156 2.3277-1.2098 1.4343 1.3308 0.89319 1.6917 2.5437 1.672 1.9545-1.2772 4.7921-1.7082 6.276-0.0106 3.2865 0.13778 3.1198 0.72258 6.2832 0.81566-2.2554-0.0765-4.026 0.26679-6.2504 0.59362z" clip-path="url(#clipPath37587-3)" opacity=".804"/>
     <path transform="matrix(-1.1341,0,0,1.2685,366.56,-114.32)" d="m207.66 133.22c-1.9442 1.1523-2.2389-0.50324-4.412-0.53902-2.705 0.45162-3.0654 0.50765-4.1699 0.32337-4.3789 0.0664-6.039 0.10833-8.0019-0.36405 1.0217-0.64167 5.1962-0.46492 5.4035-2.1418 0.95635-2.3988 2.045-1.9242 3.0013-1.2183 1.4343 1.3308 0.21958 1.7002 1.8701 1.6806 1.9545-1.2772 4.7921-0.84764 6.276 0.84997 3.2865 0.13778 3.759 0.66504 6.9224 0.75812-2.2554-0.0765-4.6652 0.32433-6.8896 0.65116z" clip-path="url(#clipPath37587-3)" opacity=".804"/>
    </g>
   </g>
   <g transform="matrix(1.0024 0 0 1 -27.438 -90.013)">
    <path d="m49.382 169.61c42.849-9.1902 75.998-13.082 113.54 0l1.573 4.6247h-113.43z" fill="url(#linearGradient43157)"/>
    <path d="m105.64 166.42 5.589 0.13935c-4.9269-1.9085-4.7988-3.3357-3.6393-3.5158 2.2032-0.34211 2.409-0.96013 1.2394-1.4929-0.10394-0.0472 0 0-0.40994-0.0285 0.47686 0.26768 0.75028 0.59222-0.91089 0.72863-2.4145 0.19836-5.4057 1.8794-1.8682 4.1691z" fill="#d2ae26" filter="url(#filter1073)" opacity=".9"/>
    <path d="m27.012 173.21-0.11597-10.984c2.4748-1.2447 3.9358 0.59336 7.1349 0.91709 1.6359 0.16555 4.1314-3.0856 6.6107-1.0937 2.1101-1.5629 4.0514-2.5299 6.0946-1.2515 2.2779 1.4252 6.6329-2.8602 9.5221-2.8127 6.4633 2.0226 17.603-4.7396 17.858 3.3368 2.2127-1.7932 4.068-0.10862 5.7907-1.4998 1.5903-1.2843 4.5647-2.6031 7.5536 0.0993 1.4169 1.2811 4.4147-1.5375 5.6562-1.5314 5.7782 0.32291 3.6941 3.3332 4.8978 6.2716l-0.61466 4.217z" fill="#007b80"/>
    <path d="m116.64 165.23c1.6549-2.0894 2.1038-3.4958 6.0332-4.0777 0.79291-2.8735 4.4823-2.0622 6.8902 0.25226 3.169-1.0189 5.5651-4.9915 9.2645-1.1592 0 0 7.4044-0.78124 18.2-2.1538 2.7625-0.35122 5.1116 2.2652 5.2777 2.3026 4.5622 1.0262 4.3101 0.41041 5.2389 2.1701 1.7351-4.3898 4.4454-3.5876 7.152-2.8054 6.1828-2.1182 5.774 1.7603 7.3718 3.354l-0.21768 15.471z" fill="#007b80"/>
    <path d="m27.582 179.78 0.12671-5.9112c57.951-13.34 97.39-11.295 153.54-1.4162l0.51158 10.33" fill="url(#linearGradient40855)"/>
    <g transform="matrix(1.2095 -.095251 .10326 1.1157 -209.07 113.51)">
     <g transform="matrix(.14209 .012132 -.013201 .15462 269.67 6.4905)">
      <g fill="#b3b3b3" stroke="#000">
       <path d="m-138.17 426.5-1.2074 0.53473s-3.1983 1.4698-0.48093 2.3062c2.0141 2.5461 5.524-0.32802 7.4955-0.55199l4.4508-0.50447s2.7456 7e-3 1.6722-1.288c0.17006-2.0461-2.8354-1.6041-4.1076-2.0412l-2.1243-0.73035c-2.3799 1.47-3.9834 0.17761-5.6983 2.2751z" stroke-width=".063157px"/>
       <path d="m-131.79 431.51s-3.3257 2.4432-0.48114 3.306c2.1084 2.6267 6.4112 1.7701 8.475 1.539l4.0306-2.629s2.8741 7e-3 1.7505-1.3287c0.17801-2.1109-2.9681-1.6549-4.2999-2.1059l-3.5993 0.41438c-3.7024 1.1114-3.0323-0.43698-5.8758 0.8041z" stroke-width=".065633px"/>
       <path d="m-121.57 439.82s-6.3209 1.1305-3.1612 2.089c2.342 2.9177 7.1214 1.9662 9.4139 1.7096l4.4771-2.9202s3.1925 8e-3 1.9444-1.476c0.19773-2.3447-0.48597-3.6397-1.9653-4.1407-1.1644 0.6288-3.4626 0.87356-5.6546 1.1542-4.1125 1.2345-1.8958 2.2056-5.0543 3.5841z" stroke-width=".072905px"/>
       <g stroke-width=".080781px">
        <path d="m-136.42 439.45c-2.2637-2.186-3.8926-1.0813-6.7178-0.32693 0 0-6.7036-0.76638-2.9316 2.3883 1.8051 2.3512 0.75567 4.2021 8.3491 1.5653 0 0 3.5455 1.9881 3.8098-0.18965l0.26437-2.1778z"/>
        <path d="m-151.94 437.65c-4.644 1.4492-1.0429-0.36714-3.6004-0.0217 0 0-1.5863-2.1726-3.6092 3.21 0.57211 1.0486-0.48626 3.5357 3.4542 2.1673 0 0 6.9456 2.4549 6.4446 0.31912l-1.1347-4.837z"/>
        <path d="m-164.38 434.48c-4.4158 1.3762-0.89076 0.56603-5.3446 1.9128 0.57211 1.0486-2.2252 3.9589 1.7153 2.5905 0 0 3.9729 3.2607 5.348 1.5514l1.2948-1.6095c1.5459-1.22 2.1511-2.571 0.54006-3.4428z"/>
        <path d="m-172.3 430c-4.4158 1.3762 0.2308-0.71916-4.223 0.62756-3.4708 1.1976-2.5241 2.07-1.2462 2.931 1.674 1.128 4.5514 2.0127 5.2056 1.33 0.7741-1.0767 3.6838 6.1e-4 4.2906-2.0326 0.15063-0.63752-0.42197-1.0468-2.2127-2.346z"/>
        <path d="m-177.77 423.41c-3.1692-0.87809-1.9464 0.63803-2.7831 1.9332-0.95294 1.4752-2.1539 2.8542-1.379 3.5754 1.674 1.128 3.2442 0.0627 3.8984-0.62011 0.77409-1.0767 3.2782 0.93091 3.885-1.1023 0.15063-0.63752-1.9596-1.2017-0.63693-2.9492z"/>
        <path d="m-176.11 417.92c-3.1692-0.87809-2.0918 0.0962-2.9284 1.3914-0.42326 0.65525-0.16246 1.2501-0.48871 1.8181 4.236 1.0654 5.2982 1.4195 5.6862 0.87256 0.77409-1.0767 0.86062-0.81518 1.4674-2.8484-2.2527-1.6469-3.7364-1.2337-3.7364-1.2337z"/>
        <path d="m-171.36 412.73c0.54358 0.43978-0.44077 0.6822-2.9284 1.3914-0.75017 0.21386-1.6319 1.1406-1.9581 1.7086 4.236 1.0654 6.7676 1.529 7.1556 0.98205 0.7741-1.0767 0.86062-0.81518 1.4674-2.8484-2.2527-1.6469-3.7364-1.2337-3.7364-1.2337z"/>
        <path d="m-103.31 432.36c3.1429 0.15737 2.2015-2.3112 3.8333-4.7379 0 0 1.9481-0.53195-2.9681-0.42676-2.9062-0.58347-2.2785-0.83009-3.7129 1.0126 0 0-3.9782 0.83481-2.7448 2.649l4.0069 2.4586z"/>
        <path d="m-97.507 423.9c2.9464-1.1051-1.7758-0.30563-1.2434-3.181-1.81-1.1503-2.421-1.9677-4.7421 0.48273 1.5752 1.2899-0.50083 3.779-0.18514 3.8038l5.0955 0.40165z"/>
        <path d="m-101.79 418.53c2.9464-1.1051-2.1355-0.23455-1.603-3.1099-0.97954-0.62256-2.8907 0.0477-3.4553-0.21574-0.47858-0.22331 0.4248-1.5462-0.64012-0.42194 1.5752 1.2899-0.50082 3.779-0.18513 3.8038l3.4368 1.2064z"/>
       </g>
      </g>
      <ellipse cx="-139.18" cy="426.15" rx="37.516" ry="13.758" fill="#4d4d4d" opacity=".3" style="paint-order:markers stroke fill"/>
      <path d="m-159.53 418.35 20.867-6.8391 16.362 5.4152 1.4939-36.64-27.309 0.95897-12.405 5.5585z" fill="url(#linearGradient17187)" stroke="#000" stroke-width=".080781px"/>
      <g stroke="#000">
       <path d="m-143.82 399.42c3.3678-9.7849 14.155-4.3285 14.581-3.3423 2.183 5.0577 1.2245 22.627 1.8697 22.388 2.927-1.0846 7.0296-2.4255 8.8712-4.9366l-0.0203-42.537c-0.90824-24.361-42.963-25.627-44.419 1.5236l0.82908 33.786c-0.078 0.59058-1.8548 7.9146-0.82138 10.472 2.5499 6.3089 12.261 5.9252 18.365 4.6798l0.74451-22.032" fill="url(#linearGradient17179)" stroke-width=".080781px"/>
       <ellipse cx="-154.5" cy="398.18" rx="4.9852" ry="9.2362" fill="#b67041" stroke-linejoin="bevel" stroke-width=".18097" style="paint-order:markers stroke fill"/>
       <ellipse cx="-154.81" cy="398.18" rx="3.57" ry="7.051" fill="url(#linearGradient17177)" stroke-linejoin="bevel" stroke-width=".13381" style="paint-order:markers stroke fill"/>
       <g stroke-width=".080781px">
        <path d="m-172.9 413.07 0.17972 8.917c-6.1e-4 12.119 29.212 14.814 32.104 12.856l0.17151-6.0618-17.675-5.7641" fill="url(#linearGradient17175)"/>
        <path d="m-162.11 406.3c-4.324 0.53255-10.766 1.6316-10.792 8.3837-0.30149 12.027 17.652 15.023 32.455 14.096l-4.1199-7.3282c-7.0553 0.4886-18.853-1.1455-17.785-10.583 0.16676-1.4736-0.034-2.7157 0.2414-4.5687z" fill="url(#linearGradient17173)"/>
        <path d="m-114.59 430.68 0.31432-8.1281-12.861-4.373c-0.89199-15.513 2.5639-25.289-9.7347-24.564 8.8631 0.45399 5.6104 20.591 5.3202 28.803-9e-3 0.2511 16.965 8.0326 16.961 8.2619" fill="url(#linearGradient17171)"/>
       </g>
       <g stroke-linejoin="bevel">
        <ellipse cx="-122.12" cy="397.74" rx="2.6244" ry="7.796" fill="#ae6839" stroke-width=".12064" style="paint-order:markers stroke fill"/>
        <ellipse cx="-121.77" cy="397.74" rx="1.7301" ry="6.6881" fill="url(#linearGradient17169)" stroke-width=".090722" style="paint-order:markers stroke fill"/>
        <ellipse transform="matrix(.21549 0 0 .26686 -175 360.79)" cx="93.415" cy="140.15" rx="16.567" ry="26.422" clip-path="url(#clipPath908-3-6)" fill="#907720" opacity=".8" stroke-width=".558" style="paint-order:markers stroke fill"/>
        <ellipse transform="matrix(.22221 0 0 .25499 -165.79 364.4)" cx="198.17" cy="130.17" rx="7.7861" ry="26.229" clip-path="url(#clipPath946-6-9)" fill="#705711" opacity=".8" stroke-width=".38113" style="paint-order:markers stroke fill"/>
       </g>
       <path d="m-162.91 379.36c-2.1064-2.4113-5.7347-3.588-6.7726-6.4873 21.037 13.262 39.879 10.67 56.419 1.4818-2.2261 2.1142-5.0165 4.2024-5.2442 5.8839-11.65 8.2572-40.708 4.7342-44.403-0.87834z" fill="#a05a2c" stroke-width=".080781px"/>
      </g>
      <path d="m-119.34 373.4 0.72437 3.5271c1.658-0.67699 3.3244-1.3332 4.8256-2.3941l-4.6805-0.46407-0.0474-0.21501" fill="#cd8555"/>
      <path d="m-127.18 377.12c1.4516-0.38816 6.7667-1.6392 8.6576-3.2624 0.53333 1.9668 2.4631 1.7871 4.1986 0.86311-3.647 2.6135-8.893 4.1446-12.023 4.7922-0.41347-0.57541-0.85029-0.99197-0.83304-2.3929z" fill="url(#linearGradient17167)"/>
      <path d="m-118.52 372.12 0.044 1.9461c0.68134 2.6555 2.8585 1.1253 4.1513 0.6481 1.1015-0.67149 0.83777-1.1104-0.15924-1.5268z" fill="url(#radialGradient17165)" stroke="#000" stroke-width=".080781px"/>
      <path d="m-139.42 378.28c1.4516 0.0103 7.1136 0.24479 12.238-1.1621 0.0593 1.1442 0.42543 1.8906 0.83304 2.3929-5.6091 1.6314-9.4164 1.8404-12.682 1.869-0.41347-0.6889-0.40654-1.7037-0.38929-3.0999z" fill="url(#linearGradient17163)"/>
      <path d="m-138.45 378.28c-1.4516 0.0103-8.2748 0.40679-13.399-1.0001-0.0593 1.1442-0.99902 2.2771-1.4066 2.7794 5.6091 1.6314 11.151 1.2919 14.417 1.3205 0.41347-0.6889 0.40654-1.7037 0.38929-3.0999z" fill="url(#linearGradient17161)"/>
      <path d="m-167.74 374.22 5.3491-0.41691 0.21021 3.0111z" fill="#a05b2d"/>
      <path d="m-162.92 373.8c-0.0957 0.0164 0.0404-3.2491-0.0522-3.2316-2.2037 0.41676-9.7067 1.053-4.7719 3.6485 1.2633 0.90831 3.8993 0.34045 4.8242-0.41691 0.18241-0.14938-0.0789 0.0588-0.0197 6e-3" fill="url(#radialGradient17159)" stroke="#000" stroke-width=".080781px"/>
      <path d="m-151.85 377.28c-1.3883-0.42416-6.6202-0.75748-11.09-3.632-1.9536 1.9686-4.9155 0.58882-4.8044 0.57223 4.8649 3.2336 12.922 5.663 14.488 5.8391 0.6235-0.5133 1.4491-1.0471 1.4066-2.7794z" fill="url(#linearGradient17157)"/>
      <path d="m-162.94 370.5c-10.112 1.2438-7.7091 2.799-1.8949 5.4864 13.92 8.295 34.646 8.0493 49.711-0.33297 4.5102-2.275 1.1902-2.5077-3.3902-3.5269 2.597 0.88582 7.721 1.0741 2.8281 3.4439-15.513 7.5313-35.444 8.2845-48.973-0.0275-6.7829-3.1856-6.4269-3.3934 1.7193-5.0429" fill="#c87137" stroke-width=".080781px"/>
      <path d="m-153.31 391.89c-3.923 1.8488-4.088 10.266-1.1752 13.363" fill="none" stroke-width=".050377"/>
      <path d="m-122.58 391.58c2.389 5.6428 0.42544 11.102 0.084 12.149" fill="none" stroke-width=".050377"/>
      <g stroke-width=".080781px">
       <path d="m-150.32 421.32 0.37228 2.6613c-2.9534-0.14912-5.8021-0.75385-8.4927-2.0461l3.0951-1.6574c1.6748 0.62843 3.3501 0.85281 5.0253 1.0422z" fill="none"/>
       <path d="m-155.35 420.28-0.10067 1.064c1.7958 0.76733 3.3531 0.84213 4.9391 1.0004l0.18685-1.0222" fill="#a96335"/>
       <path d="m-158.44 421.94 0.52891 0.25992 0.47648 0.22735 1.989-1.0806 0.10067-1.064" fill="#7d4722"/>
       <path d="m-150.51 422.34 0.18686-1.0222 0.37228 2.6613-0.41226-0.0307z" fill="#a05a2c"/>
       <path d="m-155.45 421.34-1.989 1.0806c2.1406 0.85192 4.4798 1.3915 7.075 1.5281l-0.14688-1.6084c-1.4719-0.14581-2.7616-0.0956-4.9391-1.0004z" fill="#483737"/>
       <path d="m-163.13 410.02 0.1067 1.2796 0.62592 0.11773 0.0853-1.0122z" fill="#7d4722"/>
       <path d="m-161.4 416.03-3.8697 0.77107c-0.50882-1.653 0.46053-5.3015 2.1398-6.778l0.81792 0.38514c-0.0376 0.47408-0.0749 1.1157-0.0802 1.6681-0.0207 2.1618 0.53916 3.1489 0.99215 3.9537z" fill="none"/>
       <path d="m-163.03 411.3-0.10669-1.2796c-2.2685 2.1438-2.4441 4.9807-2.1398 6.778 0.32227-0.0811 0.31831-8e-3 0.47271-0.0984 1.8079-1.0616 0.92282-4.4856 1.7738-5.4z" fill="#a35e30"/>
       <path d="m-163.03 411.3 0.62593 0.11773c-0.0473 2.8588 0.52077 3.5748 0.99729 4.6096l-3.3711 0.68954c0.28056-1.7901 0.0216-3.4186 1.7479-5.4169" fill="#483737"/>
       <g fill="#008000">
        <path d="m-156.83 422.28c-2.4e-4 7e-5 -1.6091-0.28516-1.5571-2.6037 4e-3 -0.20404-0.0562-0.37191-0.0277-0.52104 0.10805-0.56534 0.93445-0.22809 2.0426-0.14258 0.19307-0.35005 0.1633-2.6131 2.38-0.17856l0.35338 0.44936s-0.93077-1.1557 1.6345-0.82759c2.5653 0.32808 1.3158-0.13549 2.4037 1.3823 0.34495 0.48125 1.0161 0.70454 0.64383 1.753-0.33071 0.5783-1.0233 0.30564-1.5491 0.75647 1.4597 0.52018 0.0512 0.86701-0.32158 1.3248-1.7662-0.3071-4.6512-0.72972-6.0026-1.3924z"/>
        <path d="m-164.48 410.75s-0.17442-1.1418 0.7145-0.79095c0.88891 0.35087 0.28264-0.11852 0.89759 0.43377l0.47157 0.42352-8e-3 0.60233"/>
        <path d="m-162.17 414.15-2.2789-3e-5s-2.4199-0.2012-1.0199-2.0602c0.0183-0.0243-0.0227-0.0568-0.0345-0.0853-0.20481-0.49336-0.47836-0.99823 0.50367-1.2929 1.2332-0.65116 1.2534 6e-3 1.6738 0.23098l0.92219 0.47795z"/>
        <path d="m-161.4 416.03-3.0952 0.66138c-0.8142-0.42731-1.3679-0.96201-1.5658-1.6434-0.28937-0.51742-0.6472-1.0422 0.33237-1.4231 0.36148-0.54459 0.25344-1.6039 1.5432-1.1308 0.29893-0.25498 0.63638-0.30464 1.0734 0.17469 0.44167-0.96477 0.64342 0.0398 0.93442 0.31176 0 0 0.35414-1.3428 0.55366 0.28587l0.19792 1.6156 0.0261 1.148"/>
       </g>
       <path d="m-156.99 420.98c1.0172-1.2442 0.59222-2.0582 1.7815-0.95694l0.61282 0.56745s-0.37864 0.19652 0.94162 0.43575" fill="none"/>
       <path d="m-153.09 422.28c0.64516-1.8007 1.7024-2.3299 3.0534-1.9527" fill="#008000"/>
       <path d="m-120.82 415.57 4.1692 0.91156c1.5853-0.98835 2.2027-2.8339-0.037-3.9001l-1.8267 0.13012" fill="none"/>
       <path d="m-118.5 413.53 1.8006-0.17592 0.0135-0.76715-1.8267 0.13011" fill="#784421"/>
       <path d="m-116.7 413.35 0.0135-0.76715c0.90169 0.44303 1.6692 1.1713 1.3825 2.4757-0.32177-0.93431-0.64598-1.5183-1.396-1.7086z" fill="#a05a2c"/>
       <path d="m-120.82 415.57c0.8592-0.56831 1.7458-1.1007 2.318-2.0455l1.8006-0.17592c0.88365 0.23181 1.1011 1.0015 1.396 1.7086-0.35837 0.53598-0.7658 1.0386-1.3454 1.4244l-4.1692-0.91156" fill="#483737"/>
       <g fill="#008000">
        <path d="m-116.48 414.87-3.0383-0.91156 0.0717-1.2506c1.0106-1.0013 0.95914-1.711 1.5946-1.8658 0.5856-0.14268 1.4438 1.5222 1.9864 1.7014 1.5522 0.40711 0.83227 0.10148 0.84616 0.91067 0.44209 1.1496-1.0315 0.98893-1.4606 1.416z"/>
        <path d="m-117.13 415.68-3.0383-0.91156 0.0718-1.2506c1.1649-1.1542 2.0122-0.98041 2.7129-1.0592 0.46736-0.0526 0.84514-0.55279 1.2978-0.40326 1.5522 0.40711 0.4025 1.3996 0.41638 2.2088 1.7089 1.7045-1.0315 0.98893-1.4606 1.4159z"/>
        <path d="m-116.65 416.49-4.1692-0.91156 0.0717-1.2506c1.9419-1.924 2.054-0.65853 3.1853-0.28484 1.5522 0.40712 1.5723-0.01 1.5862 0.79954 0.20707 0.53676-0.48256 1.0357-0.67398 1.6475z"/>
       </g>
      </g>
      <g transform="matrix(-.031835 0 0 .031835 -106.3 343.11)">
       <g fill="#fffae1" stroke="#283f00" stroke-linecap="round" stroke-linejoin="round" stroke-miterlimit="10" stroke-width="1.8344">
        <path d="m1148.4 1601c0-13.523-10.954-24.482-24.48-24.482-13.521 0-24.478 10.958-24.478 24.482 0 13.521 10.956 24.479 24.478 24.478 13.526 0 24.48-10.957 24.48-24.478z"/>
        <path d="m1125.6 1606.8c3.468 0 6.277 15.423 6.277 15.423 0 3.467-2.81 6.277-6.277 6.277h-3.345c-3.469 0-6.279-2.81-6.279-6.277 0 0 2.81-15.423 6.279-15.423"/>
        <path d="m1128.9 1600.7c1.118-3.282 16.622-0.968 16.622-0.968 3.282 1.116 5.038 4.685 3.918 7.965l-1.076 3.17c-1.121 3.281-4.687 5.036-7.971 3.916 0 0-13.688-7.634-12.571-10.915"/>
        <path d="m1120.1 1603.8c1.121 3.281-12.573 10.916-12.573 10.916-3.282 1.119-6.848-0.635-7.965-3.916l-1.08-3.171c-1.115-3.28 0.638-6.849 3.917-7.965 0 0 15.507-2.313 16.625 0.968"/>
        <path d="m1118.4 1597.2c-2.94 1.832-13.488-9.768-13.488-9.768-1.833-2.943-0.933-6.814 2.011-8.648l2.843-1.77c2.94-1.834 6.812-0.937 8.646 2.006 0 0 5.771 14.575 2.828 16.408"/>
        <path d="m1126.7 1595.4c-2.943-1.833 2.828-16.408 2.828-16.408 1.837-2.943 5.708-3.841 8.648-2.006l2.845 1.77c2.941 1.834 3.842 5.705 2.006 8.648 0 0-10.545 11.6-13.488 9.768"/>
       </g>
      </g>
      <g transform="matrix(-.031835 0 0 .031835 -104.19 341.91)">
       <g fill="#fffae1" stroke="#283f00" stroke-linecap="round" stroke-linejoin="round" stroke-miterlimit="10" stroke-width="1.8344">
        <path d="m1148.4 1601c0-13.523-10.954-24.482-24.48-24.482-13.521 0-24.478 10.958-24.478 24.482 0 13.521 10.956 24.479 24.478 24.478 13.526 0 24.48-10.957 24.48-24.478z"/>
        <path d="m1125.6 1606.8c3.468 0 6.277 15.423 6.277 15.423 0 3.467-2.81 6.277-6.277 6.277h-3.345c-3.469 0-6.279-2.81-6.279-6.277 0 0 2.81-15.423 6.279-15.423"/>
        <path d="m1128.9 1600.7c1.118-3.282 16.622-0.968 16.622-0.968 3.282 1.116 5.038 4.685 3.918 7.965l-1.076 3.17c-1.121 3.281-4.687 5.036-7.971 3.916 0 0-13.688-7.634-12.571-10.915"/>
        <path d="m1120.1 1603.8c1.121 3.281-12.573 10.916-12.573 10.916-3.282 1.119-6.848-0.635-7.965-3.916l-1.08-3.171c-1.115-3.28 0.638-6.849 3.917-7.965 0 0 15.507-2.313 16.625 0.968"/>
        <path d="m1118.4 1597.2c-2.94 1.832-13.488-9.768-13.488-9.768-1.833-2.943-0.933-6.814 2.011-8.648l2.843-1.77c2.94-1.834 6.812-0.937 8.646 2.006 0 0 5.771 14.575 2.828 16.408"/>
        <path d="m1126.7 1595.4c-2.943-1.833 2.828-16.408 2.828-16.408 1.837-2.943 5.708-3.841 8.648-2.006l2.845 1.77c2.941 1.834 3.842 5.705 2.006 8.648 0 0-10.545 11.6-13.488 9.768"/>
       </g>
      </g>
      <g transform="matrix(-.029737 0 0 .031835 -104.17 341.43)">
       <g fill="#fffae1" stroke="#283f00" stroke-linecap="round" stroke-linejoin="round" stroke-miterlimit="10" stroke-width="1.8344">
        <path d="m1148.4 1601c0-13.523-10.954-24.482-24.48-24.482-13.521 0-24.478 10.958-24.478 24.482 0 13.521 10.956 24.479 24.478 24.478 13.526 0 24.48-10.957 24.48-24.478z"/>
        <path d="m1125.6 1606.8c3.468 0 6.277 15.423 6.277 15.423 0 3.467-2.81 6.277-6.277 6.277h-3.345c-3.469 0-6.279-2.81-6.279-6.277 0 0 2.81-15.423 6.279-15.423"/>
        <path d="m1128.9 1600.7c1.118-3.282 16.622-0.968 16.622-0.968 3.282 1.116 5.038 4.685 3.918 7.965l-1.076 3.17c-1.121 3.281-4.687 5.036-7.971 3.916 0 0-13.688-7.634-12.571-10.915"/>
        <path d="m1120.1 1603.8c1.121 3.281-12.573 10.916-12.573 10.916-3.282 1.119-6.848-0.635-7.965-3.916l-1.08-3.171c-1.115-3.28 0.638-6.849 3.917-7.965 0 0 15.507-2.313 16.625 0.968"/>
        <path d="m1118.4 1597.2c-2.94 1.832-13.488-9.768-13.488-9.768-1.833-2.943-0.933-6.814 2.011-8.648l2.843-1.77c2.94-1.834 6.812-0.937 8.646 2.006 0 0 5.771 14.575 2.828 16.408"/>
        <path d="m1126.7 1595.4c-2.943-1.833 2.828-16.408 2.828-16.408 1.837-2.943 5.708-3.841 8.648-2.006l2.845 1.77c2.941 1.834 3.842 5.705 2.006 8.648 0 0-10.545 11.6-13.488 9.768"/>
       </g>
      </g>
      <g transform="matrix(-.029737 0 0 .031835 -101.91 341.26)">
       <g fill="#fffae1" stroke="#283f00" stroke-linecap="round" stroke-linejoin="round" stroke-miterlimit="10" stroke-width="1.8344">
        <path d="m1148.4 1601c0-13.523-10.954-24.482-24.48-24.482-13.521 0-24.478 10.958-24.478 24.482 0 13.521 10.956 24.479 24.478 24.478 13.526 0 24.48-10.957 24.48-24.478z"/>
        <path d="m1125.6 1606.8c3.468 0 6.277 15.423 6.277 15.423 0 3.467-2.81 6.277-6.277 6.277h-3.345c-3.469 0-6.279-2.81-6.279-6.277 0 0 2.81-15.423 6.279-15.423"/>
        <path d="m1128.9 1600.7c1.118-3.282 16.622-0.968 16.622-0.968 3.282 1.116 5.038 4.685 3.918 7.965l-1.076 3.17c-1.121 3.281-4.687 5.036-7.971 3.916 0 0-13.688-7.634-12.571-10.915"/>
        <path d="m1120.1 1603.8c1.121 3.281-12.573 10.916-12.573 10.916-3.282 1.119-6.848-0.635-7.965-3.916l-1.08-3.171c-1.115-3.28 0.638-6.849 3.917-7.965 0 0 15.507-2.313 16.625 0.968"/>
        <path d="m1118.4 1597.2c-2.94 1.832-13.488-9.768-13.488-9.768-1.833-2.943-0.933-6.814 2.011-8.648l2.843-1.77c2.94-1.834 6.812-0.937 8.646 2.006 0 0 5.771 14.575 2.828 16.408"/>
        <path d="m1126.7 1595.4c-2.943-1.833 2.828-16.408 2.828-16.408 1.837-2.943 5.708-3.841 8.648-2.006l2.845 1.77c2.941 1.834 3.842 5.705 2.006 8.648 0 0-10.545 11.6-13.488 9.768"/>
       </g>
      </g>
      <g transform="matrix(-.029737 0 0 .031835 -99.812 341.26)">
       <g fill="#fffae1" stroke="#283f00" stroke-linecap="round" stroke-linejoin="round" stroke-miterlimit="10" stroke-width="1.8344">
        <path d="m1148.4 1601c0-13.523-10.954-24.482-24.48-24.482-13.521 0-24.478 10.958-24.478 24.482 0 13.521 10.956 24.479 24.478 24.478 13.526 0 24.48-10.957 24.48-24.478z"/>
        <path d="m1125.6 1606.8c3.468 0 6.277 15.423 6.277 15.423 0 3.467-2.81 6.277-6.277 6.277h-3.345c-3.469 0-6.279-2.81-6.279-6.277 0 0 2.81-15.423 6.279-15.423"/>
        <path d="m1128.9 1600.7c1.118-3.282 16.622-0.968 16.622-0.968 3.282 1.116 5.038 4.685 3.918 7.965l-1.076 3.17c-1.121 3.281-4.687 5.036-7.971 3.916 0 0-13.688-7.634-12.571-10.915"/>
        <path d="m1120.1 1603.8c1.121 3.281-12.573 10.916-12.573 10.916-3.282 1.119-6.848-0.635-7.965-3.916l-1.08-3.171c-1.115-3.28 0.638-6.849 3.917-7.965 0 0 15.507-2.313 16.625 0.968"/>
        <path d="m1118.4 1597.2c-2.94 1.832-13.488-9.768-13.488-9.768-1.833-2.943-0.933-6.814 2.011-8.648l2.843-1.77c2.94-1.834 6.812-0.937 8.646 2.006 0 0 5.771 14.575 2.828 16.408"/>
        <path d="m1126.7 1595.4c-2.943-1.833 2.828-16.408 2.828-16.408 1.837-2.943 5.708-3.841 8.648-2.006l2.845 1.77c2.941 1.834 3.842 5.705 2.006 8.648 0 0-10.545 11.6-13.488 9.768"/>
       </g>
      </g>
      <g transform="matrix(-.027235 0 0 .031835 -100.59 341.91)">
       <g fill="#fffae1" stroke="#283f00" stroke-linecap="round" stroke-linejoin="round" stroke-miterlimit="10" stroke-width="1.8344">
        <path d="m1148.4 1601c0-13.523-10.954-24.482-24.48-24.482-13.521 0-24.478 10.958-24.478 24.482 0 13.521 10.956 24.479 24.478 24.478 13.526 0 24.48-10.957 24.48-24.478z"/>
        <path d="m1125.6 1606.8c3.468 0 6.277 15.423 6.277 15.423 0 3.467-2.81 6.277-6.277 6.277h-3.345c-3.469 0-6.279-2.81-6.279-6.277 0 0 2.81-15.423 6.279-15.423"/>
        <path d="m1128.9 1600.7c1.118-3.282 16.622-0.968 16.622-0.968 3.282 1.116 5.038 4.685 3.918 7.965l-1.076 3.17c-1.121 3.281-4.687 5.036-7.971 3.916 0 0-13.688-7.634-12.571-10.915"/>
        <path d="m1120.1 1603.8c1.121 3.281-12.573 10.916-12.573 10.916-3.282 1.119-6.848-0.635-7.965-3.916l-1.08-3.171c-1.115-3.28 0.638-6.849 3.917-7.965 0 0 15.507-2.313 16.625 0.968"/>
        <path d="m1118.4 1597.2c-2.94 1.832-13.488-9.768-13.488-9.768-1.833-2.943-0.933-6.814 2.011-8.648l2.843-1.77c2.94-1.834 6.812-0.937 8.646 2.006 0 0 5.771 14.575 2.828 16.408"/>
        <path d="m1126.7 1595.4c-2.943-1.833 2.828-16.408 2.828-16.408 1.837-2.943 5.708-3.841 8.648-2.006l2.845 1.77c2.941 1.834 3.842 5.705 2.006 8.648 0 0-10.545 11.6-13.488 9.768"/>
       </g>
      </g>
      <g transform="matrix(-.02528 0 0 .031835 -100.89 342.9)">
       <g fill="#fffae1" stroke="#283f00" stroke-linecap="round" stroke-linejoin="round" stroke-miterlimit="10" stroke-width="1.8344">
        <path d="m1148.4 1601c0-13.523-10.954-24.482-24.48-24.482-13.521 0-24.478 10.958-24.478 24.482 0 13.521 10.956 24.479 24.478 24.478 13.526 0 24.48-10.957 24.48-24.478z"/>
        <path d="m1125.6 1606.8c3.468 0 6.277 15.423 6.277 15.423 0 3.467-2.81 6.277-6.277 6.277h-3.345c-3.469 0-6.279-2.81-6.279-6.277 0 0 2.81-15.423 6.279-15.423"/>
        <path d="m1128.9 1600.7c1.118-3.282 16.622-0.968 16.622-0.968 3.282 1.116 5.038 4.685 3.918 7.965l-1.076 3.17c-1.121 3.281-4.687 5.036-7.971 3.916 0 0-13.688-7.634-12.571-10.915"/>
        <path d="m1120.1 1603.8c1.121 3.281-12.573 10.916-12.573 10.916-3.282 1.119-6.848-0.635-7.965-3.916l-1.08-3.171c-1.115-3.28 0.638-6.849 3.917-7.965 0 0 15.507-2.313 16.625 0.968"/>
        <path d="m1118.4 1597.2c-2.94 1.832-13.488-9.768-13.488-9.768-1.833-2.943-0.933-6.814 2.011-8.648l2.843-1.77c2.94-1.834 6.812-0.937 8.646 2.006 0 0 5.771 14.575 2.828 16.408"/>
        <path d="m1126.7 1595.4c-2.943-1.833 2.828-16.408 2.828-16.408 1.837-2.943 5.708-3.841 8.648-2.006l2.845 1.77c2.941 1.834 3.842 5.705 2.006 8.648 0 0-10.545 11.6-13.488 9.768"/>
       </g>
      </g>
     </g>
    </g>
    <g transform="matrix(.097861 0 0 .11275 77.739 155.12)">
     <path d="m414.33 51.689c-3.4138 0.38707-7.5016 2.4285-7.8351-4.7452 0 0-10.042 2.8692-9.7111-4.6348l0.3312-7.504 2.3175-4.5245c-3.0984-0.55618-1.2679-3.303-1.8761-4.9659-3.536-4.9492 1.1898-5.9007 6.6212-6.5109 0.99734-3.4888 2.9317-6.0046 11.477-1.6553l5.7384-6.9523c8.4343-1.7324 13.71 0.55545 15.67 7.0626 9.1528-2.5937 6.9902 2.9595 9.6007 5.0763 4.6716 2.6117 1.1377 6.1351 1.1036 9.2697 5.1974 12.205-0.0639 11.416-5.4074 15.118 0.58882 4.4769-2.0986 6.0051-7.3936 5.1866-6.1702-1.9253-10.516-3.7891-13.449-2.0674-3.094 1.8163-5.4328 2.8998-7.1874 1.8467z" fill="#43cc32" stroke="#43cc32" stroke-width=".87396px"/>
     <path d="m372.7 89.117c-4.0252-7.7203-3.5305-13.955-1.7588-21.106 0.4397-3.8107 8.3543-9.3803 8.3543-9.3803l15.536-2.9313 23.597-1.3191h35.176l18.614 3.9573 4.397 6.5955c0.54447 2.4073 1.6838 4.8914 1.9555 7.1758 0.75539 6.3497 0.76346 13.022-1.5158 18.034-7.6568 4.9082-36.724 6.612-46.655 6.5023l-20.101 0.26799c-13.136-0.37601-25.669-2.6567-37.6-7.7962z" fill="url(#linearGradient27072)"/>
     <path d="m372.7 89.117c-4.0252-7.7203-3.5305-13.955-1.7588-21.106 0.4397-3.8107 8.3543-9.3803 8.3543-9.3803l15.536-2.9313 23.597-1.3191h35.176l18.614 3.9573 4.397 6.5955c0.54447 2.4073 1.6838 4.8914 1.9555 7.1758 0.75539 6.3497 0.76346 13.022-1.5158 18.034-7.6568 4.9082-36.724 6.612-46.655 6.5023l-20.101 0.26799c-13.136-0.37601-25.669-2.6567-37.6-7.7962z" fill="url(#linearGradient27072)"/>
     <path d="m391.76 59.657s-11.139 1.7588-6.4489 2.4916 4.6901 0.8794 4.6901 0.8794l34.003 2.1985 32.098-1.4657 10.406-1.9054-8.5009-3.8107z" fill="none" stroke="#000" stroke-width=".20519px"/>
     <path d="m394.54 58.338c31.072-4.8367 27.994-5.2764 31.072-4.8367 3.0779 0.4397 3.0779 0.4397 3.0779 0.4397s17.002-2.4916 26.089 1.1725l9.0871 3.6642-17.588 5.1298h-32.098z" fill="#906821" stroke="#000" stroke-width=".20519px"/>
     <g fill="#74541a">
      <path d="m436.47 56.108 0.18242 5.9284 1.6417-0.09116-0.27361-7.2965-1.6417 0.54723z"/>
      <path d="m419.14 56.108 0.18242 5.9284 1.6417-0.09116-0.27361-7.2965-1.6417 0.54723z"/>
      <path d="m408.56 56.2 0.18242 5.9284 1.6417-0.09116-0.27361-7.2965-1.6417 0.54723z"/>
     </g>
     <path d="m445.14 56.108 0.18242 5.9284 1.6417-0.09116-0.27361-7.2965-1.6417 0.54723z" fill="#6f5019"/>
     <path d="m399.38 58.045c28.156-6.1113 43.86-1.6996 60.972 1.6122l7.9146-4.1039-9.3803-3.8107-32.684-2.7848-18.321 0.73283-18.467 4.8367z" fill="url(#linearGradient15113)"/>
     <g fill="#836652">
      <ellipse cx="392.97" cy="80.059" rx="7.5157" ry="6.911"/>
      <ellipse cx="448.26" cy="80.543" rx="6.8981" ry="6.4112"/>
      <ellipse cx="472.65" cy="76.654" rx="3.7945" ry="4.8115"/>
     </g>
     <ellipse cx="472.08" cy="76.659" rx="3.2245" ry="4.397" fill="#8fffff"/>
     <ellipse cx="375.12" cy="76.292" rx="2.4183" ry="5.4962" fill="#fc0"/>
     <path d="m369.63 64.787c11.882-11.579 14.477-11.579 14.51-11.579 25.874-6.5117 45.789-3.6857 42.585-4.14-8.3394-1.4213-43.163 5.5177-34.539 6.2513 4.4362 3.8322 48.325 6.6938 72.273 0.52694-1.4678-3.9766-31.957-6.7852-37.521-6.8886 14.944-1.042 30.682-0.39163 43.237 5.1298 7.0427 4.3106 7.2026 7.2446 10.699 10.846-20.063 5.1306-35.453 6.4769-53.931 7.0562-20.528 1.9016-41.632-3.9469-57.313-7.2027z" fill="url(#linearGradient15105)"/>
     <g transform="matrix(-2.1725,0,0,2.1725,1222.2,-141.35)" fill="#916f6f">
      <path d="m366.26 88.642c-0.68926-1.0208-1.3886-2.117-2.7007-2.8709-0.76316-0.43377-1.3843-0.0191-2.6292 0.02894-0.31184-0.10072-0.66929-0.18775-0.11625-0.54793l1.7426-0.07748c-0.61734-0.58621-0.38726-0.42005-0.79888-1.0929-0.25824-0.42216-0.39918-0.88466-0.32644-1.4167 0.12197-0.63955 0.26331-0.77547 0.4298-0.25731 0.68962 1.478 0.4694 1.6867 1.305 2.2242 1.6442 1.0577 2.2117 1.8463 3.2648 2.4799 0.15356-1.1454 0.73824-2.7579-0.0945-2.8348-1.3569-1.6465-2.7418-3.3425-4.8203-5.0907-0.95217-0.84718-1.5692-1.5396-0.33378-1.5993 0.0208 0.70932 2.3802 3.1181 3.3031 3.4579 0.38196-0.90387-0.25182-2.5568-0.51771-3.79-0.19251-0.07764-0.349-1.5034 0.70652 0.17044 0.23274 0.36909 0.39443 1.3511 0.62352 4.2765 0.39457 1.0419 1.9471 2.3361 2.7508 1.2512 2.7572-0.82621 3.5563-3.1555 5.791-5.0935 0.99838-0.86586 1.0234-0.07788 0.88689 0.09641-0.22915 0.02864-3.5076 2.9829-2.2068 2.7317 0.82192-0.25381 1.9576-0.18612 2.5213-0.0859 0.62308 0.12263 0.24092 0.51202-0.23087 0.52236-3.3002 0.0723-3.2349 0.40555-4.2146 1.44-0.29414 0.47433-2.0983 0.9568-1.9826 2.5437 1.7227-0.23793 6.8486-2.2968 5.8628-0.6523-1.5723-0.07752-2.7334 0.63649-3.4943 0.80241 0.46446 0.58694 1.0572 0.78909 1.6523 0.98404 0.20863 0.57954-0.11158 0.45395-0.4239 0.33888-2.3941-1.0817-3.6075-0.68714-3.9845 0.7733-0.17538 1.9568-0.39056 3.038 0.13277 5.0094-1.5751 0.06661-1.8292 0.05709-2.6298 0.06008 0.294-1.2665 0.46725-1.9266 0.53204-3.7816z" fill="url(#linearGradient15121)"/>
     </g>
     <ellipse cx="375.42" cy="76.702" rx="2.9365" ry="5.4962" fill="#836652"/>
     <ellipse cx="375.94" cy="76.702" rx="2.4183" ry="5.4962" fill="#8fffff"/>
     <g fill="#ac9393">
      <ellipse cx="406.85" cy="93.428" rx=".88092" ry=".93274"/>
      <ellipse cx="403.68" cy="93.117" rx=".88092" ry=".93274"/>
      <ellipse cx="400.58" cy="92.703" rx=".72547" ry=".76814"/>
      <ellipse cx="397.73" cy="92.288" rx=".88092" ry=".93274"/>
      <ellipse cx="405.39" cy="90.837" rx=".88092" ry=".93274"/>
      <ellipse cx="402.03" cy="90.474" rx=".88092" ry=".93274"/>
      <ellipse cx="391.71" cy="91.303" rx=".88092" ry=".93274"/>
      <ellipse cx="388.76" cy="90.63" rx=".88092" ry=".93274"/>
      <ellipse cx="433.07" cy="90.526" rx=".88092" ry=".93274"/>
      <ellipse cx="435.86" cy="90.422" rx=".7341" ry=".77729"/>
      <ellipse cx="438.61" cy="90.112" rx=".88092" ry=".93274"/>
      <ellipse cx="437.47" cy="92.962" rx=".88092" ry=".93274"/>
      <ellipse cx="456.75" cy="74.98" rx=".88092" ry=".93274"/>
      <ellipse cx="459.62" cy="74.57" rx=".88092" ry=".93274"/>
      <ellipse cx="462.08" cy="74.16" rx=".88092" ry=".93274"/>
      <ellipse cx="465.78" cy="73.749" rx=".88092" ry=".93274"/>
      <ellipse cx="461.26" cy="77.032" rx=".88092" ry=".93274"/>
      <ellipse cx="460.03" cy="85.24" rx=".88092" ry=".93274"/>
      <ellipse cx="462.49" cy="84.83" rx=".88092" ry=".93274"/>
      <ellipse cx="464.96" cy="84.009" rx=".88092" ry=".93274"/>
      <ellipse cx="461.26" cy="88.113" rx=".88092" ry=".93274"/>
      <ellipse cx="457.16" cy="85.65" rx=".88092" ry=".93274"/>
      <ellipse cx="458.39" cy="82.778" rx=".88092" ry=".93274"/>
      <ellipse cx="433.77" cy="81.547" rx=".68516" ry=".72547"/>
      <ellipse cx="436.64" cy="81.136" rx=".88092" ry=".93274"/>
      <ellipse cx="435" cy="78.674" rx=".88092" ry=".93274"/>
      <ellipse cx="450.34" cy="91.37" rx=".88092" ry=".93274"/>
      <ellipse cx="470.86" cy="87.069" rx=".88092" ry=".93274"/>
      <ellipse cx="408.14" cy="79.074" rx=".88092" ry=".93274"/>
      <ellipse cx="405.45" cy="78.711" rx=".77729" ry=".82301"/>
      <ellipse cx="402.8" cy="78.193" rx=".88092" ry=".93274"/>
      <ellipse cx="406.9" cy="76.587" rx=".88092" ry=".93274"/>
      <ellipse cx="383.84" cy="74.721" rx=".88092" ry=".93274"/>
      <ellipse cx="381.38" cy="73.901" rx=".88092" ry=".93274"/>
      <ellipse cx="381.79" cy="82.519" rx=".88092" ry=".93274"/>
      <ellipse cx="379.73" cy="84.981" rx=".72547" ry=".76814"/>
      <ellipse transform="rotate(27.941)" cx="362.41" cy="-114.74" rx=".67635" ry=".71614"/>
      <ellipse cx="474.91" cy="69.525" rx=".68516" ry=".72547"/>
     </g>
     <g fill="#fff" fill-opacity=".9918">
      <ellipse cx="391.4" cy="78.54" rx="1.7413" ry="1.6978"/>
      <ellipse cx="445.45" cy="79.12" rx="1.7413" ry="1.6978"/>
      <ellipse transform="rotate(.78555)" cx="375.86" cy="70.04" rx=".93515" ry="1.6978"/>
      <ellipse transform="rotate(-1.8276)" cx="471.24" cy="90.455" rx=".70942" ry="1.6978"/>
     </g>
    </g>
    <path d="m27.034 181.47-0.08844-12.278c9.308-7.9548 12.45 9.3518 12.088 4.8613-0.93514-11.594 10.827-13.279 10.921-2.2321l9.8231-6.996 14.27-0.57309c6.9596 1.7772 0.7691 2.9234 5.1649 4.2057 3.467-4.8308 2.9427-9.2161 8.9678-2.35 4.551 3.5461 1.0574 8.1707 0.68898 11.121z" fill="#090"/>
    <path d="m181.97 182.49 0.0967-14.154c-2.3804-1.9852-8.9049-7.1494-9.6427 3.0918-0.0808 1.1218-2.1329-0.0107-2.8916 1.1826-0.0186-7.4474-6.3595-14.223-9.4964-5.297-0.30353 0.86367-0.43454 2.856-0.6724 4.007l-8.6701-3.358-11.258-2.7849s-6.9317 5.6141-5.9027-0.36956c-10.472-4.1304 0.0627 8.3977-5.299 2.3869-1.4979-1.7047-3.4865-2.7038-6.856-1.7175-3.8101 2.2879-1.7097 8.175-1.6148 10.701" fill="#090"/>
    <path d="m102.69 164.47 5.6485 0.0112c9.8893 3.33 9.6077 9.1701 6.5867 10.451l-20.701 0.44808c1.9052-4.6526 17.718-3.1215 8.4659-10.91z" fill="url(#linearGradient59952)"/>
   </g>
   <g transform="matrix(.90073 0 0 .90073 .76656 -63.48)">
    <g transform="matrix(-.037827 -.0010267 -.0011293 .041609 128.62 287.31)">
     <g transform="matrix(53.23,1.3134,-1.3014,43.59,-12176,-6530.9)">
      <path d="m275.13 74.79c-0.735 0.11683-1.6151 0.733-1.6869-1.4323 0 0-2.1621 0.86602-2.0908-1.399l0.0713-2.265 0.49897-1.3657c-0.6671-0.16788-0.27298-0.99696-0.40393-1.4989-0.76132-1.4939 0.25618-1.781 1.4256-1.9652 0.21473-1.0531 0.63119-1.8124 2.471-0.49963l1.2355-2.0984c1.816-0.52292 2.9518 0.16766 3.3739 2.1318 1.9706-0.78289 1.505 0.8933 2.0671 1.5322 1.0058 0.78831 0.24495 1.8518 0.2376 2.7979 1.119 3.6838-0.0138 3.4458-1.1642 4.5633 0.12677 1.3513-0.45185 1.8126-1.5919 1.5655-1.3285-0.58112-2.2641-1.1437-2.8956-0.62402-0.66614 0.54823-1.1697 0.87527-1.5475 0.5574z" fill="#43cc32" stroke="#43cc32" stroke-width=".22279px"/>
      <g transform="matrix(-.58839 0 0 .58839 492.75 22.525)">
       <path d="m365.95 98.809c0.2016-0.29358 0.66904-0.65982 0.62894-1.0993-0.70615-2.9456-0.41225-5.9442-0.3171-9.0679-0.68926-1.0208-1.3886-2.117-2.7007-2.8709-0.76316-0.43377-1.3843-0.0191-2.6292 0.02894-0.31184-0.10072-0.66929-0.18775-0.11625-0.54793l1.7426-0.07748c-0.61734-0.58621-0.38726-0.42005-0.79888-1.0929-0.25824-0.42216-0.39918-0.88466-0.32644-1.4167 0.12197-0.63955 0.26331-0.77547 0.4298-0.25731 0.68962 1.478 0.4694 1.6867 1.305 2.2242 1.6442 1.0577 2.2117 1.8463 3.2648 2.4799 0.15356-1.1454 0.73824-2.7579-0.0945-2.8348-1.3569-1.6465-2.7418-3.3425-4.8203-5.0907-0.95217-0.84718-1.5692-1.5396-0.33378-1.5993 0.0208 0.70932 2.3802 3.1181 3.3031 3.4579 0.38196-0.90387-0.25182-2.5568-0.51771-3.79-0.19251-0.07764-0.349-1.5034 0.70652 0.17044 0.23274 0.36909 0.39443 1.3511 0.62352 4.2765 0.39457 1.0419 1.9471 2.3361 2.7508 1.2512 2.7572-0.82621 3.5563-3.1555 5.791-5.0935 0.99838-0.86586 1.0234-0.07788 0.88689 0.09641-0.22915 0.02864-3.5076 2.9829-2.2068 2.7317 0.82192-0.25381 1.9576-0.18612 2.5213-0.0859 0.62308 0.12263 0.24092 0.51202-0.23087 0.52236-3.3002 0.0723-3.2349 0.40555-4.2146 1.44-0.29414 0.47433-2.0983 0.9568-1.9826 2.5437 1.7227-0.23793 6.8486-2.2968 5.8628-0.6523-1.5723-0.07752-2.7334 0.63649-3.4943 0.80241 0.46446 0.58694 1.0572 0.78909 1.6523 0.98404 0.20863 0.57954-0.11158 0.45395-0.4239 0.33888-2.3941-1.0817-3.6075-0.68714-3.9845 0.7733 0.13684 4.9565-0.39573 8.5507 3.0119 11.471 1.4878 0.88867 0.54867 1.1956-0.94185 1.328-0.67162 0.0597-1.3534 0.18568-2.1526 0.13644-0.41392-0.0255-0.97243-0.17029-1.3191-0.13581-2.7782 0.27636-2.6926-0.30068-1.1165-1.2168z" fill="#a07c32"/>
      </g>
      <g fill="#fc0">
       <path d="m272.75 72.217c0.0433 0.0131 0.0664 0.06528 0.044 0.10548-0.0325 0.06762-0.0954 0.11312-0.14947 0.16266-0.0484 0.0394-0.0929 0.08748-0.11053 0.14889-0.011 0.04325-0.0293 0.09169-0.024 0.13475 0.24266 0.48422 0.32379 0.20681 0.47624 0.01518-4e-3 -0.11498-0.0393-0.23171-0.11604-0.3194-0.0425-0.05462-0.10703-0.09728-0.12471-0.16766-6e-3 -0.02643-3e-3 -0.05415 5e-3 -0.0799z"/>
       <path d="m274.94 73.169c0.0319 0.0097 0.049 0.04814 0.0324 0.07779-0.024 0.04987-0.0703 0.08342-0.11023 0.11996-0.0357 0.02905-0.0685 0.06451-0.0815 0.1098-8e-3 0.03189 0.0118 0.09268 0.0157 0.12443 0.14022 0.2798 0.23236 0.27322 0.30891 0.16398 0.0212-0.03018-0.0154-0.14725 9e-3 -0.17783-3e-3 -0.08479-0.029-0.17087-0.0856-0.23554-0.0313-0.04028-0.0789-0.07174-0.092-0.12364-4e-3 -0.01949-2e-3 -0.03993 4e-3 -0.05892z"/>
       <path d="m272.31 70.179c-0.0319 0.0097-0.049 0.04814-0.0324 0.07779 0.024 0.04987 0.0703 0.08342 0.11023 0.11996 0.0357 0.02905 0.0685 0.06451 0.0815 0.1098 8e-3 0.03189-0.0118 0.09268-0.0157 0.12443-0.22988 0.30979-0.25218 0.23187-0.31791-0.01386 3e-3 -0.08479 0.029-0.17087 0.0856-0.23554 0.0313-0.04028 0.0789-0.07174 0.092-0.12364 4e-3 -0.01949 2e-3 -0.03993-4e-3 -0.05892z"/>
       <path d="m275.23 69.015c0.0357 0.02905 0.0685 0.06451 0.0815 0.1098 8e-3 0.03189 0.03 0.14279 0.0261 0.17454-0.0867 0.37496-0.29394 0.18175-0.35967-0.06397 3e-3 -0.08479 0.029-0.17087 0.0856-0.23554 0.0178-0.04006 8e-3 -0.17031 0.16651 0.01518z"/>
       <path d="m279.05 68.439c-0.0357 0.02905-0.0685 0.06451-0.0815 0.1098-8e-3 0.03189 0.0201 0.17203 0.024 0.20377 0.0867 0.37496 0.24383 0.15252 0.30956-0.0932-3e-3 -0.08479-0.029-0.17087-0.0856-0.23554-0.0178-0.04006-8e-3 -0.17031-0.16651 0.01518z"/>
       <path d="m279.37 69.95c0.095 0.11824 0.0618 0.21672 0.0533 0.35115-0.0867 0.37496-0.23965 0.11494-0.30538-0.13079 3e-3 -0.08479 0.029-0.17087 0.0856-0.23554 0.0178-0.04006 8e-3 -0.17031 0.16651 0.01518z"/>
       <path d="m272.32 68.486c-0.0357 0.02905-0.0685 0.06451-0.0815 0.1098-8e-3 0.03189 0.0201 0.17203 0.024 0.20377 0.0867 0.37496 0.24383 0.15252 0.30956-0.0932-3e-3 -0.08479-0.029-0.17087-0.0856-0.23554-0.0178-0.04006-8e-3 -0.17031-0.16651 0.01518z"/>
       <path d="m281.78 71.439c-0.104 0.10075-0.0762 0.1727-0.0575 0.31357 0.0639 0.27634 0.17786 0.18096 0.25348 0.03816 0.027-0.05096 0.0388-0.06673 0.0561-0.13136-3e-3 -0.08479-0.029-0.17087-0.0856-0.23554-0.0178-0.04006-8e-3 -0.17031-0.16651 0.01518z"/>
       <path d="m280.31 73.152c0.104 0.10075 0.0762 0.1727 0.0575 0.31357-0.0639 0.27634-0.17786 0.18096-0.25348 0.03816-0.027-0.05096-0.0388-0.06673-0.0561-0.13136 3e-3 -0.08479 0.029-0.17087 0.0856-0.23554 0.0178-0.04006 8e-3 -0.17031 0.16651 0.01518z"/>
      </g>
     </g>
    </g>
   </g>
   <g transform="matrix(1.6957,0,0,1.5274,-356,-34.529)">
    <path d="m275.13 74.79c-1.9306-0.07106-2.5149 0.67313-2.5867-1.4921 0 0-1.2623 0.92589-1.191-1.3391l0.0713-2.265-0.36201-0.90296c-0.6671-0.16788 0.588-1.4596 0.45705-1.9616-0.76132-1.4939 0.25618-1.781 1.4256-1.9652 0.21473-1.0531 0.63119-1.8124 2.471-0.49963l1.3238-0.66719c1.816-0.52292 2.493 0.46192 3.2856 0.7005 2.0094 0.7854 1.3189 1.8266 1.881 2.4655 1.0058 0.78831 0.43104 0.91846 0.42369 1.8646 1.119 3.6838-0.0138 3.4458-1.1642 4.5633 0.12677 1.3513-1.2773 1.6898-2.4174 1.4427-1.3285-0.58112-1.4386-1.0209-2.0701-0.50121-0.66614 0.54823-1.6799 0.49224-2.0577 0.17437z" fill="#43cc32" stroke="#43cc32" stroke-width=".22279px"/>
    <g transform="matrix(-.58839 0 0 .58839 492.75 22.525)">
     <path d="m365.95 98.809c0.2016-0.29358 0.66904-0.65982 0.62894-1.0993-0.70615-2.9456-0.41225-5.9442-0.3171-9.0679-0.68926-1.0208-0.85825-2.117-2.1704-2.8709-0.76316-0.43377-1.3843-0.0191-2.6292 0.02894-0.31184-0.10072-0.66929-0.18775-0.11625-0.54793l1.7426-0.07748c-0.61734-0.58621-0.18123-0.83129-0.59285-1.5042-0.25824-0.42216-0.60521-0.47342-0.53247-1.0055 0.12197-0.63955 0.26331-0.77547 0.4298-0.25731 0.68962 1.478 0.4694 1.6867 1.305 2.2242 1.6442 1.0577 1.6813 1.8463 2.7344 2.4799 0.15356-1.1454 0.73824-2.7579-0.0945-2.8348-1.3569-1.6465-2.7418-3.3425-4.8203-5.0907-0.95217-0.84718-1.0323-0.75392 0.20312-0.81355 0.0208 0.70932 1.8433 2.3324 2.7662 2.6722 0.38196-0.90387-0.25182-3.7344-0.51771-4.9676-0.19251-0.07764-0.349-1.5034 0.70652 0.17044 0.23274 0.36909 0.39443 2.5287 0.62352 5.4541 0.39457 1.0419 1.0764 1.8848 1.88 0.79997-0.0742-0.27451-0.87732-3.2557-0.65007-3.3986 0.20124-0.12653 0.68177 1.7312 1.328 3.1508 0.0851 0.18702 0.13057-0.07188 0.29148-0.16183 2.0147-1.1262 2.8681-3.4935 4.8167-5.1835 0.99838-0.86586 1.0234-0.07788 0.88689 0.09641-0.22915 0.02864-3.5076 2.9829-2.2068 2.7317 0.82192-0.25381 1.9576-0.18612 2.5213-0.0859 0.62308 0.12263 0.24092 0.51202-0.23087 0.52236-3.3002 0.0723-3.2349 0.40555-4.2146 1.44-0.29414 0.47433-1.2227 1.9076-1.107 3.4945 1.7227-0.23793 6.8486-2.2968 5.8628-0.6523-1.5723-0.07752-2.7334 0.63649-3.4943 0.80241 0.46446 0.58694 1.0572 0.78909 1.6523 0.98404 0.20863 0.57954-0.11158 0.45395-0.4239 0.33888-2.3941-1.0817-3.6075-0.68714-3.9845 0.7733 0.13684 4.9565-0.39573 8.5507 3.0119 11.471 1.4878 0.88867 0.54867 1.1956-0.94185 1.328-0.67162 0.0597-1.3534 0.18568-2.1526 0.13644-0.41392-0.0255-0.97243-0.17029-1.3191-0.13581-2.7782 0.27636-2.6926-0.30068-1.1165-1.2168z" fill="#a07c32"/>
    </g>
    <g fill="#b33b33">
     <path d="m272.75 72.217c0.0433 0.0131 0.0664 0.06528 0.044 0.10548-0.0325 0.06762-0.0954 0.11312-0.14947 0.16266-0.0484 0.0394-0.0929 0.08748-0.11053 0.14889-0.011 0.04325-0.0293 0.09169-0.024 0.13475 0.24266 0.48422 0.32379 0.20681 0.47624 0.01518-4e-3 -0.11498-0.0393-0.23171-0.11604-0.3194-0.0425-0.05462-0.10703-0.09728-0.12471-0.16766-6e-3 -0.02643-3e-3 -0.05415 5e-3 -0.0799z"/>
     <path d="m274.94 73.169c0.0319 0.0097 0.049 0.04814 0.0324 0.07779-0.024 0.04987-0.0703 0.08342-0.11023 0.11996-0.0357 0.02905-0.0685 0.06451-0.0815 0.1098-8e-3 0.03189 0.0118 0.09268 0.0157 0.12443 0.14022 0.2798 0.23236 0.27322 0.30891 0.16398 0.0212-0.03018-0.0154-0.14725 9e-3 -0.17783-3e-3 -0.08479-0.029-0.17087-0.0856-0.23554-0.0313-0.04028-0.0789-0.07174-0.092-0.12364-4e-3 -0.01949-2e-3 -0.03993 4e-3 -0.05892z"/>
     <path d="m272.31 70.179c-0.0319 0.0097-0.049 0.04814-0.0324 0.07779 0.024 0.04987 0.0703 0.08342 0.11023 0.11996 0.0357 0.02905 0.0685 0.06451 0.0815 0.1098 8e-3 0.03189-0.0118 0.09268-0.0157 0.12443-0.22988 0.30979-0.25218 0.23187-0.31791-0.01386 3e-3 -0.08479 0.029-0.17087 0.0856-0.23554 0.0313-0.04028 0.0789-0.07174 0.092-0.12364 4e-3 -0.01949 2e-3 -0.03993-4e-3 -0.05892z"/>
     <path d="m275.23 69.015c0.0357 0.02905 0.0685 0.06451 0.0815 0.1098 8e-3 0.03189 0.03 0.14279 0.0261 0.17454-0.0867 0.37496-0.29394 0.18175-0.35967-0.06397 3e-3 -0.08479 0.029-0.17087 0.0856-0.23554 0.0178-0.04006 8e-3 -0.17031 0.16651 0.01518z"/>
     <path d="m279.05 68.439c-0.0357 0.02905-0.0685 0.06451-0.0815 0.1098-8e-3 0.03189 0.0201 0.17203 0.024 0.20377 0.0867 0.37496 0.24383 0.15252 0.30956-0.0932-3e-3 -0.08479-0.029-0.17087-0.0856-0.23554-0.0178-0.04006-8e-3 -0.17031-0.16651 0.01518z"/>
     <path d="m279.37 69.95c0.095 0.11824 0.0618 0.21672 0.0533 0.35115-0.0867 0.37496-0.23965 0.11494-0.30538-0.13079 3e-3 -0.08479 0.029-0.17087 0.0856-0.23554 0.0178-0.04006 8e-3 -0.17031 0.16651 0.01518z"/>
     <path d="m272.32 68.486c-0.0357 0.02905-0.0685 0.06451-0.0815 0.1098-8e-3 0.03189 0.0201 0.17203 0.024 0.20377 0.0867 0.37496 0.24383 0.15252 0.30956-0.0932-3e-3 -0.08479-0.029-0.17087-0.0856-0.23554-0.0178-0.04006-8e-3 -0.17031-0.16651 0.01518z"/>
     <path d="m281.78 71.439c-0.104 0.10075-0.0762 0.1727-0.0575 0.31357 0.0639 0.27634 0.17786 0.18096 0.25348 0.03816 0.027-0.05096 0.0388-0.06673 0.0561-0.13136-3e-3 -0.08479-0.029-0.17087-0.0856-0.23554-0.0178-0.04006-8e-3 -0.17031-0.16651 0.01518z"/>
     <path d="m280.31 73.152c0.104 0.10075 0.0762 0.1727 0.0575 0.31357-0.0639 0.27634-0.17786 0.18096-0.25348 0.03816-0.027-0.05096-0.0388-0.06673-0.0561-0.13136 3e-3 -0.08479 0.029-0.17087 0.0856-0.23554 0.0178-0.04006 8e-3 -0.17031 0.16651 0.01518z"/>
    </g>
   </g>
  </g>
 </g>
</svg>
