<?xml version="1.0" encoding="UTF-8" standalone="no"?>
<svg
   inkscape:export-ydpi="196.37715"
   inkscape:export-xdpi="196.37715"
   inkscape:export-filename="/home/russs/Documents/Global Ecobrick Alli Dropbox/Vision Ecobrick Source FIles/GEA Logos/GEA Logos/GEA Logo Horizontal v2.2 - 1000px.png"
   sodipodi:docname="prototype-logo.svg"
   inkscape:version="1.1 (ce6663b3b7, 2021-05-25)"
   id="svg4724"
   version="1.1"
   viewBox="0 0 127.13909 25.610444"
   height="25.610443mm"
   width="127.13908mm"
   xmlns:inkscape="http://www.inkscape.org/namespaces/inkscape"
   xmlns:sodipodi="http://sodipodi.sourceforge.net/DTD/sodipodi-0.dtd"
   xmlns="http://www.w3.org/2000/svg"
   xmlns:svg="http://www.w3.org/2000/svg">
  <sodipodi:namedview
     id="namedview2013"
     pagecolor="#ffffff"
     bordercolor="#666666"
     borderopacity="1.0"
     inkscape:pageshadow="2"
     inkscape:pageopacity="0.0"
     inkscape:pagecheckerboard="0"
     inkscape:document-units="mm"
     showgrid="false"
     inkscape:zoom="1.3569686"
     inkscape:cx="304.72333"
     inkscape:cy="41.636924"
     inkscape:window-width="1520"
     inkscape:window-height="836"
     inkscape:window-x="80"
     inkscape:window-y="27"
     inkscape:window-maximized="1"
     inkscape:current-layer="g396" />
  <defs
     id="defs4718" />
  <metadata
     id="metadata4721" />
  <g
     transform="translate(-38.817674,-93.820416)"
     id="layer1"
     inkscape:groupmode="layer"
     inkscape:label="Layer 1">
    <g
       transform="matrix(0.26458333,0,0,0.26458333,34.812877,100.62615)"
       inkscape:export-ydpi="78.429047"
       inkscape:export-xdpi="78.429047"
       id="g396">
      <g
         aria-label="Ecobricks.org"
         transform="matrix(10.203003,0,0,10.203003,-3038.848,-2968.1193)"
         style="font-style:normal;font-weight:normal;line-height:0.01%;font-family:sans-serif;letter-spacing:0px;word-spacing:0px;fill:#666666;fill-opacity:1;stroke:none"
         id="g1615">
        <g
           id="flowRoot1613"
           style="font-style:normal;font-weight:normal;font-size:40px;line-height:0px;font-family:sans-serif;letter-spacing:0px;word-spacing:0px;fill:#666666;fill-opacity:1;stroke:none"
           transform="matrix(0.14204723,0,0,0.14204723,278.94557,191.12579)"
           aria-label="ecobricks.org">
          <path
             d="m 220.69141,720.5004 c 0.0605,2.19954 2.16322,3.8166 4.2215,4.07623 2.45474,0.33278 4.90379,-0.36081 7.16522,-1.26368 0.71615,1.33463 1.43229,2.66927 2.14844,4.0039 -1.99281,1.26888 -4.19517,2.34192 -6.59195,2.48475 -2.95761,0.29464 -6.12367,-0.14753 -8.55811,-1.96587 -3.12559,-2.21298 -4.51274,-6.25189 -4.1578,-9.97444 0.26207,-3.74067 2.66992,-7.2619 6.13945,-8.73352 2.64364,-1.13714 5.75248,-1.20184 8.44459,-0.18914 2.87173,1.05996 4.94142,3.70688 5.64484,6.64358 0.3981,1.60294 0.49585,3.27284 0.44621,4.91824 -4.96746,-2e-5 -9.93493,-3e-5 -14.90239,-5e-5 z m 4.66796,-7.38281 c -1.67059,-0.0716 -3.4893,0.70303 -4.15161,2.32788 -0.43805,0.6726 -0.38251,1.11431 0.43892,0.93383 2.55918,0 5.11836,0 7.67754,0 -0.22117,-1.33996 -1.03005,-2.69574 -2.42249,-3.05237 -0.49666,-0.16146 -1.02253,-0.20827 -1.54236,-0.20934 z"
             style="font-style:normal;font-variant:normal;font-weight:bold;font-stretch:normal;font-family:Arvo;-inkscape-font-specification:'Arvo Bold';letter-spacing:-1.37997px"
             id="path698" />
          <path
             d="m 252.41691,716.10587 c -0.99915,-1.32628 -2.62732,-2.2223 -4.31641,-2.05078 -2.23223,-0.23714 -4.35964,1.43365 -4.86938,3.58031 -0.6632,2.28981 0.20168,5.09271 2.39379,6.22559 1.31769,0.70954 2.94899,0.9189 4.32343,0.23071 1.28639,-0.54212 2.24433,-1.66036 2.82013,-2.90771 1.79036,0.49479 3.58073,0.98959 5.37109,1.48438 -1.0987,3.7308 -4.59488,6.43526 -8.3794,7.01776 -3.04249,0.4971 -6.33376,-0.15786 -8.73516,-2.15746 -2.95501,-2.35461 -4.33914,-6.33413 -3.82597,-10.03713 0.48689,-4.2074 3.81566,-7.93395 7.98874,-8.76625 1.71646,-0.3135 3.50777,-0.33253 5.22131,0.004 1.274,0.26573 2.46319,0.86166 3.57166,1.49757 1.2756,0 2.55119,0 3.82679,0 0,1.95964 0,3.91927 0,5.87891 -1.79687,0 -3.59375,0 -5.39062,0 z"
             style="font-style:normal;font-variant:normal;font-weight:bold;font-stretch:normal;font-family:Arvo;-inkscape-font-specification:'Arvo Bold';letter-spacing:-1.37997px"
             id="path700" />
          <path
             d="m 258.77131,719.15274 c -0.0717,-3.9838 2.3029,-7.91452 5.94116,-9.58527 4.11364,-1.97639 9.48267,-1.18374 12.66295,2.15655 3.41512,3.49411 3.85305,9.34063 1.21034,13.40529 -1.9627,3.12601 -5.71037,4.86742 -9.35615,4.70375 -3.66629,0.006 -7.31359,-1.98369 -9.08562,-5.22898 -0.94365,-1.64933 -1.37627,-3.5591 -1.37268,-5.45134 z m 5.83985,0 c -0.0884,2.43691 1.69729,4.88838 4.17663,5.21851 2.0632,0.36374 4.2552,-0.78661 5.08797,-2.72011 1.02923,-2.30553 0.58797,-5.45198 -1.59371,-6.94664 -2.24937,-1.51733 -5.76876,-0.82206 -7.00942,1.679 -0.46313,0.84426 -0.6673,1.81056 -0.66147,2.76924 z"
             style="font-style:normal;font-variant:normal;font-weight:bold;font-stretch:normal;font-family:Arvo;-inkscape-font-specification:'Arvo Bold';letter-spacing:-1.37997px"
             id="path702" />
          <path
             id="path704"
             style="font-style:normal;font-variant:normal;font-weight:bold;font-stretch:normal;font-family:Arvo;-inkscape-font-specification:'Arvo Bold';letter-spacing:-1.37997px"
             d="m 280.84837,698.95743 h 8.82813 v 10.60547 q 1.05469,-0.50781 2.16797,-0.78125 1.11328,-0.27344 2.28515,-0.27344 2.2461,0 4.16016,0.83984 1.91406,0.83985 3.30078,2.28516 1.38672,1.44531 2.16797,3.37891 0.80078,1.93359 0.80078,4.10156 0,2.1875 -0.78125,4.12109 -0.76172,1.9336 -2.14844,3.37891 -1.38672,1.42578 -3.30078,2.26562 -1.91406,0.82032 -4.19922,0.82032 -1.23047,0 -2.34375,-0.23438 -1.11328,-0.23437 -2.10937,-0.66406 v 0.54687 h -5.9961 v -25.03906 h -2.83203 z m 12.8711,14.94141 q -1.28907,0 -2.32422,0.58593 -1.01563,0.58594 -1.71875,1.67969 v 6.05469 q 0.625,0.9375 1.66015,1.52344 1.05469,0.5664 2.34375,0.5664 0.9961,0 1.89454,-0.35156 0.89843,-0.37109 1.5625,-1.03516 0.68359,-0.68359 1.07421,-1.62109 0.39063,-0.95703 0.39063,-2.14844 0,-1.21094 -0.39063,-2.1875 -0.39062,-0.97656 -1.05468,-1.66015 -0.66407,-0.6836 -1.5625,-1.03516 -0.87891,-0.37109 -1.875,-0.37109 z"
             inkscape:connector-curvature="0" />
          <path
             id="path706"
             style="font-style:normal;font-variant:normal;font-weight:bold;font-stretch:normal;font-family:Arvo;-inkscape-font-specification:'Arvo Bold';letter-spacing:-1.37997px"
             d="m 324.29263,716.47696 h -5.48829 v -2.08984 q -0.80078,0 -1.46484,0.11718 -0.66406,0.0977 -1.17187,0.35157 -0.48829,0.2539 -0.83985,0.70312 -0.33203,0.44922 -0.46875,1.11328 v 7.32422 h 4.1211 v 5.35156 H 305.777 v -5.35156 h 3.02734 v -9.53125 h -2.98828 v -5.35156 h 9.00391 v 1.42578 q 0.85937,-0.68359 1.93359,-1.05469 1.07422,-0.37109 2.34375,-0.37109 1.28907,0 2.65625,0.0195 1.36719,0.0195 2.53907,0.0195 z"
             inkscape:connector-curvature="0" />
          <path
             id="path708"
             style="font-style:normal;font-variant:normal;font-weight:bold;font-stretch:normal;font-family:Arvo;-inkscape-font-specification:'Arvo Bold';letter-spacing:-1.37997px"
             d="m 326.27203,709.11368 h 9.08203 v 14.88281 h 2.8125 v 5.35156 h -11.89453 v -5.35156 h 3.04688 v -9.53125 h -3.04688 z m 2.73438,-6.52344 q 0,-0.72265 0.2539,-1.34765 0.27344,-0.64454 0.74219,-1.11329 0.46875,-0.46875 1.09375,-0.74218 0.64453,-0.27344 1.38672,-0.27344 0.70313,0 1.32813,0.27344 0.625,0.27343 1.09375,0.74218 0.46875,0.46875 0.74218,1.11329 0.27344,0.625 0.27344,1.34765 0,0.72266 -0.27344,1.36719 -0.27343,0.625 -0.74218,1.09375 -0.46875,0.46875 -1.09375,0.74219 -0.625,0.27343 -1.32813,0.27343 -0.74219,0 -1.38672,-0.27343 -0.625,-0.27344 -1.09375,-0.74219 -0.46875,-0.46875 -0.74219,-1.09375 -0.2539,-0.64453 -0.2539,-1.36719 z"
             inkscape:connector-curvature="0" />
          <path
             id="path710"
             style="font-style:normal;font-variant:normal;font-weight:bold;font-stretch:normal;font-family:Arvo;-inkscape-font-specification:'Arvo Bold';letter-spacing:-1.37997px"
             d="m 355.51706,716.10587 q -0.83984,-1.05469 -1.875,-1.58203 -1.03516,-0.54688 -2.44141,-0.46875 -1.13281,-0.0781 -2.07031,0.3125 -0.91797,0.39062 -1.60156,1.09375 -0.66406,0.70312 -1.03516,1.67968 -0.37109,0.95703 -0.37109,2.16797 0,1.07422 0.39062,2.03125 0.39063,0.95703 1.05469,1.66016 0.68359,0.68359 1.60156,1.07422 0.9375,0.39062 2.03125,0.46875 0.91797,-0.0781 1.66016,-0.3711 0.76172,-0.3125 1.34766,-0.78125 0.58593,-0.48828 0.99609,-1.07422 0.42969,-0.60546 0.66406,-1.13281 l 5.3711,1.48438 q -0.33204,1.17187 -1.15235,2.4414 -0.80078,1.26953 -2.10937,2.32422 -1.28907,1.03516 -3.08594,1.71875 -1.77734,0.6836 -4.0625,0.6836 -2.32422,0 -4.27734,-0.83985 -1.95313,-0.85937 -3.35938,-2.32422 -1.40625,-1.46484 -2.20703,-3.4375 -0.78125,-1.97265 -0.78125,-4.23828 0,-2.24609 0.80078,-4.16015 0.82031,-1.9336 2.24609,-3.35938 1.42579,-1.44531 3.37891,-2.24609 1.97266,-0.80078 4.27734,-0.72266 1.64063,-0.0781 3.1836,0.37109 1.54297,0.44922 2.92969,1.34766 h 3.88671 v 5.87891 z"
             inkscape:connector-curvature="0" />
          <path
             id="path712"
             style="font-style:normal;font-variant:normal;font-weight:bold;font-stretch:normal;font-family:Arvo;-inkscape-font-specification:'Arvo Bold';letter-spacing:-1.37997px"
             d="m 361.61757,698.95743 h 9.12109 v 17.51953 h 3.41797 l 1.40625,-2.01172 v -5.35156 h 10.46875 v 5.35156 h -3.63281 l -3.76953,4.35547 3.84765,4.64844 h 3.35938 v 5.8789 h -5.48828 l -6.5625,-8.67187 h -3.04688 v 3.32031 h 2.07032 v 5.35156 h -11.19141 v -5.35156 h 3.125 v -19.6875 h -3.125 z"
             inkscape:connector-curvature="0" />
          <path
             d="m 401.91728,715.30509 c -0.0721,-1.31884 -1.52632,-1.92129 -2.63672,-2.16797 -1.32447,-0.24718 -2.83035,-0.39221 -4.0332,0.32712 -1.07814,0.67041 -0.45651,2.2983 0.70313,2.4121 2.56412,0.60337 5.23902,0.82723 7.67617,1.88554 1.69575,0.70149 3.18712,2.1475 3.45176,4.02755 0.41266,2.10961 -0.42425,4.35353 -2.07786,5.71731 -2.45539,2.03143 -5.8482,2.60275 -8.94676,2.20941 -1.44329,-0.19839 -2.89128,-0.68022 -3.99979,-1.65719 -1.17839,0 -2.35677,0 -3.53516,0 0,-1.8099 0,-3.61979 0,-5.42969 1.84245,0 3.6849,0 5.52735,0 -0.0496,1.31175 1.33123,2.03379 2.4414,2.26563 1.32,0.20431 2.76544,0.25945 4.00391,-0.3125 1.03915,-0.41962 1.04374,-1.98845 0.032,-2.43133 -1.11286,-0.50093 -2.35186,-0.60356 -3.52839,-0.89972 -2.47969,-0.50894 -5.17229,-1.02197 -6.98338,-2.94276 -1.94645,-2.06418 -1.79293,-5.6265 0.23139,-7.58827 2.40392,-2.42533 6.10257,-2.93656 9.35159,-2.42904 1.4263,0.18873 2.82321,0.69279 3.96316,1.58409 1.13281,0 2.26562,0 3.39843,0 0,1.8099 0,3.61979 0,5.42969 -1.67969,10e-6 -3.35938,2e-5 -5.03907,3e-5 z"
             style="font-style:normal;font-variant:normal;font-weight:bold;font-stretch:normal;font-family:Arvo;-inkscape-font-specification:'Arvo Bold';letter-spacing:-1.37997px"
             id="path714" />
          <path
             d="m 408.99434,726.18399 c -0.031,-1.36255 0.75207,-2.70675 1.96411,-3.33496 1.0374,-0.576 2.35348,-0.64344 3.41992,-0.10414 1.2539,0.57085 2.1388,1.8695 2.18951,3.24959 0.0809,1.49506 -0.79839,3.01164 -2.17347,3.62879 -1.24114,0.62627 -2.8052,0.43122 -3.90837,-0.39332 -0.91145,-0.64497 -1.46285,-1.73553 -1.48743,-2.84729 -0.003,-0.0662 -0.004,-0.13243 -0.004,-0.19867 z"
             style="font-style:normal;font-variant:normal;font-weight:bold;font-stretch:normal;font-family:Arvo;-inkscape-font-specification:'Arvo Bold';letter-spacing:-1.37997px"
             id="path716" />
          <path
             d="m 418.23938,719.23087 c -0.0362,-3.33167 1.31051,-6.79176 4.04987,-8.80276 2.85569,-2.11187 6.81395,-2.41712 10.09159,-1.18551 2.95148,1.09013 5.0932,3.81896 5.78118,6.84907 0.88219,3.79595 0.17234,8.17536 -2.62985,11.02982 -2.26899,2.35824 -5.75002,3.2029 -8.92232,2.70309 -3.1311,-0.42027 -5.97385,-2.50462 -7.256,-5.40137 -0.76739,-1.61597 -1.10454,-3.41013 -1.11447,-5.19234 z m 3.84766,0 c -0.0691,2.74865 1.16495,5.72845 3.72657,7.00027 2.64557,1.35805 6.20278,0.33432 7.70561,-2.23862 1.47782,-2.43037 1.57418,-5.54367 0.69283,-8.19976 -0.69416,-2.11842 -2.58466,-3.82149 -4.8304,-4.07136 -2.41817,-0.40941 -5.03855,0.7538 -6.21063,2.93916 -0.80377,1.37843 -1.08955,2.99093 -1.08398,4.57031 z"
             style="letter-spacing:-2.06995px"
             id="path718" />
          <path
             d="m 454.60192,713.39102 c -1.23698,0 -2.47396,0 -3.71094,0 0,-0.41667 0,-0.83333 0,-1.25 -2.11552,-10e-4 -3.82875,1.82191 -4.18579,3.82294 -0.11328,0.84493 -0.0241,1.71022 -0.0525,2.56369 0,2.48701 0,4.97402 0,7.46103 1.14583,0 2.29167,0 3.4375,0 0,1.11979 0,2.23958 0,3.35937 -3.34635,0 -6.69271,0 -10.03906,0 0,-1.11979 0,-2.23958 0,-3.35937 0.93099,0 1.86197,0 2.79296,0 0.007,-4.50521 0.013,-9.01042 0.0195,-13.51563 -0.9375,0 -1.875,0 -2.8125,0 0,-1.11979 0,-2.23958 0,-3.35937 2.15495,0 4.30989,0 6.46484,0 0,0.93099 0,1.86198 0,2.79297 0.8552,-1.63417 2.4918,-3.02548 4.4251,-2.94922 1.22033,0.004 2.44133,-0.0176 3.66084,0.0391 10e-6,1.46483 3e-5,2.92966 4e-5,4.39449 z"
             style="letter-spacing:-2.06995px"
             id="path720" />
          <path
             d="m 470.45388,727.57071 c -1.6922,1.87611 -4.37326,2.53404 -6.81213,2.12768 -3.20675,-0.34994 -6.0715,-2.57923 -7.23206,-5.5844 -1.13347,-2.86919 -1.21885,-6.15654 -0.29877,-9.09531 0.97394,-3.18954 3.81965,-5.65109 7.10175,-6.20285 2.45094,-0.42727 5.19628,-0.21551 7.24121,1.33301 0.10419,-0.33419 -0.25544,-1.1322 0.27997,-1.03516 1.11761,0 2.23523,0 3.35284,0 -0.009,6.72328 0.0183,13.44703 -0.0139,20.17002 -0.0642,2.92306 -1.07272,6.17149 -3.74647,7.71881 -2.70229,1.50482 -5.98664,1.49766 -8.94954,0.91 -1.89831,-0.44154 -3.783,-1.16913 -5.27832,-2.45117 0.65104,-0.98307 1.30208,-1.96615 1.95312,-2.94922 2.56906,2.10969 6.24027,2.86957 9.43207,1.92597 2.05021,-0.66991 2.78513,-2.95565 2.90299,-4.90121 0.0584,-0.65369 0.0702,-1.31022 0.0673,-1.96617 z m -4.84375,-0.9375 c 1.79483,0.007 3.79356,-0.63507 4.84375,-2.1403 0,-3.66808 0,-7.33615 0,-11.00423 -1.75286,-1.50825 -4.28722,-1.94942 -6.51123,-1.46943 -2.42304,0.55044 -4.14686,2.77627 -4.52569,5.16724 -0.43142,2.79395 -0.0331,6.08044 2.18018,8.0655 1.09913,0.95366 2.57379,1.38864 4.01299,1.38122 z"
             style="letter-spacing:-2.06995px"
             id="path722" />
        </g>
      </g>
    </g>
    <g
       transform="matrix(0.15892893,0,0,0.15215691,34.063592,85.501979)"
       id="g22866"
       inkscape:export-filename="/home/russs/GEA Files/GEA Circles/Development Circle/New Ecobricks.org/icons/full-emblem-1000px.png"
       inkscape:export-xdpi="128.44003"
       inkscape:export-ydpi="128.44003">
      <path
         id="path22806"
         d="m 57.667603,152.74436 c -9.25023,-1.35344 -19.06138,-7.67961 -23.50168,-15.15375 -6.52072,-10.97599 -5.47984,-24.12571 2.69018,-33.98583 9.24594,-11.158595 25.30589,-15.484308 39.55101,-10.652971 9.60125,3.256338 17.37464,10.864171 20.45514,20.019491 1.18117,3.51041 1.60489,9.90451 0.91783,13.84995 -2.11156,12.12547 -13.2933,22.85979 -26.69336,25.62528 -3.53138,0.7288 -9.55923,0.86258 -13.41912,0.29783 z m 13.69532,-25.06612 c 2.33566,-0.87388 4.72691,-3.05334 5.69893,-5.1942 0.91624,-2.01795 0.92305,-5.72342 0.0142,-7.7245 -1.48849,-3.27735 -4.93029,-5.50919 -9.02538,-5.85251 -4.94843,-0.41486 -9.20229,1.95179 -10.99388,6.11648 -1.1678,2.71459 -0.95213,6.09357 0.54254,8.50064 1.13981,1.83556 3.83693,3.94447 5.75577,4.50047 2.10551,0.61011 5.88877,0.44646 8.00781,-0.34638 z"
         style="fill:#ff13ff;fill-opacity:1;stroke:none;stroke-width:0.255555;stop-color:#000000" />
      <path
         id="path22808"
         d="m 91.761503,95.146297 c -6.03227,-1.102394 -10.81686,-3.273692 -15.61404,-7.08583 -7.75245,-6.160595 -11.29815,-14.300774 -9.5199,-21.855751 1.2517,-5.317977 5.70694,-9.333242 12.25786,-11.047362 3.20627,-0.838954 10.3193,-0.557091 14.09302,0.558456 8.894847,2.629386 15.926407,8.084883 19.653067,15.247979 2.98316,5.734017 3.27648,10.437523 0.94567,15.164101 -3.47214,7.04106 -12.41235,10.736858 -21.815677,9.018407 z m 5.60982,-15.97 c 0.63114,-0.326383 1.46687,-1.117137 1.85716,-1.757231 2.588787,-4.245746 -2.97812,-10.433699 -9.38653,-10.433699 -6.30533,0 -7.50953,6.862705 -1.92487,10.969718 2.86978,2.110453 6.76231,2.613255 9.45424,1.221212 z"
         style="fill:#ff0000;fill-opacity:1;stroke:none;stroke-width:0.255555;stop-color:#000000" />
      <path
         id="path22810"
         d="m 139.14667,96.049984 c -4.27464,-0.647131 -9.8151,-3.548941 -13.86329,-7.260899 -6.12678,-5.617882 -9.81617,-13.84172 -8.64972,-19.280689 0.77912,-3.63287 3.06033,-6.36779 6.52629,-7.82429 1.69972,-0.714278 7.37893,-0.673467 9.88596,0.07104 6.76189,2.008068 13.49781,7.328567 17.35654,13.709422 4.01897,6.645825 4.02817,14.148781 0.022,17.948629 -2.44458,2.318687 -6.74203,3.323445 -11.27777,2.636787 z m 0.60256,-13.276781 c 4.55156,-2.159856 0.19972,-10.213677 -5.90989,-10.937271 -1.73579,-0.205579 -1.94625,-0.14272 -2.97861,0.889638 -0.84498,0.844987 -1.11084,1.438082 -1.11084,2.478137 0,2.932467 2.74556,6.413648 5.95648,7.552409 1.96765,0.697834 2.60264,0.700517 4.04286,0.01709 z"
         style="fill:#fa8d04;fill-opacity:1;stroke:none;stroke-width:0.255555;stop-color:#000000" />
      <path
         id="path22818"
         d="m 170.19041,135.15057 c -4.41017,-0.97864 -8.84675,-3.81852 -13.23856,-8.47406 -5.23696,-5.55146 -8.11825,-11.25796 -9.02385,-17.87213 -0.63718,-4.65377 0.26393,-8.7691 2.55296,-11.65924 3.44278,-4.346866 10.75094,-4.611124 17.35649,-0.6276 6.47649,3.90569 11.85812,10.52185 14.66251,18.02605 1.03002,2.7562 1.19746,3.70316 1.32892,7.51583 0.13263,3.8467 0.0549,4.61661 -0.6578,6.51394 -1.99023,5.29842 -7.09267,7.88379 -12.98067,6.57721 z m 1.14557,-16.52738 c 0.62187,-0.62195 0.75888,-1.18683 0.73404,-3.02652 -0.065,-4.81172 -4.04744,-9.31826 -8.25618,-9.34261 -2.16079,-0.0125 -3.16526,1.2216 -3.16077,3.88339 0.008,4.91806 4.47503,9.86171 8.50175,9.40949 0.78023,-0.0876 1.76003,-0.50259 2.18116,-0.92375 z"
         style="fill:#fddf00;fill-opacity:1;stroke:none;stroke-width:0.255555;stop-color:#000000" />
      <path
         id="path22820"
         d="m 123.97384,141.85511 c -16.88788,-4.42269 -27.812837,-25.14445 -20.84932,-39.54566 1.39011,-2.874865 5.08513,-6.48007 8.21033,-8.010753 10.74769,-5.264092 25.84667,1.400122 32.92745,14.533153 5.93707,11.01174 5.01489,22.26088 -2.37884,29.01834 -4.72343,4.31695 -11.19349,5.76377 -17.90962,4.00492 z m 6.86662,-19.55149 c 0.49984,-0.35766 1.28876,-1.37685 1.75313,-2.26487 2.64788,-5.06353 -2.33721,-12.68613 -8.29658,-12.68613 -2.56399,0 -4.61577,1.11697 -5.45718,2.97084 -2.07019,4.56122 0.99593,11.0129 6.00247,12.63032 1.5268,0.49325 4.91317,0.12619 5.99816,-0.65016 z"
         style="fill:#999999;fill-opacity:1;stroke:none;stroke-width:0.255555;stop-color:#000000" />
      <path
         id="path22822"
         d="m 102.44266,222.86994 c -2.609027,-0.32932 -4.932167,-1.11811 -8.662297,-2.94124 -2.46895,-1.20671 -3.80576,-2.20891 -6.82366,-5.11565 -5.32395,-5.1279 -8.06429,-9.53221 -10.43847,-16.77689 -1.57938,-4.81942 -2.14546,-8.85827 -2.16539,-15.44982 -0.0204,-6.74652 0.52093,-10.28688 2.37758,-15.54974 4.54609,-12.88625 13.506,-22.07946 24.193397,-24.82328 3.11628,-0.80007 8.46749,-0.97647 11.55862,-0.38103 5.26719,1.01459 10.88441,4.13967 15.07051,8.38431 10.74668,10.89698 14.71629,28.9454 9.97904,45.37113 -1.04611,3.62721 -3.80252,9.61986 -5.82927,12.6733 -4.23908,6.38645 -11.81241,12.15485 -18.34545,13.97322 -2.09877,0.58416 -8.41046,0.95177 -10.91461,0.63569 z m 10.41067,-33.87004 c 2.34514,-1.09206 5.0049,-4.04369 5.97126,-6.62654 0.83893,-2.24225 1.03395,-7.644 0.36318,-10.05938 -0.61285,-2.20681 -3.28284,-5.77959 -5.20965,-6.97116 -1.51906,-0.93941 -2.05808,-1.0661 -4.51846,-1.06197 -3.23634,0.005 -4.47306,0.51471 -6.61859,2.72553 -2.869557,2.95687 -4.416917,8.1492 -3.678237,12.34271 0.44409,2.52114 1.899277,5.92315 3.071017,7.17962 2.99049,3.20669 7.02428,4.14537 10.61948,2.47119 z"
         style="fill:#00e6ff;fill-opacity:1;stroke:none;stroke-width:0.255555;stop-color:#000000" />
      <path
         id="path22824"
         d="m 166.38476,196.3701 c -7.70422,-1.12849 -16.52076,-8.83497 -21.52502,-18.81489 -3.42167,-6.82378 -5.13036,-14.65983 -4.8084,-22.05148 0.22139,-5.08294 0.82226,-7.56122 2.86453,-11.81457 4.28764,-8.92976 12.90321,-11.83332 22.07288,-7.43888 8.3075,3.98127 15.47078,13.21883 18.87664,24.3428 1.6615,5.42668 1.97224,7.90422 1.7934,14.299 -0.14458,5.16957 -0.26035,5.98385 -1.25512,8.82765 -3.21229,9.18319 -9.85431,13.84629 -18.01891,12.65037 z m 1.53918,-24.87329 c 0.58211,-0.30102 1.45604,-1.24165 1.94207,-2.09027 1.77497,-3.09918 1.54907,-6.87742 -0.68336,-11.42938 -3.44099,-7.01625 -10.55914,-7.96103 -12.39519,-1.64521 -2.34838,8.07813 5.13494,18.26837 11.13648,15.16486 z"
         style="fill:#05f30a;fill-opacity:1;stroke:none;stroke-width:0.255555;stop-color:#000000" />
    </g>
  </g>
</svg>
