<?xml version="1.0" encoding="UTF-8" standalone="no"?>
<svg
   width="228.69mm"
   height="235.04mm"
   version="1.1"
   viewBox="0 0 228.69 235.04"
   id="svg7024"
   sodipodi:docname="question.svg"
   inkscape:export-filename="/home/russs/GEA Files/GEA Circles/Development Circle/Live Github Code/ecobricks-org/pngs/question-500px.png"
   inkscape:export-xdpi="56.972027"
   inkscape:export-ydpi="56.972027"
   inkscape:version="1.1 (ce6663b3b7, 2021-05-25)"
   xmlns:inkscape="http://www.inkscape.org/namespaces/inkscape"
   xmlns:sodipodi="http://sodipodi.sourceforge.net/DTD/sodipodi-0.dtd"
   xmlns="http://www.w3.org/2000/svg"
   xmlns:svg="http://www.w3.org/2000/svg">
  <sodipodi:namedview
     id="namedview7026"
     pagecolor="#ffffff"
     bordercolor="#666666"
     borderopacity="1.0"
     inkscape:pageshadow="2"
     inkscape:pageopacity="0.0"
     inkscape:pagecheckerboard="0"
     inkscape:document-units="mm"
     showgrid="false"
     inkscape:zoom="0.68607248"
     inkscape:cx="432.17008"
     inkscape:cy="443.83066"
     inkscape:window-width="1476"
     inkscape:window-height="800"
     inkscape:window-x="60"
     inkscape:window-y="27"
     inkscape:window-maximized="1"
     inkscape:current-layer="svg7024" />
  <defs
     id="defs6682">
    <filter
       id="filter120947"
       x="-0.078363017"
       y="-0.15891215"
       width="1.1748669"
       height="1.3546124"
       color-interpolation-filters="sRGB">
      <feFlood
         flood-color="rgb(0,0,0)"
         flood-opacity=".49804"
         result="flood"
         id="feFlood6637" />
      <feComposite
         in="flood"
         in2="SourceGraphic"
         operator="in"
         result="composite1"
         id="feComposite6639" />
      <feGaussianBlur
         in="composite1"
         result="blur"
         stdDeviation="9.7575"
         id="feGaussianBlur6641" />
      <feOffset
         dx="6"
         dy="6"
         result="offset"
         id="feOffset6643" />
      <feComposite
         in="offset"
         in2="offset"
         operator="atop"
         result="composite2"
         id="feComposite6645" />
    </filter>
    <filter
       id="filter145105"
       x="-0.22688568"
       y="-0.14550456"
       width="1.4534784"
       height="1.291362"
       color-interpolation-filters="sRGB">
      <feFlood
         flood-color="rgb(255,255,255)"
         result="flood"
         id="feFlood6648" />
      <feComposite
         in="flood"
         in2="SourceGraphic"
         operator="in"
         result="composite1"
         id="feComposite6650" />
      <feGaussianBlur
         in="composite1"
         result="blur"
         stdDeviation="5.29444"
         id="feGaussianBlur6652" />
      <feOffset
         dx="0"
         dy="0"
         result="offset"
         id="feOffset6654" />
      <feComposite
         in="SourceGraphic"
         in2="offset"
         result="fbSourceGraphic"
         id="feComposite6656" />
      <feColorMatrix
         in="fbSourceGraphic"
         result="fbSourceGraphicAlpha"
         values="0 0 0 -1 0 0 0 0 -1 0 0 0 0 -1 0 0 0 0 1 0"
         id="feColorMatrix6658" />
      <feFlood
         flood-color="rgb(255,255,255)"
         flood-opacity=".37255"
         in="fbSourceGraphic"
         result="flood"
         id="feFlood6660" />
      <feComposite
         in="flood"
         in2="fbSourceGraphic"
         operator="in"
         result="composite1"
         id="feComposite6662" />
      <feGaussianBlur
         in="composite1"
         result="blur"
         stdDeviation="2.47003"
         id="feGaussianBlur6664" />
      <feOffset
         dx="0"
         dy="0"
         result="offset"
         id="feOffset6666" />
      <feComposite
         in="fbSourceGraphic"
         in2="offset"
         result="composite2"
         id="feComposite6668" />
    </filter>
    <filter
       id="filter145455"
       x="-0.076036538"
       y="-0.073452004"
       width="1.1730191"
       height="1.1646162"
       color-interpolation-filters="sRGB">
      <feFlood
         flood-color="rgb(3,3,3)"
         flood-opacity=".37255"
         result="flood"
         id="feFlood6671" />
      <feComposite
         in="flood"
         in2="SourceGraphic"
         operator="out"
         result="composite1"
         id="feComposite6673" />
      <feGaussianBlur
         in="composite1"
         result="blur"
         stdDeviation="6.12851"
         id="feGaussianBlur6675" />
      <feOffset
         dx="4.08364"
         dy="3.57467"
         result="offset"
         id="feOffset6677" />
      <feComposite
         in="offset"
         in2="SourceGraphic"
         operator="atop"
         result="composite2"
         id="feComposite6679" />
    </filter>
  </defs>
  <g
     transform="translate(-.78224 -5.8866)"
     id="g7022">
    <ellipse
       cx="113.09"
       cy="121.62"
       rx="97.48"
       ry="100.91"
       fill="#0ff"
       filter="url(#filter145455)"
       stroke="#808080"
       stroke-linecap="round"
       stroke-width=".23132"
       id="ellipse6684" />
    <path
       d="m146.09 152.57c-2.2532-0.25694-4.1698-5.6062-8.0384-3.4606-2.8736 1.4156-3.0041 4.1727-6.4047 4.0333-1.3433 0.92479-11.708 4.3042-11.708 4.3042 0.48755 1.8646 12.943 2.4992 15.158 1.8279 4.0919-0.14442 8.2596 0.30764 12.298-0.26339 23.583-0.37296 5.9251-6.3568-1.3045-6.4414z"
       fill="#fff"
       opacity=".77"
       stroke-width=".05613"
       id="path6686" />
    <g
       transform="matrix(.13407 0 0 .13407 83.446 147.47)"
       id="g6770">
      <path
         class="cls-5"
         transform="matrix(.93683 0 0 .93683 14.558 -12.33)"
         d="m71.973 284.48c-2.0314 6e-3 -3.9714 0.84435-5.368 2.3195-1.3376 1.5103-2.0278 3.4859-1.9219 5.5006 5.5272 87.261 77.912 155.21 165.35 155.21s159.82-67.945 165.35-155.21c0.19481-2.0264-0.5075-4.0364-1.9219-5.5006-1.345-1.5165-3.2747-2.3848-5.3017-2.3858-103.81 27.664-146.86 26.428-209.44 23.356-44.143-2.1667-82.686-10.578-106.74-23.29z"
         filter="url(#filter120947)"
         stroke="#333"
         stroke-linecap="round"
         stroke-linejoin="round"
         stroke-width="5"
         id="path6688" />
      <g
         fill="#0ff"
         id="g6696">
        <ellipse
           cx="230.48"
           cy="198.49"
           rx="197.26"
           ry="194.62"
           opacity=".1"
           stop-color="#000000"
           stroke="#29e1e1"
           stroke-linecap="square"
           stroke-linejoin="round"
           stroke-width="1.047"
           style="paint-order:fill markers stroke"
           id="ellipse6690" />
        <ellipse
           cx="230.04"
           cy="209.17"
           rx="170.63"
           ry="171.52"
           opacity=".2"
           stop-color="#000000"
           stroke="#29e1e1"
           stroke-linecap="square"
           stroke-linejoin="round"
           stroke-width=".91424"
           style="paint-order:fill markers stroke"
           id="ellipse6692" />
        <ellipse
           cx="231.93"
           cy="224.12"
           rx="148.33"
           ry="149.67"
           stop-color="#000000"
           style="paint-order:fill markers stroke"
           id="ellipse6694" />
      </g>
      <g
         stroke="#333"
         stroke-linejoin="round"
         id="g6704">
        <path
           d="m84.175 249.04c93.426-43.805 250.51-34.124 302.31 0.92221-81.072 29.763-229.86 33.339-302.31-0.92221z"
           fill="#0a0"
           stroke-width="4.8135"
           id="path6698" />
        <line
           class="cls-5"
           x1="123.52"
           x2="123.52"
           y1="245.39"
           y2="230.19"
           fill="#55d400"
           stroke-linecap="round"
           stroke-width="3.0785"
           id="line6700" />
        <polygon
           class="cls-6"
           transform="matrix(2.6575 0 0 2.6575 43.155 92.85)"
           points="34.53 42.37 30.24 37.36 25.95 42.37 28.81 42.37 24.52 47.38 28.09 47.38 24.52 51.68 30.24 51.68 35.97 51.68 32.39 47.38 35.97 47.38 31.67 42.37"
           fill="#55d400"
           stroke-linecap="round"
           stroke-width=".79906"
           id="polygon6702" />
      </g>
      <g
         stroke-width="6.2086"
         id="g6712">
        <path
           class="cls-7"
           d="m86.162 248.73c-1.903 6e-3 -3.7206 0.79102-5.0289 2.173-1.2531 1.4149-1.8998 3.2657-1.8005 5.1531 5.1781 81.749 72.991 145.4 154.9 145.4 81.913 0 149.73-63.653 154.9-145.4 0.1825-1.8984-0.47545-3.7815-1.8005-5.1531-1.2601-1.4207-3.0679-2.2342-4.9668-2.2351-107.15 33.54-204.8 29.172-296.21 0.0621z"
           fill="#06f"
           id="path6706" />
        <path
           class="cls-8"
           d="m372.93 251.71c-17.96 68.166-66.019 112.47-138.67 112.99-70.49 0.51313-132.13-47.503-150.09-115.67-1.1449 0.37623-2.1865 1.0139-3.0422 1.8626-1.2531 1.4149-1.8997 3.2657-1.8005 5.1531 5.1781 81.749 72.991 145.4 154.9 145.4 81.913 0 149.81-67.473 154.99-149.22 0.18251-1.8984-3.2099-6.0554-4.5349-7.427-0.81011-0.87476-10.612 7.2503-11.754 6.9054z"
           fill="#0b428c"
           id="path6708" />
        <path
           class="cls-8"
           d="m301.47 263.65c-17.96 68.166-23.799 82.183-94.292 82.183s-88.319-30.539-123.01-96.796c-1.1449 0.37623-2.1865 1.0139-3.0422 1.8626-1.2531 1.4149-1.8997 3.2657-1.8005 5.1531 5.1781 81.749 62.166 131.7 144.08 131.7 68.445-1.0361 151.48-71.12 143.92-133.49-0.81011-0.87476-64.72 9.733-65.862 9.3881z"
           fill="#145dbf"
           id="path6710" />
      </g>
      <path
         class="cls-6"
         d="m130.23 263.8c-9.4161 0.55658-1.03 7.7288-1.03 17.161 0 9.4326 2.8783 22.999 12.294 23.556 7.8458 0.10066 14.736 5.2373 17.074 12.728l14.838 47.558c2.3204 7.1886 9.5129 11.632 16.98 10.491 7.467-1.1416 13.003-7.5315 13.07-15.085v-12.417c4e-3 -13.454 5.3396-26.358 14.838-35.886 9.3191-8.7187 11.943-20.185 11.977-39.697-49.019-0.0964-76.549-3.1591-100.04-8.408z"
         fill="#6f0"
         stroke="#333"
         stroke-linecap="round"
         stroke-linejoin="round"
         stroke-width="3.5853"
         id="path6714" />
      <path
         class="cls-5"
         d="m338.69 362.28v-28.932c0-13.99-11.341-25.331-25.331-25.331-10.561 0-19.122 8.5614-19.122 19.122-0.13324 9.3307-6.9818 17.203-16.204 18.626l-4.7185 0.74504c-21.945 3.3781-22.731 2.7016-25.04 24.785l-3.4768 29.118c42.939-2.7423 64.412-13.532 93.892-38.133z"
         fill="#55d400"
         stroke="#333"
         stroke-linecap="round"
         stroke-linejoin="round"
         stroke-width="3.5853"
         id="path6716" />
      <path
         class="cls-5"
         d="m329.05 365.28v-19.531c0-9.444-3.9085-20.847-13.353-20.847-7.1293 0-12.909 5.7794-12.909 12.909-0.0899 6.2988-8.4604 19.107-14.686 20.068l-3.1853 0.50294c-14.814 2.2804-15.344 1.8237-16.903 16.731l-3.381 18.918c31.914-1.2607 44.516-12.144 64.417-28.751z"
         fill="#6f0"
         id="path6718" />
      <g
         stroke="#333"
         id="g6730">
        <path
           class="cls-5"
           d="m86.162 248.73c-1.903 6e-3 -3.7206 0.79102-5.0289 2.173-1.2531 1.4149-1.8998 3.2657-1.8005 5.1531 5.1781 81.749 72.991 145.4 154.9 145.4 81.913 0 149.73-63.653 154.9-145.4 0.1825-1.8984-0.47545-3.7815-1.8005-5.1531-1.2601-1.4207-3.0679-2.2342-4.9668-2.2351-97.251 25.917-137.58 24.758-196.21 21.881-41.354-2.0299-77.463-9.9098-99.996-21.819z"
           fill="none"
           stroke-linecap="round"
           stroke-linejoin="round"
           stroke-width="4.6842"
           id="path6720" />
        <path
           d="m165.38 238.52s-10.218 9.6084 20.421 8.8507c40.709 28.984 92.284 3.2526 46.078-1.4828l-25.114-10.559c-19.833-5.8984-25.987-3.3121-41.386 3.1911z"
           fill="#00b8f0"
           stroke-width="1.8484"
           id="path6722" />
        <line
           class="cls-5"
           x1="156.55"
           x2="156.55"
           y1="255.98"
           y2="237.94"
           fill="none"
           stroke-linecap="round"
           stroke-linejoin="round"
           stroke-width="4.2056"
           id="line6724" />
        <path
           d="m195.75 220.38c40.266-34.628 35.509-46.691 72.943 1.4965-31.479 9.2056-44.851 11.169-72.943-1.4965z"
           fill="#4a0"
           stroke-width="2.1235"
           id="path6726" />
        <polygon
           class="cls-6"
           transform="matrix(4.2056 0 0 4.2056 -24.792 16.888)"
           points="37.4 48.81 40.98 48.81 37.4 53.11 43.12 53.11 48.85 53.11 45.27 48.81 48.85 48.81 44.55 43.8 47.42 43.8 43.12 38.8 38.83 43.8 41.69 43.8"
           fill="#4a0"
           stroke-linecap="round"
           stroke-linejoin="round"
           stroke-width=".50493"
           id="polygon6728" />
      </g>
      <g
         id="g6738">
        <path
           d="m201.32 218.45c32.133-27.317 30.003-32.438 59.877 5.5754-25.121 7.2619-37.458 4.416-59.877-5.5754z"
           fill="#55d400"
           opacity=".5"
           id="path6732" />
        <path
           d="m229.8 232.8c66.011-62.3 67.336-80.514 128.71 6.1803-51.605 16.562-82.651 16.607-128.71-6.1803z"
           fill="#4a0"
           stroke="#333"
           stroke-width="2.1235"
           id="path6734" />
        <path
           d="m234.57 230.5c52.678-51.835 63.126-63.694 112.1 8.4378-41.183 13.78-75.348 10.522-112.1-8.4378z"
           fill="#55d400"
           opacity=".5"
           id="path6736" />
      </g>
      <g
         stroke="#333"
         id="g6750">
        <line
           class="cls-5"
           x1="289.79"
           x2="289.79"
           y1="258.37"
           y2="235.09"
           fill="none"
           stroke-linecap="round"
           stroke-linejoin="round"
           stroke-width="4.6335"
           id="line6740" />
        <line
           class="cls-5"
           x1="319.16"
           x2="319.16"
           y1="252.2"
           y2="232.65"
           fill="none"
           stroke-linecap="round"
           stroke-linejoin="round"
           stroke-width="4.2462"
           id="line6742" />
        <path
           d="m330.56 233.41-8.6214 3.7058s-26.56-9.34-15.561-18.842c11.808-15.58 15.894-12.283 20.778-4.9765 0 0 19.626 2.3913 3.4047 20.112z"
           fill="#6f0"
           stroke-width="2.1235"
           id="path6744" />
        <line
           class="cls-5"
           x1="207.59"
           x2="207.59"
           y1="229.65"
           y2="221.53"
           fill="none"
           stroke-linecap="round"
           stroke-linejoin="round"
           stroke-width="1.8936"
           id="line6746" />
        <polygon
           class="cls-6"
           transform="matrix(1.8936 0 0 1.8936 125.94 123.26)"
           points="48.85 53.11 45.27 48.81 48.85 48.81 44.55 43.8 47.42 43.8 43.12 38.8 38.83 43.8 41.69 43.8 37.4 48.81 40.98 48.81 37.4 53.11 43.12 53.11"
           fill="#6dd627"
           stroke-linecap="round"
           stroke-linejoin="round"
           stroke-width="1.1214"
           id="polygon6748" />
      </g>
      <path
         d="m205.6 248.02s-3.3753 3.1741 6.7462 2.9238c13.448 9.5747 30.486 1.0745 15.222-0.48984l-8.2962-3.4882c-6.5517-1.9485-8.5849-1.0941-13.672 1.0542z"
         fill="#fff"
         opacity=".4"
         id="path6752" />
      <path
         d="m372.93 251.71c0.0952 1.943-55.292 11.874-54.943 13.098 11.249 39.432 29.429 33.092 41.344 5.8659 2.522-5.7628 11.475-11.625 13.599-18.964"
         fill="#48b300"
         stroke="#333"
         stroke-width="3.4803"
         id="path6754" />
      <path
         class="cls-6"
         d="m175.31 274.04c-5.9218 0.49237-26.511-6.8282-26.511 1.5161s7.8854 23.417 13.807 23.91c4.9342 0.0891 9.2676 4.633 10.737 11.259l6.0791 41.465c1.4593 6.3592 9.2354 10.896 13.931 9.8863 4.696-1.0099 0.34576 1.8361 0.38753-4.8459l1.1962-23.954c17.176-35.448 3.93-31.946 3.485-42.911-30.828-0.0853-8.3394-11.682-23.113-16.325z"
         fill="#4a0"
         opacity=".4"
         id="path6756" />
      <path
         d="m360.15 257c-17.13 3.8211-34.156 6.7364-33.94 7.4944 6.932 24.417 18.135 20.491 25.477 3.6323"
         fill="#3e9b00"
         id="path6758" />
      <g
         id="g6766">
        <path
           d="m162.09 339.22c13.822 3.9763 28.008 7.4039 44.927 6.7179l-4.3553 23.26-16.413 6.4758-8.6466-3.0469z"
           opacity=".3"
           id="path6760" />
        <path
           d="m245.43 385.97c31.729-9.2482 58.303-14.277 94.379-57.519l-10.174-11.905-8.4921-6.8459c-11.277-2.3884-14.806 0.62366-19.096 3.1045l-6.727 6.8205-2.9685 15.774-6.9446 8.9211-16.375 5.1428-15.555 2.8689-5.4337 6.6561z"
           opacity=".3"
           stroke="#000"
           stroke-width=".93684px"
           id="path6762" />
        <path
           d="m244.8 400.41 0.63087-14.446c27.547-5.8937 66.476-17.377 94.379-57.519l-1.1174 33.831c-28.545 21.653-60.657 31.716-93.892 38.133z"
           opacity=".5"
           stroke="#000"
           stroke-width=".93684px"
           id="path6764" />
      </g>
      <path
         d="m303.51 234.79-12.919 5.488s-38.376-4.3311-21.894-18.403c1.2079-13.72-3.4142-19.424 15.712-11.329 0 0 39.492-22.754 19.101 24.243z"
         fill="#6f0"
         stroke="#333"
         stroke-width="2.1235"
         id="path6768" />
    </g>
    <g
       transform="matrix(.92263 0 0 .92263 9.8805 8.9921)"
       filter="url(#filter145105)"
       id="g7018">
      <g
         transform="rotate(-32.668 -27.561 94.373)"
         id="g6832">
        <path
           transform="matrix(.064241 0 0 .064241 153.11 121.16)"
           d="m-256.68 597.21c10.146-64.939 26.602-104.58 4.508-190.93-27.758-46.496-56.703-43.457-87.078-80.682-0.495-22.531-1.084-43.114-1.307-67.185-0.189-19.007-20.554-20.558-42.066-20.037l-0.015-0.36c-1.336 0.211-2.7629 0.363-4.2269 0.49-4.5391 0.153-9.0821 0.344-13.446 0.443-4.3729-0.018-8.913-0.131-13.459-0.199-1.454-0.1091-2.886-0.228-4.217-0.42v0.359c-21.543-0.13-41.868 1.786-41.717 20.791 0.2 24.069-0.02 44.646-0.1079 67.2-29.692 37.765-58.711 35.245-85.63 82.208-20.522 86.752-3.358 126.06 7.947 190.82 8.601 86.446-18.532 87.433-11.085 247.5 0 70.591 79.621 86.599 150.75 86.599 71.128 0 156.66-13.825 156.66-89.344 4.583-160.17-22.563-160.68-15.507-247.26z"
           fill="#99fff0"
           id="path6772" />
        <path
           transform="matrix(.064241 0 0 .064241 153.11 121.16)"
           d="m-256.68 597.21c10.146-64.939 26.602-104.58 4.508-190.93-27.758-46.496-56.703-43.457-87.078-80.682-0.495-22.531-1.084-43.114-1.307-67.185-0.189-19.007-20.554-20.558-42.066-20.037l-0.015-0.36c-1.336 0.211-2.7629 0.363-4.2269 0.49-4.5391 0.153-9.0821 0.344-13.446 0.443-4.3729-0.018-8.913-0.131-13.459-0.199-1.454-0.1091-2.886-0.228-4.217-0.42v0.359c-21.543-0.13-41.868 1.786-41.717 20.791 0.2 24.069-0.02 44.646-0.1079 67.2-29.692 37.765-58.711 35.245-85.63 82.208-20.522 86.752-3.358 126.06 7.947 190.82 8.601 86.446-18.532 87.433-11.085 247.5 0 70.591 79.621 86.599 150.75 86.599 71.128 0 156.66-13.825 156.66-89.344 4.583-160.17-22.563-160.68-15.507-247.26z"
           fill="none"
           stroke="#231f20"
           stroke-linecap="round"
           stroke-linejoin="round"
           stroke-miterlimit="10"
           stroke-width="12.376"
           id="path6774" />
        <g
           id="g6788">
          <g
             id="g6784">
            <path
               transform="matrix(.064241 0 0 .064241 153.11 121.16)"
               d="m-281.33 407.02c-31.619-40.601-78.237-43.035-78.971-85.28-20.373 9.702-55.832 10.123-74.706 0.6546 2.5151 40.516-60.303 58.145-82.797 94.813-24.739 48.75-3.483 152.78-3.483 152.78l52.343 112.71h108.31l89.506-114.13c12.203-95.874 1.0072-147.16-10.197-161.55z"
               enable-background="new    "
               fill="#ff0"
               id="path6776" />
            <path
               transform="matrix(.064241 0 0 .064241 153.11 121.16)"
               d="m-264.86 779.04c-1.376-49.433-7.243-73.229-10.78-97.233-0.531-3.659-1.026-7.339-1.43-11.102 0 0-73.958-34.182-142.4 11.469-33.215 22.154-91.433-10.369-91.433-10.369-0.383 3.77-0.812 7.455-1.313 11.125-3.287 24.03-8.897 47.884-9.752 97.326 0 0 41.325-12.488 96.159 10.539 79.608 33.442 160.95-11.755 160.95-11.755z"
               enable-background="new    "
               fill="#ff7400"
               id="path6778" />
            <path
               transform="matrix(.064241 0 0 .064241 153.11 121.16)"
               d="m-419.47 682.18c68.443-45.65 142.4-11.469 142.4-11.469-1.444-13.404-4.1305-27.128-2.4685-47.105 1.9743-18.437 3.2371-36.394 8.4073-55.033 0 0-80.275 45.191-156.94 0.9718-51.458-29.68-93.214 0.448-93.214 0.448 2.896 17.06 6.808 34.067 10.1 53.824 1.872 19.968 1.573 34.592 0.282 47.993 0 1e-3 58.217 32.525 91.433 10.37z"
               enable-background="new    "
               fill="#f0f"
               id="path6780" />
            <path
               transform="matrix(.064241 0 0 .064241 153.11 121.16)"
               d="m-264.77 783.63c-0.021-1.521-0.068-3.097-0.091-4.583 0 0-81.342 45.196-160.95 11.755-54.834-23.027-96.159-10.539-96.159-10.539-0.022 1.49-0.028 3.061-0.048 4.594-0.153 14.498 0.073 31.016 0.876 50.343 0 54.962 81.585 67.332 128.85 67.332 52.44 0 127.18-10.913 127.18-68.535 0.168-19.346 0.636-35.867 0.341-50.367z"
               fill="#0f0"
               id="path6782" />
          </g>
          <path
             transform="matrix(.064241 0 0 .064241 153.11 121.16)"
             d="m-520.34 578.22c-10.362-43.07-12.239-91.328-7.4717-136.98 55.436 5.3733 64.225 33.398 115.81 36.072 39.382 0.9962 116.22-42.968 144.92-34.174 4.9573 38.72 4.2447 68.492-4.0558 125.44-30.144 18.315-56.931 23.025-87.074 22.018-43.584-0.1223-62.113-21.568-109.48-32.908-20.674-4.594-33.316 5.2315-52.649 20.538z"
             fill="#f0f"
             id="path6786" />
        </g>
        <g
           stroke="#231f20"
           id="g6796">
          <path
             transform="matrix(.064241 0 0 .064241 153.11 121.16)"
             d="m-323.07 283.37-4.673-67.715c0.526-14.221-26.441-28.291-69.154-29.874-42.711-1.583-71.475 9.104-72.002 23.327l-8.838 68.531c-0.53 14.24 33.667 27.057 76.377 28.633 42.711 1.59 77.761-8.662 78.29-22.902z"
             fill="#99fff0"
             stroke-miterlimit="10"
             stroke-width="12.375"
             id="path6790" />
          <path
             transform="matrix(.064241 0 0 .064241 153.11 121.16)"
             d="m-323.31 256.07 0.578-69.009c0.117-14.232-34.43-26.07-77.171-26.425-42.738-0.36-77.477 10.896-77.6 25.124l-0.578 69.01c-0.121 14.25 34.428 26.083 77.165 26.434 42.743 0.367 77.485-10.887 77.606-25.134z"
             fill="#2479b3"
             stroke-miterlimit="10"
             stroke-width="12.375"
             id="path6792" />
          <ellipse
             transform="matrix(.064241 0 0 .064241 153.11 121.16)"
             cx="-400.9"
             cy="182.6"
             rx="76.77"
             ry="24.052"
             fill="#3f9ad8"
             stroke-width="10.314"
             id="ellipse6794" />
        </g>
        <path
           transform="matrix(.064241 0 0 .064241 153.11 121.16)"
           d="m-357.85 423.34c3.6708-12.811 5.1434-18.436 30.286-15.143 51.297 34.989 44.889 61.173 44.419 106-1.8982 17.769-41.535 14.391-42.115 4.4563 5.3364-42.677 1.6747-73.421-32.59-95.314z"
           fill="#fff"
           id="path6798" />
        <flowRoot
           transform="matrix(0 -.1997 .19551 0 99.735 284.89)"
           fill="#000000"
           font-family="'Roadshow IAIC 2013'"
           font-size="40px"
           letter-spacing="0px"
           opacity=".8"
           word-spacing="0px"
           style="line-height:0px"
           xml:space="preserve"
           id="flowRoot6818"><flowRegion
             id="flowRegion6802"><rect
               x="573.7"
               y="135.07"
               width="115.75"
               height="89.879"
               id="rect6800" /></flowRegion><flowPara
             font-size="27.231px"
             text-align="center"
             text-anchor="middle"
             style="line-height:15px"
             id="flowPara6804">C 76345</flowPara><flowPara
             font-size="13.333px"
             text-align="center"
             text-anchor="middle"
             style="line-height:15px"
             id="flowPara6806" /><flowPara
             font-size="13.333px"
             text-align="center"
             text-anchor="middle"
             style="line-height:15px"
             id="flowPara6808" /><flowPara
             font-size="13.333px"
             text-align="center"
             text-anchor="middle"
             style="line-height:15px"
             id="flowPara6810" /><flowPara
             font-size="13.333px"
             text-align="center"
             text-anchor="middle"
             style="line-height:15px"
             id="flowPara6812" /><flowPara
             font-size="13.333px"
             text-align="center"
             text-anchor="middle"
             style="line-height:15px"
             id="flowPara6814" /><flowPara
             font-size="19.805px"
             text-align="center"
             text-anchor="middle"
             style="line-height:15px"
             id="flowPara6816" /></flowRoot>
        <flowRoot
           transform="matrix(.27328 0 0 .26177 -43.11 134.6)"
           fill="#000000"
           font-family="'Roadshow IAIC 2013'"
           font-size="40px"
           letter-spacing="0px"
           word-spacing="0px"
           style="line-height:0px"
           xml:space="preserve"
           id="flowRoot6830"><flowRegion
             id="flowRegion6822"><rect
               x="573.7"
               y="135.07"
               width="92.8"
               height="92.738"
               id="rect6820" /></flowRegion><flowPara
             font-size="13.333px"
             text-align="center"
             text-anchor="middle"
             style="line-height:16.8412px"
             id="flowPara6824" /><flowPara
             font-size="13.333px"
             text-align="center"
             text-anchor="middle"
             style="line-height:16.8412px"
             id="flowPara6826">234g</flowPara><flowPara
             font-size="13.333px"
             text-align="center"
             text-anchor="middle"
             style="line-height:16.8412px"
             id="flowPara6828" /></flowRoot>
      </g>
      <g
         transform="translate(-2.1167 10.583)"
         id="g6896">
        <g
           transform="matrix(-.1023 -.47849 .47849 -.1023 62.195 77.419)"
           id="g6894">
          <path
             d="m74.591 96.37c1.366-8.7428 3.5814-14.079 0.60691-25.705-3.7371-6.2598-7.6339-5.8506-11.723-10.862-0.06664-3.0334-0.14594-5.8045-0.17596-9.0451-0.02544-2.5589-2.7672-2.7677-5.6634-2.6976l-2e-3 -0.0485c-0.17987 0.0284-0.37197 0.0489-0.56907 0.066-0.6111 0.0206-1.2227 0.0463-1.8103 0.0596-0.58872-2e-3 -1.2-0.0176-1.812-0.0268-0.19575-0.0147-0.38854-0.0307-0.56774-0.0566v0.0483c-2.9003-0.0175-5.6367 0.24045-5.6164 2.7991 0.02693 3.2404-0.0027 6.0107-0.01453 9.0472-3.9974 5.0843-7.9043 4.745-11.528 11.068-2.7629 11.679-0.45209 16.972 1.0699 25.691 1.158 11.638-2.495 11.771-1.4924 33.321 0 9.5037 10.719 11.659 20.295 11.659 9.576 0 21.091-1.8613 21.091-12.028 0.61701-21.564-3.0376-21.633-2.0877-33.288z"
             fill="#99fff0"
             stroke-width=".13463"
             id="path6834" />
          <path
             d="m74.591 96.37c1.366-8.7428 3.5814-14.079 0.60691-25.705-3.7371-6.2598-7.6339-5.8506-11.723-10.862-0.06664-3.0334-0.14594-5.8045-0.17596-9.0451-0.02544-2.5589-2.7672-2.7677-5.6634-2.6976l-2e-3 -0.0485c-0.17987 0.0284-0.37197 0.0489-0.56907 0.066-0.6111 0.0206-1.2227 0.0463-1.8103 0.0596-0.58872-2e-3 -1.2-0.0176-1.812-0.0268-0.19575-0.0147-0.38854-0.0307-0.56774-0.0566v0.0483c-2.9003-0.0175-5.6367 0.24045-5.6164 2.7991 0.02693 3.2404-0.0027 6.0107-0.01453 9.0472-3.9974 5.0843-7.9043 4.745-11.528 11.068-2.7629 11.679-0.45209 16.972 1.0699 25.691 1.158 11.638-2.495 11.771-1.4924 33.321 0 9.5037 10.719 11.659 20.295 11.659 9.576 0 21.091-1.8613 21.091-12.028 0.61701-21.564-3.0376-21.633-2.0877-33.288z"
             fill="none"
             stroke="#231f20"
             stroke-linecap="round"
             stroke-linejoin="round"
             stroke-miterlimit="10"
             stroke-width="1.6662"
             id="path6836" />
          <g
             id="g6850">
            <g
               stroke-width=".13463"
               id="g6846">
              <path
                 d="m71.272 70.765c-4.2569-5.4661-10.533-5.7939-10.632-11.481-2.7428 1.3062-7.5166 1.3629-10.058 0.0881 0.33861 5.4547-8.1187 7.8281-11.147 12.765-3.3306 6.5632-0.46892 20.569-0.46892 20.569l7.047 15.174h14.581l12.05-15.365c1.6429-12.908 0.1356-19.812-1.3728-21.749z"
                 enable-background="new    "
                 fill="#f0f"
                 id="path6838" />
              <path
                 d="m73.489 120.85c-0.18525-6.6552-0.97513-9.8588-1.4513-13.091-0.0715-0.49261-0.13813-0.98805-0.19252-1.4947 0 0-9.957-4.6019-19.172 1.5441-4.4717 2.9826-12.31-1.396-12.31-1.396-0.05156 0.50756-0.10932 1.0037-0.17677 1.4978-0.44253 3.2352-1.1978 6.4466-1.3129 13.103 0 0 5.5636-1.6813 12.946 1.4189 10.718 4.5023 21.669-1.5826 21.669-1.5826z"
                 enable-background="new    "
                 fill="#ff7400"
                 id="path6840" />
              <path
                 d="m52.674 107.81c9.2145-6.1459 19.172-1.5441 19.172-1.5441-0.19441-1.8046-0.55609-3.6522-0.33233-6.3418 0.2658-2.4821 0.43581-4.8998 1.1319-7.4091 0 0-10.807 6.084-21.129 0.13083-6.9278-3.9958-12.549 0.0603-12.549 0.0603 0.38989 2.2968 0.91656 4.5864 1.3598 7.2463 0.25203 2.6883 0.21177 4.6571 0.03797 6.4613 0 1.1e-4 7.8378 4.3788 12.31 1.3961z"
                 enable-background="new    "
                 fill="#f0f"
                 id="path6842" />
              <path
                 d="m73.502 121.47c-3e-3 -0.20477-9e-3 -0.41695-0.0123-0.61701 0 0-10.951 6.0848-21.669 1.5826-7.3823-3.1001-12.946-1.4189-12.946-1.4189-3e-3 0.2006-0.0038 0.41211-0.0065 0.61849-0.0206 1.9519 0.0098 4.1757 0.11794 6.7777 0 7.3996 10.984 9.0649 17.347 9.0649 7.06 0 17.122-1.4692 17.122-9.2269 0.0226-2.6046 0.0856-4.8288 0.0459-6.7809z"
                 fill="#0f0"
                 id="path6844" />
            </g>
            <path
               d="m39.094 93.813c-1.3951-5.7985-1.6478-12.296-1.0059-18.442 7.4633 0.72341 8.6467 4.4964 15.592 4.8564 5.3021 0.13412 15.647-5.7849 19.511-4.6008 0.6674 5.2128 0.57146 9.221-0.54604 16.887-4.0582 2.4657-7.6646 3.0999-11.723 2.9643-5.8677-0.0165-8.3623-2.9037-14.74-4.4304-2.7834-0.61849-4.4853 0.70432-7.0881 2.765z"
               fill="#0ff"
               id="path6848" />
          </g>
          <g
             stroke="#231f20"
             id="g6858">
            <path
               d="m65.652 54.118-0.62913-9.1165c0.07082-1.9146-3.5598-3.8088-9.3102-4.022-5.7502-0.21312-9.6227 1.2257-9.6937 3.1405l-1.1899 9.2264c-0.07135 1.9171 4.5326 3.6427 10.283 3.8549 5.7502 0.21406 10.469-1.1662 10.54-3.0833z"
               fill="#99fff0"
               stroke-miterlimit="10"
               stroke-width="1.6661"
               id="path6852" />
            <path
               d="m65.62 50.442 0.07782-9.2907c0.01575-1.9161-4.6353-3.5098-10.39-3.5576-5.7538-0.0485-10.431 1.4669-10.447 3.3824l-0.07782 9.2908c-0.01629 1.9185 4.635 3.5116 10.389 3.5588 5.7545 0.0494 10.432-1.4657 10.448-3.3838z"
               fill="#2479b3"
               stroke-miterlimit="10"
               stroke-width="1.6661"
               id="path6854" />
            <ellipse
               cx="55.175"
               cy="40.55"
               rx="10.336"
               ry="3.2381"
               fill="#3f9ad8"
               stroke-width="1.3886"
               id="ellipse6856" />
          </g>
          <path
             d="m60.971 72.961c0.49421-1.7247 0.69245-2.4821 4.0774-2.0387 6.9062 4.7106 6.0435 8.2358 5.9802 14.271-0.25555 2.3923-5.5919 1.9375-5.67 0.59995 0.71844-5.7456 0.22546-9.8847-4.3876-12.832z"
             fill="#fff"
             id="path6860" />
          <flowRoot
             transform="matrix(0 -.4185 .40973 0 -3.8256 350.23)"
             fill="#000000"
             font-family="'Roadshow IAIC 2013'"
             font-size="40px"
             letter-spacing="0px"
             opacity=".8"
             word-spacing="0px"
             style="line-height:0px"
             xml:space="preserve"
             id="flowRoot6880"><flowRegion
               id="flowRegion6864"><rect
                 x="573.7"
                 y="135.07"
                 width="92.8"
                 height="92.738"
                 id="rect6862" /></flowRegion><flowPara
               font-size="27.231px"
               text-align="center"
               text-anchor="middle"
               style="line-height:15px"
               id="flowPara6866">H67D4</flowPara><flowPara
               font-size="13.333px"
               text-align="center"
               text-anchor="middle"
               style="line-height:15px"
               id="flowPara6868" /><flowPara
               font-size="13.333px"
               text-align="center"
               text-anchor="middle"
               style="line-height:15px"
               id="flowPara6870" /><flowPara
               font-size="13.333px"
               text-align="center"
               text-anchor="middle"
               style="line-height:15px"
               id="flowPara6872" /><flowPara
               font-size="13.333px"
               text-align="center"
               text-anchor="middle"
               style="line-height:15px"
               id="flowPara6874" /><flowPara
               font-size="13.333px"
               text-align="center"
               text-anchor="middle"
               style="line-height:15px"
               id="flowPara6876" /><flowPara
               font-size="19.805px"
               text-align="center"
               text-anchor="middle"
               style="line-height:15px"
               id="flowPara6878" /></flowRoot>
          <flowRoot
             transform="matrix(.57271 0 0 .54859 -302.08 44.136)"
             fill="#000000"
             font-family="'Roadshow IAIC 2013'"
             font-size="40px"
             letter-spacing="0px"
             word-spacing="0px"
             style="line-height:0px"
             xml:space="preserve"
             id="flowRoot6892"><flowRegion
               id="flowRegion6884"><rect
                 x="573.7"
                 y="135.07"
                 width="92.8"
                 height="92.738"
                 id="rect6882" /></flowRegion><flowPara
               font-size="13.333px"
               text-align="center"
               text-anchor="middle"
               style="line-height:16.8412px"
               id="flowPara6886" /><flowPara
               font-size="13.333px"
               text-align="center"
               text-anchor="middle"
               style="line-height:16.8412px"
               id="flowPara6888">234g</flowPara><flowPara
               font-size="13.333px"
               text-align="center"
               text-anchor="middle"
               style="line-height:16.8412px"
               id="flowPara6890" /></flowRoot>
        </g>
      </g>
      <g
         transform="rotate(-.43299 -2387 -491.85)"
         id="g6956">
        <g
           transform="matrix(.072623 0 0 .072623 177.22 121.48)"
           id="g6922">
          <path
             d="m-812.7 574.27c10.146-64.939 26.602-104.58 4.508-190.93-27.758-46.496-56.703-43.457-87.078-80.682-0.495-22.531-1.084-43.114-1.307-67.185-0.189-19.007-20.554-20.558-42.066-20.037l-0.015-0.36c-1.336 0.211-2.763 0.363-4.227 0.49-4.539 0.153-9.082 0.344-13.446 0.443-4.373-0.018-8.913-0.131-13.459-0.199-1.454-0.109-2.886-0.228-4.217-0.42l-2e-3 0.359c-21.543-0.13-41.868 1.786-41.717 20.791 0.2 24.069-0.02 44.646-0.108 67.2-29.692 37.765-58.711 35.245-85.63 82.208-20.522 86.752-3.358 126.06 7.947 190.82 8.601 86.446-18.532 87.433-11.085 247.5 0 70.591 79.621 86.599 150.75 86.599 71.128 0 156.66-13.825 156.66-89.344 4.583-160.17-22.563-160.68-15.507-247.26z"
             fill="#99fff0"
             id="path6898" />
          <path
             d="m-812.7 574.27c10.146-64.939 26.602-104.58 4.508-190.93-27.758-46.496-56.703-43.457-87.078-80.682-0.495-22.531-1.084-43.114-1.307-67.185-0.189-19.007-20.554-20.558-42.066-20.037l-0.015-0.36c-1.336 0.211-2.763 0.363-4.227 0.49-4.539 0.153-9.082 0.344-13.446 0.443-4.373-0.018-8.913-0.131-13.459-0.199-1.454-0.109-2.886-0.228-4.217-0.42l-2e-3 0.359c-21.543-0.13-41.868 1.786-41.717 20.791 0.2 24.069-0.02 44.646-0.108 67.2-29.692 37.765-58.711 35.245-85.63 82.208-20.522 86.752-3.358 126.06 7.947 190.82 8.601 86.446-18.532 87.433-11.085 247.5 0 70.591 79.621 86.599 150.75 86.599 71.128 0 156.66-13.825 156.66-89.344 4.583-160.17-22.563-160.68-15.507-247.26z"
             fill="none"
             stroke="#231f20"
             stroke-linecap="round"
             stroke-linejoin="round"
             stroke-miterlimit="10"
             stroke-width="12.376"
             id="path6900" />
          <path
             d="m-837.35 384.08c-31.619-40.601-78.237-43.035-78.971-85.28-20.373 9.702-55.832 10.123-74.706 0.65458 2.5151 40.516-60.303 58.145-82.797 94.813-24.739 48.75-3.483 152.78-3.483 152.78l52.343 112.71h108.31l89.506-114.13c12.203-95.874 1.0072-147.16-10.197-161.55z"
             enable-background="new    "
             fill="#0f0"
             id="path6902" />
          <path
             d="m-820.88 756.1c-1.376-49.433-7.243-73.229-10.78-97.233-0.531-3.659-1.026-7.339-1.43-11.102 0 0-73.958-34.182-142.4 11.469-33.215 22.154-91.433-10.369-91.433-10.369-0.383 3.77-0.812 7.455-1.313 11.125-3.287 24.03-8.897 47.884-9.752 97.326 0 0 41.325-12.488 96.159 10.539 79.608 33.442 160.95-11.755 160.95-11.755z"
             enable-background="new    "
             fill="#f0f"
             id="path6904" />
          <path
             d="m-975.49 659.24c68.443-45.65 142.4-11.469 142.4-11.469-1.444-13.404-4.1304-27.128-2.4684-47.105 1.9743-18.437 3.2371-36.395 8.4073-55.033 0 0-80.275 45.191-156.94 0.97175-51.458-29.68-93.214 0.448-93.214 0.448 2.896 17.06 6.808 34.067 10.1 53.824 1.872 19.968 1.573 34.592 0.282 47.993 0 1e-3 58.217 32.525 91.433 10.37z"
             enable-background="new    "
             fill="#ff0"
             id="path6906" />
          <path
             d="m-820.79 760.69c-0.021-1.521-0.068-3.097-0.091-4.583 0 0-81.342 45.196-160.95 11.755-54.834-23.027-96.159-10.539-96.159-10.539-0.022 1.49-0.028 3.061-0.048 4.594-0.153 14.498 0.073 31.016 0.876 50.343 0 54.962 81.585 67.332 128.85 67.332 52.44 0 127.18-10.913 127.18-68.535 0.168-19.346 0.636-35.867 0.341-50.367z"
             fill="#f00"
             id="path6908" />
          <path
             d="m-1076.4 555.28c-10.362-43.07-12.239-91.328-7.4717-136.98 55.436 5.3732 64.225 33.398 115.81 36.072 39.382 0.99621 116.22-42.968 144.92-34.174 4.9573 38.72 4.2447 68.492-4.0558 125.44-30.143 18.315-56.931 23.025-87.074 22.018-43.584-0.12238-62.113-21.568-109.48-32.908-20.674-4.5939-33.316 5.2316-52.649 20.538z"
             fill="#ff7400"
             id="path6910" />
          <g
             stroke="#231f20"
             id="g6918">
            <path
               d="m-879.09 260.43-4.673-67.715c0.526-14.221-26.441-28.291-69.154-29.874-42.711-1.583-71.475 9.104-72.002 23.327l-8.838 68.531c-0.53 14.24 33.667 27.057 76.377 28.633 42.711 1.59 77.761-8.662 78.29-22.902z"
               fill="#99fff0"
               stroke-miterlimit="10"
               stroke-width="12.375"
               id="path6912" />
            <path
               d="m-879.33 233.13 0.578-69.009c0.117-14.232-34.43-26.07-77.171-26.425-42.738-0.36-77.477 10.896-77.6 25.124l-0.578 69.01c-0.121 14.25 34.428 26.083 77.165 26.434 42.743 0.367 77.485-10.887 77.606-25.134z"
               fill="#2479b3"
               stroke-miterlimit="10"
               stroke-width="12.375"
               id="path6914" />
            <ellipse
               cx="-956.92"
               cy="159.66"
               rx="76.77"
               ry="24.052"
               fill="#3f9ad8"
               stroke-width="10.314"
               id="ellipse6916" />
          </g>
          <path
             d="m-919.61 387.71c3.996-13.945 5.5989-20.069 32.969-16.484 55.841 38.088 48.866 66.592 48.354 115.39-2.0663 19.343-45.214 15.666-45.846 4.851 5.8092-46.457 1.8231-79.925-35.477-103.76z"
             fill="#fff"
             id="path6920" />
        </g>
        <flowRoot
           transform="matrix(0 -.23584 .2309 0 75.664 310.34)"
           fill="#000000"
           font-family="'Roadshow IAIC 2013'"
           font-size="40px"
           letter-spacing="0px"
           opacity=".75"
           word-spacing="0px"
           style="line-height:0px"
           xml:space="preserve"
           id="flowRoot6942"><flowRegion
             id="flowRegion6926"><rect
               x="573.7"
               y="135.07"
               width="110.81"
               height="89.833"
               id="rect6924" /></flowRegion><flowPara
             font-size="27.231px"
             text-align="center"
             text-anchor="middle"
             style="line-height:15px"
             id="flowPara6928">C 74562</flowPara><flowPara
             font-size="13.333px"
             text-align="center"
             text-anchor="middle"
             style="line-height:15px"
             id="flowPara6930" /><flowPara
             font-size="13.333px"
             text-align="center"
             text-anchor="middle"
             style="line-height:15px"
             id="flowPara6932" /><flowPara
             font-size="13.333px"
             text-align="center"
             text-anchor="middle"
             style="line-height:15px"
             id="flowPara6934" /><flowPara
             font-size="13.333px"
             text-align="center"
             text-anchor="middle"
             style="line-height:15px"
             id="flowPara6936" /><flowPara
             font-size="13.333px"
             text-align="center"
             text-anchor="middle"
             style="line-height:15px"
             id="flowPara6938" /><flowPara
             font-size="19.805px"
             text-align="center"
             text-anchor="middle"
             style="line-height:15px"
             id="flowPara6940" /></flowRoot>
        <flowRoot
           transform="matrix(.31304 0 0 .29986 -86.121 136.22)"
           fill="#000000"
           font-family="'Roadshow IAIC 2013'"
           font-size="40px"
           letter-spacing="0px"
           word-spacing="0px"
           style="line-height:0px"
           xml:space="preserve"
           id="flowRoot6954"><flowRegion
             id="flowRegion6946"><rect
               x="573.7"
               y="135.07"
               width="92.8"
               height="92.738"
               id="rect6944" /></flowRegion><flowPara
             font-size="13.333px"
             text-align="center"
             text-anchor="middle"
             style="line-height:16.8412px"
             id="flowPara6948" /><flowPara
             font-size="13.333px"
             text-align="center"
             text-anchor="middle"
             style="line-height:16.8412px"
             id="flowPara6950">241g</flowPara><flowPara
             font-size="13.333px"
             text-align="center"
             text-anchor="middle"
             style="line-height:16.8412px"
             id="flowPara6952" /></flowRoot>
      </g>
      <g
         transform="rotate(45.671 174.63 184.55)"
         id="g7016">
        <path
           d="m97.2 159.64c0.65179-4.1718 1.7089-6.7182 0.2896-12.266-1.7832-2.987-3.6427-2.7917-5.594-5.1831-0.0318-1.4474-0.06964-2.7697-0.08396-4.3161-0.01214-1.221-1.3204-1.3207-2.7024-1.2872l-1e-3 -0.0231c-0.08583 0.0136-0.1775 0.0233-0.27154 0.0315-0.29159 0.01-0.58344 0.0221-0.86379 0.0285-0.28093-2e-3 -0.57258-8e-3 -0.86463-0.0127-0.09341-7e-3 -0.1854-0.0146-0.2709-0.027v0.0231c-1.384-8e-3 -2.6897 0.11474-2.68 1.3356 0.0129 1.5462-0.0017 2.8681-0.0069 4.317-1.9075 2.4261-3.7717 2.2642-5.501 5.2812-1.3184 5.5731-0.21572 8.0984 0.51052 12.259 0.55254 5.5534-1.1905 5.6168-0.71212 15.9 0 4.5349 5.115 5.5632 9.6843 5.5632 4.5694 0 10.064-0.88814 10.064-5.7396 0.29442-10.29-1.4495-10.322-0.99619-15.884z"
           fill="#99fff0"
           stroke-width=".064241"
           id="path6958" />
        <path
           d="m97.2 159.64c0.65179-4.1718 1.7089-6.7182 0.2896-12.266-1.7832-2.987-3.6427-2.7917-5.594-5.1831-0.0318-1.4474-0.06964-2.7697-0.08396-4.3161-0.01214-1.221-1.3204-1.3207-2.7024-1.2872l-1e-3 -0.0231c-0.08583 0.0136-0.1775 0.0233-0.27154 0.0315-0.29159 0.01-0.58344 0.0221-0.86379 0.0285-0.28093-2e-3 -0.57258-8e-3 -0.86463-0.0127-0.09341-7e-3 -0.1854-0.0146-0.2709-0.027v0.0231c-1.384-8e-3 -2.6897 0.11474-2.68 1.3356 0.0129 1.5462-0.0017 2.8681-0.0069 4.317-1.9075 2.4261-3.7717 2.2642-5.501 5.2812-1.3184 5.5731-0.21572 8.0984 0.51052 12.259 0.55254 5.5534-1.1905 5.6168-0.71212 15.9 0 4.5349 5.115 5.5632 9.6843 5.5632 4.5694 0 10.064-0.88814 10.064-5.7396 0.29442-10.29-1.4495-10.322-0.99619-15.884z"
           fill="none"
           stroke="#231f20"
           stroke-linecap="round"
           stroke-linejoin="round"
           stroke-miterlimit="10"
           stroke-width=".79506"
           id="path6960" />
        <path
           transform="matrix(.064241 0 0 .064241 153.11 121.16)"
           d="m-895.01 408.79c-31.619-40.601-78.237-43.035-78.971-85.28-20.373 9.702-55.832 10.123-74.707 0.65458 2.5151 40.516-60.304 58.145-82.798 94.813-24.739 48.75-3.483 152.78-3.483 152.78l52.343 112.71h108.31l89.506-114.13c12.203-95.874 1.0072-147.16-10.197-161.55z"
           enable-background="new    "
           fill="#0f0"
           id="path6962" />
        <g
           id="g6972">
          <path
             transform="matrix(.064241 0 0 .064241 153.11 121.16)"
             d="m-878.54 780.82c-1.376-49.433-7.243-73.229-10.78-97.233-0.531-3.659-1.026-7.339-1.43-11.102 0 0-73.958-34.182-142.4 11.469-33.215 22.154-91.433-10.369-91.433-10.369-0.383 3.77-0.812 7.455-1.313 11.125-3.287 24.03-8.897 47.884-9.752 97.326 0 0 41.325-12.488 96.159 10.539 79.608 33.442 160.95-11.755 160.95-11.755z"
             enable-background="new    "
             fill="#ff0"
             id="path6964" />
          <path
             transform="matrix(.064241 0 0 .064241 153.11 121.16)"
             d="m-1033.2 683.95c68.443-45.65 142.4-11.469 142.4-11.469-1.444-13.404-4.1304-27.128-2.4684-47.105 1.9743-18.437 3.2371-36.395 8.4073-55.033 0 0-80.275 45.191-156.94 0.97175-51.458-29.68-93.214 0.448-93.214 0.448 2.896 17.06 6.808 34.067 10.1 53.824 1.872 19.968 1.573 34.592 0.282 47.993 0 1e-3 58.217 32.525 91.433 10.37z"
             enable-background="new    "
             fill="#0f0"
             id="path6966" />
          <path
             transform="matrix(.064241 0 0 .064241 153.11 121.16)"
             d="m-878.45 785.4c-0.021-1.521-0.068-3.097-0.091-4.583 0 0-81.342 45.196-160.95 11.755-54.834-23.027-96.159-10.539-96.159-10.539-0.022 1.49-0.028 3.061-0.048 4.594-0.153 14.498 0.073 31.016 0.876 50.343 0 54.962 81.585 67.332 128.85 67.332 52.44 0 127.18-10.913 127.18-68.535 0.168-19.346 0.636-35.867 0.341-50.367z"
             fill="#ff7400"
             id="path6968" />
          <path
             transform="matrix(.064241 0 0 .064241 153.11 121.16)"
             d="m-1134 579.99c-10.362-43.07-12.239-91.328-7.4717-136.98 55.436 5.3732 64.225 33.398 115.81 36.072 39.383 0.99621 116.22-42.968 144.92-34.174 4.9573 38.72 4.2447 68.492-4.0558 125.44-30.143 18.315-56.931 23.025-87.074 22.018-43.584-0.12238-62.113-21.568-109.48-32.908-20.674-4.5939-33.316 5.2316-52.649 20.538z"
             fill="#f0f"
             id="path6970" />
        </g>
        <path
           transform="matrix(.064241 0 0 .064241 153.11 121.16)"
           d="m-958.07 411.02c3.6709-12.811 5.1434-18.436 30.286-15.143 51.297 34.989 44.889 61.173 44.419 106-1.8981 17.769-41.535 14.391-42.115 4.4563 5.3365-42.677 1.6747-73.421-32.59-95.314z"
           fill="#fff"
           id="path6974" />
        <g
           stroke="#231f20"
           id="g6982">
          <path
             d="m92.935 139.48-0.3002-4.3501c0.03379-0.91358-1.6986-1.8174-4.4425-1.9192-2.7438-0.10168-4.5917 0.58486-4.6255 1.4986l-0.56776 4.4025c-0.03405 0.91478 2.1628 1.7382 4.9066 1.8394 2.7438 0.10215 4.9955-0.55645 5.0295-1.4713z"
             fill="#99fff0"
             stroke-miterlimit="10"
             stroke-width=".795"
             id="path6976" />
          <path
             d="m92.919 137.72 0.03713-4.4332c0.0075-0.91428-2.2118-1.6748-4.9576-1.6976-2.7456-0.0231-4.9772 0.69996-4.9851 1.614l-0.03713 4.4333c-0.0077 0.91544 2.2117 1.6756 4.9572 1.6982 2.7459 0.0236 4.9777-0.69939 4.9855-1.6146z"
             fill="#2479b3"
             stroke-miterlimit="10"
             stroke-width=".795"
             id="path6978" />
          <ellipse
             cx="87.935"
             cy="133"
             rx="4.9318"
             ry="1.5451"
             fill="#3f9ad8"
             stroke-width=".6626"
             id="ellipse6980" />
        </g>
        <flowRoot
           transform="matrix(0 -.1997 .19551 0 59.942 285.5)"
           fill="#000000"
           font-family="'Roadshow IAIC 2013'"
           font-size="40px"
           letter-spacing="0px"
           opacity=".75"
           word-spacing="0px"
           style="line-height:0px"
           xml:space="preserve"
           id="flowRoot7002"><flowRegion
             id="flowRegion6986"><rect
               x="573.7"
               y="135.07"
               width="119.67"
               height="91.023"
               id="rect6984" /></flowRegion><flowPara
             font-size="27.231px"
             text-align="center"
             text-anchor="middle"
             style="line-height:15px"
             id="flowPara6988">C 75623</flowPara><flowPara
             font-size="13.333px"
             text-align="center"
             text-anchor="middle"
             style="line-height:15px"
             id="flowPara6990" /><flowPara
             font-size="13.333px"
             text-align="center"
             text-anchor="middle"
             style="line-height:15px"
             id="flowPara6992" /><flowPara
             font-size="13.333px"
             text-align="center"
             text-anchor="middle"
             style="line-height:15px"
             id="flowPara6994" /><flowPara
             font-size="13.333px"
             text-align="center"
             text-anchor="middle"
             style="line-height:15px"
             id="flowPara6996" /><flowPara
             font-size="13.333px"
             text-align="center"
             text-anchor="middle"
             style="line-height:15px"
             id="flowPara6998" /><flowPara
             font-size="19.805px"
             text-align="center"
             text-anchor="middle"
             style="line-height:15px"
             id="flowPara7000" /></flowRoot>
        <flowRoot
           transform="matrix(.26969 0 0 .25833 -79.137 136.48)"
           fill="#000000"
           font-family="'Roadshow IAIC 2013'"
           font-size="40px"
           letter-spacing="0px"
           word-spacing="0px"
           style="line-height:0px"
           xml:space="preserve"
           id="flowRoot7014"><flowRegion
             id="flowRegion7006"><rect
               x="573.7"
               y="135.07"
               width="92.8"
               height="92.738"
               id="rect7004" /></flowRegion><flowPara
             font-size="13.333px"
             text-align="center"
             text-anchor="middle"
             style="line-height:16.8412px"
             id="flowPara7008" /><flowPara
             font-size="13.333px"
             text-align="center"
             text-anchor="middle"
             style="line-height:16.8412px"
             id="flowPara7010">225</flowPara><flowPara
             font-size="13.333px"
             text-align="center"
             text-anchor="middle"
             style="line-height:16.8412px"
             id="flowPara7012" /></flowRoot>
      </g>
    </g>
    <path
       d="m66.709 93.213c-3.441 0.13635-5.0029-8.0325-10.682-6.3263-7.5376 17.661-19.86 12.129-25.449 10.677-2.431 1.0555-4.9767 4.3111-2.1105 5.7194 4.3587 2.1417 16.17 2.2265 20.022 1.2643 6.428-0.0744 12.872 0.14946 19.29-0.11501 27.806-2.6863-1.0703-17.14-1.0703-11.22z"
       fill="#fff"
       opacity=".77"
       stroke-width=".091869"
       id="path7020" />
  </g>
</svg>
