<?xml version="1.0" encoding="UTF-8" standalone="no"?>
<!-- Created with Inkscape (http://www.inkscape.org/) -->

<svg
   width="115.95123mm"
   height="73.65535mm"
   version="1.1"
   viewBox="0 0 115.95123 73.655348"
   xml:space="preserve"
   id="svg291"
   sodipodi:docname="richard-and-team-night.svg"
   inkscape:version="1.3.2 (1:1.3.2+202311252150+091e20ef0f)"
   xmlns:inkscape="http://www.inkscape.org/namespaces/inkscape"
   xmlns:sodipodi="http://sodipodi.sourceforge.net/DTD/sodipodi-0.dtd"
   xmlns="http://www.w3.org/2000/svg"
   xmlns:svg="http://www.w3.org/2000/svg"><defs
     id="defs291" /><sodipodi:namedview
     id="namedview291"
     pagecolor="#ffffff"
     bordercolor="#000000"
     borderopacity="0.25"
     inkscape:showpageshadow="2"
     inkscape:pageopacity="0.0"
     inkscape:pagecheckerboard="0"
     inkscape:deskcolor="#d1d1d1"
     inkscape:document-units="mm"
     inkscape:zoom="1.282008"
     inkscape:cx="252.33852"
     inkscape:cy="142.35481"
     inkscape:window-width="1503"
     inkscape:window-height="933"
     inkscape:window-x="0"
     inkscape:window-y="0"
     inkscape:window-maximized="1"
     inkscape:current-layer="g291" /><g
     transform="translate(-251.99632,-99.077353)"
     id="g291"><ellipse
       cx="309.00833"
       cy="162.64844"
       rx="57.012016"
       ry="10.084269"
       fill="#061d46"
       opacity="0.75"
       stroke-opacity="0.99608"
       stroke-width="3.07708"
       id="ellipse1" /><g
       transform="matrix(-0.06192,0,0,0.063759,568.0506,325.12871)"
       id="g282"><ellipse
         cx="3770.3113"
         cy="-2584.8376"
         rx="118.75"
         ry="40.562"
         opacity="0.3"
         id="ellipse212" /><ellipse
         cx="3889.1113"
         cy="-2633.4377"
         rx="118.75"
         ry="40.562"
         opacity="0.3"
         id="ellipse213" /><ellipse
         cx="3757.1113"
         cy="-2655.9377"
         rx="118.75"
         ry="40.562"
         fill="#a5a5a5"
         id="ellipse214" /><path
         d="m 3833.1114,-2868.4378 c -34.405,-1.3189 -68.989,17.539 -83.651,49.27 -13.579,27.388 -18.123,58.796 -16.17,89.1 8.8972,14.134 27.625,17.101 42.332,22.57 18.936,5.3091 38.231,10.435 57.652,13.023 31.699,-6.514 65.015,-11.394 93.311,-28 13.236,-11.164 5.3168,-31.636 5.739,-46.782 -3.7383,-38.472 -23.061,-80.348 -62.254,-93.317 -11.829,-4.2022 -24.443,-5.867 -36.959,-5.8641 z"
         fill="#ffffff"
         stroke="#231f20"
         stroke-linecap="round"
         stroke-linejoin="round"
         stroke-miterlimit="10"
         stroke-width="4.2523"
         id="path214" /><g
         fill="#a5382d"
         id="g217"
         transform="translate(-58.58863,4.3622382)"><path
           d="m 3894.2,-2858 c 30.216,0.3421 61.828,17.118 72.453,46.58 -21.678,8.6023 -43.355,17.205 -65.033,25.807 -28.086,-6.9933 -56.172,-13.987 -84.258,-20.98 0.2649,-28.34 27.852,-46.926 53.771,-49.746 7.6236,-1.2121 15.352,-1.6769 23.067,-1.6607 z"
           enable-background="new    "
           id="path215" /><path
           d="m 3814,-2797.4 c -2.298,10.624 -13.424,34.275 2.5929,37.174 25.158,7.3402 50.317,14.68 75.475,22.021 27.075,-8.5873 54.15,-17.175 81.225,-25.762 -1.4604,-10.268 2.6825,-38.236 -11.475,-35.662 l -59.949,20.973 c -29.29,-6.248 -58.579,-12.496 -87.869,-18.744 z"
           enable-background="new    "
           id="path216" /><path
           d="m 3808.6,-2749.3 c -0.7311,18.838 22.639,24.809 37.148,29.863 18.844,4.1295 38.51,11.768 57.816,6.7788 23.766,-5.2364 49.045,-9.094 69.692,-22.766 -1.2046,-4.7534 3.5527,-17.436 -4.9864,-12.435 -24.792,7.1653 -49.584,14.331 -74.377,21.496 -28.431,-7.6457 -56.862,-15.291 -85.293,-22.937 z"
           enable-background="new    "
           id="path217" /></g><g
         fill="#ffffff"
         id="g220"
         transform="translate(-58.58863,4.3622382)"><path
           d="m 3920.6,-2890 c -3.6427,15.196 -26.15,35.479 -40.772,21.236 -20.992,-7.0731 -21.325,-34.769 3.7315,-32.235 11.929,-0.1562 31.682,-2.3084 37.04,10.998 z"
           stroke="#231f20"
           stroke-linecap="round"
           stroke-linejoin="round"
           stroke-miterlimit="10"
           stroke-width="4.2523"
           id="path218" /><path
           d="m 3932.3,-2773.8 c -9.9397,-2.3608 -4.3858,-14.473 -5.2259,-21.775 -4.1663,-10.835 12.441,-21.488 12.843,-5.9708 -1.3065,8.6355 1.0893,18.471 -3.1038,26.198 l -2.0525,1.1879 z"
           id="path219" /><path
           d="m 3809.5,-2798.2 c 33.076,-1.2473 66.311,16.852 80.406,47.359 12.924,25.778 16.975,55.245 15.816,83.821 -6.963,16.14 -28.25,18.38 -43.184,24.173 -17.494,4.7723 -35.285,9.5416 -53.196,11.864 -30.473,-6.2558 -62.475,-10.981 -89.69,-26.914 -12.722,-10.731 -5.1111,-30.409 -5.5171,-44.968 3.5925,-36.98 22.166,-77.232 59.838,-89.698 11.371,-4.0395 23.495,-5.6392 35.526,-5.6366 z"
           stroke="#231f20"
           stroke-linecap="round"
           stroke-linejoin="round"
           stroke-miterlimit="10"
           stroke-width="4.2523"
           id="path220" /></g><g
         fill="#ca45ce"
         id="g223"
         transform="translate(-58.58863,4.3622382)"><path
           d="m 3807,-2784 c -29.046,0.3409 -59.427,16.451 -69.641,44.773 20.836,8.2683 41.672,16.537 62.508,24.805 26.997,-6.7223 53.993,-13.445 80.99,-20.167 -0.2537,-27.241 -26.771,-45.104 -51.684,-47.815 -7.328,-1.1651 -14.757,-1.6119 -22.172,-1.5964 z"
           enable-background="new    "
           id="path221" /><path
           d="m 3884.2,-2725.7 c 2.2695,10.3 12.966,33.214 -2.7629,35.811 -24.093,7.0293 -48.187,14.058 -72.28,21.088 -26.024,-8.2547 -52.048,-16.509 -78.072,-24.764 1.4103,-9.8691 -2.6109,-37.087 11.221,-34.212 19.143,6.6977 38.286,13.395 57.429,20.093 28.155,-6.0053 56.31,-12.011 84.465,-18.016 z"
           enable-background="new    "
           id="path222" /><path
           d="m 3889.3,-2679.5 c 0.3779,19.049 -23.586,24.502 -38.282,29.443 -19.034,4.3354 -38.879,11.079 -58.23,4.758 -21.085,-4.8607 -43.494,-8.5636 -61.756,-20.862 0.739,-5.5396 -3.0667,-17.124 5.9837,-11.61 23.432,6.7728 46.865,13.546 70.297,20.318 27.329,-7.3493 54.658,-14.699 81.987,-22.048 z"
           enable-background="new    "
           id="path223" /></g><path
         d="m 3723.0114,-2810.3378 c 3.5011,14.606 25.136,34.104 39.19,20.413 20.175,-6.8 20.495,-33.421 -3.5883,-30.985 -11.466,-0.1502 -30.452,-2.2183 -35.601,10.572 z"
         fill="#ffffff"
         stroke="#231f20"
         stroke-linecap="round"
         stroke-linejoin="round"
         stroke-miterlimit="10"
         stroke-width="4.2523"
         id="path224" /><path
         d="m 3894.2114,-2779.7378 c 33.076,-1.2473 66.312,16.852 80.408,47.359 12.924,25.778 16.975,55.245 15.817,83.821 -6.9626,16.14 -28.25,18.38 -43.184,24.173 -17.494,4.7721 -35.285,9.5411 -53.197,11.863 -30.474,-6.2557 -62.477,-10.981 -89.694,-26.913 -12.722,-10.731 -5.1105,-30.408 -5.5162,-44.968 3.5935,-36.98 22.167,-77.232 59.84,-89.698 11.371,-4.0395 23.494,-5.6392 35.525,-5.6366 z"
         fill="#ffffff"
         stroke="#231f20"
         stroke-linecap="round"
         stroke-linejoin="round"
         stroke-miterlimit="10"
         stroke-width="4.2523"
         id="path225" /><g
         fill="#d3c24a"
         id="g228"
         transform="translate(-58.58863,4.3622382)"><path
           d="m 3950.3,-2769.9 c -29.046,0.3402 -59.428,16.45 -69.641,44.773 20.836,8.2683 41.672,16.537 62.508,24.805 26.996,-6.7223 53.992,-13.445 80.988,-20.167 -0.2533,-27.24 -26.77,-45.105 -51.683,-47.815 -7.3278,-1.165 -14.757,-1.6117 -22.172,-1.5961 z"
           enable-background="new    "
           id="path226" /><path
           d="m 4027.4,-2711.6 c 2.2689,10.3 12.968,33.214 -2.7609,35.811 -24.093,7.0293 -48.187,14.058 -72.28,21.088 -26.024,-8.2543 -52.048,-16.509 -78.072,-24.763 1.4103,-9.869 -2.6109,-37.087 11.221,-34.212 19.142,6.6976 38.284,13.395 57.427,20.093 28.155,-6.0057 56.31,-12.011 84.465,-18.017 z"
           enable-background="new    "
           id="path227" /><path
           d="m 4032.6,-2665.4 c 0.3782,19.049 -23.585,24.502 -38.281,29.443 -19.034,4.3353 -38.878,11.078 -58.229,4.7577 -21.086,-4.8605 -43.496,-8.5639 -61.76,-20.863 0.7389,-5.5395 -3.0665,-17.123 5.9837,-11.609 23.434,6.7726 46.868,13.545 70.301,20.318 27.328,-7.349 54.657,-14.698 81.985,-22.047 z"
           enable-background="new    "
           id="path228" /></g><path
         d="m 3895.1114,-2612.3378 c -1.364,-20.122 -2.7144,-40.741 1.59,-60.606"
         fill="none"
         stroke="#231f20"
         stroke-linecap="round"
         stroke-linejoin="round"
         stroke-miterlimit="10"
         stroke-width="4.2523"
         id="path229" /><path
         d="m 3866.3114,-2796.3378 c 3.5021,14.607 25.139,34.105 39.193,20.414 20.178,-6.7999 20.497,-33.422 -3.588,-30.985 -11.467,-0.15 -30.454,-2.2191 -35.605,10.572 z"
         fill="#ffffff"
         stroke="#231f20"
         stroke-linecap="round"
         stroke-linejoin="round"
         stroke-miterlimit="10"
         stroke-width="4.2523"
         id="path230" /><path
         d="m 3939.4114,-2689.2378 c 9.6773,-2.4235 4.1157,-14.344 4.9881,-21.532 4.2155,-11.426 -13.785,-19.054 -12.26,-4.019 1.2161,7.9329 -1.0508,17.002 2.9309,24.063 l 1.9745,1.1416 z"
         fill="#ffffff"
         id="path231" /><g
         transform="translate(-1.0098e-5,7.4254e-5)"
         stroke="#231f20"
         stroke-linecap="round"
         stroke-linejoin="round"
         stroke-miterlimit="10"
         stroke-width="4.2523"
         id="g233"><path
           d="m 3348.8,-2859.9 c -12.973,12.125 30.938,59.102 43.91,46.977 l 52.631,-49.196 c 12.973,-12.125 13.66,-32.471 1.535,-45.443 -12.125,-12.973 -32.473,-13.659 -45.445,-1.534 z"
           fill="#ffffff"
           id="path232" /><path
           d="m 3434.8,-2842.4 c 0,0 -56.418,51.122 -77.55,47.201 l -77.857,-20.532 14.25,-54.037 60.326,7.028 20.668,-19.612"
           fill="#c9ffc0"
           id="path233" /></g><path
         d="m 3301.6,-2566.2 c 0,29.531 81.688,53.474 182.45,53.474 100.77,0 182.46,-23.942 182.46,-53.474 0,-29.532 -81.688,-53.476 -182.46,-53.476 -100.76,0 -182.45,23.944 -182.45,53.476 z"
         opacity="0.3"
         id="path234" /><path
         d="m 3776.8114,-2732.4378 c -34.405,-1.3189 -68.989,17.539 -83.651,49.27 -13.579,27.388 -18.123,58.796 -16.17,89.1 8.8972,14.134 27.625,17.101 42.332,22.57 18.936,5.3091 38.231,10.435 57.652,13.023 31.699,-6.514 65.015,-11.394 93.311,-28 13.236,-11.164 5.3168,-31.636 5.739,-46.782 -3.7383,-38.472 -23.061,-80.348 -62.254,-93.317 -11.829,-4.2022 -24.443,-5.867 -36.959,-5.8641 z"
         fill="#ffffff"
         stroke="#231f20"
         stroke-linecap="round"
         stroke-linejoin="round"
         stroke-miterlimit="10"
         stroke-width="4.2523"
         id="path274" /><g
         stroke="#231f20"
         stroke-linecap="round"
         stroke-linejoin="round"
         stroke-miterlimit="10"
         stroke-width="4.2523"
         id="g246"><path
           transform="translate(-1.0098e-5,7.4254e-5)"
           d="m 3429,-2603.4 h 44.756 l 1.826,15.589 -8.646,1.69 c -1.828,5.634 -7.646,9.757 -14.553,9.757 H 3429 c -8.375,0 -15.162,-6.053 -15.162,-13.518 0,-7.466 6.787,-13.518 15.162,-13.518 z"
           fill="#ffffff"
           id="path235" /><path
           transform="translate(-1.0098e-5,7.4254e-5)"
           d="m 3547,-2603.4 h 44.756 l 1.826,15.589 -8.646,1.69 c -1.828,5.634 -7.646,9.757 -14.553,9.757 H 3547 c -8.375,0 -15.162,-6.053 -15.162,-13.518 0,-7.466 6.787,-13.518 15.162,-13.518 z"
           fill="#ffffff"
           id="path236" /><path
           transform="translate(-1.0098e-5,7.4254e-5)"
           d="m 3373.7,-2745.1 c 0,0 -2.338,78.793 28.352,142.72 0,0 54.91,6.713 84.76,0 l 13.885,-40.542 14.613,40.542 c 39.457,10.606 104.49,0 104.49,0 l 15.473,-66.151 c 34.475,-30.646 23.037,-76.563 23.037,-76.563 z"
           fill="#303030"
           id="path237" /><path
           transform="translate(-1.0098e-5,7.4254e-5)"
           d="m 3517.8,-3025.8 c 0,0 72.836,70.146 146.78,277.96 0.383,18.316 -93.977,29.215 -176.14,27.475 -3.186,-0.067 -10.535,-8.757 -10.535,-8.757 0,0 -5.301,8.263 -8.428,8.116 -53.514,-2.518 -97.742,-10.934 -100.19,-26.833 0.24,-36.506 42.605,-141.06 52.852,-152.8 42.675,-70.781 95.662,-125.16 95.662,-125.16 z"
           fill="#c9ffc0"
           id="path238" /><g
           transform="translate(-1.0098e-5,7.4254e-5)"
           id="g241"><path
             d="m 3762.2,-2771.6 -12.268,-5.065 c -0.021,-0.053 -0.047,-0.104 -0.072,-0.157 0,0 10.199,-6.898 8.838,-12.954 -1.359,-6.054 -7.516,-10.073 -13.744,-8.976 0,0 -16.295,2.915 -16.775,3.067 -17.225,-5.576 -26.973,5.939 -33.66,22.136 -7.045,17.067 -7.053,33.256 10.9,40.668 1.156,0.478 34.848,14.391 34.848,14.391 9.996,4.127 21.279,-0.229 25.201,-9.731 l 7.727,-18.707 c 3.921,-9.498 -1.003,-20.546 -10.995,-24.672 z"
             fill="#ddae68"
             id="path239" /><path
             d="m 3589.9,-2910 c 16.371,-6.872 35.215,0.832 42.088,17.205 l 27.875,66.432 v 66.228"
             fill="#ffffff"
             id="path240" /><path
             d="m 3598.6,-2793.7 c 4.088,7.407 10.787,14.788 21.76,19.448 l 70.393,29.137 19.457,-52.387 -48.986,-27.035 -25.336,-50.051"
             fill="#c9ffc0"
             id="path241" /></g><g
           fill="#db5637"
           id="g245"><path
             transform="translate(-1.0098e-5,7.4254e-5)"
             d="m 3588.8,-2921.2 c 0,0 -4.748,103.59 -135.7,134.22 0,0 -48.006,-36.154 -53.227,-93.578 l 15.801,-32.657"
             id="path242" /><path
             transform="translate(-1.0098e-5,7.4254e-5)"
             d="m 3556.4,-2846.3 c 32.029,27.125 99.889,-7.855 99.889,-7.855 -18.998,-73.858 -38.066,-67.106 -38.066,-67.106 h -81.77"
             id="path243" /><path
             transform="translate(-1.0098e-5,7.4254e-5)"
             d="m 3446.9,-2921.2 h -40.398 l -33.461,35.201 c 7.307,18.758 30.166,23.896 30.166,23.896 l 3.971,-9.313"
             id="path244" /><path
             transform="translate(-1.0098e-5,7.4254e-5)"
             d="m 3577.4,-2907.1 c 211.9,-26.021 222.36,-206.93 222.36,-206.93 1.688,-313.32 -278.12,-320.92 -278.12,-320.92 -187.04,-5.996 -240.5,132.18 -255.6,220.13 -11.709,10.902 -18.094,31.805 -4.695,37.555 -1.594,20.23 -1.074,33.031 -1.074,33.031 0,0 -19.586,219.88 168.5,237.13"
             id="path245" /></g><path
           transform="translate(-1.0098e-5,7.4254e-5)"
           d="m 3277.1,-3160 c 32.479,-93.41 244.39,-88.768 323.66,2.729 43.67,50.408 43.842,178.29 -38.844,214.63 -23.186,6.883 -28.047,21.91 -123.76,19.256 -73.752,-2.046 -91.314,-33.771 -109.73,-57.02 -41.379,-35.059 -55.895,-93.112 -51.322,-179.6 z"
           fill="#ddae68"
           id="path246" /></g><path
         transform="translate(-1.0098e-5,7.4254e-5)"
         d="m 3534,-3138 c 6.611,0.178 11.832,5.688 11.648,12.301 -0.18,6.625 -5.697,11.838 -12.305,11.666 -6.619,-0.192 -11.84,-5.697 -11.656,-12.32 0.182,-6.616 5.694,-11.831 12.313,-11.647 z"
         fill="#231f20"
         id="path247" /><path
         transform="translate(-1.0098e-5,7.4254e-5)"
         d="m 3353.9,-3146 c 6.617,0.181 11.828,5.693 11.648,12.307 -0.178,6.617 -5.686,11.833 -12.303,11.651 -6.621,-0.18 -11.834,-5.687 -11.652,-12.313 0.18,-6.609 5.693,-11.827 12.307,-11.645 z"
         fill="#231f20"
         id="path248" /><path
         transform="translate(-1.0098e-5,7.4254e-5)"
         d="m 3353,-3025 c -1.727,27.015 30.92,51.085 72.938,53.777 42.023,2.692 77.475,-17.03 79.207,-44.04 1.73,-27.001 -32.758,-22.419 -74.779,-25.11 -42.018,-2.687 -75.637,-11.635 -77.366,15.373 z"
         fill="#db4826"
         id="path249" /><path
         transform="translate(-1.0098e-5,7.4254e-5)"
         d="m 3505.1,-3014.2 -152.14,-9.745 c 0,0 -4.027,-11.935 13.346,-17.597 8.098,-2.473 78.996,2.317 119.72,4.712 15.011,3.139 19.095,13.607 19.078,22.63 z"
         fill="#ffffff"
         id="path250" /><path
         transform="translate(-1.0098e-5,7.4254e-5)"
         d="m 3353,-3025 c -1.727,27.015 30.92,51.085 72.938,53.777 42.023,2.692 77.475,-17.03 79.207,-44.04 1.73,-27.001 -32.758,-22.419 -74.779,-25.11 -42.018,-2.687 -75.637,-11.635 -77.366,15.373 z"
         fill="none"
         stroke="#231f20"
         stroke-linecap="round"
         stroke-linejoin="round"
         stroke-miterlimit="10"
         stroke-width="4.2523"
         id="path251" /><path
         transform="translate(-1.0098e-5,7.4254e-5)"
         d="m 3601,-2725.7 c 0,0 -0.063,24.911 21.117,28.808"
         fill="none"
         stroke="#231f20"
         stroke-linecap="round"
         stroke-linejoin="round"
         stroke-miterlimit="10"
         stroke-width="2.9228"
         id="path252" /><g
         transform="translate(-1.0098e-5,7.4254e-5)"
         id="g257"><g
           opacity="0.1"
           id="g253"><path
             d="m 3477.1,-3171.4 c -8.951,-0.352 -16.518,6.644 -16.871,15.595 l -2.238,56.95 c -0.35,8.951 6.646,16.519 15.596,16.871 l 101.46,3.987 c 8.951,0.353 16.518,-6.644 16.871,-15.594 l 2.238,-56.95 c 0.352,-8.951 -6.645,-16.519 -15.596,-16.871 z"
             fill="#ffffff"
             id="path253" /></g><circle
           cx="3490.8"
           cy="-3143.8"
           r="12.032"
           fill="#ffffff"
           opacity="0.3"
           id="circle253" /><g
           opacity="0.1"
           id="g254"><path
             d="m 3298.7,-3178.4 c -8.951,-0.353 -16.518,6.643 -16.871,15.594 l -2.238,56.95 c -0.352,8.951 6.645,16.52 15.596,16.872 l 101.46,3.987 c 8.951,0.351 16.52,-6.643 16.869,-15.594 l 2.242,-56.951 c 0.35,-8.951 -6.646,-16.52 -15.598,-16.871 z"
             fill="#ffffff"
             id="path254" /></g><path
           d="m 3300.4,-3151.5 c -0.354,6.636 4.738,12.302 11.373,12.657 6.635,0.354 12.301,-4.737 12.658,-11.372 0.354,-6.637 -4.738,-12.304 -11.375,-12.658 -6.633,-0.354 -12.301,4.738 -12.656,11.373 z"
           fill="#ffffff"
           opacity="0.3"
           id="path255" /><path
           d="m 3575.7,-3068.4 c -0.341,0 -0.684,-0.01 -1.026,-0.02 l -101.46,-3.988 c -14.229,-0.559 -25.354,-12.592 -24.797,-26.824 l 1.759,-44.663 -25.352,-0.996 -1.755,44.662 c -0.548,13.915 -11.88,24.815 -25.797,24.815 -0.341,0 -0.684,-0.01 -1.027,-0.02 l -101.46,-3.987 c -14.231,-0.56 -25.354,-12.593 -24.795,-26.824 l 2.24,-56.951 c 0.546,-13.915 11.877,-24.814 25.796,-24.814 0.341,0 0.685,0.01 1.028,0.02 l 101.46,3.987 c 13.309,0.523 23.909,11.012 24.731,24.162 l 25.687,1.01 c 1.803,-12.542 12.744,-22.167 25.526,-22.167 0.34,0 0.682,0.01 1.024,0.02 l 101.46,3.988 c 14.231,0.56 25.354,12.593 24.795,26.824 l -2.238,56.952 c -0.547,13.914 -11.879,24.814 -25.797,24.814 z m -99.237,-101.55 c -7.965,0 -14.451,6.239 -14.766,14.204 l -2.238,56.95 c -0.317,8.145 6.049,15.033 14.193,15.353 l 101.46,3.987 c 0.197,0.01 0.394,0.012 0.59,0.012 7.964,0 14.449,-6.239 14.764,-14.203 l 2.238,-56.95 c 0.319,-8.146 -6.047,-15.033 -14.193,-15.353 l -101.46,-3.988 c -0.198,-0.01 -0.393,-0.012 -0.588,-0.012 z m -178.43,-7.013 c -7.964,0 -14.449,6.239 -14.764,14.203 l -2.238,56.95 c -0.319,8.146 6.047,15.034 14.193,15.354 l 101.46,3.987 c 0.196,0.01 0.392,0.012 0.587,0.012 7.968,0 14.453,-6.238 14.765,-14.203 l 2.242,-56.951 c 0.318,-8.146 -6.05,-15.033 -14.195,-15.353 l -101.46,-3.987 c -0.197,-0.01 -0.394,-0.012 -0.59,-0.012 z"
           fill="#262827"
           id="path256" /><path
           d="m 3298,-3186.6 c 0.321,0 0.646,0.01 0.971,0.019 l 101.46,3.987 c 13.045,0.513 23.285,11.248 23.379,24.168 0.176,-0.011 0.348,-0.038 0.527,-0.038 h 0.064 l 27.207,1.07 c 0.203,0.01 0.391,0.055 0.588,0.083 1.078,-12.555 11.617,-22.279 24.236,-22.278 0.32,0 0.644,0.01 0.967,0.019 l 101.46,3.988 c 13.428,0.528 23.92,11.881 23.393,25.306 l -2.238,56.951 c -0.517,13.102 -11.338,23.411 -24.338,23.411 -0.321,0 -0.645,-0.01 -0.969,-0.019 l -101.46,-3.988 c -13.428,-0.527 -23.92,-11.88 -23.395,-25.306 l 1.818,-46.177 c -0.161,0.01 -0.318,0.034 -0.48,0.034 h -0.057 l -27.207,-1.069 c -0.182,-0.01 -0.35,-0.052 -0.527,-0.075 l -1.814,46.177 c -0.517,13.102 -11.338,23.411 -24.336,23.411 -0.322,0 -0.646,-0.01 -0.971,-0.019 l -101.46,-3.987 c -13.426,-0.528 -23.92,-11.88 -23.393,-25.306 l 2.24,-56.951 c 0.516,-13.101 11.336,-23.411 24.337,-23.411 m 99.236,101.55 c 8.667,0 15.883,-6.872 16.225,-15.607 l 2.242,-56.951 c 0.35,-8.951 -6.646,-16.52 -15.598,-16.871 l -101.46,-3.987 c -0.217,-0.01 -0.432,-0.013 -0.647,-0.013 -8.665,0 -15.879,6.873 -16.224,15.607 l -2.238,56.95 c -0.352,8.951 6.645,16.52 15.596,16.872 l 101.46,3.987 c 0.217,0.01 0.43,0.013 0.644,0.013 m 178.43,7.013 c 8.665,0 15.879,-6.873 16.224,-15.607 l 2.238,-56.95 c 0.352,-8.951 -6.645,-16.519 -15.596,-16.871 l -101.46,-3.988 c -0.217,-0.01 -0.432,-0.013 -0.646,-0.013 -8.666,0 -15.879,6.873 -16.225,15.608 l -2.238,56.95 c -0.35,8.951 6.646,16.519 15.596,16.871 l 101.46,3.987 c 0.216,0.01 0.431,0.013 0.647,0.013 m -277.66,-111.49 c -14.707,0 -26.679,11.517 -27.257,26.219 l -2.24,56.951 c -0.591,15.037 11.162,27.75 26.198,28.341 l 101.46,3.987 c 0.363,0.014 0.726,0.021 1.086,0.021 14.704,0 26.677,-11.517 27.256,-26.218 l 1.698,-43.203 22.431,0.881 -1.701,43.203 c -0.589,15.037 11.164,27.751 26.199,28.341 l 101.46,3.988 c 0.363,0.014 0.725,0.021 1.084,0.021 14.705,0 26.679,-11.517 27.258,-26.218 l 2.238,-56.952 c 0.592,-15.037 -11.161,-27.75 -26.197,-28.341 l -101.46,-3.988 c -0.361,-0.014 -0.723,-0.021 -1.082,-0.021 -13.061,0 -24.301,9.508 -26.752,22.117 l -23.116,-0.909 c -1.471,-13.271 -12.403,-23.677 -26.019,-24.212 l -101.46,-3.987 c -0.363,-0.014 -0.727,-0.021 -1.086,-0.021 z m 99.236,101.55 c -0.176,0 -0.352,0 -0.529,-0.01 l -101.46,-3.987 c -7.342,-0.289 -13.079,-6.496 -12.79,-13.836 l 2.238,-56.95 c 0.283,-7.176 6.126,-12.799 13.303,-12.799 0.177,0 0.354,0 0.532,0.01 l 101.46,3.987 c 7.341,0.289 13.079,6.496 12.793,13.836 l -2.242,56.95 c -0.281,7.178 -6.125,12.799 -13.305,12.799 z m 178.43,7.014 c -0.177,0 -0.354,0 -0.532,-0.01 l -101.46,-3.987 c -7.34,-0.289 -13.077,-6.496 -12.791,-13.836 l 2.238,-56.95 c 0.284,-7.177 6.129,-12.799 13.306,-12.8 0.177,0 0.353,0 0.53,0.01 l 101.46,3.988 c 7.342,0.289 13.078,6.496 12.791,13.836 l -2.238,56.95 c -0.284,7.177 -6.127,12.799 -13.304,12.799 z"
           fill="#231f20"
           id="path257" /></g><g
         fill="none"
         stroke="#231f20"
         stroke-linecap="round"
         stroke-linejoin="round"
         stroke-miterlimit="10"
         stroke-width="2.9228"
         id="g260"><path
           transform="translate(-1.0098e-5,7.4254e-5)"
           d="m 3489.8,-2610.5 c 0,0 -52.018,3.41 -91.148,0"
           id="path258" /><path
           transform="translate(-1.0098e-5,7.4254e-5)"
           d="m 3622.2,-2613.3 c 0,0 -64.371,5.751 -109.98,2.828"
           id="path259" /><path
           transform="translate(-1.0098e-5,7.4254e-5)"
           d="m 3404.3,-2728.4 c 0,0 0.758,16.607 -15.807,23.915"
           id="path260" /></g><g
         transform="translate(-1.0098e-5,7.4254e-5)"
         id="g269"><g
           id="g4138_2_"><path
             d="m 3261.5,-2887.4 c -2.697,-17.487 -7.104,-28.163 -1.113,-51.397 7.496,-12.499 15.291,-11.666 23.482,-21.668 0.143,-6.068 0.311,-11.606 0.389,-18.088 0.059,-5.113 5.543,-5.52 11.334,-5.367 v -0.099 c 0.359,0.058 0.742,0.099 1.137,0.136 1.225,0.043 2.445,0.095 3.621,0.125 1.18,0 2.398,-0.032 3.623,-0.046 0.389,-0.03 0.775,-0.062 1.137,-0.111 v 0.097 c 5.797,-0.025 11.266,0.502 11.217,5.618 -0.068,6.476 -0.02,12.017 -0.01,18.089 7.973,10.178 15.783,9.517 23.006,22.173 5.477,23.36 0.838,33.937 -2.24,51.359 -2.359,23.265 4.943,23.546 2.854,66.627 -0.012,9.032 -8.111,18.404 -17.369,18.098 l -17.492,-0.193 -13.422,-0.144 -17.49,-0.19 c -9.266,0.104 -17.158,-9.444 -16.973,-18.473 -1.152,-43.116 6.154,-43.241 4.303,-66.546 z"
             fill="#99fff0"
             id="path261" /><g
             opacity="0.8"
             id="g265"><path
               d="m 3339.3,-2937.9 c 3.52,15.022 2.854,24.754 1.119,34.42 l -81.936,-0.895 c -1.521,-9.703 -1.975,-19.444 1.875,-34.385 1.984,-3.306 3.984,-5.667 6.012,-7.557 l 67.08,0.732 c 1.984,1.933 3.934,4.34 5.85,7.685 z"
               enable-background="new    "
               fill="#00ff00"
               id="path262" /><path
               d="m 3337.1,-2886.6 c -0.637,6.287 -0.566,10.895 -0.172,15.125 l -75.572,-0.825 c 0.486,-4.219 0.656,-8.825 0.156,-15.121 -0.963,-6.244 -2.139,-11.622 -2.988,-17.012 l 81.936,0.895 c -0.965,5.367 -2.258,10.721 -3.36,16.938 z"
               enable-background="new    "
               fill="#ffff00"
               id="path263" /><path
               d="m 3260.9,-2868.8 c 0.182,-1.152 0.338,-2.312 0.482,-3.495 l 75.572,0.825 c 0.113,1.187 0.254,2.348 0.404,3.504 1.023,7.582 2.795,15.107 2.986,30.688 l -83.098,-0.907 c 0.533,-15.572 2.468,-23.057 3.654,-30.615 z"
               enable-background="new    "
               fill="#ff00ff"
               id="path264" /><path
               d="m 3257.2,-2836.7 c 0.012,-0.482 0.023,-0.977 0.037,-1.446 l 83.098,0.907 c 0,0.468 0.01,0.964 0,1.446 0.021,4.568 -0.072,9.774 -0.369,15.864 -0.012,9.032 -8.111,18.404 -17.369,18.098 l -17.492,-0.193 -13.422,-0.144 -17.49,-0.19 c -9.266,0.104 -17.158,-9.444 -16.973,-18.473 -0.16,-6.096 -0.149,-11.303 -0.024,-15.869 z"
               enable-background="new    "
               fill="#ff0000"
               id="path265" /></g><g
             id="g4051_25_"
             transform="translate(1.1866,-0.51496)"
             fill="none"
             stroke="#231f20"
             stroke-linecap="round"
             stroke-linejoin="round"
             stroke-miterlimit="10"
             stroke-width="4.2523"><path
               id="path3346-5-5_25_"
               d="m 3294.4,-2983.5 c 6.959,1.143 20.816,-2.309 20.734,5.819 -0.068,6.476 -0.02,12.017 -0.01,18.089 7.973,10.178 15.783,9.517 23.006,22.173 5.477,23.36 0.838,33.937 -2.24,51.359 -2.359,23.265 4.943,23.546 2.854,66.627 -0.012,9.032 -8.111,18.404 -17.369,18.098 l -30.914,-0.337" /><path
               id="path4049_25_"
               d="m 3303.9,-2983.4 c -6.98,0.989 -20.758,-2.764 -20.854,5.362 -0.078,6.481 -0.246,12.02 -0.389,18.088 -8.191,10.003 -15.986,9.17 -23.482,21.668 -5.99,23.234 -1.584,33.91 1.113,51.397 1.852,23.305 -5.455,23.43 -4.305,66.545 -0.186,9.029 7.707,18.577 16.973,18.473 l 30.912,0.334" /></g><path
             id="path3348-2_24_"
             d="m 3321.4,-2997.5 -41.596,-0.403 -1.037,27.043 43.396,0.525 z"
             fill="#478cd1"
             stroke="#231f20"
             stroke-linecap="round"
             stroke-linejoin="round"
             stroke-miterlimit="10"
             stroke-width="4.2523" /><path
             d="m 3274.6,-2903.2 c -0.033,4.695 3.742,8.528 8.436,8.565 4.691,0.035 8.529,-3.74 8.566,-8.437 l 0.15,-19.969 c 0.035,-4.696 -3.742,-8.529 -8.434,-8.564 -4.695,-0.037 -8.529,3.741 -8.566,8.436 z"
             fill="#ffffff"
             id="path266" /></g><path
           d="m 3301.2,-2850.1 c 5.846,11.996 -2.168,22.489 -11.908,24.233 -1.066,15.844 -24.475,10.298 -24.475,10.298 -18.045,-2.021 -31.314,-18.001 -31.029,-36.061 0,0 -1.814,-35.151 27.322,-38.059 1.363,12.778 2.422,16.419 13.303,15.444 0,0 32.848,-4.451 26.787,24.145 z"
           fill="#ddae68"
           stroke="#231f20"
           stroke-linecap="round"
           stroke-linejoin="round"
           stroke-miterlimit="10"
           stroke-width="4.2523"
           id="path267" /><path
           d="m 3289.2,-2823.7 c 0,0 -1.419,-0.187 -3.502,-0.514 -2.09,-0.328 -4.869,-0.797 -7.631,-1.365 -2.762,-0.563 -5.506,-1.231 -7.52,-1.882 -0.504,-0.157 -0.964,-0.31 -1.363,-0.472 -0.4,-0.159 -0.754,-0.27 -1.03,-0.414 -0.554,-0.262 -0.87,-0.412 -0.87,-0.412 0,0 0.338,0.084 0.93,0.233 0.289,0.085 0.662,0.126 1.076,0.202 0.413,0.079 0.886,0.138 1.403,0.193 2.063,0.24 4.833,0.357 7.603,0.372 2.771,0.018 5.543,-0.063 7.617,-0.148 2.082,-0.084 3.443,-0.175 3.443,-0.175 1.215,-0.08 2.265,0.839 2.345,2.053 0.081,1.214 -0.839,2.264 -2.053,2.344 -0.144,0.01 -0.284,0.01 -0.421,-0.012 z"
           fill="#231f20"
           id="path268" /><path
           d="m 3301.5,-2847.9 c 0,0 -0.66,0.059 -1.896,0.118 -1.234,0.084 -2.947,0.114 -5.01,0.169 -1.031,0.018 -2.146,0 -3.323,10e-4 -1.179,0 -2.419,0 -3.701,-0.057 -1.281,-0.044 -2.605,-0.09 -3.95,-0.137 -1.344,-0.024 -2.707,-0.169 -4.068,-0.249 -1.361,-0.095 -2.721,-0.19 -4.061,-0.284 -1.334,-0.142 -2.647,-0.281 -3.919,-0.416 -1.269,-0.138 -2.494,-0.271 -3.657,-0.398 -1.163,-0.104 -2.254,-0.313 -3.264,-0.455 -4.027,-0.614 -6.713,-1.023 -6.713,-1.023 0,0 2.71,0.137 6.775,0.341 1.016,0.039 2.109,0.137 3.276,0.124 1.163,0.01 2.391,0.018 3.659,0.027 1.268,0.01 2.576,0.012 3.907,0.019 1.329,-0.042 2.68,-0.084 4.03,-0.126 1.35,-0.058 2.697,-0.05 4.021,-0.16 1.324,-0.088 2.627,-0.174 3.887,-0.258 1.261,-0.067 2.474,-0.198 3.623,-0.311 1.149,-0.118 2.237,-0.21 3.235,-0.329 1.993,-0.256 3.661,-0.455 4.784,-0.647 1.125,-0.167 1.809,-0.297 1.809,-0.297 1.191,-0.227 2.341,0.555 2.568,1.746 0.227,1.191 -0.556,2.341 -1.747,2.568 -0.071,0.014 -0.143,0.024 -0.214,0.03 z"
           fill="#231f20"
           id="path269" /></g><g
         fill="#42ad42"
         id="g277"
         transform="translate(-58.58863,4.3622382)"><path
           d="m 3838,-2722 c 30.216,0.3421 61.828,17.118 72.453,46.58 -21.678,8.6023 -43.355,17.205 -65.033,25.807 -28.086,-6.9933 -56.172,-13.987 -84.258,-20.98 0.2645,-28.34 27.852,-46.927 53.771,-49.746 7.6236,-1.2121 15.352,-1.6769 23.067,-1.6607 z"
           enable-background="new    "
           id="path275" /><path
           d="m 3757.8,-2661.4 c -2.298,10.624 -13.424,34.275 2.5929,37.174 25.158,7.3402 50.317,14.68 75.475,22.021 27.075,-8.5873 54.15,-17.175 81.225,-25.762 -1.4604,-10.268 2.6825,-38.236 -11.475,-35.662 l -59.949,20.973 c -29.29,-6.248 -58.579,-12.496 -87.869,-18.744 z"
           enable-background="new    "
           id="path276" /><path
           d="m 3752.4,-2613.3 c -0.7311,18.838 22.639,24.809 37.148,29.863 18.844,4.1295 38.51,11.768 57.816,6.7788 23.766,-5.2364 49.045,-9.094 69.692,-22.766 -1.2046,-4.7534 3.5527,-17.436 -4.9864,-12.435 -24.792,7.1653 -49.584,14.331 -74.377,21.496 -28.431,-7.6457 -56.862,-15.291 -85.293,-22.937 z"
           enable-background="new    "
           id="path277" /></g><g
         fill="none"
         stroke="#231f20"
         stroke-linecap="round"
         stroke-linejoin="round"
         stroke-miterlimit="10"
         id="g274"><g
           stroke-width="2.9228"
           id="g273"><path
             transform="translate(-1.0098e-5,7.4254e-5)"
             d="m 3266.1,-3214.8 c 0,0 21.361,-32.498 126.21,-44.553"
             id="path270" /><line
             transform="translate(-1.0098e-5,7.4254e-5)"
             x1="3702.2"
             x2="3688.6001"
             y1="-2802"
             y2="-2769.8999"
             id="line270" /><path
             transform="translate(-1.0098e-5,7.4254e-5)"
             d="m 3370.4,-2760.1 c 0,0 6.426,18.019 76.43,23.336"
             id="path271" /><path
             transform="translate(-1.0098e-5,7.4254e-5)"
             d="m 3446.9,-2807 8.727,8.097 c 0,0 45.199,-10.746 83.928,-45.819"
             id="path272" /><path
             transform="translate(-1.0098e-5,7.4254e-5)"
             d="m 3653.6,-2864.3 c 0,0 -28.027,13.532 -57.154,15.099"
             id="path273" /></g><line
           transform="translate(-1.0098e-5,7.4254e-5)"
           x1="3515.3"
           x2="3495.3999"
           y1="-2602.3999"
           y2="-2656.8999"
           stroke-width="4.2523"
           id="line273" /></g><path
         d="m 3775.9114,-2558.2378 v -22.201 c -11.263,-10.007 4.1979,-20.848 -1.0005,-33.676 0.3384,-4.6793 1.1295,-9.5982 3.9225,-13.504"
         fill="none"
         stroke="#231f20"
         stroke-linecap="round"
         stroke-linejoin="round"
         stroke-miterlimit="10"
         stroke-width="4.2523"
         id="path278" /><g
         fill="#ffffff"
         id="g281"><path
           d="m 3864.4,-2754 c -3.6427,15.196 -26.15,35.479 -40.772,21.236 -20.992,-7.0731 -21.325,-34.769 3.7315,-32.235 11.929,-0.1562 31.682,-2.3084 37.04,10.998 z"
           stroke="#231f20"
           stroke-linecap="round"
           stroke-linejoin="round"
           stroke-miterlimit="10"
           stroke-width="4.2523"
           id="path279" /><path
           d="m 3876.1,-2637.8 c -9.9397,-2.3608 -4.3858,-14.473 -5.2259,-21.775 -4.1663,-10.835 12.441,-21.488 12.843,-5.9708 -1.3065,8.6355 1.0893,18.471 -3.1038,26.198 l -2.0525,1.1879 z"
           id="path280" /><polygon
           points="3281.4,-2942.1 3273.3,-2948.8 3272.8,-2959.3 3266.1,-2951.1 3255.6,-2950.6 3263.8,-2943.9 3264.3,-2933.4 3270.9,-2941.6 "
           id="polygon280" /><polygon
           points="3332.2,-2879.1 3321.7,-2878 3313.9,-2885.1 3315,-2874.6 3307.9,-2866.8 3318.4,-2867.9 3326.2,-2860.8 3325.1,-2871.3 "
           id="polygon281" /></g></g><g
       transform="matrix(-0.065376,0,0,0.06497,275.38326,-57.457764)"
       id="g59"><ellipse
         cx="41.806999"
         cy="3348.7"
         rx="221.69"
         ry="53.474998"
         opacity="0.3"
         stroke-width="1.0471"
         id="ellipse2" /><g
         stroke="#231f20"
         stroke-linecap="round"
         stroke-linejoin="round"
         stroke-miterlimit="10"
         id="g15"><g
           stroke-width="4.2523"
           id="g11"><path
             d="M 124.28,3317.9 H 79.524 l -1.826,15.588 8.645,1.691 c 1.829,5.633 7.646,9.756 14.555,9.756 h 23.383 c 8.373,0 15.162,-6.053 15.162,-13.518 -0.001,-7.465 -6.79,-13.517 -15.163,-13.517 z"
             fill="#ac9d93"
             id="path2" /><path
             d="m 6.2736,3317.9 h -44.756 l -1.826,15.588 8.644,1.691 c 1.83,5.633 7.646,9.756 14.555,9.756 h 23.383 c 8.373,0 15.162,-6.053 15.162,-13.518 0,-7.465 -6.789,-13.517 -15.162,-13.517 z"
             fill="#ac9d93"
             id="path3" /><path
             d="m 185.56,3088.9 64.947,16.323 c 0,0 1.2444,32.463 -22.989,43.965 l -57.388,-11.814 c 0,0 -25.574,-3.653 -22.652,-34.343"
             fill="#ddae68"
             id="path4" /><path
             d="m 188.08,3076 c 9.451,15.033 -44.985,49.26 -54.438,34.228 l -38.348,-60.989 c -9.451,-15.032 -4.928,-34.881 10.104,-44.332 15.032,-9.452 34.881,-4.928 44.333,10.104 z"
             fill-opacity="0"
             id="path5" /><path
             d="m 188.08,3076 45.009,10.078 c 0,0 -7.606,48.611 -29.597,53.559 l -67.456,-25.676"
             fill="#2cdd8c"
             id="path6" /><path
             d="m 179.6,3176.2 c 0,0 0.758,77.785 -39.795,142.72 0,0 -36.941,6.713 -66.793,0 L 57.451,3279.499 22.88,3318.92 c -33.672,6.713 -67.384,0 -67.384,0 l -37.466,-66.152 c -34.476,-30.646 -23.039,-76.563 -23.039,-76.563 z"
             fill="#3f4f56"
             id="path7" /><path
             d="m 35.532,2895.5 c 0,0 -72.834,70.146 -146.78,277.96 -0.383,18.316 93.977,29.215 176.13,27.475 3.186,-0.066 10.536,-8.758 10.536,-8.758 0,0 5.302,8.264 8.428,8.117 53.514,-2.519 97.742,-10.935 100.19,-26.834 -0.239,-36.506 -12.732,-75.115 -30.382,-111.56 8.431,-16.525 -12.224,-29.5 -22.47,-41.234 -42.675,-70.781 -95.661,-125.16 -95.661,-125.16 z"
             fill="#ffffff"
             id="path8" /><path
             d="m 13.343,2986.4 c 0.04,-1.24 5.766,9.24 10.651,18.422 3.643,6.847 6.82,12.971 6.82,12.971 l 11.447,-14.126 28.496,11.691 21.19,-12.422 13.152,12.422 -3.652,-29.06"
             fill="none"
             id="path9" /><path
             d="m -72.003,3165.7 -37.123,-5.291 18.769,-67.166 c 3.592,-11.772 16.045,-18.404 27.819,-14.813 11.772,3.591 18.404,16.047 14.813,27.818 z"
             fill="#ddae68"
             id="path10" /><path
             d="m -7.0464,3036.8 -29.359,65.336 c -6.224,16.63 -62.337,-3.767 -56.115,-20.396 l 25.25,-67.475 c 6.223,-16.631 24.749,-25.068 41.38,-18.845"
             fill="#ffffff"
             id="path11" /><polyline
             transform="translate(30.24)"
             points="16.537 2985.7 40.518 3015.4 60.247 2985.7"
             fill="#ddae68"
             id="polyline11" /></g><g
           stroke-width="3.5948"
           id="g14"><path
             d="m 210.67,2882.7 c 0,0 -4.8237,75.488 33.403,84.619 0,0 -54.557,38.97 -110.23,-15.587"
             fill="#231f20"
             id="path12" /><path
             d="m 230.68,2787.2 c -6.654,-125.89 -88.2,-223.06 -210.77,-216.22 -122.58,6.8324 -216.55,114.42 -209.9,240.32 5.145,97.301 86.583,145.81 179.9,159.66 19.6,5.8187 23.71,18.522 104.62,16.279 62.347,-1.7296 77.194,-28.549 92.764,-48.203 34.981,-29.639 47.253,-78.716 43.386,-151.83 z"
             fill="#ddae68"
             id="path13" /><path
             d="m -77.704,2795.4 c 28.344,-98.157 188.47,-76.771 234.93,-105.77 16.095,3.8642 69.093,58.03 73.221,89.687 25.873,-101.93 -15.323,-211.05 -111.08,-214.39 -294.11,-106.57 -396.37,231.59 -295.05,372.29 13.311,90.887 92.291,85.748 177.03,71.958 -15.972,-49.3 -100.19,-140.56 -79.052,-213.77 z"
             fill="#1f1f42"
             id="path14" /></g></g><g
         stroke-width="0.84538"
         id="g18"><path
           d="m 13.554,2813.4 c -5.5888,0.1513 -10.002,4.8085 -9.8469,10.399 0.15386,5.6005 4.8161,10.008 10.402,9.863 5.5972,-0.1624 10.009,-4.8153 9.8554,-10.414 -0.15555,-5.5947 -4.8153,-10.004 -10.41,-9.8478 z"
           fill="#231f20"
           id="path15" /><path
           d="m 165.82,2806.6 c -5.593,0.153 -9.9991,4.8136 -9.8469,10.405 0.15047,5.5931 4.8068,10.003 10.401,9.8495 5.5972,-0.153 10.004,-4.8085 9.852,-10.409 -0.15216,-5.5879 -4.8136,-9.9991 -10.406,-9.8453 z"
           fill="#231f20"
           id="path16" /><path
           d="m 166.56,2909 c 1.4617,22.838 -26.139,43.185 -61.659,45.462 -35.526,2.275 -65.496,-14.398 -66.96,-37.23 -1.4625,-22.827 27.694,-18.953 63.216,-21.228 35.522,-2.2707 63.943,-9.8352 65.403,12.997 z"
           fill="#db4826"
           id="path17" /><path
           d="m 38,2918.1 128.61,-8.2381 c 0,0 3.4043,-10.09 -11.281,-14.877 -6.8475,-2.0907 -66.783,1.9595 -101.21,3.9842 -12.691,2.6545 -16.143,11.504 -16.128,19.131 z"
           fill="#ffffff"
           id="path18" /></g><g
         stroke="#231f20"
         stroke-linecap="round"
         stroke-linejoin="round"
         stroke-miterlimit="10"
         id="g26"><g
           fill="none"
           id="g21"><path
             d="m 166.56,2909 c 1.4617,22.838 -26.139,43.185 -61.659,45.462 -35.526,2.275 -65.496,-14.398 -66.96,-37.23 -1.4625,-22.827 27.694,-18.953 63.216,-21.228 35.522,-2.2707 63.943,-9.8352 65.403,12.997 z"
             stroke-width="3.5948"
             id="path19" /><path
             d="m 70.758,3015.4 c 0,0 11.692,113.02 4.669,176.76"
             stroke-width="4.2523"
             id="path20" /><path
             d="m -40.757,3196.4 c 0,0 -0.991,22.057 -19.29,27.967"
             stroke-width="2.9228"
             id="path21" /></g><path
           d="m -92.52,3081.7 -18.552,55.063 c 0,0 4,18.668 59.333,17.334 l 15.333,-52"
           fill="#ffffff"
           stroke-width="4.2523"
           id="path22" /><g
           fill="none"
           stroke-width="2.9228"
           id="g25"><path
             d="m 70.758,3310.8 c 0,0 34.747,3.409 73.88,0"
             id="path23" /><path
             d="m -50.711,3307.9 c 0,0 35.127,5.752 80.731,2.829"
             id="path24" /><path
             d="m 153.34,3192.8 c 0,0 -0.755,16.607 15.808,23.914"
             id="path25" /></g></g><g
         transform="translate(30.24)"
         id="g27"><path
           d="m -101.12,3163.3 c 19.02,18.367 11.067,40.506 -9.005,45.855 -1.053,10.792 -10.765,17.767 -22.393,14.288 -15.601,2.472 -22.682,-7.457 -26.417,-27.259 -5.331,-20.818 23.241,-48.918 23.241,-48.918"
           fill="#ddae68"
           stroke="#231f20"
           stroke-linecap="round"
           stroke-linejoin="round"
           stroke-miterlimit="10"
           stroke-width="4.2523"
           id="path26" /><path
           d="m -112.24,3209.3 c 0,0 0.031,-6.376 0.175,-12.741 0.074,-3.185 0.158,-6.367 0.303,-8.757 0.032,-0.597 0.062,-1.143 0.088,-1.627 0.049,-0.484 0.092,-0.907 0.127,-1.255 0.07,-0.691 0.111,-1.086 0.111,-1.086 0,0 0.026,0.397 0.072,1.092 0.022,0.346 0.051,0.764 0.083,1.244 0.055,0.48 0.116,1.022 0.184,1.614 0.253,2.361 0.699,5.506 1.155,8.645 0.916,6.283 1.942,12.541 1.942,12.541 0.191,1.163 -0.597,2.261 -1.76,2.451 -1.163,0.19 -2.261,-0.598 -2.451,-1.761 -0.019,-0.115 -0.029,-0.247 -0.029,-0.36 z"
           fill="#231f20"
           id="path27" /></g><line
         x1="22.885"
         x2="66.761002"
         y1="3318.8999"
         y2="3268.1001"
         fill="none"
         stroke="#231f20"
         stroke-linecap="round"
         stroke-linejoin="round"
         stroke-miterlimit="10"
         stroke-width="4.2523"
         id="line27" /><path
         d="m -61.622,3177 c 0,0 45.584,12.508 137.73,8.144 0,0 73.396,-3.687 107.27,-25.587"
         fill="none"
         stroke="#231f20"
         stroke-linecap="round"
         stroke-linejoin="round"
         stroke-miterlimit="10"
         stroke-width="2.9228"
         id="path28" /><g
         transform="matrix(1.1132,0.11697,-0.11697,1.1132,1111.2,2573.5)"
         id="g48"><g
           transform="matrix(0.21867,-0.0015018,0.0015018,0.21867,-560.57,410.27)"
           id="g38"><path
             d="m -812.7,574.27 c 10.146,-64.939 26.602,-104.58 4.508,-190.93 -27.758,-46.496 -56.703,-43.457 -87.078,-80.682 -0.495,-22.531 -1.084,-43.114 -1.307,-67.185 -0.189,-19.007 -20.554,-20.558 -42.066,-20.037 l -0.015,-0.36 c -1.336,0.211 -2.763,0.363 -4.227,0.49 -4.539,0.153 -9.082,0.344 -13.446,0.443 -4.373,-0.018 -8.913,-0.131 -13.459,-0.199 -1.454,-0.109 -2.886,-0.228 -4.217,-0.42 l -0.002,0.359 c -21.543,-0.13 -41.868,1.786 -41.717,20.791 0.2,24.069 -0.02,44.646 -0.108,67.2 -29.692,37.765 -58.711,35.245 -85.63,82.208 -20.522,86.752 -3.358,126.06 7.947,190.82 8.601,86.446 -18.532,87.433 -11.085,247.5 0,70.591 79.621,86.599 150.75,86.599 71.128,0 156.66,-13.825 156.66,-89.344 4.583,-160.17 -22.563,-160.68 -15.507,-247.26 z"
             fill="#99fff0"
             id="path29" /><path
             d="m -812.7,574.27 c 10.146,-64.939 26.602,-104.58 4.508,-190.93 -27.758,-46.496 -56.703,-43.457 -87.078,-80.682 -0.495,-22.531 -1.084,-43.114 -1.307,-67.185 -0.189,-19.007 -20.554,-20.558 -42.066,-20.037 l -0.015,-0.36 c -1.336,0.211 -2.763,0.363 -4.227,0.49 -4.539,0.153 -9.082,0.344 -13.446,0.443 -4.373,-0.018 -8.913,-0.131 -13.459,-0.199 -1.454,-0.109 -2.886,-0.228 -4.217,-0.42 l -0.002,0.359 c -21.543,-0.13 -41.868,1.786 -41.717,20.791 0.2,24.069 -0.02,44.646 -0.108,67.2 -29.692,37.765 -58.711,35.245 -85.63,82.208 -20.522,86.752 -3.358,126.06 7.947,190.82 8.601,86.446 -18.532,87.433 -11.085,247.5 0,70.591 79.621,86.599 150.75,86.599 71.128,0 156.66,-13.825 156.66,-89.344 4.583,-160.17 -22.563,-160.68 -15.507,-247.26 z"
             fill="none"
             stroke="#231f20"
             stroke-linecap="round"
             stroke-linejoin="round"
             stroke-miterlimit="10"
             stroke-width="12.376"
             id="path30" /><path
             d="m -837.35,384.08 c -31.619,-40.601 -78.237,-43.035 -78.971,-85.28 -20.373,9.702 -55.832,10.123 -74.706,0.65458 2.5151,40.516 -60.303,58.145 -82.797,94.813 -24.739,48.75 -3.483,152.78 -3.483,152.78 l 52.343,112.71 h 108.31 l 89.506,-114.13 c 12.203,-95.874 1.0072,-147.16 -10.197,-161.55 z"
             enable-background="new    "
             fill="#00ff00"
             id="path31" /><path
             d="m -820.88,756.1 c -1.376,-49.433 -7.243,-73.229 -10.78,-97.233 -0.531,-3.659 -1.026,-7.339 -1.43,-11.102 0,0 -73.958,-34.182 -142.4,11.469 -33.215,22.154 -91.433,-10.369 -91.433,-10.369 -0.383,3.77 -0.812,7.455 -1.313,11.125 -3.287,24.03 -8.897,47.884 -9.752,97.326 0,0 41.325,-12.488 96.159,10.539 79.608,33.442 160.95,-11.755 160.95,-11.755 z"
             enable-background="new    "
             fill="#ff00ff"
             id="path32" /><path
             d="m -975.49,659.24 c 68.443,-45.65 142.4,-11.469 142.4,-11.469 -1.444,-13.404 -4.1304,-27.128 -2.4684,-47.105 1.9743,-18.437 3.2371,-36.395 8.4073,-55.033 0,0 -80.275,45.191 -156.94,0.97175 -51.458,-29.68 -93.214,0.448 -93.214,0.448 2.896,17.06 6.808,34.067 10.1,53.824 1.872,19.968 1.573,34.592 0.282,47.993 0,0.001 58.217,32.525 91.433,10.37 z"
             enable-background="new    "
             fill="#ffff00"
             id="path33" /><path
             d="m -820.79,760.69 c -0.021,-1.521 -0.068,-3.097 -0.091,-4.583 0,0 -81.342,45.196 -160.95,11.755 -54.834,-23.027 -96.159,-10.539 -96.159,-10.539 -0.022,1.49 -0.028,3.061 -0.048,4.594 -0.153,14.498 0.073,31.016 0.876,50.343 0,54.962 81.585,67.332 128.85,67.332 52.44,0 127.18,-10.913 127.18,-68.535 0.168,-19.346 0.636,-35.867 0.341,-50.367 z"
             fill="#ff0000"
             id="path34" /><path
             d="m -1076.4,555.28 c -10.362,-43.07 -12.239,-91.328 -7.4717,-136.98 55.436,5.3732 64.225,33.398 115.81,36.072 39.382,0.99621 116.22,-42.968 144.92,-34.174 4.9573,38.72 4.2447,68.492 -4.0558,125.44 -30.143,18.315 -56.931,23.025 -87.074,22.018 -43.584,-0.12238 -62.113,-21.568 -109.48,-32.908 -20.674,-4.5939 -33.316,5.2316 -52.649,20.538 z"
             fill="#ff7400"
             id="path35" /><g
             stroke="#231f20"
             id="g37"><path
               d="m -879.09,260.43 -4.673,-67.715 c 0.526,-14.221 -26.441,-28.291 -69.154,-29.874 -42.711,-1.583 -71.475,9.104 -72.002,23.327 l -8.838,68.531 c -0.53,14.24 33.667,27.057 76.377,28.633 42.711,1.59 77.761,-8.662 78.29,-22.902 z"
               fill="#99fff0"
               stroke-miterlimit="10"
               stroke-width="12.375"
               id="path36" /><path
               d="m -879.33,233.13 0.578,-69.009 c 0.117,-14.232 -34.43,-26.07 -77.171,-26.425 -42.738,-0.36 -77.477,10.896 -77.6,25.124 l -0.578,69.01 c -0.121,14.25 34.428,26.083 77.165,26.434 42.743,0.367 77.485,-10.887 77.606,-25.134 z"
               fill="#2479b3"
               stroke-miterlimit="10"
               stroke-width="12.375"
               id="path37" /><ellipse
               cx="-956.91998"
               cy="159.66"
               rx="76.769997"
               ry="24.052"
               fill="#3f9ad8"
               stroke-width="10.314"
               id="ellipse37" /></g><path
             d="m -913.02,379.91 c 3.848,-13.089 5.3951,-18.838 31.111,-15.29 52.269,36.18 45.525,62.941 44.729,108.83 -2.0682,18.178 -42.622,14.441 -43.146,4.266 5.7632,-43.652 2.2307,-75.153 -32.694,-97.806 z"
             fill="#ffffff"
             id="path38" /></g><g
           transform="matrix(0,-0.9418,0.84819,0,-888.39,1116.4)"
           opacity="0.8"
           aria-label="A12X5"
           id="g43"><path
             d="m 590.16,132.09 c 5.484,-8.0875 9.5902,6.1382 9.4433,10.779 1.6114,5.7675 -2.4388,6.4821 -4.998,1.5686 -3.1574,-0.43078 -9.0229,9.3737 -7.463,0.7184 0.85646,-4.3879 1.8658,-8.7458 3.0176,-13.066 z m 1.8349,9.7331 c 8.3515,2.9877 0.10415,-14.766 -0.54086,-2.9845 -0.25978,0.98858 -0.29739,2.2272 0.54086,2.9845 z"
             id="path39" /><path
             d="m 604.14,130.29 c 8.2214,-0.0212 0.28033,12.342 2.3193,17.234 -7.2721,4.2885 -0.25633,-9.3691 -4.0165,-12.822 -0.75759,-2.0848 0.1187,-3.2987 1.6972,-4.4125 z"
             id="path40" /><path
             d="m 608.79,135.08 c -0.55139,-10.848 19.013,-7.4998 14.037,2.792 -2.3616,4.5808 -12.392,7.8357 -2.383,7.39 5.5764,9.3943 -19.777,2.572 -7.5918,-3.1417 8.4208,0.39414 5.8569,-13.934 -0.30262,-5.7215 -1.3809,1.3928 -3.9534,1.1183 -3.7592,-1.3187 z"
             id="path41" /><path
             d="m 628.62,129.6 c 0.76619,4.2325 4.6052,7.6019 5.0266,1.1972 7.3029,-3.774 -1.5756,6.7179 -0.0765,9.9762 3.4885,3.4085 1.4292,12.809 -1.891,5.0055 -1.9568,-6.0582 -4.8838,9.485 -7.2771,1.6221 7.0393,-4.3016 2.0854,-11.355 2.3657,-17.269 l 0.73181,-0.38451 z"
             id="path42" /><path
             d="m 653,130.63 c 0.22775,6.8064 -17.212,-1.2879 -9.8542,7.2592 8.7737,-1.9108 12.753,10.991 2.8477,11.472 -5.7076,0.20499 -2.9569,-4.1363 0.82719,-3.662 2.3994,-7.3496 -11.482,-1.4343 -8.6388,-11.129 -0.11746,-8.667 9.9964,-6.7222 14.818,-3.9398 z"
             id="path43" /></g><g
           transform="matrix(0.59201,-0.0052709,0.0050489,0.56706,-1136.8,504.77)"
           opacity="0.8"
           aria-label="235g"
           id="g47"><path
             d="m 598.92,138.07 c 8.2008,-14.403 10.655,10.562 7.5052,7.1204 5.6515,7.5327 -15.421,0.94708 -1.9742,-3.8426 4.339,-6.2506 -5.0105,-0.1155 -5.5309,-3.2778 z"
             id="path44" /><path
             d="m 612.1,134.33 c 7.3472,-1.5916 9.6748,17.574 -1.0745,12.823 4.3338,-2.5428 6.6624,-3.8447 0.68718,-7.6599 9.755,-1.4293 -8.2983,-2.2025 0.38733,-5.1634 z"
             id="path45" /><path
             d="m 630.27,134.85 c -2.0086,3.3655 -14.75,2.7957 -3.8025,5.2076 8.2931,5.5917 -8.4346,12.328 -0.35591,4.1706 -13.125,-1.258 -4.5279,-17.035 4.1584,-9.3782 z"
             id="path46" /><path
             d="m 638.25,138.4 c 9.4973,5.448 -5.879,20.032 -2.8134,10.41 -9.4761,-1.6808 -4.6877,-13.32 2.8134,-10.41 z m -1.0002,3.0104 c -10.45,-1.4946 4.6071,13.828 0,0 z"
             id="path47" /></g></g><g
         transform="translate(0.13593,-6.8136)"
         id="g50"><path
           d="m 186.85,3106.5 c -8.027,10.657 -2.162,22.489 7.064,26.061 -1.977,15.756 22.059,14.781 22.059,14.781 18.1,1.462 34.174,-11.69 37.343,-29.473 0,0 10.384,-34.975 -17.659,-43.393 -1.967,11.277 -7.406,16.471 -17.902,13.436 -0.001,0 -31.393,-10.641 -30.905,18.588 z"
           fill="#ddae68"
           stroke="#231f20"
           stroke-linecap="round"
           stroke-linejoin="round"
           stroke-miterlimit="10"
           stroke-width="4.2523"
           id="path48" /><path
           d="m 194.25,3130.4 c 0,0 1.319,0.349 3.347,0.828 2.021,0.479 4.726,1.089 7.448,1.6 2.723,0.516 5.463,0.93 7.534,1.087 0.519,0.045 0.993,0.078 1.414,0.079 0.421,0 0.794,0.036 1.095,0.01 0.609,-0.032 0.957,-0.051 0.957,-0.051 0,0 -0.34,0.086 -0.933,0.237 -0.299,0.089 -0.667,0.131 -1.09,0.21 -0.424,0.083 -0.903,0.145 -1.429,0.203 -2.101,0.254 -4.922,0.385 -7.74,0.411 -2.819,0.03 -5.636,-0.04 -7.75,-0.117 -2.107,-0.075 -3.535,-0.164 -3.535,-0.164 h -0.017 c -1.215,-0.074 -2.139,-1.12 -2.063,-2.335 0.074,-1.215 1.12,-2.139 2.335,-2.063 0.143,0.01 0.293,0.034 0.427,0.069 z"
           fill="#231f20"
           id="path49" /><path
           d="m 187.53,3104.4 c 0,0 0.646,0.258 1.718,0.636 1.066,0.404 2.666,0.918 4.573,1.55 0.958,0.308 2.008,0.604 3.113,0.939 1.106,0.331 2.272,0.69 3.497,0.997 1.221,0.323 2.482,0.656 3.766,0.996 1.279,0.361 2.604,0.61 3.917,0.925 1.318,0.3 2.636,0.599 3.933,0.894 1.308,0.247 2.594,0.491 3.838,0.728 1.248,0.232 2.454,0.458 3.598,0.672 1.143,0.236 2.236,0.349 3.24,0.505 4.029,0.574 6.716,0.958 6.716,0.958 0,0 -2.714,-0.11 -6.785,-0.277 -1.019,-0.054 -2.129,-0.056 -3.29,-0.176 -1.166,-0.098 -2.395,-0.201 -3.666,-0.308 -1.273,-0.11 -2.59,-0.225 -3.927,-0.34 -1.332,-0.164 -2.686,-0.33 -4.039,-0.496 -1.353,-0.183 -2.718,-0.301 -4.042,-0.533 -1.329,-0.211 -2.637,-0.419 -3.903,-0.62 -1.271,-0.185 -2.487,-0.429 -3.644,-0.651 -1.156,-0.226 -2.254,-0.421 -3.262,-0.635 -2.015,-0.448 -3.691,-0.805 -4.887,-1.122 -1.202,-0.295 -1.839,-0.478 -1.839,-0.479 l -0.048,-0.014 c -1.166,-0.336 -1.838,-1.553 -1.502,-2.718 0.336,-1.165 1.553,-1.838 2.718,-1.502 0.069,0.019 0.141,0.044 0.207,0.071 z"
           fill="#231f20"
           id="path50" /></g><g
         transform="matrix(1.0863,0,0,1.0863,-665.55,-262.98)"
         id="g51"><path
           d="m 755.21,3062.9 c -2.9088,4.2868 -7.1696,7.5148 -11.742,9.857 -4.7889,2.4481 -10.065,3.836 -15.394,4.4443 -3.0807,0.3363 -6.1838,0.4002 -9.2806,0.2917 -1.6778,0 1.6497,-0.1862 2.1826,-0.2683 3.6079,-0.3096 7.1786,-1.0139 10.655,-2.0248 5.6746,-1.7414 11.111,-4.5398 15.409,-8.6827 1.8879,-1.7921 3.5047,-3.8664 4.7466,-6.1513 1.0226,-1.3853 3.4693,-0.7854 3.7341,0.9163 0.11978,0.5535 -6.2e-4,1.1461 -0.31111,1.6178 z"
           fill="#231f20"
           id="path51" /></g><g
         transform="matrix(1.261,0,0,1.4218,-786.05,-1281.2)"
         id="g52"><path
           d="m 612.62,3063.3 c 7.1526,1.6928 11.793,3.7394 19.088,4.6982 3.2035,0.4451 8.9563,0.3531 12.166,0.7374 -0.61213,0.316 -2.1203,0.6497 -3.0705,0.8778 -6.6679,1.2994 -12.205,1.5302 -18.554,-0.7866 -2.9067,-1.0968 -7.2012,-3.5673 -9.6295,-5.5268 z"
           fill="#231f20"
           stroke-width="0.69943"
           id="path52" /></g><path
         d="m 13.906,3071.2 c -1.7552,-0.3877 -3.3674,-1.4187 -4.3893,-2.9069 -1.5474,-2.0783 -1.7616,-4.9948 -0.69897,-7.3327 1.0826,-2.3119 3.4105,-3.9882 5.9629,-4.2071 2.3634,-0.2192 4.8227,0.7421 6.3117,2.612 1.9317,2.2362 2.2375,5.662 0.78792,8.2272 -0.78319,1.4525 -2.1229,2.5799 -3.6251,3.2346 -1.3767,0.5422 -2.901,0.6937 -4.3492,0.3729 z m 2.3427,-5.0209 c 1.3901,-0.4141 2.0593,-2.2418 1.2425,-3.4468 -0.36691,-0.664 -1.0653,-1.0711 -1.8153,-1.1211 -1.4295,-0.2212 -2.7694,1.2293 -2.5298,2.6397 0.10915,1.1987 1.248,2.1345 2.438,2.051 0.22592,-0.011 0.45064,-0.05 0.66464,-0.1228 z"
         fill="#00e6ff"
         id="path53" /><path
         d="m 29.353,3072.9 c -1.7552,-0.3878 -3.3674,-1.4187 -4.3893,-2.907 -1.5474,-2.0783 -1.7616,-4.9948 -0.69898,-7.3326 1.0826,-2.3119 3.4105,-3.9883 5.9629,-4.2073 2.3634,-0.2191 4.8227,0.7423 6.3117,2.612 1.9317,2.2363 2.2375,5.6622 0.78792,8.2274 -0.78319,1.4524 -2.1229,2.5798 -3.6251,3.2346 -1.3767,0.542 -2.901,0.6935 -4.3492,0.3729 z m 2.3427,-5.021 c 1.3901,-0.414 2.0593,-2.2417 1.2425,-3.4469 -0.36691,-0.6638 -1.0653,-1.071 -1.8153,-1.121 -1.4295,-0.2212 -2.7694,1.2294 -2.5298,2.6397 0.10915,1.1987 1.248,2.1345 2.438,2.0511 0.22591,-0.011 0.45063,-0.05 0.66464,-0.1229 z"
         fill="#05f30a"
         id="path54" /><path
         d="m 23.107,3058.7 c -1.7552,-0.3878 -3.3674,-1.4187 -4.3893,-2.9068 -1.5474,-2.0784 -1.7616,-4.9949 -0.69898,-7.3328 1.0826,-2.3118 3.4105,-3.9884 5.9629,-4.2071 2.3634,-0.2194 4.8228,0.742 6.3118,2.6119 1.9317,2.2361 2.2374,5.6622 0.78791,8.2274 -0.78319,1.4524 -2.1229,2.5797 -3.6251,3.2345 -1.3767,0.5422 -2.9009,0.6936 -4.3492,0.3729 z m 2.3427,-5.021 c 1.3901,-0.4141 2.0592,-2.2417 1.2425,-3.4467 -0.3669,-0.6641 -1.0653,-1.0712 -1.8152,-1.1212 -1.4295,-0.2212 -2.7694,1.2293 -2.5298,2.6396 0.10914,1.1989 1.248,2.1345 2.438,2.0511 0.22591,-0.011 0.45064,-0.05 0.66464,-0.1228 z"
         fill="#999999"
         id="path55" /><path
         d="m 7.711,3057 c -1.7552,-0.3878 -3.3674,-1.4188 -4.3893,-2.907 -1.5474,-2.0782 -1.7616,-4.9947 -0.69898,-7.3326 1.0826,-2.3118 3.4105,-3.9884 5.9629,-4.2072 2.3634,-0.2193 4.8228,0.7421 6.3118,2.6119 1.9317,2.2362 2.2374,5.6622 0.78791,8.2274 -0.78319,1.4525 -2.1229,2.5797 -3.6251,3.2346 -1.3767,0.5421 -2.9009,0.6936 -4.3492,0.3729 z m 2.3427,-5.021 c 1.3901,-0.4141 2.0592,-2.2417 1.2425,-3.4468 -0.3669,-0.664 -1.0653,-1.0712 -1.8152,-1.1212 -1.4295,-0.2211 -2.7694,1.2294 -2.5298,2.6397 0.10914,1.1988 1.248,2.1345 2.438,2.0511 0.22592,-0.011 0.45063,-0.05 0.66464,-0.1228 z"
         fill="#ff13ff"
         id="path56" /><path
         d="m 38.482,3060.4 c -1.7552,-0.3878 -3.3674,-1.4187 -4.3893,-2.9069 -1.5474,-2.0783 -1.7616,-4.9948 -0.69898,-7.3327 1.0826,-2.3118 3.4105,-3.9883 5.9629,-4.2071 2.3634,-0.2193 4.8228,0.742 6.3118,2.6118 1.9317,2.2363 2.2374,5.6623 0.78791,8.2275 -0.78319,1.4524 -2.1229,2.5797 -3.6251,3.2345 -1.3767,0.5421 -2.9009,0.6935 -4.3492,0.3729 z m 2.3427,-5.021 c 1.3901,-0.4141 2.0592,-2.2417 1.2425,-3.4468 -0.3669,-0.6639 -1.0653,-1.0711 -1.8152,-1.1211 -1.4295,-0.2213 -2.7694,1.2294 -2.5298,2.6397 0.10914,1.1988 1.248,2.1345 2.438,2.051 0.22592,-0.011 0.45063,-0.05 0.66464,-0.1228 z"
         fill="#fddf00"
         id="path57" /><path
         d="m 32.269,3046.3 c -1.7552,-0.3877 -3.3674,-1.4186 -4.3892,-2.9069 -1.5474,-2.0783 -1.7616,-4.9948 -0.69898,-7.3328 1.0826,-2.3117 3.4105,-3.9882 5.9629,-4.2071 2.3634,-0.2191 4.8227,0.7421 6.3117,2.612 1.9317,2.2363 2.2375,5.6621 0.78792,8.2274 -0.78319,1.4524 -2.1229,2.5798 -3.6251,3.2346 -1.3767,0.542 -2.9009,0.6934 -4.3492,0.3728 z m 2.3427,-5.021 c 1.3901,-0.414 2.0592,-2.2418 1.2425,-3.4468 -0.3669,-0.6641 -1.0653,-1.0711 -1.8153,-1.121 -1.4295,-0.2213 -2.7693,1.2292 -2.5298,2.6397 0.10915,1.1987 1.248,2.1345 2.438,2.0509 0.22591,-0.011 0.45063,-0.05 0.66465,-0.1228 z"
         fill="#fa8d04"
         id="path58" /><path
         d="m 16.93,3044.5 c -1.7552,-0.3879 -3.3674,-1.4188 -4.3893,-2.9069 -1.5474,-2.0784 -1.7616,-4.9949 -0.69896,-7.3328 1.0826,-2.3118 3.4105,-3.9883 5.9629,-4.2072 2.3634,-0.2192 4.8227,0.7422 6.3117,2.612 1.9317,2.2362 2.2374,5.6623 0.78791,8.2274 -0.78319,1.4525 -2.1229,2.5797 -3.6251,3.2346 -1.3767,0.5421 -2.9009,0.6936 -4.3492,0.3729 z m 2.3427,-5.021 c 1.3901,-0.4141 2.0593,-2.2418 1.2425,-3.4468 -0.3669,-0.664 -1.0653,-1.0712 -1.8152,-1.1212 -1.4295,-0.2211 -2.7694,1.2294 -2.5298,2.6397 0.10915,1.1987 1.248,2.1345 2.438,2.0511 0.22592,-0.011 0.45064,-0.05 0.66464,-0.1228 z"
         fill="#ff0000"
         id="path59" /></g><g
       transform="matrix(-1.253,0,0,1.253,577.27,-60.736)"
       id="g108"><path
         d="m 214.12,175.63 c 2.6023,0 5.0082,0.22194 6.9635,0.59793 1.236,-0.36995 2.9273,-0.59793 4.7932,-0.59793 3.7857,0 6.8545,0.93845 6.8545,2.0961 0,1.1575 -3.0688,2.0958 -6.8545,2.0958 -0.19579,0 -0.38959,-0.003 -0.58122,-0.008 -1.6313,1.216 -6.0184,2.0869 -11.175,2.0869 -6.5476,0 -11.856,-1.4039 -11.856,-3.1356 0,-1.7317 5.3079,-3.1357 11.856,-3.1357 z"
         opacity="0.3"
         stroke-width="0.058638"
         id="path60" /><g
         stroke="#231f20"
         stroke-linecap="round"
         stroke-linejoin="round"
         stroke-miterlimit="10"
         id="g70"><g
           stroke-width="4.2523"
           id="g63"><path
             transform="matrix(-0.058638,0,0,0.058638,356.32,242.6)"
             d="m 2487.1,-1121.5 h -44.756 l -1.826,15.59 8.644,1.691 c 1.83,5.633 7.647,9.756 14.556,9.756 h 23.383 c 8.373,0 15.162,-6.053 15.162,-13.518 0,-7.469 -6.789,-13.519 -15.163,-13.519 z"
             fill="#492800"
             id="path61" /><path
             transform="matrix(-0.058638,0,0,0.058638,356.32,242.6)"
             d="m 2369.1,-1121.5 h -44.755 l -1.827,15.59 8.645,1.691 c 1.829,5.633 7.646,9.756 14.555,9.756 h 23.383 c 8.373,0 15.162,-6.053 15.162,-13.518 0,-7.469 -6.79,-13.519 -15.163,-13.519 z"
             fill="#492800"
             id="path62" /><path
             transform="matrix(-0.058638,0,0,0.058638,356.32,242.6)"
             d="m 2579.9,-1358.2 c 11.2,13.777 -38.695,54.34 -49.896,40.561 l -45.446,-55.902 c -11.2,-13.775 -9.11,-34.027 4.667,-45.227 13.778,-11.201 34.029,-9.113 45.229,4.666 z"
             fill="#bfbebe"
             id="path63" /></g><path
           transform="matrix(-0.058638,0,0,0.058638,356.32,242.6)"
           d="m 2526.7,-1316.4 c -1.0727,-12.935 7.9569,-25.326 20.168,-27.671 l 27.441,-5.2715 c 12.212,-2.346 22.981,6.2409 24.054,19.176 1.073,12.938 -7.9566,25.328 -20.169,27.674 l -27.441,5.2714 c -12.211,2.3458 -22.98,-6.2412 -24.053,-19.179 z"
           fill="#efcfac"
           stroke-width="4.8266"
           id="path64" /><path
           transform="matrix(-0.058638,0,0,0.058638,356.32,242.6)"
           d="m 2559.2,-1273.4 c -93.997,-10.87 -219.76,9.8611 -275.49,-36.149 -10.9,58.824 16.413,125.83 34.572,189.01 0,0 33.712,6.715 67.384,0 l 30.165,-57.24 19.966,57.24 c 29.852,6.715 66.794,0 66.794,0 25.691,-42.245 49.044,-104.13 56.614,-152.86 z"
           fill="#2c4769"
           stroke-width="4.2523"
           id="path65" /><path
           transform="matrix(-0.058638,0,0,0.058638,356.32,242.6)"
           d="m 2524.4,-1356.5 c -23.458,-84.844 -125.99,-187.46 -125.99,-187.46 -32.351,64.446 -128.61,121.64 -119.4,220.87 0,0 49.502,49.796 104.57,43.93 h 96.571 c 0,0 66.506,1.0603 44.253,-77.338 z"
           fill="#bfbebe"
           stroke-width="4.2523"
           id="path66" /><path
           transform="matrix(-0.058638,0,0,0.058638,356.32,242.6)"
           d="m 2392.4,-1280.6 c -1.1418,3.5379 -8.9226,9.6977 -8.9226,9.6977 l -9.8612,-7.8875 c 0,0 17.3,-93.025 -3.8709,-182.05 l 18.784,-1.8101 c 0,0 20.476,117.01 3.8709,182.05 z"
           fill="#c83737"
           stroke-width="3.9913"
           id="path67" /><path
           transform="matrix(-0.058638,0,0,0.058638,356.32,242.6)"
           d="m 2503.5,-1278.7 -6.2463,7.217 -10.493,-6.0115 c 0,0 -4.2549,-136.21 -33.985,-162.58 2.2539,-3.0922 12.238,-4.8251 15.127,-2.3175 33.885,26.125 35.597,163.69 35.597,163.69 z"
           fill="#c83737"
           stroke-width="3.5157"
           id="path68" /><path
           d="m 213.61,134.75 c 6.6623,0.40285 11.769,6.7466 11.408,14.169 -0.27968,5.737 -4.5963,8.7267 -9.6683,9.5436 -1.0653,0.34308 -1.3982,0.96247 -5.7957,0.83018 -3.3886,-0.10203 -3.3573,-1.6802 -4.2035,-2.8391 -1.7263,-3.7215 -3.4981,-9.9862 -2.4322,-13.963 1.4129,-5.2715 6.0024,-7.8324 10.691,-7.741 z"
           fill="#f2d0b1"
           stroke-width="0.2035"
           id="path69" /><path
           d="m 214.2,153.81 -6.2178,-0.35392 c -2.9346,-0.13507 -3.1545,0.77767 -3.158,0.79272 0.0204,1.3446 0.79572,3.5439 1.9846,4.2584 0.76861,0.92343 2.0677,1.4657 4.0825,1.6856 1.981,0.2162 3.7636,-0.28388 4.4298,-1.0438 1.4765,-0.16886 4.872,-0.66525 7.1808,-3.9447 0.97187,-1.3805 -4.8613,1.4894 -4.8613,1.4894 C 217.5924,154.6179 214.2,153.81 214.2,153.81 Z"
           fill="#ffffff"
           stroke-width="0.18183"
           id="path70" /></g><path
         transform="matrix(-0.058638,0,0,0.058638,356.32,242.6)"
         d="m 2355,-1321.3 c 0,13.361 -12.705,24.194 -28.377,24.194 h -35.219 c -15.674,0 -28.379,-10.833 -28.379,-24.194 v 0 c 0,-13.363 12.705,-24.196 28.379,-24.196 h 35.219 c 15.672,0 28.377,10.833 28.377,24.196 z"
         fill="#efcfac"
         stroke="#231f20"
         stroke-linecap="round"
         stroke-linejoin="round"
         stroke-miterlimit="10"
         stroke-width="5.5134"
         id="path71" /><path
         d="m 206.52,149.71 c 0.32074,0.009 0.57343,0.2761 0.5647,0.59676 -0.009,0.32075 -0.27566,0.57372 -0.59641,0.5648 -0.32104,-0.009 -0.57378,-0.27571 -0.56501,-0.59695 0.009,-0.32041 0.27606,-0.57334 0.59672,-0.56461 z"
         fill="#231f20"
         stroke-width="0.048481"
         id="path72" /><path
         d="m 214.62,149.71 c 0.32075,0.009 0.57344,0.2761 0.56466,0.59676 -0.009,0.32075 -0.27567,0.57372 -0.59642,0.5648 -0.32104,-0.009 -0.57377,-0.27571 -0.56495,-0.59695 0.009,-0.32041 0.27601,-0.57334 0.59671,-0.56461 z"
         fill="#231f20"
         stroke-width="0.048481"
         id="path73" /><g
         stroke="#231f20"
         stroke-linecap="round"
         stroke-linejoin="round"
         stroke-miterlimit="10"
         id="g85"><g
           fill="none"
           stroke-width="2.9228"
           id="g78"><path
             transform="matrix(-0.058638,0,0,0.058638,356.32,242.6)"
             d="m 2323.9,-1243.9 c 0,0 0.063,24.914 -21.116,28.809"
             id="path74" /><path
             transform="matrix(-0.058638,0,0,0.058638,356.32,242.6)"
             d="m 2432.2,-1131.2 c 0,0 36.386,5.557 75.517,2.146"
             id="path75" /><path
             transform="matrix(-0.058638,0,0,0.058638,356.32,242.6)"
             d="m 2315.3,-1131.5 c 0,0 29.843,4.414 75.445,1.492"
             id="path76" /><path
             transform="matrix(-0.058638,0,0,0.058638,356.32,242.6)"
             d="m 2514.7,-1246.6 c 0,0 -0.756,16.609 15.807,23.916"
             id="path77" /><path
             transform="matrix(-0.058638,0,0,0.058638,356.32,242.6)"
             d="m 2282,-1371 c 0,0 13.399,20.521 33.715,23.635"
             id="path78" /></g><path
           transform="matrix(-0.058638,0,0,0.058638,356.32,242.6)"
           d="m 2331.3,-1384.3 -23.555,53.979 c -7.103,16.271 -66.037,-9.445 -58.936,-25.719 l 28.815,-66.031 c 7.103,-16.275 26.053,-23.711 42.328,-16.609"
           fill="#bfbebe"
           stroke-width="4.2523"
           id="path79" /><path
           transform="matrix(-0.058638,0,0,0.058638,356.32,242.6)"
           d="m 2536.9,-1259.8 c 0,0 -92.353,6.668 -212.35,-1.332"
           fill="none"
           stroke-width="2.9228"
           id="path80" /><g
           stroke-width="0.20616"
           id="g84"><path
             d="m 218.07,144.51 c 0,0 0.59826,2.0892 0,3.501 0,0 1.9228,-0.62444 2.4076,-2.7253 0,0 4.081,1.4269 3.2693,6.7023 2.1934,-2.1485 6.7746,-16.547 -8.8287,-19.165 0,0 -12.453,-2.0346 -13.55,11.781 -4e-5,0 8.0322,-2.079 16.702,-0.0945 z"
             fill="#ffffff"
             id="path81" /><path
             d="m 203.32,138.06 c 0,0 -2.6906,1.2362 -2.6906,7.49 0,0 1.8907,-1.4544 4.3918,-1.5842"
             fill="#ffffff"
             id="path82" /><path
             d="m 219.81,146.69 c -0.0463,-1.767 0.59074,-3.1054 2.2525,-3.1484 1.6618,-0.0438 3.0252,0.53921 3.0714,2.3062 0.0459,1.7666 -0.87994,4.0638 -2.5422,4.1069 -1.9618,0.25007 -2.5445,-0.82641 -2.6452,-1.4999"
             fill="#efcfac"
             id="path83" /><path
             d="m 219.4,142.25 c 1.8878,-0.84149 1.9235,-2.3699 1.9235,-2.3699 l 2.5093,2.1101 c 2.6179,-12.101 -13.162,-13.526 -15.542,-8.3495 0,0 -6.7097,-0.8857 -7.655,6.3134 0,0 2.9087,-1.818 4.5812,-1.1635"
             fill="#ffffff"
             id="path84" /></g></g><g
         id="g4138_12_"
         transform="matrix(-0.058371,0.0055898,0.0055898,0.058371,316.28,259.17)"><path
           d="m 1728.6,-1791.9 c -16.711,-1.98 -27.006,-5.814 -48.887,0.656 -11.63,7.541 -10.58,14.918 -19.813,23.041 -5.761,0.34 -11.021,0.686 -17.177,0.971 -4.859,0.229 -5.062,5.453 -4.726,10.951 l -0.092,0.01 c 0.065,0.34 0.118,0.703 0.166,1.076 0.082,1.16 0.173,2.32 0.239,3.436 0.038,1.119 0.052,2.281 0.077,3.445 -0.015,0.373 -0.032,0.74 -0.067,1.082 h 0.092 c 0.17,5.512 0.854,10.693 5.714,10.475 6.156,-0.279 11.421,-0.418 17.193,-0.609 9.94,7.238 9.572,14.686 21.842,21.127 22.387,4.428 32.281,-0.336 48.74,-3.842 22.032,-3.02 22.543,3.912 63.422,0.49 8.583,-0.311 17.22,-8.322 16.619,-17.113 l -0.765,-16.617 -0.585,-12.75 -0.766,-16.621 c -0.21,-8.809 -9.547,-15.99 -18.122,-15.514 -41.017,0.345 -40.891,7.294 -63.104,6.31 z"
           fill="#99fff0"
           id="path85" /><g
           opacity="0.8"
           id="g87"><path
             d="m 1746.2,-1793.1 c -1.089,0.215 -2.185,0.402 -3.306,0.576 0,0 -0.324,25.557 -9.845,42.795 -11.636,21.066 13.15,29.01 13.15,29.01 1.131,0.066 2.238,0.158 3.345,0.268 7.239,0.715 14.451,2.148 29.266,1.811 l -3.632,-78.949 c -14.783,1.023 -21.833,3.112 -28.978,4.489 z"
             enable-background="new    "
             fill="#ff00ff"
             id="path86" /><path
             d="m 1776.6,-1797.7 c -0.458,0.027 -0.927,0.055 -1.372,0.082 l 3.632,78.949 c 0.445,-0.014 0.916,-0.025 1.374,-0.043 4.343,-0.129 9.287,-0.396 15.067,-0.881 8.583,-0.311 17.22,-8.322 16.619,-17.113 l -0.765,-16.617 -0.585,-12.75 -0.766,-16.621 c -0.21,-8.809 -9.547,-15.99 -18.122,-15.514 -5.799,0.051 -10.746,0.239 -15.082,0.508 z"
             enable-background="new    "
             fill="#ff0000"
             id="path87" /></g><g
           id="g4051_31_"
           transform="translate(1.1866,-0.51496)"
           fill="none"
           stroke="#231f20"
           stroke-linecap="round"
           stroke-linejoin="round"
           stroke-miterlimit="10"
           stroke-width="4.2523"><path
             id="path3346-5-5_31_"
             d="m 1636.7,-1755.8 c 1.318,6.576 -1.502,19.861 6.221,19.512 6.156,-0.279 11.421,-0.418 17.193,-0.609 9.94,7.238 9.572,14.686 21.842,21.127 22.387,4.428 32.281,-0.336 48.74,-3.842 22.032,-3.02 22.543,3.912 63.422,0.49 8.583,-0.311 17.22,-8.322 16.619,-17.113 l -1.35,-29.367" /><path
             id="path4049_31_"
             d="m 1637.1,-1746.7 c 0.71,-6.66 -3.319,-19.633 4.402,-19.998 6.156,-0.285 11.416,-0.631 17.177,-0.971 9.233,-8.123 8.184,-15.5 19.813,-23.041 21.881,-6.471 32.176,-2.637 48.887,-0.656 22.214,0.984 22.088,-5.965 63.105,-6.311 8.575,-0.477 17.912,6.705 18.122,15.514 l 1.351,29.371" /></g><path
           d="m 1714,-1779 c 4.461,-0.189 8.23,3.271 8.42,7.73 0.191,4.461 -3.269,8.23 -7.731,8.424 l -18.974,0.809 c -4.461,0.189 -8.231,-3.271 -8.423,-7.73 -0.19,-4.463 3.273,-8.23 7.733,-8.422 z"
           fill="#ffffff"
           id="path88" /><path
           d="m 1648.9,-1771.2 h -17.666 c -3.646,0 -6.601,8.869 -6.601,19.811 0,10.942 2.955,19.811 6.601,19.811 h 17.666 c 3.646,0 6.601,-8.869 6.601,-19.811 0,-10.942 -2.956,-19.811 -6.601,-19.811 z"
           fill="#99fff0"
           stroke="#231f20"
           stroke-miterlimit="10"
           stroke-width="4.252"
           id="path89" /><ellipse
           cx="1630.3"
           cy="-1751.4"
           rx="5"
           ry="15.008"
           fill="#99fff0"
           stroke="#231f20"
           stroke-miterlimit="10"
           stroke-width="2"
           id="ellipse89" /></g><g
         transform="matrix(-0.058371,0.0055898,0.0055898,0.058371,316.59,259.32)"
         id="g92"><path
           d="m 1752.9,-1764.5 c 12.813,3.725 21.793,-5.953 21.858,-15.85 15.433,-3.74 5.994,-25.865 5.994,-25.865 -5.054,-17.443 -23.055,-27.807 -40.804,-24.459 0,0 -35.491,3.758 -33.412,32.961 10.958,1.359 17.134,0.025 18.021,10.916 0,0 1.189,33.121 28.343,22.297 z"
           fill="#efcfac"
           stroke="#231f20"
           stroke-linecap="round"
           stroke-linejoin="round"
           stroke-miterlimit="10"
           stroke-width="4.2523"
           id="path90" /><path
           d="m 1772.8,-1776.9 c 0,0 -0.142,-1.356 -0.413,-3.423 -0.269,-2.059 -0.658,-4.804 -1.146,-7.531 -0.484,-2.728 -1.07,-5.437 -1.657,-7.429 -0.142,-0.5 -0.281,-0.956 -0.429,-1.35 -0.146,-0.396 -0.249,-0.755 -0.382,-1.025 -0.247,-0.559 -0.388,-0.877 -0.388,-0.877 0,0 0.201,0.286 0.554,0.788 0.189,0.247 0.358,0.576 0.583,0.943 0.228,0.367 0.456,0.794 0.696,1.264 0.983,1.874 2.107,4.465 3.132,7.091 1.029,2.625 1.962,5.283 2.641,7.287 0.677,1.997 1.101,3.363 1.101,3.363 v 0.016 c 0.361,1.162 -0.289,2.396 -1.451,2.758 -1.162,0.362 -2.396,-0.289 -2.758,-1.451 -0.043,-0.137 -0.073,-0.286 -0.088,-0.424 z"
           fill="#231f20"
           id="path91" /><path
           d="m 1750.9,-1761.4 c 0,0 0.012,-0.695 -0.014,-1.832 -10e-4,-1.14 -0.089,-2.817 -0.174,-4.825 -0.054,-1.004 -0.147,-2.092 -0.226,-3.244 -0.083,-1.152 -0.161,-2.369 -0.308,-3.623 -0.132,-1.256 -0.268,-2.555 -0.406,-3.874 -0.117,-1.324 -0.352,-2.651 -0.525,-3.99 -0.188,-1.339 -0.375,-2.677 -0.561,-3.994 -0.231,-1.31 -0.46,-2.599 -0.681,-3.847 -0.225,-1.249 -0.442,-2.457 -0.648,-3.602 -0.185,-1.152 -0.467,-2.214 -0.678,-3.208 -0.892,-3.972 -1.486,-6.619 -1.486,-6.619 0,0 0.859,2.577 2.148,6.442 0.311,0.971 0.702,2.01 1.002,3.139 0.322,1.124 0.662,2.31 1.014,3.536 0.349,1.23 0.709,2.501 1.075,3.792 0.32,1.304 0.644,2.628 0.969,3.952 0.31,1.329 0.684,2.647 0.936,3.968 0.274,1.317 0.544,2.614 0.806,3.869 0.277,1.254 0.481,2.478 0.684,3.639 0.199,1.161 0.406,2.256 0.563,3.274 0.296,2.042 0.558,3.736 0.685,4.967 0.151,1.229 0.205,1.889 0.205,1.889 l 0.01,0.05 c 0.099,1.209 -0.8,2.27 -2.009,2.369 -1.208,0.099 -2.269,-0.8 -2.368,-2.009 -0.01,-0.072 -0.01,-0.147 -0.01,-0.219 z"
           fill="#231f20"
           id="path92" /></g><g
         transform="matrix(-0.061365,0.010144,0.010144,0.061365,328.96,257.15)"
         id="g96"><path
           d="m 1609,-1755.1 -135.23,12.76 1.034,10.951 135.19,-13.189 c 2.905,-0.275 5.038,-2.854 4.764,-5.758 -0.274,-2.905 -2.852,-5.04 -5.757,-4.764 z"
           fill="#c98441"
           stroke="#231f20"
           stroke-linecap="round"
           stroke-linejoin="round"
           stroke-miterlimit="10"
           stroke-width="4.2523"
           id="path93" /><path
           d="m 1498.5,-1711.5 c -10.171,8.637 -22.324,3.477 -26.429,-5.525 -15.612,2.893 -16.046,-21.156 -16.046,-21.156 -2.519,-17.982 12.763,-30.656 27.737,-33.719 36.49,-7.459 48.579,26.172 31.485,28.465 10e-4,0 12.459,30.713 -16.747,31.935 z"
           fill="#efcfac"
           stroke="#231f20"
           stroke-linecap="round"
           stroke-linejoin="round"
           stroke-miterlimit="10"
           stroke-width="4.2523"
           id="path94" /><path
           d="m 1469.9,-1716.5 c 0,0 -0.172,-1.42 -0.371,-3.52 -0.201,-2.106 -0.436,-4.914 -0.57,-7.73 -0.139,-2.814 -0.172,-5.639 -0.041,-7.751 0.027,-0.528 0.062,-1.011 0.119,-1.438 0.055,-0.427 0.074,-0.797 0.146,-1.1 0.116,-0.602 0.183,-0.945 0.183,-0.945 v 0.959 c -0.011,0.301 0.042,0.672 0.07,1.092 0.026,0.42 0.086,0.893 0.161,1.407 0.278,2.058 0.852,4.771 1.525,7.458 0.669,2.688 1.436,5.354 2.032,7.342 0.598,1.996 1.023,3.292 1.023,3.293 0.379,1.156 -0.251,2.4 -1.407,2.78 -1.156,0.379 -2.401,-0.251 -2.78,-1.407 -0.045,-0.137 -0.075,-0.273 -0.093,-0.411 z"
           fill="#231f20"
           id="path95" /><path
           d="m 1496.4,-1710.7 c 0,0 -0.22,-0.625 -0.584,-1.809 -0.387,-1.175 -0.842,-2.827 -1.406,-4.812 -0.272,-0.993 -0.532,-2.077 -0.825,-3.219 -0.289,-1.142 -0.604,-2.342 -0.863,-3.6 -0.274,-1.252 -0.559,-2.546 -0.847,-3.86 -0.31,-1.308 -0.508,-2.664 -0.768,-4.003 -0.246,-1.341 -0.491,-2.683 -0.732,-4.003 -0.194,-1.328 -0.385,-2.635 -0.569,-3.899 -0.181,-1.263 -0.355,-2.483 -0.521,-3.642 -0.188,-1.152 -0.255,-2.261 -0.369,-3.274 -0.403,-4.054 -0.673,-6.757 -0.673,-6.757 0,0 0.54,2.659 1.35,6.647 0.214,0.993 0.39,2.078 0.692,3.205 0.281,1.129 0.576,2.319 0.882,3.552 0.308,1.229 0.627,2.498 0.95,3.789 0.37,1.277 0.746,2.575 1.122,3.873 0.39,1.292 0.717,2.601 1.152,3.856 0.414,1.26 0.82,2.501 1.214,3.701 0.378,1.204 0.805,2.347 1.2,3.432 0.399,1.084 0.758,2.115 1.121,3.053 0.743,1.867 1.349,3.434 1.814,4.474 0.44,1.049 0.735,1.678 0.735,1.678 0.516,1.098 0.044,2.406 -1.054,2.921 -1.098,0.516 -2.406,0.044 -2.921,-1.054 -0.03,-0.066 -0.058,-0.133 -0.082,-0.2 z"
           fill="#231f20"
           id="path96" /></g><g
         transform="matrix(-0.058638,0,0,0.058638,306.96,267.05)"
         id="g101"><path
           d="m 1420.4,-1561.7 c 0,13.807 -11.193,25 -25,25 h -32 c -13.808,0 -25,-11.193 -25,-25 v -53.145 c 0,-13.807 11.192,-25 25,-25 h 32 c 13.807,0 25,11.193 25,25 z"
           enable-background="new    "
           fill="#00ff00"
           stroke="#231f20"
           stroke-linecap="round"
           stroke-linejoin="round"
           stroke-miterlimit="10"
           stroke-width="2"
           id="path97" /><path
           d="m 1410.9,-1566.3 c 0,12.93 -11.193,23.41 -25,23.41 h -15.66 c -13.808,0 -25,-10.48 -25,-23.41 v -38.201 c 0,-12.93 11.192,-23.41 25,-23.41 h 15.66 c 13.807,0 25,10.48 25,23.41 z"
           fill="#ffffff"
           opacity="0.5"
           id="path98" /><polygon
           points="1290,-1530.5 1265.3,-1619.1 1329.7,-1651.6 1333.2,-1638.9 1309,-1615.6 1339.2,-1621.2 1358.1,-1549.5 "
           enable-background="new    "
           fill="#ffff00"
           stroke="#231f20"
           stroke-linecap="round"
           stroke-linejoin="round"
           stroke-miterlimit="10"
           stroke-width="2"
           id="polygon98" /><circle
           cx="1313.5"
           cy="-1577.9"
           r="23.784"
           fill="#ffffff"
           id="circle98" /><path
           d="m 1395.4,-1534.1 c 0,11.529 -21.49,20.877 -48,20.877 -26.51,0 -48,-9.348 -48,-20.877 0,-11.531 -4.51,-50.221 22,-50.221 26.51,0 74,38.69 74,50.221 z"
           enable-background="new    "
           fill="#ff00ff"
           stroke="#231f20"
           stroke-linecap="round"
           stroke-linejoin="round"
           stroke-miterlimit="10"
           stroke-width="2"
           id="path99" /><path
           d="m 1338.4,-1553.3 c 0,6.074 -4.925,11 -11,11 -6.075,0 -11,-4.926 -11,-11 0,-6.076 4.925,-11 11,-11 6.076,0 11,4.924 11,11 z"
           fill="#ffffff"
           opacity="0.5"
           id="path100" /><path
           d="m 1360.9,-1536.2 c 0,2.729 -2.212,4.941 -4.94,4.941 -2.729,0 -4.941,-2.213 -4.941,-4.941 0,-2.729 2.212,-4.941 4.941,-4.941 2.728,-10e-4 4.94,2.212 4.94,4.941 z"
           fill="#ffffff"
           opacity="0.5"
           id="path101" /></g><g
         transform="matrix(0.049584,-0.0013886,0.0013886,0.049584,44.551,309.51)"
         stroke-width="0"
         id="g107"><g
           fill="#666666"
           opacity="0.1"
           id="g102"><path
             d="m 3477.1,-3171.4 c -8.951,-0.352 -16.518,6.644 -16.871,15.595 l -2.238,56.95 c -0.35,8.951 6.646,16.519 15.596,16.871 l 101.46,3.987 c 8.951,0.353 16.518,-6.644 16.871,-15.594 l 2.238,-56.95 c 0.352,-8.951 -6.645,-16.519 -15.596,-16.871 z"
             fill="#666666"
             stroke-width="0"
             id="path102" /></g><circle
           cx="3490.8"
           cy="-3143.8"
           r="12.032"
           fill="#ffffff"
           opacity="0.3"
           id="circle102" /><g
           fill="#666666"
           opacity="0.1"
           id="g103"><path
             d="m 3298.7,-3178.4 c -8.951,-0.353 -16.518,6.643 -16.871,15.594 l -2.238,56.95 c -0.352,8.951 6.645,16.52 15.596,16.872 l 101.46,3.987 c 8.951,0.351 16.52,-6.643 16.869,-15.594 l 2.242,-56.951 c 0.35,-8.951 -6.646,-16.52 -15.598,-16.871 z"
             fill="#666666"
             stroke-width="0"
             id="path103" /></g><path
           d="m 3300.4,-3151.5 c -0.354,6.636 4.738,12.302 11.373,12.657 6.635,0.354 12.301,-4.737 12.658,-11.372 0.354,-6.637 -4.738,-12.304 -11.375,-12.658 -6.633,-0.354 -12.301,4.738 -12.656,11.373 z"
           fill="#ffffff"
           opacity="0.3"
           id="path104" /><g
           fill="#666666"
           id="g106"><path
             d="m 3575.7,-3068.4 c -0.341,0 -0.684,-0.01 -1.026,-0.02 l -101.46,-3.988 c -14.229,-0.559 -25.354,-12.592 -24.797,-26.824 l 1.759,-44.663 -25.352,-0.996 -1.755,44.662 c -0.548,13.915 -11.88,24.815 -25.797,24.815 -0.341,0 -0.684,-0.01 -1.027,-0.02 l -101.46,-3.987 c -14.231,-0.56 -25.354,-12.593 -24.795,-26.824 l 2.24,-56.951 c 0.546,-13.915 11.877,-24.814 25.796,-24.814 0.341,0 0.685,0.01 1.028,0.02 l 101.46,3.987 c 13.309,0.523 23.909,11.012 24.731,24.162 l 25.687,1.01 c 1.803,-12.542 12.744,-22.167 25.526,-22.167 0.34,0 0.682,0.01 1.024,0.02 l 101.46,3.988 c 14.231,0.56 25.354,12.593 24.795,26.824 l -2.238,56.952 c -0.547,13.914 -11.879,24.814 -25.797,24.814 z m -99.237,-101.55 c -7.965,0 -14.451,6.239 -14.766,14.204 l -2.238,56.95 c -0.317,8.145 6.049,15.033 14.193,15.353 l 101.46,3.987 c 0.197,0.01 0.394,0.012 0.59,0.012 7.964,0 14.449,-6.239 14.764,-14.203 l 2.238,-56.95 c 0.319,-8.146 -6.047,-15.033 -14.193,-15.353 l -101.46,-3.988 c -0.198,-0.01 -0.393,-0.012 -0.588,-0.012 z m -178.43,-7.013 c -7.964,0 -14.449,6.239 -14.764,14.203 l -2.238,56.95 c -0.319,8.146 6.047,15.034 14.193,15.354 l 101.46,3.987 c 0.196,0.01 0.392,0.012 0.587,0.012 7.968,0 14.453,-6.238 14.765,-14.203 l 2.242,-56.951 c 0.318,-8.146 -6.05,-15.033 -14.195,-15.353 l -101.46,-3.987 c -0.197,-0.01 -0.394,-0.012 -0.59,-0.012 z"
             id="path105" /><path
             d="m 3298,-3186.6 c 0.321,0 0.646,0.01 0.971,0.019 l 101.46,3.987 c 13.045,0.513 23.285,11.248 23.379,24.168 0.176,-0.011 0.348,-0.038 0.527,-0.038 h 0.064 l 27.207,1.07 c 0.203,0.01 0.391,0.055 0.588,0.083 1.078,-12.555 11.617,-22.279 24.236,-22.278 0.32,0 0.644,0.01 0.967,0.019 l 101.46,3.988 c 13.428,0.528 23.92,11.881 23.393,25.306 l -2.238,56.951 c -0.517,13.102 -11.338,23.411 -24.338,23.411 -0.321,0 -0.645,-0.01 -0.969,-0.019 l -101.46,-3.988 c -13.428,-0.527 -23.92,-11.88 -23.395,-25.306 l 1.818,-46.177 c -0.161,0.01 -0.318,0.034 -0.48,0.034 h -0.057 l -27.207,-1.069 c -0.182,-0.01 -0.35,-0.052 -0.527,-0.075 l -1.814,46.177 c -0.517,13.102 -11.338,23.411 -24.336,23.411 -0.322,0 -0.646,-0.01 -0.971,-0.019 l -101.46,-3.987 c -13.426,-0.528 -23.92,-11.88 -23.393,-25.306 l 2.24,-56.951 c 0.516,-13.101 11.336,-23.411 24.337,-23.411 m 99.236,101.55 c 8.667,0 15.883,-6.872 16.225,-15.607 l 2.242,-56.951 c 0.35,-8.951 -6.646,-16.52 -15.598,-16.871 l -101.46,-3.987 c -0.217,-0.01 -0.432,-0.013 -0.647,-0.013 -8.665,0 -15.879,6.873 -16.224,15.607 l -2.238,56.95 c -0.352,8.951 6.645,16.52 15.596,16.872 l 101.46,3.987 c 0.217,0.01 0.43,0.013 0.644,0.013 m 178.43,7.013 c 8.665,0 15.879,-6.873 16.224,-15.607 l 2.238,-56.95 c 0.352,-8.951 -6.645,-16.519 -15.596,-16.871 l -101.46,-3.988 c -0.217,-0.01 -0.432,-0.013 -0.646,-0.013 -8.666,0 -15.879,6.873 -16.225,15.608 l -2.238,56.95 c -0.35,8.951 6.646,16.519 15.596,16.871 l 101.46,3.987 c 0.216,0.01 0.431,0.013 0.647,0.013 m -277.66,-111.49 c -14.707,0 -26.679,11.517 -27.257,26.219 l -2.24,56.951 c -0.591,15.037 11.162,27.75 26.198,28.341 l 101.46,3.987 c 0.363,0.014 0.726,0.021 1.086,0.021 14.704,0 26.677,-11.517 27.256,-26.218 l 1.698,-43.203 22.431,0.881 -1.701,43.203 c -0.589,15.037 11.164,27.751 26.199,28.341 l 101.46,3.988 c 0.363,0.014 0.725,0.021 1.084,0.021 14.705,0 26.679,-11.517 27.258,-26.218 l 2.238,-56.952 c 0.592,-15.037 -11.161,-27.75 -26.197,-28.341 l -101.46,-3.988 c -0.361,-0.014 -0.723,-0.021 -1.082,-0.021 -13.061,0 -24.301,9.508 -26.752,22.117 l -23.116,-0.909 c -1.471,-13.271 -12.403,-23.677 -26.019,-24.212 l -101.46,-3.987 c -0.363,-0.014 -0.727,-0.021 -1.086,-0.021 z m 99.236,101.55 c -0.176,0 -0.352,0 -0.529,-0.01 l -101.46,-3.987 c -7.342,-0.289 -13.079,-6.496 -12.79,-13.836 l 2.238,-56.95 c 0.283,-7.176 6.126,-12.799 13.303,-12.799 0.177,0 0.354,0 0.532,0.01 l 101.46,3.987 c 7.341,0.289 13.079,6.496 12.793,13.836 l -2.242,56.95 c -0.281,7.178 -6.125,12.799 -13.305,12.799 z m 178.43,7.014 c -0.177,0 -0.354,0 -0.532,-0.01 l -101.46,-3.987 c -7.34,-0.289 -13.077,-6.496 -12.791,-13.836 l 2.238,-56.95 c 0.284,-7.177 6.129,-12.799 13.306,-12.8 0.177,0 0.353,0 0.53,0.01 l 101.46,3.988 c 7.342,0.289 13.078,6.496 12.791,13.836 l -2.238,56.95 c -0.284,7.177 -6.127,12.799 -13.304,12.799 z"
             id="path106" /></g></g><path
         d="m 218.31,143.86 c -0.009,0.11723 0.28167,3.3169 -2.9907,3.6078 0,0 -3.5013,-5.0739 -8.3626,-4.2177"
         fill="#ffffff"
         stroke="#231f20"
         stroke-linecap="round"
         stroke-linejoin="round"
         stroke-miterlimit="10"
         stroke-width="0.20616"
         id="path107" /><path
         d="m 214.57,156.66 c -0.48989,0.65983 -6.6216,0.4956 -7.4274,-0.49034"
         fill="none"
         stroke="#231f20"
         stroke-linecap="round"
         stroke-linejoin="round"
         stroke-miterlimit="10"
         stroke-width="0.19345"
         id="path108" /></g><g
       fill="#ffeaea"
       stroke="#000000"
       stroke-linecap="round"
       id="g283"><circle
         cx="295.51999"
         cy="112.32"
         r="1.1889"
         stroke-width="0.14919"
         id="circle282" /><circle
         cx="293.89001"
         cy="109.37"
         r="1.5937999"
         stroke-width="0.2"
         id="circle283" /><path
         d="m 287.18,100.14 c 4.0878,-2.2129 7.7805,-0.47227 7.9184,3.8027 v 1.3789 c 0,2.7582 -2.2649,4.0221 -4.9786,4.9787 l -3.1414,1.1073 -2.5715,-1.1073 c -2.5333,-1.0908 -4.9786,-2.2205 -4.9786,-4.9787 v -1.3789 c 1.1107,-4.8554 3.9505,-5.4146 7.7518,-3.8027 z"
         stroke-width="0.2"
         id="path283" /></g><g
       transform="matrix(-0.44491,0,0,0.44491,324.4,46.12)"
       id="g290"><g
         transform="matrix(0.084621,0,0,0.084621,343.87,-149.62)"
         stroke-width="6.5076"
         id="g284"><path
           d="m -3149.6,3321.1 c -21.791,13.454 -35.98,42.319 -24.123,66.798 7.8889,13.488 18.42,35.709 35.348,35.514 2.8343,-11.628 0.5325,-26.852 11.958,-37.132 4.5032,-6.9167 9.2709,-15.633 5.387,-23.938"
           fill="#cccccc"
           stroke="#231f20"
           stroke-linecap="round"
           stroke-linejoin="round"
           stroke-miterlimit="10"
           stroke-width="6.5076"
           id="path284" /></g><g
         fill="#cccccc"
         stroke="#231f20"
         stroke-linecap="round"
         stroke-linejoin="round"
         stroke-miterlimit="10"
         stroke-width="0.55068"
         id="g287"><path
           d="m 83.543,127.45 c 2.6521,-2.6084 6.919,-2.6783 10.093,-1.039 0.8138,0.0631 2.0379,1.4536 0.52533,1.3097 -1.4442,-0.11188 -3.3648,0.33001 -3.6752,1.9924 -0.12448,0.58148 -0.07466,1.1851 0.03911,1.7639"
           id="path285" /><path
           d="m 86.059,126.72 c -4.1707,-1.6652 -8.9365,-2.3301 -13.297,-1.0198 -1.6047,0.20429 -2.2423,1.8001 -3.5658,2.3016 -1.9837,0.44998 -1.1199,2.6419 0.52423,2.7964 2.3593,0.81543 4.451,2.1776 6.5524,3.4889 3.2397,1.8236 6.5975,3.4798 10.094,4.7451 3.1905,0.97626 6.4128,2.7958 7.8782,5.9381 0.67701,0.72887 0.47625,2.696 1.6875,2.4942 1.3247,-0.77047 1.2855,-2.5847 1.3461,-3.9407 -0.17838,-7.0632 -4.4026,-14.307 -11.22,-16.804 z"
           id="path286" /><path
           d="m 78.379,133.75 c -0.39291,2.2568 0.85493,4.7468 3.0942,5.4693 0.94724,0.18533 3.4442,1.2882 3.4939,-0.18368 -1.826,-0.81017 -0.97632,-3.3672 -2.6387,-4.2755"
           id="path287" /></g><g
         stroke-width="0.55068"
         id="g289"><path
           d="m 68.094,129.74 c 1.5311,0.31137 3.0931,1.3332 4.6576,0.93777 l 0.0515,-0.046"
           fill="none"
           stroke="#231f20"
           stroke-linecap="round"
           stroke-linejoin="round"
           stroke-miterlimit="10"
           id="path288" /><path
           d="m 97.169,145.16 c 1.4749,2.0579 0.58296,4.8862 -1.0526,6.5706 -0.55338,0.69327 -1.1797,1.3642 -1.1401,0.0472 -0.13776,-1.1716 -0.89047,-2.1811 -0.83627,-3.3728 -0.15051,0.18987 -1.6222,-0.0789 -2.1124,-0.10954 0.61996,-1.0788 1.4208,-2.0748 2.4268,-2.8166"
           fill="#cccccc"
           stroke="#231f20"
           stroke-linecap="round"
           stroke-linejoin="round"
           stroke-miterlimit="10"
           id="path289" /><circle
           cx="74.507004"
           cy="128.55"
           r="0.58261001"
           fill="#231f20"
           id="circle289" /></g></g></g></svg>
