<?xml version="1.0" encoding="UTF-8"?>
<!-- Created with Inkscape (http://www.inkscape.org/) -->
<svg width="132.88mm" height="88.901mm" version="1.1" viewBox="0 0 132.88 88.901" xmlns="http://www.w3.org/2000/svg" xmlns:cc="http://creativecommons.org/ns#" xmlns:dc="http://purl.org/dc/elements/1.1/" xmlns:rdf="http://www.w3.org/1999/02/22-rdf-syntax-ns#">
 <metadata>
  <rdf:RDF>
   <cc:Work rdf:about="">
    <dc:format>image/svg+xml</dc:format>
    <dc:type rdf:resource="http://purl.org/dc/dcmitype/StillImage"/>
   </cc:Work>
  </rdf:RDF>
 </metadata>
 <g transform="translate(-38.635 -96.067)">
  <rect x="41.101" y="98.533" width="127.95" height="83.969" ry="7.3912" fill="#ccc" stroke="#333" stroke-width="4.9315"/>
  <path d="m70.267 135.8-11.79 20.208c-2.9741 8.596-2.6583 17.508 4.426 16.171 6.235-1.1751 14.59-2.6752 15.976-2.5492l2.2553 0.20503 1.6402-15.787z" fill="#999"/>
  <path d="m100.6 183.94c-7.3402-0.66856-14.529 1.2562-19.074-0.45213l-3.2744-1.2308 0.42715-10.787c0.0149-6.5172 0.21272-7.8767 1.5018-10.319 2.136-4.0466 5.4594-7.4846 8.8927-9.1992 5.1393-2.5667 6.8181-2.5247 12.563 0.31452 5.0109 2.4765 5.2687 2.5291 12.389 2.5291s7.3781-0.0526 12.389-2.5291c5.7447-2.8392 7.4235-2.8812 12.563-0.31452 3.4333 1.7147 6.7567 5.1526 8.8927 9.1992 1.2896 2.4432 1.487 3.801 1.5018 10.334l-0.80303 9.982-4.1797 1.4942c-17.274 1.9002-29.158 2.3243-43.789 0.97778zm7.8262-36.871c-5.9307-1.6803-11.304-6.3736-13.93-12.166-1.9253-4.2478-1.9178-12.301 0.01545-16.567 1.9549-4.3142 6.2518-8.7158 10.58-10.838 3.0996-1.5197 4.538-1.8113 8.9335-1.8113s5.8339 0.29164 8.9335 1.8113c4.328 2.1219 8.6249 6.5235 10.58 10.838 2.1624 4.7721 1.9967 12.398-0.3746 17.235-2.1017 4.2868-6.5396 8.6455-10.657 10.467-3.7057 1.6392-10.246 2.1185-14.081 1.0319zm9.8106-6.9943c2.1575-0.61877 5.9389-3.6238 5.9389-4.7196 0-0.29279-4.5678-0.53235-10.151-0.53235s-10.151 0.23956-10.151 0.53235c0 1.0068 3.7408 4.1147 5.6348 4.6815 2.6233 0.78501 6.0707 0.80004 8.7276 0.038z" fill="#999" stroke-width=".65488"/>
  <rect x="41.101" y="98.533" width="127.95" height="83.969" ry="7.3912" fill="none" stroke="#666" stroke-width="4.9315"/>
  <g transform="matrix(.072002 .021261 -.021261 .072002 164.93 119.25)">
   <path d="m-812.7 574.27c10.146-64.939 26.602-104.58 4.508-190.93-27.758-46.496-56.703-43.457-87.078-80.682-0.495-22.531-1.084-43.114-1.307-67.185-0.189-19.007-20.554-20.558-42.066-20.037l-0.015-0.36c-1.336 0.211-2.763 0.363-4.227 0.49-4.539 0.153-9.082 0.344-13.446 0.443-4.373-0.018-8.913-0.131-13.459-0.199-1.454-0.109-2.886-0.228-4.217-0.42l-2e-3 0.359c-21.543-0.13-41.868 1.786-41.717 20.791 0.2 24.069-0.02 44.646-0.108 67.2-29.692 37.765-58.711 35.245-85.63 82.208-20.522 86.752-3.358 126.06 7.947 190.82 8.601 86.446-18.532 87.433-11.085 247.5 0 70.591 79.621 86.599 150.75 86.599 71.128 0 156.66-13.825 156.66-89.344 4.583-160.17-22.563-160.68-15.507-247.26z" fill="#99fff0"/>
   <path d="m-812.7 574.27c10.146-64.939 26.602-104.58 4.508-190.93-27.758-46.496-56.703-43.457-87.078-80.682-0.495-22.531-1.084-43.114-1.307-67.185-0.189-19.007-20.554-20.558-42.066-20.037l-0.015-0.36c-1.336 0.211-2.763 0.363-4.227 0.49-4.539 0.153-9.082 0.344-13.446 0.443-4.373-0.018-8.913-0.131-13.459-0.199-1.454-0.109-2.886-0.228-4.217-0.42l-2e-3 0.359c-21.543-0.13-41.868 1.786-41.717 20.791 0.2 24.069-0.02 44.646-0.108 67.2-29.692 37.765-58.711 35.245-85.63 82.208-20.522 86.752-3.358 126.06 7.947 190.82 8.601 86.446-18.532 87.433-11.085 247.5 0 70.591 79.621 86.599 150.75 86.599 71.128 0 156.66-13.825 156.66-89.344 4.583-160.17-22.563-160.68-15.507-247.26z" fill="none" stroke="#231f20" stroke-linecap="round" stroke-linejoin="round" stroke-miterlimit="10" stroke-width="12.376"/>
   <path d="m-837.35 384.08c-31.619-40.601-78.237-43.035-78.971-85.28-20.373 9.702-55.832 10.123-74.706 0.65458 2.5151 40.516-60.303 58.145-82.797 94.813-24.739 48.75-3.483 152.78-3.483 152.78l52.343 112.71h108.31l89.506-114.13c12.203-95.874 1.0072-147.16-10.197-161.55z" enable-background="new    " fill="#0f0"/>
   <path d="m-820.88 756.1c-1.376-49.433-7.243-73.229-10.78-97.233-0.531-3.659-1.026-7.339-1.43-11.102 0 0-73.958-34.182-142.4 11.469-33.215 22.154-91.433-10.369-91.433-10.369-0.383 3.77-0.812 7.455-1.313 11.125-3.287 24.03-8.897 47.884-9.752 97.326 0 0 41.325-12.488 96.159 10.539 79.608 33.442 160.95-11.755 160.95-11.755z" enable-background="new    " fill="#f0f"/>
   <path d="m-975.49 659.24c68.443-45.65 142.4-11.469 142.4-11.469-1.444-13.404-4.1304-27.128-2.4684-47.105 1.9743-18.437 3.2371-36.395 8.4073-55.033 0 0-80.275 45.191-156.94 0.97175-51.458-29.68-93.214 0.448-93.214 0.448 2.896 17.06 6.808 34.067 10.1 53.824 1.872 19.968 1.573 34.592 0.282 47.993 0 1e-3 58.217 32.525 91.433 10.37z" enable-background="new    " fill="#ff0"/>
   <path d="m-820.79 760.69c-0.021-1.521-0.068-3.097-0.091-4.583 0 0-81.342 45.196-160.95 11.755-54.834-23.027-96.159-10.539-96.159-10.539-0.022 1.49-0.028 3.061-0.048 4.594-0.153 14.498 0.073 31.016 0.876 50.343 0 54.962 81.585 67.332 128.85 67.332 52.44 0 127.18-10.913 127.18-68.535 0.168-19.346 0.636-35.867 0.341-50.367z" fill="#f00"/>
   <path d="m-1076.4 555.28c-10.362-43.07-12.239-91.328-7.4717-136.98 55.436 5.3732 64.225 33.398 115.81 36.072 39.382 0.99621 116.22-42.968 144.92-34.174 4.9573 38.72 4.2447 68.492-4.0558 125.44-30.143 18.315-56.931 23.025-87.074 22.018-43.584-0.12238-62.113-21.568-109.48-32.908-20.674-4.5939-33.316 5.2316-52.649 20.538z" fill="#ff7400"/>
   <g stroke="#231f20">
    <path d="m-879.09 260.43-4.673-67.715c0.526-14.221-26.441-28.291-69.154-29.874-42.711-1.583-71.475 9.104-72.002 23.327l-8.838 68.531c-0.53 14.24 33.667 27.057 76.377 28.633 42.711 1.59 77.761-8.662 78.29-22.902z" fill="#99fff0" stroke-miterlimit="10" stroke-width="12.375"/>
    <path d="m-879.33 233.13 0.578-69.009c0.117-14.232-34.43-26.07-77.171-26.425-42.738-0.36-77.477 10.896-77.6 25.124l-0.578 69.01c-0.121 14.25 34.428 26.083 77.165 26.434 42.743 0.367 77.485-10.887 77.606-25.134z" fill="#2479b3" stroke-miterlimit="10" stroke-width="12.375"/>
    <ellipse cx="-956.92" cy="159.66" rx="76.77" ry="24.052" fill="#3f9ad8" stroke-width="10.314"/>
   </g>
   <path d="m-913.02 379.91c3.848-13.089 5.3951-18.838 31.111-15.29 52.269 36.18 45.525 62.941 44.729 108.83-2.0682 18.178-42.622 14.441-43.146 4.266 5.7632-43.652 2.2307-75.153-32.694-97.806z" fill="#fff"/>
  </g>
  <g>
   <path d="m69.794 123.3c-2.397 11.679-2.397 11.841-2.397 11.841s7.7903 10.057 10.187 3.082 3.5955 0.81106 2.397-6.9751c-1.1985-7.7862 7.99-7.2995-1.1985-7.624-9.1885-0.32442-8.9888-0.32442-8.9888-0.32442z" fill="#999"/>
   <g transform="matrix(.19454 .058899 -.056417 .18634 -31.482 87.224)" aria-label="Ani Himawati 18/15/2017  235g ">
    <path d="m589.29 138.36c13.429 0.88905-6.7174 16.692-0.28494 2.1394zm0.89844 4.7656c5.436-1.8197-3.3231-5.6467 0 0z"/>
    <path d="m595.59 139.99c6.4923-4.2062 4.7595 12.129 2.34 1.1979-1.6596 7.4234-5.1681 3.0511-2.4591-1.0973z"/>
    <path d="m602.93 140.31c3.3627 8.9628-6.1902 4.5239 0 0zm-1.1719-2.3242c5.4281-1.688-1.5745 5.1653 0 0z"/>
    <path d="m609.99 136.77c1.301 4.4948 8.5592 0.99472 3.2548 8.7159-4.9319 0.94111-5.1642-2.5551-3.2548-8.7159z"/>
    <path d="m616.99 140.31c3.3627 8.9628-6.1902 4.5239 0 0zm-1.1719-2.3242c5.4281-1.688-1.5745 5.1653 0 0z"/>
    <path d="m619.4 140.04c5.5866-4.211 8.4317 9.8305 3.6345 2.2226-0.83231 3.6664-3.9079 0.919-4.4819 2.8085-0.63878-1.5376-1.2171-4.1612 0.84741-5.0312z"/>
    <path d="m626.43 140.92c9.206-5.4605-1.9943 13.803 3.0888 0.86893l-0.49963-0.46618zm2.6237 3.099c-5.3288-0.62205 2.4995 3.9332 0 0z"/>
    <path d="m632.2 140.04c0.33874 5.5182 5.1374 2.7537 6.6754 1.3919 0.94986 8.7922-11.489 5.5858-6.6754-1.3919z"/>
    <path d="m639.42 140.92c9.206-5.4605-1.9943 13.803 3.0888 0.86892l-0.49965-0.46618zm2.6237 3.099c-5.3288-0.62206 2.4995 3.9332 0 0z"/>
    <path d="m645.52 137.74c6.6871 12.581-6.0207 10.782 0 0z"/>
    <path d="m651.47 140.31c3.3624 8.9632-6.1903 4.5235 0 0zm-1.1719-2.3242c5.4281-1.688-1.5745 5.1653 0 0z"/>
    <path d="m591.17 154.32c6.3 7.2789-4.9041 11.827 0 0z"/>
    <path d="m598.17 154.23c9.8391 17.452-15.377 4.9982 0 0zm-2.1029 1.1849c-2.5738 6.5828 6.7744-0.66702 0 0zm7e-3 4.2643c-4.426 7.3622 8.6371-0.91366 0 0z"/>
    <path d="m605.1 153.48c1.488 8.4575-8.3637 13.691 0 0z"/>
    <path d="m607.78 154.32c6.3 7.2789-4.904 11.827 0 0z"/>
    <path d="m617.19 154.49c-10.086 0.97203 3.4662 7.2402-4.139 8.1448-0.35426-1.988-7.4144-9.713 1.9935-9.3588z"/>
    <path d="m621.64 153.48c1.4881 8.4577-8.364 13.69 0 0z"/>
    <path d="m622.84 156.67c6.9038-9.3959 5.4787 7.9434 5.4082 5.5472-5.9404 2.3653-3.7886-1.885-1.0803-5.5082-1.2719-1.0838-3.5115 1.5359-4.3279-0.0389z"/>
    <path d="m634.7 153.87c11.596 4.3618-9.2586 16.229-4.0612 2.0872 0.61649-1.5083 2.3851-2.7635 4.0612-2.0872zm-0.7552 2.0833c-9.5052 8.2969 11.339 6.9184 0 0z"/>
    <path d="m640.21 154.32c6.3 7.279-4.9041 11.827 0 0z"/>
    <path d="m644.02 153.74c10.85-2.4094-2.3774 16.241 2.4653 2.8729-3.0548 2.7133-6.7445-1.2057-2.4653-2.8729z"/>
    <path d="m598.92 171.76c8.7739-13.976 9.1884 10.887 8.2343 7.6284 2.0302 6.5227-15.045-0.30645-2.9698-4.0553 5.8277-4.8297-4.9965-3.0416-5.2644-3.5731z"/>
    <path d="m612.13 168.02c11.554-2.1645 3.986 21.418-0.294 11.171 8.373-0.73796-1.8501-8.7426-0.138-7.8723-2.7185 0.19891-1.997-3.5634 0.432-3.299z"/>
    <path d="m630.29 168.53c-6.1155 3.4747-11.463 3.5135-1.5036 7.1729 3.4155 4.6131-9.8254 8.9958-2.8787 2.6304-11.559-3.5724-5.0992-16.629 4.3823-9.8032z"/>
    <path d="m638.25 172.08c8.9286 4.2153-4.1927 20.53-3.9742 9.3663-8.481-2.5548-2.135-12.366 3.9742-9.3663zm-1.0002 3.0104c-9.8697-0.31569 5.1121 10.727 0 0z"/>
   </g>
   <g transform="matrix(.078477 -.2592 .25377 .076832 .45729 286.93)" opacity=".9" aria-label="A12X5      ">
    <path d="m590.12 132.09c7.6142-10.719 14.819 22.253 5.372 13.667-3.2509-4.045-10.863 8.757-8.2465-2.4536 0.76503-3.7876 2.3943-7.3622 2.8745-11.214zm1.8349 9.7331c9.0154 1.447-2.088-14.91-0.54852-1.7548z"/>
    <path d="m604.12 130.29c7.7098 1.2557 1.6963 15.593 0.1218 18.29-1.0483-4.7376-2.1388-13.386-1.0822-17.431l0.48652-0.43528z"/>
    <path d="m608.8 135.08c2.2603-16.364 25.874 1.85 8.3945 8.1687-5.509 2.4599 11.17 3.033 1.7084 6.2386-8.9001 2.3787-12.574-7.2767-2.6336-8.1532 4.587-7.8069-1.7324-7.6474-5.9021-4.0784-0.97946-0.17188-1.8273-1.1771-1.5672-2.1757z"/>
    <path d="m628.65 129.6c2.4709 10.596 4.5902-0.69956 8.1761 0.7559-4.4013 6.0502-0.72904 12.935-2.5914 18.933-3.6458-7.9361-4.5174-3.0623-8.5759 0.2577 1.2256-4.8032 2.5941-13.233 2.1228-20.091l0.5167 0.0859z"/>
    <path d="m653.06 130.63c-0.19978 5.9914-18.158 0.751-9.0429 7.2332 11.941-2.1018 7.9434 16.872-0.96806 10.097-0.14647-2.6657 8.2854-3.899 1.9992-6.3551-15.996-0.95379-3.0461-21.118 8.0117-10.975z"/>
   </g>
  </g>
 </g>
</svg>
