<?xml version="1.0" encoding="UTF-8" standalone="no"?>
<svg
   width="88.053mm"
   height="126.77mm"
   version="1.1"
   viewBox="0 0 88.053 126.77"
   id="svg61"
   sodipodi:docname="shanti.svg"
   inkscape:version="1.3.2 (1:1.3.2+202404261509+091e20ef0f)"
   xmlns:inkscape="http://www.inkscape.org/namespaces/inkscape"
   xmlns:sodipodi="http://sodipodi.sourceforge.net/DTD/sodipodi-0.dtd"
   xmlns="http://www.w3.org/2000/svg"
   xmlns:svg="http://www.w3.org/2000/svg"
   xmlns:rdf="http://www.w3.org/1999/02/22-rdf-syntax-ns#"
   xmlns:cc="http://creativecommons.org/ns#"
   xmlns:dc="http://purl.org/dc/elements/1.1/">
  <defs
     id="defs61" />
  <sodipodi:namedview
     id="namedview61"
     pagecolor="#ffffff"
     bordercolor="#000000"
     borderopacity="0.25"
     inkscape:showpageshadow="2"
     inkscape:pageopacity="0.0"
     inkscape:pagecheckerboard="0"
     inkscape:deskcolor="#d1d1d1"
     inkscape:document-units="mm"
     inkscape:zoom="1.7844818"
     inkscape:cx="166.43487"
     inkscape:cy="160.55081"
     inkscape:window-width="1803"
     inkscape:window-height="1125"
     inkscape:window-x="0"
     inkscape:window-y="0"
     inkscape:window-maximized="1"
     inkscape:current-layer="g59" />
  <metadata
     id="metadata1">
    <rdf:RDF>
      <cc:Work
         rdf:about="">
        <dc:format>image/svg+xml</dc:format>
        <dc:type
           rdf:resource="http://purl.org/dc/dcmitype/StillImage" />
      </cc:Work>
    </rdf:RDF>
  </metadata>
  <g
     transform="translate(-51.436 -62.493)"
     id="g61">
    <g
       transform="matrix(.13935 0 0 .13935 93.482 -286.89)"
       id="g60">
      <g
         transform="matrix(-1 0 0 1 16.357 -3.0806)"
         id="g59">
        <ellipse
           cx="13.748"
           cy="3348.7"
           rx="202.18"
           ry="53.475"
           fill="#ccc"
           id="ellipse1"
           style="fill:#000000;fill-opacity:0.23312913" />
        <g
           stroke="#231f20"
           stroke-linecap="round"
           stroke-linejoin="round"
           stroke-miterlimit="10"
           id="g12">
          <g
             stroke-width="4.2523"
             id="g10">
            <path
               d="m94.042 3317.9h-44.756l-1.826 15.588 8.645 1.691c1.829 5.633 7.646 9.756 14.555 9.756h23.383c8.373 0 15.162-6.053 15.162-13.518-1e-3 -7.465-6.79-13.517-15.163-13.517z"
               fill="#ac9d93"
               id="path1" />
            <path
               d="m-23.966 3317.9h-44.756l-1.826 15.588 8.644 1.691c1.83 5.633 7.646 9.756 14.555 9.756h23.383c8.373 0 15.162-6.053 15.162-13.518s-6.789-13.517-15.162-13.517z"
               fill="#ac9d93"
               id="path2" />
            <path
               d="m155.32 3088.9 64.947 16.323s1.2444 32.463-22.989 43.965l-57.388-11.814s-25.574-3.653-22.652-34.343"
               fill="#ddae68"
               id="path3" />
            <path
               d="m157.84 3076c9.451 15.033-44.985 49.26-54.438 34.228l-38.348-60.989c-9.451-15.032-4.928-34.881 10.104-44.332 15.032-9.452 34.881-4.928 44.333 10.104z"
               fill-opacity="0"
               id="path4" />
            <path
               d="m157.84 3076 45.009 10.078s-7.606 48.611-29.597 53.559l-67.456-25.676"
               fill="#2cdd8c"
               id="path5" />
            <path
               d="m149.36 3176.2s0.758 77.785-39.795 142.72c0 0-36.941 6.713-66.793 0l-15.561-39.421-34.571 39.421c-33.672 6.713-67.384 0-67.384 0l-37.466-66.152c-34.476-30.646-23.039-76.563-23.039-76.563z"
               fill="#303030"
               id="path6" />
            <path
               d="m5.292 2895.5s-72.834 70.146-146.78 277.96c-0.383 18.316 93.977 29.215 176.13 27.475 3.186-0.066 10.536-8.758 10.536-8.758s5.302 8.264 8.428 8.117c53.514-2.519 97.742-10.935 100.19-26.834-0.239-36.506-12.732-75.115-30.382-111.56 8.431-16.525-12.224-29.5-22.47-41.234-42.675-70.781-95.661-125.16-95.661-125.16z"
               fill="#fff"
               id="path7" />
            <path
               d="m-16.897 2986.4c0.04-1.24 5.766 9.24 10.651 18.422 3.643 6.847 6.82 12.971 6.82 12.971l11.447-14.126 28.496 11.691 21.19-12.422 13.152 12.422-3.652-29.06"
               fill="none"
               id="path8" />
            <path
               d="m-102.24 3165.7-37.123-5.291 18.769-67.166c3.592-11.772 16.045-18.404 27.819-14.813 11.772 3.591 18.404 16.047 14.813 27.818z"
               fill="#ddae68"
               id="path9" />
            <path
               d="m-37.286 3036.8-29.359 65.336c-6.224 16.63-62.337-3.767-56.115-20.396l25.25-67.475c6.223-16.631 24.749-25.068 41.38-18.845"
               fill="#fff"
               id="path10" />
            <polyline
               points="16.537 2985.7 40.518 3015.4 60.247 2985.7"
               fill="#ddae68"
               id="polyline10" />
          </g>
          <path
             d="m180.43 2882.7s-4.8237 75.488 33.403 84.619c0 0-54.557 38.97-110.23-15.587"
             fill="#231f20"
             stroke-width="3.5948"
             id="path11" />
          <path
             d="m200.44 2787.2c-6.654-125.89-88.2-223.06-210.77-216.22-122.58 6.8324-216.55 114.42-209.9 240.32 5.145 97.301 86.583 145.81 179.9 159.66 19.6 5.8187 23.71 18.522 104.62 16.279 62.347-1.7296 77.194-28.549 92.764-48.203 34.981-29.639 47.253-78.716 43.386-151.83z"
             fill="#ddae68"
             stroke-width="3.5948"
             id="path12" />
        </g>
        <g
           fill="#231f20"
           id="g15">
          <path
             d="m-107.94 2795.4c28.344-98.157 188.47-76.771 234.93-105.77 16.095 3.8642 69.093 58.03 73.221 89.687 25.873-101.93-15.323-211.05-111.08-214.39-294.11-106.57-396.37 231.59-295.05 372.29 13.311 90.887 92.291 85.748 177.03 71.958-15.972-49.3-100.19-140.56-79.052-213.77z"
             stroke="#231f20"
             stroke-linecap="round"
             stroke-linejoin="round"
             stroke-miterlimit="10"
             stroke-width="3.5948"
             id="path13" />
          <path
             d="m-16.685 2813.4c-5.5888 0.1513-10.002 4.8085-9.8469 10.399 0.15386 5.6005 4.8161 10.008 10.402 9.863 5.5972-0.1624 10.009-4.8153 9.8554-10.414-0.15555-5.5947-4.8153-10.004-10.41-9.8478z"
             stroke-width=".84538"
             id="path14" />
          <path
             d="m135.58 2806.6c-5.593 0.153-9.9991 4.8136-9.8469 10.405 0.15047 5.5931 4.8068 10.003 10.401 9.8495 5.5972-0.153 10.004-4.8085 9.852-10.409-0.15216-5.5879-4.8136-9.9991-10.406-9.8453z"
             stroke-width=".84538"
             id="path15" />
        </g>
        <path
           d="m136.32 2909c1.4617 22.838-26.139 43.185-61.659 45.462-35.526 2.275-65.496-14.398-66.96-37.23-1.4625-22.827 27.694-18.953 63.216-21.228 35.522-2.2707 63.943-9.8352 65.403 12.997z"
           fill="#db4826"
           stroke-width=".84538"
           id="path16" />
        <path
           d="m7.7607 2918.1 128.61-8.2381s3.4043-10.09-11.281-14.877c-6.8475-2.0907-66.783 1.9595-101.21 3.9842-12.691 2.6545-16.143 11.504-16.128 19.131z"
           fill="#fff"
           stroke-width=".84538"
           id="path17" />
        <g
           fill="none"
           stroke="#231f20"
           stroke-linecap="round"
           stroke-linejoin="round"
           stroke-miterlimit="10"
           id="g20">
          <path
             d="m136.32 2909c1.4617 22.838-26.139 43.185-61.659 45.462-35.526 2.275-65.496-14.398-66.96-37.23-1.4625-22.827 27.694-18.953 63.216-21.228 35.522-2.2707 63.943-9.8352 65.403 12.997z"
             stroke-width="3.5948"
             id="path18" />
          <path
             d="m40.518 3015.4s11.692 113.02 4.669 176.76"
             stroke-width="4.2523"
             id="path19" />
          <path
             d="m-70.997 3196.4s-0.991 22.057-19.29 27.967"
             stroke-width="2.9228"
             id="path20" />
        </g>
        <path
           d="m-122.76 3081.7-18.552 55.063s4 18.668 59.333 17.334l15.333-52"
           fill="#fff"
           stroke="#231f20"
           stroke-linecap="round"
           stroke-linejoin="round"
           stroke-miterlimit="10"
           stroke-width="4.2523"
           id="path21" />
        <g
           fill="none"
           stroke="#231f20"
           stroke-linecap="round"
           stroke-linejoin="round"
           stroke-miterlimit="10"
           stroke-width="2.9228"
           id="g24">
          <path
             d="m40.518 3310.8s34.747 3.409 73.88 0"
             id="path22" />
          <path
             d="m-80.951 3307.9s35.127 5.752 80.731 2.829"
             id="path23" />
          <path
             d="m123.1 3192.8s-0.755 16.607 15.808 23.914"
             id="path24" />
        </g>
        <path
           d="m-101.12 3163.3c19.02 18.367 11.067 40.506-9.005 45.855-1.053 10.792-10.765 17.767-22.393 14.288-15.601 2.472-22.682-7.457-26.417-27.259-5.331-20.818 23.241-48.918 23.241-48.918"
           fill="#ddae68"
           stroke="#231f20"
           stroke-linecap="round"
           stroke-linejoin="round"
           stroke-miterlimit="10"
           stroke-width="4.2523"
           id="path25" />
        <path
           d="m-112.24 3209.3s0.031-6.376 0.175-12.741c0.074-3.185 0.158-6.367 0.303-8.757 0.032-0.597 0.062-1.143 0.088-1.627 0.049-0.484 0.092-0.907 0.127-1.255 0.07-0.691 0.111-1.086 0.111-1.086s0.026 0.397 0.072 1.092c0.022 0.346 0.051 0.764 0.083 1.244 0.055 0.48 0.116 1.022 0.184 1.614 0.253 2.361 0.699 5.506 1.155 8.645 0.916 6.283 1.942 12.541 1.942 12.541 0.191 1.163-0.597 2.261-1.76 2.451s-2.261-0.598-2.451-1.761c-0.019-0.115-0.029-0.247-0.029-0.36z"
           fill="#231f20"
           id="path26" />
        <line
           x1="-7.355"
           x2="36.521"
           y1="3318.9"
           y2="3268.1"
           fill="none"
           stroke="#231f20"
           stroke-linecap="round"
           stroke-linejoin="round"
           stroke-miterlimit="10"
           stroke-width="4.2523"
           id="line26" />
        <path
           d="m-91.862 3177s45.584 12.508 137.73 8.144c0 0 73.396-3.687 107.27-25.587"
           fill="none"
           stroke="#231f20"
           stroke-linecap="round"
           stroke-linejoin="round"
           stroke-miterlimit="10"
           stroke-width="2.9228"
           id="path27" />
        <g
           transform="matrix(1.1132 .11697 -.11697 1.1132 1080.9 2573.5)"
           id="g47">
          <g
             transform="matrix(.21867 -.0015018 .0015018 .21867 -560.57 410.27)"
             id="g37">
            <path
               d="m-812.7 574.27c10.146-64.939 26.602-104.58 4.508-190.93-27.758-46.496-56.703-43.457-87.078-80.682-0.495-22.531-1.084-43.114-1.307-67.185-0.189-19.007-20.554-20.558-42.066-20.037l-0.015-0.36c-1.336 0.211-2.763 0.363-4.227 0.49-4.539 0.153-9.082 0.344-13.446 0.443-4.373-0.018-8.913-0.131-13.459-0.199-1.454-0.109-2.886-0.228-4.217-0.42l-2e-3 0.359c-21.543-0.13-41.868 1.786-41.717 20.791 0.2 24.069-0.02 44.646-0.108 67.2-29.692 37.765-58.711 35.245-85.63 82.208-20.522 86.752-3.358 126.06 7.947 190.82 8.601 86.446-18.532 87.433-11.085 247.5 0 70.591 79.621 86.599 150.75 86.599 71.128 0 156.66-13.825 156.66-89.344 4.583-160.17-22.563-160.68-15.507-247.26z"
               fill="#99fff0"
               id="path28" />
            <path
               d="m-812.7 574.27c10.146-64.939 26.602-104.58 4.508-190.93-27.758-46.496-56.703-43.457-87.078-80.682-0.495-22.531-1.084-43.114-1.307-67.185-0.189-19.007-20.554-20.558-42.066-20.037l-0.015-0.36c-1.336 0.211-2.763 0.363-4.227 0.49-4.539 0.153-9.082 0.344-13.446 0.443-4.373-0.018-8.913-0.131-13.459-0.199-1.454-0.109-2.886-0.228-4.217-0.42l-2e-3 0.359c-21.543-0.13-41.868 1.786-41.717 20.791 0.2 24.069-0.02 44.646-0.108 67.2-29.692 37.765-58.711 35.245-85.63 82.208-20.522 86.752-3.358 126.06 7.947 190.82 8.601 86.446-18.532 87.433-11.085 247.5 0 70.591 79.621 86.599 150.75 86.599 71.128 0 156.66-13.825 156.66-89.344 4.583-160.17-22.563-160.68-15.507-247.26z"
               fill="none"
               stroke="#231f20"
               stroke-linecap="round"
               stroke-linejoin="round"
               stroke-miterlimit="10"
               stroke-width="12.376"
               id="path29" />
            <path
               d="m-837.35 384.08c-31.619-40.601-78.237-43.035-78.971-85.28-20.373 9.702-55.832 10.123-74.706 0.65458 2.5151 40.516-60.303 58.145-82.797 94.813-24.739 48.75-3.483 152.78-3.483 152.78l52.343 112.71h108.31l89.506-114.13c12.203-95.874 1.0072-147.16-10.197-161.55z"
               enable-background="new    "
               fill="#0f0"
               id="path30" />
            <path
               d="m-820.88 756.1c-1.376-49.433-7.243-73.229-10.78-97.233-0.531-3.659-1.026-7.339-1.43-11.102 0 0-73.958-34.182-142.4 11.469-33.215 22.154-91.433-10.369-91.433-10.369-0.383 3.77-0.812 7.455-1.313 11.125-3.287 24.03-8.897 47.884-9.752 97.326 0 0 41.325-12.488 96.159 10.539 79.608 33.442 160.95-11.755 160.95-11.755z"
               enable-background="new    "
               fill="#f0f"
               id="path31" />
            <path
               d="m-975.49 659.24c68.443-45.65 142.4-11.469 142.4-11.469-1.444-13.404-4.1304-27.128-2.4684-47.105 1.9743-18.437 3.2371-36.395 8.4073-55.033 0 0-80.275 45.191-156.94 0.97175-51.458-29.68-93.214 0.448-93.214 0.448 2.896 17.06 6.808 34.067 10.1 53.824 1.872 19.968 1.573 34.592 0.282 47.993 0 1e-3 58.217 32.525 91.433 10.37z"
               enable-background="new    "
               fill="#ff0"
               id="path32" />
            <path
               d="m-820.79 760.69c-0.021-1.521-0.068-3.097-0.091-4.583 0 0-81.342 45.196-160.95 11.755-54.834-23.027-96.159-10.539-96.159-10.539-0.022 1.49-0.028 3.061-0.048 4.594-0.153 14.498 0.073 31.016 0.876 50.343 0 54.962 81.585 67.332 128.85 67.332 52.44 0 127.18-10.913 127.18-68.535 0.168-19.346 0.636-35.867 0.341-50.367z"
               fill="#f00"
               id="path33" />
            <path
               d="m-1076.4 555.28c-10.362-43.07-12.239-91.328-7.4717-136.98 55.436 5.3732 64.225 33.398 115.81 36.072 39.382 0.99621 116.22-42.968 144.92-34.174 4.9573 38.72 4.2447 68.492-4.0558 125.44-30.143 18.315-56.931 23.025-87.074 22.018-43.584-0.12238-62.113-21.568-109.48-32.908-20.674-4.5939-33.316 5.2316-52.649 20.538z"
               fill="#ff7400"
               id="path34" />
            <g
               stroke="#231f20"
               id="g36">
              <path
                 d="m-879.09 260.43-4.673-67.715c0.526-14.221-26.441-28.291-69.154-29.874-42.711-1.583-71.475 9.104-72.002 23.327l-8.838 68.531c-0.53 14.24 33.667 27.057 76.377 28.633 42.711 1.59 77.761-8.662 78.29-22.902z"
                 fill="#99fff0"
                 stroke-miterlimit="10"
                 stroke-width="12.375"
                 id="path35" />
              <path
                 d="m-879.33 233.13 0.578-69.009c0.117-14.232-34.43-26.07-77.171-26.425-42.738-0.36-77.477 10.896-77.6 25.124l-0.578 69.01c-0.121 14.25 34.428 26.083 77.165 26.434 42.743 0.367 77.485-10.887 77.606-25.134z"
                 fill="#2479b3"
                 stroke-miterlimit="10"
                 stroke-width="12.375"
                 id="path36" />
              <ellipse
                 cx="-956.92"
                 cy="159.66"
                 rx="76.77"
                 ry="24.052"
                 fill="#3f9ad8"
                 stroke-width="10.314"
                 id="ellipse36" />
            </g>
            <path
               d="m-913.02 379.91c3.848-13.089 5.3951-18.838 31.111-15.29 52.269 36.18 45.525 62.941 44.729 108.83-2.0682 18.178-42.622 14.441-43.146 4.266 5.7632-43.652 2.2307-75.153-32.694-97.806z"
               fill="#fff"
               id="path37" />
          </g>
          <g
             transform="matrix(0 -.9418 .84819 0 -888.39 1116.4)"
             opacity=".8"
             aria-label="A12X5"
             id="g42">
            <path
               d="m590.16 132.09c5.484-8.0875 9.5902 6.1382 9.4433 10.779 1.6114 5.7675-2.4388 6.4821-4.998 1.5686-3.1574-0.43078-9.0229 9.3737-7.463 0.7184 0.85646-4.3879 1.8658-8.7458 3.0176-13.066zm1.8349 9.7331c8.3515 2.9877 0.10415-14.766-0.54086-2.9845-0.25978 0.98858-0.29739 2.2272 0.54086 2.9845z"
               id="path38" />
            <path
               d="m604.14 130.29c8.2214-0.0212 0.28033 12.342 2.3193 17.234-7.2721 4.2885-0.25633-9.3691-4.0165-12.822-0.75759-2.0848 0.1187-3.2987 1.6972-4.4125z"
               id="path39" />
            <path
               d="m608.79 135.08c-0.55139-10.848 19.013-7.4998 14.037 2.792-2.3616 4.5808-12.392 7.8357-2.383 7.39 5.5764 9.3943-19.777 2.572-7.5918-3.1417 8.4208 0.39414 5.8569-13.934-0.30262-5.7215-1.3809 1.3928-3.9534 1.1183-3.7592-1.3187z"
               id="path40" />
            <path
               d="m628.62 129.6c0.76619 4.2325 4.6052 7.6019 5.0266 1.1972 7.3029-3.774-1.5756 6.7179-0.0765 9.9762 3.4885 3.4085 1.4292 12.809-1.891 5.0055-1.9568-6.0582-4.8838 9.485-7.2771 1.6221 7.0393-4.3016 2.0854-11.355 2.3657-17.269l0.73181-0.38451z"
               id="path41" />
            <path
               d="m653 130.63c0.22775 6.8064-17.212-1.2879-9.8542 7.2592 8.7737-1.9108 12.753 10.991 2.8477 11.472-5.7076 0.20499-2.9569-4.1363 0.82719-3.662 2.3994-7.3496-11.482-1.4343-8.6388-11.129-0.11746-8.667 9.9964-6.7222 14.818-3.9398z"
               id="path42" />
          </g>
          <g
             transform="matrix(.59201 -.0052709 .0050489 .56706 -1136.8 504.77)"
             opacity=".8"
             aria-label="235g"
             id="g46">
            <path
               d="m598.92 138.07c8.2008-14.403 10.655 10.562 7.5052 7.1204 5.6515 7.5327-15.421 0.94708-1.9742-3.8426 4.339-6.2506-5.0105-0.1155-5.5309-3.2778z"
               id="path43" />
            <path
               d="m612.1 134.33c7.3472-1.5916 9.6748 17.574-1.0745 12.823 4.3338-2.5428 6.6624-3.8447 0.68718-7.6599 9.755-1.4293-8.2983-2.2025 0.38733-5.1634z"
               id="path44" />
            <path
               d="m630.27 134.85c-2.0086 3.3655-14.75 2.7957-3.8025 5.2076 8.2931 5.5917-8.4346 12.328-0.35591 4.1706-13.125-1.258-4.5279-17.035 4.1584-9.3782z"
               id="path45" />
            <path
               d="m638.25 138.4c9.4973 5.448-5.879 20.032-2.8134 10.41-9.4761-1.6808-4.6877-13.32 2.8134-10.41zm-1.0002 3.0104c-10.45-1.4946 4.6071 13.828 0 0z"
               id="path46" />
          </g>
        </g>
        <g
           transform="translate(-30.104 -6.8136)"
           id="g49">
          <path
             d="m186.85 3106.5c-8.027 10.657-2.162 22.489 7.064 26.061-1.977 15.756 22.059 14.781 22.059 14.781 18.1 1.462 34.174-11.69 37.343-29.473 0 0 10.384-34.975-17.659-43.393-1.967 11.277-7.406 16.471-17.902 13.436-1e-3 0-31.393-10.641-30.905 18.588z"
             fill="#ddae68"
             stroke="#231f20"
             stroke-linecap="round"
             stroke-linejoin="round"
             stroke-miterlimit="10"
             stroke-width="4.2523"
             id="path47" />
          <path
             d="m194.25 3130.4s1.319 0.349 3.347 0.828c2.021 0.479 4.726 1.089 7.448 1.6 2.723 0.516 5.463 0.93 7.534 1.087 0.519 0.045 0.993 0.078 1.414 0.079 0.421 0 0.794 0.036 1.095 0.01 0.609-0.032 0.957-0.051 0.957-0.051s-0.34 0.086-0.933 0.237c-0.299 0.089-0.667 0.131-1.09 0.21-0.424 0.083-0.903 0.145-1.429 0.203-2.101 0.254-4.922 0.385-7.74 0.411-2.819 0.03-5.636-0.04-7.75-0.117-2.107-0.075-3.535-0.164-3.535-0.164h-0.017c-1.215-0.074-2.139-1.12-2.063-2.335 0.074-1.215 1.12-2.139 2.335-2.063 0.143 0.01 0.293 0.034 0.427 0.069z"
             fill="#231f20"
             id="path48" />
          <path
             d="m187.53 3104.4s0.646 0.258 1.718 0.636c1.066 0.404 2.666 0.918 4.573 1.55 0.958 0.308 2.008 0.604 3.113 0.939 1.106 0.331 2.272 0.69 3.497 0.997 1.221 0.323 2.482 0.656 3.766 0.996 1.279 0.361 2.604 0.61 3.917 0.925 1.318 0.3 2.636 0.599 3.933 0.894 1.308 0.247 2.594 0.491 3.838 0.728 1.248 0.232 2.454 0.458 3.598 0.672 1.143 0.236 2.236 0.349 3.24 0.505 4.029 0.574 6.716 0.958 6.716 0.958s-2.714-0.11-6.785-0.277c-1.019-0.054-2.129-0.056-3.29-0.176-1.166-0.098-2.395-0.201-3.666-0.308-1.273-0.11-2.59-0.225-3.927-0.34-1.332-0.164-2.686-0.33-4.039-0.496-1.353-0.183-2.718-0.301-4.042-0.533-1.329-0.211-2.637-0.419-3.903-0.62-1.271-0.185-2.487-0.429-3.644-0.651-1.156-0.226-2.254-0.421-3.262-0.635-2.015-0.448-3.691-0.805-4.887-1.122-1.202-0.295-1.839-0.478-1.839-0.479l-0.048-0.014c-1.166-0.336-1.838-1.553-1.502-2.718s1.553-1.838 2.718-1.502c0.069 0.019 0.141 0.044 0.207 0.071z"
             fill="#231f20"
             id="path49" />
        </g>
        <g
           transform="matrix(1.0863 0 0 1.0863 -695.79 -262.98)"
           id="g50">
          <path
             d="m755.21 3062.9c-2.9088 4.2868-7.1696 7.5148-11.742 9.857-4.7889 2.4481-10.065 3.836-15.394 4.4443-3.0807 0.3363-6.1838 0.4002-9.2806 0.2917-1.6778 0 1.6497-0.1862 2.1826-0.2683 3.6079-0.3096 7.1786-1.0139 10.655-2.0248 5.6746-1.7414 11.111-4.5398 15.409-8.6827 1.8879-1.7921 3.5047-3.8664 4.7466-6.1513 1.0226-1.3853 3.4693-0.7854 3.7341 0.9163 0.11978 0.5535-6.2e-4 1.1461-0.31111 1.6178z"
             fill="#231f20"
             id="path50" />
        </g>
        <g
           transform="matrix(1.261 0 0 1.4218 -816.29 -1281.2)"
           id="g51">
          <path
             d="m612.62 3063.3c7.1526 1.6928 11.793 3.7394 19.088 4.6982 3.2035 0.4451 8.9563 0.3531 12.166 0.7374-0.61213 0.316-2.1203 0.6497-3.0705 0.8778-6.6679 1.2994-12.205 1.5302-18.554-0.7866-2.9067-1.0968-7.2012-3.5673-9.6295-5.5268z"
             fill="#231f20"
             stroke-width=".69943"
             id="path51" />
        </g>
        <g
           id="g58">
          <path
             d="m-16.333 3071.2c-1.7552-0.3877-3.3674-1.4187-4.3893-2.9069-1.5474-2.0783-1.7616-4.9948-0.69897-7.3327 1.0826-2.3119 3.4105-3.9882 5.9629-4.2071 2.3634-0.2192 4.8227 0.7421 6.3117 2.612 1.9317 2.2362 2.2375 5.662 0.78792 8.2272-0.78319 1.4525-2.1229 2.5799-3.6251 3.2346-1.3767 0.5422-2.901 0.6937-4.3492 0.3729zm2.3427-5.0209c1.3901-0.4141 2.0593-2.2418 1.2425-3.4468-0.36691-0.664-1.0653-1.0711-1.8153-1.1211-1.4295-0.2212-2.7694 1.2293-2.5298 2.6397 0.10915 1.1987 1.248 2.1345 2.438 2.051 0.22592-0.011 0.45064-0.05 0.66464-0.1228z"
             fill="#00e6ff"
             id="path52" />
          <path
             d="m-0.88614 3072.9c-1.7552-0.3878-3.3674-1.4187-4.3893-2.907-1.5474-2.0783-1.7616-4.9948-0.69897-7.3326 1.0826-2.3119 3.4105-3.9883 5.9629-4.2073 2.3634-0.2191 4.8227 0.7423 6.3117 2.612 1.9317 2.2363 2.2375 5.6622 0.78792 8.2274-0.78319 1.4524-2.1229 2.5798-3.6251 3.2346-1.3767 0.542-2.901 0.6935-4.3492 0.3729zm2.3427-5.021c1.3901-0.414 2.0593-2.2417 1.2425-3.4469-0.36691-0.6638-1.0653-1.071-1.8153-1.121-1.4295-0.2212-2.7694 1.2294-2.5298 2.6397 0.10915 1.1987 1.248 2.1345 2.438 2.0511 0.22591-0.011 0.45063-0.05 0.66464-0.1229z"
             fill="#05f30a"
             id="path53" />
          <path
             d="m-7.1325 3058.7c-1.7552-0.3878-3.3674-1.4187-4.3893-2.9068-1.5474-2.0784-1.7616-4.9949-0.69898-7.3328 1.0826-2.3118 3.4105-3.9884 5.9629-4.2071 2.3634-0.2194 4.8228 0.742 6.3118 2.6119 1.9317 2.2361 2.2374 5.6622 0.78791 8.2274-0.78319 1.4524-2.1229 2.5797-3.6251 3.2345-1.3767 0.5422-2.9009 0.6936-4.3492 0.3729zm2.3427-5.021c1.3901-0.4141 2.0592-2.2417 1.2425-3.4467-0.3669-0.6641-1.0653-1.0712-1.8152-1.1212-1.4295-0.2212-2.7694 1.2293-2.5298 2.6396 0.10914 1.1989 1.248 2.1345 2.438 2.0511 0.22591-0.011 0.45063-0.05 0.66464-0.1228z"
             fill="#999"
             id="path54" />
          <path
             d="m-22.529 3057c-1.7552-0.3878-3.3674-1.4188-4.3893-2.907-1.5474-2.0782-1.7616-4.9947-0.69898-7.3326 1.0826-2.3118 3.4105-3.9884 5.9629-4.2072 2.3634-0.2193 4.8228 0.7421 6.3118 2.6119 1.9317 2.2362 2.2374 5.6622 0.78791 8.2274-0.78319 1.4525-2.1229 2.5797-3.6251 3.2346-1.3767 0.5421-2.9009 0.6936-4.3492 0.3729zm2.3427-5.021c1.3901-0.4141 2.0592-2.2417 1.2425-3.4468-0.3669-0.664-1.0653-1.0712-1.8152-1.1212-1.4295-0.2211-2.7694 1.2294-2.5298 2.6397 0.10914 1.1988 1.248 2.1345 2.438 2.0511 0.22592-0.011 0.45063-0.05 0.66464-0.1228z"
             fill="#ff13ff"
             id="path55" />
          <path
             d="m8.2426 3060.4c-1.7552-0.3878-3.3674-1.4187-4.3893-2.9069-1.5474-2.0783-1.7616-4.9948-0.69898-7.3327 1.0826-2.3118 3.4105-3.9883 5.9629-4.2071 2.3634-0.2193 4.8228 0.742 6.3118 2.6118 1.9317 2.2363 2.2374 5.6623 0.78791 8.2275-0.78319 1.4524-2.1229 2.5797-3.6251 3.2345-1.3767 0.5421-2.9009 0.6935-4.3492 0.3729zm2.3427-5.021c1.3901-0.4141 2.0592-2.2417 1.2425-3.4468-0.3669-0.6639-1.0653-1.0711-1.8152-1.1211-1.4295-0.2213-2.7694 1.2294-2.5298 2.6397 0.10914 1.1988 1.248 2.1345 2.438 2.051 0.22592-0.011 0.45063-0.05 0.66464-0.1228z"
             fill="#fddf00"
             id="path56" />
          <path
             d="m2.0295 3046.3c-1.7552-0.3877-3.3674-1.4186-4.3892-2.9069-1.5474-2.0783-1.7616-4.9948-0.69897-7.3328 1.0826-2.3117 3.4105-3.9882 5.9629-4.2071 2.3634-0.2191 4.8227 0.7421 6.3117 2.612 1.9317 2.2363 2.2375 5.6621 0.78792 8.2274-0.78319 1.4524-2.1229 2.5798-3.6251 3.2346-1.3767 0.542-2.9009 0.6934-4.3492 0.3728zm2.3427-5.021c1.3901-0.414 2.0592-2.2418 1.2425-3.4468-0.3669-0.6641-1.0653-1.0711-1.8153-1.121-1.4295-0.2213-2.7693 1.2292-2.5298 2.6397 0.10915 1.1987 1.248 2.1345 2.438 2.0509 0.22591-0.011 0.45063-0.05 0.66465-0.1228z"
             fill="#fa8d04"
             id="path57" />
          <path
             d="m-13.31 3044.5c-1.7552-0.3879-3.3674-1.4188-4.3893-2.9069-1.5474-2.0784-1.7616-4.9949-0.69896-7.3328 1.0826-2.3118 3.4105-3.9883 5.9629-4.2072 2.3634-0.2192 4.8227 0.7422 6.3117 2.612 1.9317 2.2362 2.2374 5.6623 0.78791 8.2274-0.78319 1.4525-2.1229 2.5797-3.6251 3.2346-1.3767 0.5421-2.9009 0.6936-4.3492 0.3729zm2.3427-5.021c1.3901-0.4141 2.0593-2.2418 1.2425-3.4468-0.3669-0.664-1.0653-1.0712-1.8152-1.1212-1.4295-0.2211-2.7694 1.2294-2.5298 2.6397 0.10915 1.1987 1.248 2.1345 2.438 2.0511 0.22592-0.011 0.45064-0.05 0.66464-0.1228z"
             fill="#f00"
             id="path58" />
        </g>
      </g>
    </g>
  </g>
</svg>
