<?xml version="1.0" encoding="UTF-8"?>
<!-- Created with Inkscape (http://www.inkscape.org/) -->
<svg width="126.48mm" height="140.64mm" version="1.1" viewBox="0 0 126.48 140.64" xmlns="http://www.w3.org/2000/svg" xmlns:cc="http://creativecommons.org/ns#" xmlns:dc="http://purl.org/dc/elements/1.1/" xmlns:rdf="http://www.w3.org/1999/02/22-rdf-syntax-ns#">
 <metadata>
  <rdf:RDF>
   <cc:Work rdf:about="">
    <dc:format>image/svg+xml</dc:format>
    <dc:type rdf:resource="http://purl.org/dc/dcmitype/StillImage"/>
   </cc:Work>
  </rdf:RDF>
 </metadata>
 <g transform="translate(-39.624 -56.64)">
  <ellipse cx="103.02" cy="168.11" rx="63.084" ry="20.988" fill="#b4b47c" opacity=".6"/>
  <g transform="matrix(.28286 0 0 .28286 -166.05 -481.59)">
   <path d="m1058.9 2258.9c21.694 13.067 42.224 6.8804 62.739 0.438" fill="none"/>
   <g>
    <ellipse transform="matrix(3.5353 0 0 3.5353 587.05 1702.6)" cx="139.98" cy="162.8" rx="12.001" ry="4.0632" fill="#acac6f" stroke-miterlimit="10" stroke-width="0"/>
    <path d="m1050.2 2227.1h67.859c0.3911 0 0.7057 0.3053 0.7057 0.6842v45.589c0 0.3792-0.4189 0.421-0.7057 0.6842-16.127 14.784-51.763 15.204-67.859 0-0.2818-0.2659-0.7057-0.3054-0.7057-0.6842v-45.589c0-0.3793 0.3147-0.6842 0.7057-0.6842z" fill="#d40000" stroke="#000" stroke-width="1.338"/>
    <path d="m1118.1 2227.6a34.082 8.5836 0 0 1-34.082 8.5835 34.082 8.5836 0 0 1-34.082-8.5835 34.082 8.5836 0 0 1 34.082-8.5836 34.082 8.5836 0 0 1 34.082 8.5836z" fill="#999" stroke="#000" stroke-width="1.3174"/>
   </g>
   <path d="m1058.5 2240.5-0.5355 29.455c15.394 10.479 43.926 6.638 54.982 1.6066l-0.1783-33.739c-24.912 10.179-37.953 6.0013-54.268 2.6777z" fill="#fff" opacity=".9"/>
   <g transform="matrix(4.2211 -.64618 .64618 4.2211 203.05 1577.8)" fill="#999" aria-label="Oil Paint">
    <path d="m176.91 186.71q0.13682 0.057 0.25813 0.1498 0.0714 0.0579 0.15694 0.14252 0.087 0.0853 0.16053 0.19119 0.14716 0.22265 0.17339 0.48265 0.0223 0.24188-0.0681 0.53044-0.0418 0.13151-0.11199 0.25833-0.068 0.12606-0.19288 0.24637-0.12702 0.12108-0.3001 0.22535-0.17237 0.10281-0.32152 0.15001-0.15133 0.048-0.26854 0.0402-0.1165-9e-3 -0.22825-0.0433-0.11394-0.0333-0.22888-0.087-0.11278-0.0544-0.23187-0.14436-0.1191-0.0899-0.23073-0.21783-0.10946-0.12864-0.16616-0.28057-0.0596-0.15334-0.0605-0.31988-9.1e-4 -0.16654 0.0363-0.31471 0.0711-0.27084 0.26472-0.51504 0.0922-0.11622 0.20556-0.22401 0.11556-0.10855 0.24976-0.18464 0.13203-0.0753 0.27331-0.11369 0.14199-0.0398 0.26121-0.0437 0.11923-4e-3 0.20902 0.0196 0.0898 0.0234 0.16074 0.0523zm-0.1901 0.44271q-0.1304-0.0665-0.30658-0.0269-0.0913 0.0209-0.19757 0.069-0.10477 0.0487-0.19534 0.12422-0.1819 0.14876-0.27314 0.38279-0.0906 0.2253-0.065 0.44167 0.0234 0.21713 0.14957 0.39353 0.13362 0.19085 0.30936 0.22327 0.17215 0.0361 0.4191-0.0903 0.10977-0.0554 0.21619-0.14125 0.10643-0.0859 0.18108-0.20693 0.0746-0.12107 0.11188-0.2656 0.0372-0.14453 0.0376-0.26891-2.8e-4 -0.12291-0.035-0.21551-0.0326-0.0934-0.0861-0.17333-0.1224-0.16919-0.26603-0.2457z"/>
    <path d="m178.04 188.07q0.0622 0.055 0.0309 0.14398-0.0195 0.0535-0.0514 0.12857-0.0298 0.0741-0.0652 0.14966-0.0391 0.0761-0.0678 0.15224-0.0272 0.0766-0.0596 0.17383-0.0329 0.0987-0.0719 0.216-0.0375 0.11777-0.0673 0.22269-0.0606 0.21291-0.14954 0.30499-0.10229 0.10134-0.19644-7e-3 -0.0931-0.10127-0.0639-0.36405 0.0138-0.13422 0.0642-0.29571 0.0508-0.16303 0.10376-0.3168 0.0509-0.15274 0.0981-0.27926 0.0493-0.12755 0.10586-0.19956 0.056-0.0705 0.11155-0.088 0.0576-0.0185 0.10902-0.0134 0.10079 0.0113 0.16972 0.0719zm-0.0943-0.64327q0.0411-0.036 0.13369-5e-3 0.0509 0.017 0.12087 0.0488 0.0705 0.0303 0.1075 0.0735 0.0561 0.0684 0.0129 0.20826-0.0426 0.1332-0.10947 0.15894-0.0432 0.0165-0.10027 3e-3 -0.055-0.0149-0.11418-0.038-0.0597-0.0216-0.11417-0.0483-0.0525-0.0277-0.0766-0.0632-0.0412-0.0565 0.0185-0.16868 0.0555-0.1152 0.1213-0.16871z"/>
    <path d="m178.73 187.6q0.0378 0.0592 1e-3 0.23633-0.0305 0.13664-0.12164 0.40338-0.0423 0.11825-0.092 0.25134-0.0482 0.13351-0.0913 0.27344-0.0983 0.30525-0.13186 0.5152-0.031 0.16346 9e-3 0.25187 0.02 0.0442 0.0471 0.087 0.0291 0.0416 0.0281 0.0885-1e-3 0.0485-0.0395 0.0954-0.0361 0.0458-0.0994 0.0555-0.0633 0.01-0.14277-0.0203-0.0775-0.0312-0.11856-0.10307-0.0755-0.12505-3e-3 -0.49789 0.0354-0.18585 0.0972-0.42519 0.0622-0.24092 0.12318-0.45858 0.059-0.21653 0.11137-0.38427 0.0544-0.16889 0.1013-0.26061 0.0453-0.0922 0.0864-0.11299 0.0431-0.022 0.0866-0.027 0.11623-0.0122 0.14806 0.0319z"/>
    <path d="m180.24 187.75q0.10664 0.013 0.24173 0.0379 0.1351 0.0249 0.26809 0.0775 0.13288 0.0541 0.24545 0.13934 0.11257 0.0852 0.16768 0.19703 0.0551 0.11182 0.0497 0.24677-4e-3 0.13508-0.0236 0.2673-0.02 0.13384-0.052 0.25534-0.0319 0.11989-0.1072 0.20875-0.077 0.0904-0.1968 0.14323-0.11806 0.0514-0.2399 0.0666t-0.2301 2e-3q-0.10827-0.0131-0.17949-0.0202-0.073-6e-3 -0.10525 0.0116-0.0323 0.0171-0.0461 0.0911t-0.0198 0.19583q-4e-3 0.12198-0.0215 0.21852-0.0335 0.18337-0.13362 0.23447-0.10209 0.0558-0.18111-0.0203-0.0607-0.0601-0.0718-0.25661-0.0168-0.20839 8e-3 -0.56199 0.0113-0.19158 0.0323-0.42482 0.0211-0.23487 0.0458-0.43032 0.0491-0.4105 0.0939-0.54898 0.0423-0.12725 0.14305-0.14405 0.0842-0.0132 0.31206 0.0139zm-3e-3 0.35533q-0.0726 0.0108-0.0941 0.10048-0.0134 0.0479-0.0223 0.12224-7e-3 0.0729-0.0142 0.16527-9e-3 0.0939-0.0183 0.19757-0.01 0.10365-0.0103 0.17861-4e-3 0.1448 0.0316 0.18505 0.0298 0.0365 0.16354 0.0369 0.0717 5.6e-4 0.1665-2e-3 0.0965-4e-3 0.15289-0.0161 0.0564-0.012 0.0696-0.0355 0.0133-0.0251 0.0271-0.0778 0.0138-0.0528 0.0377-0.13086 0.0239-0.0781 0.0401-0.16329 0.0145-0.0837 0.0127-0.16701-2e-3 -0.0833-0.0457-0.15025-0.0438-0.0669-0.12494-0.1155-0.0795-0.0484-0.15223-0.0784-0.1471-0.0601-0.21968-0.0493z"/>
    <path d="m181.09 188.74q-1e-3 -0.0504 0.0113-0.11582 0.0128-0.0654 0.0536-0.11702 0.0707-0.0899 0.27273-0.13463 0.22632-0.0504 0.43336-0.0351 0.20392 0.0202 0.29353 0.13971 0.0931 0.1275 0.10038 0.38432 3e-3 0.12029-0.0107 0.25409-0.0125 0.13375-0.0236 0.2577-0.0143 0.12729-0.0241 0.2382-8e-3 0.11085-0.017 0.20383-0.0199 0.2153-0.0436 0.29894-0.0282 0.0968-0.0933 0.0937-0.0342-6.5e-4 -0.0802-0.0172-0.0444-0.0166-0.0788-0.0238-0.0376-5e-3 -0.0715 4e-3 -0.0323 7e-3 -0.10385 9e-3 -0.0731 4e-3 -0.18237-6e-3 -0.10766-0.01-0.18679-0.0468-0.1434-0.0659-0.18595-0.24687-0.0368-0.15025-0.01-0.33648 0.0123-0.0833 0.0428-0.15413 0.0321-0.0725 0.10902-0.11372 0.0738-0.0379 0.18257-0.0442 0.1104-8e-3 0.19339-7e-3 0.1644 3e-3 0.18954-0.0281 0.0313-0.0416 0.0225-0.18122-0.0101-0.12822-0.0479-0.19711-0.0529-0.088-0.14735-0.0902-0.11708 2e-3 -0.1947 0.0755-0.0365 0.0336-0.055 0.0683-0.0169 0.033-0.0606 0.044-0.0436 0.011-0.10904-2e-3 -0.0638-0.0128-0.10676-0.036-0.0694-0.0371-0.0722-0.13786zm0.67703 0.75514q-0.0525-0.0164-0.12432-0.0241-0.0718-8e-3 -0.12665 8e-3 -0.1 0.0305-0.12928 0.1452-0.0309 0.11475 0.0104 0.19492 0.0329 0.069 0.13927 0.092 0.0753 0.0174 0.19384 9e-3 0.0958-8e-3 0.11881-0.0554 0.0137-0.0329 0.0171-0.0851 5e-3 -0.0522 9e-3 -0.093 2e-3 -0.0391 5e-3 -0.0636 4e-3 -0.0245-3e-3 -0.0471-0.0194-0.0515-0.10968-0.0815z"/>
    <path d="m182.62 188.51q0.0791 0.0254 0.0861 0.11947 4e-3 0.0568 5e-3 0.13838 2e-3 0.0798 2.9e-4 0.16327-5e-3 0.0854-1e-3 0.16666 6e-3 0.0811 0.0152 0.18313 0.01 0.10364 0.0208 0.22671 0.0129 0.12292 0.0277 0.23097 0.0299 0.21933-0.0146 0.33936-0.053 0.13388-0.18278 0.0723-0.12593-0.0554-0.20463-0.30781-0.0412-0.12849-0.0599-0.2966-0.0188-0.16974-0.0321-0.33182-0.0147-0.16031-0.0222-0.29516-6e-3 -0.13662 0.0169-0.22527 0.023-0.087 0.0669-0.12534 0.0453-0.0401 0.0945-0.056 0.0968-0.0301 0.18432-2e-3zm-0.34456-0.55134q0.0232-0.0495 0.12038-0.0584 0.0534-5e-3 0.13029-4e-3 0.0767-5.1e-4 0.12796 0.0242 0.0788 0.0401 0.0954 0.18557 0.0144 0.13911-0.0365 0.18951-0.0329 0.0324-0.0908 0.0426-0.0564 8e-3 -0.11983 0.011-0.0633 4e-3 -0.12396 2e-3 -0.0592-4e-3 -0.0956-0.0272-0.0604-0.0353-0.0508-0.1619 5e-3 -0.12779 0.0434-0.20321z"/>
    <path d="m183.04 188.4q0.0392 9e-3 0.0602 0.0267 0.0207 0.0165 0.0585 6e-3 0.0346-0.0104 0.0959-0.0497 0.0629-0.0395 0.16489-0.0819 0.10063-0.0405 0.23269-0.0695 0.13342-0.0309 0.2587-0.0193 0.25774 0.0269 0.39027 0.24149 0.0664 0.10808 0.10164 0.25891 0.0352 0.15084 0.0649 0.3289 0.0297 0.17805 0.0534 0.36033 0.0251 0.18042 0.0156 0.28727-0.0127 0.10736-0.0609 0.13633-0.0484 0.0274-0.10941 0.037-0.0626 0.01-0.12521 0.01-0.0628-2e-3 -0.10041-0.0418-0.0572-0.0601-0.0583-0.31841-1e-3 -0.11336-1e-3 -0.24837 2e-3 -0.13526-0.0139-0.26614-0.0156-0.13087-0.0577-0.24113-0.0423-0.11187-0.12891-0.17068-0.088-0.0569-0.20988-0.0575-0.12191-5.8e-4 -0.2139 0.032-0.18695 0.0673-0.19773 0.28132-6e-3 0.11624 0.0218 0.27476 0.0282 0.15853 0.0675 0.31368 0.036 0.15566 0.0637 0.28958 0.0293 0.13367 9e-3 0.21102-0.0224 0.0776-0.0902 0.0965-0.0681 0.0173-0.12308-0.0185-0.0875-0.0537-0.16803-0.36699-0.0411-0.15651-0.0881-0.36145-0.0454-0.2052-0.0766-0.37151-0.0597-0.33793-0.0148-0.42896 0.0275-0.0554 0.0827-0.0706 0.0568-0.0155 0.0974-9e-3z"/>
    <path d="m184.46 187.58q0.11939-0.0101 0.17086 0.0784 0.028 0.0504 0.0355 0.1287 9e-3 0.0763 0.0163 0.15465 5e-3 0.0806 0.0149 0.14831 0.0118 0.0674 0.0421 0.0989 0.0288 0.0319 0.0778 0.0276 0.049-4e-3 0.10722-0.0123 0.0566-8e-3 0.11534-6e-3 0.06-1e-4 0.10658 0.0294 0.10012 0.0676 0.095 0.19369-5e-3 0.11112-0.14121 0.14328-0.0711 0.0176-0.15958 0.0241-0.0885 7e-3 -0.1322 0.0496-0.0449 0.0451-0.0365 0.13481 0.01 0.0878 0.0314 0.19961 0.0221 0.11337 0.0487 0.23239 0.0279 0.11706 0.0728 0.18366 0.0456 0.0698 0.10684 0.0827 0.0612 0.013 0.12454 5e-3 0.15572-0.0115 0.187-0.0802 0.0163-0.0387 2e-3 -0.0954-0.0128-0.0571-8e-3 -0.10828 9e-3 -0.10196 0.13823-0.13428 0.0651-0.0146 0.14921-3e-3 0.0841 0.0112 0.14247 0.0781 0.0571 0.0689 0.074 0.18173 0.017 0.11285-0.021 0.19634-0.0373 0.0867-0.12994 0.13409-0.0915 0.0455-0.22317 0.075-0.13294 0.0314-0.28407 0.0486t-0.25645 7.8e-4q-0.10533-0.0164-0.15886-0.0694-0.0535-0.053-0.10079-0.1524-0.10248-0.21201-0.19214-0.56021-0.0446-0.17666-0.0839-0.37449t-0.0631-0.37082q-0.0266-0.17069-0.036-0.3019-8e-3 -0.13315 0.012-0.21432 0.0301-0.13339 0.1555-0.14648z"/>
   </g>
   <g stroke="#000">
    <path d="m1111.2 2227.2a27.13 6.3644 0 0 1-27.13 6.3643 27.13 6.3644 0 0 1-27.129-6.3643 27.13 6.3644 0 0 1 27.129-6.3645 27.13 6.3644 0 0 1 27.13 6.3645z" fill="#808080" stroke-width="1.0121"/>
    <path d="m1057.9 2228.7c11.782-3.7848 41.26-4.4376 53.268-0.8267-3.6541 4.2652-12.332 5.3798-25.748 5.5511-11.858 0.3644-21.328-0.9966-27.52-4.7244z" fill="#333" stroke-width=".93539px"/>
   </g>
  </g>
  <rect transform="rotate(-90)" x="-195.35" y="56.792" width="136.77" height="89.758" ry="7.9007" fill="#fff" fill-opacity=".52331" stroke="#999" stroke-width="3.871"/>
  <path d="m79.767 146.09 45.764 1.3681 7.6856 14.023-61.484-0.68403z" fill="#4d4d4d" stroke="#000" stroke-width=".31541px"/>
  <ellipse cx="102.11" cy="155.99" rx="19.446" ry="3.8254" opacity=".3"/>
  <path d="m68.774 171.1-3.1183 4.2522 71.06 0.56697-0.37798-2.2679" fill="#acac6f" stroke="#acac6f" stroke-width=".26458px"/>
  <g stroke="#000">
   <path d="m71.74 160.79-5.1491 10.946 69.762 0.43574-3.1433-10.623" fill="#808080" stroke-width=".33216px"/>
   <path d="m66.591 171.74-0.18437 1.8818 69.869 0.39618 0.0856-1.9025" fill="#b3b3b3" stroke-width=".31541px"/>
   <path d="m82.927 161.78 39.007 0.41725 2.8443 8.7201-45.672-0.34417z" fill="#ccc" stroke-width=".35384px"/>
  </g>
  <g transform="translate(.30068)" stroke="#008080" stroke-width=".60854">
   <g fill="#008080" stroke-linecap="round" stroke-linejoin="round">
    <path d="m98.166 163.11-2.9077-0.0249"/>
    <path d="m97.249 166.14 0.5961-2.1766"/>
    <path d="m103.05 166.63-2.9077-0.0249"/>
    <path d="m92.468 169.05 0.87786-2.1766"/>
    <path d="m96.373 169.49-2.9077-0.0249"/>
    <path d="m103.7 163.13-2.9077-0.0249"/>
    <path d="m103.85 166.16 0.37068-2.4583"/>
    <path d="m96.452 166.22-2.9077-0.0249"/>
    <path d="m102.37 169.54-2.9077-0.0249"/>
    <path d="m105.99 166.02-0.11954-2.4306"/>
    <path d="m109.75 166.05-2.9077-0.0249"/>
    <path d="m103.34 169.59 0.37068-2.4583"/>
    <path d="m110.67 165.97-0.40132-2.4306"/>
    <path d="m111.18 169.4-0.40132-2.4306"/>
   </g>
   <ellipse cx="112.84" cy="169.44" rx=".33812" ry=".25359"/>
   <g fill="#008080" stroke-linecap="round" stroke-linejoin="round">
    <path d="m115.01 166.13-0.73944-2.487"/>
    <path d="m118.82 166.38-2.9077-0.0249"/>
    <path d="m119.83 166.25-0.73944-2.487"/>
    <path d="m120.9 169.85-0.73944-2.487"/>
    <path d="m118.1 163.28-2.9077-0.0249"/>
   </g>
  </g>
  <g transform="matrix(.10015 -.00068781 .00068781 .10015 196.93 65.252)">
   <path d="m-812.7 574.27c10.146-64.939 26.602-104.58 4.508-190.93-27.758-46.496-56.703-43.457-87.078-80.682-0.495-22.531-1.084-43.114-1.307-67.185-0.189-19.007-20.554-20.558-42.066-20.037l-0.015-0.36c-1.336 0.211-2.763 0.363-4.227 0.49-4.539 0.153-9.082 0.344-13.446 0.443-4.373-0.018-8.913-0.131-13.459-0.199-1.454-0.109-2.886-0.228-4.217-0.42l-2e-3 0.359c-21.543-0.13-41.868 1.786-41.717 20.791 0.2 24.069-0.02 44.646-0.108 67.2-29.692 37.765-58.711 35.245-85.63 82.208-20.522 86.752-3.358 126.06 7.947 190.82 8.601 86.446-18.532 87.433-11.085 247.5 0 70.591 79.621 86.599 150.75 86.599 71.128 0 156.66-13.825 156.66-89.344 4.583-160.17-22.563-160.68-15.507-247.26z" fill="#99fff0"/>
   <path d="m-812.7 574.27c10.146-64.939 26.602-104.58 4.508-190.93-27.758-46.496-56.703-43.457-87.078-80.682-0.495-22.531-1.084-43.114-1.307-67.185-0.189-19.007-20.554-20.558-42.066-20.037l-0.015-0.36c-1.336 0.211-2.763 0.363-4.227 0.49-4.539 0.153-9.082 0.344-13.446 0.443-4.373-0.018-8.913-0.131-13.459-0.199-1.454-0.109-2.886-0.228-4.217-0.42l-2e-3 0.359c-21.543-0.13-41.868 1.786-41.717 20.791 0.2 24.069-0.02 44.646-0.108 67.2-29.692 37.765-58.711 35.245-85.63 82.208-20.522 86.752-3.358 126.06 7.947 190.82 8.601 86.446-18.532 87.433-11.085 247.5 0 70.591 79.621 86.599 150.75 86.599 71.128 0 156.66-13.825 156.66-89.344 4.583-160.17-22.563-160.68-15.507-247.26z" fill="none" stroke="#231f20" stroke-linecap="round" stroke-linejoin="round" stroke-miterlimit="10" stroke-width="12.376"/>
   <path d="m-837.35 384.08c-31.619-40.601-78.237-43.035-78.971-85.28-20.373 9.702-55.832 10.123-74.706 0.65458 2.5151 40.516-60.303 58.145-82.797 94.813-24.739 48.75-3.483 152.78-3.483 152.78l52.343 112.71h108.31l89.506-114.13c12.203-95.874 1.0072-147.16-10.197-161.55z" enable-background="new    " fill="#0f0"/>
   <path d="m-820.88 756.1c-1.376-49.433-7.243-73.229-10.78-97.233-0.531-3.659-1.026-7.339-1.43-11.102 0 0-73.958-34.182-142.4 11.469-33.215 22.154-91.433-10.369-91.433-10.369-0.383 3.77-0.812 7.455-1.313 11.125-3.287 24.03-8.897 47.884-9.752 97.326 0 0 41.325-12.488 96.159 10.539 79.608 33.442 160.95-11.755 160.95-11.755z" enable-background="new    " fill="#f0f"/>
   <path d="m-975.49 659.24c68.443-45.65 142.4-11.469 142.4-11.469-1.444-13.404-4.1304-27.128-2.4684-47.105 1.9743-18.437 3.2371-36.395 8.4073-55.033 0 0-80.275 45.191-156.94 0.97175-51.458-29.68-93.214 0.448-93.214 0.448 2.896 17.06 6.808 34.067 10.1 53.824 1.872 19.968 1.573 34.592 0.282 47.993 0 1e-3 58.217 32.525 91.433 10.37z" enable-background="new    " fill="#ff0"/>
   <path d="m-820.79 760.69c-0.021-1.521-0.068-3.097-0.091-4.583 0 0-81.342 45.196-160.95 11.755-54.834-23.027-96.159-10.539-96.159-10.539-0.022 1.49-0.028 3.061-0.048 4.594-0.153 14.498 0.073 31.016 0.876 50.343 0 54.962 81.585 67.332 128.85 67.332 52.44 0 127.18-10.913 127.18-68.535 0.168-19.346 0.636-35.867 0.341-50.367z" fill="#f00"/>
   <path d="m-1076.4 555.28c-10.362-43.07-12.239-91.328-7.4717-136.98 55.436 5.3732 64.225 33.398 115.81 36.072 39.382 0.99621 116.22-42.968 144.92-34.174 4.9573 38.72 4.2447 68.492-4.0558 125.44-30.143 18.315-56.931 23.025-87.074 22.018-43.584-0.12238-62.113-21.568-109.48-32.908-20.674-4.5939-33.316 5.2316-52.649 20.538z" fill="#ff7400"/>
   <g stroke="#231f20">
    <path d="m-879.09 260.43-4.673-67.715c0.526-14.221-26.441-28.291-69.154-29.874-42.711-1.583-71.475 9.104-72.002 23.327l-8.838 68.531c-0.53 14.24 33.667 27.057 76.377 28.633 42.711 1.59 77.761-8.662 78.29-22.902z" fill="#99fff0" stroke-miterlimit="10" stroke-width="12.375"/>
    <path d="m-879.33 233.13 0.578-69.009c0.117-14.232-34.43-26.07-77.171-26.425-42.738-0.36-77.477 10.896-77.6 25.124l-0.578 69.01c-0.121 14.25 34.428 26.083 77.165 26.434 42.743 0.367 77.485-10.887 77.606-25.134z" fill="#2479b3" stroke-miterlimit="10" stroke-width="12.375"/>
    <ellipse cx="-956.92" cy="159.66" rx="76.77" ry="24.052" fill="#3f9ad8" stroke-width="10.314"/>
   </g>
   <path d="m-913.02 379.91c3.848-13.089 5.3951-18.838 31.111-15.29 52.269 36.18 45.525 62.941 44.729 108.83-2.0682 18.178-42.622 14.441-43.146 4.266 5.7632-43.652 2.2307-75.153-32.694-97.806z" fill="#fff"/>
  </g>
  <g transform="matrix(.27114 0 0 .25972 -66.21 100.29)" aria-label="Ani Himawati 18/15/2017  235g ">
   <path d="m589.29 138.36c12.258 0.43445-6.4248 15.531-0.26301 1.3396l0.16119-0.821zm0.89844 4.7656c5.2781-1.4002-3.638-5.3501 0 0z"/>
   <path d="m595.59 139.99c4.6645-4.576 5.9716 9.7573 1.8801 1.9846-1.2937 7.9968-4.8969 0.62117-1.8801-1.9846z"/>
   <path d="m602.93 140.31c3.4129 7.9737-6.5974 3.194 0 0zm-1.1719-2.3242c5.1616-2.214-1.5264 5.2989 0 0z"/>
   <path d="m609.99 136.77c4.2236 1.817 7.9619 8.4149-0.13233 8.9035-1.6655-2.645-0.75327-6.1483 0.13233-8.9035z"/>
   <path d="m616.99 140.31c3.4129 7.9737-6.5974 3.194 0 0zm-1.1719-2.3242c5.1616-2.214-1.5264 5.2989 0 0z"/>
   <path d="m619.4 140.04c18.2 1.3526-7.23 9.8552 0 0z"/>
   <path d="m626.43 140.92c7.7761-5.5571-0.90329 12.839 2.5911 0.66224l-0.71197-0.58464zm2.6237 3.099c-5.5333-1.3312 2.7713 4.7377 0 0z"/>
   <path d="m632.2 140.04c0.49189 5.7441 12.09 0.46272 2.1685 7.6359-3.4351-0.25492-3.6816-5.4371-2.1685-7.6359z"/>
   <path d="m639.42 140.92c7.7761-5.5571-0.90324 12.839 2.5911 0.66223l-0.71198-0.58462zm2.6237 3.099c-5.5333-1.3312 2.7712 4.7376 0 0z"/>
   <path d="m645.52 137.74c6.0557 8.7605-4.6346 13.387 0 0z"/>
   <path d="m651.47 140.31c3.4126 7.9741-6.5975 3.1934 0 0zm-1.1719-2.3242c5.1616-2.2141-1.5264 5.2989 0 0z"/>
   <path d="m591.17 154.32c6.5981 6.2106-5.3934 10.801 0 0z"/>
   <path d="m598.17 154.23c8.7586 9.401-10.897 11.486-3.1138 0.30068l1.4155-0.74627zm-2.1029 1.1849c-3.0173 6.1676 6.3556-0.55672 0 0zm7e-3 4.2643c-4.6451 6.2764 8.657-0.53344 0 0z"/>
   <path d="m605.1 153.48c2.9837 6.0923-9.0596 12.802 0 0z"/>
   <path d="m607.78 154.32c6.5981 6.2106-5.3934 10.801 0 0z"/>
   <path d="m617.19 154.49c-8.6621-0.45179 3.1047 12.299-5.5271 5.902-3.9988-5.1942 0.23518-9.9833 5.5271-5.902z"/>
   <path d="m621.64 153.48c2.9838 6.0926-9.0598 12.802 0 0z"/>
   <path d="m622.84 156.67c7.2728-9.2917 6.1419 13.754 0.90575 4.5481 3.8271-2.5119 5.1793-5.2701-0.90575-4.5481z"/>
   <path d="m634.7 153.87c11.647 4.4049-10.402 15.376-3.8148 1.6818 0.7025-1.2789 2.3138-2.3636 3.8148-1.6818zm-0.7552 2.0833c-9.2537 7.603 11.935 5.938 0 0z"/>
   <path d="m640.21 154.32c6.5981 6.2107-5.3934 10.801 0 0z"/>
   <path d="m644.02 153.74c8.8048-3.8814-0.41763 14.751 2.2046 2.8207-2.4331 3.1372-6.5202-1.982-2.2046-2.8207z"/>
   <path d="m598.92 171.76c2.3106-12.146 17.893 4.9612 5.7048 6.799 9.378 7.6663-14.151 0.4375 0.0168-3.7702 4.3785-6.9504-5.9008-0.8869-5.7216-3.0288z"/>
   <path d="m612.13 168.02c9.1995-1.8468 7.7443 19.089-0.72554 11.902 11.317-1.5071-6.0457-10.209 0.72554-11.902z"/>
   <path d="m630.29 168.53c-6.5046 3.3603-9.8484 3.6519-1.7078 7.5494 2.5618 4.783-8.6981 8.0785-2.9024 1.7715-12.309-1.8548-4.0526-16.395 4.6102-9.3209z"/>
   <path d="m638.25 172.08c8.918 3.5781-2.6603 20.563-5.7767 9.3298-5.0449-3.6387 0.17629-12.223 5.7767-9.3298zm-1.0002 3.0104c-9.085-0.69877 4.9242 10.57 0.12191 0.18506z"/>
  </g>
  <path d="m143.84 174.15-44.986 6.2193c-0.0327 0.69519-0.14017 2.044 0.60814 2.8708l44.493-7.7382c2.6858-0.85013 2.5207-1.2822-0.11472-1.3519z" fill="#acac6f"/>
  <path d="m100.04 179.99c-1.0984-0.12433-2.1832-0.34811-3.38 0.2431 0 0-2.3847 1.592-3.5115 1.6543-1.1268 0.0622-3.8406-0.32768-1.2455 0.22228 2.2318 0.63233 5.0405 1.698 6.2734 0.8495l2.1544-1.2237" fill="#acac6f"/>
  <path d="m147.17 172.15-46.967 6.2193c-0.0341 0.69519-0.14634 2.044 0.63492 2.8708l46.452-7.7382c2.8041-0.85013 2.6317-1.2822-0.11981-1.3519z" fill="#a05a2c" stroke="#000" stroke-width=".26458px"/>
  <path d="m100.03 178.93c-1.0984-0.12432-2.1832-0.34808-3.38 0.24313 0 0-2.3847 1.592-3.5115 1.6543-1.1268 0.0623-3.8406-0.32769-1.2455 0.22228 2.2318 0.63232 5.0405 1.6981 6.2734 0.84949l2.1544-1.2237" fill="#333" stroke="#000" stroke-width=".26458px"/>
  <g transform="matrix(.32446 0 0 .32446 -76.514 -234.29)">
   <ellipse cx="407.24" cy="991.38" rx="25.904" ry="26.206" fill="#fff"/>
   <path d="m362.75 1024.8c-1.5578-0.8935-2.6148-1.9163-3.4516-3.3398l-1.2061-2.0518-0.12193-23.631c-0.0787-15.255 0.0356-24.217 0.32266-25.283 0.66296-2.462 2.1559-4.4055 4.4954-5.8519 2.083-1.2878 2.1228-1.2937 10.195-1.5235 7.1042-0.20221 8.2134-0.32991 8.9913-1.0351 0.50307-0.45608 1.658-3.1168 2.6667-6.1438 1.3016-3.9057 2.0754-5.5722 2.8819-6.2066 1.0639-0.83684 1.7261-0.86724 18.891-0.86724 17.165 0 17.827 0.0304 18.891 0.86724 0.8065 0.6344 1.5803 2.3009 2.8819 6.2066 1.0085 3.0263 2.1637 5.6878 2.6666 6.1438 0.77628 0.70385 1.8682 0.83146 8.7292 1.0202 7.34 0.20192 7.979 0.28627 9.9836 1.3179 2.4259 1.2484 4.3797 3.71 4.9721 6.2642 0.5059 2.1813 0.51569 46.036 0.0108 48.211-0.56897 2.4513-2.3927 4.7817-4.7432 6.061l-2.0899 1.1375h-82.722zm48.713-8.6693c4.3194-0.8942 8.4659-3.2436 12.031-6.8169 4.7187-4.7294 7.2825-10.669 7.2825-16.871 0-6.0503-2.8687-12.845-7.273-17.226-4.8371-4.8119-10.305-7.0762-17.089-7.0762-6.7584 0-12.216 2.2511-17.078 7.0443-13.475 13.285-7.0231 36.245 11.469 40.813 2.752 0.6799 7.7163 0.7418 10.657 0.1331zm-9.1471-9.8536c-3.7624-1.1486-7.504-4.4615-9.2046-8.1498-1.3545-2.9377-1.3191-8.9689 0.0693-11.784 1.5895-3.2225 3.7372-5.3874 6.8793-6.9342 2.5526-1.2566 3.284-1.4182 6.3458-1.4021 5.8875 0.031 10.302 2.736 12.823 7.858 1.273 2.5858 1.4237 3.2811 1.4237 6.5683 0 3.1533-0.17192 4.0265-1.2082 6.1368-1.5128 3.0806-4.7585 6.0526-7.8893 7.224-2.4347 0.9109-7.047 1.1519-9.2391 0.4826zm41.92-27.49c1.0796-0.97266 1.3244-2.5902 0.60323-3.9848-1.574-3.0438-6.2811-1.954-6.2811 1.4543 0 3.0792 3.3914 4.5907 5.6779 2.5306z" fill="#808080"/>
  </g>
  <path d="m104.28 131.4c-0.39116 3.6945-7.599 2.1695-5.9341-1.3076 1.1257-1.4115 2.429 0.61477 0.86424 1.2849 0.84795 2.517 5.7885 0.4537 3.1461-1.574 0.85463-0.88076 2.3944 0.61292 1.9237 1.5967z" opacity=".75"/>
  <g transform="rotate(-90)" stroke-width=".20128" aria-label="12345">
   <path d="m-127.11 98.491c2.7778 0.5329-0.32369 7.848-0.26626 3.6672 0.36957-1.0142-0.88807-3.1554 0.26626-3.6672z"/>
   <path d="m-125.34 99.906c0.46202-4.6275 7.4945 0.03585 2.7856 2.2446-1.1686 0.84775 2.4394 1.3419 0.13956 2.1474-2.819 0.41298-3.25-2.44-0.49874-2.75 1.1398-2.2922-1.042-2.0654-2.0436-0.9651l-0.27859-0.24757-0.10431-0.42934z"/>
   <path d="m-119.55 98.377c2.3221-0.89168 1.9755 2.8651 3.0099 3.9844 0.2444 2.3088-5.0467 1.7434-2.7036 0.59127 2.1942 0.3795 1.0287-2.5149-0.5385-2.1956 2.2161-1.5867-0.3402-0.7687-0.64997-1.7222l0.36891-0.38012 0.51324-0.27782z"/>
   <path d="m-114.9 98.243c-0.51417 2.4176 0.52386 3.7552 2.0245 1.581 1.8657 1.8658-0.674 5.8548-2.2616 2.4936-1.2862-0.93453-1.4692-3.6964 0.23711-4.0747z"/>
   <path d="m-107.11 98.589c-0.14214 1.5934-4.9893 0.32932-2.5732 2.1397 4.1348-0.63526 0.61222 5.6388 0.0439 2.6461 2.757-2.0573-3.73-1.3636-1.6286-4.2458 0.78037-1.9977 2.7514-1.5102 4.1578-0.54003z"/>
  </g>
 </g>
</svg>
