<?xml version="1.0" encoding="UTF-8"?>
<!-- Created with Inkscape (http://www.inkscape.org/) -->
<svg id="svg1" width="1549.4mm" height="1102.4mm" version="1.1" viewBox="0 0 1549.4 1102.4" xmlns="http://www.w3.org/2000/svg" xmlns:xlink="http://www.w3.org/1999/xlink">
 <defs id="defs1">
  <linearGradient id="linearGradient2" x1="44.876" x2="44.876" y1="-906.13" y2="-1319.3" gradientTransform="matrix(1 0 0 1.631 -1.5957 1554.3)" gradientUnits="userSpaceOnUse">
   <stop id="stop1" offset="0"/>
   <stop id="stop2" stop-opacity="0" offset="1"/>
  </linearGradient>
 </defs>
 <g id="layer1" transform="translate(699.56 617)">
  <rect id="rect1" x="-699.56" y="-617" width="1549.4" height="1102.4" fill="url(#linearGradient2)" stroke-width="3.5951"/>
  <g fill="#fdf4c8">
   <g fill-opacity=".31594" stroke-width=".04098">
    <path id="path88605-6-3-9-8-7-0-3-08" d="m827.07-42.411c0.0727 0.7078 0.3317 1.413 0.69259 1.8825 0.46164 0.6006 1.2501 1.0024 2.205 1.124l0.42591 0.054-0.38608 0.053c-0.52459 0.073-0.901 0.1813-1.3108 0.3786-0.27624 0.133-0.41561 0.2363-0.70194 0.5202-0.3037 0.3011-0.38522 0.4125-0.54423 0.7435-0.89568 2.2368 0.0554 1.8507-0.85617-0.037-0.13557-0.2745-0.24488-0.4218-0.50233-0.6782-0.18106-0.1805-0.43493-0.3898-0.56431-0.4658-0.34016-0.1994-0.85921-0.366-1.3881-0.4456l-0.46164-0.069 0.40388-0.051c0.96537-0.1214 1.7642-0.5306 2.2209-1.1381 0.36384-0.4838 0.55477-0.9759 0.66754-1.7201l0.0684-0.4542z"/>
    <path id="path88605-6-3-9-8-7-0-3-48" d="m802.2 121.37c0.0727 0.7078 0.3317 1.413 0.69259 1.8825 0.46164 0.6006 1.2501 1.0024 2.205 1.124l0.42591 0.054-0.38608 0.053c-0.52459 0.073-0.901 0.1813-1.3108 0.3786-0.27624 0.133-0.41561 0.2363-0.70194 0.5202-0.3037 0.3011-0.38522 0.4125-0.54423 0.7435-0.89568 2.2368 0.0554 1.8507-0.85617-0.037-0.13557-0.2745-0.24488-0.4218-0.50233-0.6783-0.18106-0.1804-0.43493-0.3897-0.56431-0.4657-0.34016-0.1994-0.85921-0.366-1.3881-0.4456l-0.46164-0.069 0.40388-0.051c0.96537-0.1214 1.7642-0.5306 2.2209-1.1381 0.36384-0.4838 0.55477-0.9759 0.66754-1.7201l0.0684-0.4542z"/>
    <path id="path88605-6-3-9-8-7-0-3-0" d="m-663.32 148.88c0.0727 0.70782 0.3317 1.413 0.69259 1.8825 0.46164 0.60054 1.2501 1.0024 2.205 1.124l0.42591 0.0542-0.38608 0.0532c-0.52459 0.0727-0.901 0.18126-1.3108 0.37861-0.27624 0.13295-0.41561 0.23627-0.70194 0.52021-0.3037 0.30112-0.38522 0.41245-0.54423 0.74351-0.89568 2.2367 0.0554 1.8507-0.85617-0.037-0.13557-0.2745-0.24488-0.42181-0.50233-0.67828-0.18106-0.18048-0.43493-0.38976-0.56431-0.46575-0.34016-0.19939-0.85921-0.366-1.3881-0.44556l-0.46164-0.0694 0.40388-0.051c0.96537-0.12146 1.7642-0.53067 2.2209-1.1382 0.36384-0.48377 0.55477-0.97587 0.66754-1.7201l0.0684-0.45424z"/>
    <path id="path88605-6-3-9-8-7-0-3-59" d="m-615.96 104.7c0.0727 0.7079 0.3317 1.413 0.69259 1.8826 0.46164 0.6005 1.2501 1.0024 2.205 1.1239l0.42591 0.054-0.38608 0.053c-0.52459 0.073-0.901 0.1813-1.3108 0.3787-0.27624 0.1329-0.41561 0.2362-0.70194 0.5202-0.3037 0.3011-0.38522 0.4124-0.54423 0.7435-0.89568 2.2367 0.0554 1.8506-0.85617-0.037-0.13557-0.2745-0.24488-0.4218-0.50233-0.6783-0.18106-0.1805-0.43493-0.3898-0.56431-0.4658-0.34016-0.1993-0.85921-0.366-1.3881-0.4455l-0.46164-0.069 0.40388-0.051c0.96537-0.1215 1.7642-0.5307 2.2209-1.1382 0.36384-0.4838 0.55477-0.9758 0.66754-1.7201l0.0684-0.4542z"/>
    <path id="path88605-6-3-9-8-7-0-3-77" d="m-518.86 4.6846c0.0727 0.7079 0.3317 1.413 0.69259 1.8826 0.46164 0.6005 1.2501 1.0024 2.205 1.1239l0.42591 0.054-0.38608 0.053c-0.52459 0.073-0.901 0.1813-1.3108 0.3787-0.27624 0.1329-0.41561 0.2362-0.70194 0.5202-0.3037 0.3011-0.38522 0.4124-0.54423 0.7435-0.89568 2.2367 0.0554 1.8506-0.85617-0.037-0.13557-0.2745-0.24488-0.4218-0.50233-0.6783-0.18106-0.1805-0.43493-0.3898-0.56431-0.4658-0.34016-0.1993-0.85921-0.366-1.3881-0.4455l-0.46164-0.069 0.40388-0.051c0.96537-0.1215 1.7642-0.5307 2.2209-1.1382 0.36384-0.4838 0.55477-0.9759 0.66754-1.7201l0.0684-0.4542z"/>
    <path id="path88605-6-3-9-8-7-0-3-56" d="m-180.46 101.79c0.0727 0.7078 0.3317 1.413 0.69259 1.8826 0.46164 0.6005 1.2501 1.0024 2.205 1.1239l0.42591 0.054-0.38608 0.053c-0.52459 0.073-0.901 0.1813-1.3108 0.3786-0.27624 0.133-0.41561 0.2363-0.70194 0.5202-0.3037 0.3012-0.38522 0.4125-0.54423 0.7436-0.89568 2.2367 0.0554 1.8506-0.85617-0.037-0.13557-0.2745-0.24488-0.4219-0.50233-0.6783-0.18106-0.1805-0.43493-0.3898-0.56431-0.4658-0.34016-0.1994-0.85921-0.366-1.3881-0.4455l-0.46164-0.069 0.40388-0.051c0.96537-0.1215 1.7642-0.5307 2.2209-1.1382 0.36384-0.4838 0.55477-0.9759 0.66754-1.7201l0.0684-0.4542z"/>
    <path id="path88605-6-3-9-8-7-0-3-96" d="m-343.97 46.224c0.0727 0.7078 0.3317 1.413 0.69259 1.8826 0.46164 0.6005 1.2501 1.0024 2.205 1.1239l0.42591 0.054-0.38608 0.053c-0.52459 0.073-0.901 0.1813-1.3108 0.3786-0.27624 0.133-0.41561 0.2363-0.70194 0.5202-0.3037 0.3012-0.38522 0.4125-0.54423 0.7436-0.89568 2.2367 0.0554 1.8506-0.85617-0.037-0.13557-0.2745-0.24488-0.4219-0.50233-0.6783-0.18106-0.1805-0.43493-0.3898-0.56431-0.4658-0.34016-0.1994-0.85921-0.366-1.3881-0.4455l-0.46164-0.069 0.40388-0.051c0.96537-0.1215 1.7642-0.5307 2.2209-1.1382 0.36384-0.4838 0.55477-0.9759 0.66754-1.7201l0.0684-0.4542z"/>
    <path id="path88605-6-3-9-8-7-0-3-94" d="m-158.23-23.097c0.0727 0.7078 0.3317 1.413 0.69259 1.8825 0.46164 0.6006 1.2501 1.0024 2.205 1.124l0.42591 0.054-0.38608 0.053c-0.52459 0.073-0.901 0.1813-1.3108 0.3786-0.27624 0.133-0.41561 0.2363-0.70194 0.5202-0.3037 0.3011-0.38522 0.4125-0.54423 0.7435-0.89568 2.2368 0.0554 1.8507-0.85617-0.037-0.13557-0.2745-0.24488-0.4218-0.50233-0.6783-0.18106-0.1804-0.43493-0.3897-0.56431-0.4657-0.34016-0.1994-0.85921-0.366-1.3881-0.4456l-0.46164-0.069 0.40388-0.051c0.96537-0.1214 1.7642-0.5306 2.2209-1.1381 0.36384-0.4838 0.55477-0.9759 0.66754-1.7201l0.0684-0.4542z"/>
    <path id="path88605-6-3-9-8-7-0-3-6" d="m629.96 57.337c0.0727 0.7078 0.3317 1.413 0.69259 1.8826 0.46164 0.6005 1.2501 1.0024 2.205 1.1239l0.42591 0.054-0.38608 0.053c-0.52459 0.073-0.901 0.1813-1.3108 0.3786-0.27624 0.133-0.41561 0.2363-0.70194 0.5202-0.3037 0.3012-0.38522 0.4125-0.54423 0.7436-0.89568 2.2367 0.0554 1.8506-0.85617-0.037-0.13557-0.2745-0.24488-0.4219-0.50233-0.6783-0.18106-0.1805-0.43493-0.3898-0.56431-0.4658-0.34016-0.1994-0.85921-0.366-1.3881-0.4455l-0.46164-0.069 0.40388-0.051c0.96537-0.1215 1.7642-0.5307 2.2209-1.1382 0.36384-0.4838 0.55477-0.9759 0.66754-1.7201l0.0684-0.4542z"/>
    <path id="path88605-6-3-9-8-7-0-3-2" d="m668.85 148.88c0.0727 0.70782 0.3317 1.413 0.69259 1.8825 0.46164 0.60054 1.2501 1.0024 2.205 1.124l0.42591 0.0542-0.38608 0.0532c-0.52459 0.0727-0.901 0.18126-1.3108 0.37861-0.27624 0.13295-0.41561 0.23627-0.70194 0.52021-0.3037 0.30112-0.38522 0.41245-0.54423 0.74351-0.89568 2.2367 0.0554 1.8507-0.85617-0.037-0.13557-0.2745-0.24488-0.42181-0.50233-0.67828-0.18106-0.18048-0.43493-0.38976-0.56431-0.46575-0.34016-0.19939-0.85921-0.366-1.3881-0.44556l-0.46164-0.0694 0.40388-0.051c0.96537-0.12146 1.7642-0.53067 2.2209-1.1382 0.36384-0.48377 0.55477-0.97587 0.66754-1.7201l0.0684-0.45424z"/>
    <path id="path88605-6-3-9-8-7-0-3-9" d="m52.904 426.43c0.0727 0.70782 0.3317 1.413 0.69259 1.8825 0.46164 0.60054 1.2501 1.0024 2.205 1.124l0.42591 0.0542-0.38608 0.0532c-0.52459 0.0727-0.901 0.18126-1.3108 0.37861-0.27624 0.13295-0.41561 0.23627-0.70194 0.52021-0.3037 0.30112-0.38522 0.41245-0.54423 0.74351-0.89568 2.2367 0.0554 1.8507-0.85617-0.037-0.13557-0.2745-0.24488-0.42181-0.50233-0.67828-0.18106-0.18048-0.43493-0.38976-0.56431-0.46575-0.34016-0.19939-0.85921-0.366-1.3881-0.44556l-0.46164-0.0694 0.40388-0.051c0.96537-0.12146 1.7642-0.53067 2.2209-1.1382 0.36384-0.48377 0.55477-0.97587 0.66754-1.7201l0.0684-0.45424z"/>
    <path id="path88605-6-3-9-8-7-0-3-4" d="m659.06 307.9c0.0727 0.70782 0.3317 1.413 0.69259 1.8825 0.46164 0.60054 1.2501 1.0024 2.205 1.124l0.42591 0.0542-0.38608 0.0532c-0.52459 0.0727-0.901 0.18126-1.3108 0.37861-0.27624 0.13295-0.41561 0.23627-0.70194 0.52021-0.3037 0.30112-0.38522 0.41245-0.54423 0.74351-0.89568 2.2367 0.0554 1.8507-0.85617-0.037-0.13557-0.2745-0.24488-0.42181-0.50233-0.67828-0.18106-0.18048-0.43493-0.38976-0.56431-0.46575-0.34016-0.19939-0.85921-0.366-1.3881-0.44556l-0.46164-0.0694 0.40388-0.051c0.96537-0.12146 1.7642-0.53067 2.2209-1.1382 0.36384-0.48377 0.55477-0.97587 0.66754-1.7201l0.0684-0.45424z"/>
    <path id="path88605-6-3-9-8-7-0-3-5" d="m699.55 253.13c0.0727 0.70782 0.3317 1.413 0.69259 1.8825 0.46164 0.60054 1.2501 1.0024 2.205 1.124l0.42591 0.0542-0.38608 0.0532c-0.52459 0.0727-0.901 0.18126-1.3108 0.37861-0.27624 0.13295-0.41561 0.23627-0.70194 0.52021-0.3037 0.30112-0.38522 0.41245-0.54423 0.74351-0.89568 2.2367 0.0554 1.8507-0.85617-0.037-0.13557-0.2745-0.24488-0.42181-0.50233-0.67828-0.18106-0.18048-0.43493-0.38976-0.56431-0.46575-0.34016-0.19939-0.85921-0.366-1.3881-0.44556l-0.46164-0.0694 0.40388-0.051c0.96537-0.12146 1.7642-0.53067 2.2209-1.1382 0.36384-0.48377 0.55477-0.97587 0.66754-1.7201l0.0684-0.45424z"/>
    <path id="path88605-6-3-9-8-7-0-3-7" d="m793.74 235.67c0.0727 0.70782 0.3317 1.413 0.69259 1.8825 0.46164 0.60054 1.2501 1.0024 2.205 1.124l0.42591 0.0542-0.38608 0.0532c-0.52459 0.0727-0.901 0.18126-1.3108 0.37861-0.27624 0.13295-0.41561 0.23627-0.70194 0.52021-0.3037 0.30112-0.38522 0.41245-0.54423 0.74351-0.89568 2.2367 0.0554 1.8507-0.85617-0.037-0.13557-0.2745-0.24488-0.42181-0.50233-0.67828-0.18106-0.18048-0.43493-0.38976-0.56431-0.46575-0.34016-0.19939-0.85921-0.366-1.3881-0.44556l-0.46164-0.0694 0.40388-0.051c0.96537-0.12146 1.7642-0.53067 2.2209-1.1382 0.36384-0.48377 0.55477-0.97587 0.66754-1.7201l0.0684-0.45424z"/>
   </g>
   <g fill-opacity=".77615" stroke-width=".04098">
    <path id="path88605-6-3-9-94-2-7-9" d="m831.31 436.22c0.0727 0.70782 0.33171 1.413 0.6926 1.8825 0.46164 0.60054 1.2501 1.0024 2.205 1.124l0.42592 0.0542-0.38608 0.0532c-0.52459 0.0727-0.901 0.18126-1.3108 0.3786-0.27624 0.13296-0.41561 0.23627-0.70195 0.52022-0.3037 0.30111-0.38521 0.41244-0.54422 0.74351-0.89569 2.2367 0.0554 1.8507-0.85618-0.037-0.13556-0.2745-0.24487-0.4218-0.50232-0.67827-0.18106-0.18049-0.43493-0.38976-0.56431-0.46576-0.34017-0.19938-0.85922-0.366-1.3881-0.44555l-0.46164-0.0695 0.40388-0.051c0.96537-0.12145 1.7642-0.53067 2.2209-1.1382 0.36384-0.48377 0.55477-0.97587 0.66754-1.7201l0.0684-0.45423z" opacity=".79465"/>
    <path id="path88605-6-3-9-94-2-7-1" d="m810.41 382.25c0.0727 0.70782 0.33171 1.413 0.6926 1.8825 0.46164 0.60054 1.2501 1.0024 2.205 1.124l0.42592 0.0542-0.38608 0.0532c-0.52459 0.0727-0.901 0.18126-1.3108 0.3786-0.27624 0.13296-0.41561 0.23627-0.70195 0.52022-0.3037 0.30111-0.38521 0.41244-0.54422 0.74351-0.89569 2.2367 0.0554 1.8507-0.85618-0.037-0.13556-0.2745-0.24487-0.4218-0.50232-0.67827-0.18106-0.18049-0.43493-0.38976-0.56431-0.46576-0.34017-0.19938-0.85922-0.366-1.3881-0.44555l-0.46164-0.0695 0.40388-0.051c0.96537-0.12145 1.7642-0.53067 2.2209-1.1382 0.36384-0.48377 0.55477-0.97587 0.66754-1.7201l0.0684-0.45423z" opacity=".79465"/>
    <path id="path88605-6-3-9-94-2-7-5" d="m713.3 444.69c0.0727 0.70782 0.33171 1.413 0.6926 1.8825 0.46164 0.60054 1.2501 1.0024 2.205 1.124l0.42592 0.0542-0.38608 0.0532c-0.52459 0.0727-0.901 0.18126-1.3108 0.3786-0.27624 0.13296-0.41561 0.23627-0.70195 0.52022-0.3037 0.30111-0.38521 0.41244-0.54422 0.74351-0.89569 2.2367 0.0554 1.8507-0.85618-0.037-0.13556-0.2745-0.24487-0.4218-0.50232-0.67827-0.18106-0.18049-0.43493-0.38976-0.56431-0.46576-0.34017-0.19938-0.85922-0.366-1.3881-0.44555l-0.46164-0.0695 0.40388-0.051c0.96537-0.12145 1.7642-0.53067 2.2209-1.1382 0.36384-0.48377 0.55477-0.97587 0.66754-1.7201l0.0684-0.45423z" opacity=".79465"/>
    <path id="path88605-6-3-9-94-2-7-6" d="m584.19 468.23c0.0727 0.70782 0.33171 1.413 0.6926 1.8825 0.46164 0.60054 1.2501 1.0024 2.205 1.124l0.42592 0.0542-0.38608 0.0532c-0.52459 0.0727-0.901 0.18126-1.3108 0.3786-0.27624 0.13296-0.41561 0.23627-0.70195 0.52022-0.3037 0.30111-0.38521 0.41244-0.54422 0.74351-0.89569 2.2367 0.0554 1.8507-0.85618-0.037-0.13556-0.2745-0.24487-0.4218-0.50232-0.67827-0.18106-0.18049-0.43493-0.38976-0.56431-0.46576-0.34017-0.19938-0.85922-0.366-1.3881-0.44555l-0.46164-0.0695 0.40388-0.051c0.96537-0.12145 1.7642-0.53067 2.2209-1.1382 0.36384-0.48377 0.55477-0.97587 0.66754-1.7201l0.0684-0.45423z" opacity=".79465"/>
   </g>
   <path id="path88605-6-6-3-9-7-4" d="m752.22 314.66c0.10715 1.043 0.48875 2.082 1.0205 2.7739 0.68021 0.88489 1.842 1.477 3.2491 1.6562l0.62758 0.08-0.56888 0.0784c-0.77297 0.10713-1.3276 0.26709-1.9315 0.55787-0.40705 0.19591-0.61239 0.34814-1.0343 0.76653-0.44749 0.44368-0.5676 0.60773-0.8019 1.0956-1.3198 3.2958 0.0815 2.7269-1.2616-0.0545-0.19976-0.40447-0.36081-0.62152-0.74017-0.99942-0.26678-0.26594-0.64086-0.5743-0.8315-0.68629-0.50123-0.29379-1.266-0.5393-2.0454-0.65651l-0.68021-0.10229 0.59512-0.0751c1.4224-0.17896 2.5996-0.78194 3.2724-1.6771 0.53611-0.71282 0.81744-1.4379 0.98361-2.5345l0.10079-0.6693z" fill-opacity=".90009" opacity=".7" stroke-width=".060383"/>
   <g fill-opacity=".31594" stroke-width=".04098">
    <path id="path88605-6-3-9-8-7-0-17-3" d="m129.9 156.56c0.0727 0.70782 0.3317 1.413 0.69259 1.8825 0.46164 0.60054 1.2501 1.0024 2.205 1.124l0.42591 0.0542-0.38608 0.0532c-0.52459 0.0727-0.901 0.18126-1.3108 0.37861-0.27624 0.13295-0.41561 0.23627-0.70194 0.52021-0.3037 0.30112-0.38522 0.41245-0.54423 0.74351-0.89568 2.2367 0.0554 1.8507-0.85617-0.037-0.13557-0.2745-0.24488-0.42181-0.50233-0.67828-0.18106-0.18048-0.43493-0.38976-0.56431-0.46575-0.34016-0.19939-0.85921-0.366-1.3881-0.44556l-0.46164-0.0694 0.40388-0.051c0.96537-0.12146 1.7642-0.53067 2.2209-1.1382 0.36384-0.48377 0.55477-0.97587 0.66754-1.7201l0.0684-0.45424z"/>
    <path id="path88605-6-3-9-8-7-0-17-2" d="m202.66 101.79c0.0727 0.7078 0.3317 1.413 0.69259 1.8825 0.46164 0.6006 1.2501 1.0024 2.205 1.124l0.42591 0.054-0.38608 0.053c-0.52459 0.073-0.901 0.1813-1.3108 0.3786-0.27624 0.133-0.41561 0.2363-0.70194 0.5202-0.3037 0.3012-0.38522 0.4125-0.54423 0.7435-0.89568 2.2368 0.0554 1.8507-0.85617-0.037-0.13557-0.2745-0.24488-0.4218-0.50233-0.6782-0.18106-0.1805-0.43493-0.3898-0.56431-0.4658-0.34016-0.1994-0.85921-0.366-1.3881-0.4455l-0.46164-0.069 0.40388-0.051c0.96537-0.1215 1.7642-0.5307 2.2209-1.1382 0.36384-0.4838 0.55477-0.9759 0.66754-1.7201l0.0684-0.4542z"/>
    <path id="path88605-6-3-9-8-7-0-17-1" d="m369.08 115.02c0.0727 0.7078 0.3317 1.413 0.69259 1.8825 0.46164 0.6006 1.2501 1.0024 2.205 1.124l0.42591 0.054-0.38608 0.053c-0.52459 0.073-0.901 0.1812-1.3108 0.3786-0.27624 0.1329-0.41561 0.2363-0.70194 0.5202-0.3037 0.3011-0.38522 0.4125-0.54423 0.7435-0.89568 2.2367 0.0554 1.8507-0.85617-0.037-0.13557-0.2745-0.24488-0.4218-0.50233-0.6783-0.18106-0.1804-0.43493-0.3897-0.56431-0.4657-0.34016-0.1994-0.85921-0.366-1.3881-0.4456l-0.46164-0.069 0.40388-0.051c0.96537-0.1214 1.7642-0.5306 2.2209-1.1381 0.36384-0.4838 0.55477-0.9759 0.66754-1.7201l0.0684-0.4543z"/>
    <path id="path88605-6-3-9-8-7-0-17-9" d="m404.54 232.23c0.0727 0.70782 0.3317 1.413 0.69259 1.8825 0.46164 0.60054 1.2501 1.0024 2.205 1.124l0.42591 0.0542-0.38608 0.0532c-0.52459 0.0727-0.901 0.18126-1.3108 0.37861-0.27624 0.13295-0.41561 0.23627-0.70194 0.52021-0.3037 0.30112-0.38522 0.41245-0.54423 0.74351-0.89568 2.2367 0.0554 1.8507-0.85617-0.037-0.13557-0.2745-0.24488-0.42181-0.50233-0.67828-0.18106-0.18048-0.43493-0.38976-0.56431-0.46575-0.34016-0.19939-0.85921-0.366-1.3881-0.44556l-0.46164-0.0694 0.40388-0.051c0.96537-0.12146 1.7642-0.53067 2.2209-1.1382 0.36384-0.48377 0.55477-0.97587 0.66754-1.7201l0.0684-0.45424z"/>
   </g>
   <path id="path88605-6-3-9-94-2-7" d="m598.21 371.13c0.0727 0.70782 0.33171 1.413 0.6926 1.8825 0.46164 0.60054 1.2501 1.0024 2.205 1.124l0.42592 0.0542-0.38608 0.0532c-0.52459 0.0727-0.901 0.18126-1.3108 0.3786-0.27624 0.13296-0.41561 0.23627-0.70195 0.52022-0.3037 0.30111-0.38521 0.41244-0.54422 0.74351-0.89569 2.2367 0.0554 1.8507-0.85618-0.037-0.13556-0.2745-0.24487-0.4218-0.50232-0.67827-0.18106-0.18049-0.43493-0.38976-0.56431-0.46576-0.34017-0.19938-0.85922-0.366-1.3881-0.44555l-0.46164-0.0695 0.40388-0.051c0.96537-0.12145 1.7642-0.53067 2.2209-1.1382 0.36384-0.48377 0.55477-0.97587 0.66754-1.7201l0.0684-0.45423z" fill-opacity=".77615" opacity=".79465" stroke-width=".04098"/>
   <path id="path88605-6-3-9-94-2-4" d="m590.54 338.32c0.0727 0.70782 0.33171 1.413 0.6926 1.8825 0.46164 0.60054 1.2501 1.0024 2.205 1.124l0.42592 0.0542-0.38608 0.0532c-0.52459 0.0727-0.901 0.18126-1.3108 0.3786-0.27624 0.13296-0.41561 0.23627-0.70195 0.52022-0.3037 0.30111-0.38521 0.41244-0.54422 0.74351-0.89569 2.2367 0.0554 1.8507-0.85618-0.037-0.13556-0.2745-0.24487-0.4218-0.50232-0.67827-0.18106-0.18049-0.43493-0.38976-0.56431-0.46576-0.34017-0.19938-0.85922-0.366-1.3881-0.44555l-0.46164-0.0695 0.40388-0.051c0.96537-0.12145 1.7642-0.53067 2.2209-1.1382 0.36384-0.48377 0.55477-0.97587 0.66754-1.7201l0.0684-0.45423z" fill-opacity=".77615" opacity=".79465" stroke-width=".04098"/>
   <path id="path88605-6-6-8-78" d="m577.17 229.26c0.0585 0.56954 0.26691 1.137 0.5573 1.5148 0.37145 0.48323 1.0059 0.80658 1.7743 0.90441l0.34271 0.0437-0.31066 0.0428c-0.42211 0.0585-0.72499 0.14585-1.0548 0.30464-0.22228 0.10698-0.33442 0.19012-0.56481 0.41859-0.24438 0.24229-0.30996 0.33187-0.43791 0.59826-0.72071 1.7998 0.0445 1.4891-0.68892-0.0298-0.10908-0.22088-0.19704-0.33941-0.4042-0.54577-0.14568-0.14523-0.34996-0.31363-0.45407-0.37477-0.27371-0.16044-0.69136-0.29451-1.117-0.35852l-0.37145-0.0559 0.32498-0.0411c0.77678-0.0977 1.4196-0.427 1.787-0.91583 0.29276-0.38926 0.44639-0.78523 0.53713-1.384l0.055-0.3655z" fill-opacity=".90009" stroke-width=".032974"/>
   <path id="path88605-6-6-8-7" d="m730.63 368.16c0.0585 0.56954 0.26691 1.137 0.5573 1.5148 0.37145 0.48323 1.0059 0.80658 1.7743 0.90441l0.34271 0.0437-0.31066 0.0428c-0.42211 0.0585-0.72499 0.14585-1.0548 0.30464-0.22228 0.10698-0.33442 0.19012-0.56481 0.41859-0.24438 0.24229-0.30996 0.33187-0.43791 0.59826-0.72071 1.7998 0.0445 1.4891-0.68892-0.0298-0.10908-0.22088-0.19704-0.33941-0.4042-0.54577-0.14568-0.14523-0.34996-0.31363-0.45407-0.37477-0.27371-0.16044-0.69136-0.29451-1.117-0.35852l-0.37145-0.0559 0.32498-0.0411c0.77678-0.0977 1.4196-0.427 1.787-0.91583 0.29276-0.38926 0.44639-0.78523 0.53713-1.384l0.055-0.3655z" fill-opacity=".90009" stroke-width=".032974"/>
   <g fill-opacity=".31594" stroke-width=".04098">
    <path id="path88605-6-3-9-8-7-0-3" d="m478.88 440.98c0.0727 0.70782 0.3317 1.413 0.69259 1.8825 0.46164 0.60054 1.2501 1.0024 2.205 1.124l0.42591 0.0542-0.38608 0.0532c-0.52459 0.0727-0.901 0.18126-1.3108 0.37861-0.27624 0.13295-0.41561 0.23627-0.70194 0.52021-0.3037 0.30112-0.38522 0.41245-0.54423 0.74351-0.89568 2.2367 0.0554 1.8507-0.85617-0.037-0.13557-0.2745-0.24488-0.42181-0.50233-0.67828-0.18106-0.18048-0.43493-0.38976-0.56431-0.46575-0.34016-0.19939-0.85921-0.366-1.3881-0.44556l-0.46164-0.0694 0.40388-0.051c0.96537-0.12146 1.7642-0.53067 2.2209-1.1382 0.36384-0.48377 0.55477-0.97587 0.66754-1.7201l0.0684-0.45424z"/>
    <path id="path88605-6-3-9-8-7-0-72" d="m169.32 409.76c0.0727 0.70782 0.3317 1.413 0.69259 1.8825 0.46164 0.60054 1.2501 1.0024 2.205 1.124l0.42591 0.0542-0.38608 0.0532c-0.52459 0.0727-0.901 0.18126-1.3108 0.37861-0.27624 0.13295-0.41561 0.23627-0.70194 0.52021-0.3037 0.30112-0.38522 0.41245-0.54423 0.74351-0.89568 2.2367 0.0554 1.8507-0.85617-0.037-0.13557-0.2745-0.24488-0.42181-0.50233-0.67828-0.18106-0.18048-0.43493-0.38976-0.56431-0.46575-0.34016-0.19939-0.85921-0.366-1.3881-0.44556l-0.46164-0.0694 0.40388-0.051c0.96537-0.12146 1.7642-0.53067 2.2209-1.1382 0.36384-0.48377 0.55477-0.97587 0.66754-1.7201l0.0684-0.45424z"/>
    <path id="path88605-6-3-9-8-7-0-90" d="m39.675 289.91c0.0727 0.70782 0.3317 1.413 0.69259 1.8825 0.46164 0.60054 1.2501 1.0024 2.205 1.124l0.42591 0.0542-0.38608 0.0532c-0.52459 0.0727-0.901 0.18126-1.3108 0.37861-0.27624 0.13295-0.41561 0.23627-0.70194 0.52021-0.3037 0.30112-0.38522 0.41245-0.54423 0.74351-0.89568 2.2367 0.0554 1.8507-0.85617-0.037-0.13557-0.2745-0.24488-0.42181-0.50233-0.67828-0.18106-0.18048-0.43493-0.38976-0.56431-0.46575-0.34016-0.19939-0.85921-0.366-1.3881-0.44556l-0.46164-0.0694 0.40388-0.051c0.96537-0.12146 1.7642-0.53067 2.2209-1.1382 0.36384-0.48377 0.55477-0.97587 0.66754-1.7201l0.0684-0.45424z"/>
    <path id="path88605-6-3-9-8-7-0-17" d="m218 244.66c0.0727 0.70782 0.3317 1.413 0.69259 1.8825 0.46164 0.60054 1.2501 1.0024 2.205 1.124l0.42591 0.0542-0.38608 0.0532c-0.52459 0.0727-0.901 0.18126-1.3108 0.37861-0.27624 0.13295-0.41561 0.23627-0.70194 0.52021-0.3037 0.30112-0.38522 0.41245-0.54423 0.74351-0.89568 2.2367 0.0554 1.8507-0.85617-0.037-0.13557-0.2745-0.24488-0.42181-0.50233-0.67828-0.18106-0.18048-0.43493-0.38976-0.56431-0.46575-0.34016-0.19939-0.85921-0.366-1.3881-0.44556l-0.46164-0.0694 0.40388-0.051c0.96537-0.12146 1.7642-0.53067 2.2209-1.1382 0.36384-0.48377 0.55477-0.97587 0.66754-1.7201l0.0684-0.45424z"/>
    <path id="path88605-6-3-9-8-7-0-7" d="m12.423 160.79c0.0727 0.70782 0.3317 1.413 0.69259 1.8825 0.46164 0.60054 1.2501 1.0024 2.205 1.124l0.42591 0.0542-0.38608 0.0532c-0.52459 0.0727-0.901 0.18126-1.3108 0.37861-0.27624 0.13295-0.41561 0.23627-0.70194 0.52021-0.3037 0.30112-0.38522 0.41245-0.54423 0.74351-0.89568 2.2367 0.0554 1.8507-0.85617-0.037-0.13557-0.2745-0.24488-0.42181-0.50233-0.67828-0.18106-0.18048-0.43493-0.38976-0.56431-0.46575-0.34016-0.19939-0.85921-0.366-1.3881-0.44556l-0.46164-0.0694 0.40388-0.051c0.96537-0.12146 1.7642-0.53067 2.2209-1.1382 0.36384-0.48377 0.55477-0.97587 0.66754-1.7201l0.0684-0.45424z"/>
    <path id="path88605-6-3-9-8-7-0-1" d="m-11.654 152.59c0.0727 0.70782 0.3317 1.413 0.69259 1.8825 0.46164 0.60054 1.2501 1.0024 2.205 1.124l0.42591 0.0542-0.38608 0.0532c-0.52459 0.0727-0.901 0.18126-1.3108 0.37861-0.27624 0.13295-0.41561 0.23627-0.70194 0.52021-0.3037 0.30112-0.38522 0.41245-0.54423 0.74351-0.89568 2.2367 0.0554 1.8507-0.85617-0.037-0.13557-0.2745-0.24488-0.42181-0.50233-0.67828-0.18106-0.18048-0.43493-0.38976-0.56431-0.46575-0.34016-0.19939-0.85921-0.366-1.3881-0.44556l-0.46164-0.0694 0.40388-0.051c0.96537-0.12146 1.7642-0.53067 2.2209-1.1382 0.36384-0.48377 0.55477-0.97587 0.66754-1.7201l0.0684-0.45424z"/>
    <path id="path88605-6-3-9-8-7-0-92" d="m-195.54 158.14c0.0727 0.70782 0.3317 1.413 0.69259 1.8825 0.46164 0.60054 1.2501 1.0024 2.205 1.124l0.42591 0.0542-0.38608 0.0532c-0.52459 0.0727-0.901 0.18126-1.3108 0.37861-0.27624 0.13295-0.41561 0.23627-0.70194 0.52021-0.3037 0.30112-0.38522 0.41245-0.54423 0.74351-0.89568 2.2367 0.0554 1.8507-0.85617-0.037-0.13557-0.2745-0.24488-0.42181-0.50233-0.67828-0.18106-0.18048-0.43493-0.38976-0.56431-0.46575-0.34016-0.19939-0.85921-0.366-1.3881-0.44556l-0.46164-0.0694 0.40388-0.051c0.96537-0.12146 1.7642-0.53067 2.2209-1.1382 0.36384-0.48377 0.55477-0.97587 0.66754-1.7201l0.0684-0.45424z"/>
    <path id="path88605-6-3-9-8-7-0-9" d="m-98.438 229.58c0.0727 0.70782 0.3317 1.413 0.69259 1.8825 0.46164 0.60054 1.2501 1.0024 2.205 1.124l0.42591 0.0542-0.38608 0.0532c-0.52459 0.0727-0.901 0.18126-1.3108 0.37861-0.27624 0.13295-0.41561 0.23627-0.70194 0.52021-0.3037 0.30112-0.38522 0.41245-0.54423 0.74351-0.89568 2.2367 0.0554 1.8507-0.85617-0.037-0.13557-0.2745-0.24488-0.42181-0.50233-0.67828-0.18106-0.18048-0.43493-0.38976-0.56431-0.46575-0.34016-0.19939-0.85921-0.366-1.3881-0.44556l-0.46164-0.0694 0.40388-0.051c0.96537-0.12146 1.7642-0.53067 2.2209-1.1382 0.36384-0.48377 0.55477-0.97587 0.66754-1.7201l0.0684-0.45424z"/>
    <path id="path88605-6-3-9-8-7-26" d="m-189.98 368.22c0.0727 0.70782 0.3317 1.413 0.69259 1.8825 0.46164 0.60054 1.2501 1.0024 2.205 1.124l0.42591 0.0542-0.38608 0.0532c-0.52459 0.0727-0.901 0.18126-1.3108 0.37861-0.27624 0.13295-0.41561 0.23627-0.70194 0.52021-0.3037 0.30112-0.38522 0.41245-0.54423 0.74351-0.89568 2.2367 0.0554 1.8507-0.85617-0.037-0.13557-0.2745-0.24488-0.42181-0.50233-0.67828-0.18106-0.18048-0.43493-0.38976-0.56431-0.46575-0.34016-0.19939-0.85921-0.366-1.3881-0.44556l-0.46164-0.0694 0.40388-0.051c0.96537-0.12146 1.7642-0.53067 2.2209-1.1382 0.36384-0.48377 0.55477-0.97587 0.66754-1.7201l0.0684-0.45424z"/>
    <path id="path88605-6-3-9-8-7-5" d="m-225.44 451.57c0.0727 0.70782 0.3317 1.413 0.69259 1.8825 0.46164 0.60054 1.2501 1.0024 2.205 1.124l0.42591 0.0542-0.38608 0.0532c-0.52459 0.0727-0.901 0.18126-1.3108 0.37861-0.27624 0.13295-0.41561 0.23627-0.70194 0.52021-0.3037 0.30112-0.38522 0.41245-0.54423 0.74351-0.89568 2.2367 0.0554 1.8507-0.85617-0.037-0.13557-0.2745-0.24488-0.42181-0.50233-0.67828-0.18106-0.18048-0.43493-0.38976-0.56431-0.46575-0.34016-0.19939-0.85921-0.366-1.3881-0.44556l-0.46164-0.0694 0.40388-0.051c0.96537-0.12146 1.7642-0.53067 2.2209-1.1382 0.36384-0.48377 0.55477-0.97587 0.66754-1.7201l0.0684-0.45424z"/>
    <path id="path88605-6-3-9-8-7-2" d="m-656.18 263.45c0.0727 0.70782 0.3317 1.413 0.69259 1.8825 0.46164 0.60054 1.2501 1.0024 2.205 1.124l0.42591 0.0542-0.38608 0.0532c-0.52459 0.0727-0.901 0.18126-1.3108 0.37861-0.27624 0.13295-0.41561 0.23627-0.70194 0.52021-0.3037 0.30112-0.38522 0.41245-0.54423 0.74351-0.89568 2.2367 0.0554 1.8507-0.85617-0.037-0.13557-0.2745-0.24488-0.42181-0.50233-0.67828-0.18106-0.18048-0.43493-0.38976-0.56431-0.46575-0.34016-0.19939-0.85921-0.366-1.3881-0.44556l-0.46164-0.0694 0.40388-0.051c0.96537-0.12146 1.7642-0.53067 2.2209-1.1382 0.36384-0.48377 0.55477-0.97587 0.66754-1.7201l0.0684-0.45424z"/>
    <path id="path88605-6-3-9-8-7-0" d="m-213 262.12c0.0727 0.70782 0.3317 1.413 0.69259 1.8825 0.46164 0.60054 1.2501 1.0024 2.205 1.124l0.42591 0.0542-0.38608 0.0532c-0.52459 0.0727-0.901 0.18126-1.3108 0.37861-0.27624 0.13295-0.41561 0.23627-0.70194 0.52021-0.3037 0.30112-0.38522 0.41245-0.54423 0.74351-0.89568 2.2367 0.0554 1.8507-0.85617-0.037-0.13557-0.2745-0.24488-0.42181-0.50233-0.67828-0.18106-0.18048-0.43493-0.38976-0.56431-0.46575-0.34016-0.19939-0.85921-0.366-1.3881-0.44556l-0.46164-0.0694 0.40388-0.051c0.96537-0.12146 1.7642-0.53067 2.2209-1.1382 0.36384-0.48377 0.55477-0.97587 0.66754-1.7201l0.0684-0.45424z"/>
    <path id="path88605-6-3-9-8-7-1" d="m-334.45 203.12c0.0727 0.70782 0.3317 1.413 0.69259 1.8825 0.46164 0.60054 1.2501 1.0024 2.205 1.124l0.42591 0.0542-0.38608 0.0532c-0.52459 0.0727-0.901 0.18126-1.3108 0.37861-0.27624 0.13295-0.41561 0.23627-0.70194 0.52021-0.3037 0.30112-0.38522 0.41245-0.54423 0.74351-0.89568 2.2367 0.0554 1.8507-0.85617-0.037-0.13557-0.2745-0.24488-0.42181-0.50233-0.67828-0.18106-0.18048-0.43493-0.38976-0.56431-0.46575-0.34016-0.19939-0.85921-0.366-1.3881-0.44556l-0.46164-0.0694 0.40388-0.051c0.96537-0.12146 1.7642-0.53067 2.2209-1.1382 0.36384-0.48377 0.55477-0.97587 0.66754-1.7201l0.0684-0.45424z"/>
    <path id="path88605-6-3-9-8-7-7" d="m-555.11 230.9c0.0727 0.70782 0.3317 1.413 0.69259 1.8825 0.46164 0.60054 1.2501 1.0024 2.205 1.124l0.42591 0.0542-0.38608 0.0532c-0.52459 0.0727-0.901 0.18126-1.3108 0.37861-0.27624 0.13295-0.41561 0.23627-0.70194 0.52021-0.3037 0.30112-0.38522 0.41245-0.54423 0.74351-0.89568 2.2367 0.0554 1.8507-0.85617-0.037-0.13557-0.2745-0.24488-0.42181-0.50233-0.67828-0.18106-0.18048-0.43493-0.38976-0.56431-0.46575-0.34016-0.19939-0.85921-0.366-1.3881-0.44556l-0.46164-0.0694 0.40388-0.051c0.96537-0.12146 1.7642-0.53067 2.2209-1.1382 0.36384-0.48377 0.55477-0.97587 0.66754-1.7201l0.0684-0.45424z"/>
   </g>
   <path id="path88605-6-3-9-12" d="m-80.354 329.15c0.0727 0.70782 0.3317 1.413 0.6926 1.8825 0.46163 0.60054 1.2501 1.0024 2.205 1.124l0.42592 0.0542-0.38609 0.0532c-0.52458 0.0727-0.901 0.18126-1.3108 0.3786-0.27624 0.13295-0.41561 0.23627-0.70194 0.52021-0.3037 0.30112-0.38521 0.41245-0.54422 0.74352-0.89569 2.2367 0.0554 1.8507-0.85618-0.037-0.13557-0.2745-0.24488-0.42181-0.50233-0.67827-0.18105-0.18049-0.43493-0.38976-0.5643-0.46576-0.34017-0.19938-0.85922-0.366-1.3881-0.44555l-0.46163-0.0694 0.40388-0.051c0.96537-0.12145 1.7642-0.53067 2.2209-1.1382 0.36384-0.48377 0.55477-0.97587 0.66754-1.7201l0.0684-0.45423z" fill-opacity=".77615" stroke-width=".04098"/>
  </g>
  <path id="path88605-6-3-9-62-2" d="m-250.4 333.81c0.0727 0.70782 0.3317 1.413 0.69259 1.8825 0.46164 0.60054 1.2501 1.0024 2.205 1.124l0.42591 0.0542-0.38608 0.0532c-0.52459 0.0727-0.901 0.18126-1.3108 0.37861-0.27624 0.13295-0.41561 0.23627-0.70194 0.52021-0.3037 0.30111-0.38522 0.41245-0.54423 0.74351-0.89568 2.2367 0.0554 1.8507-0.85617-0.037-0.13557-0.27451-0.24488-0.42181-0.50233-0.67828-0.18106-0.18048-0.43493-0.38976-0.56431-0.46576-0.34016-0.19938-0.85921-0.366-1.3881-0.44555l-0.46164-0.0694 0.40388-0.051c0.96538-0.12146 1.7642-0.53067 2.2209-1.1382 0.36384-0.48377 0.55477-0.97586 0.66754-1.7201l0.0684-0.45424z" fill="#fcf1b9" fill-opacity=".77615" stroke-width=".04098"/>
  <g fill="#fdf4c8">
   <path id="path88605-6-3-9-61-4" d="m-310.76 443.1c0.0938 0.91338 0.42803 1.8233 0.89373 2.4292 0.59569 0.77494 1.6131 1.2935 2.8454 1.4504l0.54961 0.07-0.49821 0.0687c-0.67693 0.0938-1.1627 0.2339-1.6915 0.48855-0.35646 0.17157-0.5363 0.3049-0.90579 0.6713-0.3919 0.38855-0.49709 0.53222-0.70228 0.95943-1.1558 2.8863 0.0714 2.3881-1.1048-0.0478-0.17494-0.35421-0.31599-0.5443-0.64821-0.87525-0.23364-0.2329-0.56124-0.50295-0.72819-0.60101-0.43895-0.25729-1.1087-0.4723-1.7913-0.57495l-0.5957-0.0896 0.52117-0.0658c1.2457-0.15673 2.2766-0.68478 2.8658-1.4687 0.4695-0.62426 0.71588-1.2593 0.8614-2.2196l0.0882-0.58614z" fill-opacity=".60811" stroke-width=".05288"/>
   <g stroke-width=".04098">
    <path id="path88605-6-3-9-8-7" d="m-303.98 309.66c0.0727 0.70782 0.3317 1.413 0.69259 1.8825 0.46164 0.60054 1.2501 1.0024 2.205 1.124l0.42591 0.0542-0.38608 0.0532c-0.52459 0.0727-0.901 0.18126-1.3108 0.37861-0.27624 0.13295-0.41561 0.23627-0.70194 0.52021-0.3037 0.30112-0.38522 0.41245-0.54423 0.74351-0.89568 2.2367 0.0554 1.8507-0.85617-0.037-0.13557-0.2745-0.24488-0.42181-0.50233-0.67828-0.18106-0.18048-0.43493-0.38976-0.56431-0.46575-0.34016-0.19939-0.85921-0.366-1.3881-0.44556l-0.46164-0.0694 0.40388-0.051c0.96537-0.12146 1.7642-0.53067 2.2209-1.1382 0.36384-0.48377 0.55477-0.97587 0.66754-1.7201l0.0684-0.45424z" fill-opacity=".31594"/>
    <path id="path88605-6-3-9-02-9" d="m-444.98 430.89c0.0727 0.70782 0.3317 1.413 0.6926 1.8825 0.46163 0.60054 1.2501 1.0024 2.205 1.124l0.42592 0.0542-0.38609 0.0532c-0.52458 0.0727-0.901 0.18126-1.3108 0.3786-0.27624 0.13296-0.41561 0.23628-0.70194 0.52022-0.3037 0.30111-0.38521 0.41244-0.54422 0.74351-0.89569 2.2367 0.0554 1.8507-0.85618-0.037-0.13557-0.27451-0.24488-0.42181-0.50233-0.67828-0.18105-0.18049-0.43493-0.38976-0.5643-0.46576-0.34017-0.19938-0.85922-0.366-1.3881-0.44555l-0.46163-0.0695 0.40388-0.051c0.96537-0.12145 1.7642-0.53067 2.2209-1.1382 0.36384-0.48377 0.55477-0.97587 0.66754-1.7201l0.0684-0.45423z" fill-opacity=".37206"/>
    <path id="path88605-6-3-9-37-5" d="m-525.1 301.36c0.0727 0.70782 0.33171 1.413 0.6926 1.8825 0.46164 0.60054 1.2501 1.0024 2.205 1.124l0.42592 0.0542-0.38608 0.0532c-0.52459 0.0727-0.90101 0.18127-1.3108 0.37861-0.27625 0.13295-0.41561 0.23627-0.70195 0.52021-0.3037 0.30112-0.38521 0.41245-0.54422 0.74352-0.89569 2.2367 0.0554 1.8506-0.85618-0.037-0.13556-0.2745-0.24487-0.42181-0.50233-0.67828-0.18105-0.18048-0.43493-0.38975-0.5643-0.46575-0.34017-0.19938-0.85922-0.366-1.3881-0.44555l-0.46164-0.0695 0.40388-0.051c0.96537-0.12145 1.7642-0.53067 2.2209-1.1382 0.36384-0.48377 0.55477-0.97587 0.66754-1.7201l0.0684-0.45424z" fill-opacity=".77615"/>
    <path id="path88605-6-3-9-5-8" d="m-533.66 391.61c0.0727 0.70782 0.3317 1.413 0.6926 1.8825 0.46163 0.60054 1.2501 1.0024 2.205 1.124l0.42591 0.0542-0.38608 0.0532c-0.52459 0.0727-0.901 0.18126-1.3108 0.3786-0.27624 0.13296-0.41561 0.23627-0.70194 0.52022-0.3037 0.30111-0.38521 0.41244-0.54423 0.74351-0.89568 2.2367 0.0554 1.8507-0.85617-0.037-0.13557-0.2745-0.24488-0.4218-0.50233-0.67827-0.18106-0.18049-0.43493-0.38976-0.56431-0.46576-0.34016-0.19938-0.85921-0.366-1.3881-0.44555l-0.46163-0.0694 0.40388-0.051c0.96537-0.12145 1.7642-0.53067 2.2209-1.1382 0.36384-0.48377 0.55477-0.97587 0.66754-1.7201l0.0684-0.45423z" fill-opacity=".77615"/>
    <path id="path88605-6-3-9-28-4" d="m-593.68 340.77c0.0727 0.70782 0.3317 1.413 0.6926 1.8825 0.46163 0.60054 1.2501 1.0024 2.205 1.124l0.42591 0.0542-0.38608 0.0532c-0.52459 0.0727-0.901 0.18126-1.3108 0.37861-0.27624 0.13295-0.41561 0.23627-0.70194 0.52021-0.3037 0.30111-0.38521 0.41245-0.54422 0.74351-0.89569 2.2367 0.0554 1.8507-0.85618-0.037-0.13557-0.27451-0.24488-0.42181-0.50233-0.67828-0.18105-0.18048-0.43493-0.38976-0.56431-0.46576-0.34016-0.19938-0.85921-0.366-1.3881-0.44555l-0.46163-0.0695 0.40388-0.051c0.96537-0.12146 1.7642-0.53067 2.2209-1.1382 0.36384-0.48377 0.55477-0.97586 0.66754-1.7201l0.0684-0.45424z" fill-opacity=".37339"/>
    <path id="path88605-6-3-9-97-2" d="m-643.58 359.47c0.0727 0.70782 0.33171 1.413 0.6926 1.8825 0.46164 0.60054 1.2501 1.0024 2.205 1.124l0.42592 0.0542-0.38608 0.0532c-0.52459 0.0727-0.90101 0.18126-1.3108 0.3786-0.27625 0.13296-0.41561 0.23627-0.70195 0.52022-0.3037 0.30111-0.38521 0.41244-0.54422 0.74351-0.89569 2.2367 0.0554 1.8507-0.85618-0.037-0.13556-0.2745-0.24487-0.4218-0.50233-0.67827-0.18105-0.18049-0.43493-0.38976-0.5643-0.46576-0.34017-0.19938-0.85922-0.366-1.3881-0.44555l-0.46164-0.0695 0.40388-0.051c0.96537-0.12145 1.7642-0.53067 2.2209-1.1382 0.36384-0.48377 0.55477-0.97587 0.66754-1.7201l0.0684-0.45423z" fill-opacity=".77615"/>
   </g>
  </g>
  <path id="path88635-0" d="m-610.48 441.19c-0.16785 1.6341-0.76536 3.2622-1.5992 4.3463-1.0657 1.3866-2.8861 2.3146-5.0908 2.5949l-0.98333 0.12645 0.89154 0.12426c1.2109 0.16782 2.08 0.41851 3.0265 0.87433 0.63761 0.30733 0.95936 0.54537 1.6205 1.2011 0.70106 0.69538 0.8894 0.9524 1.2565 1.7166 2.0678 5.1643-0.12864 4.2728 1.9769-0.0894 0.31305-0.63349 0.56525-0.97372 1.1597-1.566 0.41766-0.41615 1.0042-0.90029 1.3027-1.0754 0.78519-0.46058 1.9841-0.84536 3.2053-1.0289l1.0657-0.15913-0.93253-0.1177c-2.2287-0.28014-4.0733-1.2251-5.1277-2.6276-0.83968-1.1172-1.2807-2.2533-1.5412-3.9715l-0.15915-1.0487z" fill="#fbc02d" opacity=".25922" stroke-width=".094615"/>
  <g fill="#fdf4c8">
   <path id="path88605-6-33" d="m314.84 340.72c0.10621 1.0339 0.48451 2.064 1.0117 2.7498 0.6743 0.87721 1.826 1.4642 3.2209 1.6418l0.62214 0.0793-0.56395 0.0777c-0.76627 0.10619-1.3161 0.26476-1.9148 0.55303-0.40351 0.1942-0.60708 0.34512-1.0253 0.75988-0.44362 0.43984-0.56269 0.60246-0.79496 1.086-1.3083 3.2672 0.0809 2.7033-1.2506-0.054-0.19803-0.40096-0.35769-0.61613-0.73376-0.99076-0.26446-0.26363-0.6353-0.56932-0.82428-0.68033-0.49688-0.29124-1.2551-0.53462-2.0276-0.65081l-0.67432-0.10146 0.58996-0.0745c1.4101-0.17741 2.577-0.77515 3.244-1.6625 0.53147-0.70664 0.81035-1.4254 0.97508-2.5125l0.0999-0.6635z" fill-opacity=".74157" opacity=".79465" stroke-width=".059859"/>
   <path id="path88605-6-6-8" d="m409.25 384.3c0.0585 0.56954 0.26691 1.137 0.5573 1.5148 0.37145 0.48323 1.0059 0.80658 1.7743 0.90441l0.34271 0.0437-0.31066 0.0428c-0.42211 0.0585-0.72499 0.14585-1.0548 0.30464-0.22228 0.10698-0.33442 0.19012-0.56481 0.41859-0.24438 0.24229-0.30996 0.33187-0.43791 0.59826-0.72071 1.7998 0.0445 1.4891-0.68892-0.0298-0.10908-0.22088-0.19704-0.33941-0.4042-0.54577-0.14568-0.14523-0.34996-0.31363-0.45407-0.37477-0.27371-0.16044-0.69136-0.29451-1.117-0.35852l-0.37145-0.0559 0.32498-0.0411c0.77678-0.0977 1.4196-0.427 1.787-0.91583 0.29276-0.38926 0.44639-0.78523 0.53713-1.384l0.055-0.3655z" fill-opacity=".90009" stroke-width=".032974"/>
   <path id="path88605-6-6-3-6-3" d="m472.59 325.33c0.0771 0.75047 0.35165 1.4981 0.7343 1.996 0.48947 0.63673 1.3254 1.0628 2.3378 1.1917l0.45164 0.0575-0.40941 0.0564c-0.55616 0.0771-0.95526 0.19219-1.3898 0.40142-0.29289 0.14097-0.44064 0.25051-0.74422 0.55156-0.32196 0.31925-0.40841 0.43729-0.577 0.78831-0.94965 2.3715 0.0584 1.9622-0.90781-0.0392-0.14368-0.29104-0.25958-0.44722-0.53255-0.71914-0.19198-0.19136-0.46117-0.41324-0.59831-0.49382-0.36065-0.21139-0.91096-0.38805-1.4718-0.47239l-0.4894-0.0736 0.42817-0.0541c1.0236-0.12877 1.8705-0.56264 2.3547-1.2068 0.38572-0.51292 0.58815-1.0347 0.70775-1.8237l0.0723-0.4816z" fill-opacity=".54929" stroke-width=".043449"/>
   <path id="path88605-6-6-3-2-3" d="m-0.15969 472.08c0.0771 0.75047 0.35169 1.4981 0.73433 1.996 0.48945 0.63673 1.3254 1.0628 2.3379 1.1917l0.45159 0.0575-0.40935 0.0564c-0.55619 0.0771-0.95529 0.19218-1.3898 0.40142-0.29288 0.14096-0.44064 0.2505-0.74422 0.55156-0.322 0.31925-0.40843 0.43729-0.57702 0.78831-0.94965 2.3715 0.0587 1.9622-0.90777-0.0392-0.14373-0.29104-0.25963-0.44722-0.53259-0.71914-0.19196-0.19136-0.46114-0.41324-0.59831-0.49382-0.36066-0.2114-0.91098-0.38805-1.4718-0.4724l-0.48945-0.0736 0.42822-0.0541c1.0235-0.12877 1.8705-0.56265 2.3547-1.2068 0.38576-0.51291 0.5882-1.0347 0.70776-1.8237l0.0725-0.4816z" fill-opacity=".36501" stroke-width=".043449"/>
   <g fill-opacity=".31594" stroke-width=".03216">
    <path id="path88605-6-3-9-8-7-0-3-08-7" d="m-611.7-189.03c-0.0571 0.55547-0.26032 1.1089-0.54354 1.4774-0.36229 0.47135-0.98105 0.78668-1.7305 0.88211l-0.33425 0.0424 0.30299 0.0416c0.41169 0.0573 0.7071 0.14228 1.0287 0.29712 0.21679 0.10438 0.32617 0.18544 0.55088 0.40825 0.23834 0.2363 0.30231 0.32372 0.4271 0.58349 0.70292 1.7554-0.0435 1.4524 0.67191-0.029 0.1064-0.21543 0.19218-0.33102 0.39423-0.53224 0.14209-0.14166 0.34132-0.30591 0.44286-0.36556 0.26695-0.15649 0.6743-0.28723 1.0894-0.3497l0.36229-0.0541-0.31696-0.04c-0.75761-0.0953-1.3846-0.41641-1.7429-0.89317-0.28553-0.37968-0.43537-0.76588-0.52387-1.3499l-0.0537-0.35645z"/>
    <path id="path88605-6-3-9-8-7-0-3-48-2" d="m-592.18-60.504c-0.0571 0.55548-0.26032 1.1089-0.54354 1.4774-0.36229 0.47134-0.98105 0.78667-1.7305 0.8821l-0.33425 0.0424 0.30299 0.0416c0.41169 0.0573 0.70709 0.14228 1.0287 0.29712 0.21679 0.10438 0.32616 0.18545 0.55087 0.40825 0.23834 0.2363 0.30232 0.32372 0.42711 0.58349 0.70292 1.7554-0.0435 1.4524 0.67191-0.029 0.10639-0.21542 0.19218-0.33102 0.39422-0.53232 0.1421-0.14158 0.34133-0.30583 0.44287-0.36548 0.26695-0.15648 0.6743-0.28723 1.0894-0.3497l0.36229-0.0541-0.31696-0.04c-0.75762-0.0953-1.3846-0.41641-1.7429-0.89317-0.28553-0.37968-0.43537-0.76587-0.52388-1.3499l-0.0537-0.35645z"/>
    <path id="path88605-6-3-9-8-7-0-3-0-9" d="m557.95-38.909c-0.0571 0.55549-0.26031 1.1089-0.54354 1.4774-0.36228 0.47129-0.98104 0.78667-1.7305 0.88207l-0.33425 0.0425 0.30299 0.0418c0.4117 0.057 0.7071 0.14225 1.0287 0.29713 0.21679 0.10434 0.32617 0.18542 0.55088 0.40825 0.23834 0.23632 0.30232 0.32369 0.4271 0.5835 0.70292 1.7554-0.0435 1.4524 0.67192-0.029 0.10639-0.21542 0.19218-0.33103 0.39422-0.5323 0.14209-0.14164 0.34133-0.30588 0.44286-0.36552 0.26696-0.15648 0.6743-0.28723 1.0894-0.34967l0.36229-0.0545-0.31696-0.04c-0.75761-0.0953-1.3846-0.41646-1.7429-0.89322-0.28554-0.37966-0.43538-0.76585-0.52388-1.3499l-0.0537-0.35648z"/>
    <path id="path88605-6-3-9-8-7-0-3-59-7" d="m520.78-73.585c-0.0571 0.55555-0.26031 1.1089-0.54354 1.4774-0.36229 0.47126-0.98104 0.78667-1.7305 0.88202l-0.33425 0.0424 0.30299 0.0416c0.4117 0.0573 0.7071 0.14228 1.0287 0.2972 0.21679 0.1043 0.32617 0.18537 0.55088 0.40825 0.23834 0.2363 0.30231 0.32364 0.4271 0.58349 0.70292 1.7553-0.0435 1.4523 0.67192-0.029 0.10639-0.21542 0.19217-0.33102 0.39422-0.53232 0.14209-0.14166 0.34133-0.30591 0.44286-0.36556 0.26696-0.1564 0.6743-0.28723 1.0894-0.34962l0.36229-0.0541-0.31696-0.04c-0.75761-0.0954-1.3846-0.41649-1.7429-0.89325-0.28554-0.37968-0.43538-0.7658-0.52388-1.3499l-0.0537-0.35645z"/>
    <path id="path88605-6-3-9-8-7-0-3-77-9" d="m444.58-152.07c-0.0571 0.55555-0.26031 1.1089-0.54353 1.4774-0.36229 0.47126-0.98105 0.78667-1.7305 0.88202l-0.33425 0.0424 0.30299 0.0416c0.41169 0.0573 0.70709 0.14229 1.0287 0.2972 0.21679 0.1043 0.32616 0.18537 0.55087 0.40825 0.23834 0.2363 0.30232 0.32365 0.42711 0.58349 0.70292 1.7553-0.0435 1.4523 0.67191-0.029 0.10639-0.21542 0.19218-0.33102 0.39422-0.53232 0.1421-0.14165 0.34133-0.30591 0.44287-0.36555 0.26695-0.15641 0.67429-0.28724 1.0894-0.34963l0.36228-0.0541-0.31696-0.04c-0.75761-0.0953-1.3846-0.41649-1.7429-0.89325-0.28554-0.37968-0.43538-0.76587-0.52388-1.3499l-0.0537-0.35645z"/>
    <path id="path88605-6-3-9-8-7-0-3-56-4" d="m179-75.869c-0.0571 0.55548-0.26032 1.1089-0.54354 1.4774-0.36229 0.47126-0.98105 0.78667-1.7305 0.88202l-0.33425 0.0424 0.30299 0.0416c0.41169 0.0573 0.7071 0.14229 1.0287 0.29712 0.21679 0.10438 0.32617 0.18545 0.55088 0.40825 0.23834 0.23638 0.30231 0.32373 0.4271 0.58357 0.70292 1.7553-0.0435 1.4523 0.67191-0.029 0.1064-0.21542 0.19218-0.3311 0.39423-0.53232 0.14209-0.14165 0.34132-0.30591 0.44286-0.36555 0.26695-0.15649 0.6743-0.28724 1.0894-0.34963l0.36229-0.0541-0.31696-0.04c-0.75761-0.0953-1.3846-0.41649-1.7429-0.89325-0.28553-0.37968-0.43537-0.76587-0.52387-1.3499l-0.0537-0.35645z"/>
    <path id="path88605-6-3-9-8-7-0-3-56-4-6" d="m-198.74-229.42c-0.0571 0.55548-0.26032 1.1089-0.54354 1.4774-0.36229 0.47126-0.98105 0.78667-1.7305 0.88202l-0.33425 0.0424 0.30299 0.0416c0.41169 0.0573 0.7071 0.14229 1.0287 0.29712 0.21679 0.10438 0.32617 0.18545 0.55088 0.40825 0.23834 0.23638 0.30231 0.32373 0.4271 0.58357 0.70292 1.7553-0.0435 1.4523 0.67191-0.029 0.1064-0.21542 0.19218-0.3311 0.39423-0.53232 0.14209-0.14165 0.34132-0.30591 0.44286-0.36555 0.26695-0.15649 0.6743-0.28724 1.0894-0.34963l0.36229-0.0541-0.31696-0.04c-0.75761-0.0953-1.3846-0.41649-1.7429-0.89325-0.28553-0.37968-0.43537-0.76587-0.52387-1.3499l-0.0537-0.35645z"/>
    <path id="path88605-6-3-9-8-7-0-3-56-4-4" d="m-303.25-268.31c-0.0571 0.55548-0.26032 1.1089-0.54354 1.4774-0.36229 0.47126-0.98105 0.78667-1.7305 0.88202l-0.33425 0.0424 0.30299 0.0416c0.41169 0.0573 0.7071 0.14229 1.0287 0.29712 0.21679 0.10438 0.32617 0.18545 0.55088 0.40825 0.23834 0.23638 0.30231 0.32373 0.4271 0.58357 0.70292 1.7553-0.0435 1.4523 0.67191-0.029 0.1064-0.21542 0.19218-0.3311 0.39423-0.53232 0.14209-0.14165 0.34132-0.30591 0.44286-0.36555 0.26695-0.15649 0.6743-0.28724 1.0894-0.34963l0.36229-0.0541-0.31696-0.04c-0.75761-0.0953-1.3846-0.41649-1.7429-0.89325-0.28553-0.37968-0.43537-0.76587-0.52387-1.3499l-0.0537-0.35645z"/>
    <path id="path88605-6-3-9-8-7-0-3-56-4-9" d="m-522.06-224.39c-0.0571 0.55548-0.26032 1.1089-0.54354 1.4774-0.36229 0.47126-0.98105 0.78667-1.7305 0.88202l-0.33425 0.0424 0.30299 0.0416c0.41169 0.0573 0.7071 0.14229 1.0287 0.29712 0.21679 0.10438 0.32617 0.18545 0.55088 0.40825 0.23834 0.23638 0.30231 0.32373 0.4271 0.58357 0.70292 1.7553-0.0435 1.4523 0.67191-0.029 0.1064-0.21542 0.19218-0.3311 0.39423-0.53232 0.14209-0.14165 0.34132-0.30591 0.44286-0.36555 0.26695-0.15649 0.6743-0.28724 1.0894-0.34963l0.36229-0.0541-0.31696-0.04c-0.75761-0.0953-1.3846-0.41649-1.7429-0.89325-0.28553-0.37968-0.43537-0.76587-0.52387-1.3499l-0.0537-0.35645z"/>
    <path id="path88605-6-3-9-8-7-0-3-56-4-2" d="m550.03-397.17c-0.0571 0.55548-0.26032 1.1089-0.54354 1.4774-0.36229 0.47126-0.98105 0.78667-1.7305 0.88202l-0.33425 0.0424 0.30299 0.0416c0.41169 0.0573 0.7071 0.14229 1.0287 0.29712 0.21679 0.10438 0.32617 0.18545 0.55088 0.40825 0.23834 0.23638 0.30231 0.32373 0.4271 0.58357 0.70292 1.7553-0.0435 1.4523 0.67191-0.029 0.1064-0.21542 0.19218-0.3311 0.39423-0.53232 0.14209-0.14165 0.34132-0.30591 0.44286-0.36555 0.26695-0.15649 0.6743-0.28724 1.0894-0.34963l0.36229-0.0541-0.31696-0.04c-0.75761-0.0953-1.3846-0.41649-1.7429-0.89325-0.28553-0.37968-0.43537-0.76587-0.52387-1.3499l-0.0537-0.35645z"/>
    <path id="path88605-6-3-9-8-7-0-3-56-4-1" d="m545.27-275.46c-0.0571 0.55548-0.26032 1.1089-0.54354 1.4774-0.36229 0.47126-0.98105 0.78667-1.7305 0.88202l-0.33425 0.0424 0.30299 0.0416c0.41169 0.0573 0.7071 0.14229 1.0287 0.29712 0.21679 0.10438 0.32617 0.18545 0.55088 0.40825 0.23834 0.23638 0.30231 0.32373 0.4271 0.58357 0.70292 1.7553-0.0435 1.4523 0.67191-0.029 0.1064-0.21542 0.19218-0.3311 0.39423-0.53232 0.14209-0.14165 0.34132-0.30591 0.44286-0.36555 0.26695-0.15649 0.6743-0.28724 1.0894-0.34963l0.36229-0.0541-0.31696-0.04c-0.75761-0.0953-1.3846-0.41649-1.7429-0.89325-0.28553-0.37968-0.43537-0.76587-0.52387-1.3499l-0.0537-0.35645z"/>
    <path id="path88605-6-3-9-8-7-0-3-56-4-0" d="m710.63-355.63c-0.0571 0.55548-0.26032 1.1089-0.54354 1.4774-0.36229 0.47126-0.98105 0.78667-1.7305 0.88202l-0.33425 0.0424 0.30299 0.0416c0.41169 0.0573 0.7071 0.14229 1.0287 0.29712 0.21679 0.10438 0.32617 0.18545 0.55088 0.40825 0.23834 0.23638 0.30231 0.32373 0.4271 0.58357 0.70292 1.7553-0.0435 1.4523 0.67191-0.029 0.1064-0.21542 0.19218-0.3311 0.39423-0.53232 0.14209-0.14165 0.34132-0.30591 0.44286-0.36555 0.26695-0.15649 0.6743-0.28724 1.0894-0.34963l0.36229-0.0541-0.31696-0.04c-0.75761-0.0953-1.3846-0.41649-1.7429-0.89325-0.28553-0.37968-0.43537-0.76587-0.52387-1.3499l-0.0537-0.35645z"/>
    <path id="path88605-6-3-9-8-7-0-3-56-4-22" d="m-30.994-460.4c-0.0571 0.55548-0.26032 1.1089-0.54354 1.4774-0.36229 0.47126-0.98105 0.78667-1.7305 0.88202l-0.33425 0.0424 0.30299 0.0416c0.41169 0.0573 0.7071 0.14229 1.0287 0.29712 0.21679 0.10438 0.32617 0.18545 0.55088 0.40825 0.23834 0.23638 0.30231 0.32373 0.4271 0.58357 0.70292 1.7553-0.0435 1.4523 0.67191-0.029 0.1064-0.21542 0.19218-0.3311 0.39423-0.53232 0.14209-0.14165 0.34132-0.30591 0.44286-0.36555 0.26695-0.15649 0.6743-0.28724 1.0894-0.34963l0.36229-0.0541-0.31696-0.04c-0.75761-0.0953-1.3846-0.41649-1.7429-0.89325-0.28553-0.37968-0.43537-0.76587-0.52387-1.3499l-0.0537-0.35645z"/>
    <path id="path88605-6-3-9-8-7-0-3-56-4-8" d="m-388.45-328.9c-0.0571 0.55548-0.26032 1.1089-0.54354 1.4774-0.36229 0.47126-0.98105 0.78667-1.7305 0.88202l-0.33425 0.0424 0.30299 0.0416c0.41169 0.0573 0.7071 0.14229 1.0287 0.29712 0.21679 0.10438 0.32617 0.18545 0.55088 0.40825 0.23834 0.23638 0.30231 0.32373 0.4271 0.58357 0.70292 1.7553-0.0435 1.4523 0.67191-0.029 0.1064-0.21542 0.19218-0.3311 0.39423-0.53232 0.14209-0.14165 0.34132-0.30591 0.44286-0.36555 0.26695-0.15649 0.6743-0.28724 1.0894-0.34963l0.36229-0.0541-0.31696-0.04c-0.75761-0.0953-1.3846-0.41649-1.7429-0.89325-0.28553-0.37968-0.43537-0.76587-0.52387-1.3499l-0.0537-0.35645z"/>
    <path id="path88605-6-3-9-8-7-0-3-56-4-41" d="m-538.99-506.44c-0.0571 0.55548-0.26032 1.1089-0.54354 1.4774-0.36229 0.47126-0.98105 0.78667-1.7305 0.88202l-0.33425 0.0424 0.30299 0.0416c0.41169 0.0573 0.7071 0.14229 1.0287 0.29712 0.21679 0.10438 0.32617 0.18545 0.55088 0.40825 0.23834 0.23638 0.30231 0.32373 0.4271 0.58357 0.70292 1.7553-0.0435 1.4523 0.67191-0.029 0.1064-0.21542 0.19218-0.3311 0.39423-0.53232 0.14209-0.14165 0.34132-0.30591 0.44286-0.36555 0.26695-0.15649 0.6743-0.28724 1.0894-0.34963l0.36229-0.0541-0.31696-0.04c-0.75761-0.0953-1.3846-0.41649-1.7429-0.89325-0.28553-0.37968-0.43537-0.76587-0.52387-1.3499l-0.0537-0.35645z"/>
    <path id="path88605-6-3-9-8-7-0-3-56-4-7" d="m-383.42-586.61c-0.0571 0.55548-0.26032 1.1089-0.54354 1.4774-0.36229 0.47126-0.98105 0.78667-1.7305 0.88202l-0.33425 0.0424 0.30299 0.0416c0.41169 0.0573 0.7071 0.14229 1.0287 0.29712 0.21679 0.10438 0.32617 0.18545 0.55088 0.40825 0.23834 0.23638 0.30231 0.32373 0.4271 0.58357 0.70292 1.7553-0.0435 1.4523 0.67191-0.029 0.1064-0.21542 0.19218-0.3311 0.39423-0.53232 0.14209-0.14165 0.34132-0.30591 0.44286-0.36555 0.26695-0.15649 0.6743-0.28724 1.0894-0.34963l0.36229-0.0541-0.31696-0.04c-0.75761-0.0953-1.3846-0.41649-1.7429-0.89325-0.28553-0.37968-0.43537-0.76587-0.52387-1.3499l-0.0537-0.35645z"/>
    <path id="path88605-6-3-9-8-7-0-3-56-4-63" d="m635.23-494.27c-0.0571 0.55548-0.26032 1.1089-0.54354 1.4774-0.36229 0.47126-0.98105 0.78667-1.7305 0.88202l-0.33425 0.0424 0.30299 0.0416c0.41169 0.0573 0.7071 0.14229 1.0287 0.29712 0.21679 0.10438 0.32617 0.18545 0.55088 0.40825 0.23834 0.23638 0.30231 0.32373 0.4271 0.58357 0.70292 1.7553-0.0435 1.4523 0.67191-0.029 0.1064-0.21542 0.19218-0.3311 0.39423-0.53232 0.14209-0.14165 0.34132-0.30591 0.44286-0.36555 0.26695-0.15649 0.6743-0.28724 1.0894-0.34963l0.36229-0.0541-0.31696-0.04c-0.75761-0.0953-1.3846-0.41649-1.7429-0.89325-0.28553-0.37968-0.43537-0.76587-0.52387-1.3499l-0.0537-0.35645z"/>
    <path id="path88605-6-3-9-8-7-0-3-56-4-3" d="m294.97-467.55c-0.0571 0.55548-0.26032 1.1089-0.54354 1.4774-0.36229 0.47126-0.98105 0.78667-1.7305 0.88202l-0.33425 0.0424 0.30299 0.0416c0.41169 0.0573 0.7071 0.14229 1.0287 0.29712 0.21679 0.10438 0.32617 0.18545 0.55088 0.40825 0.23834 0.23638 0.30231 0.32373 0.4271 0.58357 0.70292 1.7553-0.0435 1.4523 0.67191-0.029 0.1064-0.21542 0.19218-0.3311 0.39423-0.53232 0.14209-0.14165 0.34132-0.30591 0.44286-0.36555 0.26695-0.15649 0.6743-0.28724 1.0894-0.34963l0.36229-0.0541-0.31696-0.04c-0.75761-0.0953-1.3846-0.41649-1.7429-0.89325-0.28553-0.37968-0.43537-0.76587-0.52387-1.3499l-0.0537-0.35645z"/>
    <path id="path88605-6-3-9-8-7-0-3-56-4-32" d="m418.8-557.5c-0.0571 0.55548-0.26032 1.1089-0.54354 1.4774-0.36229 0.47126-0.98105 0.78667-1.7305 0.88202l-0.33425 0.0424 0.30299 0.0416c0.41169 0.0573 0.7071 0.14229 1.0287 0.29712 0.21679 0.10438 0.32617 0.18545 0.55088 0.40825 0.23834 0.23638 0.30231 0.32373 0.4271 0.58357 0.70292 1.7553-0.0435 1.4523 0.67191-0.029 0.1064-0.21542 0.19218-0.3311 0.39423-0.53232 0.14209-0.14165 0.34132-0.30591 0.44286-0.36555 0.26695-0.15649 0.6743-0.28724 1.0894-0.34963l0.36229-0.0541-0.31696-0.04c-0.75761-0.0953-1.3846-0.41649-1.7429-0.89325-0.28553-0.37968-0.43537-0.76587-0.52387-1.3499l-0.0537-0.35645z"/>
    <path id="path88605-6-3-9-8-7-0-3-96-3" d="m307.32-119.47c-0.0571 0.55547-0.26032 1.1089-0.54354 1.4774-0.36229 0.47127-0.98105 0.78668-1.7305 0.88203l-0.33425 0.0424 0.30299 0.0416c0.41169 0.0573 0.70709 0.14228 1.0287 0.29712 0.21679 0.10438 0.32617 0.18545 0.55087 0.40825 0.23834 0.23638 0.30232 0.32372 0.42711 0.58357 0.70292 1.7553-0.0435 1.4523 0.67191-0.029 0.1064-0.21543 0.19218-0.3311 0.39422-0.53232 0.1421-0.14166 0.34133-0.30591 0.44287-0.36556 0.26695-0.15648 0.6743-0.28723 1.0894-0.34962l0.36229-0.0541-0.31696-0.04c-0.75762-0.0954-1.3846-0.41648-1.7429-0.89324-0.28553-0.37968-0.43537-0.76588-0.52387-1.3499l-0.0537-0.35645z"/>
    <path id="path88605-6-3-9-8-7-0-3-96-3-8" d="m630.46-136.82c-0.0571 0.55547-0.26032 1.1089-0.54354 1.4774-0.36229 0.47127-0.98105 0.78668-1.7305 0.88203l-0.33425 0.0424 0.30299 0.0416c0.41169 0.0573 0.70709 0.14228 1.0287 0.29712 0.21679 0.10438 0.32617 0.18545 0.55087 0.40825 0.23834 0.23638 0.30232 0.32372 0.42711 0.58357 0.70292 1.7553-0.0435 1.4523 0.67191-0.029 0.1064-0.21543 0.19218-0.3311 0.39422-0.53232 0.1421-0.14166 0.34133-0.30591 0.44287-0.36556 0.26695-0.15648 0.6743-0.28723 1.0894-0.34962l0.36229-0.0541-0.31696-0.04c-0.75762-0.0954-1.3846-0.41648-1.7429-0.89324-0.28553-0.37968-0.43537-0.76588-0.52387-1.3499l-0.0537-0.35645z"/>
    <path id="path88605-6-3-9-8-7-0-3-96-3-88" d="m759.32 18.759c-0.0571 0.55547-0.26032 1.1089-0.54354 1.4774-0.36229 0.47127-0.98105 0.78668-1.7305 0.88203l-0.33425 0.0424 0.30299 0.0416c0.41169 0.0573 0.70709 0.14228 1.0287 0.29712 0.21679 0.10438 0.32617 0.18545 0.55087 0.40825 0.23834 0.23638 0.30232 0.32372 0.42711 0.58357 0.70292 1.7553-0.0435 1.4523 0.67191-0.029 0.1064-0.21543 0.19218-0.3311 0.39422-0.53232 0.1421-0.14166 0.34133-0.30591 0.44287-0.36556 0.26695-0.15648 0.6743-0.28723 1.0894-0.34962l0.36229-0.0541-0.31696-0.04c-0.75762-0.0954-1.3846-0.41648-1.7429-0.89324-0.28553-0.37968-0.43537-0.76588-0.52387-1.3499l-0.0537-0.35645z"/>
    <path id="path88605-6-3-9-8-7-0-3-96-3-5" d="m761.7-248.74c-0.0571 0.55547-0.26032 1.1089-0.54354 1.4774-0.36229 0.47127-0.98105 0.78668-1.7305 0.88203l-0.33425 0.0424 0.30299 0.0416c0.41169 0.0573 0.70709 0.14228 1.0287 0.29712 0.21679 0.10438 0.32617 0.18545 0.55087 0.40825 0.23834 0.23638 0.30232 0.32372 0.42711 0.58357 0.70292 1.7553-0.0435 1.4523 0.67191-0.029 0.1064-0.21543 0.19218-0.3311 0.39422-0.53232 0.1421-0.14166 0.34133-0.30591 0.44287-0.36556 0.26695-0.15648 0.6743-0.28723 1.0894-0.34962l0.36229-0.0541-0.31696-0.04c-0.75762-0.0954-1.3846-0.41648-1.7429-0.89324-0.28553-0.37968-0.43537-0.76588-0.52387-1.3499l-0.0537-0.35645z"/>
    <path id="path88605-6-3-9-8-7-0-3-94-8" d="m161.56-173.88c-0.0571 0.55548-0.26032 1.1089-0.54354 1.4774-0.36229 0.47134-0.98105 0.78667-1.7305 0.8821l-0.33425 0.0424 0.30299 0.0416c0.41169 0.0573 0.70709 0.14228 1.0287 0.29712 0.21679 0.10438 0.32617 0.18545 0.55087 0.40825 0.23834 0.2363 0.30232 0.32372 0.42711 0.58349 0.70292 1.7554-0.0435 1.4524 0.67191-0.029 0.1064-0.21542 0.19218-0.33102 0.39422-0.53232 0.1421-0.14158 0.34133-0.30583 0.44287-0.36548 0.26695-0.15648 0.6743-0.28723 1.0894-0.3497l0.36229-0.0541-0.31696-0.04c-0.75762-0.0953-1.3846-0.41641-1.7429-0.89317-0.28553-0.37968-0.43537-0.76587-0.52387-1.3499l-0.0537-0.35645z"/>
    <path id="path88605-6-3-9-8-7-0-3-6-8" d="m-457.01-110.75c-0.0571 0.55547-0.26032 1.1089-0.54354 1.4774-0.36229 0.47127-0.98105 0.78668-1.7305 0.88203l-0.33425 0.0424 0.30299 0.0416c0.41169 0.0573 0.7071 0.14228 1.0287 0.29712 0.21679 0.10438 0.32617 0.18545 0.55088 0.40825 0.23834 0.23638 0.30231 0.32372 0.4271 0.58357 0.70292 1.7553-0.0435 1.4523 0.67191-0.029 0.1064-0.21542 0.19218-0.3311 0.39423-0.53232 0.14209-0.14166 0.34132-0.30591 0.44286-0.36556 0.26695-0.15648 0.6743-0.28723 1.0894-0.34962l0.36229-0.0541-0.31696-0.04c-0.75761-0.0954-1.3846-0.41649-1.7429-0.89325-0.28553-0.37968-0.43537-0.76588-0.52387-1.3499l-0.0537-0.35645z"/>
    <path id="path88605-6-3-9-8-7-0-3-2-1" d="m-487.53-38.909c-0.0571 0.55549-0.26032 1.1089-0.54354 1.4774-0.36229 0.47129-0.98105 0.78667-1.7305 0.88207l-0.33425 0.0425 0.30299 0.0418c0.41169 0.057 0.70709 0.14225 1.0287 0.29713 0.21679 0.10434 0.32616 0.18542 0.55087 0.40825 0.23834 0.23632 0.30232 0.32369 0.42711 0.5835 0.70292 1.7554-0.0435 1.4524 0.67191-0.029 0.10639-0.21542 0.19218-0.33103 0.39422-0.5323 0.1421-0.14164 0.34133-0.30588 0.44287-0.36552 0.26695-0.15648 0.67429-0.28723 1.0894-0.34967l0.36228-0.0545-0.31696-0.04c-0.75761-0.0953-1.3846-0.41646-1.7429-0.89322-0.28554-0.37966-0.43538-0.76585-0.52388-1.3499l-0.0537-0.35648z"/>
    <path id="path88605-6-3-9-8-7-0-3-4-9" d="m-479.85 85.884c-0.0571 0.55549-0.26031 1.1089-0.54353 1.4774-0.36229 0.4713-0.98105 0.78667-1.7305 0.88208l-0.33425 0.04254 0.30299 0.04175c0.41169 0.05705 0.70709 0.14225 1.0287 0.29713 0.21679 0.10434 0.32616 0.18542 0.55087 0.40826 0.23834 0.23632 0.30232 0.32369 0.42711 0.5835 0.70292 1.7554-0.0435 1.4524 0.67191-0.02904 0.10639-0.21542 0.19218-0.33103 0.39422-0.53231 0.1421-0.14164 0.34133-0.30588 0.44287-0.36552 0.26695-0.15648 0.67429-0.28723 1.0894-0.34967l0.36229-0.05446-0.31696-0.04002c-0.75761-0.09532-1.3846-0.41646-1.7429-0.89322-0.28554-0.37966-0.43538-0.76585-0.52388-1.3499l-0.0537-0.35648z"/>
    <path id="path88605-6-3-9-8-7-0-3-5-3" d="m-511.62 42.902c-0.0571 0.55549-0.26031 1.1089-0.54354 1.4774-0.36229 0.4713-0.98105 0.78667-1.7305 0.88208l-0.33425 0.04254 0.30299 0.04175c0.41169 0.05705 0.7071 0.14225 1.0287 0.29713 0.21679 0.10434 0.32617 0.18542 0.55088 0.40825 0.23834 0.23632 0.30231 0.32369 0.4271 0.5835 0.70292 1.7554-0.0435 1.4524 0.67191-0.02904 0.1064-0.21542 0.19218-0.33103 0.39423-0.53231 0.14209-0.14164 0.34133-0.30588 0.44286-0.36552 0.26695-0.15648 0.6743-0.28723 1.0894-0.34967l0.36229-0.05446-0.31696-0.04002c-0.75761-0.09532-1.3846-0.41646-1.7429-0.89322-0.28554-0.37966-0.43538-0.76585-0.52388-1.3499l-0.0537-0.35648z"/>
    <path id="path88605-6-3-9-8-7-0-3-7-0" d="m-585.54 29.197c-0.0571 0.55549-0.26031 1.1089-0.54354 1.4774-0.36229 0.4713-0.98104 0.78667-1.7305 0.88208l-0.33425 0.04254 0.30299 0.04175c0.4117 0.05705 0.7071 0.14225 1.0287 0.29713 0.21679 0.10434 0.32617 0.18542 0.55088 0.40825 0.23834 0.23632 0.30231 0.32369 0.4271 0.5835 0.70292 1.7554-0.0435 1.4524 0.67192-0.02904 0.10639-0.21542 0.19217-0.33103 0.39422-0.53231 0.14209-0.14164 0.34133-0.30588 0.44286-0.36552 0.26696-0.15648 0.6743-0.28723 1.0894-0.34967l0.36229-0.05447-0.31696-0.04002c-0.75761-0.09532-1.3846-0.41646-1.7429-0.89322-0.28554-0.37966-0.43538-0.76585-0.52388-1.3499l-0.0537-0.35648z"/>
    <path id="path88605-6-3-9-8-7-0-17-3-7" d="m-64.563-32.888c-0.05705 0.55549-0.26032 1.1089-0.54354 1.4774-0.36229 0.47129-0.98105 0.78667-1.7305 0.88207l-0.33425 0.0425 0.30299 0.0417c0.41169 0.0571 0.70709 0.14225 1.0287 0.29713 0.21679 0.10434 0.32617 0.18542 0.55087 0.40825 0.23834 0.23632 0.30232 0.32369 0.42711 0.5835 0.70292 1.7554-0.04348 1.4524 0.67191-0.029 0.10639-0.21543 0.19218-0.33104 0.39422-0.53231 0.14209-0.14164 0.34133-0.30588 0.44286-0.36552 0.26695-0.15647 0.6743-0.28723 1.0894-0.34967l0.36229-0.0545-0.31696-0.04c-0.75761-0.0953-1.3846-0.41647-1.7429-0.89323-0.28554-0.37965-0.43538-0.76585-0.52388-1.3499l-0.05368-0.35648z"/>
    <path id="path88605-6-3-9-8-7-0-17-2-0" d="m-121.66-75.869c-0.0571 0.55548-0.26031 1.1089-0.54353 1.4774-0.36229 0.47134-0.98105 0.78667-1.7305 0.8821l-0.33425 0.0424 0.30299 0.0416c0.41169 0.0573 0.70709 0.14229 1.0287 0.29712 0.21679 0.10438 0.32616 0.18545 0.55087 0.40825 0.23834 0.23638 0.30232 0.32373 0.42711 0.58349 0.70292 1.7554-0.0435 1.4524 0.67191-0.029 0.10639-0.21542 0.19218-0.33102 0.39422-0.53224 0.1421-0.14165 0.34133-0.30591 0.44287-0.36555 0.26695-0.15649 0.67429-0.28724 1.0894-0.34963l0.36229-0.0541-0.31696-0.04c-0.75761-0.0953-1.3846-0.41649-1.7429-0.89325-0.28554-0.37968-0.43538-0.76587-0.52388-1.3499l-0.0537-0.35645z"/>
    <path id="path88605-6-3-9-8-7-0-17-1-8" d="m-252.27-65.487c-0.0571 0.55547-0.26031 1.1089-0.54353 1.4774-0.36229 0.47135-0.98105 0.78667-1.7305 0.8821l-0.33425 0.0424 0.303 0.0416c0.41169 0.0573 0.70709 0.1422 1.0287 0.29712 0.21679 0.10429 0.32616 0.18544 0.55087 0.40824 0.23834 0.2363 0.30232 0.32373 0.42711 0.58349 0.70291 1.7553-0.0435 1.4524 0.67191-0.029 0.10639-0.21543 0.19218-0.33103 0.39422-0.53233 0.14209-0.14157 0.34133-0.30583 0.44286-0.36547 0.26696-0.15649 0.6743-0.28723 1.0894-0.3497l0.36229-0.0542-0.31696-0.04c-0.75761-0.0953-1.3846-0.41641-1.7429-0.89317-0.28554-0.37968-0.43538-0.76587-0.52388-1.3499l-0.0537-0.35653z"/>
    <path id="path88605-6-3-9-8-7-0-17-9-4" d="m-280.1 26.498c-0.057 0.55549-0.26031 1.1089-0.54353 1.4774-0.36229 0.4713-0.98105 0.78667-1.7305 0.88208l-0.33425 0.04254 0.303 0.04175c0.41169 0.05705 0.70709 0.14225 1.0287 0.29713 0.21679 0.10434 0.32616 0.18542 0.55087 0.40826 0.23834 0.23632 0.30232 0.32369 0.4271 0.5835 0.70292 1.7554-0.0435 1.4524 0.67192-0.02904 0.10639-0.21542 0.19218-0.33103 0.39422-0.53231 0.14209-0.14164 0.34133-0.30588 0.44286-0.36552 0.26696-0.15648 0.6743-0.28723 1.0894-0.34967l0.36229-0.05446-0.31696-0.04002c-0.75761-0.09532-1.3846-0.41646-1.7429-0.89322-0.28554-0.37966-0.43538-0.76585-0.52388-1.3499l-0.0537-0.35648z"/>
   </g>
   <path id="path88605-6-6-8-78-8" d="m-415.58 24.168c-0.0459 0.44697-0.20947 0.89226-0.43736 1.1888-0.29151 0.37923-0.7894 0.63299-1.3924 0.70977l-0.26895 0.0343 0.2438 0.03359c0.33127 0.04591 0.56896 0.11446 0.82778 0.23908 0.17444 0.08396 0.26245 0.1492 0.44325 0.3285 0.19179 0.19015 0.24326 0.26045 0.34367 0.46951 0.56561 1.4124-0.0349 1.1687 0.54066-0.02339 0.0856-0.17334 0.15463-0.26636 0.31721-0.42831 0.11433-0.11398 0.27464-0.24613 0.35635-0.29412 0.2148-0.12591 0.54257-0.23113 0.87658-0.28136l0.2915-0.04387-0.25504-0.03225c-0.6096-0.07667-1.1141-0.3351-1.4024-0.71873-0.22975-0.30549-0.35032-0.61624-0.42153-1.0862l-0.0432-0.28684z" fill-opacity=".90009" stroke-width=".025878"/>
   <g fill-opacity=".31594" stroke-width=".03216">
    <path id="path88605-6-3-9-8-7-0-90-3" d="m6.2432 71.764c-0.05705 0.55549-0.26031 1.1089-0.54354 1.4774-0.36229 0.4713-0.98105 0.78667-1.7305 0.88208l-0.33425 0.04254 0.30299 0.04175c0.41169 0.05705 0.70709 0.14225 1.0287 0.29713 0.21679 0.10434 0.32617 0.18542 0.55088 0.40826 0.23834 0.23632 0.30232 0.32369 0.4271 0.5835 0.70292 1.7554-0.04348 1.4524 0.67191-0.02904 0.10639-0.21542 0.19218-0.33103 0.39422-0.53231 0.14209-0.14164 0.34133-0.30588 0.44286-0.36552 0.26695-0.15648 0.6743-0.28723 1.0894-0.34967l0.36229-0.05446-0.31696-0.04002c-0.75761-0.095328-1.3846-0.41647-1.7429-0.89323-0.28554-0.37966-0.43538-0.76585-0.52388-1.3499l-0.05368-0.35648z"/>
    <path id="path88605-6-3-9-8-7-0-17-5" d="m-133.71 36.257c-0.0571 0.55549-0.26032 1.1089-0.54354 1.4774-0.36229 0.4713-0.98105 0.78667-1.7305 0.88208l-0.33425 0.04254 0.30299 0.04175c0.41169 0.05705 0.70709 0.14225 1.0287 0.29713 0.21679 0.10434 0.32616 0.18542 0.55087 0.40825 0.23834 0.23632 0.30232 0.32369 0.42711 0.5835 0.70292 1.7554-0.0435 1.4524 0.67191-0.02904 0.10639-0.21542 0.19218-0.33103 0.39422-0.53231 0.1421-0.14164 0.34133-0.30588 0.44287-0.36552 0.26695-0.15648 0.6743-0.28723 1.0894-0.34967l0.36229-0.05446-0.31697-0.04002c-0.75761-0.09532-1.3846-0.41646-1.7429-0.89322-0.28554-0.37966-0.43538-0.76585-0.52388-1.3499l-0.0537-0.35648z"/>
    <path id="path88605-6-3-9-8-7-0-7-0" d="m27.63-29.565c-0.05705 0.55549-0.26032 1.1089-0.54354 1.4774-0.36229 0.4713-0.98105 0.78667-1.7305 0.88208l-0.33425 0.0425 0.30299 0.0418c0.41169 0.057 0.70709 0.14225 1.0287 0.29713 0.21679 0.10433 0.32617 0.18542 0.55087 0.40825 0.23834 0.23632 0.30232 0.32369 0.42711 0.5835 0.70292 1.7554-0.04348 1.4524 0.67191-0.029 0.10639-0.21542 0.19218-0.33103 0.39422-0.5323 0.14209-0.14164 0.34133-0.30588 0.44286-0.36552 0.26695-0.15648 0.6743-0.28723 1.0894-0.34967l0.36229-0.0545-0.31696-0.04c-0.75761-0.0953-1.3846-0.41646-1.7429-0.89322-0.28554-0.37966-0.43538-0.76585-0.52388-1.3499l-0.05368-0.35648z"/>
    <path id="path88605-6-3-9-8-7-0-1-7" d="m46.526-36.002c-0.05705 0.55549-0.26031 1.1089-0.54354 1.4774-0.36229 0.47129-0.98105 0.78667-1.7305 0.88208l-0.33425 0.0425 0.30299 0.0417c0.41169 0.0571 0.7071 0.14225 1.0287 0.29713 0.21679 0.10434 0.32617 0.18542 0.55088 0.40826 0.23834 0.23631 0.30232 0.32368 0.4271 0.58349 0.70292 1.7554-0.04348 1.4524 0.67191-0.029 0.10639-0.21543 0.19218-0.33104 0.39422-0.53231 0.14209-0.14164 0.34133-0.30588 0.44286-0.36551 0.26695-0.15648 0.6743-0.28724 1.0894-0.34968l0.36229-0.0545-0.31696-0.04c-0.75761-0.0953-1.3846-0.41647-1.7429-0.89323-0.28554-0.37965-0.43538-0.76585-0.52388-1.3499l-0.05368-0.35648z"/>
    <path id="path88605-6-3-9-8-7-0-92-4" d="m190.84-31.642c-0.0571 0.55549-0.26031 1.1089-0.54353 1.4774-0.36229 0.47129-0.98105 0.78667-1.7305 0.88208l-0.33424 0.0425 0.30299 0.0418c0.41169 0.0571 0.70709 0.14225 1.0287 0.29713 0.21679 0.10434 0.32616 0.18542 0.55087 0.40826 0.23834 0.23631 0.30232 0.32368 0.42711 0.58349 0.70292 1.7554-0.0435 1.4524 0.67191-0.029 0.10639-0.21543 0.19218-0.33103 0.39422-0.53231 0.1421-0.14164 0.34133-0.30588 0.44287-0.36551 0.26695-0.15648 0.67429-0.28724 1.0894-0.34967l0.36229-0.0545-0.31696-0.04c-0.75761-0.0953-1.3846-0.41647-1.7429-0.89323-0.28554-0.37965-0.43538-0.76585-0.52388-1.3499l-0.0537-0.35648z"/>
    <path id="path88605-6-3-9-8-7-0-9-1" d="m114.63 24.422c-0.0571 0.55549-0.26031 1.1089-0.54354 1.4774-0.36229 0.4713-0.98105 0.78667-1.7305 0.88208l-0.33425 0.04254 0.30299 0.04175c0.4117 0.05705 0.7071 0.14225 1.0287 0.29713 0.21679 0.10434 0.32617 0.18542 0.55088 0.40826 0.23834 0.23632 0.30231 0.32369 0.4271 0.5835 0.70292 1.7554-0.0435 1.4524 0.67191-0.02904 0.1064-0.21542 0.19218-0.33103 0.39423-0.53231 0.14209-0.14164 0.34133-0.30588 0.44286-0.36552 0.26695-0.15648 0.67429-0.28723 1.0894-0.34967l0.36229-0.05446-0.31696-0.04002c-0.75761-0.09532-1.3846-0.41646-1.7429-0.89322-0.28554-0.37966-0.43538-0.76585-0.52388-1.3499l-0.0537-0.35648z"/>
    <path id="path88605-6-3-9-8-7-2-8" d="m552.34 51c-0.0571 0.55549-0.26032 1.1089-0.54354 1.4774-0.36229 0.4713-0.98105 0.78667-1.7305 0.88208l-0.33425 0.04253 0.30299 0.04175c0.41169 0.05705 0.70709 0.14225 1.0287 0.29713 0.21679 0.10434 0.32617 0.18542 0.55087 0.40826 0.23834 0.23632 0.30232 0.32368 0.42711 0.5835 0.70292 1.7554-0.0435 1.4524 0.67191-0.02904 0.1064-0.21542 0.19218-0.33103 0.39422-0.53231 0.1421-0.14164 0.34133-0.30588 0.44287-0.36552 0.26695-0.15648 0.6743-0.28723 1.0894-0.34967l0.36229-0.05447-0.31696-0.04002c-0.75762-0.09532-1.3846-0.41646-1.7429-0.89322-0.28553-0.37966-0.43537-0.76585-0.52387-1.3499l-0.0537-0.35648z"/>
    <path id="path88605-6-3-9-8-7-0-32" d="m204.54 49.962c-0.0571 0.55549-0.26032 1.1089-0.54354 1.4774-0.36229 0.4713-0.98105 0.78667-1.7305 0.88208l-0.33425 0.04254 0.30299 0.04175c0.41169 0.05705 0.7071 0.14225 1.0287 0.29713 0.21679 0.10434 0.32617 0.18542 0.55088 0.40825 0.23834 0.23632 0.30231 0.32369 0.4271 0.5835 0.70292 1.7554-0.0435 1.4524 0.67191-0.02904 0.1064-0.21542 0.19218-0.33103 0.39423-0.53231 0.14209-0.14164 0.34132-0.30588 0.44286-0.36552 0.26695-0.15648 0.6743-0.28723 1.0894-0.34967l0.36229-0.05446-0.31696-0.04002c-0.75761-0.09532-1.3846-0.41646-1.7429-0.89322-0.28553-0.37966-0.43537-0.76585-0.52387-1.3499l-0.0537-0.35648z"/>
    <path id="path88605-6-3-9-8-7-1-9" d="m299.85 3.6574c-0.0571 0.55549-0.26031 1.1089-0.54354 1.4774-0.36229 0.4713-0.98104 0.78667-1.7305 0.88208l-0.33425 0.04254 0.30299 0.04175c0.4117 0.05705 0.7071 0.14225 1.0287 0.29713 0.21679 0.10434 0.32617 0.18542 0.55088 0.40825 0.23834 0.23632 0.30231 0.32369 0.4271 0.5835 0.70292 1.7554-0.0435 1.4524 0.67192-0.02904 0.10639-0.21542 0.19217-0.33103 0.39422-0.53231 0.14209-0.14164 0.34133-0.30588 0.44286-0.36551 0.26696-0.15648 0.6743-0.28723 1.0894-0.34967l0.36229-0.05446-0.31696-0.04002c-0.75761-0.09532-1.3846-0.41646-1.7429-0.89322-0.28554-0.37966-0.43538-0.76585-0.52388-1.3499l-0.0537-0.35648z"/>
    <path id="path88605-6-3-9-8-7-7-5" d="m473.02 25.46c-0.0571 0.55549-0.26031 1.1089-0.54353 1.4774-0.36229 0.4713-0.98105 0.78667-1.7305 0.88208l-0.33425 0.04254 0.30299 0.04175c0.41169 0.05705 0.70709 0.14225 1.0287 0.29713 0.21679 0.10434 0.32616 0.18542 0.55087 0.40826 0.23834 0.23632 0.30232 0.32369 0.42711 0.5835 0.70292 1.7554-0.0435 1.4524 0.67191-0.02904 0.10639-0.21542 0.19218-0.33103 0.39422-0.53231 0.1421-0.14164 0.34133-0.30588 0.44287-0.36552 0.26695-0.15648 0.67429-0.28723 1.0894-0.34967l0.36229-0.05446-0.31696-0.04002c-0.75761-0.09532-1.3846-0.41646-1.7429-0.89322-0.28554-0.37966-0.43538-0.76585-0.52388-1.3499l-0.0537-0.35648z"/>
    <path id="path88605-6-3-9-8-7-77" d="m275.94 87.267c-0.0571 0.55549-0.26032 1.1089-0.54354 1.4774-0.36229 0.4713-0.98105 0.78667-1.7305 0.88208l-0.33425 0.04254 0.30299 0.04175c0.41169 0.05705 0.70709 0.14225 1.0287 0.29713 0.21679 0.10434 0.32617 0.18542 0.55087 0.40826 0.23834 0.23632 0.30232 0.32369 0.42711 0.5835 0.70292 1.7554-0.0435 1.4524 0.67191-0.02904 0.1064-0.21542 0.19218-0.33103 0.39422-0.53231 0.1421-0.14164 0.34133-0.30588 0.44287-0.36552 0.26695-0.15648 0.6743-0.28723 1.0894-0.34967l0.36229-0.05446-0.31696-0.04002c-0.75762-0.09532-1.3846-0.41646-1.7429-0.89322-0.28553-0.37966-0.43537-0.76585-0.52387-1.3499l-0.0537-0.35648z"/>
   </g>
   <g fill-opacity=".77615" stroke-width=".03216">
    <path id="path88605-6-3-9-37-5-9" d="m449.47 80.752c-0.0571 0.55549-0.26032 1.1089-0.54355 1.4774-0.36228 0.4713-0.98104 0.78667-1.7305 0.88209l-0.33426 0.04254 0.30299 0.04175c0.4117 0.05705 0.70711 0.14226 1.0287 0.29713 0.2168 0.10434 0.32617 0.18542 0.55089 0.40826 0.23834 0.23632 0.30231 0.32369 0.42709 0.5835 0.70293 1.7554-0.0435 1.4524 0.67192-0.02904 0.10639-0.21542 0.19218-0.33103 0.39423-0.53231 0.14208-0.14164 0.34133-0.30587 0.44285-0.36552 0.26696-0.15647 0.67431-0.28723 1.0894-0.34966l0.36229-0.05454-0.31696-0.04002c-0.75761-0.09531-1.3846-0.41646-1.7429-0.89322-0.28554-0.37966-0.43538-0.76585-0.52388-1.3499l-0.0537-0.35648z"/>
    <path id="path88605-6-3-9-37-5-9-8" d="m-45.546-365.42c-0.0571 0.55549-0.26032 1.1089-0.54355 1.4774-0.36228 0.47129-0.98104 0.78667-1.7305 0.88208l-0.33426 0.0425 0.30299 0.0417c0.4117 0.0571 0.70711 0.14226 1.0287 0.29713 0.2168 0.10434 0.32617 0.18542 0.55089 0.40826 0.23834 0.23631 0.30231 0.32368 0.42709 0.5835 0.70293 1.7554-0.0435 1.4524 0.67192-0.029 0.10639-0.21542 0.19218-0.33103 0.39423-0.5323 0.14208-0.14164 0.34133-0.30588 0.44285-0.36552 0.26696-0.15647 0.67431-0.28723 1.0894-0.34966l0.36229-0.0545-0.31696-0.04c-0.75761-0.0953-1.3846-0.41647-1.7429-0.89322-0.28554-0.37966-0.43538-0.76586-0.52388-1.3499l-0.0537-0.35648z"/>
    <path id="path88605-6-3-9-37-5-9-6" d="m-388.45-314.35c-0.0571 0.55549-0.26032 1.1089-0.54355 1.4774-0.36228 0.47129-0.98104 0.78667-1.7305 0.88208l-0.33426 0.0425 0.30299 0.0418c0.4117 0.0571 0.70711 0.14226 1.0287 0.29713 0.2168 0.10434 0.32617 0.18542 0.55089 0.40826 0.23834 0.23631 0.30231 0.32368 0.42709 0.5835 0.70293 1.7554-0.0435 1.4524 0.67192-0.029 0.10639-0.21542 0.19218-0.33103 0.39423-0.53231 0.14208-0.14163 0.34133-0.30587 0.44285-0.36551 0.26696-0.15647 0.67431-0.28723 1.0894-0.34966l0.36229-0.0545-0.31696-0.04c-0.75761-0.0953-1.3846-0.41647-1.7429-0.89323-0.28554-0.37965-0.43538-0.76585-0.52388-1.3499l-0.0537-0.35648z"/>
    <path id="path88605-6-3-9-37-5-9-60" d="m-249.8-205.08c-0.0571 0.55549-0.26032 1.1089-0.54355 1.4774-0.36228 0.47129-0.98104 0.78667-1.7305 0.88208l-0.33426 0.0425 0.30299 0.0418c0.4117 0.057 0.70711 0.14226 1.0287 0.29713 0.2168 0.10434 0.32617 0.18542 0.55089 0.40826 0.23834 0.23631 0.30231 0.32368 0.42709 0.5835 0.70293 1.7554-0.0435 1.4524 0.67192-0.029 0.10639-0.21542 0.19218-0.33103 0.39423-0.5323 0.14208-0.14164 0.34133-0.30588 0.44285-0.36552 0.26696-0.15647 0.67431-0.28723 1.0894-0.34966l0.36229-0.0545-0.31696-0.04c-0.75761-0.0953-1.3846-0.41647-1.7429-0.89323-0.28554-0.37965-0.43538-0.76585-0.52388-1.3499l-0.0537-0.35648z"/>
    <path id="path88605-6-3-9-37-5-9-2" d="m482.03-414.1c-0.0571 0.55549-0.26032 1.1089-0.54355 1.4774-0.36228 0.47129-0.98104 0.78667-1.7305 0.88208l-0.33426 0.0425 0.30299 0.0417c0.4117 0.0571 0.70711 0.14226 1.0287 0.29713 0.2168 0.10434 0.32617 0.18542 0.55089 0.40826 0.23834 0.23631 0.30231 0.32368 0.42709 0.5835 0.70293 1.7554-0.0435 1.4524 0.67192-0.029 0.10639-0.21542 0.19218-0.33103 0.39423-0.5323 0.14208-0.14164 0.34133-0.30588 0.44285-0.36552 0.26696-0.15647 0.67431-0.28723 1.0894-0.34966l0.36229-0.0545-0.31696-0.04c-0.75761-0.0953-1.3846-0.41647-1.7429-0.89322-0.28554-0.37966-0.43538-0.76586-0.52388-1.3499l-0.0537-0.35648z"/>
    <path id="path88605-6-3-9-37-5-9-5" d="m786.04 6.588c-0.0571 0.55549-0.26032 1.1089-0.54355 1.4774-0.36228 0.4713-0.98104 0.78667-1.7305 0.88209l-0.33426 0.04254 0.30299 0.04175c0.4117 0.05705 0.70711 0.14226 1.0287 0.29713 0.2168 0.10434 0.32617 0.18542 0.55089 0.40826 0.23834 0.23632 0.30231 0.32369 0.42709 0.5835 0.70293 1.7554-0.0435 1.4524 0.67192-0.02904 0.10639-0.21542 0.19218-0.33103 0.39423-0.53231 0.14208-0.14164 0.34133-0.30587 0.44285-0.36552 0.26696-0.15647 0.67431-0.28723 1.0894-0.34966l0.36229-0.05454-0.31696-0.04002c-0.75761-0.09531-1.3846-0.41646-1.7429-0.89322-0.28554-0.37966-0.43538-0.76585-0.52388-1.3499l-0.0537-0.35648z"/>
   </g>
   <path id="path88605-6-6-3-9-7-6" d="m-68.274 78.571c-0.0841 0.8185-0.38357 1.634-0.8009 2.1769-0.53383 0.69445-1.4456 1.1591-2.5498 1.2997l-0.49252 0.06278 0.44645 0.06153c0.60662 0.08407 1.0419 0.20961 1.5158 0.43781 0.31945 0.15375 0.4806 0.27322 0.81171 0.60156 0.35118 0.3482 0.44544 0.47694 0.62932 0.85978 1.0357 2.5865-0.064 2.14 0.99006-0.04277 0.15677-0.31742 0.28316-0.48776 0.58088-0.78433 0.20937-0.20871 0.50294-0.4507 0.65255-0.53859 0.39336-0.23056 0.99356-0.42324 1.6052-0.51522l0.53382-0.08028-0.46704-0.05894c-1.1163-0.14045-2.0401-0.61366-2.5681-1.3162-0.42073-0.55941-0.64152-1.1285-0.77192-1.989l-0.0791-0.52526z" fill-opacity=".90009" opacity=".7" stroke-width=".047388"/>
   <path id="path88605-6-6-3-99" d="m200.74 361.36c0.0771 0.75046 0.35169 1.4981 0.73433 1.996 0.48945 0.63673 1.3254 1.0628 2.3379 1.1917l0.45158 0.0575-0.40934 0.0564c-0.5562 0.0771-0.9553 0.19219-1.3898 0.40142-0.29289 0.14097-0.44065 0.25051-0.74423 0.55156-0.322 0.31926-0.40843 0.4373-0.57702 0.78831-0.94965 2.3715 0.0587 1.9622-0.90776-0.0392-0.14374-0.29104-0.25963-0.44722-0.5326-0.71914-0.19196-0.19136-0.46113-0.41324-0.59831-0.49383-0.36066-0.21139-0.91098-0.38805-1.4718-0.47239l-0.48945-0.0736 0.42822-0.0541c1.0235-0.12876 1.8705-0.56264 2.3547-1.2068 0.38576-0.51291 0.5882-1.0347 0.70776-1.8237l0.0725-0.4816z" fill-opacity=".90009" opacity=".79465" stroke-width=".043449"/>
   <g stroke-width=".04098">
    <path id="path88605-6-3-9-36-4" d="m-120.49 405.1c0.0727 0.70782 0.33171 1.413 0.6926 1.8825 0.46163 0.60054 1.2501 1.0024 2.205 1.124l0.42592 0.0542-0.38608 0.0532c-0.52459 0.0727-0.90101 0.18126-1.3108 0.3786-0.27625 0.13296-0.41561 0.23628-0.70195 0.52022-0.3037 0.30111-0.38521 0.41244-0.54422 0.74351-0.89569 2.2367 0.0554 1.8507-0.85618-0.037-0.13556-0.2745-0.24487-0.4218-0.50233-0.67827-0.18105-0.18049-0.43493-0.38976-0.5643-0.46576-0.34017-0.19938-0.85922-0.366-1.3881-0.44555l-0.46164-0.0694 0.40388-0.051c0.96537-0.12145 1.7642-0.53067 2.2209-1.1382 0.36384-0.48377 0.55477-0.97587 0.66754-1.7201l0.0684-0.45423z" fill-opacity=".77615"/>
    <path id="path88605-6-3-9-1-3" d="m-394.24 392.67c0.0727 0.70781 0.3317 1.413 0.6926 1.8825 0.46163 0.60054 1.2501 1.0024 2.205 1.124l0.42591 0.0542-0.38608 0.0532c-0.52458 0.0727-0.901 0.18126-1.3108 0.3786-0.27624 0.13296-0.41561 0.23627-0.70194 0.52022-0.3037 0.30111-0.38521 0.41244-0.54422 0.74351-0.89569 2.2367 0.0554 1.8507-0.85618-0.037-0.13557-0.2745-0.24488-0.4218-0.50233-0.67827-0.18105-0.18049-0.43493-0.38976-0.5643-0.46576-0.34017-0.19938-0.85922-0.366-1.3881-0.44555l-0.46163-0.0694 0.40388-0.051c0.96537-0.12145 1.7642-0.53067 2.2209-1.1382 0.36384-0.48377 0.55477-0.97587 0.66754-1.7201l0.0684-0.45423z" fill-opacity=".77615"/>
    <path id="path88605-6-3-9-29-4" d="m-512.96 471.07c0.0727 0.70782 0.3317 1.413 0.69259 1.8825 0.46164 0.60054 1.2501 1.0024 2.205 1.124l0.42591 0.0542-0.38608 0.0532c-0.52459 0.0727-0.901 0.18126-1.3108 0.3786-0.27624 0.13296-0.41561 0.23627-0.70194 0.52022-0.3037 0.30111-0.38522 0.41244-0.54423 0.74351-0.89568 2.2367 0.0554 1.8507-0.85617-0.037-0.13557-0.2745-0.24488-0.4218-0.50233-0.67827-0.18106-0.18049-0.43493-0.38976-0.56431-0.46576-0.34016-0.19938-0.85921-0.366-1.3881-0.44555l-0.46163-0.0695 0.40388-0.051c0.96537-0.12145 1.7642-0.53067 2.2209-1.1382 0.36384-0.48377 0.55477-0.97587 0.66754-1.7201l0.0684-0.45423z" fill-opacity=".3688"/>
    <path id="path88605-6-3-9-31-3" d="m308.82 421.35c0.0727 0.70782 0.3317 1.413 0.69259 1.8825 0.46164 0.60054 1.2501 1.0024 2.205 1.124l0.42591 0.0542-0.38608 0.0532c-0.52459 0.0727-0.901 0.18126-1.3108 0.37861-0.27624 0.13295-0.41561 0.23627-0.70194 0.52021-0.3037 0.30111-0.38522 0.41245-0.54423 0.74351-0.89568 2.2367 0.0554 1.8507-0.85617-0.037-0.13557-0.27451-0.24488-0.42181-0.50233-0.67828-0.18106-0.18048-0.43493-0.38976-0.56431-0.46576-0.34016-0.19938-0.85921-0.366-1.3881-0.44555l-0.46164-0.0694 0.40388-0.051c0.96537-0.12146 1.7642-0.53068 2.2209-1.1382 0.36384-0.48377 0.55477-0.97587 0.66754-1.7201l0.0684-0.45424z" fill-opacity=".42033"/>
    <path id="path88605-6-3-9-94-2" d="m262.03 422.86c0.0727 0.70782 0.33171 1.413 0.6926 1.8825 0.46164 0.60054 1.2501 1.0024 2.205 1.124l0.42592 0.0542-0.38608 0.0532c-0.52459 0.0727-0.901 0.18126-1.3108 0.3786-0.27624 0.13296-0.41561 0.23627-0.70195 0.52022-0.3037 0.30111-0.38521 0.41244-0.54422 0.74351-0.89569 2.2367 0.0554 1.8507-0.85618-0.037-0.13556-0.2745-0.24487-0.4218-0.50232-0.67827-0.18106-0.18049-0.43493-0.38976-0.56431-0.46576-0.34017-0.19938-0.85922-0.366-1.3881-0.44555l-0.46164-0.0695 0.40388-0.051c0.96537-0.12145 1.7642-0.53067 2.2209-1.1382 0.36384-0.48377 0.55477-0.97587 0.66754-1.7201l0.0684-0.45423z" fill-opacity=".77615" opacity=".79465"/>
    <path id="path88605-6-3-9-78-1" d="m-48.897 392.67c0.0727 0.70783 0.33171 1.413 0.6926 1.8826 0.46164 0.60054 1.2501 1.0024 2.205 1.124l0.42592 0.0542-0.38608 0.0532c-0.52459 0.0727-0.901 0.18126-1.3108 0.37861-0.27624 0.13295-0.41561 0.23627-0.70194 0.52021-0.3037 0.30111-0.38522 0.41244-0.54423 0.74351-0.89569 2.2367 0.0554 1.8507-0.85618-0.037-0.13556-0.27451-0.24487-0.42181-0.50232-0.67828-0.18106-0.18049-0.43493-0.38976-0.56431-0.46576-0.34016-0.19938-0.85921-0.366-1.3881-0.44555l-0.46164-0.0694 0.40388-0.051c0.96537-0.12145 1.7642-0.53067 2.2209-1.1382 0.36384-0.48377 0.55477-0.97587 0.66754-1.7201l0.0684-0.45423z" fill-opacity=".43733"/>
   </g>
   <path id="path88605-6-3-9-9-4-2" d="m708.25-80.989c-0.0571 0.55549-0.26032 1.1089-0.54355 1.4774-0.36228 0.4713-0.98104 0.78666-1.7305 0.88208l-0.33425 0.04254 0.30299 0.04175c0.41169 0.05705 0.7071 0.14225 1.0287 0.29713 0.21679 0.10434 0.32617 0.18542 0.55088 0.40826 0.23834 0.23631 0.3023 0.32369 0.42709 0.5835 0.70293 1.7554-0.0435 1.4524 0.67192-0.02904 0.1064-0.21543 0.19218-0.33103 0.39423-0.53231 0.14208-0.14165 0.34132-0.30588 0.44286-0.36552 0.26695-0.15647 0.6743-0.28723 1.0894-0.34966l0.36228-0.05446-0.31696-0.04002c-0.75761-0.09532-1.3846-0.41647-1.7429-0.89323-0.28554-0.37966-0.43538-0.76585-0.52388-1.3499l-0.0537-0.35648z" fill-opacity=".90125" stroke-width=".03216"/>
   <path id="path88605-6-6-3-9-7" d="m129.62 228.25c0.10715 1.043 0.48875 2.082 1.0205 2.7739 0.68021 0.88489 1.842 1.477 3.2491 1.6562l0.62758 0.08-0.56888 0.0784c-0.77297 0.10713-1.3276 0.26709-1.9315 0.55787-0.40705 0.19591-0.61239 0.34814-1.0343 0.76653-0.44749 0.44368-0.5676 0.60773-0.8019 1.0956-1.3198 3.2958 0.0815 2.7269-1.2616-0.0545-0.19976-0.40447-0.36081-0.62152-0.74017-0.99942-0.26678-0.26594-0.64086-0.5743-0.8315-0.68629-0.50123-0.29379-1.266-0.5393-2.0454-0.65651l-0.68021-0.10229 0.59512-0.0751c1.4224-0.17896 2.5996-0.78194 3.2724-1.6771 0.53611-0.71282 0.81744-1.4379 0.98361-2.5345l0.10079-0.6693z" fill-opacity=".90009" opacity=".7" stroke-width=".060383"/>
   <path id="path88605-6-3-9-9-4" d="m-364.11 110.37c0.0727 0.70782 0.3317 1.413 0.6926 1.8825 0.46163 0.60054 1.2501 1.0024 2.205 1.124l0.42591 0.0542-0.38608 0.0532c-0.52459 0.0727-0.901 0.18126-1.3108 0.37861-0.27624 0.13295-0.41561 0.23627-0.70194 0.52021-0.3037 0.30111-0.38521 0.41245-0.54422 0.74351-0.89569 2.2367 0.0554 1.8507-0.85618-0.037-0.13557-0.27451-0.24488-0.42181-0.50233-0.67828-0.18105-0.18049-0.43493-0.38976-0.56431-0.46576-0.34016-0.19938-0.85921-0.366-1.3881-0.44555l-0.46163-0.0694 0.40388-0.051c0.96537-0.12146 1.7642-0.53068 2.2209-1.1382 0.36384-0.48377 0.55477-0.97587 0.66754-1.7201l0.0684-0.45424z" fill-opacity=".90125" stroke-width=".04098"/>
  </g>
 </g>
</svg>
