<?xml version="1.0" encoding="UTF-8"?>
<svg id="svg462690" width="153.96mm" height="156.27mm" version="1.1" viewBox="0 0 153.96 156.27" xmlns="http://www.w3.org/2000/svg">
 <defs id="defs462048">
  <filter id="filter120947" x="-.078363" y="-.15891" width="1.1749" height="1.3546" color-interpolation-filters="sRGB">
   <feFlood id="feFlood462014" flood-color="rgb(0,0,0)" flood-opacity=".49804" result="flood"/>
   <feComposite id="feComposite462016" in="flood" in2="SourceGraphic" operator="in" result="composite1"/>
   <feGaussianBlur id="feGaussianBlur462018" in="composite1" result="blur" stdDeviation="9.7575"/>
   <feOffset id="feOffset462020" dx="6" dy="6" result="offset"/>
   <feComposite id="feComposite462022" in="offset" in2="offset" operator="atop" result="composite2"/>
  </filter>
  <filter id="filter6459" x="-.125" y="-.11906" width="1.25" height="1.2381" color-interpolation-filters="sRGB">
   <feGaussianBlur id="feGaussianBlur6461" stdDeviation="9.3551355"/>
  </filter>
 </defs>
 <g id="g462688" transform="translate(-32.549 -76.841)">
  <g id="g462686" transform="matrix(-.5176 0 0 -.57091 371 541.28)" fill="#008080">
   <ellipse id="path6341" transform="matrix(.5382 -.84282 .88544 .46475 3.792 3.8162)" cx="-370.31" cy="792.16" rx="89.811" ry="94.293" fill="#37ffff" filter="url(#filter6459)" stop-color="#000000" stroke-opacity=".26415" stroke-width="2.4452" style="mix-blend-mode:normal"/>
   <g stroke="#333" stroke-linejoin="round">
    <path id="path462058" class="cls-5" transform="matrix(-.6498 0 0 -.58912 656.69 828.94)" d="m71.973 284.48c-2.0314 6e-3 -3.9714 0.84435-5.368 2.3195-1.3376 1.5103-2.0278 3.4859-1.9219 5.5006 5.5272 87.261 77.912 155.21 165.35 155.21s159.82-67.945 165.35-155.21c0.19481-2.0264-0.5075-4.0364-1.9219-5.5006-1.345-1.5165-3.2747-2.3848-5.3017-2.3858-103.81 27.664-146.86 26.428-209.44 23.356-44.143-2.1667-82.686-10.578-106.74-23.29z" fill="#000" filter="url(#filter120947)" stroke-linecap="round" stroke-width="5"/>
    <path id="path462062" d="m608.4 664.59c-64.801 27.547-173.76 21.459-209.69-0.57993 56.233-18.716 159.43-20.965 209.69 0.57993z" fill="#0a0" stroke-width="3.179"/>
    <line id="line462068" class="cls-5" x1="581.12" x2="581.12" y1="666.87" y2="676.44" fill="#55d400" stroke-linecap="round" stroke-width="2.0331"/>
    <polygon id="polygon462070" class="cls-6" transform="matrix(-1.8433 0 0 -1.6711 636.86 762.8)" points="30.24 51.68 35.97 51.68 32.39 47.38 35.97 47.38 31.67 42.37 34.53 42.37 30.24 37.36 25.95 42.37 28.81 42.37 24.52 47.38 28.09 47.38 24.52 51.68" fill="#55d400" stroke-linecap="round" stroke-width=".79906"/>
   </g>
   <g id="g462078" transform="matrix(.81673 0 0 .81673 87.116 123.81)" stroke-width="5.0204">
    <path id="path462072" class="cls-7" d="m636.57 662.36c1.6162-4e-3 3.1597-0.60905 4.2708-1.6731 1.0642-1.0894 1.6134-2.5144 1.5291-3.9676-4.3975-62.943-61.988-111.95-131.55-111.95s-127.15 49.01-131.55 111.95c-0.15499 1.4616 0.40378 2.9115 1.529 3.9676 1.0701 1.0939 2.6054 1.7202 4.2181 1.7209 90.999-25.824 173.93-22.461 251.56-0.0478z" fill="#06f"/>
    <path id="path462074" class="cls-8" d="m393.03 660.06c15.252-52.484 56.067-86.593 117.76-87 59.864-0.39509 112.21 36.575 127.47 89.06 0.97232-0.28968 1.8569-0.78067 2.5836-1.4341 1.0642-1.0894 1.6134-2.5144 1.5291-3.9676-4.3975-62.943-61.988-111.95-131.55-111.95-69.564 0-127.22 51.951-131.62 114.89-0.155 1.4617 2.726 4.6623 3.8513 5.7184 0.68798 0.67351 9.0126-5.5824 9.9819-5.3168z" fill="#0b428c"/>
    <path id="path462076" class="cls-8" d="m453.72 650.86c15.252-52.484 20.212-63.277 80.077-63.277s75.005 23.513 104.46 74.528c0.97232-0.28968 1.8569-0.78067 2.5836-1.4341 1.0642-1.0894 1.6134-2.5144 1.5291-3.9676-4.3975-62.943-52.795-101.4-122.36-101.4-58.127 0.79775-128.64 54.759-122.23 102.78 0.68798 0.67352 54.964-7.4939 55.933-7.2284z" fill="#145dbf"/>
   </g>
   <path id="path462080" class="cls-6" d="m576.46 655.3c6.5311-0.35 0.71444-4.8602 0.71444-10.791 0-5.9316-1.9964-14.463-8.5275-14.813-5.4419-0.0633-10.221-3.2934-11.843-8.0036l-10.292-29.906c-1.6094-4.5204-6.5982-7.3149-11.777-6.597-5.1792 0.7179-9.0192 4.7361-9.0649 9.4863v7.8084c-3e-3 8.4605-3.7036 16.575-10.292 22.566-6.4638 5.4827-8.2841 12.693-8.307 24.963 34 0.0607 53.095 1.9866 69.389 5.2873z" fill="#6f0" stroke="#333" stroke-linecap="round" stroke-linejoin="round" stroke-width="2.3679"/>
   <path id="path462082" class="cls-5" d="m431.87 593.37v18.193c0 8.7978 7.8662 15.929 17.569 15.929 7.3252 0 13.264-5.3837 13.264-12.025 0.0924-5.8676 4.8426-10.818 11.24-11.713l3.2728-0.46851c15.221-2.1243 15.766-1.6989 17.368-15.586l2.4116-18.311c-29.783 1.7244-44.677 8.5095-65.124 23.98z" fill="#55d400" stroke="#333" stroke-linecap="round" stroke-linejoin="round" stroke-width="2.3679"/>
   <path id="path462084" class="cls-5" d="m438.55 591.48v12.282c0 5.9388 2.711 13.109 9.2617 13.109 4.945 0 8.9538-3.6344 8.9538-8.1176 0.0623-3.961 5.8682-12.016 10.186-12.619l2.2093-0.31626c10.275-1.434 10.643-1.1468 11.724-10.521l2.3451-11.896c-22.136 0.79278-30.876 7.6364-44.68 18.08z" fill="#6f0" stroke-width=".81673"/>
   <g id="g462094" transform="matrix(.81673 0 0 .81673 87.116 123.81)" stroke="#333">
    <path id="path462086" class="cls-5" d="m636.57 662.36c1.6162-4e-3 3.1597-0.60905 4.2708-1.6731 1.0642-1.0894 1.6134-2.5144 1.5291-3.9676-4.3975-62.943-61.988-111.95-131.55-111.95s-127.15 49.01-131.55 111.95c-0.15499 1.4616 0.40378 2.9115 1.529 3.9676 1.0701 1.0939 2.6054 1.7202 4.2181 1.7209 82.591-19.955 116.84-19.063 166.64-16.847 35.12 1.5629 65.785 7.6301 84.921 16.799z" fill="none" stroke-linecap="round" stroke-linejoin="round" stroke-width="3.7878"/>
    <path id="path462088" d="m569.3 670.22s8.6772-7.398-17.343-6.8146c-34.572-22.316-78.372-2.5043-39.132 1.1417l21.328 8.13c16.843 4.5415 22.07 2.5502 35.147-2.457z" fill="#00b8f0" stroke-width="1.4947"/>
    <line id="line462090" class="cls-5" x1="576.8" x2="576.8" y1="656.77" y2="670.66" fill="none" stroke-linecap="round" stroke-linejoin="round" stroke-width="3.4007"/>
    <path id="path462092" d="m543.5 684.18c-34.196 26.662-30.156 35.95-61.947-1.1522 26.733-7.0879 38.089-8.5998 61.947 1.1522z" fill="#4a0" stroke-width="1.7171"/>
   </g>
   <path id="path6888" d="m559.16 712.02c2.9616-0.6489 3.1917 4.2634 7.0162 4.2032 3.8546 0.93051 8.2444-1.2292 9.0976-4.4677 3.6976 1.3803 7.838-2.2042 6.0822-5.1885-1.0484-2.3329-4.2482-2.5533-6.8211-2.3973-5.4422 0.0515-10.9-0.10425-16.332 0.0799-4.0051 0.4987-5.1724 5.3803-1.6988 7.1 0.77791 0.43651 1.7159 0.67273 2.6563 0.67057z" fill="#fff" opacity=".77" stroke-width="3.6466"/>
   <polygon id="polygon462216" class="cls-6" transform="matrix(-2.917 0 0 -2.6447 683.98 810.57)" points="44.55 43.8 47.42 43.8 43.12 38.8 38.83 43.8 41.69 43.8 37.4 48.81 40.98 48.81 37.4 53.11 43.12 53.11 48.85 53.11 45.27 48.81 48.85 48.81" fill="#4a0" stroke="#333" stroke-linecap="round" stroke-linejoin="round" stroke-width=".50493"/>
   <path id="path21433" d="m434.88 711.79c3.296-0.72216 3.5521 4.7448 7.8084 4.6777 4.2898 1.0356 9.1752-1.368 10.125-4.9722 4.115 1.5361 8.7229-2.453 6.7689-5.7743-1.1668-2.5963-4.7278-2.8416-7.5912-2.6679-6.0566 0.0574-12.131-0.116-18.176 0.0889-4.4572 0.555-5.7564 5.9878-1.8906 7.9016 0.86575 0.4858 1.9096 0.74869 2.9562 0.74628z" fill="#fff" opacity=".77" stroke-width="4.0583"/>
   <g id="g462224" transform="matrix(.81673 0 0 .81673 87.116 123.81)">
    <path id="path462218" d="m538.77 685.67c-27.289 21.033-25.48 24.975-50.851-4.2928 21.334-5.5913 31.812-3.4001 50.851 4.2928z" fill="#55d400" opacity=".5"/>
    <path id="path462220" d="m514.59 674.62c-56.06 47.968-57.185 61.992-109.3-4.7585 43.826-12.752 70.191-12.786 109.3 4.7585z" fill="#4a0" stroke="#333" stroke-width="1.7171"/>
    <path id="path462222" d="m510.54 676.39c-44.737 39.911-53.61 49.041-95.201-6.4967 34.974-10.61 63.989-8.101 95.201 6.4967z" fill="#55d400" opacity=".5"/>
   </g>
   <g stroke="#333">
    <line id="line462226" class="cls-5" x1="465.78" x2="465.78" y1="658.71" y2="673.35" fill="none" stroke-linecap="round" stroke-linejoin="round" stroke-width="3.0601"/>
    <line id="line462228" class="cls-5" x1="445.42" x2="445.42" y1="662.59" y2="674.89" fill="none" stroke-linecap="round" stroke-linejoin="round" stroke-width="2.8043"/>
    <path id="path462422" d="m437.51 674.41 5.9798-2.3304s18.422 5.8734 10.793 11.848c-8.1902 9.7975-11.024 7.7243-14.411 3.1295 0 0-13.613-1.5038-2.3615-12.648z" fill="#6f0" stroke-width="1.4024"/>
    <line id="line462551" class="cls-5" x1="522.8" x2="522.8" y1="676.77" y2="681.89" fill="none" stroke-linecap="round" stroke-linejoin="round" stroke-width="1.2506"/>
    <polygon id="polygon462553" class="cls-6" transform="matrix(-1.3134 0 0 -1.1908 579.43 743.68)" points="41.69 43.8 37.4 48.81 40.98 48.81 37.4 53.11 43.12 53.11 48.85 53.11 45.27 48.81 48.85 48.81 44.55 43.8 47.42 43.8 43.12 38.8 38.83 43.8" fill="#6dd627" stroke-linecap="round" stroke-linejoin="round" stroke-width="1.1214"/>
   </g>
   <path id="path462555" d="m524.18 665.22s2.3412-1.996-4.6792-1.8386c-9.3279-6.021-21.145-0.67569-10.558 0.30803l5.7544 2.1935c4.5443 1.2253 5.9545 0.68805 9.483-0.66292z" fill="#fff" opacity=".4" stroke-width=".81673"/>
   <path id="path462557" d="m408.12 662.9c-0.066-1.2218 38.351-7.467 38.109-8.2367-7.8024-24.797-20.412-20.809-28.676-3.6888-1.7493 3.6239-7.9593 7.3102-9.4324 11.926" fill="#48b300" stroke="#333" stroke-width="2.2985"/>
   <path id="path462561" class="cls-6" d="m545.19 648.86c4.1073-0.30962 18.388 4.2939 18.388-0.95344s-5.4694-14.726-9.577-15.035c-3.4224-0.056-6.4282-2.9134-7.4476-7.0802l-4.2164-26.075c-1.0122-3.999-6.4057-6.852-9.6627-6.2169-3.2571 0.63509-0.23982-1.1546-0.26878 3.0473l-0.82972 15.063c-11.913 22.291-2.7259 20.089-2.4173 26.984 21.382 0.0537 5.7842 7.3461 16.032 10.266z" fill="#4a0" opacity=".4" stroke-width=".81673"/>
   <path id="path462563" d="m416.98 659.57c11.882-2.4029 23.691-4.2361 23.541-4.7128-4.8081-15.354-12.578-12.886-17.672-2.2842" fill="#3e9b00" stroke-width=".81673"/>
   <g id="g462571" transform="matrix(.81673 0 0 .81673 87.116 123.81)" fill="#000">
    <path id="path462565" d="m572.1 592.68c-11.738-3.0616-23.786-5.7007-38.154-5.1725l3.6987-17.909 13.938-4.986 7.3431 2.346z" opacity=".3"/>
    <path id="path462567" d="m501.32 556.69c-26.946 7.1207-49.514 10.993-80.151 44.287l8.6401 9.166 7.2119 5.271c9.5772 1.8389 12.574-0.48019 16.218-2.3903l5.7129-5.2515 2.521-12.145 5.8977-6.8688 13.906-3.9597 13.21-2.209 4.6146-5.1249z" opacity=".3" stroke="#000" stroke-width=".75755px"/>
    <path id="path462569" d="m501.85 545.56-0.53576 11.122c-23.394 4.5378-56.455 13.38-80.151 44.287l0.9489-26.048c24.242-16.672 51.513-24.42 79.738-29.361z" opacity=".5" stroke="#000" stroke-width=".75755px"/>
   </g>
   <path id="path462573" d="m456.27 673.55 8.9612-3.4511s26.618 2.7236 15.186 11.572c-0.83782 8.6271 2.3681 12.214-10.898 7.1241 0 0-27.392 14.309-13.248-15.245z" fill="#6f0" stroke="#333" stroke-width="1.4024"/>
   <path id="path6890" d="m458.82 739.7c1.6666-0.36517 1.7961 2.3992 3.9484 2.3654 2.1692 0.52364 4.6395-0.69175 5.1197-2.5142 2.0808 0.77675 4.4109-1.2404 3.4228-2.9198-0.59-1.3129-2.3907-1.4369-3.8386-1.3491-3.0626 0.029-6.134-0.0587-9.1911 0.045-2.2538 0.28064-2.9108 3.0278-0.95599 3.9955 0.43777 0.24564 0.96562 0.37858 1.4948 0.37736z" fill="#fff" opacity=".77" stroke-width="2.0521"/>
  </g>
 </g>
</svg>
