<?xml version="1.0" encoding="UTF-8"?>
<svg width="195.25mm" height="103.6mm" version="1.1" viewBox="0 0 195.25 103.6" xmlns="http://www.w3.org/2000/svg" xmlns:cc="http://creativecommons.org/ns#" xmlns:dc="http://purl.org/dc/elements/1.1/" xmlns:rdf="http://www.w3.org/1999/02/22-rdf-syntax-ns#" xmlns:xlink="http://www.w3.org/1999/xlink">
 <defs>
  <clipPath id="clipPath37587">
   <rect x="34.508" y="74.654" width="195.25" height="104.13"/>
  </clipPath>
  <clipPath id="clipPath37595">
   <rect x="34.508" y="74.654" width="195.25" height="104.13"/>
  </clipPath>
  <clipPath id="clipPath37599">
   <rect x="34.508" y="74.654" width="195.25" height="104.13"/>
  </clipPath>
  <linearGradient id="linearGradient21073" x1="1598.5" x2="1592.2" y1="-293.26" y2="475.72" gradientTransform="matrix(.22682 0 0 .17815 -232.4 135.8)" gradientUnits="userSpaceOnUse">
   <stop stop-color="#9ce5ff" offset="0"/>
   <stop stop-color="#9ce5ff" stop-opacity="0" offset="1"/>
  </linearGradient>
 </defs>
 <metadata>
  <rdf:RDF>
   <cc:Work rdf:about="">
    <dc:format>image/svg+xml</dc:format>
    <dc:type rdf:resource="http://purl.org/dc/dcmitype/StillImage"/>
   </cc:Work>
  </rdf:RDF>
 </metadata>
 <g transform="translate(-34.508 -74.654)">
  <rect x="34.508" y="74.654" width="195.25" height="104.13" fill="url(#linearGradient21073)" opacity=".9"/>
  <g fill="#fff" fill-rule="evenodd">
   <path d="m195.59 94.495c1.7532 0.81738 2.0189 0.25347 3.9787 0.22809 2.4393 0.32035 2.7643 0.3601 3.7603 0.22938 2.1856-0.94356 5.4459 0.07682 7.216-0.25823-0.92138-0.45514-3.4393 0.12546-3.6262-1.064-1.5224-0.85614-2.1899-1.1637-3.0524-0.66301-1.2934 0.94393-1.0987 0.54963-2.5871 0.53567-1.7626-0.90591-4.7566-2.2643-6.0947-1.0603-2.6183 0.95246-4.563-0.95756-5.53-0.65047-2.2248 0.70652-3.7623 2.6644-5.6202 2.8994 2.0339-0.05425 8.465 0.06588 10.471 0.2977 1.232-0.03874 0.80468-0.31765 1.0848-0.49417z" fill-opacity=".92941" opacity=".8"/>
   <path transform="translate(7.888 30.445)" d="m146.34 113.86c1.4333 0.86188 1.6505 0.26727 3.2525 0.2405 1.9941 0.3378 2.2598 0.37971 3.074 0.24187 1.7867-0.99493 4.4519 0.081 5.8989-0.27229-0.7532-0.47994-2.8116 0.13228-2.9644-1.1219-1.2445-0.90277-1.7902-1.2271-2.4952-0.69913-1.0574 0.99535-0.89823 0.57957-2.115 0.56486-1.4409-0.95525-3.5327-1.2777-4.6266-8e-3 -2.4228 0.10306-2.2999 0.54046-4.632 0.61008 1.6626-0.0572 2.968 0.19954 4.6077 0.44399z" clip-path="url(#clipPath37599)" fill-opacity=".92941" opacity=".8"/>
   <path transform="matrix(.78885 0 0 .78885 27.124 25.707)" d="m58.077 111.93c-5.2149 1.0414-10.055 1.9734-15.071 1.1491-4.2564-2.3702-10.606 0.19302-14.053-0.64866 1.7943-1.1434 6.6979 0.31512 7.0619-2.6727 2.9647-2.1506 4.2648-2.9232 5.9443-1.6655 2.5189 2.3712 4.3608-4.6863 7.2594-4.7214 3.4325-2.2756 6.1948 3.0233 8.8009 6.0481 5.7717 0.2455 9.7444 2.2971 15.3 2.463-3.9277-0.0737-12.089-0.42551-15.242 0.0481z" clip-path="url(#clipPath37595)" opacity=".699"/>
   <path transform="matrix(1.1078 0 0 1.2492 -189.77 -30.442)" d="m207.66 132.36c-1.9442 1.1523-2.2389 0.35733-4.412 0.32155-2.705 0.45162-3.0654 0.50765-4.1699 0.32337-4.3789 0.0664-6.039 0.10833-8.0019-0.36405 1.0217-0.64167 5.1962-0.46492 5.4035-2.1418 0.95635-2.3988 1.3714-1.9156 2.3277-1.2098 1.4343 1.3308 0.89319 1.6917 2.5437 1.672 1.9545-1.2772 4.7921-1.7082 6.276-0.0106 3.2865 0.13778 3.1198 0.72258 6.2832 0.81566-2.2554-0.0765-4.026 0.26679-6.2504 0.59362z" clip-path="url(#clipPath37587)" fill-opacity=".92941" opacity=".804"/>
   <path transform="matrix(1.1078 0 0 1.2492 5.5471 -30.861)" d="m207.66 132.36c-1.9442 1.1523-2.2389 0.35733-4.412 0.32155-2.705 0.45162-3.0654 0.50765-4.1699 0.32337-4.3789 0.0664-6.039 0.10833-8.0019-0.36405 1.0217-0.64167 5.1962-0.46492 5.4035-2.1418 0.95635-2.3988 1.3714-1.9156 2.3277-1.2098 1.4343 1.3308 0.89319 1.6917 2.5437 1.672 1.9545-1.2772 4.7921-1.7082 6.276-0.0106 3.2865 0.13778 3.1198 0.72258 6.2832 0.81566-2.2554-0.0765-4.026 0.26679-6.2504 0.59362z" clip-path="url(#clipPath37587)" fill-opacity=".92941" opacity=".804"/>
  </g>
 </g>
</svg>
