<svg id="eVbCnozYBiE1" xmlns="http://www.w3.org/2000/svg" xmlns:xlink="http://www.w3.org/1999/xlink" viewBox="0 0 167.93919 277.21634" shape-rendering="geometricPrecision" text-rendering="geometricPrecision"><style><![CDATA[#eVbCnozYBiE5_to {animation: eVbCnozYBiE5_to__to 30000ms linear infinite normal forwards}@keyframes eVbCnozYBiE5_to__to { 0% {transform: translate(113.974838px,86.560753px)} 72% {transform: translate(152.565205px,86.560753px)} 100% {transform: translate(152.565205px,86.560753px)}} #eVbCnozYBiE7_to {animation: eVbCnozYBiE7_to__to 30000ms linear infinite normal forwards}@keyframes eVbCnozYBiE7_to__to { 0% {transform: translate(115.96376px,86.560753px)} 63.333333% {transform: translate(78.987487px,86.560753px)} 100% {transform: translate(78.987487px,86.560753px)}} #eVbCnozYBiE9_to {animation: eVbCnozYBiE9_to__to 30000ms linear infinite normal forwards}@keyframes eVbCnozYBiE9_to__to { 0% {transform: translate(118.3201px,86.560753px)} 82% {transform: translate(162.326641px,86.560753px)} 100% {transform: translate(162.326641px,86.560753px)}} #eVbCnozYBiE11_to {animation: eVbCnozYBiE11_to__to 30000ms linear infinite normal forwards}@keyframes eVbCnozYBiE11_to__to { 0% {transform: translate(115.96376px,86.560753px)} 71.333333% {transform: translate(67.49034px,86.560753px)} 100% {transform: translate(67.49034px,86.560753px)}} #eVbCnozYBiE13_to {animation: eVbCnozYBiE13_to__to 30000ms linear infinite normal forwards}@keyframes eVbCnozYBiE13_to__to { 0% {transform: translate(115.96376px,86.560753px)} 67.333333% {transform: translate(152.879393px,86.560753px)} 72.266667% {transform: translate(155.407285px,86.560753px)} 100% {transform: translate(155.407285px,86.560753px)}}]]></style><g transform="translate(-90.290993 3.584917)"><rect width="167.939" height="277.216" rx="0" ry="0" transform="translate(90.290995-3.58458)" opacity="0.9" fill="#00e6ff" stroke-width="0.418803"/><g transform="matrix(5.05495 0 0 4.6051-475.545-339.493)" opacity="0.8"><g id="eVbCnozYBiE5_to" transform="translate(113.974838,86.560753)"><path d="M115.59608,86.186247c-.57997-.06616-1.0733-1.443-2.0691-.89075-.73966.36436-.77325,1.0741-1.6486,1.0382-.89898.61888-.0386,1.8592.88797,1.5784c1.0532-.03714,2.126.07921,3.1655-.06781.85706-.33752.588-1.6797-.33578-1.658Z" transform="translate(-115.327516,-86.560753)" opacity="0.77" fill="#fff" stroke-width="0.014448"/></g></g><g transform="matrix(4.34989 0 0 3.96278-262.348-269.861)" opacity="0.8"><g id="eVbCnozYBiE7_to" transform="translate(115.96376,86.560753)"><path d="M117.585,86.186247c-.57997-.06616-1.0733-1.443-2.0691-.89075-.73966.36436-.77325,1.0741-1.6486,1.0382-.89898.61888-.0386,1.8592.88797,1.5784c1.0532-.03714,2.126.07921,3.1655-.06781.85706-.33752.588-1.6797-.33578-1.658Z" transform="translate(-115.96376,-86.560753)" opacity="0.77" fill="#fff" stroke-width="0.014448"/></g></g><g transform="matrix(3.18189 0 0 2.89873-250.778-140.437)" opacity="0.8"><g id="eVbCnozYBiE9_to" transform="translate(118.3201,86.560753)"><path d="M117.585,86.186247c-.57997-.06616-1.0733-1.443-2.0691-.89075-.73966.36436-.77325,1.0741-1.6486,1.0382-.89898.61888-.0386,1.8592.88797,1.5784c1.0532-.03714,2.126.07921,3.1655-.06781.85706-.33752.588-1.6797-.33578-1.658Z" transform="translate(-115.96376,-86.560753)" opacity="0.77" fill="#fff" stroke-width="0.014448"/></g></g><g transform="matrix(3.3794 0 0 3.07865-164.44-144.584)" opacity="0.8"><g id="eVbCnozYBiE11_to" transform="translate(115.96376,86.560753)"><path d="M117.585,86.186247c-.57997-.06616-1.0733-1.443-2.0691-.89075-.73966.36436-.77325,1.0741-1.6486,1.0382-.89898.61888-.0386,1.8592.88797,1.5784c1.0532-.03714,2.126.07921,3.1655-.06781.85706-.33752.588-1.6797-.33578-1.658Z" transform="translate(-111.402103,-86.560753)" opacity="0.77" fill="#fff" stroke-width="0.014448"/></g></g><g transform="matrix(2.72936 0 0 2.48647-159.033-27.0625)" opacity="0.8"><g id="eVbCnozYBiE13_to" transform="translate(115.96376,86.560753)"><path d="M117.585,86.186247c-.57997-.06616-1.0733-1.443-2.0691-.89075-.73966.36436-.77325,1.0741-1.6486,1.0382-.89898.61888-.0386,1.8592.88797,1.5784c1.0532-.03714,2.126.07921,3.1655-.06781.85706-.33752.588-1.6797-.33578-1.658Z" transform="translate(-115.96376,-86.560753)" opacity="0.77" fill="#fff" stroke-width="0.014448"/></g></g></g></svg>