<?xml version="1.0" encoding="UTF-8"?>
<!-- Created with Inkscape (http://www.inkscape.org/) -->
<svg id="svg1" width="110.46mm" height="130.24mm" version="1.1" viewBox="0 0 110.46 130.24" xml:space="preserve" xmlns="http://www.w3.org/2000/svg"><g id="layer1" transform="translate(-171.37 165.96)"><path id="path3" d="m215.44-36.433c0.7343-0.79677-0.0105 0.80427 0 0zm3.5977-2.5564c-0.94926-4.5915 1.399-10.203 1.0268-15.24-1.937 4.6442-1.1326 10.204-2.4242 15.123-1.0488-0.32477-1.7532-1.7593-3.0011-0.19348-0.97312-2.3909-2.4152 1.3563-3.1282-1.7017 2.7363-2.9787 3.1937-10.464 2.8391-12.816-1.9248 3.7325-1.8648 12.828-4.4224 13.463-0.64795-2.4225-2.8108 1.9512-2.8684-1.6412-2.5382 2.6161-1.7077-2.4389-4.0426 0.2175-0.3137-3.0223-2.3018 0.266-2.8442-2.9592-2.8865 2.1985-1.2064-2.3203-0.0274-3.7336 0.59624-2.2742 6.4617-12.211 1.7762-5.9586-2.1646 2.0218-3.5207 9.4469-5.2566 8.826-0.66801-2.8958-2.9656 1.994-1.4734-2.7292 0.80384-3.7336 5.5336-9.1731 5.9691-10.918-4.506 3.0045-5.2518 8.9529-8.748 12.428 0.27513-3.7758 3.2508-6.5189 5.4276-10.536 2.055-1.8152 3.5025-4.7307 0.21521-1.3713-2.9631 1.3808-6.1495 10.695-7.0329 9.4964 1.8427-5.9531 6.0903-11.095 11.529-14.125 1.7112-3.8789 4.2801-4.4399 4.2937-2.8752 1.083-2.6815 6.1455-6.9745 7.5764-5.325-5.1752 2.3266-5.2087 9.8723-10.232 12.214-3.3947 2.2511-8.8907 9.4302-7.3843 11.359 3.4384-2.3266 3.6778-10.083 8.24-10.032 2.5907-1.6112 3.3389-6.3421 6.2095-6.7024 0.19622-3.7486 7.2475-7.7822 7.5016-5.8038-5.7978 2.1368-4.2065 10.408-8.9293 14.046-2.2931 3.1462-5.8317 11.053-4.5023 12.612 2.899-4.7189 3.584-10.882 7.7305-14.951 0.60776 3.9872-3.0408 9.861-3.6482 14.62-0.97461 5.6265 2.9506-3.4558 2.8693-5.4817 0.97915-5.882 3.4567-11.239 4.9515-16.969 1.6922-4.4941 7.4453-5.392 11.877-7.4407 12.203-6.3086 16.895-24.585 7.3819-35.113-4.6921-5.037-11.311-8.2149-18.133-8.7149 1.4788 0.32091 1.4962 6.5501 2.8548 1.3691 0.45119-2.2992 2.072 4.1052 0.0915 5.4736 1.5257 3.1122-5.9172 11.4 0.27802 7.2288 1.4493-3.1837 0.55958-11.299 2.7605-11.943-0.341 3.7924 1.2208 1.3093 1.7456 0.0878-0.0814 3.8477-2.1677 7.9074-3.8267 11.816-3.6476 4.1288 5.4281 0.42686 3.0242-3.3734-0.54414-2.0016 3.8054-11.194 2.5446-4.9081 2.3653 1.1232 1.6202-4.3517 1.9732 0.0358-0.92474 3.9141-4.4124 8.3072-5.9592 10.969 3.7508 1.2508 8.3758-9.2558 3.8578-2.7201 0.97238-2.1162 3.2919-8.1481 3.8421-8.6828-1.0904 4.5044 1.3553 0.63911 1.6372 1.6041-0.63709 4.3613-5.3559 8.269-7.5496 10.868 3.681 0.0404 7.689-5.5106 6.561-6.192 5.1787-4.0402-0.65004 5.0042-2.9378 5.7218-4.7733 2.0572-0.11864 1.39-0.38588 1.734-1.3881 2.7928 7.0801-4.7439 2.0647-1.0707-1.0902-0.04871 4.4522-4.4947 4.8406-6.699 2.2384-2.5428-1.0025 5.2502-2.3831 6.1608-1.8087 1.7244-7.8266 4.7703-1.805 2.6532 5.7202-2.4118-4.4859 2.2668-1.1003 1.4391 3.5552 0.25456 7.0802-6.7355 8.3738-6.2349-1.2064 3.7613-6.9354 6.3322-8.5066 7.4462 4.2057-0.03847 7.2791-2.9991 9.6768-5.7181-0.60553 4.335-7.1773 6.1178-8.7652 6.6143 3.1266 2.2399 12.117-6.2035 6.6524-0.42503-2.5528 1.5089-11.009 0.68966-4.0689 2.2741 3.6554 0.13213 4.7-1.2078 6.5424-2.0658-2.1638 1.6672-1.9901 2.7534-2.6497 3.3565-1.7581-0.32838-6.2981-0.40962-6.9791 0.34152 2.4896 3.5651 13.267-3.1043 6.6471 1.467-2.3204 0.6446-10.082-0.54877-3.8629 1.3853 6.7095 0.0662-1.8225 2.0113-3.6315 0.29928 0.98028 3.0921 10.417 1.7882 3.1805 2.8362-3.2488-1.1944-4.4896-0.74408-0.5719 0.61716 4.2316 1.1752-3.8123-0.31754-3.6707-0.74554-8e-3 2.9566 9.355 3.6543 3.0505 3.3767-2.0241-0.17882-5.3647-3.5331-2.2515-0.06617 2.4202 0.68709 3.912 2.6593 0.61799 0.90474-2.0648-0.21891-4.0715-4.2875-2.6749-0.05932 4.8934 2.686-0.86496 0.74824-0.49598 1.3973 1.4259 2.9615 6.523-0.87228 2.7433 1.9998-3.9193 0.20201-4.5292-7.5788-4.5309-1.5382 2.0892 1.142 3.081 5.2794 0.4777 1.9221-3.6574-2.2869-1.6716-4.5427 1.4201-6.8406 4.6267-5.128 2.5249-14.017-3.7821-16.673-6.7703-3.7236-16.872-0.14257-18.405 7.8024-0.80107 2.8385-1.4568 4.9116-0.94902 1.0164-0.10855-5.0192 4.8722-7.838 8.4834-10.623 5.2053 2.385 4.3538-12.668 3.4603-5.9537-2.582-1.2999-1.1912-7.4589-3.4179-10.066-4.1484-0.71382 3.267 3.5172 0.20809 5.5554 1.5931 1.9067 1.6461 10.493 0.0202 8.8014 0.84286-3.2622-1.8046-6.1777-2.6348-6.0028-0.18097-2.4991-1.3022-6.183-3.2099-7.1153 1.6949 4.0346 4.2822 10.257 3.4435 13.932-0.17856-2.4464-3.3592-8.0851-1.3201-2.6143 0.8597 5.3332-2.2237-4.7864-2.5263-1.5291-1.1306-1.774-2.3614-7.0456-2.5305-2.7689 1.5072 2.3996 5.1564 7.8555 3.2407 9.3874-0.94875-4.509-1.1569-3.1504-1.4475-1.9304-2.7825-1.724-3.9641-5.3904-5.989-7.0164-0.73331 3.4394 3.7797 5.1105 5.1771 8.9037 0.79938 2.4642 0.27016 5.0725-0.61749 0.86024-1.4962-2.8112-0.21188 1.3694-3.405-1.0423-2.3259-0.18743-3.1472-6.1114-4.586-4.6781-0.52865 3.7085 6.2903 5.1978 7.6242 9.3562 0.69633 2.8493-2.797-3.9865-4.8978-3.7963-5.4361-3.1271 6.4667 4.0796 0.57171 2.6703-3.3652 0.20181-5.6304-6.9347-6.511-2.49 0.72741 1.2365 9.4927 3.5102 9.8617 7.8195-0.62722-2.7116-8.985-5.7343-3.4907-2.5788 4.6558 2.1844-3.6436 0.51103-5.0631-0.48815-3.6509-2.1297-4.9182 1.3914-0.9545 2.0367 2.1858 1.1705 7.347 3.2909 2.3027 2.4963 6.2922 3.3246-7.3944-1.4459-0.62001 1.6982 1.8432 0.18219 7.6175 0.83731 6.8223 2.321-3.5559-2.0612-9.383-0.35052-10.736-4.5341-1.2171 1.8874-2.9939 1.6774 0.47403 2.4707 2.5255 3.3152 7.8579 1.8967 10.072 4.2882-3.0513-1.1056-9.3431 1.1212-10.274-0.88789 0.55738 1.4682-4.3198 1.339-0.40018 2.2474 2.3636-1.3937 5.6271-0.31345 5.1681 0.43839 2.585-1.1763 7.0331 0.43853 7.3687 2.492-3.6213-1.9207-11.678 0.94965-12.584 2.8094 4.9376-1.2665 9.3286-2.1289 14.664-0.58375 0.25416 0.42557-6.27-0.06039-7.3938 2.7189-2.2655 0.47145-8.7362 5.2532-2.8576 2.7973 0.69843-2.0456 5.103-2.2521 3.9419-0.75174 2.6175-1.7648 5.1953-3.0085 8.7816-2.2341-5.2649 0.40384-7.1627 6.6057-12.232 7.6753-5.8042 1.9213-9.7845 6.7746-12.994 11.708 0.483-3.8129 4.688-7.8831 7.9644-10.585 2.4902-2.5866-4.5972 2.2208-5.3206 3.7294-1.3507 1.9497-5.7399 7.8553-3.0114 2.1456 1.1929-1.7076 7.6962-7.266 7.67-7.6218-2.3187 2.237-2.0367-0.17168-4.8358 3.2133-1.7519 1.5899-6.6538 9.1901-4.6676 2.5892 3.3134-1.4885 6.7068-6.6368 9.4489-7.9734-4.3548 0.31822-9.1854 8.3714-10.746 7.5292 1.2858-2.7638-3.7679-0.02594-0.49505-3.1889 1.7067-1.4686 6.9363-5.256 4.5622-4.9028 2.6763-1.3569 7.2075-4.0302 1.6786-1.626-2.0333 1.3031-8.6837 4.4305-6.1139 5.8647-3.6969 0.16817-1.731-0.4111-1.6728-3.0128-3.9524-3.1594 5.8604-4.5332 7.2234-6.3509 0.80355-0.74026 5.1148-1.6004 0.94066-1.0178-3.8184-0.28412-7.687 3.5797-10.333 4.0636 2.4691-2.9498-2.6735-1.3332 0.74338-4.164 0.95796-0.40467 5.3003-0.93146 8.2901-2.718-1.0508-1.9607-9.8251 3.4159-9.354 1.4436 1.7585-1.8395-3.2378-1.997 0.92176-3.2422 3.4391-0.90899 9.6781-1.7138 8.7692-2.7807-3.2914-0.69836-7.691 1.3745-10.15 1.0627 2.873-1.986-1.9267-2.3292 1.3982-3.8932 1.2751 0.10112 8.247-0.2057 7.5462-1.1966-2.144-0.74662-8.7482 1.0162-8.6178-0.39238 3.3423-1.025-2.099-2.508 1.8649-3.6496-2.3764-1.252 1.5848-3.1314-0.73436-3.7527 2.84-2.3654 6.2113 0.71857 8.4245 0.41836 3.2565-0.25872-4.8407-2.5787-6.523-2.2838-3.736-1.1822 4.1823-1.4048 5.1851 0.02387 6.9712 0.75491-3.8228-2.7714-5.9397-2.2328 3.0691-0.82993 1.0227-2.3541 3.0978-3.1045-2.7879-1.7087 2.1581-0.76743 0.5336-2.7104 2.4351 0.59649 9.9744 1.4474 3.8892-0.66457-4.9353-0.26008-1.7088-2.8569-0.0973-1.386 1.4788 1.429 8.4791 4.2432 3.4166 0.57133-2.515-1.2967-7.083-2.0567-3.4505-3.5682-1.822-1.3961 2.7743-0.47489 0.78632-2.4479 2.742 0.16369 9.4161 5.643 8.6865 4.0751-1.1988-2.7233-9.3527-4.3797-6.2945-5.4835 2.6745 0.87593 7.7112 5.2804 8.5153 4.9992-1.2094-2.9323-9.6915-5.3356-6.9253-6.4354 2.5074 0.67253 7.5512 5.5194 7.8482 4.8784-0.75416-2.3736-8.7861-5.4536-6.1808-5.9163 2.6982 0.64491 8.08 6.7339 8.2734 5.6062-1.3529-3.4342-6.6531-4.3437-7.497-7.2435 3.1376 0.78229 7.1062 6.1781 8.7568 6.1788-0.73576-2.9748-7.5402-5.7918-6.4626-7.0252 2.7248 0.97076 6.3661 5.5886 7.5535 5.8033-0.0303-2.5082-8.5014-6.675-4.757-6.4175 1.8042 0.52668 5.4167 6.1953 5.6758 5.2078-3.0124-4.1157-5.6662-8.3477-9.3897-11.942-7.0552-4.3643-12.933-10.588-16.345-18.191-5.4632-6.8019 6.7196-2.3672 9.9739-6.1424 1.3204-2.3118-0.21881 4.1784 2.2828 5.1504 1.1266 2.6505 6.8541 7.5192 2.2442 2.6277 0.72756-1.1904 7.3646 8.0647 7.7207 6.8243-4.4028-4.8748-9.738-9.4331-11.378-16.077 0.68574-3.5319 2.357-9.0397 6.5973-5.2948 3.1954 0.83783 6.7475 4.099 8.6287 1.622 1.6872 7e-3 1.0793-2.8399 3.5918-0.85282 1.0072-2.9208 3.9841 1.6835 4.5379-2.1031 1.5412 2.4814 3.5004 1.1707 4.3109 0.0355 2.693 3.5224 2.6814-2.572 5.0954 1.1348 2.0769-2.8252 1.7346 0.30817 4.17 0.2173 1.6026-2.9267 3.4162 2.0885 5.9377-0.42687 0.88212 3.7838 3.767-1.1634 4.712 2.4882 2.7714-1.5239 4.2227 2.2613 6.2061 0.10209 0.80499 3.7725 3.8458 0.33128 4.9587 3.7054 2.3771-2.2202 2.3248 2.9922 4.5501 1.1777 0.54975 3.357 3.0233 0.5019 3.5609 3.7989 3.7369-0.66207-2.9907 7.5773-3.8796 10.357-0.75306 1.6605-5.3949 9.0786-1.3337 3.8717 3.7031-3.6983 4.9476-9.8324 8.1504-13.129 0.35816 0.45708 1.4466 3.2551 2.4903 2.6238-2.6129 5.3009-6.889 10.126-9.5144 15.107 4.1572-4.3765 7.4475-9.5973 11.38-14.113-0.77823 2.277 1.1977 2.1771 1.6951 2.7524 0.29144 1.4502 2.2231 0.12775 1.6918 2.6647 4.4582-1.02-2.5648 5.1471-3.6943 6.6632-1.8452 1.9087-7.0422 7.3318-6.4978 7.6161 3.5469-3.9767 8.7524-6.964 10.865-11.934 3.9817-2.5382 0.65072 2.6058 3.7499 2.157-1.6647 3.3459 3.5353 0.21702 1.2367 3.7975 2.7625 0.2943 0.0672 4.406 3.5468 3.654-1.5131 1.4346-0.54617 3.3698 0.95672 2.8243-1.8567 2.6588 2.645 2.5985 0.60377 5.2942 2.5361 0.42283-0.2406 3.5352 1.7032 4.5358-1.2597 2.741 2.359 2.023 0.12465 4.8123 2.513 1.6749-0.82799 3.7943 1.2275 5.3014-1.9684 1.8032 1.4143 3.2417-1.1478 4.8782 1.7108 2.0565-0.85918 5.8149 0.35126 7.8429-0.11555 0.56738-1.6745 3.3311-0.56114 4.3052-1.4105 1.7205-0.12364 3.0159-1.941 5.0467 1.6828 1.3295-1.9063 2.4967-0.31931 4.2234-2.1784 1.4263-2.2653 6.6054-4.0404 6.3813-0.61361 3.65-3.4826 6.2712-5.5541 9.4557 0.64804 1.3539-3.117 2.2562-2.7692 3.9732-2.2563 0.08848-1.0534 3.0961-3.5482 2.5705 0.0262 3.0922-3.1098 1.3241-3.0639 4.1352-1.9458-1.3429-3.1285 3.6-5.1231 0.36703-1.9336-3.7373-4.8323-7.1193-7.9922-9.8 1.0888 4.2409 9.0594 10.203 7.9995 12.187-2.763-1.0359-0.3488 3.9782-3.6966 1.0227 0.36557 3.9652-3.1698-0.15893-3.0514 3.8546-2.0009-3.1767-2.0405 1.8098-4.1484 0.36543-3.5608 3.127-1.7184-6.353-4.2683-8.584-0.63906-2.0627-2.965-7.2261-1.6916-2.0666 0.56522 3.3926 4.673 10.733 2.359 11.96-1.5957-1.334-2.0052 2.6102-3.4564 0.17988-0.24101 3.6948-2.349-2.3279-2.9197 1.6061-2.3145-4.4345-0.63664-10.992-2.606-15.609-0.54302 5.0643 1.1242 10.029 0.91095 15.063-2.4361-0.24003-0.64036-7.5258-1.685-10.48-0.0323-5.6243-1.5464-11.096-0.99741-16.782-0.75494-2.4422 1.7032-4.2473 1.9766-6.1551-6.1316 4.093-2.2304 11.557-3.4889 17.441-0.74933 5.1111-0.52315 10.342 0.23915 15.437-2.7209 2.9496-0.89152-5.5901-1.6625-7.2357-0.52456-2.0585 0.91218-10.769-0.55014-4.595-1.1657 3.5462 1.0369 11.565-0.90338 12.684-1.2668-2.7607-1.7799 2.3016-2.6262 0.06612zm1.7969-2.1076c0.91582-3.8704 0.74075-10.624 0.78432-13.161-1.1595 4.6402-1.4953 9.4697-1.4525 14.238l0.66821-1.0763zm10.538-2.7449c-0.84213-2.8831-0.91102-7.8094-1.889-9.4826-0.0462 3.366 0.78116 11.155 1.871 12.077 0.24341-0.84353 0.14426-1.7423 0.018-2.5943zm-17.009 2.3605c2.2808-3.4597 0.67023-9.0727 3.261-12.1 0.0979 3.3268-2.7069 11.677-0.76506 11.856 0.97187-4.9923 1.0281-10.11 2.5866-14.988 2.4653-2.43 0.36433-8.9823 3.3087-12.578 5.388-5.0562-5.2799 0.82551-3.4727 4.6232 0.29115 5.8197-2.9303 10.077-4.0284 15.341 0.16247 1.7988-2.4785 8.2131-0.89016 7.8462zm19.047-0.60782c1.3558-3.6416-3.6275-10.383-1.0783-12.462 0.4252 3.9971 1.9555 10.113 3.0574 12.737 1.627-5.5981-3.7855-10.772-1.8148-16.245-2.4304-3.7929-3.4201-9.0027-2.7224-13.504 2.3733-6.2702-4.6261 3.4266-1.416 5.9074 1.2793 3.3125 3.6318 9.2351 1.0385 10.43 1.1125 4.0079 0.48124 10.683 2.9356 13.135zm-25.588-1.2061c1.3965-4.1144 2.9972-8.6231 3.7305-12.741-2.2197 3.7996-4.4235 10.281-4.5743 13.409zm32.492-0.55227c0.23109-4.1089-2.8228-8.4449-4.4371-12.375-0.0853 4.054 2.8993 8.9047 4.3477 12.853l0.12573-0.14052-0.0364-0.33784zm2.0658-0.77733c0.32768-3.8084-3.0831-9.8622-4.7838-10.834 1.0645 3.2755 3.4581 8.6697 4.7838 10.834zm-38.72-0.22666c0.83799-3.0316 3.7348-9.2298 3.2642-10.479-1.543 3.3338-4.5066 8.2677-4.2571 11.131zm40.525-3.5718c-1.0554-2.437-6.9453-11.592-3.2802-4.1195 1.4608 1.6379 5.1752 11.815 3.2802 4.1195zm-42.807 3.081c1.1595-2.5899 4.3055-10.177 3.6533-10.464-0.88795 2.3184-6.482 10.211-3.6533 10.464zm46.47-2.0624c-2.0874-3.061-7.2688-9.6757-6.2454-11.533 2.162 3.7923 5.2976 10.098 7.8442 11.719 0.69779-3.934-6.006-8.0897-7.7299-12.483-3.9619-3.759-8.7703-9.0484-7.0732-15.029 3.0311-5.7187-2.5804 0.15777-1.7218 3.3405 0.5078 5.0793 5.7068 8.3306 6.0806 13.246-1.1713 3.0899 1.8752-0.83692 1.95 2.0712 1.92 2.7544 3.9163 8.8514 6.1917 9.6126l0.13088-0.14122zm5.7686-3.1995c-0.35868-2.9434-7.3213-9.4197-7.2489-8.6502-3.6602-2.7855 2.8267 5.4405 4.0293 6.3187 0.76609 0.01458 3.2582 4.6701 3.2196 2.3315zm2.3634-1.6003c-0.98506-3.8501-9.0976-8.4561-8.1004-10.681 2.0453 2.8745 8.1938 8.96 9.4274 8.2752-0.97352-1.692 2.3779-1.6875-1.3311-2.9692-6.3616-4.0594-10.852-10.384-17.107-14.596-2.7504-1.2721 0.57524-11.518-2.0316-4.997-1.4612 6.2868 8.7218 8.5657 8.0088 14.348-3.3894-3.983-0.60188 2.7407 0.84933 1.7561 2.7631 1.1869 6.3972 7.8382 10.285 8.8637zm-32.771-4.154c-0.65677-1.2525-0.47364 2.61 0 0zm37.414 0.27946c-1.8005-4.3618-8.0691-6.3096-11.887-9.2855 2.935 4.2778 7.3694 7.3304 11.966 9.5125zm-22.94-0.92309c0.0104-0.80426-0.73427 0.79678 0 0zm-28.103-0.23918c-0.65674-0.89284-0.21683 0.82498 0 0zm52.619-1.5622c-2.5701-2.0635 2.4726-1.3382-1.9591-2.5039-2.7334-1.1056-10.124-5.0357-8.7753-6.4463 2.5386 2.7099 9.5271 7.1097 11.332 5.6147-3.2623-3.4877-9.4488-4.802-12.827-8.9878-1.8621-1.2008-4.9772-2.9657-7.7958-5.0247-1.9402-2.2677-1.8427-6.2388 0.79856-2.3918 4.7368 2.7091 10.225 3.7681 14.822 6.807 2.1503 1.1791 10.077 4.979 9.2521 0.70732-3.0775-1.6982-10.804-2.3592-10.775-5.1514 3.7504 1.1601 9.5644 5.2261 12.251 3.7487 1.5436 9e-3 5.4718-1.0783 0.53261-1.1188-5.1556-1.6344-10.518-2.6968-15.547-4.5951-3.3232 0.46551-7.6557-2.8738-8.4108-2.1548-1.7418-2.0385-3.8089-7.8329-0.42467-3.583-1.4214-2.9826 4.5866 2.7358 6.6436 1.5571 6.099 1.5881 11.994 4.4516 18.316 5.2313 5.363-2.773-4.786-2.3715-6.655-3.5882-2.6031 0.0025-7.4924-1.9941-1.8062-1.3975 5.4704 1.2658 9.1416 2.8695 12.879 0.43636 0.0793-0.25298-7.9459-0.91126-10.506-1.4928-2.624 1.2618-8.3778-2.7774-3.6862-1.6543 3.4002 0.48113 10.793 2.6433 12.161 1.3763-2.6938-1.1908 4.9066-1.1728-0.67216-1.7662-5.9836-1.776-12.006-0.08993-17.932-0.33812-5.9372-0.14191 1.606 1.2212 3.6487 0.83284-0.082 3.0813-7.1436 0.17116-10.074 0.34144-2.454-0.3322-4.9334-5.0694-4.7972-2.5301-2.4573 3.792 4.7962 9.169 9.6011 9.3039 3.1528 0.06235 3.4613 3.2107 0.24138 1.488-4.3625-1.4024-11.136-2.8033-11.688-7.8027-2.255 3.3597 1.0071 9.4663 5.108 10.86 2.4801 0.8006 7.0778 5.5621 1.922 4.0052 4.0004 3.0535 7.3162 7.6249 12.333 9.4558 0.4883-0.10614 2.4151 1.8615 2.4875 0.7616zm-25.188-1.2482c-0.37276 0.01484 0.2208 2.1169 0 0zm27.422-3.9643c3.7543-1.6252-2.5112-1.7897-4.7049-3.1696-1.8786-0.54438-10.05-5.697-5.0626-1.2219 2.7383 2.0951 6.1823 4.5547 9.7675 4.3916zm-82.903-0.93885c1.8671-2.6747 6.9872-6.0884 7.8319-7.3648-2.0641 0.27104-13.821 9.5023-7.8319 7.3648zm85.333 0.05979c-0.36279-0.91093-0.73032 0.75732 0 0zm0.77234-1.1012c-0.88056-0.27128-0.43937 0.41652 0 0zm-1.1311-0.49127c-2.4865-0.61809 3.2826-1.316-0.61214-1.4958-3.4932-0.24693-11.379-5.2692-11.899-3.4999 3.4388 2.8341 8.3082 5.3836 12.512 4.9957zm-70.557-2.4735c-0.21685-0.82498-0.65677 0.89285 0 0zm28.083-0.41856c1.0579-2.0275-1.7656 2.1476 0 0zm-43.657-0.95671c1.5712-1.3135 3.2047-1.8914 1.9251-2.4833 2.1668-1.2133 9.0397-3.9351 2.5781-2.003-3.2783 0.31772-11.716 6.9438-4.5032 4.4863zm54.58-0.56322c-0.86881-1.2233 0.66248 2.1346 0 0zm11.885 0.20445c-3.7732-1.7203-7.7693-6.4891-8.3774-9.0151-0.47926 4.995 5.0984 7.451 8.5692 9.4149l-0.19176-0.39983zm-62.581-2.5114c0.80624-1.0363-1.8676 1.3582 0 0zm5.3651-0.88931c1.1494-1.2897-2.3309 1.3175 0 0zm78.747-0.89256c1.3443 0.17176 6.349-1.444 0.71711-1.251-3.5582-0.33642-11.802-4.2865-12.764-1.9654 4.095 0.49788 8.032 3.5501 12.047 3.2163zm-88.788-1.0217c1.6633-1.2885 10.001-2.6649 3.6285-2.1062-2.1421 1.3198 0.40934-1.2253-2.8701 0.50784-3.14 0.57695-5.1966 3.9134-0.75835 1.5983zm93.021-2.5181c-0.36276-0.91093-0.73029 0.75731 0 0zm1.0115-0.1445c-0.88055-0.27128-0.43938 0.41652 0 0zm-95.126-1.2912c2.5268-0.70442 10.63-2.7295 3.2323-2.0153-2.6516-0.94973-8.9995 3.7569-3.2323 2.0153zm14.196 0.35941c-1.8991-1.6646-0.0762 1.1695 0 0zm7.5024-2.4167c-0.88055-0.27128-0.43938 0.41652 0 0zm75.341 0c-0.88053-0.27128-0.43938 0.41651 0 0zm-93.992-3.1248c4.6047-0.42346-2.4281-0.4883 1.6122-1.3526-2.9692-0.92155-10.142 1.7409-4.1604 1.5786 0.84926-0.07693 1.6986-0.15259 2.5482-0.22596zm93.937 0.16003c1.5596-0.79444-2.9177 0.71069 0 0zm-26.549-0.71753c-2.2405-0.67198 1.2547 0.84849 0 0zm-2.8777-1.6145c-2.9928-2.4656-1.985-5.5737 1.7888-3.1688 6.4764 0.41643 12.766-2.0514 19.29-1.4305 3.4195 0.97868 10.369-1.9366 3.7791-1.8821-2.8144-0.74557-9.3954 1.7119-10.293-0.03833 4.392-1.388 11.171 0.47247 13.75-2.5456 6.9598-3.0455-3.047 0.0837-5.4283-0.27494-3.5899-0.01738-10.908 3.0847-10.117 0.13118-2.9539-0.08668-6.8332 4.326-1.5641 1.6854 4.4852 0.75696-4.2133 2.8187-5.7025 2.9514-3.4299 2.8306-11.351-5.3271-8.6422 2.0082 0.15549 1.6259 6.8126 6.25 3.1393 2.5641zm26.576 0.95671c-2.1524-1.3592 5.7307-1.8696-0.0797-1.9037-4.3934 0.47996-11.184-1.5576-14.103 0.80868 4.7095 0.25267 9.4881 1.4624 14.182 1.095zm3.8617-2.1177c-0.88055-0.27128-0.43939 0.41652 0 0zm-3.3788-0.87659c-3.3994-0.97037 5.0831-2.5021-1.0444-1.865-4.7279 0.17316-10.106-0.33351-14.337 1.4646 5.1048 0.15716 10.284 0.78979 15.381 0.4004zm-90.395-0.24157c-2.1902-1.0346 5.0051-0.36019 0.22313-1.1937-3.1642-1.307-8.7696 0.44336-3.7292 1.3979 1.0281-0.04442 2.815 0.2278 3.5061-0.20422zm93.295-1.752c-0.88054-0.27128-0.43939 0.41652 0 0zm-90.536-0.5837c-1.6889-0.65224-11.441-3.4056-7.1722-0.1291 2.3767 0.04555 4.8167 0.52644 7.1722 0.1291zm65.23-0.92977c-2.2627-1.3809-8.5242-1.5378-5.5903-4.4588 5.0544-0.26575 11.758-1.6651 16.61-4.9464 3.8867-1.4662 12.244-0.0829 12.578-4.1618 5.4967-3.7361-3.3882 0.88453-5.9272 0.77898-3.8844 1.7787-8.1038 2.2953-10.734 1.06-4.4689 2.3856 0.0575 0.079 1.3384 1.3347-4.3735 2.5398-9.5663 6.2978-14.928 4.2914-3.9832-0.25567 1.3953 3.3261-1.0745 2.8276 1.6358 2.6195 5.0883 3.1758 7.7274 3.2743zm-66.5-0.60071c-3.2772-1.141 2.0019-0.88901-2.2486-1.8481-3.5144-2.0815-6.2838 0.92118-1.4212 1.2519 1.2224 0.0091 2.5056 0.67154 3.6698 0.59618zm87.394-4.444c2.858 0.0713 1.7898-2.8049 5.2495-3.1036-3.1782 1.3551-11.324 0.74769-15.632 3.2267 3.3792 0.20651 6.9148 0.40826 10.382-0.12319zm-22.191-1.9077c-1.9862 0.27458-11.001-4.3239-3.655-4.5526 8.3425-0.18388 13.293-8.1406 21.009-10.084 3.137-0.53933 7.5494-4.2578 7.2132-6.2925-4.2504 3.5034-9.6915 5.1531-14.119 8.4455-4.9324 1.6976 3.8406-4.1514 5.6317-4.4985 3.1442-1.3721 5.539-3.0249 6.833-5.0142 2.1255-3.5232-5.6781 3.3533-7.4645 3.6142-6.5873 3.975-11.183 11.184-19.063 12.756-2.7131 0.29072-6.4421-0.90261-5.1497 0.7723-0.0973 3.5977 5.6177 5.5913 8.7648 4.8529zm-7.5341-4.5444c0.88065-0.96252 0.91763 0.93559 0 0zm18.352 4.639c-0.88055-0.27125-0.43939 0.41647 0 0zm7.1961-0.70021c3.7166 0.55412 8.3437-2.4647 9.3576-4.2357-4.4824 2.4415-10.332 1.6415-14.575 4.1976 1.4892 0.8077 3.5894 0.0329 5.2176 0.0381zm-82.065-0.25474c-2.83-2.2208-8.0431-0.89563-2.429 0.25162 0.20432-0.0956 3.9892 0.55586 2.429-0.25162zm66.019 0.23742c-0.88051-0.27126-0.43938 0.41649 0 0zm22.961-1.1959c-0.88054-0.27131-0.43937 0.41652 0 0zm-87.363-0.42605c-1.9995-1.7665-9.9917-1.6669-3.3666-0.47822 0.4856-0.19135 4.2963 1.4802 3.3666 0.47822zm30.149-0.72456c3.9812-2.8331 1.5607-6.6225 1.69-10.68 0.397-2.2666-3.0844-7.3599-1.2396-2.18 0.82809 4-0.10603 9.8923-1.3524 13.113l0.90157-0.25392zm1.0716-8.9895c0.61107-0.85806 0.61113 0.85804 0 0zm-30.615 8.6648c-1.8517-2.0981-9.6374-2.6861-3.2887-0.71143 0.94968 0.0197 2.4844 1.1119 3.2887 0.71143zm0.23918-1.5835c-0.99725-0.81409-0.88762 0.42179 0 0zm38.363-1.64c3.4515-8.0351-3.2495 5.2646 0 0zm-39.32 1.2557c-0.69471-1.003-0.90692 0.92352 0 0zm76.118-0.60034c4.3986-0.65043 10.023-1.742 12.216-4.044 2.0884-3.6429-4.9554 1.7226-7.0456 1.3183-1.1849 0.40342-11.689 3.8862-5.1703 2.7257zm-16.204-1.5181c-0.4576-0.0144-7.7125-1.0176-2.3044-2.3938 3.8466-2.5269 9.4323-5.4524 10.273-10.38-3.6667 2.0526-6.1912 7.4525-10.675 9.2048-2.6678 1.0326-9.0528 1.7303-3.9106 3.4237 2.1174 0.65289 4.4776 0.71038 6.6174 0.14546zm-55.13-0.0135c-1.3744-2.033-9.5602-4.7978-4.178-1.6865 1.2739 0.36806 3.1535 1.7151 4.178 1.6865zm56.506-0.41826c-1.4883-0.23723-0.0186 0.41382 0 0zm13.613-0.30226c2.1683-0.09 8.2396-1.5592 11.841-3.5204 2e-3 -2.0855 4.2066-4.3401-0.59794-1.7996-2.7277 1.593-11.78 3.7104-11.243 5.32zm-11.78-0.40617c-0.68791-0.41805-1.9958 1.0497 0 0zm-57.532-0.20105c-1.0377-1.991-9.5912-5.2902-4.3014-2.0205 1.1957 0.43116 3.8004 2.2999 4.3014 2.0205zm60.972-2.4299c-1.3274-0.1118-2.4085 2.943 0 0zm8.2996 0.9925c4.929-1.7079 10.703-2.8673 13.388-7.7648-4.8091 3.6108-11.078 4.7473-15.899 8.3842 0.85213-0.13809 1.7038-0.30344 2.5114-0.61943zm-20.808-1.1537c2.5723-0.33823 8.7146-4.7199 3.0935-1.7391-2.7989 1.3483-9.6074 0.55245-4.3367-1.5537 3.6578-2.7916 10.648-6.698 9.8804-11.465-3.4675 3.341-5.372 6.5667-8.8957 9.6517-2.7393 2.0298-10.149 3.8558-3.0269 5.3757 1.0983-0.041 2.1947-0.13477 3.2853-0.26969zm-2.3918-0.88539c0.61112-0.85806 0.61107 0.85807 0 0zm16.046-0.14451c2.6917-1.1015-0.0872-1.316-0.5623 0.19465l0.0318 0.17521zm22.397 0.23919c-0.88059-0.2713-0.43932 0.41649 0 0zm-61.719-0.61787c-0.41009-0.41121 0.2065 1.3371 0 0zm-10.074-1.2946c-2.0325-4.9552-1.8434-1.0671 0 0zm1.1689-1.4082c0.0169-4.2383-1.6931 0.80914 0.31187 0.956l-0.31192-0.95606zm4.679 0.89406c-0.0765-2.6412-2.7315-5.3305-0.75806-1.2443-0.12408-0.39959 0.39672 2.8187 0.75806 1.2443zm22.958-0.53815c3.7052-1.8714 2.3368-6.3438 5.4423-9.328 0.95602-1.1299 5.4743-7.9709 2.3284-6.4149-3.4985 4.0967-4.665 10.246-9.5141 13.601-4.5056 2.0963-0.49587 2.5451 1.7433 2.1416zm-18.417-0.70196c-0.62249-4.1567-1.5381-2.0492-0.23927 0.70196l0.16892-0.2062 0.0702-0.49576zm44.965-1.1616c3.7873-2.6134 9.9297-4.3426 10.758-9.3321-4.8271 3.6352-9.5793 7.3731-14.226 11.24 1.1897-0.57274 2.3565-1.1934 3.4681-1.9077zm-41.693 0.86204c-0.41008-0.41118 0.20651 1.3371 0 0zm18.763-0.0908c3.7097-2.2182-4.9877 1.9659 0 0zm-8.588-1.5314c2.5104-0.25573 7.069-4.9414 6.5256-5.3936-1.0296 3.1759-5.729 2.6541-3.2364-0.84518 0.51439-3.2071 4.2915-8.6042 1.558-10.751-1.8546 5.0113-1.4983 11.159-5.8712 15.079-3.0164 2.2821-2.6928 2.7148 1.0241 1.911zm29.896-0.5453c3.5289-3.2578 8.742-5.2686 10.715-9.7544-3.361 1.8994-8.5226 6.901-12.055 10.463-0.91038 1.155 1.8777-1.2765 1.3406-0.70904zm-42.865 0.29895c-0.97993-1.8842-0.18319 1.6918 0 0zm24.77-0.26432c-0.74681-0.24331-1.5737 1.6001 0 0zm-37.509 0.0922c-1.7025-1.6696-5.5902-6.8089-1.2053-3.0754 4.1268 3.8845-0.74846-1.25 0.29676-2.2851 3.9072 5.2245 1.148-5.1956-3.029-4.8549-4.0638-0.93092-10.944-4.1254-12.874-4.848 4.5145 3.3546 9.8695 6.0839 12.406 11.418 1.539 0.64525 2.952 4.1621 4.4059 3.6459zm21.438-0.87247c1.9592-1.8329 4.6631-3.4219 1.7672-3.4083-2.8789 2.1833-0.0704-4.5586-0.7831-6.5751 1.0582-2.8266 2.3139-6.9986-0.64863-8.0766-0.57473 4.5529 0.29822 9.7346-1.445 14.457-0.39605 1.6405-6.3795 5.775 1.1094 3.6034zm-2.8397-0.39043c1.5663-0.93447 0.2445 0.94171 0 0zm36.997-2.0744c2.5072-2.474 10.829-7.6117 8.8989-9.3344-4.4458 3.7696-8.5512 7.8979-12.531 12.143 1.3929-0.36568 2.4792-1.9397 3.632-2.8082zm-51.132 0.0275c3.3574-5.5124-7.6181-11.331-7.754-10.467 5.3154 1.6765 9.57 7.3446 6.619 12.819 0.68588-0.56339 0.83041-1.5656 1.135-2.3515zm10.098 1.7903c3.4316 0.64835 7.4919-7.5242 4.0983-6.1905-3.9274-1.4968-2.6697-8.2097-3.4949-12.169-2.5372-5.3344-2.4808-11.228-3.1148-16.992-0.62792-1.1926-2.2384 0.34108-2.747-3.0612-0.10639 3.2208 2.1883 9.9763 3.1256 14.401 0.98492 2.2324 3.0097 8.8551-0.62751 3.6948-2.7129-4.9565-2.8304-11.196-4.717-16.186-0.46046 1.7927-2.6317-4.1279-1.2501 0.49356 1.7557 5.9598 2.9546 12.336 6.5778 17.509 1.9287 3.5428 2.9954 8.6603 3.4573 13.339 0.78712 1.9332-5.5861 6.2112-1.3076 5.1607zm-4.133-0.33052c2.7935-0.21394 6.1736-8.8059 2.7954-4.902-1.2966 1.9393-0.25422-3.1928-1.5731 0.89401 0.38528-5.8708-4.0799-10.163-6.1-15.301-2.5751-5.1818-3.9471-10.958-6.6631-16.033-3.1058 0.95414-7.2635-4.2809-8.6182-1.8534 2.0306 1.9514 7.0234 7.3079 8.6392 11.503 2.0308 5.2343 5.8441 9.3338 8.714 14.029 2.7336 2.8963 2.0165 8.399 1.9552 9.5258-2.5041 1.8232-1.4906 3.0998 0.85052 2.1374zm3.027-4.8857c0.70199-1.385 0.51503 0.63753 0 0zm-11.783-18.684c-1.3638-2.2801-3.2952-9.0262-0.65148-3.1193 0.69776 0.93119 2.6266 7.0735 0.65148 3.1193zm47.076 23.255c-1.3198 0.44682-0.48913 0.90823 0 0zm1.6932-0.60657c-2.3125 0.0692-0.18094-0.0954 0 0zm-44.547-3.0358c0.0152-3.1207-3.3995-7.453-4.9874-6.8589 3.2886 1.2239 5.0605 7.0567 4.7316 9.2507 0.18037-0.78464 0.24223-1.5893 0.25576-2.3918zm52.167-2.7575c1.3612-1.2744 7.7804-5.8023 5.0403-6.1297-3.9781 3.6579-7.9755 7.4403-11.128 11.839 2.1832-1.7163 3.9078-3.9706 6.0872-5.7091zm-54.625 3.4641c0.73411-3.8658-5.0053-7.4273-6.6773-7.5012 3.8152 1.1327 7.0536 6.9542 6.6528 8.7532zm47.122 1.1471c0.55176-1.492-1.3002 1.744 0 0zm-42.93-2.9592c-0.88328-4.9763-7.8087-9.9669-11.227-10.481 3.9415 3.5752 10.409 5.5545 11.227 11.586zm50.918-8.0962c2.5359-1.4587 4.2626-7.4146 0.63409-2.3348-3.0214 3.4217-7.4924 8.3625-9.2925 11.163 3.0189-2.8048 5.9162-5.7525 8.6584-8.8284zm-5.9644 3.5214c1.9105-2.776 7.2657-6.4526 6.7-9.3332-3.8442 4.3748-7.8973 8.6808-11.071 13.563 1.6797-1.1323 2.9291-2.8223 4.3715-4.2296zm-51.822 2.4298c-2.289-2.1431-6.1973-3.1516-1.3295-0.51317 0.28556 0.26308 2.7683 2.0622 1.3295 0.51317zm48.026-0.77218c2.7938-4.4988 7.953-7.998 9.5457-12.924-3.7871 3.3028-6.6207 8.1628-9.7987 12.231-1.2865 1.3839-1.587 2.9952 0.25302 0.69316zm-43.12 0.23464c-2.757-3.8474 0.61603 2.1781 0 0zm39.473-1.2944c3.0647-4.8598 8.6668-9.2268 9.1016-15.071-0.7315-1.5647-2.2839 4.3568-3.4997 5.372-2.0489 3.5217-4.5904 7.0182-6.4686 10.476zm-31.753-2.389c-0.40034-0.25527 0.31694 2.5742 0 0zm-12.374 0.30552c-2.3735-2.0731-8.6493-3.3423-11.063-7.9031-3.5644-2.7901-7.1677-8.8152-9.3777-10.525 2.1707 6.0478 7.7085 9.9004 12.146 14.237 2.4709 1.4912 5.5743 3.9306 8.2947 4.1907zm-5.7981-0.6322c-0.88054-0.27128-0.43939 0.4165 0 0zm50.351-5.237c1.826-2.8522 5.9282-8.3323 4.2173-10.277-1.8865 4.7959-6.3793 11.898-7.4795 14.922 1.1144-1.529 2.15-3.114 3.2622-4.6449zm-25.248 4.38c-0.41007-0.41126 0.2065 1.3372 0 0zm21.582-2.3625c1.6318-4.5127 5.9984-8.3747 5.5616-13.618-2.1394 5.5379-5.3181 10.749-7.4038 16.247 0.88559-0.59703 1.3088-1.7447 1.8422-2.6292zm-51.466 2.3869c-3.3528-1.846-0.51931 0.59998 0 0zm1.9755-0.32158c-4.9125-2.6908-8.4624-7.3008-12.254-11.323-0.91101-2.2182-6.0961-7.697-2.5065-2.425 2.7274 4.9498 7.0238 9.0353 11.539 12.372 1.0301 0.49538 2.0531 1.2812 3.2215 1.3758zm1.3155-0.71419c-4.7168-2.5456-7.7998-7.1094-11.577-10.771-1.4063-2.1377-4.5565-7.9022-2.2617-1.9772 3.0543 4.8003 7.5668 8.8188 12.081 12.195 0.19286 0.15106 4.1572 2.0835 1.7572 0.55321zm19.26 0.27155c-1.1876-2.1274-2.1365-5.3291-1.1619-0.7812-0.53655 0.66663 2.6865 1.5898 1.1619 0.7812zm-25.359-0.60248c-4.8832-3.67-9.0832-8.2787-11.959-13.626 0.32481 3.8904 5.5363 9.4598 9.5434 12.267 0.11225 0.17612 3.9722 2.5982 2.4155 1.3581zm9.2083-0.28714c-3.0916-1.7988 1.9352 1.7316 0 0zm23.32-0.287c-0.53878-2.1194-0.21886 2.4717 0 0zm19.637-2.1646c2.3237-3.6436 6.5812-10.706 5.1419-13.566-1.7342 5.7658-4.8462 10.972-7.1521 16.496 0.78196-0.89598 1.3751-1.9307 2.0103-2.9299zm-5.9086 1.4351c1.1931-2.6515 2.4368-7.7205 2.873-6.4757 2.0067-3.08 3.1819-9.1272 1.6096-11.429-0.85872 6.4132-3.5856 12.387-4.9229 18.682zm-40.175-1.3753c-4.519-4.5338 2.1229 3.16 0.98649 1.0191l-0.42589-0.44639zm45.01-3.0495c2.0358-4.0741 4.5218-7.9825 3.1396-12.328-1.5146 5.6213-3.9536 11.343-5.5942 17.051 0.91644-1.5184 1.651-3.1441 2.4546-4.7238zm-6.8271 3.2887c0.76518-4.3468 4.4936-10.745 3.7662-13.633-0.16505-1.4724 1.9536-2.6702-0.0387-1.7519 0.0463-3.4943-1.0702-4.1616-1.0792-0.42494-0.89337 5.4926-1.9368 11.044-3.0647 16.441l0.0854-0.21234 0.33102-0.41856zm-2.3228-0.11959c0.0301-1.1682-0.68885 1.1816 1e-5 0zm-4.5031-3.387c-0.35418-3.1525 1.7262-11.832 0.43387-11.832-0.45073-0.15165-2.8065-10.594-1.8387-3.1285 0.68482 5.7994 0.0932 12.275 1.21 17.657 0.1457-0.89163 0.14879-1.7971 0.19482-2.6965zm-32.071 1.2942c-2.5188-2.8484 1.8073 2.723 0 0zm23.583-1.765c0.28548-2.9674-1.1683-5.0586-0.61627-7.2639-0.12294-1.0382-1.83-5.0525-0.38383-6.2784-0.20409-4.5791-0.56275 3.2711-1.6078-1.9801-2.156-5.0636 0.64337 7.566 0.75475 9.7828 0.0634 1.0201 2.5084 11.823 1.8531 5.7396zm-25.081 1.2947c-0.9286-0.65337 0.58135 1.484 0 0zm15.37-0.8451c-2.2814-5.3388-3.1386-11.6-6.8963-16.072 2.0993 5.7549 4.0125 11.695 7.1752 16.969zm15.182-3.376c0.30176-5.0519 0.6275-8.9416-1.4392-13.278-1.9699-3.6598 0.33771 5.2725-0.0345 6.7617 0.35043 2.5356 1.0255 11.073 1.4407 9.5342 0.0227-1.0057 0.0304-2.0118 0.0329-3.0177zm5.8334 2.493c0.89682-3.3672 2.0896-8.5128 1.0674-11.159-0.51413-2.3176-1.4262-7.0401-1.3506-2.0174 0.27691 4.3168-0.73144 12.002 0.10979 14.319l0.17342-1.1428zm2.7035 0.0405c0.62247-3.3221 2.7292-7.6594 1.6221-10.217 0.71069-2.1244-1.9357-6.8355-1.2488-1.2669 0.33362 3.6601-1.3389 10.801-0.55708 12.395l0.18362-0.91154zm1.5459-8.9239c0.15393-0.92175 0.24252 1.0886 0 0zm-23.381 9.886c-1.9351-4.9226-1.8707-10.52-4.8611-14.895-3.4179-5.5758 0.92449 4.3223 1.5062 6.3625 0.94777 2.6263 2.1731 7.2437 3.355 8.5328zm10.597-2.3918c-0.55863-5.0755 0.59963-11.032-2.2101-14.637-1.9312-4.269 0.22974 4.6998 0.12338 6.4885 0.53626 2.5745 1.0612 9.4484 2.1338 9.6873l-7e-4 -0.66074zm-29.691 1.015c-1.7312-1.2246 0.9673 1.4123 0 0zm-2.1185-2.1572c-1.4866-1.172-6.6715-11.148-4.5428-4.864 0.14147 1.8599 7.7732 8.4704 4.5428 4.864zm-12.111-5.0167c-0.21683-0.82496-0.65677 0.89285 0 0zm19.213-3.0286c-2.4357-3.5616-1.8686-1.697 0.32314 0.72688l0.0446-0.0894zm-8.3056-3.3644c-0.85096-0.21424 0.37256 1.3962 0 0zm5.9175 0.28369c-0.76633-0.94184 0.26156 1.1858 0 0zm-2.5798-4.0633c-2.2613-1.2236 1.0768 1.1851 0 0zm33.112 118.76c-1.6298-3.3591-0.49888-9.3292-0.68863-13.612 1.8549 0.23807 0.16157 8.6222 1.4087 11.703 0.0691 0.51806 0.57036 3.4936-0.72008 1.9088zm-36.802-11.231c0.99777-4.2729 5.4616-9.1835 9.3613-12.386-5.129 2.3665-8.3114 7.4551-11.212 11.81 0.76815-5.7041 6.6325-9.3362 10.295-13.281-5.1049 2.4149-8.7004 7.0226-11.59 11.744-0.0688-3.7843 5.2199-8.0899 8.4677-11.009 2.1343-1.3594 4.502-3.6866 0.64247-1.5068-4.9385 2.4057-7.8382 7.142-10.964 11.379 0.49824-4.7976 5.2837-8.505 9.0341-11.602 3.6396-0.44712 7.5123-3.383 9.7133-4.894-3.8008 4.2421 4.634-2.7427 3.7456-2.5292 1.6119-0.93619 7.762 0.0027 2.6113 0.31986-3.0278 2.5361-6.7986 7.0208-8.3824 9.7602-5.1327 2.8846-8.9665 7.6152-11.329 12.962-0.41812 0.62401-0.48561-0.81139-0.39253-0.76642zm12.286-15.078c0.02-0.91638-1.0938 0.96517 0 0zm-27.147-1.4492c0.39602-0.53437 0.59802 0.819 0 0zm45.145-4.2168c-1.1955-1.2661 5.315-0.04977 0.77824 0.12883l-0.77824-0.12884zm-3.4083-0.79184c-0.87364-0.91304 2.2381 0.63857 0 0zm1.2706 0.07579c1.3371-0.20646-0.41129 0.41008 0 0zm-3.7222-0.95173c-1.2346-1.5837 2.234 0.80398 0 0zm9.4342-0.68628c-1.9769-0.2597-1.0334-8.2595-1.7165-2.5311-1.4163-0.50414 0.51594-5.7154-1.4226-1.7367 0.29256 2.2196 0.39573 7.0607-0.71093 2.1994 0.95161-2.9194-1.1114-5.6204-2.3158-1.4837 0.59969 3.1287-1.2638 5.2614-0.71061 0.8763-0.29191-4.8255 9.6596-6.0479 6.6485-0.0098-0.338 0.91293 3.318 4.4285 0.22782 2.6856zm-11.919-0.82161c-1.4275-1.5541 2.1588 1.4611 0 0zm3.7342 0.17143c-0.0427-2.3527 0.76616-0.93038 0.1487 0.27647zm10.437-0.95671c-3.7062-4.4319 0.66874-1.8958 0.66313 0.95992l-0.0973 0.0202zm-12.619 0.17355c-1.6495-3.0588 6.4275-8.2536 1.869-3.7028-1.6914 0.52606-0.13235 4.6294-1.869 3.7028zm5.5892 0.04607c-0.56898-2.5625 0.83302 1.2155 0 0zm-9.3807-1.041c-2.2-1.4177-3.6284-4.4229-0.54831-1.0748 1.0466 0.74698 2.8118 2.9915 0.54831 1.0748zm-26.235 0.47854c1.3371-0.20647-0.41124 0.41008 0 0zm29.167-1.4511c0.28637-2.4618 2.2104-4.1767 0.61205-0.66156 0.39793 0.97793-0.90749 2.8947-0.61207 0.66156zm-1.9674-0.27378c-0.38719-2.6546 6.5194-6.313 0.71407-5.2281-1.441 1.1221-4.076 5.299-2.2306 0.88333 2.1533-4.5094 8.4241-0.23536 3.1458 2.1381-0.88142 0.03876-0.5375 3.9464-1.6292 2.2067zm8.2436-0.47426c1.4806-2.5347 0.40335 1.146 0 0zm-2.8666-0.51434c1.4682-1.2812-0.39037 1.4479 0 0zm-6.0265 0.12273c-0.15633-3.0675 3.4585-4.8038 0.56995-0.95461zm23.604-1.07c0.17836-0.55946 1.0122 0.87704 0 0zm-27.534-1.1486c-1.4696-2.0549-1.5919-5.2336-0.10727-1.2086 0.6069 0.79002 1.434 3.5242 0.10727 1.2086zm13.925-0.42699c-0.13937-1.9031 1.225 1.0368 0 0zm0.42403-1.1076c-0.921-2.9343-1.3382 1.714-1.0207-2 1.3735-0.39041 7.0647-3.3775 5.1946-7.461-2.1267-2.8043-4.3132-4.012-2.2317-6.036-0.57952-2.486 2.6056 0.46225-0.0985 2.3683 1.179 0.22915 4.1752-3.6521 2.2512-0.24721-2.7538 2.751 6.2242-1.1234 0.8339 2.101-1.5728 3.0376 6.4365-3.001 3.1819 0.86513-5.3638 1.2893-1.3208 1.5136-0.68286 2.2908-0.88856 1.911-4.2082 0.63188-0.3212 2.5364-0.26182-0.0068-3.2588 0.26196-1.6572 1.3098-3.1668-1.0865 0.59364 3.0612-2.2148 1.3129 3.2077 4.2941-3.2949-2.9312-0.42716 2.4769-1.7127 1.0747-1.6526-2.4207-2.3851-1.503-0.74095 1.2138 1.7725 4.9489-0.42244 1.9859zm-2.9017 0.74665c-1.8409-2.0271 1.5586-4.7272-1.0165-3.8065-1.263 0.36349 0.94243-3.3464-1.7184-0.2928-0.52374 2.6511-2.511-0.88281-0.4342 0.07198 2.0084-2.41-0.25621-1.1097 2.0481-3.5801-5.2393 2.0281 3.6301-2.1147-1.1641-1.5303-4.4227-1.2119 1.5223 0.02841 1.1088-1.0183-0.0497-0.57419 3.2437 0.67572 3e-3 -0.86013-3.3853-2.412 2.921 1.2238 1.9346-0.57764 2.3356 3.372-2.1731-4.1033 1.571-1.2688-2.3426-0.44308 1.9428 3.7632-2.1807 4.0053-3.4633 3.4586 3.8247 4.5932 0.58996 7.735 0.76522 0.72323-0.18437 1.5996-0.74114 1.1224zm0.28319-1.512c0.55912-4.168-1.242 2.4242 0 0zm6.1126 0.9318c-0.29901-1.2298 1.4012 0.80597 0 0zm-47.435-0.27641c-0.19108-1.7852 2.0527 0.98609 0 0zm32.13-0.03203c1.0256-2.8978 4.1608-2.6204 0 0zm6.3582-0.67986c0.14905-1.6813 1.5993 1.4228-4e-5 0zm-8.4344-0.27227c0.76062-2.4587 6.1943-2.9616 5.59-4.4523 0.26721 2.256 1.6552 3.9847-1.1233 2.2318-2.0489-0.29952-2.8061 2.6702-4.4667 2.2205zm29.342-0.05226c0.61106-0.85802 0.61105 0.85802 0 0zm-9.9104-0.93165c1.7396-0.36593 0.10341-0.13954 0 0zm-21.594-2.0538c-0.0107-5.9187 0.7593 4.9284 0 0zm2.3243 0.73922c1.2291-1.7826 5.7036-2.1989 1.3952-0.1632-0.17529 0.03413-1.3186 0.93413-1.3952 0.1632zm31.452 0.09366c2.8363-1.3702-0.70793 0.97641 0 0zm-18.9-1.1361c1.5372-3.7472 0.0757 3.3904 0 0zm6.1043 0.64362c0.39603-0.53437 0.59802 0.819 0 0zm-4.2454-0.34365c-2.0257-3.6173 2.0503 1.5269 0 0zm-8.1842-1.3563c0.75775-2.8023 0.58913 3.0532 0 0zm4.9354 0.83712c-0.4187-1.4979 1.4058 0.44354 0 0zm9.886-0.05184c1.3089-1.2458 1.3394 0.67918 0 0zm9.5223-0.19128c1.3371-0.20647-0.41125 0.41009 0 0zm-31.436-0.4231c-0.16905-1.1995 2.4082-3.5229 3.4842-2.1562 0.44445 1.2514 3.583 2.0217-0.25431 1.5436-2.4077 0.14461-1.4824-1.0383-2.8604 0.96543l-0.36944-0.35274zm32.437-0.10939c1.5794-1.427 3.588-1.7384 0 0zm-16.37-0.23924c0.10097-2.2756 2.7454-0.11581 0 0zm-3.0031-0.38035c0.6052-1.2455 0.4874 1.2006 0 0zm-1.2924-0.08222c0.0907-1.3801 1.1891 0.33656 0 0zm2.4048-0.21811c-0.26151-3.3408 2.1439 0.03465 0 0zm-1.3516-0.53679c0.65676-0.89284 0.21681 0.82497 0 0zm-16.511-0.93048c-1.2178-1.2613-10.344-3.4049-7.335-4.3763 1.7876 1.529 10.535 3.782 7.335 4.3763zm11.01 0.21295c0.89879-1.6779 0.74772 1.6153 0 0zm5.6366 0.01133c-1.1865-0.94887 2.2015 0.33423 0 0zm3.4522-0.15894c2.2754-1.3835 2.0635 1.421 0 0zm-21.646-0.09157c-1.1722-0.8399 2.2457 0.69918 0 0zm28.223-0.23918c2.0302-1.5776-0.84001 1.6831 1e-5 0zm-18.412-0.14608c-6.4714-2.4598 2.4198-0.77325 0 0zm-4.1898-0.45186c0.0433-3.1246 3.2533 0.98298 0 0zm5.9794 0.02824c0.57663-1.6247 0.50737 0.90438 0 0zm9.3279-0.03416c2.4482-2.6009 2.6379-0.34618 0 0zm-0.71388-1.0106c0.70457-2.796 1.8836 1.6779 0 0zm-10.969-0.28605c-3.1046-1.2364 2.3883-0.91568 0.69775 0.19498zm4.6217-0.24646c2.1272-1.0684-0.61379 1.6651 0 0zm-3.167-0.47888c-4.2094-1.7837 0.49605-1.9499 0.8424 0.64766l-0.17085 0.01545zm1.7293-0.83426c-0.19781-2.6859-7.4341-4.041-1.7928-2.9977 2.2313-1.1807 2.5298 6.3448 1.7928 2.9977zm8.4985 0.11912c-2.5724-2.3948 2.4823 0.83154 0 0zm-5.0227-0.38381c1.0085-1.2769 1.2296 1.4726 0 0zm-9.152-0.0059c-0.1365-2.0537 3.0302 0.58826 0 0zm7.1853-1.1315c1.0515-2.9837-3.1884-1.0985-3.5164-3.0905 3.8904 1.6196 1.9048 0.28583 0.58859-1.5067 2.6996-0.29179 4.5817 4.2832 2.9124 5.5427l0.0155-0.94544zm-3.654 0.4039c-3.8473-0.82354 1.8214-1.4609 1.1361 0.3643zm4.7836-0.08615c1.0998-0.85054 0.0156 0.81697 0 0zm0.84561-0.51255c1.3056-1.5005-0.57789-6.7957 1.4685-2.7452-1.6269 5.0778 4.9101-0.30376 1.051-2.6586 3.0797-0.70896 2.3458 7.4197-2.5195 5.4038zm10.665-0.81519c1.7828-1.39-0.58455 2.0195 0 0zm-2.5077-2.1619c-0.28018-2.3938 2.3462 1.6859 0-1.2e-4zm-9.8998-0.44569c-3.2885-4.28 4.7782 2.8459 0 0zm4.1568-0.2236c-0.61801-2.4622 1.1236 1.5632 0 0zm3.7361-0.28296c-0.84717-2.385 0.965-0.66214 0 0zm12.736-0.70038c1.8111-3.2448 4.084-1.5813 0 0zm-20.043-0.16742c-0.917-2.3138 2.5215 0.68655 0 9e-5zm11.552-2.6824c2.6761-1.5102-1.7872 1.7065 0 0zm10.883-1.2049c0.51893-2.7267 1.6391-0.83785 0.0361 0.2779zm-54.533-2.5226c0.65678-0.89283 0.21686 0.82497 0 0zm52.265-1.4283c0.64064-3.4148 1.4563 0.86667 0 0zm-1.2397-0.5877c0.54366-4.5107 1.3461 0.61652 0 0z" fill="#008000" stroke-width=".90398"/></g></svg>
