<?xml version="1.0" encoding="UTF-8" standalone="no"?>
<svg
   width="126.13879mm"
   height="123.89705mm"
   viewBox="0 0 126.13879 123.89704"
   version="1.1"
   id="svg211682"
   inkscape:version="1.1 (ce6663b3b7, 2021-05-25)"
   sodipodi:docname="vsrecycling.svg"
   xmlns:inkscape="http://www.inkscape.org/namespaces/inkscape"
   xmlns:sodipodi="http://sodipodi.sourceforge.net/DTD/sodipodi-0.dtd"
   xmlns="http://www.w3.org/2000/svg"
   xmlns:svg="http://www.w3.org/2000/svg"
   xmlns:rdf="http://www.w3.org/1999/02/22-rdf-syntax-ns#"
   xmlns:cc="http://creativecommons.org/ns#"
   xmlns:dc="http://purl.org/dc/elements/1.1/">
  <defs
     id="defs211676">
    <filter
       style="color-interpolation-filters:sRGB"
       inkscape:label="Drop Shadow"
       id="filter79312"
       x="-0.073015426"
       y="-0.076955348"
       width="1.157482"
       height="1.1669081">
      <feFlood
         flood-opacity="0.372549"
         flood-color="rgb(3,3,3)"
         result="flood"
         id="feFlood79302" />
      <feComposite
         in="flood"
         in2="SourceGraphic"
         operator="out"
         result="composite1"
         id="feComposite79304" />
      <feGaussianBlur
         in="composite1"
         stdDeviation="3.28507"
         result="blur"
         id="feGaussianBlur79306" />
      <feOffset
         dx="1.3"
         dy="1.4"
         result="offset"
         id="feOffset79308" />
      <feComposite
         in="offset"
         in2="SourceGraphic"
         operator="atop"
         result="composite2"
         id="feComposite79310" />
    </filter>
    <filter
       style="color-interpolation-filters:sRGB"
       inkscape:label="Drop Shadow"
       id="filter86074"
       x="-0.26002434"
       y="-0.16189389"
       width="1.5629234"
       height="1.3525355">
      <feFlood
         flood-opacity="0.372549"
         flood-color="rgb(3,3,3)"
         result="flood"
         id="feFlood86064" />
      <feComposite
         in="flood"
         in2="SourceGraphic"
         operator="in"
         result="composite1"
         id="feComposite86066" />
      <feGaussianBlur
         in="composite1"
         stdDeviation="3.28507"
         result="blur"
         id="feGaussianBlur86068" />
      <feOffset
         dx="1.3"
         dy="1.4"
         result="offset"
         id="feOffset86070" />
      <feComposite
         in="SourceGraphic"
         in2="offset"
         operator="over"
         result="composite2"
         id="feComposite86072" />
    </filter>
    <filter
       style="color-interpolation-filters:sRGB"
       inkscape:label="Drop Shadow"
       id="filter86104"
       x="-0.19857011"
       y="-0.20343504"
       width="1.4298819"
       height="1.4429943">
      <feFlood
         flood-opacity="0.372549"
         flood-color="rgb(3,3,3)"
         result="flood"
         id="feFlood86094" />
      <feComposite
         in="flood"
         in2="SourceGraphic"
         operator="in"
         result="composite1"
         id="feComposite86096" />
      <feGaussianBlur
         in="composite1"
         stdDeviation="3.28507"
         result="blur"
         id="feGaussianBlur86098" />
      <feOffset
         dx="1.3"
         dy="1.4"
         result="offset"
         id="feOffset86100" />
      <feComposite
         in="SourceGraphic"
         in2="offset"
         operator="over"
         result="composite2"
         id="feComposite86102" />
    </filter>
  </defs>
  <sodipodi:namedview
     id="base"
     pagecolor="#ffffff"
     bordercolor="#666666"
     borderopacity="1.0"
     inkscape:pageopacity="0.0"
     inkscape:pageshadow="2"
     inkscape:zoom="0.94725936"
     inkscape:cx="130.37612"
     inkscape:cy="423.85435"
     inkscape:document-units="mm"
     inkscape:current-layer="layer1"
     inkscape:document-rotation="0"
     showgrid="false"
     inkscape:window-width="1840"
     inkscape:window-height="1016"
     inkscape:window-x="80"
     inkscape:window-y="27"
     inkscape:window-maximized="1"
     inkscape:pagecheckerboard="0" />
  <metadata
     id="metadata211679">
    <rdf:RDF>
      <cc:Work
         rdf:about="">
        <dc:format>image/svg+xml</dc:format>
        <dc:type
           rdf:resource="http://purl.org/dc/dcmitype/StillImage" />
      </cc:Work>
    </rdf:RDF>
  </metadata>
  <g
     inkscape:label="Layer 1"
     inkscape:groupmode="layer"
     id="layer1"
     transform="translate(-213.73807,-134.89018)">
    <rect
       style="opacity:0.1;fill:#cccccc;stroke:#808080;stroke-width:3.53283;stroke-linecap:square;stroke-linejoin:round;stroke-miterlimit:4;stroke-dasharray:none;paint-order:fill markers stroke;stop-color:#000000"
       id="rect212271"
       width="99.78746"
       height="96.339394"
       x="85.135414"
       y="137.14035"
       ry="8.2370052" />
    <ellipse
       ry="53.856876"
       rx="56.763"
       cy="91.683334"
       cx="283.36877"
       id="ellipse69601"
       style="fill:#00ffff;fill-opacity:1;stroke:#00ffff;stroke-width:0.809963;stroke-miterlimit:4;stroke-dasharray:none;stroke-opacity:1;filter:url(#filter79312)"
       transform="matrix(0.95992892,0,0,0.98571903,4.1696323,105.77469)" />
    <path
       id="path102457"
       d="m 284.18563,220.05556 c -0.46154,0 -0.90092,0.0899 -1.30729,0.24573 -0.60801,-2.48883 -2.8514,-4.3374 -5.52797,-4.3374 -2.67746,0 -4.92111,1.84857 -5.52843,4.3374 -0.40612,-0.15587 -0.84661,-0.24573 -1.30762,-0.24573 -2.01341,0 -3.64543,1.63324 -3.64543,3.64641 0,2.01385 1.63197,3.6463 3.64543,3.6463 0.63171,0 3.7902,0 6.83605,0 3.04538,0 6.20344,0 6.83526,0 2.01318,0 3.64533,-1.63245 3.64533,-3.6463 0,-2.01317 -1.63215,-3.64641 -3.64533,-3.64641 z"
       style="opacity:0.77;fill:#ffffff;stroke-width:0.0610515"
       inkscape:connector-curvature="0" />
    <path
       inkscape:connector-curvature="0"
       style="opacity:0.77;fill:#ffffff;stroke-width:0.0460985"
       d="m 242.65291,176.22179 c -0.33741,0 -0.65862,0.0701 -0.95569,0.19164 -0.44448,-1.94103 -2.08451,-3.38273 -4.04119,-3.38273 -1.95735,0 -3.59756,1.4417 -4.04154,3.38273 -0.29689,-0.12155 -0.61891,-0.19164 -0.95592,-0.19164 -1.4719,0 -2.66498,1.27377 -2.66498,2.84384 0,1.57059 1.19305,2.84374 2.66498,2.84374 0.4618,0 2.7708,0 4.99746,0 2.22631,0 4.53499,0 4.99688,0 1.47172,0 2.66489,-1.27315 2.66489,-2.84374 0,-1.57007 -1.19317,-2.84384 -2.66489,-2.84384 z"
       id="path26505" />
    <path
       id="path102459"
       d="m 310.78588,166.79079 c -0.27535,0 -0.53746,0.0536 -0.77989,0.1466 -0.36272,-1.48475 -1.70105,-2.58755 -3.29781,-2.58755 -1.59728,0 -2.93577,1.1028 -3.29808,2.58755 -0.24227,-0.093 -0.50505,-0.1466 -0.78008,-0.1466 -1.20114,0 -2.17475,0.97435 -2.17475,2.17534 0,1.20139 0.97358,2.17526 2.17475,2.17526 0.37686,0 2.26111,0 4.07816,0 1.81678,0 3.70077,0 4.0777,0 1.20099,0 2.17468,-0.97387 2.17468,-2.17526 0,-1.20099 -0.97369,-2.17534 -2.17468,-2.17534 z"
       style="opacity:0.77;fill:#ffffff;stroke-width:0.0364213"
       inkscape:connector-curvature="0" />
    <path
       d="m 289.16176,233.43556 c -0.42849,-0.14878 -0.64718,-0.27024 -1.03636,-0.5773 -0.13133,-0.1022 -0.65301,-0.51328 -1.15877,-0.91386 -0.50654,-0.39907 -0.95899,-0.75575 -1.00786,-0.79183 -0.0468,-0.0361 -0.47599,-0.37412 -0.95051,-0.7491 -0.47451,-0.37499 -1.37264,-1.08334 -1.99454,-1.57401 -1.2377,-0.97525 -1.29133,-1.01965 -1.4293,-1.16921 -0.36962,-0.4006 -0.61688,-0.88021 -0.74681,-1.453 -0.1021,-0.44967 -0.12241,-0.86971 -0.0652,-1.35343 0.023,-0.19153 0.13313,-0.63601 0.20252,-0.8147 0.11471,-0.30055 0.25296,-0.56101 0.41039,-0.77902 1.05087,-1.45607 2.1514,-2.81113 3.10967,-3.83485 0.54749,-0.58388 0.82959,-0.85723 1.98757,-1.91823 0.21901,-0.20153 0.47122,-0.43793 0.56177,-0.52792 0.48102,-0.47172 0.89936,-0.96226 1.29616,-1.51346 0.35358,-0.49564 0.43129,-0.62651 0.91605,-1.57168 0.6423,-1.24549 0.83647,-1.60928 1.10484,-2.06322 0.83157,-1.40374 1.81685,-2.51889 3.25745,-3.68422 0.69955,-0.55571 1.77453,-0.71235 2.56389,-0.72594 0.27941,-0.002 0.50517,0.009 1.002,0.0439 0.71432,0.0538 1.02472,0.0594 1.40024,0.0266 0.21784,-0.0181 0.55317,-0.0689 0.58042,-0.0876 0.01,-0.005 0.21558,-0.25529 0.45466,-0.5524 0.92796,-1.14406 1.34413,-1.66581 1.41458,-1.77534 l 0.0489,-0.0735 -0.0228,-0.10884 c -0.024,-0.1023 -0.0226,-0.11564 -9.3e-4,-0.22839 0.0249,-0.11545 0.0261,-0.12015 0.0935,-0.21069 0.0566,-0.078 0.0835,-0.10145 0.16045,-0.14842 0.22954,-0.13516 0.49415,-0.0963 0.69447,0.10145 0.0584,0.0581 0.55016,0.45536 1.02823,0.82952 0.10882,0.0853 0.20284,0.15246 0.20873,0.14888 0.0149,-0.009 0.30442,-0.50957 0.60799,-1.04872 1.63206,-2.8965 2.9584,-5.827 3.70935,-8.19208 0.1797,-0.56223 0.22066,-0.71331 0.37918,-1.37264 0.18878,-0.78521 0.24506,-1.1015 0.29426,-1.63291 0.0994,-1.10379 -0.0932,-1.83115 -0.56477,-2.12978 -0.43669,-0.27893 -1.10175,-0.18123 -2.03937,0.29957 -0.1944,0.099 -0.74165,0.43552 -0.98537,0.60338 -1.32147,0.97044 -2.10007,1.66975 -3.17265,2.66221 l -0.009,-0.0543 c -0.0415,-0.3002 -1.15514,-8.97091 -1.15425,-8.98874 0.50301,-0.16643 1.23394,-0.30582 1.82773,-0.4076 3.00323,-0.51073 5.24357,-0.22453 6.7497,0.86274 1.03081,0.74361 1.71446,1.91421 2.00226,3.42575 0.22673,1.19357 0.22886,2.65318 0.006,4.13744 -0.48504,3.25293 -2.05295,6.87361 -4.93693,11.40891 -0.36449,0.57241 -0.94469,1.46353 -1.08729,1.66873 -0.0107,0.0142 -0.004,0.0253 0.0209,0.0428 0.0196,0.0138 0.30976,0.23369 0.64752,0.48718 0.33659,0.25316 0.63622,0.47308 0.66661,0.49005 0.0293,0.0161 0.0804,0.0553 0.11233,0.0863 0.0687,0.0624 0.17707,0.14422 0.29897,0.2244 0.11706,0.079 0.17436,0.14857 0.22639,0.27292 0.0553,0.13811 0.0611,0.18196 0.042,0.29703 -0.0381,0.21269 -0.20108,0.37853 -0.4162,0.42051 -0.0725,0.0145 -0.23344,0.001 -0.29161,-0.0224 -0.0403,-0.0173 -0.075,0.005 -0.17764,0.10987 -0.0722,0.0746 -0.55741,0.69325 -1.30574,1.6704 l -0.50874,0.66211 0.009,0.14145 c 0.0284,0.48286 0.12194,0.91256 0.3729,1.70635 0.0919,0.29265 0.19276,0.62407 0.22377,0.73484 0.18186,0.65585 0.25095,1.25644 0.21612,1.91278 0.0226,0.62934 -0.28897,1.18801 -0.53955,1.67101 -0.49584,0.9492 -0.99323,1.70731 -1.60124,2.4346 -0.57597,0.68838 -1.13838,1.23294 -2.28283,2.2115 -0.42367,0.3624 -1.02745,0.88863 -1.16296,1.01527 -0.28308,0.26176 -0.78158,0.84105 -1.12427,1.30356 -0.34921,0.47568 -0.59156,0.87032 -1.10318,1.79598 -0.43643,0.79126 -0.61905,1.10698 -0.89108,1.54996 -0.67703,1.0947 -1.46491,2.18209 -2.51737,3.47349 -0.39371,0.48431 -0.93805,1.12313 -1.0329,1.21715 -0.37304,0.36323 -0.88929,0.67561 -1.4009,0.84461 -0.50499,0.16766 -1.05025,0.23027 -1.57137,0.18018 -0.12961,-0.0129 -0.52588,-0.0931 -0.61969,-0.12586 z m 8.48586,-11.79342 c -0.72168,-0.60164 -1.28962,-1.06506 -2.05771,-1.70096 -10e-4,-8.5e-4 0.1367,-0.17888 0.30528,-0.39591 1.42925,-1.82768 2.48691,-3.27876 3.70437,-5.08002 0.69763,-1.03011 0.98995,-1.47534 2.89295,-4.38737 0.68546,-1.04772 1.47667,-2.25743 1.75894,-2.68699 0.28218,-0.42919 0.51132,-0.78291 0.50853,-0.78526 -0.006,-0.01 -1.46949,-1.10158 -1.48063,-1.10424 -0.0138,-0.003 0.0114,-0.0402 -0.40303,0.58415 -2.93393,4.42162 -4.89214,7.04432 -7.59883,10.17991 -0.58187,0.67266 -1.71381,1.95926 -1.73894,1.97631 -1.03162,-1.00764 -1.05898,-1.04404 -2.0453,-2.03912 -0.57363,2.54847 -1.20641,5.14029 -1.67978,7.32761 2.72509,-0.69223 5.11501,-1.16464 7.83415,-1.88811 z m -6.5265,-9.03295 c 0.003,-0.011 -0.002,-0.01 -0.0123,0.003 -0.007,0.0118 -0.017,0.0287 -0.0193,0.0383 -0.003,0.011 0.002,0.0107 0.0118,-0.006 0.009,-0.0118 0.0176,-0.0268 0.0203,-0.0376 z m 0.0425,-0.0737 c 0.003,-0.011 -0.002,-0.0107 -0.0123,0.002 -0.009,0.0117 -0.0164,0.0288 -0.0189,0.0383 -0.003,0.011 10e-4,0.01 0.0107,-0.005 0.01,-0.0109 0.0183,-0.0267 0.0206,-0.0363 z m -4.6231,-18.52095 c 0.003,-0.01 6.22985,-5.83666 6.23659,-5.8367 1.69517,2.40323 2.97656,4.30994 4.78118,6.85921 -0.77299,-2.94323 -1.42793,-5.22914 -2.24292,-8.35766 0.97893,-0.44737 1.69321,-0.91931 2.74543,-1.35873 0.0141,0.0248 1.73355,11.16655 1.72687,11.19435 -0.004,0.0238 -0.17315,0.14706 -0.78665,0.57554 l -0.7796,0.54613 c -1.45627,1.58001 -2.85919,3.20899 -4.32745,4.77772 -2.54602,-2.98845 -4.69338,-5.19031 -7.35345,-8.39986 z"
       style="fill:#666666;fill-opacity:1;fill-rule:nonzero;stroke:none;stroke-width:0.4085;filter:url(#filter86074)"
       id="path206284" />
    <path
       style="fill:#008000;stroke-width:0.175296;filter:url(#filter86104)"
       d="m 264.59187,197.81695 c -1.2667,-2.11334 -2.30309,-3.89579 -2.30309,-3.96102 0,-0.1144 4.32331,-7.40816 4.53912,-7.65787 0.0584,-0.0676 0.0785,0.58738 0.0446,1.45552 l -0.0616,1.57843 5.4958,-0.0531 c 5.31631,-0.0514 5.51733,-0.0659 6.15522,-0.44288 l 0.65944,-0.38973 -0.24725,0.47738 c -1.10223,2.12812 -4.97323,8.64787 -5.38333,9.06689 l -0.5147,0.52588 -3.02098,0.0877 -3.02097,0.0877 v 1.53403 c 0,0.84373 -0.009,1.53395 -0.0196,1.53385 -0.0113,-1.1e-4 -1.05597,-1.72928 -2.32267,-3.84262 z m -13.87375,0.52332 c -1.40514,-0.42743 -2.61652,-1.6096 -2.98013,-2.90828 -0.38043,-1.35876 -0.15861,-2.54636 0.82891,-4.43801 l 0.8838,-1.69298 5.10432,-0.0464 5.10432,-0.0464 v 4.64799 4.648 l -4.25092,-0.0151 c -2.33802,-0.008 -4.44865,-0.0752 -4.6903,-0.14872 z m -6.87648,-8.46332 c -1.42057,-2.44857 -2.67117,-4.70531 -2.77913,-5.015 -0.27733,-0.79554 -0.12567,-1.22234 1.36796,-3.84944 0.72811,-1.28065 1.29356,-2.35466 1.25657,-2.38669 -0.037,-0.032 -0.60607,-0.36467 -1.26461,-0.73922 l -1.19733,-0.68102 1.54793,-0.11291 c 0.85135,-0.0621 2.86259,-0.12127 4.46941,-0.13147 l 2.9215,-0.0186 2.19181,3.94416 c 1.20551,2.16929 2.15276,3.94417 2.10503,3.94417 -0.0477,0 -0.62706,-0.31553 -1.2874,-0.70119 -0.66032,-0.38565 -1.26571,-0.7007 -1.34529,-0.70013 -0.14307,0.001 -4.7987,7.99891 -5.05043,8.6761 -0.0717,0.19283 -0.18047,0.77191 -0.24174,1.28686 l -0.11144,0.93627 z m 29.07757,-2.10978 c -0.66791,-1.07085 -4.66968,-8.08498 -4.66518,-8.17694 0.005,-0.0902 7.46858,-4.39417 7.87222,-4.53928 0.21812,-0.0784 4.16411,6.82524 4.39832,7.69497 0.3907,1.45096 -0.1182,3.07479 -1.33354,4.2551 -0.91103,0.88479 -1.89307,1.16056 -4.13282,1.16056 -1.77334,0 -1.90853,-0.0249 -2.139,-0.39441 z m -21.4075,-13.27831 c -2.11908,-1.24158 -3.87282,-2.32148 -3.89719,-2.39979 -0.0243,-0.0783 0.89018,-1.75948 2.03232,-3.73595 2.32464,-4.02275 2.81527,-4.56047 4.47567,-4.90517 1.15779,-0.24035 2.02105,-0.10658 3.12727,0.48455 0.92084,0.49207 1.2563,0.88574 2.46263,2.88987 l 0.81961,1.36163 -2.48763,4.29166 c -1.36819,2.36042 -2.53086,4.28694 -2.58372,4.28114 -0.0529,-0.006 -1.82987,-1.02636 -3.94896,-2.26794 z m 12.39877,0.18378 -1.97187,-0.0965 1.22687,-0.68994 c 0.67477,-0.37947 1.22685,-0.76165 1.22685,-0.84928 0,-0.19695 -4.06664,-7.29264 -4.77469,-8.33114 -0.28311,-0.41525 -0.83973,-0.9904 -1.23692,-1.27813 l -0.72217,-0.52313 5.54556,0.0511 c 5.282,0.0486 5.56908,0.0682 6.04016,0.41264 0.27203,0.19888 1.10462,1.38169 1.85022,2.62846 0.74559,1.24678 1.42796,2.29098 1.51638,2.32047 0.0884,0.0294 0.69005,-0.27037 1.33695,-0.66631 0.64689,-0.39594 1.1956,-0.69571 1.21935,-0.66615 0.0238,0.0296 -0.93945,1.80889 -2.14043,3.95408 l -2.1836,3.90034 -2.4804,-0.035 c -1.36421,-0.0192 -3.36772,-0.0784 -4.45226,-0.13148 z"
       id="path212269" />
    <text
       xml:space="preserve"
       style="font-style:normal;font-weight:normal;font-size:9.43756px;line-height:1.25;font-family:sans-serif;fill:#000000;fill-opacity:1;stroke:none;stroke-width:0.235939"
       x="135.79565"
       y="186.99013"
       id="text212267"><tspan
         sodipodi:role="line"
         id="tspan212265"
         x="135.79565"
         y="186.99013"
         style="stroke-width:0.235939">vs</tspan></text>
  </g>
</svg>
