<?xml version="1.0" encoding="UTF-8" standalone="no"?>
<!-- Created with Inkscape (http://www.inkscape.org/) -->

<svg
   id="svg77099"
   width="65.479mm"
   height="66.255mm"
   version="1.1"
   viewBox="0 0 65.479 66.255"
   sodipodi:docname="x-button-day.svg"
   inkscape:version="1.3.2 (1:1.3.2+202311252150+091e20ef0f)"
   xmlns:inkscape="http://www.inkscape.org/namespaces/inkscape"
   xmlns:sodipodi="http://sodipodi.sourceforge.net/DTD/sodipodi-0.dtd"
   xmlns="http://www.w3.org/2000/svg"
   xmlns:svg="http://www.w3.org/2000/svg">
  <defs
     id="defs1" />
  <sodipodi:namedview
     id="namedview1"
     pagecolor="#ffffff"
     bordercolor="#000000"
     borderopacity="0.25"
     inkscape:showpageshadow="2"
     inkscape:pageopacity="0.0"
     inkscape:pagecheckerboard="0"
     inkscape:deskcolor="#d1d1d1"
     inkscape:document-units="mm"
     showguides="true"
     inkscape:zoom="1.0445302"
     inkscape:cx="59.356826"
     inkscape:cy="130.68075"
     inkscape:window-width="1503"
     inkscape:window-height="933"
     inkscape:window-x="0"
     inkscape:window-y="0"
     inkscape:window-maximized="1"
     inkscape:current-layer="svg77099">
    <sodipodi:guide
       position="32.42287,37.631686"
       orientation="1,0"
       id="guide1"
       inkscape:locked="false" />
    <sodipodi:guide
       position="85.110033,32.565612"
       orientation="0,-1"
       id="guide2"
       inkscape:locked="false" />
  </sodipodi:namedview>
  <g
     id="layer1"
     transform="translate(-164.95655,167.50841)">
    <path
       id="path79185"
       d="m 16.417,-146.59 v 128.35 h 144.61 v -0.14445 c 34.884,-0.36274 62.977,-28.914 62.989,-64.017 -0.003,-35.109 -28.098,-63.671 -62.989,-64.034 v -0.15819 z"
       fill="none"
       stop-color="#000000" />
    <g
       id="g120457"
       transform="matrix(0.78534,-0.85442,0.85442,0.78534,-34.438,-112.3)"
       fill="#4d4d4d"
       stroke="#4d4d4d"
       stroke-linecap="round"
       stroke-width="5.1701">
      <path
         id="path120443"
         d="m 40.19,115.8 65.027,2.3227" />
      <path
         id="path1407"
         d="M 71.127,149.46 74.2815,84.468" />
    </g>
  </g>
  <g
     id="g1"
     transform="matrix(0.72586232,0,0,0.72586232,-58.491055,4.0907697)"
     style="fill:#666666">
    <g
       id="g12"
       transform="matrix(0.44196319,0.05587517,0.05587517,-0.44196319,-5.9999038,73.856902)"
       style="fill:#666666">
      <g
         id="g11"
         transform="translate(-401.25,187.8)"
         fill="#999"
         stroke="#ffffff"
         style="fill:#666666">
        <g
           id="g10"
           transform="matrix(0.066922,-4.5962e-4,4.5962e-4,0.066922,575.08,-79.527)"
           fill="#999"
           stroke="#ffffff"
           style="fill:#666666">
          <path
             id="path9"
             d="m -923.52,894.64 c -13.999,5.2771 -28.918,6.7562 -44.958,4.4567 -16.087,-2.3062 -29.615,-7.0817 -36.673,-12.946 -2.762,-2.2946 -9.5297,-7.2726 -15.039,-11.063 -13.334,-9.1717 -46.503,-50.473 -80.126,-99.772 -29.604,-43.406 -41.355,-63.182 -64.546,-108.63 -20.205,-39.594 -48.347,-82.856 -65.678,-100.97 -12.946,-13.529 -43.553,-42.87 -56.812,-54.462 -33.137,-28.971 -75.449,-81.932 -95.997,-120.16 -19.812,-36.854 -24.338,-49.402 -24.695,-68.466 -0.4273,-22.844 4.2343,-46.595 15.362,-78.272 5.0882,-14.483 10.902,-36.164 12.919,-48.18 l 3.6674,-21.847 -29.241,-40.652 -25.192,18.121 -26.01,-38.263 c -14.306,-21.045 -33.396,-49.431 -42.421,-63.079 l -16.412,-24.816 89.174,-65.662 c 49.044,-36.114 89.834,-65.558 90.629,-65.436 1.6237,0.26545 63.496,78.836 81.695,103.74 l 11.532,15.785 -23.672,17.027 8.5048,9.7413 c 4.6776,5.3572 11.666,14.126 15.53,19.485 l 7.026,9.7432 18.116,2.8289 c 9.9635,1.5558 33.811,2.4081 52.993,1.8949 37.935,-1.0155 63.981,2.1315 84.954,10.26 10.686,4.1417 16.738,8.1301 29.472,19.421 24.141,21.405 45.234,44.724 63.788,70.519 21.042,29.254 29.807,44.797 56.465,100.13 33.24,69 45.667,86.229 103.2,143.08 31.073,30.71 43.918,44.477 66.758,71.55 20.025,23.737 79.867,106.89 87.566,121.68 13.725,26.361 13.168,64.529 -1.3394,91.849 l -7.5073,14.136 -31.19,24.095 c -17.156,13.251 -69.594,52.28 -116.53,86.724 -71.664,52.592 -86.936,63.233 -95.311,66.392 z"
             fill="#f9f9f9"
             stroke="none"
             stroke-width="206.64"
             style="fill:#666666;paint-order:markers stroke fill" />
        </g>
      </g>
    </g>
    <g
       id="g15"
       transform="matrix(-0.44196319,-0.05587517,-0.05587517,0.44196319,69.577895,-5.9766073)"
       style="fill:#666666">
      <g
         id="g14"
         transform="translate(-401.25,187.8)"
         fill="#999"
         stroke="#ffffff"
         style="fill:#666666">
        <g
           id="g13"
           transform="matrix(0.066922,-4.5962e-4,4.5962e-4,0.066922,575.08,-79.527)"
           fill="#999"
           stroke="#ffffff"
           style="fill:#666666">
          <path
             id="path12"
             d="m -923.52,894.64 c -13.999,5.2771 -28.918,6.7562 -44.958,4.4567 -16.087,-2.3062 -29.615,-7.0817 -36.673,-12.946 -2.762,-2.2946 -9.5297,-7.2726 -15.039,-11.063 -13.334,-9.1717 -46.503,-50.473 -80.126,-99.772 -29.604,-43.406 -41.355,-63.182 -64.546,-108.63 -20.205,-39.594 -48.347,-82.856 -65.678,-100.97 -12.946,-13.529 -43.553,-42.87 -56.812,-54.462 -33.137,-28.971 -75.449,-81.932 -95.997,-120.16 -19.812,-36.854 -24.338,-49.402 -24.695,-68.466 -0.4273,-22.844 4.2343,-46.595 15.362,-78.272 5.0882,-14.483 10.902,-36.164 12.919,-48.18 l 3.6674,-21.847 -29.241,-40.652 -25.192,18.121 -26.01,-38.263 c -14.306,-21.045 -33.396,-49.431 -42.421,-63.079 l -16.412,-24.816 89.174,-65.662 c 49.044,-36.114 89.834,-65.558 90.629,-65.436 1.6237,0.26545 63.496,78.836 81.695,103.74 l 11.532,15.785 -23.672,17.027 8.5048,9.7413 c 4.6776,5.3572 11.666,14.126 15.53,19.485 l 7.026,9.7432 18.116,2.8289 c 9.9635,1.5558 33.811,2.4081 52.993,1.8949 37.935,-1.0155 63.981,2.1315 84.954,10.26 10.686,4.1417 16.738,8.1301 29.472,19.421 24.141,21.405 45.234,44.724 63.788,70.519 21.042,29.254 29.807,44.797 56.465,100.13 33.24,69 45.667,86.229 103.2,143.08 31.073,30.71 43.918,44.477 66.758,71.55 20.025,23.737 79.867,106.89 87.566,121.68 13.725,26.361 13.168,64.529 -1.3394,91.849 l -7.5073,14.136 -31.19,24.095 c -17.156,13.251 -69.594,52.28 -116.53,86.724 -71.664,52.592 -86.936,63.233 -95.311,66.392 z"
             fill="#f9f9f9"
             stroke="none"
             stroke-width="206.64"
             style="fill:#666666;paint-order:markers stroke fill" />
        </g>
      </g>
    </g>
    <g
       id="g18"
       transform="matrix(-0.44196319,0.05587518,-0.05587518,-0.44196319,69.577897,73.856902)"
       style="fill:#666666">
      <g
         id="g17"
         transform="translate(-401.25,187.8)"
         fill="#999"
         stroke="#ffffff"
         style="fill:#666666">
        <g
           id="g16"
           transform="matrix(0.066922,-4.5962e-4,4.5962e-4,0.066922,575.08,-79.527)"
           fill="#999"
           stroke="#ffffff"
           style="fill:#666666">
          <path
             id="path15"
             d="m -923.52,894.64 c -13.999,5.2771 -28.918,6.7562 -44.958,4.4567 -16.087,-2.3062 -29.615,-7.0817 -36.673,-12.946 -2.762,-2.2946 -9.5297,-7.2726 -15.039,-11.063 -13.334,-9.1717 -46.503,-50.473 -80.126,-99.772 -29.604,-43.406 -41.355,-63.182 -64.546,-108.63 -20.205,-39.594 -48.347,-82.856 -65.678,-100.97 -12.946,-13.529 -43.553,-42.87 -56.812,-54.462 -33.137,-28.971 -75.449,-81.932 -95.997,-120.16 -19.812,-36.854 -24.338,-49.402 -24.695,-68.466 -0.4273,-22.844 4.2343,-46.595 15.362,-78.272 5.0882,-14.483 10.902,-36.164 12.919,-48.18 l 3.6674,-21.847 -29.241,-40.652 -25.192,18.121 -26.01,-38.263 c -14.306,-21.045 -33.396,-49.431 -42.421,-63.079 l -16.412,-24.816 89.174,-65.662 c 49.044,-36.114 89.834,-65.558 90.629,-65.436 1.6237,0.26545 63.496,78.836 81.695,103.74 l 11.532,15.785 -23.672,17.027 8.5048,9.7413 c 4.6776,5.3572 11.666,14.126 15.53,19.485 l 7.026,9.7432 18.116,2.8289 c 9.9635,1.5558 33.811,2.4081 52.993,1.8949 37.935,-1.0155 63.981,2.1315 84.954,10.26 10.686,4.1417 16.738,8.1301 29.472,19.421 24.141,21.405 45.234,44.724 63.788,70.519 21.042,29.254 29.807,44.797 56.465,100.13 33.24,69 45.667,86.229 103.2,143.08 31.073,30.71 43.918,44.477 66.758,71.55 20.025,23.737 79.867,106.89 87.566,121.68 13.725,26.361 13.168,64.529 -1.3394,91.849 l -7.5073,14.136 -31.19,24.095 c -17.156,13.251 -69.594,52.28 -116.53,86.724 -71.664,52.592 -86.936,63.233 -95.311,66.392 z"
             fill="#f9f9f9"
             stroke="none"
             stroke-width="206.64"
             style="fill:#666666;paint-order:markers stroke fill" />
        </g>
      </g>
    </g>
    <g
       id="g21"
       transform="matrix(0.44196319,-0.05587517,0.05587517,0.44196319,-5.9999046,-5.9766063)"
       style="fill:#666666">
      <g
         id="g20"
         transform="translate(-401.25,187.8)"
         fill="#999"
         stroke="#ffffff"
         style="fill:#666666">
        <g
           id="g19"
           transform="matrix(0.066922,-4.5962e-4,4.5962e-4,0.066922,575.08,-79.527)"
           fill="#999"
           stroke="#ffffff"
           style="fill:#666666">
          <path
             id="path18"
             d="m -923.52,894.64 c -13.999,5.2771 -28.918,6.7562 -44.958,4.4567 -16.087,-2.3062 -29.615,-7.0817 -36.673,-12.946 -2.762,-2.2946 -9.5297,-7.2726 -15.039,-11.063 -13.334,-9.1717 -46.503,-50.473 -80.126,-99.772 -29.604,-43.406 -41.355,-63.182 -64.546,-108.63 -20.205,-39.594 -48.347,-82.856 -65.678,-100.97 -12.946,-13.529 -43.553,-42.87 -56.812,-54.462 -33.137,-28.971 -75.449,-81.932 -95.997,-120.16 -19.812,-36.854 -24.338,-49.402 -24.695,-68.466 -0.4273,-22.844 4.2343,-46.595 15.362,-78.272 5.0882,-14.483 10.902,-36.164 12.919,-48.18 l 3.6674,-21.847 -29.241,-40.652 -25.192,18.121 -26.01,-38.263 c -14.306,-21.045 -33.396,-49.431 -42.421,-63.079 l -16.412,-24.816 89.174,-65.662 c 49.044,-36.114 89.834,-65.558 90.629,-65.436 1.6237,0.26545 63.496,78.836 81.695,103.74 l 11.532,15.785 -23.672,17.027 8.5048,9.7413 c 4.6776,5.3572 11.666,14.126 15.53,19.485 l 7.026,9.7432 18.116,2.8289 c 9.9635,1.5558 33.811,2.4081 52.993,1.8949 37.935,-1.0155 63.981,2.1315 84.954,10.26 10.686,4.1417 16.738,8.1301 29.472,19.421 24.141,21.405 45.234,44.724 63.788,70.519 21.042,29.254 29.807,44.797 56.465,100.13 33.24,69 45.667,86.229 103.2,143.08 31.073,30.71 43.918,44.477 66.758,71.55 20.025,23.737 79.867,106.89 87.566,121.68 13.725,26.361 13.168,64.529 -1.3394,91.849 l -7.5073,14.136 -31.19,24.095 c -17.156,13.251 -69.594,52.28 -116.53,86.724 -71.664,52.592 -86.936,63.233 -95.311,66.392 z"
             fill="#f9f9f9"
             stroke="none"
             stroke-width="206.64"
             style="fill:#666666;paint-order:markers stroke fill" />
        </g>
      </g>
    </g>
  </g>
  <circle
     style="opacity:0.1;fill:#1a1a1a;stroke-width:6.00001"
     id="path1"
     cx="32.475605"
     cy="33.167641"
     r="32.811234" />
  <g
     id="g5"
     transform="matrix(-0.66022403,-0.08346878,-0.08346878,0.66022403,109.83899,-47.822351)"
     style="fill:#666666">
    <g
       id="g4"
       transform="translate(-401.25,187.8)"
       fill="#999"
       stroke="#ffffff"
       style="fill:#666666">
      <g
         id="g3"
         transform="matrix(0.066922,-4.5962e-4,4.5962e-4,0.066922,575.08,-79.527)"
         fill="#999"
         stroke="#ffffff"
         style="fill:#666666">
        <path
           id="path2"
           d="m -923.52,894.64 c -13.999,5.2771 -28.918,6.7562 -44.958,4.4567 -16.087,-2.3062 -29.615,-7.0817 -36.673,-12.946 -2.762,-2.2946 -9.5297,-7.2726 -15.039,-11.063 -13.334,-9.1717 -46.503,-50.473 -80.126,-99.772 -29.604,-43.406 -41.355,-63.182 -64.546,-108.63 -20.205,-39.594 -48.347,-82.856 -65.678,-100.97 -12.946,-13.529 -43.553,-42.87 -56.812,-54.462 -33.137,-28.971 -75.449,-81.932 -95.997,-120.16 -19.812,-36.854 -24.338,-49.402 -24.695,-68.466 -0.4273,-22.844 4.2343,-46.595 15.362,-78.272 5.0882,-14.483 10.902,-36.164 12.919,-48.18 l 3.6674,-21.847 -29.241,-40.652 -25.192,18.121 -26.01,-38.263 c -14.306,-21.045 -33.396,-49.431 -42.421,-63.079 l -16.412,-24.816 89.174,-65.662 c 49.044,-36.114 89.834,-65.558 90.629,-65.436 1.6237,0.26545 63.496,78.836 81.695,103.74 l 11.532,15.785 -23.672,17.027 8.5048,9.7413 c 4.6776,5.3572 11.666,14.126 15.53,19.485 l 7.026,9.7432 18.116,2.8289 c 9.9635,1.5558 33.811,2.4081 52.993,1.8949 37.935,-1.0155 63.981,2.1315 84.954,10.26 10.686,4.1417 16.738,8.1301 29.472,19.421 24.141,21.405 45.234,44.724 63.788,70.519 21.042,29.254 29.807,44.797 56.465,100.13 33.24,69 45.667,86.229 103.2,143.08 31.073,30.71 43.918,44.477 66.758,71.55 20.025,23.737 79.867,106.89 87.566,121.68 13.725,26.361 13.168,64.529 -1.3394,91.849 l -7.5073,14.136 -31.19,24.095 c -17.156,13.251 -69.594,52.28 -116.53,86.724 -71.664,52.592 -86.936,63.233 -95.311,66.392 z"
           fill="#f9f9f9"
           stroke="none"
           stroke-width="206.64"
           style="fill:#666666;paint-order:markers stroke fill" />
      </g>
    </g>
  </g>
</svg>
