<?xml version="1.0" encoding="UTF-8" standalone="no"?>
<!-- Created with Inkscape (http://www.inkscape.org/) -->

<svg
   id="svg77099"
   width="65.479mm"
   height="66.255mm"
   version="1.1"
   viewBox="0 0 65.479 66.255"
   sodipodi:docname="x-button-night-over.svg"
   inkscape:version="1.3.2 (1:1.3.2+202311252150+091e20ef0f)"
   xmlns:inkscape="http://www.inkscape.org/namespaces/inkscape"
   xmlns:sodipodi="http://sodipodi.sourceforge.net/DTD/sodipodi-0.dtd"
   xmlns="http://www.w3.org/2000/svg"
   xmlns:svg="http://www.w3.org/2000/svg">
  <defs
     id="defs1" />
  <sodipodi:namedview
     id="namedview1"
     pagecolor="#ffffff"
     bordercolor="#000000"
     borderopacity="0.25"
     inkscape:showpageshadow="2"
     inkscape:pageopacity="0.0"
     inkscape:pagecheckerboard="0"
     inkscape:deskcolor="#d1d1d1"
     inkscape:document-units="mm"
     inkscape:zoom="1.4771888"
     inkscape:cx="106.62144"
     inkscape:cy="141.82344"
     inkscape:window-width="1503"
     inkscape:window-height="933"
     inkscape:window-x="0"
     inkscape:window-y="0"
     inkscape:window-maximized="1"
     inkscape:current-layer="layer1" />
  <g
     id="layer1"
     transform="translate(-89.853 115.69)">
    <circle
       style="opacity:0.1;fill:#ffffff;stroke:none;stroke-width:6.3764"
       id="path1"
       cx="122.46472"
       cy="-81.864357"
       r="31.652338" />
    <path
       id="path79185"
       d="m16.417-146.59v128.35h144.61v-0.14445c34.884-0.36274 62.977-28.914 62.989-64.017-3e-3 -35.109-28.098-63.671-62.989-64.034v-0.15819z"
       fill="none"
       stop-color="#000000" />
    <g
       id="g120457"
       transform="matrix(0.78534,-0.85442,0.85442,0.78534,-54.767598,-25.265456)"
       fill="#f2f2f2"
       stroke="#333333"
       stroke-linecap="round"
       stroke-width="5.1701">
      <path
         id="path120443"
         d="m 40.19,115.8 65.027,2.3227" />
      <path
         id="path1407"
         d="M 71.127,149.46 74.2815,84.468" />
    </g>
    <g
       id="g12"
       transform="matrix(0.48674744,0.06153702,0.06153702,-0.48674744,126.53564,34.559325)"
       style="fill:#f9f9f9">
      <g
         id="g11"
         transform="translate(-401.25,187.8)"
         fill="#999"
         stroke="#ffffff"
         style="fill:#f9f9f9">
        <g
           id="g10"
           transform="matrix(0.066922,-4.5962e-4,4.5962e-4,0.066922,575.08,-79.527)"
           fill="#999"
           stroke="#ffffff"
           style="fill:#f9f9f9">
          <path
             id="path9"
             d="m -923.52,894.64 c -13.999,5.2771 -28.918,6.7562 -44.958,4.4567 -16.087,-2.3062 -29.615,-7.0817 -36.673,-12.946 -2.762,-2.2946 -9.5297,-7.2726 -15.039,-11.063 -13.334,-9.1717 -46.503,-50.473 -80.126,-99.772 -29.604,-43.406 -41.355,-63.182 -64.546,-108.63 -20.205,-39.594 -48.347,-82.856 -65.678,-100.97 -12.946,-13.529 -43.553,-42.87 -56.812,-54.462 -33.137,-28.971 -75.449,-81.932 -95.997,-120.16 -19.812,-36.854 -24.338,-49.402 -24.695,-68.466 -0.4273,-22.844 4.2343,-46.595 15.362,-78.272 5.0882,-14.483 10.902,-36.164 12.919,-48.18 l 3.6674,-21.847 -29.241,-40.652 -25.192,18.121 -26.01,-38.263 c -14.306,-21.045 -33.396,-49.431 -42.421,-63.079 l -16.412,-24.816 89.174,-65.662 c 49.044,-36.114 89.834,-65.558 90.629,-65.436 1.6237,0.26545 63.496,78.836 81.695,103.74 l 11.532,15.785 -23.672,17.027 8.5048,9.7413 c 4.6776,5.3572 11.666,14.126 15.53,19.485 l 7.026,9.7432 18.116,2.8289 c 9.9635,1.5558 33.811,2.4081 52.993,1.8949 37.935,-1.0155 63.981,2.1315 84.954,10.26 10.686,4.1417 16.738,8.1301 29.472,19.421 24.141,21.405 45.234,44.724 63.788,70.519 21.042,29.254 29.807,44.797 56.465,100.13 33.24,69 45.667,86.229 103.2,143.08 31.073,30.71 43.918,44.477 66.758,71.55 20.025,23.737 79.867,106.89 87.566,121.68 13.725,26.361 13.168,64.529 -1.3394,91.849 l -7.5073,14.136 -31.19,24.095 c -17.156,13.251 -69.594,52.28 -116.53,86.724 -71.664,52.592 -86.936,63.233 -95.311,66.392 z"
             fill="#f9f9f9"
             stroke="none"
             stroke-width="206.64"
             style="fill:#f9f9f9;paint-order:markers stroke fill" />
        </g>
      </g>
    </g>
    <g
       id="g15"
       transform="matrix(-0.48674744,-0.06153702,-0.06153702,0.48674744,209.77176,-53.36374)"
       style="fill:#f9f9f9">
      <g
         id="g14"
         transform="translate(-401.25,187.8)"
         fill="#999"
         stroke="#ffffff"
         style="fill:#f9f9f9">
        <g
           id="g13"
           transform="matrix(0.066922,-4.5962e-4,4.5962e-4,0.066922,575.08,-79.527)"
           fill="#999"
           stroke="#ffffff"
           style="fill:#f9f9f9">
          <path
             id="path12"
             d="m -923.52,894.64 c -13.999,5.2771 -28.918,6.7562 -44.958,4.4567 -16.087,-2.3062 -29.615,-7.0817 -36.673,-12.946 -2.762,-2.2946 -9.5297,-7.2726 -15.039,-11.063 -13.334,-9.1717 -46.503,-50.473 -80.126,-99.772 -29.604,-43.406 -41.355,-63.182 -64.546,-108.63 -20.205,-39.594 -48.347,-82.856 -65.678,-100.97 -12.946,-13.529 -43.553,-42.87 -56.812,-54.462 -33.137,-28.971 -75.449,-81.932 -95.997,-120.16 -19.812,-36.854 -24.338,-49.402 -24.695,-68.466 -0.4273,-22.844 4.2343,-46.595 15.362,-78.272 5.0882,-14.483 10.902,-36.164 12.919,-48.18 l 3.6674,-21.847 -29.241,-40.652 -25.192,18.121 -26.01,-38.263 c -14.306,-21.045 -33.396,-49.431 -42.421,-63.079 l -16.412,-24.816 89.174,-65.662 c 49.044,-36.114 89.834,-65.558 90.629,-65.436 1.6237,0.26545 63.496,78.836 81.695,103.74 l 11.532,15.785 -23.672,17.027 8.5048,9.7413 c 4.6776,5.3572 11.666,14.126 15.53,19.485 l 7.026,9.7432 18.116,2.8289 c 9.9635,1.5558 33.811,2.4081 52.993,1.8949 37.935,-1.0155 63.981,2.1315 84.954,10.26 10.686,4.1417 16.738,8.1301 29.472,19.421 24.141,21.405 45.234,44.724 63.788,70.519 21.042,29.254 29.807,44.797 56.465,100.13 33.24,69 45.667,86.229 103.2,143.08 31.073,30.71 43.918,44.477 66.758,71.55 20.025,23.737 79.867,106.89 87.566,121.68 13.725,26.361 13.168,64.529 -1.3394,91.849 l -7.5073,14.136 -31.19,24.095 c -17.156,13.251 -69.594,52.28 -116.53,86.724 -71.664,52.592 -86.936,63.233 -95.311,66.392 z"
             fill="#f9f9f9"
             stroke="none"
             stroke-width="206.64"
             style="fill:#f9f9f9;paint-order:markers stroke fill" />
        </g>
      </g>
    </g>
    <g
       id="g18"
       transform="matrix(-0.48674744,0.06153702,-0.06153702,-0.48674744,209.77176,34.559324)"
       style="fill:#f9f9f9">
      <g
         id="g17"
         transform="translate(-401.25,187.8)"
         fill="#999"
         stroke="#ffffff"
         style="fill:#f9f9f9">
        <g
           id="g16"
           transform="matrix(0.066922,-4.5962e-4,4.5962e-4,0.066922,575.08,-79.527)"
           fill="#999"
           stroke="#ffffff"
           style="fill:#f9f9f9">
          <path
             id="path15"
             d="m -923.52,894.64 c -13.999,5.2771 -28.918,6.7562 -44.958,4.4567 -16.087,-2.3062 -29.615,-7.0817 -36.673,-12.946 -2.762,-2.2946 -9.5297,-7.2726 -15.039,-11.063 -13.334,-9.1717 -46.503,-50.473 -80.126,-99.772 -29.604,-43.406 -41.355,-63.182 -64.546,-108.63 -20.205,-39.594 -48.347,-82.856 -65.678,-100.97 -12.946,-13.529 -43.553,-42.87 -56.812,-54.462 -33.137,-28.971 -75.449,-81.932 -95.997,-120.16 -19.812,-36.854 -24.338,-49.402 -24.695,-68.466 -0.4273,-22.844 4.2343,-46.595 15.362,-78.272 5.0882,-14.483 10.902,-36.164 12.919,-48.18 l 3.6674,-21.847 -29.241,-40.652 -25.192,18.121 -26.01,-38.263 c -14.306,-21.045 -33.396,-49.431 -42.421,-63.079 l -16.412,-24.816 89.174,-65.662 c 49.044,-36.114 89.834,-65.558 90.629,-65.436 1.6237,0.26545 63.496,78.836 81.695,103.74 l 11.532,15.785 -23.672,17.027 8.5048,9.7413 c 4.6776,5.3572 11.666,14.126 15.53,19.485 l 7.026,9.7432 18.116,2.8289 c 9.9635,1.5558 33.811,2.4081 52.993,1.8949 37.935,-1.0155 63.981,2.1315 84.954,10.26 10.686,4.1417 16.738,8.1301 29.472,19.421 24.141,21.405 45.234,44.724 63.788,70.519 21.042,29.254 29.807,44.797 56.465,100.13 33.24,69 45.667,86.229 103.2,143.08 31.073,30.71 43.918,44.477 66.758,71.55 20.025,23.737 79.867,106.89 87.566,121.68 13.725,26.361 13.168,64.529 -1.3394,91.849 l -7.5073,14.136 -31.19,24.095 c -17.156,13.251 -69.594,52.28 -116.53,86.724 -71.664,52.592 -86.936,63.233 -95.311,66.392 z"
             fill="#f9f9f9"
             stroke="none"
             stroke-width="206.64"
             style="fill:#f9f9f9;paint-order:markers stroke fill" />
        </g>
      </g>
    </g>
    <g
       id="g21"
       transform="matrix(0.48674744,-0.06153702,0.06153702,0.48674744,126.53564,-53.36374)"
       style="fill:#f9f9f9">
      <g
         id="g20"
         transform="translate(-401.25,187.8)"
         fill="#999"
         stroke="#ffffff"
         style="fill:#f9f9f9">
        <g
           id="g19"
           transform="matrix(0.066922,-4.5962e-4,4.5962e-4,0.066922,575.08,-79.527)"
           fill="#999"
           stroke="#ffffff"
           style="fill:#f9f9f9">
          <path
             id="path18"
             d="m -923.52,894.64 c -13.999,5.2771 -28.918,6.7562 -44.958,4.4567 -16.087,-2.3062 -29.615,-7.0817 -36.673,-12.946 -2.762,-2.2946 -9.5297,-7.2726 -15.039,-11.063 -13.334,-9.1717 -46.503,-50.473 -80.126,-99.772 -29.604,-43.406 -41.355,-63.182 -64.546,-108.63 -20.205,-39.594 -48.347,-82.856 -65.678,-100.97 -12.946,-13.529 -43.553,-42.87 -56.812,-54.462 -33.137,-28.971 -75.449,-81.932 -95.997,-120.16 -19.812,-36.854 -24.338,-49.402 -24.695,-68.466 -0.4273,-22.844 4.2343,-46.595 15.362,-78.272 5.0882,-14.483 10.902,-36.164 12.919,-48.18 l 3.6674,-21.847 -29.241,-40.652 -25.192,18.121 -26.01,-38.263 c -14.306,-21.045 -33.396,-49.431 -42.421,-63.079 l -16.412,-24.816 89.174,-65.662 c 49.044,-36.114 89.834,-65.558 90.629,-65.436 1.6237,0.26545 63.496,78.836 81.695,103.74 l 11.532,15.785 -23.672,17.027 8.5048,9.7413 c 4.6776,5.3572 11.666,14.126 15.53,19.485 l 7.026,9.7432 18.116,2.8289 c 9.9635,1.5558 33.811,2.4081 52.993,1.8949 37.935,-1.0155 63.981,2.1315 84.954,10.26 10.686,4.1417 16.738,8.1301 29.472,19.421 24.141,21.405 45.234,44.724 63.788,70.519 21.042,29.254 29.807,44.797 56.465,100.13 33.24,69 45.667,86.229 103.2,143.08 31.073,30.71 43.918,44.477 66.758,71.55 20.025,23.737 79.867,106.89 87.566,121.68 13.725,26.361 13.168,64.529 -1.3394,91.849 l -7.5073,14.136 -31.19,24.095 c -17.156,13.251 -69.594,52.28 -116.53,86.724 -71.664,52.592 -86.936,63.233 -95.311,66.392 z"
             fill="#f9f9f9"
             stroke="none"
             stroke-width="206.64"
             style="fill:#f9f9f9;paint-order:markers stroke fill" />
        </g>
      </g>
    </g>
    <path
       id="path15-1"
       d="m 102.00185,-71.346296 c -0.29398,-0.595822 -0.42408,-1.248788 -0.39205,-1.967688 0.0321,-0.721007 0.18449,-1.339629 0.41304,-1.677029 0.0894,-0.132056 0.28009,-0.45274 0.4237,-0.71268 0.3475,-0.629125 2.02899,-2.274328 4.06198,-3.974281 1.78999,-1.49676 2.61303,-2.101952 4.52107,-3.324135 1.66228,-1.064818 3.45224,-2.49634 4.17763,-3.340926 0.54176,-0.630882 1.70575,-2.110956 2.16056,-2.74726 1.13664,-1.590281 3.29378,-3.690166 4.89419,-4.764208 1.54288,-1.035554 2.07783,-1.290039 2.91886,-1.388549 1.0078,-0.117999 2.07775,-0.01504 3.52608,0.339328 0.66218,0.162043 1.64566,0.324923 2.18549,0.361914 l 0.98148,0.0673 1.66987,-1.468748 -1.38924,-1.587374 1.57825,-1.315613 c 0.86805,-0.723622 2.03981,-1.690515 2.60384,-2.148615 l 1.02559,-0.83307 3.76805,4.208937 c 1.809,2.010875 3.76154,4.145188 3.75963,4.180829 -0.005,0.07293 -3.20883,3.148443 -4.23055,4.060851 l -0.64778,0.578006 -1.32929,-1.431795 -0.39364,0.418155 c -0.21649,0.229975 -0.5737,0.576924 -0.79379,0.770951 l -0.40035,0.352569 -0.0464,0.812951 c -0.0255,0.447117 0.0399,1.504821 0.14619,2.350372 0.20949,1.672225 0.18344,2.837046 -0.0848,3.79926 -0.13668,0.490265 -0.28669,0.775059 -0.73046,1.386861 -0.8413,1.159849 -1.78042,2.193289 -2.83997,3.12526 -1.20166,1.056919 -1.85057,1.511768 -4.18046,2.930084 -2.90539,1.768531 -3.61294,2.392527 -5.87596,5.18202 -1.22247,1.5066 -1.77519,2.134048 -2.87265,3.260995 -0.96219,0.988091 -4.37765,3.993776 -4.99796,4.398179 -1.10553,0.720985 -2.79488,0.861991 -4.06529,0.339343 l -0.65736,-0.270462 -1.20025,-1.273976 c -0.66014,-0.700715 -2.61258,-2.849053 -4.3386,-4.774017 -2.63541,-2.939144 -3.17199,-3.567942 -3.34793,-3.924402 z"
       fill="#f9f9f9"
       stroke="none"
       stroke-width="9.17685"
       style="fill:#ffffff;paint-order:markers stroke fill"
       sodipodi:nodetypes="csscsccsccccccccccccccccccscssscccccccccc" />
    <path
       id="path2"
       d="m 53.506042,-118.23421 c -0.30841,-0.58848 -0.45439,-1.23807 -0.4399,-1.95754 0.0145,-0.72158 0.15178,-1.34374 0.37205,-1.6866 0.0862,-0.13417 0.26897,-0.45944 0.4062,-0.7228 0.33208,-0.63741 1.97295,-2.3231 3.9639,-4.07211 1.75297,-1.53995 2.56102,-2.16501 4.43872,-3.43334 1.63583,-1.10501 3.39036,-2.57974 4.09495,-3.44175 0.52623,-0.6439 1.65379,-2.15191 2.09295,-2.79911 1.09755,-1.61751 3.20287,-3.76935 4.77663,-4.88208 1.51718,-1.07286 2.04577,-1.34031 2.88415,-1.45927 1.00461,-0.14254 2.07676,-0.0657 3.53329,0.25327 0.66595,0.14585 1.65309,0.28472 2.19366,0.30855 l 0.98284,0.0434 1.32646,-1.32789 -0.50846,-0.77744 0.55991,-0.54113 c 0.51253,0.34891 0.19617,0.0816 0.79372,0.54237 l 1.9196,-1.88531 2.83318,2.72394 c 1.07569,1.12926 1.51917,1.71086 2.56958,2.93786 -2.02129,2.08763 -0.82904,0.90827 -2.04209,2.00302 l 0.34043,0.69675 -0.46585,0.44013 -0.61651,-0.46335 c -0.21081,0.23519 -0.55948,0.59072 -0.77477,0.79006 l -0.57502,0.51774 -0.0266,0.81383 c -0.0146,0.44761 0.077,1.50339 0.20344,2.34611 0.25019,1.66662 0.25252,2.83174 0.008,3.8002 -0.12469,0.49346 -0.26772,0.78182 -0.69645,1.40426 -0.81278,1.18 -1.72642,2.23603 -2.76295,3.19355 -1.17553,1.08591 -1.81317,1.55643 -4.10781,3.0311 -2.86141,1.83882 -3.55354,2.47988 -5.7479,5.3237 -1.18538,1.53595 -1.72265,2.17669 -2.79231,3.33005 -0.93785,1.01121 -4.27906,4.09924 -4.88928,4.51869 -1.08763,0.74772 -2.77304,0.92986 -4.05582,0.43833 l -0.66374,-0.25436 -1.23097,-1.24433 c -0.67699,-0.68445 -2.68129,-2.78449 -4.45369,-4.66684 -2.70625,-2.87404 -3.25799,-3.48958 -3.44258,-3.84164 z"
       fill="#f9f9f9"
       stroke="none"
       stroke-width="9.17685"
       style="fill:#cccccc;paint-order:markers stroke fill"
       sodipodi:nodetypes="csscsccsccccccccccccccccccscssscccccccccc" />
  </g>
</svg>
