<?xml version="1.0" encoding="UTF-8" standalone="no"?>
<svg
   width="138.92mm"
   height="138.92mm"
   version="1.1"
   viewBox="0 0 138.92 138.92"
   xml:space="preserve"
   id="svg55537"
   sodipodi:docname="cyclical-design-white3.svg"
   inkscape:version="1.2.2 (b0a8486541, 2022-12-01)"
   xmlns:inkscape="http://www.inkscape.org/namespaces/inkscape"
   xmlns:sodipodi="http://sodipodi.sourceforge.net/DTD/sodipodi-0.dtd"
   xmlns="http://www.w3.org/2000/svg"
   xmlns:svg="http://www.w3.org/2000/svg"
   xmlns:rdf="http://www.w3.org/1999/02/22-rdf-syntax-ns#"
   xmlns:cc="http://creativecommons.org/ns#"
   xmlns:dc="http://purl.org/dc/elements/1.1/"><defs
     id="defs55541" /><sodipodi:namedview
     id="namedview55539"
     pagecolor="#ffffff"
     bordercolor="#000000"
     borderopacity="0.25"
     inkscape:showpageshadow="2"
     inkscape:pageopacity="0.0"
     inkscape:pagecheckerboard="0"
     inkscape:deskcolor="#d1d1d1"
     inkscape:document-units="mm"
     showgrid="false"
     inkscape:zoom="0.89895864"
     inkscape:cx="408.80635"
     inkscape:cy="416.03694"
     inkscape:window-width="1503"
     inkscape:window-height="934"
     inkscape:window-x="0"
     inkscape:window-y="0"
     inkscape:window-maximized="1"
     inkscape:current-layer="g55533" /><metadata
     id="metadata55519"><rdf:RDF><cc:Work
         rdf:about=""><dc:format>image/svg+xml</dc:format><dc:type
           rdf:resource="http://purl.org/dc/dcmitype/StillImage" /></cc:Work></rdf:RDF></metadata><g
     fill="#ececec"
     id="g55535"><g
       transform="translate(293.57 -73.232)"
       id="g55523"><path
         d="m87.986 190.48c-11.684-1.1234-23.507-10.093-29.695-22.524-3.007-6.0417-4.3006-11.287-4.4783-18.157-0.116-4.167 0.04555-6.1815 0.67955-9.6876l0.38066-2.0625 1.2355 1.0388c2.982 2.5042 6.943 3.8908 17.42 6.0993 11.946 2.5178 17.831 4.5928 22.989 8.1042 5.8172 3.9608 9.722 9.8594 11.324 17.107 0.53032 2.4033 0.5817 2.2757-1.0206 2.5632-1.7729 0.31811-8.0257 0.33483-10.418 3e-3 -6.0442-0.78705-11.917-2.4003-16.021-4.3956-0.91087-0.43837-1.6933-0.77132-1.7378-0.72428-0.0459 0.0495 0.54658 0.712 1.3105 1.4844 3.6993 3.7347 9.9164 6.4369 17.512 7.6116 3.0089 0.46445 9.6553 0.47413 12.413 0.0142 7.2625-1.2095 14.041-4.0397 19.75-8.2356 1.0277-0.75406 1.343-0.90988 1.4762-0.72147 1.0675 1.5269 1.273 3.9649 0.47182 5.676-0.66567 1.4151-1.5533 2.1868-4.1478 3.5978-6.163 3.3501-13.327 5.5188-20.03 6.0624l-1.4179 0.0932-1.5066 1.4467c-2.8162 2.7001-5.7618 4.3232-9.3661 5.1603-1.0208 0.23414-4.7123 0.64835-5.3519 0.59163-0.16368-0.0142-0.94105-0.0598-1.766-0.17008zm55.274-0.64604c0.16225-0.59294 0.27327-1.5608 0.27327-3.2365-6.4e-4 -3.6298-0.61195-6.2762-3.5108-15.25-3.3081-10.23-4.3973-15.034-4.6423-20.481-0.30565-6.6952 1.5159-12.814 5.3278-17.93 1.0254-1.3764 3.4999-4.0065 4.7717-5.0713l0.84316-0.71005 0.62373 0.68165c0.3455 0.37561 1.1632 1.4816 1.822 2.4561 4.0786 6.0381 7.5155 16.046 7.9469 23.141 0.0473 1.0804 0.16404 1.9011 0.25798 1.8265 0.3085-0.31419 1.0418-3.3156 1.2262-5.0417 0.81527-7.4216-2.6898-18.316-8.244-25.613-4.2529-5.5872-9.7055-10.047-16.186-13.237-1.586-0.77765-2.8818-1.4961-2.8818-1.5912 2e-3 -0.38579 1.1257-1.7657 1.8334-2.2541 1.85-1.2759 3.9724-1.4113 6.034-0.40159 1.5135 0.73965 5.6522 3.5066 7.4802 4.9892 3.3252 2.6981 7.11 6.7385 9.5901 10.237 0.682 0.96631 1.2917 1.6458 1.4645 1.6457 0.16332-1.4e-4 1.0042 0.15657 1.8662 0.45396 3.6279 1.0534 7.0962 3.3375 9.5392 6.2854 2.5 3.0168 4.2464 6.8427 5.2122 11.417 0.5605 2.6515 0.77776 8.2941 0.43902 11.289-1.4786 13.002-8.7623 24.817-19.696 31.951-2.282 1.4895-6.5029 3.5842-9.1762 4.5556-2.5854 0.93756-2.5635 0.94699-2.219-0.09zm-62.42-52.902c-1.642-0.38884-3.1129-1.5659-3.8675-3.1012-0.37845-0.76562-0.43684-1.1626-0.49289-3.265-0.16404-6.6703 1.4318-14.289 4.4463-21.07l0.90397-2.0335-0.49524-1.8816c-0.59807-2.2779-0.78957-5.5604-0.45556-7.8463 0.63073-4.3267 2.8893-8.6385 6.4669-12.356 5.7305-5.9538 13.671-9.7582 23.243-11.136 2.5997-0.37646 8.447-0.42379 10.906-0.05907 9.5184 1.2885 17.719 5.0685 24.617 11.344l0.59099 0.54057-0.76619 0.15727c-2.0695 0.56163-4.2081 1.849-6.8937 4.1762-2.0064 1.7345-3.0185 2.7885-8.4292 8.7614-7.8836 8.7025-12.179 12.38-17.608 15.073-2.1301 1.053-4.5204 1.9145-6.6702 2.3967-1.9598 0.43578-6.8645 0.54263-9.2335 0.15728-1.8803-0.28039-5.9129-1.3158-6.6641-1.7199-0.42507-0.23805-0.3808-0.48506 0.40169-2.4685 2.5009-6.3011 10.271-15.546 16.7-19.869l1.6326-1.0971-0.94848 0.08682c-0.52068 0.05622-1.6934 0.38301-2.6067 0.7109-4.008 1.4337-8.0277 4.314-11.73 8.4075-5.1194 5.661-8.1856 11.304-9.9879 18.38-1.0557 4.1509-1.3009 6.1412-1.3149 10.728-0.0036 2.1964 0.04697 4.688 0.14055 5.5412l0.16368 1.5496-0.67496-0.0142c-0.37127-0.0107-0.97375-0.0591-1.3428-0.15122z"
         fill="#ececec"
         id="path55521" /></g><g
       id="g55533"><path
         d="M 73.920145,110.74699 C 66.658338,119.01808 59.689,120.9044 51.708,120.8755 l -0.44287,0.24014 c -1.6134,1.2734 -4.1745,2.5749 -6.1229,3.1093 -3.6873,1.0128 -9.5652,0.74886 -13.804,-0.79662 -6.7885,-2.4758 -12.635,-7.4626 -17.113,-14.597 -1.2182,-1.9369 -3.3178,-6.5733 -3.8927,-8.6577 -1.7275,-8.657 -2.286,-19.393 0.10585,-26.418 5.4492,7.5819 10.97,8.525 16.683,10.417 9.7489,3.2269 14.208,5.3575 18.279,8.7349 1.5943,1.3264 3.127,2.9269 4.2712,4.4688 3.252102,4.30425 6.221635,7.40615 5.98248,13.1736 -0.04075,0.42158 -0.25392,0.47296 -2.1185,0.5445 -5.9279,0.21577 -17.7,-2.7069 -23.428,-6.3094 l -1.4542,-0.91505 0.40396,0.72431 c 0.2286,0.39465 0.90381,1.2134 1.4884,1.8254 2.5614,2.6874 6.2853,4.8778 10.869,6.3909 13.666,4.721 24.285454,1.11146 34.53127,-11.91218 -0.504082,4.3685 -0.896173,8.70405 -1.632273,9.07365 z"
         stroke-width="0.87217"
         id="path55525"
         sodipodi:nodetypes="ccccccccccccccccccccc" /><path
         d="m 11.648,63.568 c 0.76233,-7.6915 2.9012,-13.074 7.4747,-20.466 l 1.3715,-2.2168 -0.32089,-2.23 c -0.38652,-2.6995 -0.14402,-6.4994 0.58316,-9.0828 1.3746,-4.8902 4.6908,-9.5446 9.4966,-13.339 7.6976,-6.0763 17.725,-9.3846 29.352,-9.6837 3.1581,-0.083907 10.147,0.64677 13.03,1.3962 11.389,3.8329 27.433,13.719 34.204,21.276 -14.57,-1.6125 -21.054,3.8775 -26.904,8.6698 -10.663,8.9477 -16.32,12.599 -23.189,14.967 -2.6947,0.92475 -5.6725,1.5943 -8.3086,1.8602 -2.4026,0.23798 -8.2743,-0.2976 -11.048,-1.0588 -2.2048,-0.57484 -7.9926,-3.0573 -8.8315,-3.6228 3.8792,-9.8786 14.125,-18.829 26.857,-23.679 l -1.1449,-0.02744 c -0.62981,-0.0054 -2.077,0.21252 -3.2146,0.46744 -4.9916,1.1104 -10.205,3.8825 -15.214,8.0922 -11.373899,8.767696 -17.203548,18.927296 -16.87384,30.878268 0.144557,5.239772 4.441465,10.887142 7.957716,15.262553 -6.8766,-2.6363 -15.656889,-10.185689 -15.024889,-16.710689 z"
         stroke-width="1.1799"
         id="path55527"
         sodipodi:nodetypes="ccccccccccccccccccsccc" /><path
         id="path55529"
         d="M 99.740682 32.73547 C 96.253878 32.727835 92.182724 33.73863 87.410685 36.077901 C 110.59998 33.715069 115.32077 57.882781 113.17397 77.055762 C 112.53707 84.294754 110.56261 90.51925 107.41412 95.223645 C 106.58362 96.458444 105.5173 97.850058 104.2324 98.901457 C 109.3487 86.357469 111.82262 69.403563 105.17343 59.741573 C 104.03143 59.920473 98.881841 61.7553 96.623043 62.966699 C 93.750946 64.459498 88.546633 68.494978 86.789535 70.518176 C 84.865536 72.741874 82.992928 75.554327 81.558329 78.358525 C 74.916536 94.583508 85.39503 114.98454 65.35105 132.93452 C 82.088447 137.74477 95.8047 131.10761 105.25249 126.99122 C 108.20519 125.40482 114.47506 120.67735 116.97115 118.20415 C 126.16895 109.10716 131.616 98.778981 132.9154 87.974992 C 133.7262 81.228999 132.62647 74.917386 129.75797 69.892891 C 128.24327 67.237694 125.34403 63.962009 122.83023 62.060811 L 120.75284 60.491398 L 120.05986 57.644027 L 120.05882 57.644027 C 117.19398 45.778414 112.19355 32.762734 99.740682 32.73547 z M 110.61134 117.54683 L 111.57975 118.76691 L 111.44539 118.87336 L 110.47698 117.65328 L 110.61134 117.54683 z M 110.53744 118.23568 L 111.18546 119.08059 L 111.0511 119.18342 L 110.9338 119.02994 C 110.94724 119.09038 110.94488 119.1493 110.92708 119.20668 C 110.90261 119.28577 110.85161 119.35476 110.77463 119.4139 L 110.77412 119.41442 C 110.69926 119.47169 110.61992 119.50511 110.53641 119.51415 C 110.45294 119.52122 110.37055 119.50438 110.28939 119.46351 C 110.2085 119.42064 110.13398 119.35459 110.06615 119.26611 C 109.99832 119.17764 109.95472 119.08853 109.93541 118.99842 C 109.91608 118.90831 109.92066 118.82354 109.94833 118.74366 C 109.97713 118.66292 110.02844 118.59413 110.10232 118.53747 C 110.17959 118.4782 110.25967 118.44707 110.34262 118.44393 C 110.40209 118.44154 110.45873 118.45451 110.51315 118.48269 L 110.40308 118.33851 L 110.53744 118.23568 z M 110.38964 118.56124 C 110.33062 118.56446 110.27273 118.58792 110.21653 118.631 C 110.13366 118.69454 110.09127 118.77339 110.08889 118.86768 C 110.08689 118.95999 110.12526 119.05766 110.20413 119.16069 C 110.28312 119.26371 110.36695 119.32542 110.45579 119.3462 C 110.54576 119.36614 110.63234 119.34462 110.71521 119.28109 C 110.79807 119.21756 110.84046 119.14044 110.84233 119.0501 C 110.84366 118.95864 110.80417 118.86072 110.72399 118.75658 C 110.64414 118.65243 110.55962 118.59029 110.47078 118.56951 C 110.44336 118.56274 110.41647 118.55977 110.38964 118.56124 z M 109.67961 118.87491 L 109.76901 119.00359 C 109.73621 119.01379 109.70286 119.03175 109.66876 119.05682 C 109.60969 119.10035 109.57164 119.14858 109.55455 119.20151 C 109.53862 119.25358 109.53715 119.30617 109.55042 119.35964 C 109.56382 119.41111 109.587 119.45899 109.61967 119.5033 L 109.97985 119.99216 L 109.84187 120.09344 L 109.38712 119.47694 C 109.35779 119.43721 109.32719 119.39826 109.29565 119.36016 C 109.26439 119.32009 109.23144 119.28202 109.19644 119.24647 L 109.32769 119.14983 L 109.4574 119.29659 C 109.4387 119.23207 109.43855 119.17087 109.4574 119.11263 C 109.48233 119.03466 109.52797 118.97102 109.59383 118.92246 C 109.60856 118.91159 109.62304 118.90304 109.63724 118.8961 C 109.6517 118.88717 109.66574 118.87985 109.67961 118.87491 z M 108.70499 119.04596 L 108.81868 119.20409 L 108.64867 119.32657 L 108.53498 119.16844 L 108.70499 119.04596 z M 108.95097 119.42424 L 109.57264 120.28878 L 109.43363 120.38903 L 108.81196 119.52449 L 108.95097 119.42424 z M 108.44971 119.83713 C 108.53538 119.83446 108.61832 119.85606 108.69827 119.90173 C 108.77939 119.94673 108.8517 120.0148 108.91532 120.10636 C 108.97892 120.19791 109.01767 120.28956 109.03159 120.38128 C 109.04585 120.47104 109.03692 120.55457 109.00472 120.63191 C 108.97172 120.7081 108.91645 120.7733 108.83883 120.82725 C 108.76003 120.88198 108.67896 120.90912 108.59596 120.90838 C 108.53471 120.90789 108.47724 120.89124 108.42284 120.85877 L 108.79594 121.39569 L 108.65487 121.49388 L 107.95672 120.48877 C 107.92852 120.44824 107.89933 120.40889 107.86887 120.36991 C 107.83873 120.32898 107.80675 120.29015 107.77275 120.25364 L 107.90659 120.16062 L 108.03733 120.31772 C 108.02118 120.2486 108.02465 120.18218 108.04767 120.11877 C 108.07594 120.04071 108.12961 119.97457 108.20838 119.91981 C 108.28487 119.86668 108.3652 119.83913 108.44971 119.83713 z M 108.44248 119.99578 C 108.38205 119.99552 108.32287 120.01581 108.26471 120.05624 C 108.1778 120.11664 108.13128 120.19192 108.12518 120.28206 C 108.11918 120.37221 108.15323 120.47091 108.22802 120.57869 C 108.30291 120.68645 108.38451 120.75385 108.47193 120.78074 C 108.55855 120.80647 108.64496 120.78946 108.73186 120.72906 C 108.81646 120.67027 108.86259 120.59521 108.86984 120.50427 C 108.87711 120.41331 108.84368 120.31426 108.76959 120.20765 C 108.69551 120.10104 108.61426 120.03478 108.52568 120.0087 C 108.49774 120.00017 108.46994 119.99589 108.44248 119.99578 z M 106.67463 120.3601 L 107.13713 122.0866 L 107.00535 122.17135 L 106.5413 120.44588 L 106.67463 120.3601 z M 107.54279 120.48153 C 107.57131 120.48146 107.59912 120.48426 107.62651 120.4898 L 107.64821 120.62571 C 107.58248 120.61851 107.52139 120.6213 107.46579 120.6345 C 107.41059 120.64576 107.35897 120.66761 107.31076 120.69961 C 107.2473 120.74174 107.20616 120.78689 107.18726 120.835 C 107.16952 120.88233 107.17463 120.92705 107.20276 120.96936 C 107.22696 121.00583 107.25696 121.02741 107.29216 121.03447 C 107.32856 121.04114 107.37466 121.0344 107.43065 121.0138 L 107.60532 120.95127 C 107.7005 120.91347 107.78105 120.90228 107.84716 120.91768 C 107.9137 120.93115 107.96758 120.96909 108.00891 121.03137 C 108.05964 121.10779 108.0692 121.18962 108.03733 121.27684 C 108.00547 121.36405 107.93607 121.44301 107.82908 121.51403 L 107.82856 121.51403 C 107.67925 121.61315 107.53582 121.65362 107.3981 121.63495 L 107.37536 121.49749 C 107.44658 121.50283 107.51271 121.49777 107.5738 121.48251 C 107.63526 121.46544 107.69662 121.43629 107.75776 121.39569 C 107.82478 121.35122 107.8682 121.30684 107.88747 121.26185 C 107.90714 121.21492 107.90239 121.16943 107.87352 121.12594 C 107.85012 121.09067 107.81989 121.07091 107.78309 121.06651 C 107.74555 121.06118 107.69539 121.07013 107.63271 121.09287 L 107.45959 121.15695 C 107.3746 121.18968 107.29733 121.1983 107.22808 121.1833 C 107.16001 121.1675 107.10639 121.13045 107.06737 121.07168 C 107.03303 121.01995 107.01736 120.96539 107.01982 120.90787 C 107.02182 120.8492 107.04075 120.79172 107.07615 120.73578 C 107.11188 120.67992 107.16441 120.62889 107.23376 120.58282 C 107.2961 120.54149 107.36112 120.51274 107.42962 120.496 C 107.46816 120.48663 107.50612 120.48163 107.54279 120.48153 z M 106.15476 121.3621 C 106.24331 121.3601 106.32715 121.38331 106.40591 121.43238 C 106.48586 121.48065 106.55523 121.5522 106.61416 121.64684 C 106.67383 121.74266 106.70786 121.8375 106.71597 121.93054 C 106.7245 122.02165 106.70819 122.10618 106.66739 122.18479 C 106.62779 122.26266 106.56502 122.32848 106.47877 122.38219 C 106.39253 122.43593 106.30481 122.46398 106.21626 122.46591 C 106.1289 122.46724 106.04587 122.44438 105.96666 122.39718 C 105.88791 122.34811 105.81861 122.27541 105.75892 122.17962 C 105.69999 122.085 105.66589 121.99184 105.6566 121.89954 C 105.64853 121.80648 105.66454 121.72057 105.70414 121.6427 C 105.74494 121.56408 105.80806 121.49798 105.89431 121.44427 C 105.98055 121.39053 106.06741 121.3633 106.15476 121.3621 z M 105.04889 121.4639 L 105.14965 121.63082 L 104.96982 121.73882 L 104.86957 121.57242 L 105.04889 121.4639 z M 106.13409 121.51351 C 106.07984 121.51483 106.02544 121.53274 105.97079 121.56674 C 105.88335 121.62121 105.8329 121.69411 105.8199 121.78533 C 105.8081 121.8758 105.8368 121.97625 105.9062 122.08764 C 105.97708 122.20142 106.05508 122.2736 106.14029 122.30365 C 106.22595 122.33178 106.31401 122.31779 106.40384 122.26179 C 106.49248 122.20659 106.54235 122.13484 106.5537 122.0463 C 106.5655 121.95582 106.53569 121.85364 106.46482 121.73986 C 106.39544 121.62846 106.31766 121.55832 106.23124 121.52902 C 106.19884 121.51804 106.16664 121.51272 106.13409 121.51351 z M 105.26334 121.8613 L 105.81266 122.77338 L 105.66538 122.86175 L 105.11658 121.94966 L 105.26334 121.8613 z M 104.30836 122.45402 C 104.43529 122.45462 104.54425 122.53523 104.63547 122.69535 L 104.96672 123.27671 L 104.81737 123.36146 L 104.49078 122.78785 C 104.44191 122.70203 104.38885 122.64889 104.33213 122.62921 C 104.27473 122.60827 104.20931 122.6188 104.13576 122.66073 C 104.04994 122.7096 103.99651 122.77501 103.97505 122.8571 C 103.95358 122.93916 103.96797 123.02494 104.01897 123.11445 L 104.32076 123.64413 L 104.17194 123.7294 L 103.79263 123.06329 C 103.76816 123.02036 103.7425 122.97818 103.71563 122.93668 C 103.68923 122.89322 103.6609 122.85205 103.63037 122.81266 L 103.77196 122.73153 L 103.881 122.88914 C 103.87571 122.81908 103.88856 122.75508 103.91976 122.69639 C 103.95749 122.62293 104.01544 122.56384 104.0939 122.51914 C 104.17019 122.47568 104.24187 122.45371 104.30836 122.45402 z M 105.29642 122.82816 L 105.40752 123.01626 L 105.21942 123.12685 L 105.10883 122.93875 L 105.29642 122.82816 z M 103.24073 123.05295 C 103.25074 123.05278 103.26073 123.05286 103.2707 123.05347 C 103.34975 123.0568 103.42334 123.08442 103.49136 123.13615 C 103.56062 123.18689 103.62092 123.25977 103.67274 123.35526 L 103.68824 123.38317 L 103.00146 123.75627 C 103.06643 123.87337 103.14163 123.94817 103.22677 123.98055 C 103.31499 124.01295 103.41146 124.00091 103.51565 123.94437 C 103.57025 123.91477 103.6176 123.87755 103.65776 123.83327 C 103.69849 123.78707 103.73176 123.73311 103.75749 123.671 L 103.86705 123.75317 C 103.84698 123.81384 103.81091 123.87311 103.75852 123.93042 C 103.70739 123.98709 103.64826 124.03363 103.58127 124.06995 C 103.48453 124.12241 103.39067 124.14856 103.29912 124.14849 C 103.2088 124.14783 103.12494 124.12166 103.04746 124.07046 C 102.97054 124.01746 102.90456 123.94096 102.85005 123.8405 C 102.79759 123.74376 102.7699 123.64862 102.76737 123.55525 C 102.7647 123.46188 102.7852 123.37708 102.82887 123.30048 C 102.8736 123.22322 102.93942 123.16104 103.02627 123.11393 C 103.09899 123.0745 103.1706 123.05416 103.24073 123.05295 z M 103.23349 123.18886 C 103.18799 123.18968 103.14073 123.20369 103.0919 123.2302 C 103.00136 123.27934 102.94777 123.34984 102.93067 123.44259 C 102.91888 123.50737 102.92667 123.57798 102.95444 123.65395 L 103.49859 123.35836 C 103.45087 123.28574 103.39715 123.23654 103.33684 123.21057 C 103.30347 123.19566 103.26888 123.18823 103.23349 123.18886 z M 101.50026 123.38937 L 101.80619 123.98158 C 101.80711 123.91908 101.8228 123.86196 101.85321 123.81001 C 101.89395 123.73816 101.95437 123.68143 102.0346 123.64 C 102.26153 123.5228 102.43956 123.58893 102.56842 123.83844 L 102.87537 124.43271 L 102.72293 124.51126 L 102.4201 123.92474 C 102.37477 123.83697 102.324 123.78187 102.26818 123.75989 C 102.21171 123.73662 102.14601 123.74479 102.07077 123.78366 C 101.98301 123.82899 101.92661 123.89221 101.90179 123.97331 C 101.87699 124.05442 101.88811 124.14068 101.93538 124.23221 L 102.21547 124.77378 L 102.06302 124.85233 L 101.34782 123.46843 L 101.50026 123.38937 z M 100.98247 123.82655 L 101.13129 124.12679 L 101.40415 123.9914 L 101.46461 124.11232 L 101.19124 124.24771 L 101.44962 124.76965 C 101.47469 124.82025 101.50102 124.85572 101.52869 124.87662 C 101.55762 124.89695 101.58767 124.90675 101.6186 124.90555 C 101.64894 124.90289 101.68002 124.89357 101.71162 124.87817 C 101.73062 124.86877 101.74685 124.85929 101.76071 124.84923 C 101.77465 124.83916 101.78987 124.82614 101.80567 124.81047 L 101.87027 124.94121 C 101.85193 124.95821 101.83266 124.97355 101.81239 124.98669 C 101.79406 125.00049 101.77209 125.01343 101.74676 125.02596 C 101.65825 125.06983 101.57533 125.07968 101.49716 125.05542 C 101.42026 125.03055 101.35659 124.96746 101.30648 124.86628 L 101.03776 124.32419 L 100.85173 124.41618 L 100.79178 124.29474 L 100.97782 124.20275 L 100.85638 123.95781 L 100.98247 123.82655 z M 100.70186 124.32368 L 100.76594 124.46682 C 100.73181 124.47082 100.69562 124.48176 100.65742 124.49989 C 100.59122 124.53163 100.54458 124.57208 100.5179 124.62082 C 100.49246 124.66902 100.48145 124.7204 100.48431 124.77533 C 100.48784 124.8284 100.50137 124.87969 100.52513 124.92933 L 100.78765 125.47761 L 100.63313 125.55203 L 100.30189 124.8606 C 100.28055 124.81606 100.25808 124.77215 100.23419 124.72882 C 100.21097 124.68362 100.18541 124.64061 100.15771 124.59911 L 100.30447 124.52832 L 100.40472 124.69678 C 100.39826 124.62957 100.40978 124.5693 100.43935 124.5154 C 100.47843 124.44348 100.53503 124.38953 100.60885 124.35417 C 100.62538 124.34623 100.64119 124.34021 100.65639 124.33608 C 100.67225 124.33008 100.68726 124.32601 100.70186 124.32368 z M 99.88951 124.72624 L 100.33289 125.69465 L 100.1789 125.76493 L 100.0988 125.58975 C 100.09827 125.65129 100.08277 125.70808 100.05281 125.75977 C 100.01119 125.83158 99.946519 125.8877 99.857987 125.92823 C 99.772021 125.96756 99.686867 125.98196 99.603223 125.97216 C 99.520275 125.96049 99.44377 125.92577 99.373779 125.86777 C 99.304485 125.8079 99.246544 125.72726 99.200146 125.62592 C 99.153747 125.52456 99.13117 125.42817 99.13245 125.33602 C 99.133717 125.24387 99.156917 125.16175 99.201697 125.09004 C 99.24775 125.01775 99.313381 124.9624 99.398067 124.92364 C 99.4866 124.88311 99.571275 124.87045 99.652832 124.88592 C 99.711514 124.89705 99.764571 124.92261 99.811479 124.9624 L 99.735514 124.79703 L 99.88951 124.72624 z M 99.616142 125.00736 C 99.575087 125.00905 99.532407 125.01991 99.488501 125.03991 C 99.393553 125.08338 99.3346 125.15059 99.311251 125.24197 C 99.288598 125.33148 99.304243 125.43553 99.358276 125.55358 C 99.41231 125.67162 99.480426 125.7507 99.562398 125.79077 C 99.645653 125.83024 99.734617 125.82804 99.829565 125.78457 L 99.829565 125.78509 C 99.924513 125.74162 99.982791 125.67585 100.00475 125.5882 C 100.02612 125.49927 100.00976 125.3954 99.955139 125.27607 C 99.900519 125.15675 99.831956 125.07689 99.749984 125.03681 C 99.707118 125.01521 99.66267 125.00544 99.616142 125.00736 z M 98.58158 125.32827 C 98.60181 125.32814 98.621777 125.32943 98.641524 125.3324 C 98.719952 125.343 98.790646 125.3771 98.853914 125.4342 C 98.918481 125.4908 98.972392 125.56865 99.015662 125.6683 L 99.028581 125.69724 L 98.312345 126.00833 C 98.366852 126.13074 98.434985 126.21202 98.516984 126.25173 C 98.602036 126.29173 98.698678 126.28807 98.807406 126.24087 C 98.864359 126.21614 98.914911 126.1838 98.958818 126.1432 C 99.003458 126.10074 99.041474 126.04934 99.072506 125.98973 L 99.174308 126.08171 C 99.149015 126.14038 99.107993 126.1961 99.050802 126.24862 C 98.994902 126.30056 98.932077 126.34176 98.862183 126.37213 C 98.761221 126.416 98.665029 126.43401 98.573828 126.42587 C 98.483922 126.41721 98.402637 126.38381 98.329915 126.32614 C 98.257927 126.26661 98.19922 126.18446 98.153699 126.07964 C 98.109865 125.97868 98.090665 125.88141 98.096338 125.78819 C 98.102005 125.69496 98.129987 125.61212 98.180054 125.53962 C 98.231407 125.46656 98.302357 125.4105 98.392961 125.37116 C 98.458003 125.34291 98.520887 125.32865 98.58158 125.32827 z M 98.561943 125.46366 C 98.52567 125.46555 98.487378 125.47542 98.447738 125.4926 C 98.353248 125.5336 98.293561 125.59958 98.26842 125.69052 C 98.251057 125.75388 98.252714 125.82449 98.273588 125.90239 L 98.841512 125.6559 C 98.800328 125.57944 98.750969 125.5258 98.693201 125.49467 C 98.652132 125.47183 98.608578 125.46123 98.561943 125.46366 z M 96.547595 125.63471 L 96.915531 126.54421 L 97.198718 125.90601 L 97.400773 125.82384 L 97.097949 126.49667 L 97.846224 126.79019 L 97.637968 126.87391 L 96.939819 126.60364 L 97.132056 127.07906 L 96.972892 127.14314 L 96.388949 125.69879 L 96.547595 125.63471 z M 96.053569 126.36593 C 96.081309 126.36568 96.10886 126.36784 96.135734 126.37265 C 96.22305 126.38751 96.300779 126.42685 96.368795 126.48995 C 96.438128 126.55255 96.492699 126.63599 96.532609 126.74007 C 96.573022 126.84547 96.588321 126.94431 96.578601 127.03721 C 96.569694 127.12827 96.537986 127.20857 96.483 127.27802 C 96.429333 127.34695 96.354623 127.39978 96.259757 127.43615 C 96.164892 127.47255 96.074221 127.48312 95.986906 127.46819 C 95.900908 127.45279 95.82319 127.41472 95.754362 127.35347 C 95.686345 127.2904 95.631996 127.2062 95.591581 127.10077 C 95.551668 126.99668 95.536149 126.89808 95.544556 126.8057 C 95.554276 126.7128 95.585974 126.63227 95.63964 126.56333 C 95.69462 126.49389 95.769564 126.44054 95.864433 126.40417 C 95.929653 126.37915 95.99254 126.36647 96.053569 126.36593 z M 98.096338 126.44706 L 98.18057 126.64808 L 97.979549 126.73232 L 97.895317 126.53078 L 98.096338 126.44706 z M 96.037549 126.51372 C 95.998704 126.51416 95.958189 126.52292 95.916109 126.53905 C 95.819926 126.57591 95.756536 126.63746 95.726457 126.72456 C 95.697697 126.81116 95.706865 126.91571 95.753845 127.03824 C 95.801839 127.16341 95.865018 127.24888 95.942981 127.29456 C 96.021756 127.33842 96.110296 127.34172 96.209115 127.30386 C 96.306615 127.26646 96.369267 127.20516 96.397217 127.12041 C 96.425977 127.03381 96.416271 126.92777 96.368278 126.8026 C 96.321298 126.68006 96.258425 126.59662 96.179142 126.55145 C 96.134547 126.52606 96.087492 126.51317 96.037549 126.51372 z M 94.922371 126.78554 C 94.95589 126.78466 94.988421 126.78744 95.020557 126.79381 C 95.107579 126.81034 95.184722 126.85041 95.25155 126.91473 C 95.319705 126.9786 95.372752 127.06314 95.410714 127.16795 C 95.449154 127.27409 95.462468 127.37343 95.451021 127.46612 C 95.440415 127.55701 95.407037 127.63698 95.350769 127.70538 C 95.295829 127.7733 95.220473 127.82426 95.124943 127.85886 C 95.029415 127.89346 94.938081 127.90278 94.851058 127.88625 C 94.765362 127.86925 94.688772 127.8294 94.621098 127.76688 C 94.55427 127.70254 94.501927 127.61723 94.463485 127.51108 C 94.425525 127.40626 94.4115 127.3077 94.421627 127.21549 C 94.43308 127.1228 94.466422 127.04261 94.521362 126.97468 C 94.577629 126.90627 94.653209 126.85476 94.748739 126.82017 C 94.808443 126.79854 94.866507 126.78701 94.922371 126.78554 z M 93.164856 126.87804 L 93.384481 127.52142 C 93.390949 127.45936 93.412288 127.40346 93.448043 127.35398 C 93.496209 127.28537 93.56548 127.23561 93.656299 127.20464 C 93.745783 127.17411 93.831259 127.16914 93.912614 127.18914 C 93.993968 127.20907 94.066357 127.25151 94.130172 127.31626 C 94.195318 127.38053 94.246114 127.46501 94.2821 127.57051 C 94.31808 127.67602 94.330191 127.77585 94.318791 127.8692 C 94.308271 127.96075 94.276793 128.04013 94.223706 128.10743 C 94.171499 128.17296 94.101011 128.22053 94.012866 128.25057 C 93.922047 128.28157 93.837179 128.28554 93.757585 128.26194 C 93.69902 128.24462 93.647924 128.21279 93.604622 128.16685 L 93.667668 128.35289 L 93.505404 128.40818 L 93.002592 126.93334 L 93.164856 126.87804 z M 94.911519 126.93282 C 94.875214 126.93359 94.837178 126.94129 94.797831 126.95556 C 94.700977 126.99062 94.636776 127.05144 94.605078 127.13798 C 94.574705 127.22402 94.582089 127.32878 94.626782 127.45217 C 94.672436 127.57822 94.733656 127.66447 94.81075 127.71158 C 94.888694 127.75692 94.977375 127.7616 95.076884 127.72554 C 95.175065 127.69 95.239079 127.63048 95.268604 127.54622 C 95.298977 127.46018 95.291002 127.35394 95.245349 127.22789 C 95.200662 127.10451 95.139291 127.01925 95.060864 126.97261 C 95.0143 126.9449 94.964581 126.93169 94.911519 126.93282 z M 93.794792 127.33073 C 93.755958 127.3297 93.71549 127.33687 93.672835 127.3514 C 93.572667 127.38553 93.507692 127.44539 93.477498 127.53175 C 93.446852 127.61675 93.452135 127.721 93.494035 127.84388 C 93.536395 127.96809 93.596183 128.05495 93.672835 128.10484 C 93.749033 128.15338 93.83725 128.16068 93.937419 128.12655 C 94.034916 128.09328 94.099159 128.03349 94.130688 127.94671 C 94.161762 127.85859 94.155995 127.75208 94.113635 127.62787 C 94.072189 127.50633 94.012887 127.42173 93.935352 127.37362 C 93.891739 127.34658 93.844721 127.33205 93.794792 127.33073 z M 92.379891 127.67799 L 92.446554 127.8878 L 92.238814 127.95395 L 92.172152 127.74414 L 92.379891 127.67799 z M 91.662105 127.87023 C 91.830504 127.86663 91.947492 127.97185 92.012472 128.18597 L 92.206775 128.82625 L 92.042444 128.87585 L 91.850724 128.24385 C 91.822038 128.14933 91.78227 128.08645 91.731352 128.05472 C 91.680018 128.02165 91.61393 128.01726 91.532914 128.0418 C 91.438392 128.07046 91.371502 128.12257 91.33241 128.19786 C 91.293316 128.27313 91.288544 128.35974 91.318457 128.45831 L 91.495707 129.04174 L 91.331376 129.09135 L 91.109167 128.35857 C 91.094827 128.31131 91.079189 128.26445 91.062142 128.21801 C 91.046042 128.16981 91.027425 128.12267 91.006331 128.07745 L 91.162394 128.03043 L 91.233708 128.20819 C 91.244057 128.1387 91.270865 128.07869 91.314323 128.02836 C 91.367376 127.96509 91.437193 127.92025 91.523612 127.894 C 91.573257 127.87894 91.61918 127.87115 91.662105 127.87023 z M 90.451843 128.23352 C 90.491291 128.23389 90.529691 128.23942 90.566565 128.24954 C 90.652206 128.27214 90.725619 128.31809 90.78774 128.387 C 90.85122 128.45551 90.898347 128.54331 90.928817 128.65055 C 90.95967 128.75914 90.966414 128.85913 90.948454 128.95079 C 90.93146 129.0407 90.892103 129.11751 90.831148 129.18178 C 90.771548 129.24565 90.693233 129.29198 90.595504 129.31976 L 90.595504 129.31924 C 90.497773 129.34704 90.405709 129.34946 90.320068 129.32699 C 90.235784 129.30399 90.162502 129.25875 90.09941 129.1916 C 90.03729 129.1227 89.990741 129.03406 89.959884 128.92546 C 89.92941 128.81823 89.92209 128.71907 89.938696 128.62781 C 89.956663 128.53615 89.995889 128.45863 90.055485 128.39475 C 90.116438 128.33048 90.195464 128.28402 90.293197 128.25625 C 90.34817 128.24062 90.401124 128.23304 90.451843 128.23352 z M 88.480387 128.30586 L 88.528446 128.49448 L 88.325875 128.54616 L 88.277299 128.35754 L 88.480387 128.30586 z M 90.430656 128.37976 C 90.399448 128.37995 90.366532 128.38508 90.332471 128.39475 C 90.233382 128.42288 90.165039 128.47912 90.127315 128.56321 C 90.090949 128.64689 90.090928 128.75168 90.126799 128.87792 C 90.163438 129.00687 90.21858 129.0973 90.292163 129.14974 C 90.366715 129.20047 90.454943 129.21175 90.556746 129.18281 C 90.657192 129.15428 90.724956 129.09888 90.760352 129.01693 C 90.796718 128.93325 90.796477 128.82704 90.759835 128.69809 C 90.723962 128.57185 90.668889 128.48246 90.593953 128.4304 C 90.544775 128.39623 90.490234 128.37939 90.430656 128.37976 z M 92.628971 128.46296 L 92.695117 128.6707 L 92.487378 128.73633 L 92.421232 128.52859 L 92.628971 128.46296 z M 89.44467 128.50688 C 89.471001 128.50601 89.497249 128.50721 89.523735 128.50999 C 89.595362 128.51599 89.658295 128.53403 89.711837 128.56476 L 89.689099 128.70222 C 89.628106 128.67616 89.570677 128.66016 89.5165 128.65416 C 89.463327 128.64643 89.410699 128.64973 89.358887 128.66346 C 89.255265 128.69113 89.182067 128.7476 89.139262 128.83348 C 89.097822 128.91902 89.094066 129.02501 89.127893 129.15181 C 89.161353 129.27724 89.217146 129.36629 89.295325 129.41846 C 89.373501 129.47059 89.465259 129.48263 89.570243 129.45463 C 89.62069 129.44116 89.667845 129.4181 89.711837 129.3859 C 89.755463 129.35237 89.796994 129.30921 89.836894 129.25619 L 89.92526 129.3642 C 89.89254 129.41673 89.845993 129.46445 89.785734 129.50682 C 89.726474 129.54749 89.661298 129.57684 89.590397 129.59571 L 89.590397 129.59674 C 89.489503 129.62367 89.396608 129.62462 89.311344 129.60036 C 89.22608 129.57636 89.152168 129.53054 89.090169 129.46238 C 89.029536 129.39385 88.985063 129.30551 88.956327 129.1978 C 88.927954 129.09145 88.923445 128.99305 88.942891 128.90169 C 88.961971 128.80898 89.002895 128.73001 89.065881 128.66501 C 89.128868 128.60001 89.211672 128.5538 89.313928 128.52652 C 89.357388 128.51494 89.400783 128.50834 89.44467 128.50688 z M 88.571338 128.7477 L 88.834371 129.77968 L 88.66849 129.82205 L 88.405457 128.79007 L 88.571338 128.7477 z M 87.304232 129.04484 C 87.489716 129.03945 87.609422 129.15207 87.663383 129.3828 L 87.815828 130.03392 L 87.648914 130.0732 L 87.498018 129.43034 C 87.475525 129.33416 87.440325 129.26843 87.391565 129.23346 C 87.342485 129.19712 87.276601 129.18835 87.194161 129.20762 C 87.097979 129.23008 87.027729 129.27763 86.983838 129.35024 C 86.939951 129.42282 86.929889 129.50936 86.953349 129.60966 L 87.092358 130.20342 L 86.925444 130.24218 L 86.750777 129.49597 C 86.739531 129.44791 86.727053 129.4003 86.713053 129.35283 C 86.700107 129.30369 86.684658 129.25618 86.666545 129.20968 L 86.825191 129.17248 L 86.884619 129.35386 C 86.899507 129.28541 86.930112 129.22752 86.976603 129.18023 C 87.03365 129.1205 87.106226 129.08037 87.194161 129.05982 C 87.23302 129.05073 87.269883 129.04583 87.304232 129.04484 z M 85.071293 129.09083 L 85.11005 129.28151 L 84.904895 129.32337 L 84.866138 129.13217 L 85.071293 129.09083 z M 86.380257 129.27376 L 86.602983 130.30626 C 86.636583 130.46213 86.621594 130.58814 86.558541 130.68401 C 86.496868 130.77959 86.389029 130.84398 86.23453 130.87728 C 86.077276 130.91122 85.932816 130.90445 85.801481 130.85765 L 85.800964 130.71502 C 85.873826 130.73829 85.940999 130.75178 86.002502 130.75584 C 86.064009 130.75984 86.13145 130.75446 86.204557 130.73879 C 86.303875 130.71739 86.373372 130.67389 86.412813 130.60908 C 86.453933 130.54535 86.462802 130.46121 86.440202 130.35638 L 86.386975 130.10782 C 86.378837 130.1421 86.366005 130.17441 86.349251 130.20497 C 86.323391 130.25244 86.28753 130.29286 86.241248 130.3259 C 86.194968 130.35896 86.139167 130.38218 86.074333 130.39618 C 85.981911 130.41611 85.896037 130.41241 85.816467 130.38481 C 85.737981 130.35554 85.670552 130.30668 85.613896 130.23805 C 85.558622 130.16913 85.51993 130.08312 85.497624 129.97966 C 85.475324 129.8762 85.475139 129.78153 85.497107 129.69596 C 85.52046 129.61009 85.561897 129.5381 85.621647 129.48047 C 85.68248 129.42114 85.759185 129.38151 85.851607 129.36161 C 85.948166 129.34081 86.034402 129.34777 86.111023 129.38177 C 86.167268 129.40517 86.214103 129.44115 86.251583 129.48977 L 86.212826 129.30994 L 86.380257 129.27376 z M 85.987516 129.48615 C 85.96419 129.48677 85.939827 129.49002 85.914653 129.49545 C 85.812575 129.51745 85.739255 129.56855 85.694511 129.64893 C 85.650851 129.72763 85.641849 129.82572 85.667122 129.94297 C 85.692696 130.06161 85.741673 130.14764 85.813883 130.20135 C 85.887472 130.25475 85.975356 130.27038 86.077433 130.24838 C 86.178131 130.22665 86.249608 130.1769 86.29189 130.09852 C 86.335257 130.01844 86.344042 129.91967 86.318762 129.80241 C 86.293489 129.68517 86.244731 129.59982 86.172518 129.5461 C 86.119172 129.50455 86.057495 129.48432 85.987516 129.48615 z M 82.44458 129.53525 L 82.690043 131.07365 L 82.523128 131.10052 L 82.492639 130.91036 C 82.475645 130.96943 82.4459 131.02003 82.403239 131.06177 C 82.343906 131.11983 82.265811 131.15652 82.169661 131.17184 C 82.077691 131.18651 81.993078 131.1772 81.914897 131.14393 C 81.837887 131.10907 81.773242 131.05353 81.72111 130.97753 C 81.668757 130.90015 81.633766 130.8065 81.616207 130.69642 C 81.598647 130.58633 81.602326 130.48765 81.627059 130.40083 C 81.653186 130.31378 81.697305 130.24259 81.759867 130.18689 C 81.823821 130.13095 81.902661 130.09532 81.996029 130.08043 C 82.09218 130.0651 82.17716 130.07641 82.251827 130.11454 C 82.303904 130.14023 82.347035 130.17751 82.381018 130.22564 L 82.275598 129.56212 L 82.44458 129.53525 z M 85.140023 129.5368 L 85.351896 130.58014 L 85.183948 130.61425 L 84.972074 129.5709 L 85.140023 129.5368 z M 84.427922 129.66082 C 84.463698 129.65999 84.499032 129.66217 84.533858 129.66754 C 84.603512 129.6786 84.664974 129.70195 84.717826 129.73782 L 84.68527 129.87166 C 84.627404 129.83966 84.570086 129.81898 84.513704 129.80965 C 84.458438 129.79871 84.402573 129.79825 84.345756 129.80913 C 84.27092 129.82346 84.215353 129.84958 84.179358 129.88665 C 84.144751 129.92345 84.132067 129.96645 84.141634 130.01635 C 84.149874 130.05935 84.168752 130.0913 84.198478 130.11144 C 84.229591 130.1313 84.274907 130.14254 84.334387 130.14554 L 84.519389 130.15536 C 84.621771 130.15736 84.700514 130.17822 84.75555 130.21789 C 84.811703 130.25596 84.846881 130.31186 84.86097 130.38532 C 84.878243 130.4754 84.85532 130.55438 84.79224 130.62252 C 84.729154 130.69065 84.634648 130.73682 84.508537 130.76101 L 84.508537 130.76204 C 84.332534 130.79578 84.184466 130.77715 84.064636 130.70675 L 84.097192 130.57136 C 84.160866 130.60369 84.223619 130.6248 84.285811 130.6344 C 84.349125 130.6424 84.416835 130.63962 84.4889 130.62562 C 84.567893 130.61049 84.624809 130.58579 84.659949 130.55172 C 84.696209 130.51605 84.709573 130.47228 84.69974 130.42098 C 84.691766 130.37938 84.671511 130.34978 84.639278 130.33158 C 84.606778 130.31198 84.557641 130.30054 84.490967 130.29747 L 84.305965 130.2892 C 84.214935 130.28654 84.140279 130.26521 84.082206 130.22461 C 84.02552 130.18374 83.990593 130.12852 83.977303 130.05924 C 83.96561 129.99824 83.971937 129.94183 83.996423 129.88975 C 84.020643 129.83628 84.060217 129.7906 84.114762 129.7528 C 84.169302 129.71507 84.237634 129.68844 84.319401 129.67271 C 84.356126 129.66567 84.392146 129.66165 84.427922 129.66082 z M 80.672595 129.80551 L 80.888086 131.34857 L 80.718587 131.37234 L 80.503097 129.82928 L 80.672595 129.80551 z M 83.36287 129.85926 C 83.416597 129.85987 83.466964 129.86949 83.513249 129.8882 C 83.587059 129.91673 83.647964 129.96619 83.696183 130.03651 C 83.74579 130.10657 83.780149 130.19512 83.799019 130.30212 L 83.804187 130.33365 L 83.035242 130.46904 C 83.059725 130.6009 83.107331 130.69603 83.177869 130.75378 C 83.251267 130.81251 83.34639 130.83122 83.463123 130.81062 C 83.524269 130.79982 83.580466 130.77994 83.632621 130.75068 C 83.685921 130.71981 83.734798 130.67898 83.778866 130.6282 L 83.856897 130.74137 C 83.818637 130.79257 83.765589 130.83698 83.697734 130.8747 C 83.631274 130.91223 83.560388 130.93746 83.485343 130.95066 C 83.376949 130.9698 83.279663 130.96481 83.192855 130.93568 C 83.107437 130.90634 83.03569 130.85523 82.978398 130.7822 C 82.922251 130.70756 82.884559 130.61415 82.864709 130.5016 C 82.845596 130.3932 82.849362 130.29432 82.876595 130.20497 C 82.903828 130.11563 82.950555 130.04161 83.016121 129.98276 C 83.083077 129.9237 83.164824 129.88522 83.262101 129.86804 C 83.297017 129.86189 83.330634 129.85889 83.36287 129.85926 z M 83.348918 129.9931 C 83.329348 129.99332 83.308702 129.99555 83.287423 129.9993 C 83.185976 130.01717 83.112388 130.0671 83.066764 130.14968 C 83.035099 130.20729 83.02066 130.27673 83.022839 130.35742 L 83.632621 130.24993 C 83.610382 130.16585 83.574632 130.10199 83.525651 130.05821 C 83.477568 130.0141 83.418808 129.99229 83.348918 129.9931 z M 77.94408 130.18017 L 77.963717 130.37395 L 77.755461 130.39514 L 77.735824 130.20135 L 77.94408 130.18017 z M 77.432483 130.18792 L 77.578727 131.73925 L 77.408195 131.75527 L 77.261951 130.20446 L 77.432483 130.18792 z M 82.108167 130.21221 C 82.090099 130.21253 82.071174 130.21429 82.051839 130.21737 C 81.94872 130.23384 81.873426 130.28153 81.826013 130.36052 C 81.779993 130.4393 81.767029 130.54222 81.787256 130.66903 C 81.807929 130.79862 81.852926 130.89506 81.921615 130.95841 C 81.991477 131.02015 82.077912 131.04258 82.18103 131.02611 C 82.282756 131.00991 82.356028 130.96259 82.400655 130.884 C 82.446455 130.80382 82.459052 130.69889 82.438379 130.56929 C 82.417932 130.44109 82.373976 130.34689 82.307121 130.2861 C 82.252622 130.23557 82.186459 130.21081 82.108167 130.21221 z M 80.25505 130.36259 L 80.389925 131.41833 L 80.221977 131.44004 L 80.197689 131.2478 C 80.178878 131.30663 80.147765 131.3566 80.103638 131.39715 C 80.042518 131.45328 79.963545 131.48764 79.86696 131.49998 C 79.773174 131.51192 79.687566 131.50066 79.610645 131.46639 C 79.534944 131.43053 79.472606 131.37464 79.423059 131.29845 C 79.374732 131.22068 79.343625 131.12636 79.329525 131.01578 C 79.315425 130.90519 79.322569 130.80622 79.351229 130.71864 C 79.379889 130.63106 79.426138 130.55982 79.490238 130.5047 C 79.555738 130.44943 79.634533 130.41574 79.726917 130.40393 C 79.823501 130.39159 79.908423 130.40517 79.981681 130.44423 C 80.034376 130.47229 80.077434 130.51218 80.110356 130.56412 L 80.087101 130.38377 L 80.25505 130.36259 z M 78.802425 130.51761 C 78.855544 130.51646 78.907974 130.52282 78.959521 130.53622 C 79.029499 130.55255 79.088444 130.57978 79.136772 130.61838 L 79.09388 130.75119 C 79.037454 130.71633 78.983263 130.69181 78.930583 130.67781 C 78.879149 130.66228 78.826777 130.65741 78.773486 130.66334 C 78.666904 130.67521 78.58573 130.72013 78.530607 130.79873 C 78.476887 130.87715 78.457653 130.98199 78.472213 131.11241 C 78.486619 131.24144 78.528255 131.33754 78.597786 131.40076 C 78.66732 131.46403 78.756452 131.48931 78.864437 131.47725 C 78.916323 131.47125 78.966002 131.4558 79.014299 131.43074 C 79.062438 131.40407 79.110612 131.36765 79.157959 131.32118 L 79.228756 131.44107 C 79.188576 131.48814 79.135492 131.52804 79.069592 131.56096 C 79.004939 131.5923 78.936329 131.61226 78.863403 131.62039 C 78.759626 131.63199 78.667158 131.61965 78.586418 131.58318 C 78.505678 131.54678 78.43965 131.49035 78.388497 131.41368 C 78.338744 131.33689 78.307846 131.24284 78.295479 131.13205 C 78.283266 131.02266 78.293652 130.92442 78.326485 130.83698 C 78.359165 130.74814 78.411102 130.67585 78.483065 130.62097 C 78.55503 130.5661 78.644019 130.53303 78.749198 130.52123 C 78.767079 130.51923 78.784719 130.518 78.802425 130.51761 z M 79.816317 130.53932 C 79.804126 130.53977 79.791883 130.54079 79.77911 130.54242 C 79.675526 130.55562 79.598658 130.60269 79.54915 130.68298 C 79.500863 130.76169 79.485187 130.86529 79.501607 130.99407 C 79.518027 131.12285 79.559313 131.21872 79.625631 131.28139 C 79.693346 131.34386 79.778879 131.36849 79.882463 131.35529 C 79.986046 131.34209 80.061223 131.29652 80.108289 131.21938 C 80.155175 131.14085 80.170364 131.03692 80.153764 130.90674 C 80.137164 130.77656 80.096056 130.68002 80.02974 130.61735 C 79.972941 130.56234 79.901653 130.53619 79.816317 130.53932 z M 77.968368 130.63079 L 78.075338 131.69015 L 77.904806 131.70721 L 77.797835 130.64784 L 77.968368 130.63079 z M 76.746737 130.72019 C 76.809105 130.71776 76.869988 130.7256 76.929671 130.74292 C 76.999169 130.76119 77.057614 130.79032 77.104854 130.83026 L 77.058346 130.96152 C 77.002906 130.92512 76.949387 130.89895 76.897115 130.88348 C 76.846135 130.86648 76.793457 130.86035 76.740019 130.86488 C 76.633148 130.87381 76.551316 130.91653 76.494039 130.99355 C 76.438166 131.07045 76.415913 131.17438 76.42686 131.30516 C 76.437686 131.43453 76.476926 131.532 76.544682 131.59714 C 76.612438 131.66227 76.700471 131.69043 76.808748 131.68137 C 76.860775 131.6767 76.911182 131.66259 76.96016 131.63899 C 77.00902 131.61366 77.05779 131.57818 77.106405 131.53306 L 77.173584 131.65501 C 77.132117 131.70095 77.078107 131.73916 77.01132 131.77025 C 76.94582 131.79978 76.8767 131.81786 76.803581 131.82399 C 76.699522 131.83273 76.607329 131.8177 76.527629 131.77904 C 76.447928 131.74037 76.383887 131.68186 76.334875 131.60385 C 76.287269 131.52571 76.258903 131.43124 76.249609 131.32015 C 76.240429 131.21046 76.25312 131.11209 76.288367 131.02559 C 76.323493 130.93769 76.378208 130.86763 76.451664 130.81475 C 76.525121 130.76189 76.6144 130.73112 76.719865 130.72225 C 76.728829 130.7215 76.737827 130.72053 76.746737 130.72019 z " /><path
         d="M 82.857965,70.625698 C 80.395565,67.853498 72.1901,59.6527 63.3131,61.7525 c 9.4571,2.9151 13.860517,7.603407 16.366517,13.894407 0.959687,-2.025455 1.661198,-3.860967 3.178348,-5.021209 z"
         stroke-linecap="round"
         stroke-width="0.11732"
         id="path55531"
         sodipodi:nodetypes="cccc" /><path
         style="opacity:0.92;fill:none;stroke:none;stroke-width:0.105833;stroke-linecap:round"
         d="m 75.703707,131.32601 c 10.241737,-0.79224 45.749483,-5.57406 54.815043,-45.521424"
         id="path55775"
         sodipodi:nodetypes="cc" /><g
         aria-label="cc BY ND | cyclical design icon: book.earthen.io/spiral"
         transform="translate(0.52916667,0.52916667)"
         id="text56005"
         style="font-size:2.11667px;font-family:Mulish;-inkscape-font-specification:Mulish;text-align:center;text-anchor:middle;opacity:0.92;fill:none;stroke-width:0.105833;stroke-linecap:round"><path
           d="m -50.702577,0.01481669 q -0.156634,0 -0.270934,-0.06773344 -0.1143,-0.06773343 -0.1778,-0.19050029 -0.06138,-0.12276685 -0.06138,-0.28998377 0,-0.16510025 0.0635,-0.28998378 0.0635,-0.12700019 0.179917,-0.19685031 0.116417,-0.06985 0.275167,-0.06985 0.10795,0 0.207434,0.0381 0.1016,0.035983 0.167217,0.10160012 l -0.05715,0.12700019 q -0.07832,-0.0613834 -0.154517,-0.0910168 -0.07408,-0.03175 -0.154517,-0.03175 -0.160867,0 -0.256117,0.10795016 -0.09313,0.10795017 -0.09313,0.30480047 0,0.19473363 0.09313,0.30056712 0.09313,0.1058335 0.256117,0.1058335 0.07832,0 0.154517,-0.0296334 0.0762,-0.0317501 0.154517,-0.0931335 l 0.05715,0.1270002 q -0.06773,0.06350009 -0.17145,0.10160015 -0.101601,0.03598339 -0.211667,0.03598339 z"
           style="text-align:end;text-anchor:end;fill:#ffffff"
           id="path56418" /><path
           d="m -49.654828,0.01481669 q -0.156634,0 -0.270934,-0.06773344 -0.1143,-0.06773343 -0.1778,-0.19050029 -0.06138,-0.12276685 -0.06138,-0.28998377 0,-0.16510025 0.0635,-0.28998378 0.0635,-0.12700019 0.179917,-0.19685031 0.116417,-0.06985 0.275168,-0.06985 0.10795,0 0.207433,0.0381 0.1016,0.035983 0.167217,0.10160012 l -0.05715,0.12700019 q -0.07832,-0.0613834 -0.154517,-0.0910168 -0.07408,-0.03175 -0.154517,-0.03175 -0.160867,0 -0.256117,0.10795016 -0.09313,0.10795017 -0.09313,0.30480047 0,0.19473363 0.09313,0.30056712 0.09313,0.1058335 0.256117,0.1058335 0.07832,0 0.154517,-0.0296334 0.0762,-0.0317501 0.154517,-0.0931335 l 0.05715,0.1270002 q -0.06773,0.06350009 -0.17145,0.10160015 -0.1016,0.03598339 -0.211667,0.03598339 z"
           style="text-align:end;text-anchor:end;fill:#ffffff"
           id="path56420" /><path
           d="m -48.480079,0 v -1.507069 h 0.605367 q 0.228601,0 0.357717,0.1037169 0.129117,0.1016001 0.129117,0.2899837 0,0.13123357 -0.07197,0.22225037 -0.06985,0.0889001 -0.194734,0.1270002 v -0.0169334 q 0.141817,0.0275167 0.22225,0.12488352 0.08043,0.0973668 0.08043,0.24553371 0,0.19896697 -0.131234,0.30480047 Q -47.614361,0 -47.853545,0 Z m 0.17145,-0.14393355 h 0.440267 q 0.177801,0 0.260351,-0.0656168 0.08467,-0.0656168 0.08467,-0.20531698 0,-0.13758354 -0.08467,-0.20743365 -0.08467,-0.0698501 -0.260351,-0.0698501 h -0.440267 z m 0,-0.69426773 h 0.406401 q 0.17145,0 0.256117,-0.0677334 0.08678,-0.0677334 0.08678,-0.19896699 0,-0.1291168 -0.08467,-0.1926169 -0.08467,-0.065617 -0.258233,-0.065617 h -0.406401 z"
           style="text-align:end;text-anchor:end;fill:#ffffff"
           id="path56422" /><path
           d="m -46.699965,0 v -0.67733437 l 0.0381,0.12276686 -0.630767,-0.95250149 h 0.2032 l 0.508001,0.78740124 h -0.05927 l 0.508001,-0.78740124 h 0.198967 l -0.628651,0.95250149 0.03598,-0.12276686 V 0 Z"
           style="text-align:end;text-anchor:end;fill:#ffffff"
           id="path56424" /><path
           d="m -45.230999,0 v -1.507069 h 0.13335 l 0.960968,1.28058532 -0.0508,0.0127 V -1.507069 h 0.1651 V 0 h -0.135467 l -0.958851,-1.2784686 0.04868,-0.014817 V 0 Z"
           style="text-align:end;text-anchor:end;fill:#ffffff"
           id="path56426" /><path
           d="m -43.651967,0 v -1.507069 h 0.505884 q 0.2413,0 0.410634,0.0889 0.169333,0.086783 0.258234,0.256117 0.0889,0.16721695 0.0889,0.40640065 0,0.24130037 -0.09102,0.41063396 -0.0889,0.16721692 -0.258234,0.25611705 Q -42.906899,0 -43.146083,0 Z m 0.173567,-0.14816689 h 0.321734 q 0.2921,0 0.43815,-0.15240023 0.148167,-0.15240024 0.148167,-0.45508403 0,-0.60325095 -0.586317,-0.60325095 H -43.4784 Z"
           style="text-align:end;text-anchor:end;fill:#ffffff"
           id="path56428" /><path
           d="M -41.509901,0.38523392 V -1.507069 h 0.1651 v 1.89230292 z"
           style="text-align:end;text-anchor:end;fill:#ffffff"
           id="path56430" /><path
           d="m -39.983784,0.01481669 q -0.156633,0 -0.270933,-0.06773344 -0.114301,-0.06773343 -0.177801,-0.19050029 -0.06138,-0.12276685 -0.06138,-0.28998377 0,-0.16510025 0.0635,-0.28998378 0.0635,-0.12700019 0.179917,-0.19685031 0.116417,-0.06985 0.275167,-0.06985 0.10795,0 0.207434,0.0381 0.1016,0.035983 0.167217,0.10160012 l -0.05715,0.12700019 q -0.07832,-0.0613834 -0.154517,-0.0910168 -0.07408,-0.03175 -0.154517,-0.03175 -0.160867,0 -0.256117,0.10795016 -0.09313,0.10795017 -0.09313,0.30480047 0,0.19473363 0.09313,0.30056712 0.09313,0.1058335 0.256117,0.1058335 0.07832,0 0.154517,-0.0296334 0.0762,-0.0317501 0.154517,-0.0931335 l 0.05715,0.1270002 q -0.06773,0.06350009 -0.171451,0.10160015 -0.1016,0.03598339 -0.211667,0.03598339 z"
           style="text-align:end;text-anchor:end;fill:#ffffff"
           id="path56432" /><path
           d="m -39.433451,0.48048407 -0.03598,-0.13335021 q 0.09737,-0.0232834 0.162984,-0.0550334 0.06773,-0.0296334 0.112183,-0.0783168 0.04657,-0.0486834 0.08043,-0.12911686 l 0.06773,-0.15663358 0.0381,-0.05291674 0.389467,-0.93980148 h 0.171451 l -0.497418,1.16205182 q -0.05715,0.12911686 -0.129117,0.20531697 -0.07197,0.0783168 -0.162983,0.11853352 -0.0889,0.0402167 -0.19685,0.0592668 z m 0.389467,-0.42545065 -0.478368,-1.11971842 h 0.179917 l 0.385234,0.93980148 z"
           style="text-align:end;text-anchor:end;fill:#ffffff"
           id="path56434" /></g></g></g></svg>
