<?xml version="1.0" encoding="UTF-8" standalone="no"?>
<svg
   width="138.92mm"
   height="138.92mm"
   version="1.1"
   viewBox="0 0 138.92 138.92"
   id="svg3856"
   sodipodi:docname="cyclical-design-white.svg"
   inkscape:version="1.2.2 (b0a8486541, 2022-12-01)"
   xmlns:inkscape="http://www.inkscape.org/namespaces/inkscape"
   xmlns:sodipodi="http://sodipodi.sourceforge.net/DTD/sodipodi-0.dtd"
   xmlns="http://www.w3.org/2000/svg"
   xmlns:svg="http://www.w3.org/2000/svg"
   xmlns:rdf="http://www.w3.org/1999/02/22-rdf-syntax-ns#"
   xmlns:cc="http://creativecommons.org/ns#"
   xmlns:dc="http://purl.org/dc/elements/1.1/">
  <defs
     id="defs3860" />
  <sodipodi:namedview
     id="namedview3858"
     pagecolor="#ffffff"
     bordercolor="#000000"
     borderopacity="0.25"
     inkscape:showpageshadow="2"
     inkscape:pageopacity="0.0"
     inkscape:pagecheckerboard="0"
     inkscape:deskcolor="#d1d1d1"
     inkscape:document-units="mm"
     showgrid="false"
     inkscape:zoom="0.44947932"
     inkscape:cx="139.04978"
     inkscape:cy="262.52598"
     inkscape:window-width="1503"
     inkscape:window-height="934"
     inkscape:window-x="0"
     inkscape:window-y="0"
     inkscape:window-maximized="1"
     inkscape:current-layer="svg3856" />
  <metadata
     id="metadata3850">
    <rdf:RDF>
      <cc:Work
         rdf:about="">
        <dc:format>image/svg+xml</dc:format>
        <dc:type
           rdf:resource="http://purl.org/dc/dcmitype/StillImage" />
      </cc:Work>
    </rdf:RDF>
  </metadata>
  <g
     transform="translate(-44.239 -65.104)"
     id="g3854"
     style="fill:#ffffff">
    <path
       d="m87.986 190.48c-11.684-1.1234-23.507-10.093-29.695-22.524-3.007-6.0417-4.3006-11.287-4.4783-18.157-0.116-4.167 0.04555-6.1815 0.67955-9.6876l0.38066-2.0625 1.2355 1.0388c2.982 2.5042 6.943 3.8908 17.42 6.0993 11.946 2.5178 17.831 4.5928 22.989 8.1042 5.8172 3.9608 9.722 9.8594 11.324 17.107 0.53032 2.4033 0.5817 2.2757-1.0206 2.5632-1.7729 0.31811-8.0257 0.33483-10.418 3e-3 -6.0442-0.78705-11.917-2.4003-16.021-4.3956-0.91087-0.43837-1.6933-0.77132-1.7378-0.72428-0.0459 0.0495 0.54658 0.712 1.3105 1.4844 3.6993 3.7347 9.9164 6.4369 17.512 7.6116 3.0089 0.46445 9.6553 0.47413 12.413 0.0142 7.2625-1.2095 14.041-4.0397 19.75-8.2356 1.0277-0.75406 1.343-0.90988 1.4762-0.72147 1.0675 1.5269 1.273 3.9649 0.47182 5.676-0.66567 1.4151-1.5533 2.1868-4.1478 3.5978-6.163 3.3501-13.327 5.5188-20.03 6.0624l-1.4179 0.0932-1.5066 1.4467c-2.8162 2.7001-5.7618 4.3232-9.3661 5.1603-1.0208 0.23414-4.7123 0.64835-5.3519 0.59163-0.16368-0.0142-0.94105-0.0598-1.766-0.17008zm55.274-0.64604c0.16225-0.59294 0.27327-1.5608 0.27327-3.2365-6.4e-4 -3.6298-0.61195-6.2762-3.5108-15.25-3.3081-10.23-4.3973-15.034-4.6423-20.481-0.30565-6.6952 1.5159-12.814 5.3278-17.93 1.0254-1.3764 3.4999-4.0065 4.7717-5.0713l0.84316-0.71005 0.62373 0.68165c0.3455 0.37561 1.1632 1.4816 1.822 2.4561 4.0786 6.0381 7.5155 16.046 7.9469 23.141 0.0473 1.0804 0.16404 1.9011 0.25798 1.8265 0.3085-0.31419 1.0418-3.3156 1.2262-5.0417 0.81527-7.4216-2.6898-18.316-8.244-25.613-4.2529-5.5872-9.7055-10.047-16.186-13.237-1.586-0.77765-2.8818-1.4961-2.8818-1.5912 2e-3 -0.38579 1.1257-1.7657 1.8334-2.2541 1.85-1.2759 3.9724-1.4113 6.034-0.40159 1.5135 0.73965 5.6522 3.5066 7.4802 4.9892 3.3252 2.6981 7.11 6.7385 9.5901 10.237 0.682 0.96631 1.2917 1.6458 1.4645 1.6457 0.16332-1.4e-4 1.0042 0.15657 1.8662 0.45396 3.6279 1.0534 7.0962 3.3375 9.5392 6.2854 2.5 3.0168 4.2464 6.8427 5.2122 11.417 0.5605 2.6515 0.77776 8.2941 0.43902 11.289-1.4786 13.002-8.7623 24.817-19.696 31.951-2.282 1.4895-6.5029 3.5842-9.1762 4.5556-2.5854 0.93756-2.5635 0.94699-2.219-0.09zm-62.42-52.902c-1.642-0.38884-3.1129-1.5659-3.8675-3.1012-0.37845-0.76562-0.43684-1.1626-0.49289-3.265-0.16404-6.6703 1.4318-14.289 4.4463-21.07l0.90397-2.0335-0.49524-1.8816c-0.59807-2.2779-0.78957-5.5604-0.45556-7.8463 0.63073-4.3267 2.8893-8.6385 6.4669-12.356 5.7305-5.9538 13.671-9.7582 23.243-11.136 2.5997-0.37646 8.447-0.42379 10.906-0.05907 9.5184 1.2885 17.719 5.0685 24.617 11.344l0.59099 0.54057-0.76619 0.15727c-2.0695 0.56163-4.2081 1.849-6.8937 4.1762-2.0064 1.7345-3.0185 2.7885-8.4292 8.7614-7.8836 8.7025-12.179 12.38-17.608 15.073-2.1301 1.053-4.5204 1.9145-6.6702 2.3967-1.9598 0.43578-6.8645 0.54263-9.2335 0.15728-1.8803-0.28039-5.9129-1.3158-6.6641-1.7199-0.42507-0.23805-0.3808-0.48506 0.40169-2.4685 2.5009-6.3011 10.271-15.546 16.7-19.869l1.6326-1.0971-0.94848 0.08682c-0.52068 0.05622-1.6934 0.38301-2.6067 0.7109-4.008 1.4337-8.0277 4.314-11.73 8.4075-5.1194 5.661-8.1856 11.304-9.9879 18.38-1.0557 4.1509-1.3009 6.1412-1.3149 10.728-0.0036 2.1964 0.04697 4.688 0.14055 5.5412l0.16368 1.5496-0.67496-0.0142c-0.37127-0.0107-0.97375-0.0591-1.3428-0.15122z"
       fill="#008000"
       id="path3852"
       style="fill:#ffffff" />
  </g>
</svg>
