<?xml version="1.0" encoding="UTF-8"?>
<svg width="138.92mm" height="138.92mm" version="1.1" viewBox="0 0 138.92 138.92" xmlns="http://www.w3.org/2000/svg" xmlns:cc="http://creativecommons.org/ns#" xmlns:dc="http://purl.org/dc/elements/1.1/" xmlns:rdf="http://www.w3.org/1999/02/22-rdf-syntax-ns#">
 <metadata>
  <rdf:RDF>
   <cc:Work rdf:about="">
    <dc:format>image/svg+xml</dc:format>
    <dc:type rdf:resource="http://purl.org/dc/dcmitype/StillImage"/>
   </cc:Work>
  </rdf:RDF>
 </metadata>
 <g fill="#fff">
  <g transform="translate(293.57 -73.232)">
   <path d="m87.986 190.48c-11.684-1.1234-23.507-10.093-29.695-22.524-3.007-6.0417-4.3006-11.287-4.4783-18.157-0.116-4.167 0.04555-6.1815 0.67955-9.6876l0.38066-2.0625 1.2355 1.0388c2.982 2.5042 6.943 3.8908 17.42 6.0993 11.946 2.5178 17.831 4.5928 22.989 8.1042 5.8172 3.9608 9.722 9.8594 11.324 17.107 0.53032 2.4033 0.5817 2.2757-1.0206 2.5632-1.7729 0.31811-8.0257 0.33483-10.418 3e-3 -6.0442-0.78705-11.917-2.4003-16.021-4.3956-0.91087-0.43837-1.6933-0.77132-1.7378-0.72428-0.0459 0.0495 0.54658 0.712 1.3105 1.4844 3.6993 3.7347 9.9164 6.4369 17.512 7.6116 3.0089 0.46445 9.6553 0.47413 12.413 0.0142 7.2625-1.2095 14.041-4.0397 19.75-8.2356 1.0277-0.75406 1.343-0.90988 1.4762-0.72147 1.0675 1.5269 1.273 3.9649 0.47182 5.676-0.66567 1.4151-1.5533 2.1868-4.1478 3.5978-6.163 3.3501-13.327 5.5188-20.03 6.0624l-1.4179 0.0932-1.5066 1.4467c-2.8162 2.7001-5.7618 4.3232-9.3661 5.1603-1.0208 0.23414-4.7123 0.64835-5.3519 0.59163-0.16368-0.0142-0.94105-0.0598-1.766-0.17008zm55.274-0.64604c0.16225-0.59294 0.27327-1.5608 0.27327-3.2365-6.4e-4 -3.6298-0.61195-6.2762-3.5108-15.25-3.3081-10.23-4.3973-15.034-4.6423-20.481-0.30565-6.6952 1.5159-12.814 5.3278-17.93 1.0254-1.3764 3.4999-4.0065 4.7717-5.0713l0.84316-0.71005 0.62373 0.68165c0.3455 0.37561 1.1632 1.4816 1.822 2.4561 4.0786 6.0381 7.5155 16.046 7.9469 23.141 0.0473 1.0804 0.16404 1.9011 0.25798 1.8265 0.3085-0.31419 1.0418-3.3156 1.2262-5.0417 0.81527-7.4216-2.6898-18.316-8.244-25.613-4.2529-5.5872-9.7055-10.047-16.186-13.237-1.586-0.77765-2.8818-1.4961-2.8818-1.5912 2e-3 -0.38579 1.1257-1.7657 1.8334-2.2541 1.85-1.2759 3.9724-1.4113 6.034-0.40159 1.5135 0.73965 5.6522 3.5066 7.4802 4.9892 3.3252 2.6981 7.11 6.7385 9.5901 10.237 0.682 0.96631 1.2917 1.6458 1.4645 1.6457 0.16332-1.4e-4 1.0042 0.15657 1.8662 0.45396 3.6279 1.0534 7.0962 3.3375 9.5392 6.2854 2.5 3.0168 4.2464 6.8427 5.2122 11.417 0.5605 2.6515 0.77776 8.2941 0.43902 11.289-1.4786 13.002-8.7623 24.817-19.696 31.951-2.282 1.4895-6.5029 3.5842-9.1762 4.5556-2.5854 0.93756-2.5635 0.94699-2.219-0.09zm-62.42-52.902c-1.642-0.38884-3.1129-1.5659-3.8675-3.1012-0.37845-0.76562-0.43684-1.1626-0.49289-3.265-0.16404-6.6703 1.4318-14.289 4.4463-21.07l0.90397-2.0335-0.49524-1.8816c-0.59807-2.2779-0.78957-5.5604-0.45556-7.8463 0.63073-4.3267 2.8893-8.6385 6.4669-12.356 5.7305-5.9538 13.671-9.7582 23.243-11.136 2.5997-0.37646 8.447-0.42379 10.906-0.05907 9.5184 1.2885 17.719 5.0685 24.617 11.344l0.59099 0.54057-0.76619 0.15727c-2.0695 0.56163-4.2081 1.849-6.8937 4.1762-2.0064 1.7345-3.0185 2.7885-8.4292 8.7614-7.8836 8.7025-12.179 12.38-17.608 15.073-2.1301 1.053-4.5204 1.9145-6.6702 2.3967-1.9598 0.43578-6.8645 0.54263-9.2335 0.15728-1.8803-0.28039-5.9129-1.3158-6.6641-1.7199-0.42507-0.23805-0.3808-0.48506 0.40169-2.4685 2.5009-6.3011 10.271-15.546 16.7-19.869l1.6326-1.0971-0.94848 0.08682c-0.52068 0.05622-1.6934 0.38301-2.6067 0.7109-4.008 1.4337-8.0277 4.314-11.73 8.4075-5.1194 5.661-8.1856 11.304-9.9879 18.38-1.0557 4.1509-1.3009 6.1412-1.3149 10.728-0.0036 2.1964 0.04697 4.688 0.14055 5.5412l0.16368 1.5496-0.67496-0.0142c-0.37127-0.0107-0.97375-0.0591-1.3428-0.15122z" fill="#fff"/>
  </g>
  <g>
   <path d="m74.253 109.83c-7.3676 5.2897-16.865 8.5957-24.846 8.5668l-1.3322 1.0528c-1.6134 1.2734-4.1745 2.5749-6.1229 3.1093-3.6873 1.0128-7.9366 0.72494-12.175-0.82054-6.7885-2.4758-12.635-7.4626-17.113-14.597-1.2182-1.9369-3.3178-6.5733-3.8927-8.6577-2.3242-8.0253-2.1886-15.874 0.40483-23.56l0.22454-0.65949 0.3961 0.55463c1.1795 1.4502 2.9645 2.7013 5.7751 4.0236 2.0965 0.98946 3.2974 1.4258 9.9884 3.6404 9.7489 3.2269 14.208 5.3575 18.279 8.7349 1.5943 1.3264 3.127 2.9269 4.2712 4.4688 1.04 1.407 2.8549 5.2724 3.3816 7.2925 0.43837 1.5944 1.0311 5.1658 0.97238 5.905-0.04075 0.42158-0.25392 0.47296-2.1185 0.5445-5.9279 0.21577-16.071-2.7309-21.8-6.3334l-1.4542-0.91505 0.40396 0.72431c0.2286 0.39465 0.90381 1.2134 1.4884 1.8254 2.5614 2.6874 6.2853 4.8778 10.869 6.3909 13.666 4.721 28.673-1.0232 35.9-8.4172-0.54786 3.9663-0.76374 6.7573-1.4999 7.1269z" stroke-width=".87217"/>
   <path d="m10.819 70.8c-0.34186-0.93114-0.2672-1.6435-0.03206-4.0683 0.76233-7.6915 3.7622-16.237 8.3357-23.629l1.3715-2.2168-0.32089-2.23c-0.38652-2.6995-0.14402-6.4994 0.58316-9.0828 1.3746-4.8902 4.6908-9.5446 9.4966-13.339 7.6976-6.0763 17.725-9.3846 29.352-9.6837 3.1581-0.083907 10.147 0.64677 13.03 1.3962 11.18 2.7594 20.429 8.2066 27.764 16.348l0.62803 0.70088-0.93745 0.07808c-2.5517 0.36755-5.2901 1.561-8.8311 3.8763-2.6449 1.7249-4.0047 2.8009-11.323 8.9422-10.663 8.9477-16.32 12.599-23.189 14.967-2.6947 0.92475-5.6725 1.5943-8.3086 1.8602-2.4026 0.23798-8.2743-0.2976-11.048-1.0588-2.2048-0.57484-7.9926-3.0573-8.8315-3.6228 3.8792-9.8786 14.125-18.829 26.857-23.679l-1.1449-0.02744c-0.62981-0.0054-2.077 0.21252-3.2146 0.46744-4.9916 1.1104-10.205 3.8825-15.214 8.0922-6.9259 5.8217-11.398 11.898-14.566 19.792-1.8568 4.631-2.4355 6.8865-3.1111 12.158-0.32029 2.5249-0.6173 5.3966-0.62817 6.3902l-0.16998 1.9664c-3.8885-0.75962-5.9587-2.8845-6.5478-4.3981z" stroke-width="1.1799"/>
   <path d="m104.48 29.513c1.0365 0.49674 1.3078 0.41151 3.0928 2.5629 5.6483 6.8369 10.176 16.073 12.485 25.568l0.69259 2.8475 2.0777 1.5694c2.5138 1.9012 5.4128 5.177 6.9275 7.8322 2.8685 5.0245 3.9683 11.336 3.1575 18.082-1.2994 10.804-6.7462 21.132-15.944 30.229-2.4961 2.4732-8.7663 7.2008-11.719 8.7872-9.4478 4.1164-23.926 10.045-39.901 5.9432 20.044-17.95 9.5652-38.351 16.207-54.576 1.4346-2.8042 3.307-5.6165 5.231-7.8402 1.7571-2.0232 6.9614-6.0589 9.8335-7.5517 2.2588-1.2114 7.4084-3.0462 8.5504-3.2251 6.6492 9.662 4.1757 26.616-0.94061 39.16 1.2849-1.0514 2.351-2.4429 3.1815-3.6777 3.1485-4.7044 5.123-10.929 5.7599-18.168 0.8802-10.01-0.44013-18.358-4.2997-27.192-2.2657-5.1809-3.6337-7.4562-7.3809-12.259-1.9191-2.5047-3.9843-4.2341-6.1857-6.4967 2.7964-2.1686 7.1997-3.2704 9.1733-1.5953z" stroke-width="1.3354"/>
   <path d="m80.02 74.79c0.90257-1.6482 1.8327-3.5991 3.3421-4.7063-2.4624-2.7722-13.585-10.495-22.462-8.3948 9.4571 2.9151 16.614 6.8096 19.12 13.101z" stroke-linecap="round" stroke-width=".11732"/>
  </g>
 </g>
</svg>
