<?xml version="1.0" encoding="UTF-8" standalone="no"?>
<svg
   width="138.92mm"
   height="138.92mm"
   version="1.1"
   viewBox="0 0 138.92 138.92"
   id="svg3856"
   sodipodi:docname="cyclical-design-white.svg"
   inkscape:version="1.2.2 (b0a8486541, 2022-12-01)"
   xml:space="preserve"
   xmlns:inkscape="http://www.inkscape.org/namespaces/inkscape"
   xmlns:sodipodi="http://sodipodi.sourceforge.net/DTD/sodipodi-0.dtd"
   xmlns="http://www.w3.org/2000/svg"
   xmlns:svg="http://www.w3.org/2000/svg"
   xmlns:rdf="http://www.w3.org/1999/02/22-rdf-syntax-ns#"
   xmlns:cc="http://creativecommons.org/ns#"
   xmlns:dc="http://purl.org/dc/elements/1.1/"><defs
     id="defs3860" /><sodipodi:namedview
     id="namedview3858"
     pagecolor="#ffffff"
     bordercolor="#000000"
     borderopacity="0.25"
     inkscape:showpageshadow="2"
     inkscape:pageopacity="0.0"
     inkscape:pagecheckerboard="0"
     inkscape:deskcolor="#d1d1d1"
     inkscape:document-units="mm"
     showgrid="false"
     inkscape:zoom="0.82166847"
     inkscape:cx="360.85113"
     inkscape:cy="215.41535"
     inkscape:window-width="1503"
     inkscape:window-height="934"
     inkscape:window-x="0"
     inkscape:window-y="0"
     inkscape:window-maximized="1"
     inkscape:current-layer="svg3856" /><metadata
     id="metadata3850"><rdf:RDF><cc:Work
         rdf:about=""><dc:format>image/svg+xml</dc:format><dc:type
           rdf:resource="http://purl.org/dc/dcmitype/StillImage" /></cc:Work></rdf:RDF></metadata><g
     transform="translate(293.57289,-73.23159)"
     id="g3854"
     style="fill:#ffffff"><path
       d="m 87.986,190.48 c -11.684,-1.1234 -23.507,-10.093 -29.695,-22.524 -3.007,-6.0417 -4.3006,-11.287 -4.4783,-18.157 -0.116,-4.167 0.04555,-6.1815 0.67955,-9.6876 l 0.38066,-2.0625 1.2355,1.0388 c 2.982,2.5042 6.943,3.8908 17.42,6.0993 11.946,2.5178 17.831,4.5928 22.989,8.1042 5.8172,3.9608 9.722,9.8594 11.324,17.107 0.53032,2.4033 0.5817,2.2757 -1.0206,2.5632 -1.7729,0.31811 -8.0257,0.33483 -10.418,0.003 -6.0442,-0.78705 -11.917,-2.4003 -16.021,-4.3956 -0.91087,-0.43837 -1.6933,-0.77132 -1.7378,-0.72428 -0.0459,0.0495 0.54658,0.712 1.3105,1.4844 3.6993,3.7347 9.9164,6.4369 17.512,7.6116 3.0089,0.46445 9.6553,0.47413 12.413,0.0142 7.2625,-1.2095 14.041,-4.0397 19.75,-8.2356 1.0277,-0.75406 1.343,-0.90988 1.4762,-0.72147 1.0675,1.5269 1.273,3.9649 0.47182,5.676 -0.66567,1.4151 -1.5533,2.1868 -4.1478,3.5978 -6.163,3.3501 -13.327,5.5188 -20.03,6.0624 l -1.4179,0.0932 -1.5066,1.4467 c -2.8162,2.7001 -5.7618,4.3232 -9.3661,5.1603 -1.0208,0.23414 -4.7123,0.64835 -5.3519,0.59163 -0.16368,-0.0142 -0.94105,-0.0598 -1.766,-0.17008 z m 55.274,-0.64604 c 0.16225,-0.59294 0.27327,-1.5608 0.27327,-3.2365 -6.4e-4,-3.6298 -0.61195,-6.2762 -3.5108,-15.25 -3.3081,-10.23 -4.3973,-15.034 -4.6423,-20.481 -0.30565,-6.6952 1.5159,-12.814 5.3278,-17.93 1.0254,-1.3764 3.4999,-4.0065 4.7717,-5.0713 l 0.84316,-0.71005 0.62373,0.68165 c 0.3455,0.37561 1.1632,1.4816 1.822,2.4561 4.0786,6.0381 7.5155,16.046 7.9469,23.141 0.0473,1.0804 0.16404,1.9011 0.25798,1.8265 0.3085,-0.31419 1.0418,-3.3156 1.2262,-5.0417 0.81527,-7.4216 -2.6898,-18.316 -8.244,-25.613 -4.2529,-5.5872 -9.7055,-10.047 -16.186,-13.237 -1.586,-0.77765 -2.8818,-1.4961 -2.8818,-1.5912 0.002,-0.38579 1.1257,-1.7657 1.8334,-2.2541 1.85,-1.2759 3.9724,-1.4113 6.034,-0.40159 1.5135,0.73965 5.6522,3.5066 7.4802,4.9892 3.3252,2.6981 7.11,6.7385 9.5901,10.237 0.682,0.96631 1.2917,1.6458 1.4645,1.6457 0.16332,-1.4e-4 1.0042,0.15657 1.8662,0.45396 3.6279,1.0534 7.0962,3.3375 9.5392,6.2854 2.5,3.0168 4.2464,6.8427 5.2122,11.417 0.5605,2.6515 0.77776,8.2941 0.43902,11.289 -1.4786,13.002 -8.7623,24.817 -19.696,31.951 -2.282,1.4895 -6.5029,3.5842 -9.1762,4.5556 -2.5854,0.93756 -2.5635,0.94699 -2.219,-0.09 z m -62.42,-52.902 c -1.642,-0.38884 -3.1129,-1.5659 -3.8675,-3.1012 -0.37845,-0.76562 -0.43684,-1.1626 -0.49289,-3.265 -0.16404,-6.6703 1.4318,-14.289 4.4463,-21.07 l 0.90397,-2.0335 -0.49524,-1.8816 c -0.59807,-2.2779 -0.78957,-5.5604 -0.45556,-7.8463 0.63073,-4.3267 2.8893,-8.6385 6.4669,-12.356 5.7305,-5.9538 13.671,-9.7582 23.243,-11.136 2.5997,-0.37646 8.447,-0.42379 10.906,-0.05907 9.5184,1.2885 17.719,5.0685 24.617,11.344 l 0.59099,0.54057 -0.76619,0.15727 c -2.0695,0.56163 -4.2081,1.849 -6.8937,4.1762 -2.0064,1.7345 -3.0185,2.7885 -8.4292,8.7614 -7.8836,8.7025 -12.179,12.38 -17.608,15.073 -2.1301,1.053 -4.5204,1.9145 -6.6702,2.3967 -1.9598,0.43578 -6.8645,0.54263 -9.2335,0.15728 -1.8803,-0.28039 -5.9129,-1.3158 -6.6641,-1.7199 -0.42507,-0.23805 -0.3808,-0.48506 0.40169,-2.4685 2.5009,-6.3011 10.271,-15.546 16.7,-19.869 l 1.6326,-1.0971 -0.94848,0.08682 c -0.52068,0.05622 -1.6934,0.38301 -2.6067,0.7109 -4.008,1.4337 -8.0277,4.314 -11.73,8.4075 -5.1194,5.661 -8.1856,11.304 -9.9879,18.38 -1.0557,4.1509 -1.3009,6.1412 -1.3149,10.728 -0.0036,2.1964 0.04697,4.688 0.14055,5.5412 l 0.16368,1.5496 -0.67496,-0.0142 c -0.37127,-0.0107 -0.97375,-0.0591 -1.3428,-0.15122 z"
       fill="#008000"
       id="path3852"
       style="fill:#ffffff" /></g><path
     d="m 74.252614,109.83361 c -7.367639,5.28968 -16.865062,8.59568 -24.845661,8.56679 l -1.332215,1.05279 c -1.613353,1.27336 -4.174524,2.57488 -6.122927,3.10931 -3.687331,1.01277 -7.936642,0.72494 -12.175173,-0.82054 C 22.988169,119.26621 17.141744,114.27935 12.663355,107.14479 11.445203,105.20786 9.3455955,100.5715 8.7706129,98.48709 6.4463819,90.461749 6.582035,82.61283 9.1754394,74.926888 l 0.2245357,-0.659488 0.396102,0.554634 c 1.1794609,1.45018 2.9644949,2.701287 5.7750819,4.023649 2.096459,0.989457 3.297403,1.425804 9.988425,3.640423 9.748889,3.226867 14.208463,5.357528 18.279335,8.734876 1.594302,1.326427 3.127015,2.926907 4.271194,4.46876 1.039981,1.406984 2.854943,5.272448 3.381597,7.292498 0.438367,1.59444 1.031098,5.16581 0.972376,5.90503 -0.04075,0.42158 -0.253919,0.47296 -2.118472,0.5445 -5.927894,0.21577 -16.071107,-2.73086 -21.799923,-6.33337 l -1.454201,-0.91505 0.403964,0.72431 c 0.228598,0.39465 0.903806,1.21345 1.488381,1.82544 2.561385,2.68743 6.285301,4.8778 10.868861,6.39087 13.665738,4.72097 28.672965,-1.02321 35.899772,-8.41725 -0.547856,3.96631 -0.763743,6.75726 -1.499854,7.12689 z"
     fill="#008000"
     id="path74700"
     style="fill:#ffffff;fill-opacity:1;stroke-width:0.872174"
     sodipodi:nodetypes="cccccccccccccccccccccccc" /><path
     d="m 10.819301,70.799637 c -0.341864,-0.931144 -0.267195,-1.643454 -0.03206,-4.068298 0.762328,-7.69154 3.762239,-16.237285 8.335675,-23.629366 l 1.371473,-2.216764 -0.320893,-2.229977 c -0.38652,-2.69947 -0.144015,-6.499371 0.58316,-9.082838 1.374629,-4.890155 4.690816,-9.544623 9.496563,-13.33872 7.697572,-6.07633 17.725183,-9.3846112 29.352268,-9.6837313 3.158146,-0.083907 10.146737,0.6467667 13.030432,1.3961999 11.180066,2.7593784 20.428751,8.2065754 27.763591,16.3482134 l 0.62803,0.70088 -0.93745,0.07808 c -2.551736,0.367554 -5.290136,1.560978 -8.831078,3.876308 -2.644904,1.724896 -4.004729,2.800948 -11.323228,8.942178 -10.663312,8.947741 -16.320361,12.599467 -23.189498,14.967043 -2.694679,0.924751 -5.672505,1.594343 -8.308649,1.860206 -2.402645,0.237981 -8.274269,-0.297597 -11.04757,-1.058755 -2.204824,-0.574836 -7.992633,-3.057317 -8.831543,-3.622797 3.879197,-9.878573 14.125014,-18.82882 26.857011,-23.679401 l -1.144941,-0.02744 c -0.629807,-0.0054 -2.077038,0.212521 -3.214582,0.467436 -4.991587,1.110402 -10.204938,3.882515 -15.21358,8.092185 -6.925863,5.821714 -11.397582,11.89837 -14.566025,19.792419 -1.856791,4.630954 -2.435493,6.886483 -3.111115,12.158495 -0.320287,2.524898 -0.617296,5.396597 -0.628166,6.390163 l -0.169977,1.96639 c -3.888494,-0.75962 -5.958724,-2.884542 -6.547848,-4.398093 z"
     fill="#008000"
     id="path74702"
     style="fill:#ffffff;fill-opacity:1;stroke-width:1.1799"
     sodipodi:nodetypes="ccscccccccccccccccccccccccc" /><path
     d="m 104.47718,29.512745 c 1.03652,0.496739 1.30782,0.411514 3.09277,2.562912 5.64834,6.836912 10.17572,16.072573 12.48535,25.568142 l 0.69259,2.847539 2.07773,1.569364 c 2.51376,1.901165 5.41282,5.177038 6.92749,7.832222 2.86846,5.02452 3.96828,11.33584 3.15746,18.081628 -1.29936,10.804406 -6.74625,21.131558 -15.94388,30.229068 -2.49614,2.47318 -8.76634,7.2008 -11.7186,8.7872 -9.447798,4.11635 -23.92625,10.04482 -39.900827,5.94322 20.044103,-17.94958 9.565169,-38.351209 16.207181,-54.575849 1.434604,-2.804204 3.307006,-5.616547 5.230977,-7.84025 1.757107,-2.023233 6.96135,-6.058947 9.833541,-7.55172 2.258767,-1.211428 7.408398,-3.04624 8.550358,-3.225124 6.64923,9.662037 4.17569,26.616255 -0.94061,39.159715 1.28486,-1.051418 2.35103,-2.442857 3.18153,-3.677743 3.14847,-4.704352 5.12298,-10.929281 5.75989,-18.167618 0.8802,-10.009625 -0.44013,-18.357737 -4.29968,-27.191665 -2.26569,-5.180865 -3.63366,-7.456216 -7.38086,-12.259009 -1.919083,-2.504672 -3.984322,-4.234126 -6.185668,-6.496693 2.796377,-2.1686 7.199738,-3.270375 9.173258,-1.595339 z"
     fill="#008000"
     id="path74704"
     style="fill:#ffffff;fill-opacity:1;stroke-width:1.33545"
     sodipodi:nodetypes="ccscccccccccccccccccc" /><path
     style="fill:#ffffff;fill-opacity:1;stroke-width:0.117323;stroke-linecap:round"
     d="m 80.02047,74.790371 c 0.902569,-1.648191 1.832669,-3.599116 3.342079,-4.706285 -2.462373,-2.77217 -13.584754,-10.494716 -22.461731,-8.394829 9.457108,2.915055 16.613596,6.809586 19.119652,13.101114 z"
     id="path80156"
     sodipodi:nodetypes="cccc" /></svg>
