<?xml version="1.0" encoding="UTF-8"?>
<!-- Created with Inkscape (http://www.inkscape.org/) -->
<svg width="128.43mm" height="128.43mm" version="1.1" viewBox="0 0 128.43 128.43" xmlns="http://www.w3.org/2000/svg">
 <g transform="translate(-18.581 -43.648)">
  <g transform="matrix(.89926 0 0 .89926 8.3409 10.866)" fill="none" stroke="#008000" stroke-width="1.2619">
   <g stroke-width="1.2619">
    <circle cx="82.795" cy="107.86" r="9.6792"/>
    <circle cx="82.795" cy="107.86" r="12.693"/>
    <circle cx="82.795" cy="107.86" r="19.057"/>
   </g>
   <path transform="matrix(.05794 -.11371 .11371 .05794 1.9343 122.51)" d="m207.91 329.93 299.72-47.471 137.77 270.38-214.58 214.58-270.38-137.77z" stroke-width="9.8879"/>
   <path transform="matrix(.072808 -.14289 .14289 .072808 -18.824 126.28)" d="m207.91 329.93 299.72-47.471 137.77 270.38-214.58 214.58-270.38-137.77z" stroke-width="7.8687"/>
   <circle transform="rotate(88.559)" cx="124.37" cy="-122.56" r="11.4" stroke-width="1.2619"/>
   <path transform="matrix(-.056594 -.1463 .1463 -.056594 96.327 169.23)" d="m220.76 282.64c-0.44771-0.78222 0.43524-1.5896 1.1237-1.7698 1.8828-0.49294 3.3919 1.3796 3.5908 3.0671 0.40702 3.4544-2.9403 5.9612-6.1052 6.0711-5.5208 0.19172-9.3319-5.1505-9.2324-10.291 0.15683-8.1001 8.0351-13.531 15.667-13.093 11.207 0.643 18.579 11.615 17.668 22.265-1.2707 14.853-15.906 24.496-30.115 22.972-19.05-2.0435-31.297-20.925-29.016-39.242 2.9645-23.806 26.684-38.998 49.669-35.813 29.129 4.0364 47.612 33.196 43.373 61.415-5.2618 35.028-40.472 57.151-74.499 51.705-15.924-2.5483-30.663-10.677-41.58-22.508" stroke-width="8.0446"/>
   <circle transform="matrix(-.025142 .99968 .99968 .025142 0 0)" cx="121.24" cy="43.672" r="11.4" stroke-width="1.2619"/>
   <path transform="matrix(.056594 -.1463 -.1463 -.056594 70.243 170.8)" d="m220.76 282.64c-0.44771-0.78222 0.43524-1.5896 1.1237-1.7698 1.8828-0.49294 3.3919 1.3796 3.5908 3.0671 0.40702 3.4544-2.9403 5.9612-6.1052 6.0711-5.5208 0.19172-9.3319-5.1505-9.2324-10.291 0.15683-8.1001 8.0351-13.531 15.667-13.093 11.207 0.643 18.579 11.615 17.668 22.265-1.2707 14.853-15.906 24.496-30.115 22.972-19.05-2.0435-31.297-20.925-29.016-39.242 2.9645-23.806 26.684-38.998 49.669-35.813 29.129 4.0364 47.612 33.196 43.373 61.415-5.2618 35.028-40.472 57.151-74.499 51.705-15.924-2.5483-30.663-10.677-41.58-22.508" stroke-width="8.0446"/>
   <path transform="matrix(.11047 .21682 .21682 -.11047 -71.413 79.818)" d="m207.91 329.93 169.61 100.94 130.11-148.41-43.591 192.5 181.36 77.882-196.55 18.028-18.028 196.55-77.882-181.36-192.5 43.591 148.41-130.11z" stroke-width="5.1859"/>
   <g transform="matrix(-.60412 0 0 .60412 197.97 26.545)" stroke-width="2.0889">
    <g transform="translate(1.1576 1.5113)">
     <g transform="matrix(.98139 0 0 .98139 2.7412 1.281)">
      <circle cx="145.53" cy="73.795" r="19.228" stroke-width="2.1285"/>
      <path transform="matrix(-.24909 .089222 -.089222 -.24909 227.11 125.94)" d="m220.76 282.64c-0.44771-0.78222 0.43524-1.5896 1.1237-1.7698 1.8828-0.49294 3.3919 1.3796 3.5908 3.0671 0.40702 3.4544-2.9403 5.9612-6.1052 6.0711-5.5208 0.19172-9.3319-5.1505-9.2324-10.291 0.15683-8.1001 8.0351-13.531 15.667-13.093 11.207 0.643 18.579 11.615 17.668 22.265-1.2707 14.853-15.906 24.496-30.115 22.972-19.05-2.0435-31.297-20.925-29.016-39.242 2.9645-23.806 26.684-38.998 49.669-35.813 29.129 4.0364 47.612 33.196 43.373 61.415-5.2618 35.028-40.472 57.151-74.499 51.705-15.924-2.5483-30.663-10.677-41.58-22.508" stroke-width="8.0446"/>
     </g>
     <circle cx="142.34" cy="69.487" r="24.096" stroke-width="2.0889"/>
    </g>
    <g transform="translate(.35628 -.14966)">
     <circle transform="matrix(-1.7105 0 0 1.7105 524.73 -86.068)" cx="169.72" cy="93.923" r="11.032" stroke-width="1.2212"/>
     <path transform="matrix(.24445 .087561 .087561 -.24445 153.76 126.37)" d="m220.76 282.64c-0.44771-0.78222 0.43524-1.5896 1.1237-1.7698 1.8828-0.49294 3.3919 1.3796 3.5908 3.0671 0.40702 3.4544-2.9403 5.9612-6.1052 6.0711-5.5208 0.19172-9.3319-5.1505-9.2324-10.291 0.15683-8.1001 8.0351-13.531 15.667-13.093 11.207 0.643 18.579 11.615 17.668 22.265-1.2707 14.853-15.906 24.496-30.115 22.972-19.05-2.0435-31.297-20.925-29.016-39.242 2.9645-23.806 26.684-38.998 49.669-35.813 29.129 4.0364 47.612 33.196 43.373 61.415-5.2618 35.028-40.472 57.151-74.499 51.705-15.924-2.5483-30.663-10.677-41.58-22.508" stroke-width="8.0446"/>
     <circle cx="237.15" cy="70.226" r="24.096" stroke-width="2.0889"/>
    </g>
    <circle cx="265.57" cy="159.99" r="24.096"/>
    <g transform="translate(-.20579 .28881)">
     <circle transform="matrix(1.273 1.1424 -1.1424 1.273 524.73 -86.068)" cx="-30.341" cy="258.36" r="11.032" stroke-width="1.2212"/>
     <path transform="matrix(-.24041 .098104 .098104 .24041 215.93 116.91)" d="m220.76 282.65c-0.45091-0.78162 0.43091-1.5927 1.1194-1.7752 1.8843-0.49956 3.4013 1.3718 3.6054 3.0613 0.41797 3.4597-2.9287 5.9807-6.099 6.0999-5.5315 0.20804-9.3655-5.1345-9.2804-10.286 0.13411-8.118 8.0143-13.582 15.664-13.165 11.234 0.61278 18.653 11.588 17.77 22.265-1.2319 14.891-15.874 24.597-30.12 23.109-19.1-1.995-31.429-20.887-29.194-39.254 2.9051-23.871 26.64-39.166 49.688-36.038 29.212 3.965 47.82 33.145 43.65 61.444-5.1771 35.129-40.413 57.404-74.539 52.04-15.383-2.4179-29.698-10.03-40.537-21.176" stroke-width="8.0446"/>
     <circle cx="190.48" cy="213.03" r="24.096" stroke-width="2.0889"/>
    </g>
    <circle cx="115.23" cy="158.64" r="24.096"/>
   </g>
   <circle cx="82.795" cy="107.86" r="62.475" stroke-width="1.2619"/>
   <circle cx="82.795" cy="107.86" r="56.574" stroke-width="1.2619"/>
  </g>
 </g>
</svg>
