<?xml version="1.0" encoding="UTF-8" standalone="no"?>
<svg xmlns:dc="http://purl.org/dc/elements/1.1/" xmlns:cc="http://creativecommons.org/ns#" xmlns:rdf="http://www.w3.org/1999/02/22-rdf-syntax-ns#" xmlns:svg="http://www.w3.org/2000/svg" xmlns="http://www.w3.org/2000/svg" xmlns:sodipodi="http://sodipodi.sourceforge.net/DTD/sodipodi-0.dtd" xmlns:inkscape="http://www.inkscape.org/namespaces/inkscape" sodipodi:docname="White logo with shadow and tilt.svg" inkscape:version="1.0 (6e3e5246a0, 2020-05-07)" id="svg11550" version="1.1" viewBox="0 0 137.31876 186.25779" height="186.2578mm" width="137.31876mm"><defs id="defs11544"><filter id="filter11698" inkscape:label="Drop Shadow" style="color-interpolation-filters:sRGB;"><feFlood id="feFlood11688" result="flood" flood-color="rgb(8,8,8)" flood-opacity="0.835294"/><feComposite id="feComposite11690" result="composite1" operator="in" in2="SourceGraphic" in="flood"/><feGaussianBlur id="feGaussianBlur11692" result="blur" stdDeviation="9.75985" in="composite1"/><feOffset id="feOffset11694" result="offset" dy="0" dx="0"/><feComposite id="feComposite11696" result="composite2" operator="over" in2="offset" in="SourceGraphic"/></filter></defs><metadata id="metadata11547"/><g transform="translate(-26.256768,-37.288171)" id="layer1" inkscape:groupmode="layer" inkscape:label="Layer 1"><path transform="matrix(0.79272777,0,0,0.79272777,19.673483,27.031837)" id="path11638" d="m 64.080546,221.94102 c -15.23563,-9.78315 -32.022114,-20.75065 -32.825941,-21.44695 -4.500907,-3.89876 -6.182119,-10.80284 -4.135035,-16.98097 0.493553,-1.48954 1.036699,-2.4723 3.813794,-6.90054 6.062473,-9.66696 9.853569,-14.663 17.217371,-22.68962 3.714061,-4.04835 5.282171,-6.009 7.168186,-8.96253 1.899548,-2.97473 2.237919,-3.67959 5.361433,-11.16844 1.996254,-4.78616 3.324039,-7.81598 3.9506,-9.0147 3.085652,-5.90341 6.528002,-10.42757 12.126296,-15.93718 1.373538,-1.35178 1.375347,-1.35296 3.408554,-2.23436 3.766351,-1.63272 6.637171,-2.17724 12.039867,-2.28363 1.774267,-0.0349 3.926333,-0.12484 4.782364,-0.19977 1.542765,-0.13505 3.976925,-0.58625 4.398025,-0.81523 0.12035,-0.0654 0.77093,-0.9351 1.44574,-1.93258 3.6507,-5.396337 5.93777,-8.889456 6.12163,-9.349776 0.17388,-0.43532 0.16151,-0.598121 -0.0773,-1.017848 -0.20432,-0.359093 -0.2641,-0.733777 -0.21252,-1.331973 l 0.0718,-0.832332 0.78627,-0.602114 c 0.43245,-0.331164 0.93162,-0.618428 1.10926,-0.638367 0.48957,-0.05495 1.99102,0.579886 2.95424,1.249083 3.76099,2.612999 4.75971,3.293964 4.80396,3.275547 0.0279,-0.01166 8.28294,-12.341126 18.34443,-27.398853 10.06147,-15.057731 18.34461,-27.39959 18.40698,-27.426356 0.2122,-0.09106 1.94831,0.301424 2.78136,0.628781 1.58023,0.620976 3.11457,1.74779 4.40298,3.233562 0.41307,0.476341 0.86345,1.065215 1.00084,1.308603 l 0.2498,0.442525 -17.50479,27.805758 c -9.62763,15.293168 -17.54668,27.882121 -17.59786,27.975457 -0.0703,0.128207 0.51779,0.566027 2.40438,1.790063 1.37359,0.89119 2.79527,1.78099 3.1593,1.97733 0.93942,0.50667 1.56703,1.2035 1.74789,1.94064 0.1319,0.53765 0.10444,0.74548 -0.19877,1.50458 l -0.35181,0.88076 -1.05779,0.40649 c -1.02926,0.39552 -1.07558,0.43252 -1.71723,1.37191 -0.92216,1.35004 -6.52241,10.14647 -6.6279,10.41056 -0.10845,0.27152 0.36711,2.55039 0.85581,4.101 0.20304,0.64422 1.03161,2.78587 1.84128,4.75924 1.47198,3.58761 1.91821,4.88367 2.31059,6.71107 0.30551,1.42283 0.52382,3.61866 0.55145,5.54669 l 0.0242,1.69172 -1.64493,4.09653 c -1.71593,4.27429 -2.68438,6.26435 -4.4516,9.15101 -2.78149,4.54342 -5.15399,7.41654 -11.47107,13.89159 -4.29825,4.40573 -4.99105,5.17472 -6.43109,7.13821 -2.38738,3.25519 -3.79059,5.68141 -5.64225,9.75573 -0.68069,1.4979 -1.831741,4.03287 -2.557792,5.63332 -3.613775,7.966 -8.307455,15.87646 -14.732705,24.82969 -2.009742,2.80047 -3.777714,4.2762 -6.759333,5.64205 -4.072874,1.86574 -8.058672,2.12119 -11.818892,0.75747 -0.843196,-0.30579 -1.66402,-0.64012 -1.824111,-0.74283 z m 3.282855,-22.91522 c 1.659616,-4.11605 2.154685,-5.24518 2.277253,-5.19383 0.08598,0.0365 3.182434,1.79579 6.880649,3.91044 3.698222,2.11463 6.744647,3.83595 6.76982,3.82515 0.02521,-0.0108 -1.718453,-3.08957 -3.874721,-6.8417 -2.156276,-3.75213 -3.910976,-6.85116 -3.899351,-6.88673 0.01202,-0.0355 3.321543,-1.34623 7.355334,-2.91256 4.03379,-1.56633 7.328127,-2.86593 7.320742,-2.88802 -0.0074,-0.0221 -3.519132,-0.61057 -7.80387,-1.30774 -4.284743,-0.69719 -7.803351,-1.29771 -7.81914,-1.33449 -0.01579,-0.0368 0.98523,-3.39657 2.224482,-7.46618 1.23925,-4.06962 2.220358,-7.41241 2.180237,-7.42843 -0.04012,-0.016 -2.684724,2.31671 -5.876898,5.18388 l -5.80395,5.21302 -4.485764,-6.4789 c -2.467165,-3.56341 -4.508973,-6.46816 -4.537333,-6.45503 -0.02836,0.0131 0.193299,3.51137 0.492594,7.77384 0.299289,4.26248 0.531503,7.78408 0.516028,7.82579 -0.01548,0.0417 -2.120706,-0.0819 -4.678283,-0.27464 -10.02191,-0.75536 -11.180085,-0.82808 -11.022391,-0.6922 0.08978,0.0773 3.026468,2.11764 6.526002,4.53396 3.499537,2.41631 6.369398,4.4069 6.377472,4.42352 0.0081,0.0166 -2.324674,2.55019 -5.183892,5.63018 -2.859215,3.07998 -5.281562,5.69131 -5.382995,5.80295 -0.140671,0.15483 -0.134321,0.18813 0.02678,0.14035 9.311323,-2.7613 15.094989,-4.36782 15.12551,-4.2014 0.01995,0.10887 0.574749,3.591 1.232866,7.73811 l 1.196568,7.54022 0.872814,-1.96005 c 0.480041,-1.07803 1.827092,-4.32681 2.993446,-7.21951 z m 17.207003,-37.33809 c 0.937551,0.12282 2.349604,0.145 2.392518,0.0376 0.01565,-0.0392 9.32622,-14.19042 20.690138,-31.44719 11.36392,-17.25675 20.63262,-31.439481 20.59712,-31.51717 -0.12899,-0.282232 -9.60879,-6.288882 -9.79745,-6.207919 -0.19821,0.08506 -39.863329,63.349119 -39.902335,63.642409 -0.05334,0.40104 0.735312,2.22824 1.246978,2.88912 0.998686,1.2899 2.974666,2.36758 4.773031,2.60319 z" style="fill:#ffffff;stroke-width:0.135829;filter:url(#filter11698)"/></g></svg>