<?xml version="1.0" encoding="UTF-8" standalone="no"?>
<svg
   width="138.92mm"
   height="138.92mm"
   version="1.1"
   viewBox="0 0 138.92 138.92"
   id="svg138193"
   sodipodi:docname="eco-accounting-icon-from-ecobricks-org.svg"
   inkscape:version="1.3.2 (1:1.3.2+202311252150+091e20ef0f)"
   xmlns:inkscape="http://www.inkscape.org/namespaces/inkscape"
   xmlns:sodipodi="http://sodipodi.sourceforge.net/DTD/sodipodi-0.dtd"
   xmlns="http://www.w3.org/2000/svg"
   xmlns:svg="http://www.w3.org/2000/svg"
   xmlns:rdf="http://www.w3.org/1999/02/22-rdf-syntax-ns#"
   xmlns:cc="http://creativecommons.org/ns#"
   xmlns:dc="http://purl.org/dc/elements/1.1/">
  <defs
     id="defs138197" />
  <sodipodi:namedview
     id="namedview138195"
     pagecolor="#ffffff"
     bordercolor="#666666"
     borderopacity="1.0"
     inkscape:pageshadow="2"
     inkscape:pageopacity="0.0"
     inkscape:pagecheckerboard="0"
     inkscape:document-units="mm"
     showgrid="false"
     inkscape:zoom="1.0531482"
     inkscape:cx="161.42078"
     inkscape:cy="344.20607"
     inkscape:window-width="1280"
     inkscape:window-height="987"
     inkscape:window-x="0"
     inkscape:window-y="0"
     inkscape:window-maximized="1"
     inkscape:current-layer="g147947"
     inkscape:showpageshadow="2"
     inkscape:deskcolor="#d1d1d1" />
  <metadata
     id="metadata138177">
    <rdf:RDF>
      <cc:Work
         rdf:about="">
        <dc:format>image/svg+xml</dc:format>
        <dc:type
           rdf:resource="http://purl.org/dc/dcmitype/StillImage" />
      </cc:Work>
    </rdf:RDF>
  </metadata>
  <g
     transform="translate(-44.239 -65.104)"
     id="g138191">
    <g
       fill="#008000"
       id="g138189">
      <g
         transform="matrix(0.23775,0,0,0.23775,-766.77581,219.29589)"
         id="g138183" />
      <path
         d="m113.7 76.05c-32.295-1e-6 -58.516 26.221-58.516 58.516 2e-6 32.295 26.221 58.516 58.516 58.516 32.295 0 58.516-26.221 58.516-58.516 0-32.295-26.221-58.516-58.516-58.516zm0 3.7251c30.283 3e-6 54.791 24.509 54.791 54.791 0 30.283-24.509 54.791-54.791 54.791-30.283 0-54.791-24.509-54.791-54.791 0-30.283 24.509-54.791 54.791-54.791z"
         color="#000000"
         stroke-width=".96765"
         style="-inkscape-stroke:none"
         id="path138185" />
    </g>
  </g>
  <g
     style="font-variant:normal;font-weight:normal;font-size:3.57951px;line-height:3.4;font-family:Arvo;-inkscape-font-specification:Arvo;writing-mode:lr-tb;fill:#000000;fill-opacity:1;fill-rule:nonzero;stroke:none;stroke-width:0.506008"
     id="g5778"
     transform="matrix(11.204937,-0.1734853,0.16063353,12.101408,-880.77624,-3195.7706)">
    <g
       id="g147947">
      <path
         sodipodi:nodetypes="ccccc"
         id="path12177-6"
         d="m 79.435237,270.94117 c -0.130946,0.75948 -0.747356,0.96358 -1.147106,0.96747 -0.925295,0.0116 -1.30783,-0.64053 -1.262781,-1.01941 0.792951,0.0306 1.664767,0.0278 2.409887,0.0519 z"
         style="font-variant:normal;font-weight:normal;font-size:3.57951px;line-height:3.4;font-family:Arvo;-inkscape-font-specification:Arvo;writing-mode:lr-tb;opacity:1;fill:#888888;fill-opacity:1;fill-rule:nonzero;stroke:none;stroke-width:0.26472px;stroke-linecap:butt;stroke-linejoin:miter;stroke-opacity:1" />
      <path
         d="m 3077.6,-337.14 c -11.317,-0.25564 -14.342,-0.61047 -15.703,-1.842 -2.0209,-1.8289 -2.1911,-5.8098 -0.3556,-8.3212 1.2743,-1.7437 2.9792,-1.8312 40.781,-2.0929 l 39.451,-0.2731 v -233.28 l -3.0469,-0.52739 c -11.562,-2.0012 -91.084,-13.645 -91.689,-13.425 -0.415,0.15067 9.4457,21.657 21.912,47.792 20.391,42.746 23.109,47.941 27.065,51.728 5.5174,5.2822 6.2725,8.5882 4.1861,18.326 -3.7232,17.376 -16.17,33.989 -32.203,42.982 -10.047,5.6352 -19.054,7.9404 -31.225,7.9917 -7.1189,0.03 -12.851,-0.4839 -16.875,-1.5128 -18.04,-4.6128 -34.326,-17.78 -42.522,-34.378 -5.3261,-10.787 -7.8128,-21.257 -6.2766,-26.427 0.6093,-2.0506 2.5491,-4.7625 4.7606,-6.6555 3.2249,-2.7603 6.3222,-8.6004 22.777,-42.946 10.474,-21.863 21.385,-44.308 24.246,-49.877 l 5.2021,-10.127 -2.7207,-0.54414 c -4.5582,-0.91164 -5.9551,-5.8277 -2.7726,-9.7579 1.4249,-1.7597 2.5308,-2.1237 5.8593,-1.9283 3.9805,0.23366 33.807,4.5221 85.513,12.295 13.838,2.0802 25.722,3.7823 26.408,3.7823 0.9807,0 1.3147,-3.5663 1.5585,-16.641 0.3028,-16.241 0.3728,-16.747 2.9133,-21.069 7.2666,-12.362 24.59,-12.826 32.98,-0.88453 l 2.8541,4.0623 0.297,19.844 c 0.1634,10.914 0.6064,20.16 0.9846,20.547 0.3781,0.38681 24.502,4.285 53.609,8.6627 64.74,9.7368 63.614,9.549 65.213,10.876 1.7328,1.4382 1.6534,5.5578 -0.1571,8.1426 -1.0886,1.5541 -2.3988,2.0836 -5.1563,2.0836 -2.5206,0 -3.6968,0.41219 -3.6968,1.2955 0,0.71254 9.9158,22.123 22.035,47.578 19.427,40.804 22.476,46.651 25.762,49.391 4.8494,4.0449 6.1686,8.5665 4.6504,15.94 -5.0225,24.392 -22.557,43.457 -46.822,50.908 -9.8878,3.0362 -25.588,3.026 -35.625,-0.0231 -23.982,-7.2852 -41.501,-25.734 -46.556,-49.027 -2.0555,-9.4719 -1.3483,-12.514 4.1436,-17.825 4.0007,-3.8687 6.7198,-9.0725 27.308,-52.262 12.777,-26.804 22.497,-48.296 22.031,-48.714 -0.7824,-0.70318 -82.369,-13.254 -85.911,-13.216 -1.5533,0.0166 -1.6406,6.0488 -1.6406,113.41 v 113.39 l 39.232,0.28194 c 31.558,0.2268 39.535,0.5336 40.781,1.5686 1.8997,1.5779 2.021,6.6156 0.2188,9.081 -1.2992,1.7773 -3.2975,1.8211 -85.547,1.8759 -46.319,0.0308 -90.524,-0.0863 -98.234,-0.26052 z m 219.53,-70.795 c 17.8,-6.2736 32.218,-23.207 36.334,-42.673 l 0.6442,-3.0469 -110.6427,-0.18051 c 2.1085,11.341 9.0982,23.64811 18.5394,33.02411 7.5253,7.4739 15.027,12.072 23.623,14.481 7.8012,2.1861 22.933,1.4148 31.504,-1.6059 z m -250.98,-32.047 c 17.158,-3.6458 31.39,-15.013 39.873,-31.845 2.5055,-4.972 4.1238,-5.4179 4.1238,-9.2927 l 0,-5.0303 c -56.9552,-2.19359 -68.5393,-0.49192 -108.8484,-2.1913 l 0.6503,3.9844 c 3.3497,20.524 20.437,38.235 42.64,44.195 6.5643,1.7623 13.831,1.8231 21.562,0.18028 z m 282.6343,-13.53324 c 10.074,-0.0158 1.0122,-10.53776 -27.5963,-69.76276 -7.1539,-14.81 -20.652,-34.564 -21.093,-34.564 -14.844,15.539 -22.859,36.397 -30.483,52.583 -14.888,31.045 -25.394,50.152 -26.029,51.39 53.7351,-0.0895 56.97,-0.28674 105.2013,0.35376 z M 3078.03,-513.634 c -23.491,-52.857 -40.512,-81.329 -41.178,-80.663 -0.9795,0.97949 -56.17,105.36333 -55.834,106.37333 56.8291,0.4365 63.3893,0.88471 109.1244,1.76997 z"
         stroke-width="0.9375"
         id="path138179"
         sodipodi:nodetypes="ccssccscccccsccsccccsssssscsccccccsscccsccccccscscssccccccccccccsccsccccscccccsccc"
         transform="matrix(0.02154725,3.0890052e-4,-2.8601721e-4,0.01995103,12.649349,279.70398)"
         style="fill:#008000;fill-opacity:1" />
      <path
         sodipodi:nodetypes="ccccc"
         id="path12177"
         d="m 84.629,271.68025 c -0.132589,0.76901 -0.756733,0.97567 -1.161498,0.97961 -0.936905,0.0117 -1.324239,-0.64857 -1.278625,-1.0322 0.8029,0.031 1.685654,0.0281 2.440123,0.0525 z"
         style="fill:#00bd00;fill-opacity:1;stroke:none;stroke-width:0.268041px;stroke-linecap:butt;stroke-linejoin:miter;stroke-opacity:1" />
    </g>
  </g>
</svg>
