<?xml version="1.0" encoding="UTF-8" standalone="no"?>
<!-- Created with Inkscape (http://www.inkscape.org/) -->

<svg
   version="1.1"
   id="svg5208"
   width="205.1282"
   height="205.1282"
   viewBox="0 0 205.1282 205.1282"
   sodipodi:docname="ecobrickable-icon-from-ecobricks-org-black.svg"
   inkscape:version="1.1.2 (0a00cf5339, 2022-02-04)"
   xmlns:inkscape="http://www.inkscape.org/namespaces/inkscape"
   xmlns:sodipodi="http://sodipodi.sourceforge.net/DTD/sodipodi-0.dtd"
   xmlns="http://www.w3.org/2000/svg"
   xmlns:svg="http://www.w3.org/2000/svg">
  <defs
     id="defs5212" />
  <sodipodi:namedview
     id="namedview5210"
     pagecolor="#ffffff"
     bordercolor="#666666"
     borderopacity="1.0"
     inkscape:pageshadow="2"
     inkscape:pageopacity="0.0"
     inkscape:pagecheckerboard="0"
     showgrid="false"
     inkscape:zoom="3.939"
     inkscape:cx="102.5641"
     inkscape:cy="98.882965"
     inkscape:window-width="1920"
     inkscape:window-height="1016"
     inkscape:window-x="0"
     inkscape:window-y="0"
     inkscape:window-maximized="1"
     inkscape:current-layer="g5214" />
  <g
     inkscape:groupmode="layer"
     inkscape:label="Image"
     id="g5214">
    <path
       id="path5293-0"
       style="fill:#000000;fill-opacity:1;stroke-width:0.208176"
       d="m 104.90748,10.470906 c -11.942448,-0.0776 -23.78471,2.177392 -35.08016,6.735361 -24.532058,9.899226 -43.77962,30.285454 -52.324928,55.421022 -9.4481388,27.791261 -5.098434,58.228181 11.76014,82.293101 15.929373,22.73853 41.635918,37.14449 69.36152,38.87004 17.588058,1.09462 35.268908,-2.95761 50.794678,-11.6412 3.3024,-1.84703 8.94226,-5.65861 12.07529,-8.16251 14.0842,-11.25602 24.46219,-26.20846 30.05737,-43.30806 7.57459,-23.14895 5.59912,-48.422507 -5.48263,-70.148447 -9.87072,-19.351718 -25.94828,-34.286325 -46.22581,-42.941391 -3.02868,-1.292727 -10.17291,-3.661942 -13.42712,-4.451917 -7.14218,-1.733798 -14.34289,-2.619433 -21.50835,-2.665999 z m 13.79578,13.514328 c 0.72972,-0.02204 1.48127,-0.01823 2.28544,0.01008 2.24992,0.07874 3.43477,0.223262 4.58867,0.558966 8.41562,2.448333 12.78182,10.643472 12.76112,23.950368 -0.0175,11.20997 -3.38725,23.327835 -11.47468,41.260531 l -0.62835,1.393465 3.05648,1.589663 c 3.51573,1.827255 3.99403,2.199062 3.99403,3.106042 0,0.946635 -0.51559,1.548829 -1.45292,1.698707 -0.80084,0.128007 -0.81499,0.148126 -2.93556,4.007904 -1.17223,2.13366 -2.19829,4.00928 -2.27948,4.1685 -0.26561,0.52062 0.42946,2.56764 1.99207,5.87311 1.82727,3.86539 2.37021,5.65615 2.52527,8.30721 0.11136,1.90364 0.0851,2.07398 -0.73737,4.57877 -1.47873,4.50332 -3.4047,8.30047 -5.9881,11.80571 -0.6082,0.82522 -2.38915,3.02648 -3.95637,4.89197 -4.53447,5.3974 -5.83411,7.64592 -8.40038,14.52917 -2.69983,7.24159 -5.37941,12.71003 -9.50244,19.38744 -1.80745,2.92726 -4.147729,4.78669 -7.139718,5.67493 -0.667201,0.19806 -1.861223,0.3331 -2.913771,0.32903 -1.719994,-0.006 -1.857233,-0.0427 -3.827542,-1.03864 -1.123837,-0.56809 -3.370938,-1.893 -4.995014,-2.9435 -7.021448,-4.54168 -8.926104,-5.5814 -12.120869,-6.61645 -2.439085,-0.79018 -6.572102,-3.17922 -7.7324,-4.46974 -2.378546,-2.64551 -3.319864,-6.61202 -2.449951,-10.32307 0.494943,-2.11131 5.243536,-10.7492 8.582746,-15.61343 0.746692,-1.08772 2.516252,-3.45419 3.932596,-5.25864 4.871092,-6.20591 5.973664,-8.23046 8.390454,-15.39738 1.807093,-5.3589 2.800344,-7.73007 4.438056,-10.59857 1.310727,-2.29582 3.854633,-5.70791 5.59759,-7.50643 2.295363,-2.368568 5.168121,-3.426083 10.891933,-4.011872 1.71747,-0.17577 3.73148,-0.484301 4.47571,-0.685835 l 1.35183,-0.366693 2.33101,-4.055488 c 2.18763,-3.806967 2.32388,-4.110107 2.21209,-4.925657 -0.10197,-0.744092 -0.0417,-0.947494 0.41821,-1.407325 0.95726,-0.957236 1.74307,-0.717913 5.90882,1.791866 l 0.66798,0.40238 0.333,-0.792864 c 0.83183,-1.987733 3.28754,-9.035731 4.2656,-12.241787 2.90338,-9.517272 4.52812,-17.642925 4.72546,-23.633226 0.16835,-5.110773 -0.34179,-7.642922 -1.82754,-9.06637 -0.49423,-0.473497 -0.84466,-0.600834 -1.85531,-0.673932 -1.09393,-0.07913 -1.43079,-0.0017 -2.75915,0.630323 -2.85257,1.357126 -6.52183,4.81688 -11.21107,10.570825 -1.16639,1.431223 -2.1817,2.628131 -2.25568,2.658066 -0.13409,0.05422 -7.9499,-26.485914 -7.93457,-26.943415 0.0158,-0.471133 6.05748,-2.682606 9.80174,-3.587699 2.6644,-0.644055 4.66119,-0.950706 6.85033,-1.016845 z m -23.702594,5.205137 c 0.08044,0.146047 2.022444,6.120384 4.315153,13.276469 6.027601,18.813672 6.283411,19.621848 6.283411,19.906778 0,0.142311 -0.94256,1.175494 -2.09313,2.295331 -1.93671,1.884961 -2.41172,2.531246 -6.414269,8.705616 -2.377847,3.668115 -4.832775,7.438524 -5.454887,8.380554 -0.622081,0.942018 -1.177638,1.709626 -1.234876,1.704649 -0.0573,-0.0053 -0.80825,-0.621274 -1.666989,-1.369674 C 87.87635,81.341703 83.708877,77.890309 79.472472,74.421151 72.339762,68.580205 67.119487,64.223125 64.717309,62.104042 l -0.985134,-0.870168 8.079281,-10.372608 c 4.443988,-5.705007 8.176812,-10.372616 8.293327,-10.372616 0.116493,0 2.549933,2.433337 5.409299,5.407317 2.859366,2.973978 6.792864,7.06531 8.739319,9.090158 1.946444,2.024842 3.561553,3.658532 3.589674,3.631314 0.0382,-0.03703 -6.352348,-14.457705 -10.430099,-23.536105 L 87.1335,34.460919 89.23657,32.912858 c 4.166103,-3.070476 5.609518,-4.00316 5.764096,-3.722487 z m 25.817554,59.260474 -0.30127,0.584728 c -0.16539,0.321191 -1.25789,2.644557 -2.42815,5.163504 -4.5835,9.865733 -10.03055,20.261243 -14.45188,27.583653 -3.0796,5.10027 -6.461025,10.40766 -6.632296,10.4083 -0.08946,3.3e-4 -1.716396,-1.12787 -3.615448,-2.50745 -1.899064,-1.37955 -3.484949,-2.47731 -3.524276,-2.43803 -0.05879,0.0587 -1.36753,18.18818 -1.585715,21.96426 -0.0347,0.60116 -0.0521,1.09223 -0.03757,1.09214 0.01433,-6e-5 0.55821,-0.23541 1.209123,-0.52328 0.650912,-0.28784 3.966309,-1.65367 7.365686,-3.03468 9.579516,-3.89173 14.194196,-5.84752 14.194196,-6.01583 0,-0.0848 -1.54372,-1.06404 -3.43109,-2.17641 l -3.43113,-2.02179 0.33698,-0.65412 c 0.18577,-0.35923 1.08615,-2.01499 2,-3.67888 2.18259,-3.97393 5.99721,-11.60856 8.28342,-16.57872 3.46414,-7.531 11.04826,-24.480467 10.98311,-24.545027 -0.0357,-0.03555 -1.16035,-0.640736 -2.49949,-1.3439 z m 53.6926,52.140525 c 0.17665,0.006 0.35834,0.0605 0.54508,0.16455 0.18441,0.10272 0.32783,0.2306 0.43012,0.38057 0.10092,0.15233 0.15436,0.31572 0.15859,0.49157 0.004,0.17585 -0.0446,0.35353 -0.14469,0.5332 -0.0685,0.12285 -0.15586,0.22937 -0.26165,0.31913 -0.10336,0.091 -0.21293,0.15189 -0.32706,0.18433 l -0.1764,-0.2319 c 0.11365,-0.0481 0.21084,-0.1058 0.29135,-0.17245 0.0815,-0.063 0.14816,-0.14011 0.19824,-0.22994 0.0961,-0.17256 0.1153,-0.34281 0.0574,-0.51138 -0.0592,-0.16622 -0.19717,-0.31023 -0.41229,-0.43013 -0.21038,-0.11733 -0.40074,-0.15537 -0.57087,-0.11692 -0.17012,0.0384 -0.30355,0.14581 -0.40238,0.32309 -0.0473,0.0851 -0.0789,0.17991 -0.0931,0.28346 -0.0143,0.10357 -0.0108,0.21563 0.01,0.33893 l -0.29136,-0.0259 c -0.0286,-0.11517 -0.0319,-0.243 -0.01,-0.38256 0.0244,-0.13822 0.0709,-0.27116 0.14073,-0.39642 0.10007,-0.17968 0.22455,-0.31254 0.37265,-0.40042 0.14678,-0.0855 0.30899,-0.12637 0.48562,-0.12096 z m -0.99505,1.77009 c 0.17644,0.0108 0.35705,0.0697 0.54113,0.1784 0.18175,0.1073 0.32169,0.236 0.42022,0.38849 0.0972,0.15482 0.14487,0.31964 0.14469,0.49554 -1.8e-4,0.17592 -0.0519,0.35412 -0.15658,0.53122 -0.0716,0.12111 -0.16156,0.22412 -0.26958,0.31121 -0.10569,0.0884 -0.21612,0.14683 -0.331,0.1764 l -0.17048,-0.23587 c 0.11476,-0.0453 0.21317,-0.10187 0.29534,-0.16652 0.0831,-0.061 0.15187,-0.13542 0.20415,-0.22398 0.1005,-0.1701 0.12301,-0.33944 0.0694,-0.50939 -0.0551,-0.16765 -0.18834,-0.31482 -0.40039,-0.44006 -0.20738,-0.12245 -0.39585,-0.16694 -0.56689,-0.13287 -0.17103,0.0341 -0.30906,0.13841 -0.41229,0.31319 -0.0496,0.0838 -0.0823,0.17833 -0.0992,0.28147 -0.0169,0.10314 -0.0159,0.21713 8e-4,0.34092 l -0.29137,-0.0357 c -0.0259,-0.11583 -0.0255,-0.24359 0,-0.38255 0.0279,-0.13758 0.0778,-0.26699 0.15064,-0.39049 0.10463,-0.17709 0.23229,-0.30835 0.38256,-0.39248 0.14888,-0.0817 0.31117,-0.1169 0.48761,-0.10703 z m -2.01981,2.44201 2.42418,1.57581 -0.64619,0.99305 c -0.1593,0.24508 -0.33997,0.3997 -0.54112,0.46582 -0.20038,0.0698 -0.40261,0.0401 -0.60457,-0.0911 -0.14067,-0.0915 -0.23405,-0.2083 -0.28146,-0.34887 -0.0423,-0.12394 -0.0399,-0.25901 -0.006,-0.40237 -0.12042,0.11394 -0.2527,0.18528 -0.4004,0.20218 -0.1604,0.0185 -0.32084,-0.0236 -0.47967,-0.12679 -0.211,-0.13719 -0.32804,-0.31504 -0.35085,-0.53321 -0.022,-0.21443 0.0519,-0.45094 0.22003,-0.70962 z m 0.0534,0.47571 -0.446,0.68781 c -0.11947,0.18379 -0.17454,0.3393 -0.16254,0.46978 0.0121,0.13044 0.0908,0.24205 0.23391,0.33498 0.14294,0.093 0.27847,0.11813 0.40635,0.0754 0.12638,-0.0404 0.24868,-0.1515 0.36667,-0.33302 l 0.446,-0.68581 z m 1.10603,0.71952 -0.41031,0.63232 c -0.11502,0.17696 -0.16712,0.33107 -0.15657,0.46382 0.0108,0.13275 0.0838,0.24448 0.22001,0.33299 0.13165,0.0855 0.25723,0.10517 0.38057,0.0594 0.12408,-0.042 0.24621,-0.15376 0.36272,-0.33302 l 0.41032,-0.6323 z m -3.05252,1.64916 0.9554,0.66798 2.06938,0.0477 -0.24975,0.35877 -1.65709,-0.0614 0.62835,1.53617 -0.2458,0.3528 -0.7651,-1.92664 -0.95144,-0.664 z m -2.27154,1.88701 2.8999,2.18236 -0.21012,0.27948 -2.8999,-2.18235 z m -0.70763,2.1447 2.23786,1.82755 -0.18039,0.22 -2.82259,-0.10908 1.74629,1.42717 -0.22399,0.27751 -2.23983,-1.82953 0.18235,-0.22202 2.83449,0.11096 -1.75619,-1.4331 z m -1.9326,2.3429 2.1665,1.91278 -0.65412,0.7433 c -0.2042,0.23128 -0.42165,0.39065 -0.65016,0.47771 -0.22825,0.0908 -0.46018,0.10771 -0.69769,0.0496 -0.2373,-0.0542 -0.47048,-0.18411 -0.69971,-0.38652 -0.23127,-0.20421 -0.39046,-0.4216 -0.47572,-0.65213 -0.0832,-0.22875 -0.0957,-0.46213 -0.0357,-0.70169 0.0582,-0.23752 0.19006,-0.47047 0.39246,-0.69971 z m -0.01,0.48959 -0.39246,0.44401 c -0.24183,0.27386 -0.35103,0.54146 -0.32904,0.80277 0.0201,0.26332 0.17193,0.52009 0.45391,0.76907 0.56194,0.49617 1.08425,0.47043 1.56789,-0.0774 l 0.39247,-0.44399 z m -3.3974,3.58969 c 0.0847,3.5e-4 0.16852,0.0139 0.25371,0.0397 0.17229,0.0534 0.33633,0.15642 0.49157,0.31119 0.14948,0.14905 0.25347,0.30946 0.30921,0.47971 0.0538,0.17214 0.0598,0.34086 0.0197,0.50742 -0.038,0.16846 -0.12395,0.31977 -0.25769,0.4539 -0.1299,0.13032 -0.26901,0.2131 -0.41824,0.24777 -0.15112,0.0365 -0.30477,0.0255 -0.45986,-0.0337 -0.15507,-0.0554 -0.30634,-0.15614 -0.45392,-0.30328 l -0.0456,-0.0456 1.04063,-1.04459 c -0.1761,-0.16926 -0.34833,-0.2649 -0.51538,-0.2775 -0.17224,-0.0108 -0.33685,0.061 -0.49354,0.21803 -0.0841,0.0842 -0.15061,0.17806 -0.2002,0.28148 -0.0477,0.10526 -0.0779,0.22048 -0.091,0.34488 l -0.26956,-0.10315 c 0.004,-0.12245 0.0381,-0.25049 0.10314,-0.38453 0.0669,-0.13208 0.15055,-0.24934 0.25373,-0.35283 0.15094,-0.1514 0.31135,-0.25129 0.47968,-0.30129 0.0841,-0.0251 0.16902,-0.038 0.2537,-0.0376 z m 0.62636,0.78692 -0.78692,0.78887 c 0.11989,0.0995 0.23837,0.17197 0.35482,0.18633 0.1531,0.0189 0.29416,-0.036 0.42217,-0.1645 0.13383,-0.13411 0.18987,-0.28768 0.17047,-0.45988 -0.0136,-0.11623 -0.0754,-0.23383 -0.16054,-0.35082 z m -2.19029,0.77302 c 0.0831,0.006 0.16627,0.0206 0.24975,0.0496 0.16699,0.0577 0.32249,0.16415 0.46978,0.31912 0.14541,0.153 0.24629,0.31795 0.2993,0.49158 0.0509,0.17548 0.0522,0.34621 0.004,0.51535 -0.0483,0.16914 -0.14826,0.32611 -0.29733,0.46779 -0.10208,0.0969 -0.21718,0.1718 -0.34488,0.22597 -0.12586,0.0561 -0.24811,0.0823 -0.36672,0.0793 l -0.0992,-0.27555 c 0.12286,-0.0121 0.23429,-0.0376 0.331,-0.0774 0.0967,-0.0357 0.18116,-0.0898 0.25571,-0.16057 0.14319,-0.13609 0.21315,-0.29161 0.20812,-0.46976 -0.006,-0.17629 -0.0959,-0.35469 -0.26561,-0.5332 -0.16592,-0.17459 -0.33556,-0.26945 -0.50942,-0.28346 -0.17383,-0.0139 -0.33454,0.0504 -0.48166,0.1903 -0.0707,0.0671 -0.12786,0.14726 -0.17245,0.24182 -0.0446,0.0945 -0.0745,0.20305 -0.0912,0.32705 l -0.27158,-0.11299 c 0.006,-0.11852 0.0426,-0.24003 0.10506,-0.36668 0.0644,-0.12476 0.14776,-0.23619 0.25173,-0.33498 0.14909,-0.1417 0.30817,-0.23377 0.4757,-0.27355 0.0829,-0.019 0.16663,-0.0248 0.24978,-0.0197 z m -1.4767,1.38753 c 0.0831,0.006 0.16709,0.0263 0.24974,0.0574 0.16713,0.0644 0.32305,0.17595 0.46779,0.33696 0.14294,0.159 0.23708,0.3265 0.28347,0.4995 0.0481,0.17503 0.0468,0.34336 -0.004,0.50546 -0.0528,0.16392 -0.1524,0.31193 -0.29931,0.444 -0.14893,0.13396 -0.30717,0.21646 -0.47373,0.24975 -0.16659,0.0334 -0.33454,0.017 -0.50346,-0.0496 -0.16713,-0.0644 -0.3209,-0.176 -0.46383,-0.33499 -0.14475,-0.16102 -0.24105,-0.32847 -0.28743,-0.50149 -0.0446,-0.17101 -0.0408,-0.3374 0.009,-0.49951 0.0507,-0.16211 0.15036,-0.31011 0.2993,-0.44401 0.14692,-0.13207 0.30515,-0.21464 0.47374,-0.24973 0.0833,-0.0166 0.16481,-0.0213 0.24777,-0.0139 z m -0.0574,0.32903 c -0.16352,-0.0241 -0.31892,0.0282 -0.46382,0.15856 -0.14491,0.1303 -0.21467,0.27884 -0.20812,0.44402 0.009,0.16715 0.0972,0.34209 0.26361,0.52724 0.16467,0.18315 0.33018,0.28697 0.49753,0.3112 0.16533,0.0261 0.31893,-0.0242 0.46185,-0.15263 0.14088,-0.12666 0.2085,-0.27503 0.20217,-0.44399 -0.006,-0.16898 -0.091,-0.3461 -0.2557,-0.52925 -0.16644,-0.18515 -0.33219,-0.28911 -0.49752,-0.31515 z m -1.75224,0.93953 1.92865,2.28345 -0.28344,0.23785 -0.84241,-0.99702 c 0.0324,0.11596 0.0439,0.23264 0.0139,0.34886 -0.0398,0.15415 -0.12909,0.28928 -0.26758,0.40634 -0.13847,0.11705 -0.28674,0.18691 -0.446,0.20814 -0.15924,0.0213 -0.3207,-0.006 -0.48164,-0.0793 -0.16129,-0.0693 -0.30994,-0.18557 -0.44798,-0.34885 -0.13802,-0.16328 -0.23063,-0.33079 -0.27552,-0.50544 -0.0453,-0.17088 -0.0436,-0.33626 0.004,-0.49357 0.0474,-0.15349 0.13912,-0.28707 0.27553,-0.40238 0.13847,-0.11703 0.28712,-0.18255 0.444,-0.19823 0.12393,-0.0108 0.2412,0.0209 0.3548,0.0774 l -0.25571,-0.3013 z m -0.0991,0.69574 c -0.16446,-0.0311 -0.32095,0.017 -0.46977,0.14271 -0.14674,0.1241 -0.21708,0.27062 -0.21211,0.44003 0.006,0.17149 0.0887,0.34919 0.24581,0.5352 0.15375,0.18187 0.31323,0.28806 0.47769,0.31912 0.16621,0.0332 0.32105,-0.0108 0.4678,-0.13477 0.1488,-0.12584 0.22107,-0.27458 0.21605,-0.444 -0.006,-0.16941 -0.0842,-0.34528 -0.23985,-0.52924 -0.15724,-0.18601 -0.3194,-0.29591 -0.48562,-0.32904 z m -1.78196,0.8781 0.91973,1.14568 c 0.0593,0.0739 0.12084,0.1456 0.18435,0.21607 0.063,0.0743 0.12827,0.14472 0.1982,0.2101 l -0.27157,0.21804 -0.27551,-0.28742 c 0.0472,0.12653 0.0665,0.24884 0.0337,0.3667 -0.0415,0.15138 -0.12339,0.27633 -0.24577,0.37463 -0.0295,0.0236 -0.0588,0.043 -0.0852,0.0575 -0.0268,0.0182 -0.0531,0.033 -0.0793,0.0436 l -0.20813,-0.26561 c 0.0681,-0.0235 0.13478,-0.0605 0.20018,-0.11299 0.10759,-0.0865 0.17606,-0.17853 0.20419,-0.2775 0.0281,-0.099 0.0281,-0.1979 0,-0.29335 -0.0282,-0.0955 -0.0745,-0.18331 -0.14075,-0.26561 l -0.72348,-0.8999 z m -1.17343,0.9316 1.25471,1.6115 -0.29337,0.22795 -1.25271,-1.61149 z m -0.99108,0.89 c 0.16891,-0.0182 0.33258,0.0121 0.49157,0.0892 0.15901,0.0771 0.30213,0.20141 0.43013,0.37265 0.12639,0.16908 0.20566,0.34265 0.23786,0.52132 0.0302,0.18028 0.0121,0.3511 -0.0555,0.51336 -0.0679,0.16227 -0.18412,0.30501 -0.34885,0.42816 -0.11272,0.0842 -0.23745,0.14557 -0.37066,0.18433 -0.13153,0.0408 -0.25522,0.0545 -0.37264,0.0376 l -0.0653,-0.2854 c 0.12341,7.9e-4 0.23427,-0.0121 0.33498,-0.0397 0.10008,-0.0241 0.19119,-0.0652 0.27355,-0.12678 0.15824,-0.11828 0.24566,-0.26649 0.26165,-0.44401 0.0138,-0.17589 -0.0528,-0.36368 -0.20022,-0.56094 -0.14419,-0.19291 -0.30075,-0.30656 -0.47175,-0.34095 -0.17098,-0.0343 -0.33891,0.01 -0.50149,0.13087 -0.0781,0.0583 -0.14484,0.13125 -0.2002,0.21999 -0.0554,0.0887 -0.0977,0.19399 -0.12881,0.31516 l -0.2557,-0.14269 c 0.0209,-0.11692 0.0695,-0.23443 0.14668,-0.35284 0.0786,-0.11624 0.17649,-0.2174 0.29138,-0.30326 0.16473,-0.12314 0.33238,-0.1963 0.50348,-0.21606 z m -1.40733,0.91773 1.72449,2.43806 -0.30129,0.21406 -1.08028,-1.52625 -0.22993,1.29038 -0.3786,0.2676 0.25372,-1.37563 -1.50247,-0.23587 0.38651,-0.27553 1.38752,0.21011 -0.56294,-0.79484 z m 3.97224,0.16253 0.2458,0.31715 -0.34292,0.2676 -0.24579,-0.31715 z m -5.44298,1.15957 0.0516,0.28741 c -0.13663,-0.01 -0.26328,7e-4 -0.38256,0.0318 -0.12002,0.0348 -0.23987,0.0921 -0.35677,0.17047 -0.12139,0.0814 -0.20003,0.16315 -0.23589,0.24579 -0.0366,0.0863 -0.029,0.16907 0.0236,0.24776 0.0423,0.063 0.0994,0.0972 0.1685,0.10315 0.0684,0.01 0.15973,-0.006 0.27748,-0.0496 l 0.32904,-0.12288 c 0.16723,-0.0663 0.31703,-0.0857 0.44995,-0.0574 0.1307,0.0299 0.2344,0.10134 0.31119,0.21605 0.0663,0.099 0.0979,0.20655 0.0951,0.31913 -0.006,0.11408 -0.0427,0.22401 -0.11298,0.33301 -0.0688,0.11123 -0.17032,0.21291 -0.30525,0.30326 -0.11921,0.0797 -0.24333,0.13594 -0.37464,0.16848 -0.13355,0.0341 -0.26212,0.0401 -0.38451,0.0178 l -0.0496,-0.28543 c 0.12612,0.0136 0.24233,0.009 0.34885,-0.0179 0.108,-0.0235 0.20909,-0.0671 0.30129,-0.12881 0.11462,-0.0768 0.18889,-0.15913 0.22398,-0.24777 0.0329,-0.0871 0.0235,-0.16934 -0.0279,-0.2458 -0.0435,-0.065 -0.0984,-0.10378 -0.16451,-0.11501 -0.0661,-0.0108 -0.15096,7.9e-4 -0.25372,0.0376 l -0.333,0.12288 c -0.18448,0.0746 -0.34259,0.0969 -0.47176,0.0694 -0.12761,-0.0254 -0.23185,-0.0986 -0.31318,-0.22002 -0.0994,-0.14842 -0.11866,-0.30843 -0.0575,-0.4797 0.063,-0.169 0.19749,-0.32129 0.40437,-0.45985 0.29008,-0.19424 0.56969,-0.2755 0.83846,-0.24379 z m -1.85531,0.94747 0.24381,0.37859 -0.3786,0.24381 -0.24579,-0.3786 z m -1.0327,0.77898 c 0.16986,-0.003 0.33027,0.0397 0.48165,0.13085 0.15281,0.0935 0.28698,0.23383 0.40041,0.41824 0.11204,0.1821 0.1738,0.36258 0.18829,0.54112 0.0159,0.18085 -0.0162,0.34522 -0.0952,0.49554 -0.0814,0.15175 -0.20436,0.27906 -0.37263,0.38256 -0.1706,0.10485 -0.34155,0.15974 -0.5114,0.16254 -0.16984,0.003 -0.3314,-0.0429 -0.48564,-0.13876 -0.1528,-0.0935 -0.28641,-0.23215 -0.3984,-0.41427 -0.1134,-0.18442 -0.17779,-0.36654 -0.19227,-0.54508 -0.0136,-0.17625 0.02,-0.33928 0.0992,-0.4896 0.0792,-0.15033 0.20405,-0.27763 0.37464,-0.38256 0.16826,-0.10357 0.33924,-0.15632 0.5114,-0.16055 z m -0.10703,0.32111 c -0.0806,0.0121 -0.16281,0.044 -0.24579,0.0952 -0.16597,0.10207 -0.26019,0.23476 -0.28346,0.39839 -0.0217,0.16595 0.0319,0.35483 0.16254,0.56691 0.12896,0.20976 0.27385,0.34249 0.4341,0.39643 0.15796,0.0554 0.31799,0.0334 0.48167,-0.0674 0.16136,-0.0992 0.25334,-0.23304 0.2775,-0.40039 0.0242,-0.16736 -0.0277,-0.35713 -0.15661,-0.56689 -0.13044,-0.21208 -0.27415,-0.34504 -0.43209,-0.40042 -0.0782,-0.0264 -0.15725,-0.0341 -0.23786,-0.0217 z m -1.6571,0.62834 0.73936,1.27056 c 0.0477,0.0818 0.0981,0.1627 0.15063,0.24184 0.0513,0.0829 0.10516,0.16082 0.16453,0.23586 l -0.30128,0.17642 -0.22993,-0.32506 c 0.0279,0.1322 0.0281,0.257 -0.0217,0.36866 -0.0636,0.14355 -0.16368,0.25401 -0.29931,0.333 -0.0328,0.0191 -0.063,0.0334 -0.091,0.0436 -0.0293,0.0139 -0.0577,0.0251 -0.0852,0.0316 l -0.1665,-0.29333 c 0.0708,-0.0136 0.14355,-0.0411 0.21606,-0.0832 0.11922,-0.0695 0.1993,-0.15013 0.24183,-0.24381 0.0426,-0.0936 0.0573,-0.19081 0.0435,-0.28939 -0.0136,-0.0985 -0.0459,-0.19225 -0.0991,-0.28346 l -0.58078,-0.99702 z m -1.67886,0.16649 0.0852,0.2914 c -0.14667,-0.003 -0.27722,0.01 -0.39246,0.0357 -0.1176,0.0277 -0.23743,0.0749 -0.36078,0.1427 -0.16835,0.0925 -0.2714,0.20784 -0.30721,0.34492 -0.0395,0.13598 -0.0108,0.2903 0.0852,0.46578 l 0.24381,0.44205 c -0.006,-0.0757 -0.0149,-0.15102 8e-4,-0.22399 0.0228,-0.0991 0.068,-0.19132 0.13476,-0.27751 0.0645,-0.0848 0.15219,-0.15874 0.26364,-0.22002 0.15651,-0.0861 0.31634,-0.12598 0.47771,-0.11894 0.16266,0.009 0.3141,0.0615 0.45588,0.15659 0.13943,0.0964 0.25702,0.23443 0.3548,0.41229 0.0977,0.17787 0.14998,0.35199 0.1566,0.52129 0.006,0.17302 -0.0305,0.3278 -0.11096,0.46781 -0.0793,0.14237 -0.19829,0.25684 -0.35481,0.34292 -0.16362,0.09 -0.32349,0.12705 -0.48167,0.10905 -0.12246,-0.0121 -0.22899,-0.0658 -0.32704,-0.13875 l 0.17641,0.31914 -0.32508,0.17838 -0.96926,-1.76609 c -0.14995,-0.27271 -0.19086,-0.51602 -0.12288,-0.72943 0.0643,-0.21448 0.23274,-0.39514 0.50546,-0.54511 0.27273,-0.14994 0.54263,-0.22022 0.81071,-0.2101 z m 0.0773,1.22498 c -0.0814,0.01 -0.1636,0.037 -0.24777,0.0832 -0.16838,0.0925 -0.27038,0.21934 -0.30524,0.38059 -0.0337,0.1636 0.004,0.3427 0.11094,0.53715 0.10691,0.19447 0.23832,0.32128 0.39447,0.38058 0.15614,0.0592 0.31724,0.041 0.48562,-0.0516 0.16839,-0.0925 0.27128,-0.21962 0.30722,-0.38452 0.036,-0.16492 -1e-4,-0.34469 -0.10703,-0.53916 -0.10825,-0.19684 -0.2412,-0.32295 -0.39841,-0.37858 -0.0786,-0.0278 -0.15845,-0.0372 -0.23984,-0.0278 z m -1.57779,0.13086 0.58473,3.38353 -0.29533,0.15462 -0.58079,-3.38552 z m -1.28841,0.92763 1.31813,2.67989 -0.33101,0.16452 -0.57681,-1.17343 c 0.003,0.1207 -0.0139,0.23711 -0.0713,0.34291 -0.076,0.1399 -0.19408,0.24901 -0.3568,0.32903 -0.16269,0.08 -0.32399,0.11123 -0.48364,0.0931 -0.15964,-0.0181 -0.3095,-0.0824 -0.44797,-0.19224 -0.13966,-0.10622 -0.2565,-0.25415 -0.35082,-0.44599 -0.0943,-0.19187 -0.14151,-0.37864 -0.14272,-0.55898 -0.003,-0.17671 0.0384,-0.33465 0.12287,-0.47571 0.0832,-0.13742 0.20443,-0.24626 0.36472,-0.32508 0.16271,-0.08 0.32172,-0.10812 0.4777,-0.0852 0.12246,0.0197 0.22679,0.0806 0.32309,0.16254 l -0.17245,-0.35481 z m -0.4995,0.60259 c -0.0817,0.004 -0.16629,0.0283 -0.25372,0.0713 -0.17242,0.0848 -0.27698,0.20905 -0.31318,0.37464 -0.0351,0.16799 0.003,0.36218 0.10908,0.58075 0.10516,0.21373 0.2325,0.35616 0.38453,0.42617 0.15322,0.0723 0.31717,0.0649 0.48959,-0.0197 0.17486,-0.0859 0.27897,-0.21104 0.31517,-0.37661 0.0362,-0.16557 7.9e-4,-0.3567 -0.10506,-0.57285 -0.10744,-0.21856 -0.23725,-0.36366 -0.39049,-0.43608 -0.076,-0.0351 -0.15414,-0.0516 -0.23586,-0.0477 z m -1.70663,0.4658 0.61643,1.33597 c 0.0397,0.086 0.0823,0.16999 0.12679,0.25373 0.0431,0.0874 0.0906,0.17139 0.14274,0.25174 l -0.31716,0.14666 -0.1982,-0.3449 c 0.0149,0.13369 0.003,0.25669 -0.0574,0.36274 -0.077,0.13683 -0.18653,0.23952 -0.32905,0.30526 -0.0343,0.0158 -0.0659,0.0283 -0.0951,0.0357 -0.0306,0.0108 -0.0612,0.0179 -0.0893,0.0217 l -0.13677,-0.30722 c 0.0717,-0.006 0.14581,-0.0283 0.22199,-0.0634 0.12531,-0.0577 0.21438,-0.13085 0.26562,-0.22002 0.0513,-0.0891 0.0735,-0.18403 0.0694,-0.28345 -0.004,-0.0994 -0.0271,-0.19553 -0.0713,-0.29139 l -0.48363,-1.04657 z m -1.36173,0.62241 0.82456,1.86719 -0.33697,0.14867 -0.82655,-1.86721 z m -1.1774,0.62436 c 0.16825,0.0232 0.32024,0.0908 0.45588,0.20417 0.13566,0.11326 0.24424,0.26871 0.32707,0.46582 0.0818,0.1946 0.11703,0.38177 0.10495,0.56293 -0.0143,0.18219 -0.0754,0.34458 -0.18037,0.48562 -0.10515,0.14104 -0.25241,0.25136 -0.44202,0.33102 -0.12978,0.0545 -0.26376,0.0837 -0.40239,0.0892 -0.13757,0.009 -0.26082,-0.0108 -0.37066,-0.0555 l 0.004,-0.29138 c 0.11921,0.0319 0.23048,0.0464 0.33497,0.0437 0.10294,7.1e-4 0.2025,-0.0195 0.29733,-0.0593 0.18213,-0.0764 0.30233,-0.19831 0.36075,-0.3667 0.0559,-0.16733 0.0357,-0.3656 -0.0595,-0.59265 -0.0932,-0.22206 -0.21902,-0.36931 -0.37663,-0.44401 -0.15758,-0.0746 -0.32821,-0.0727 -0.51534,0.006 -0.0899,0.0378 -0.17261,0.092 -0.24778,0.16452 -0.0751,0.0727 -0.14275,0.16542 -0.20218,0.2755 l -0.21208,-0.20216 c 0.0484,-0.10839 0.12463,-0.21096 0.22796,-0.30723 0.10452,-0.0938 0.22256,-0.16843 0.3548,-0.22399 0.18962,-0.0797 0.37034,-0.10743 0.54112,-0.0852 z m -1.58971,0.54908 1.08623,2.78294 -0.34293,0.13477 -0.68186,-1.74627 -0.53318,1.19919 -0.43211,0.16849 0.5768,-1.27255 -1.40138,-0.59268 0.44399,-0.17242 1.29634,0.53915 -0.35481,-0.90784 z m -2.44399,0.93359 c 0.0815,-0.006 0.16272,-8e-4 0.24182,0.0139 0.1566,0.0359 0.29601,0.11556 0.42022,0.23787 0.12516,0.12476 0.22334,0.28827 0.29534,0.48959 0.072,0.2013 0.099,0.38904 0.0814,0.5649 -0.02,0.17678 -0.0773,0.33019 -0.17445,0.45986 -0.099,0.13314 -0.23277,0.22816 -0.39841,0.28741 -0.17326,0.062 -0.33628,0.0727 -0.48959,0.0298 -0.11515,-0.0305 -0.2102,-0.0994 -0.29533,-0.18829 l 0.12084,0.34093 -0.34292,0.12286 -0.68779,-1.92269 0.3429,-0.12287 0.13086,0.36472 c 0.01,-0.12286 0.0394,-0.23757 0.10907,-0.33696 0.0922,-0.12786 0.22514,-0.22345 0.39841,-0.28544 0.0841,-0.03 0.16616,-0.0485 0.24777,-0.0555 z m 6.25964,0.18435 0.16253,0.36866 -0.39642,0.17444 -0.16254,-0.3667 z m -6.22595,0.14072 c -0.0815,-0.006 -0.16721,0.006 -0.25767,0.0397 -0.18347,0.0656 -0.30173,0.17802 -0.35481,0.33497 -0.0547,0.1604 -0.0404,0.3554 0.0417,0.58474 0.0819,0.22933 0.19384,0.38697 0.33695,0.47372 0.14405,0.0893 0.30669,0.1024 0.48761,0.0376 0.18092,-0.0647 0.30045,-0.17904 0.3568,-0.34291 0.0564,-0.16386 0.0434,-0.35992 -0.0376,-0.58671 -0.0811,-0.22678 -0.19526,-0.38391 -0.34093,-0.46976 -0.0728,-0.043 -0.15026,-0.0661 -0.23191,-0.0713 z m -1.84737,0.30921 0.91971,2.84439 -0.35081,0.11298 -0.40239,-1.24479 c -0.0139,0.12043 -0.0486,0.23233 -0.12098,0.32906 -0.0953,0.12745 -0.22785,0.21972 -0.4004,0.2755 -0.17252,0.0559 -0.33616,0.0645 -0.49157,0.0236 -0.1554,-0.0408 -0.29501,-0.12705 -0.41625,-0.2557 -0.123,-0.12517 -0.21766,-0.28814 -0.28344,-0.49157 -0.0658,-0.20342 -0.0862,-0.39421 -0.0615,-0.57286 0.023,-0.17524 0.0865,-0.32844 0.1903,-0.45587 0.10198,-0.12409 0.23838,-0.21265 0.40832,-0.26761 0.17254,-0.0557 0.33455,-0.061 0.48563,-0.0158 0.11813,0.037 0.21388,0.1115 0.29731,0.20616 l -0.12097,-0.37463 z m -0.58078,0.52527 c -0.0814,-0.009 -0.16893,0.004 -0.26162,0.0337 -0.18282,0.0591 -0.30512,0.16841 -0.36471,0.32706 -0.0588,0.16123 -0.0493,0.35695 0.0258,0.5887 0.0732,0.2266 0.17872,0.38657 0.31912,0.47771 0.14123,0.0936 0.30279,0.11068 0.48564,0.0516 0.18538,-0.0599 0.30904,-0.16841 0.36868,-0.32704 0.0596,-0.15865 0.0522,-0.35359 -0.0217,-0.58276 -0.0749,-0.23175 -0.18384,-0.39392 -0.32506,-0.48761 -0.0703,-0.0455 -0.14452,-0.0735 -0.22598,-0.0814 z m -1.75617,0.21606 0.85826,2.86223 -0.35479,0.10505 -0.85826,-2.86025 z m -1.53618,0.45192 c 0.0943,-0.004 0.18403,8e-4 0.26959,0.0217 0.17109,0.0395 0.31716,0.12301 0.44003,0.25173 0.12353,0.13138 0.2148,0.30417 0.27353,0.51536 0.0566,0.20337 0.0672,0.39132 0.0316,0.5669 -0.038,0.17631 -0.11502,0.32873 -0.23189,0.45392 -0.11611,0.12774 -0.26546,0.21684 -0.44798,0.26759 -0.17731,0.0494 -0.33873,0.0515 -0.48563,0.009 -0.1495,-0.0427 -0.27875,-0.12787 -0.38455,-0.25568 -0.10771,-0.12464 -0.18798,-0.28684 -0.24379,-0.48762 l -0.0179,-0.0634 1.42121,-0.39446 c -0.0697,-0.23437 -0.17199,-0.40213 -0.3112,-0.49554 -0.14431,-0.0948 -0.32335,-0.11096 -0.53716,-0.0516 -0.11474,0.0318 -0.21904,0.0792 -0.31319,0.14468 -0.0935,0.0681 -0.1769,0.154 -0.24975,0.25569 l -0.18434,-0.22199 c 0.0636,-0.10474 0.15695,-0.20079 0.27948,-0.28543 0.12328,-0.0819 0.25368,-0.14123 0.39446,-0.18037 0.10304,-0.0286 0.20305,-0.0452 0.29731,-0.0496 z m 0.66403,1.10804 -1.07432,0.29928 c 0.0552,0.14589 0.1238,0.26504 0.21804,0.335 0.12394,0.092 0.27326,0.11393 0.44797,0.0653 0.18251,-0.0507 0.30855,-0.15578 0.37658,-0.31515 0.0458,-0.10784 0.0484,-0.24036 0.0316,-0.38455 z" />
  </g>
</svg>
