<?xml version="1.0" encoding="UTF-8" standalone="no"?>
<!-- Created with Inkscape (http://www.inkscape.org/) -->

<svg
   version="1.1"
   id="svg5208"
   width="205.1282"
   height="205.1282"
   viewBox="0 0 205.1282 205.1282"
   sodipodi:docname="ecobrickable-icon-from-ecobricks-org-white.svg"
   inkscape:version="1.1.2 (0a00cf5339, 2022-02-04)"
   xmlns:inkscape="http://www.inkscape.org/namespaces/inkscape"
   xmlns:sodipodi="http://sodipodi.sourceforge.net/DTD/sodipodi-0.dtd"
   xmlns="http://www.w3.org/2000/svg"
   xmlns:svg="http://www.w3.org/2000/svg">
  <defs
     id="defs5212" />
  <sodipodi:namedview
     id="namedview5210"
     pagecolor="#ffffff"
     bordercolor="#666666"
     borderopacity="1.0"
     inkscape:pageshadow="2"
     inkscape:pageopacity="0.0"
     inkscape:pagecheckerboard="0"
     showgrid="false"
     inkscape:zoom="3.939"
     inkscape:cx="102.5641"
     inkscape:cy="102.43717"
     inkscape:window-width="1920"
     inkscape:window-height="1016"
     inkscape:window-x="0"
     inkscape:window-y="0"
     inkscape:window-maximized="1"
     inkscape:current-layer="g5214" />
  <g
     inkscape:groupmode="layer"
     inkscape:label="Image"
     id="g5214">
    <path
       style="fill:#ffffff;stroke-width:0.205128"
       d="M 96.933983,192.87947 C 69.614438,191.17919 44.284288,176.98428 28.588199,154.57877 11.976516,130.8663 7.690605,100.87471 17.000376,73.490465 25.420525,48.723004 44.385845,28.635347 68.558612,18.881098 86.366663,11.695154 105.55174,10.315506 124.3186,14.871255 c 3.20655,0.778407 10.24645,3.112055 13.23077,4.385851 19.98056,8.52831 35.82172,23.244242 45.54789,42.312547 10.91945,21.407758 12.86578,46.311457 5.40212,69.121367 -5.51324,16.84918 -15.73873,31.58287 -29.61668,42.67404 -3.08712,2.46722 -8.6434,6.22376 -11.89743,8.04375 -15.29839,8.55642 -32.7208,12.54926 -50.051287,11.47066 z m -3.165435,-12.8232 c 2.948166,-0.87521 5.252459,-2.70709 7.033442,-5.59147 4.06264,-6.57963 6.70386,-11.96787 9.36416,-19.10341 2.52867,-6.78245 3.80975,-8.99808 8.2778,-14.31645 1.54426,-1.83815 3.29807,-4.00738 3.89736,-4.82051 2.54556,-3.4539 4.4431,-7.19491 5.90017,-11.63227 0.81044,-2.46811 0.83769,-2.63706 0.72799,-4.51282 -0.15278,-2.61223 -0.68927,-4.3758 -2.48978,-8.18458 -1.53971,-3.25706 -2.22329,-5.2736 -1.96158,-5.7866 0.08,-0.15688 1.09056,-2.00537 2.24562,-4.10776 2.08951,-3.803262 2.10409,-3.823172 2.89322,-3.949362 0.92359,-0.14769 1.43088,-0.74114 1.43088,-1.6739 0,-0.89369 -0.47122,-1.26016 -3.93547,-3.06065 l -3.0124,-1.565633 0.61976,-1.374224 c 7.96899,-17.670063 11.28975,-29.610481 11.30692,-40.656272 0.0204,-13.112014 -4.28182,-21.18621 -12.57417,-23.598684 -1.13701,-0.330788 -2.30465,-0.472956 -4.52163,-0.550533 -3.16953,-0.110911 -5.50147,0.146145 -9.00196,0.992309 -3.68943,0.891838 -9.64267,3.070792 -9.65824,3.535026 -0.0151,0.4508 7.68649,26.600803 7.81862,26.547322 0.0729,-0.0295 1.07288,-1.207491 2.22219,-2.617747 4.62056,-5.669682 8.23672,-9.079315 11.04751,-10.416564 1.3089,-0.622722 1.64025,-0.698347 2.71816,-0.62038 0.99584,0.07203 1.34084,0.197346 1.82783,0.663908 1.464,1.402601 1.96699,3.897389 1.8011,8.933317 -0.19444,5.90257 -1.79511,13.907987 -4.65597,23.285872 -0.96374,3.159095 -3.38402,10.104603 -4.20366,12.063226 l -0.3269,0.781176 -0.65892,-0.396991 c -4.10473,-2.473028 -4.87888,-2.707641 -5.8221,-1.764425 -0.45309,0.453096 -0.51227,0.652201 -0.41178,1.385399 0.11015,0.803594 -0.0239,1.102105 -2.17948,4.853318 l -2.29685,3.99707 -1.33333,0.36104 c -0.73333,0.19857 -2.71795,0.50274 -4.41026,0.67594 -5.639988,0.57722 -8.469368,1.6196 -10.73112,3.953482 -1.717417,1.77219 -4.224312,5.13342 -5.515869,7.39563 -1.613708,2.82649 -2.592106,5.16325 -4.372734,10.44368 -2.381382,7.06195 -3.468925,9.05752 -8.268691,15.17253 -1.395598,1.77803 -3.139444,4.1097 -3.875212,5.18149 -3.290306,4.793 -7.968529,13.30422 -8.456211,15.38462 -0.857192,3.65669 0.07059,7.56593 2.414295,10.17269 1.143307,1.27163 5.215575,3.62573 7.618925,4.40435 3.147988,1.01987 5.023803,2.04381 11.942414,6.51897 1.6003,1.03513 3.815684,2.34002 4.923077,2.89977 1.94145,0.98133 2.076279,1.01794 3.771079,1.02379 1.037122,0.004 2.214371,-0.12952 2.871795,-0.32469 z m -7.028741,-31.10501 c 0.214997,-3.72077 1.504804,-21.58426 1.562638,-21.64209 0.03874,-0.0387 1.60145,1.04178 3.472698,2.40115 1.871247,1.35937 3.474418,2.47131 3.562605,2.47098 0.168759,-6.1e-4 3.501639,-5.23024 6.536122,-10.25581 4.35658,-7.21517 9.72291,-17.45825 14.23928,-27.179492 1.15313,-2.48205 2.22994,-4.771759 2.39291,-5.088239 l 0.29632,-0.575421 2.39913,1.259748 c 1.31953,0.692861 2.42807,1.288418 2.46342,1.323462 0.0642,0.06361 -7.4101,16.765942 -10.8235,24.186642 -2.25272,4.89738 -6.01155,12.42054 -8.16218,16.33628 -0.90046,1.63951 -1.78697,3.27055 -1.97002,3.62452 l -0.33282,0.6436 3.38135,1.99287 c 1.85975,1.09608 3.38135,2.06119 3.38135,2.14469 0,0.16585 -4.54836,2.09356 -13.98759,5.9283 -3.349584,1.36079 -6.614917,2.70624 -7.256293,2.98988 -0.641375,0.28365 -1.177729,0.51578 -1.191896,0.51585 -0.01417,7e-5 0.0023,-0.48454 0.03648,-1.07692 z m 3.308702,-66.46629 c 0.612991,-0.928228 3.031555,-4.644923 5.374592,-8.259319 3.943927,-6.083951 4.413034,-6.720513 6.321369,-8.57786 1.13372,-1.103428 2.06131,-2.120962 2.06131,-2.26119 0,-0.280747 -0.25125,-1.076822 -6.19059,-19.614959 C 95.356066,36.72036 93.442847,30.833388 93.363596,30.68948 93.21129,30.412918 91.788435,31.331634 87.68334,34.357141 l -2.071157,1.526468 0.274299,0.610683 c 4.018023,8.945446 10.314993,23.154752 10.277364,23.191183 -0.02771,0.02682 -1.619606,-1.583659 -3.537555,-3.578849 -1.917948,-1.99519 -5.792395,-6.025237 -8.609883,-8.955659 -2.817487,-2.930425 -5.216633,-5.328043 -5.331437,-5.328043 -0.114802,0 -3.791481,4.59937 -8.170394,10.220824 l -7.961663,10.220824 0.970467,0.856099 c 2.366989,2.088041 7.510562,6.382055 14.538808,12.137448 4.174359,3.418361 8.282051,6.818562 9.128205,7.556002 0.846154,0.73744 1.584615,1.344789 1.641026,1.349667 0.05641,0.0049 0.6041,-0.75059 1.217089,-1.678818 z"
       id="path5293" />
  </g>
</svg>
