<?xml version="1.0" encoding="UTF-8"?>
<!-- Created with Inkscape (http://www.inkscape.org/) -->
<svg width="54.268mm" height="54.268mm" version="1.1" viewBox="0 0 54.268 54.268" xmlns="http://www.w3.org/2000/svg">
 <g transform="translate(-84.526 -62.498)">
  <g transform="matrix(.88191 0 0 .88191 13.185 10.584)">
   <circle cx="111.66" cy="89.632" r="27.134" fill="#008000" stroke-width=".44"/>
   <path d="m107.71 112.95c-2.1261-0.81708-3.7914-2.6851-6.2459-3.3-1.2643-0.70793-1.3194-0.74055-1.4662-0.85655-0.39329-0.31075-0.6868-0.71079-0.88711-1.2124-0.15722-0.3938-0.23613-0.77234-0.25382-1.2199-6e-3 -0.17726 0.0295-0.59681 0.0673-0.76903 0.0609-0.28947 0.14908-0.54588 0.2608-0.76652 0.74521-1.4735 1.55-2.8624 2.2733-3.9299 0.41335-0.60898 0.63029-0.89776 1.5296-2.0278 0.16997-0.21451 0.36507-0.46547 0.43437-0.56022 0.36912-0.49756 0.67858-1.0032 0.95977-1.5609 0.24994-0.50097 0.30169-0.63101 0.60617-1.5591 0.40437-1.2235 0.52846-1.5818 0.70698-2.0327 0.55357-1.3945 1.2882-2.5489 2.4292-3.8143 0.55552-0.60526 1.5094-0.90202 2.2244-1.0278 0.25352-0.04173 0.46-0.06531 0.91638-0.10415 0.65653-0.05389 0.93925-0.0933 1.2756-0.17707 0.19521-0.04785 0.49245-0.14225 0.51478-0.16234 9e-3 -0.0069 0.15909-0.26285 0.33354-0.56707 0.67842-1.1724 0.98144-1.7061 1.0297-1.8157l0.0337-0.07382-0.0365-0.09559c-0.0355-0.08986-0.0376-0.1017-0.0336-0.20728 6e-3 -0.10839 6e-3 -0.11288 0.0546-0.2048 0.0403-0.07897 0.0613-0.10404 0.12442-0.15783 0.18906-0.15572 0.43496-0.15848 0.64534-0.0077 0.0613 0.04442 0.56511 0.33452 1.0531 0.60566 0.11116 0.06193 0.20613 0.1094 0.21099 0.10526 0.0123-0.0096 0.20327-0.50655 0.4015-1.0399 1.0661-2.8653 1.8496-5.7175 2.1918-7.9736 0.0824-0.53646 0.098-0.67956 0.14716-1.3012 0.0587-0.74032 0.0643-1.0357 0.0327-1.5254-0.0684-1.0168-0.34791-1.6497-0.81901-1.8532-0.43671-0.19059-1.0267-0.0063-1.8094 0.56475-0.16233 0.1179-0.61102 0.50214-0.80824 0.68962-1.0608 1.0713-1.6675 1.8183-2.499 2.8739l-0.015-0.04829c-0.0806-0.26676-2.3383-7.9819-2.34-7.9982 0.43295-0.22346 1.0768-0.45508 1.6015-0.63283 2.6544-0.89537 4.7303-0.95744 6.2544-0.18634 1.0431 0.52725 1.8322 1.4922 2.3108 2.8237 0.37758 1.0514 0.58913 2.3769 0.60042 3.7569 0.0269 3.0242-0.87688 6.538-2.8445 11.072-0.24881 0.57227-0.64772 1.465-0.74774 1.6719-7e-3 0.0141-8e-4 0.02367 0.025 0.03589 0.0199 0.01066 0.31492 0.16775 0.65813 0.34943 0.34209 0.18159 0.64583 0.33828 0.67585 0.34932 0.0289 0.01137 0.081 0.03882 0.11453 0.0622 0.0713 0.04671 0.18156 0.10556 0.30379 0.16084 0.11773 0.05492 0.17969 0.10995 0.24483 0.21533 0.0702 0.11747 0.0818 0.15645 0.0808 0.26376-4e-3 0.19864-0.12822 0.37269-0.31759 0.44172-0.064 0.02282-0.21188 0.03447-0.26811 0.02135-0.0392-0.0091-0.0675 0.01538-0.14557 0.12526-0.0548 0.07819-0.40665 0.70975-0.94592 1.7048l-0.36692 0.67446 0.0279 0.12732c0.0952 0.43447 0.2421 0.81124 0.58389 1.4962 0.12545 0.2526 0.2648 0.53909 0.3088 0.63527 0.25936 0.56956 0.40836 1.1051 0.47117 1.7062 0.111 0.56836-0.0919 1.1205-0.24992 1.5952-0.31395 0.93338-0.65676 1.6934-1.1045 2.4413-0.42421 0.70798-0.85677 1.2834-1.7556 2.3366-0.33271 0.39004-0.8055 0.95475-0.91035 1.0893-0.2195 0.27841-0.58901 0.87617-0.83381 1.3455-0.24883 0.4822-0.41224 0.87548-0.74388 1.7897-0.28271 0.78137-0.40321 1.0944-0.58663 1.5358-0.45761 1.0916-1.0169 2.1924-1.7873 3.5166-0.28802 0.49644-0.6906 1.1549-0.76325 1.2539-0.28661 0.3835-0.7106 0.74145-1.151 0.96845-0.43455 0.22484-0.9208 0.36005-1.4013 0.38945-0.11961 6e-3 -0.49102-0.01-0.58094-0.0252zm6.0126-11.931c-0.74194-0.44273-1.3244-0.78202-2.1134-1.2492-9.7e-4 -1e-3 0.0985-0.18213 0.22037-0.40346 1.0355-1.8654 1.7876-3.3353 2.6345-5.1463 0.48559-1.0358 0.68713-1.4822 1.9971-4.4006 0.47204-1.0501 1.0168-2.2625 1.2115-2.6933 0.1946-0.43036 0.3519-0.78454 0.34902-0.78628-6e-3 -0.0081-1.493-0.78934-1.5035-0.79017-0.0131-1e-3 4e-3 -0.03811-0.28212 0.58848-2.0294 4.4376-3.431 7.1011-5.4388 10.338-0.43183 0.69456-1.2751 2.0258-1.2954 2.0449-1.0818-0.76695-1.1119-0.79609-2.1507-1.5581-0.1548 2.3971-0.35708 4.8421-0.4727 6.8967 2.3756-1.0203 4.4784-1.7928 6.8441-2.8407zm-7.2258-7.2664c8.3e-4 -0.01054-3e-3 -0.0079-0.0111 0.0048-5e-3 0.01165-0.0108 0.02854-0.0115 0.03752-8e-4 0.01012 3e-3 0.0089 9e-3 -0.0053 6e-3 -0.01119 0.0128-0.02688 0.0136-0.03698zm0.028-0.07314c8e-4 -0.01011-3e-3 -0.0089-0.011 0.0036-5e-3 0.01128-0.0108 0.02854-0.0115 0.03752-8e-4 0.01012 2e-3 0.0088 9e-3 -0.0053 7e-3 -0.01111 0.0128-0.02688 0.0135-0.03585zm-6.8604-16.157c6.9e-4 -0.0086 4.8196-6.1964 4.8257-6.1974 1.885 1.9392 3.3228 3.4868 5.3282 5.5429-1.125-2.5621-2.0484-4.5442-3.2381-7.2686 0.82483-0.547 1.4058-1.0783 2.2983-1.6286 0.0161 0.02049 3.1791 9.893 3.177 9.9192-6.8e-4 0.02217-0.13614 0.15841-0.63177 0.63577l-0.62958 0.60806c-1.0956 1.6443-2.1358 3.3255-3.2439 4.9612-2.7419-2.3484-5.0086-4.0397-7.8859-6.5726z" fill="#fff"/>
  </g>
 </g>
</svg>
