<?xml version="1.0" encoding="UTF-8" standalone="no"?>
<!-- Created with Inkscape (http://www.inkscape.org/) -->

<svg
   width="54.268mm"
   height="54.268mm"
   version="1.1"
   viewBox="0 0 54.268 54.268"
   id="svg1005"
   sodipodi:docname="ecobrickable-icon-from-ecobricks-org.svg"
   inkscape:version="1.1.2 (0a00cf5339, 2022-02-04)"
   xmlns:inkscape="http://www.inkscape.org/namespaces/inkscape"
   xmlns:sodipodi="http://sodipodi.sourceforge.net/DTD/sodipodi-0.dtd"
   xmlns="http://www.w3.org/2000/svg"
   xmlns:svg="http://www.w3.org/2000/svg">
  <defs
     id="defs1009" />
  <sodipodi:namedview
     id="namedview1007"
     pagecolor="#ffffff"
     bordercolor="#666666"
     borderopacity="1.0"
     inkscape:pageshadow="2"
     inkscape:pageopacity="0.0"
     inkscape:pagecheckerboard="0"
     inkscape:document-units="mm"
     showgrid="false"
     inkscape:zoom="4.0612868"
     inkscape:cx="102.43059"
     inkscape:cy="149.33691"
     inkscape:window-width="1920"
     inkscape:window-height="1016"
     inkscape:window-x="0"
     inkscape:window-y="0"
     inkscape:window-maximized="1"
     inkscape:current-layer="svg1005" />
  <path
     id="path5293-0"
     style="fill:#008000;fill-opacity:1;stroke-width:0.0545653"
     d="M 27.192692,3.3794287 C 24.062446,3.3590883 20.95846,3.9501468 17.997799,5.1448403 11.567678,7.7395355 6.5226818,13.082989 4.2828632,19.671296 1.8064028,26.955688 2.9465079,34.933539 7.3653243,41.241217 11.540588,47.201233 18.278553,50.977193 25.545738,51.42948 c 4.61002,0.286913 9.244365,-0.775222 13.31384,-3.051284 0.865595,-0.484129 2.343866,-1.483186 3.165063,-2.139486 3.691625,-2.950325 6.411811,-6.869523 7.878367,-11.351517 C 51.888392,28.819601 51.3706,22.195127 48.465952,16.50052 45.878727,11.428223 41.664623,7.5136996 36.34966,5.245112 35.555809,4.9062741 33.683231,4.2852771 32.830266,4.0782159 30.958224,3.6237687 29.070839,3.391634 27.192692,3.3794287 Z m 3.616026,3.5422531 c 0.191269,-0.00578 0.388255,-0.00478 0.599036,0.00264 0.589729,0.020638 0.900292,0.05852 1.202742,0.1465112 2.205825,0.6417348 3.350254,2.7897705 3.344831,6.277654 -0.0046,2.938255 -0.887837,6.114481 -3.007642,10.814836 l -0.164698,0.365243 0.801139,0.416668 c 0.921512,0.478943 1.046878,0.576398 1.046878,0.814127 0,0.248123 -0.135143,0.405965 -0.380824,0.445249 -0.209913,0.03356 -0.21362,0.03882 -0.769444,1.050516 -0.307253,0.559254 -0.576196,1.050875 -0.597476,1.092608 -0.06962,0.136461 0.112566,0.673007 0.522144,1.539406 0.478947,1.013162 0.621257,1.48254 0.661899,2.177412 0.02919,0.498967 0.0223,0.543611 -0.193271,1.200147 -0.387594,1.180369 -0.89241,2.175644 -1.569545,3.094405 -0.159417,0.216298 -0.626225,0.793272 -1.03701,1.282237 -1.188535,1.414719 -1.529185,2.004082 -2.201831,3.808257 -0.707655,1.898099 -1.410004,3.331436 -2.490695,5.081658 -0.473751,0.767267 -1.087164,1.254644 -1.871397,1.487461 -0.174881,0.05192 -0.487847,0.08731 -0.763731,0.08624 -0.450829,-0.0017 -0.486801,-0.01118 -1.003241,-0.272241 -0.29457,-0.148903 -0.88356,-0.496175 -1.309248,-0.771523 -1.840398,-1.190422 -2.339629,-1.462945 -3.177012,-1.734242 -0.639311,-0.207115 -1.722619,-0.833309 -2.026746,-1.171569 -0.623444,-0.693417 -0.870174,-1.733083 -0.642159,-2.705787 0.129729,-0.553398 1.374388,-2.817485 2.249631,-4.092452 0.195716,-0.285105 0.659537,-0.905383 1.030777,-1.378349 1.276766,-1.626636 1.565762,-2.157292 2.199229,-4.03582 0.473659,-1.404627 0.734001,-2.026137 1.163263,-2.778004 0.343556,-0.601759 1.010342,-1.496102 1.46719,-1.967513 0.601639,-0.620829 1.35462,-0.898014 2.854895,-1.051556 0.450167,-0.04607 0.978061,-0.126941 1.173131,-0.179765 l 0.354329,-0.09611 0.610985,-1.062989 c 0.5734,-0.997846 0.609113,-1.077303 0.579814,-1.291068 -0.02673,-0.195034 -0.01093,-0.248349 0.109618,-0.368875 0.250907,-0.250902 0.456875,-0.188173 1.548763,0.469668 l 0.175086,0.105468 0.08728,-0.207818 c 0.218031,-0.521007 0.861701,-2.368364 1.118059,-3.208707 0.761009,-2.494581 1.186872,-4.624404 1.238596,-6.194527 0.04413,-1.339589 -0.08959,-2.003293 -0.479019,-2.376395 -0.129545,-0.124108 -0.221394,-0.157485 -0.486295,-0.176645 -0.286732,-0.02074 -0.375028,-4.45e-4 -0.723204,0.165215 -0.747691,0.355718 -1.709444,1.262557 -2.938546,2.770729 -0.30572,0.375139 -0.571847,0.688862 -0.591236,0.696709 -0.03515,0.01421 -2.083755,-6.9422487 -2.079738,-7.0621648 0.0042,-0.1234892 1.587733,-0.7031403 2.569145,-0.9403751 0.698365,-0.1688138 1.221747,-0.2491905 1.795545,-0.2665262 z m -6.21271,1.364323 c 0.02108,0.038281 0.530105,1.6042196 1.131049,3.4799072 1.579901,4.93127 1.646952,5.143101 1.646952,5.217785 0,0.0373 -0.247058,0.308109 -0.548635,0.601631 -0.50763,0.494068 -0.632138,0.663467 -1.681249,2.281837 -0.623259,0.961453 -1.266723,1.949718 -1.429785,2.196635 -0.163054,0.246913 -0.308671,0.448112 -0.323674,0.446807 -0.01502,-0.0014 -0.211851,-0.162843 -0.436937,-0.359006 -0.225082,-0.196162 -1.317422,-1.10081 -2.42783,-2.010114 -1.869561,-1.530976 -3.237853,-2.673014 -3.86749,-3.228449 l -0.258214,-0.228081 2.117668,-2.718774 c 1.164818,-1.495344 2.143231,-2.718776 2.173771,-2.718776 0.03054,0 0.668366,0.637805 1.417837,1.417317 0.749471,0.779512 1.780484,1.851895 2.290671,2.38263 0.510184,0.530733 0.933522,0.958941 0.940893,0.951807 0.01001,-0.0097 -1.66502,-3.789522 -2.733843,-6.1690702 L 22.533942,9.6674734 23.085179,9.2617093 C 24.17716,8.4569042 24.555495,8.2124376 24.596012,8.2860048 Z m 6.767063,15.5328182 -0.07897,0.153263 c -0.04335,0.08419 -0.329705,0.693167 -0.636443,1.353411 -1.201385,2.585917 -2.629118,5.310693 -3.787998,7.229977 -0.807196,1.336837 -1.693504,2.727963 -1.738395,2.72813 -0.02345,8.6e-5 -0.449886,-0.295627 -0.947649,-0.657229 -0.497765,-0.361596 -0.913443,-0.649332 -0.923751,-0.639035 -0.01541,0.01538 -0.358445,4.767321 -0.415633,5.757072 -0.0091,0.157571 -0.01366,0.286284 -0.0098,0.286262 0.0038,-1.4e-5 0.146314,-0.0617 0.316925,-0.137157 0.170611,-0.07545 1.039613,-0.433446 1.930627,-0.795423 2.510896,-1.020065 3.720454,-1.5327 3.720454,-1.576815 0,-0.02223 -0.404625,-0.278897 -0.899328,-0.57046 l -0.899336,-0.529936 0.08833,-0.171451 c 0.04869,-0.09416 0.284691,-0.528149 0.524222,-0.964273 0.572079,-1.04161 1.571935,-3.042732 2.171174,-4.345466 0.907989,-1.973958 2.895871,-6.416597 2.878793,-6.433519 -0.0094,-0.0093 -0.304141,-0.167944 -0.655142,-0.352251 z m 14.073416,13.666603 c 0.04631,0.0014 0.09393,0.01586 0.142872,0.04313 0.04834,0.02692 0.08593,0.06044 0.112742,0.09975 0.02645,0.03993 0.04045,0.08276 0.04157,0.128846 0.0011,0.04609 -0.01168,0.09266 -0.03792,0.139757 -0.01794,0.0322 -0.04085,0.06012 -0.06858,0.08365 -0.02709,0.02387 -0.05581,0.03981 -0.08573,0.04832 l -0.04624,-0.06078 c 0.0298,-0.01263 0.05527,-0.02773 0.07637,-0.0452 0.02136,-0.01649 0.03883,-0.03673 0.05196,-0.06027 0.0252,-0.04523 0.03022,-0.08985 0.01505,-0.134039 -0.01552,-0.04357 -0.05168,-0.08131 -0.108065,-0.112741 -0.05514,-0.03076 -0.10504,-0.04072 -0.149631,-0.03065 -0.04459,0.01007 -0.07957,0.03822 -0.105468,0.08469 -0.0124,0.0223 -0.0207,0.04716 -0.02439,0.07429 -0.0038,0.02715 -0.0028,0.05652 0.0025,0.08884 l -0.07637,-0.0068 c -0.0075,-0.03019 -0.0084,-0.0637 -0.0025,-0.100273 0.0064,-0.03623 0.01858,-0.07107 0.03688,-0.103907 0.02623,-0.04709 0.05886,-0.08192 0.09768,-0.104953 0.03847,-0.02242 0.08099,-0.03312 0.127288,-0.0317 z m -0.260812,0.463958 c 0.04625,0.0028 0.09359,0.01827 0.141838,0.04676 0.04764,0.02812 0.08432,0.06186 0.110143,0.10183 0.02547,0.04058 0.03797,0.08378 0.03792,0.129886 -4.8e-5,0.04611 -0.0136,0.09282 -0.04105,0.139237 -0.01877,0.03174 -0.04235,0.05875 -0.07066,0.08157 -0.02771,0.02317 -0.05665,0.03848 -0.08676,0.04624 l -0.04468,-0.06183 c 0.03008,-0.01187 0.05588,-0.0267 0.07742,-0.04365 0.02178,-0.016 0.03981,-0.03549 0.05351,-0.05871 0.02634,-0.04459 0.03224,-0.08897 0.01819,-0.133519 -0.01444,-0.04394 -0.04936,-0.08252 -0.104948,-0.115342 -0.05435,-0.0321 -0.103757,-0.04376 -0.148588,-0.03483 -0.04483,0.0089 -0.08101,0.03628 -0.108066,0.08209 -0.01299,0.02197 -0.02158,0.04674 -0.026,0.07377 -0.0044,0.02704 -0.0042,0.05692 2.61e-4,0.08936 l -0.07638,-0.0093 c -0.0068,-0.03036 -0.0067,-0.06385 0,-0.100273 0.0073,-0.03605 0.02039,-0.06998 0.03948,-0.10235 0.02742,-0.04641 0.06088,-0.08082 0.100272,-0.102873 0.03902,-0.02141 0.08156,-0.03064 0.127809,-0.02805 z m -0.529414,0.640078 0.635405,0.413038 -0.169374,0.26029 c -0.04176,0.06423 -0.08911,0.104764 -0.141834,0.122095 -0.05253,0.0183 -0.10553,0.01051 -0.158462,-0.02389 -0.03688,-0.02398 -0.06135,-0.0546 -0.07377,-0.09144 -0.01107,-0.03249 -0.01045,-0.06789 -0.0017,-0.105465 -0.03156,0.02987 -0.06624,0.04856 -0.104948,0.05299 -0.04205,0.0048 -0.0841,-0.0062 -0.125728,-0.03323 -0.05531,-0.03596 -0.08598,-0.08257 -0.09196,-0.13976 -0.0058,-0.05621 0.0136,-0.118196 0.05767,-0.185999 z m 0.01399,0.124691 -0.116899,0.180279 c -0.03132,0.04817 -0.04575,0.08893 -0.0426,0.123135 0.0032,0.03419 0.02381,0.06345 0.06131,0.0878 0.03747,0.02436 0.07299,0.03096 0.106508,0.01975 0.03313,-0.0106 0.06518,-0.03971 0.09611,-0.08729 l 0.1169,-0.179756 z m 0.289903,0.188592 -0.107545,0.165739 c -0.03015,0.04638 -0.0438,0.08678 -0.04104,0.121571 0.0028,0.03479 0.02197,0.06408 0.05767,0.08728 0.03451,0.02242 0.06743,0.02756 0.09975,0.01558 0.03252,-0.01101 0.06453,-0.0403 0.09507,-0.08729 l 0.107548,-0.165732 z m -0.800097,0.432263 0.25042,0.175084 0.542407,0.01249 -0.06546,0.09404 -0.434342,-0.01611 0.164699,0.402647 -0.06442,0.09247 -0.200542,-0.504994 -0.249383,-0.174043 z m -0.595396,0.494606 0.760096,0.57202 -0.05508,0.07325 -0.760093,-0.572017 z m -0.185478,0.562149 0.586568,0.479019 -0.04728,0.05767 -0.739831,-0.02859 0.457718,0.374076 -0.05871,0.07274 -0.587085,-0.479538 0.0478,-0.05819 0.74295,0.02909 -0.460318,-0.375631 z m -0.506557,0.6141 0.567865,0.501359 -0.171451,0.194829 c -0.05353,0.06062 -0.110519,0.102392 -0.170414,0.12521 -0.05983,0.02381 -0.120621,0.02823 -0.182874,0.01299 -0.0622,-0.01422 -0.123317,-0.04826 -0.183401,-0.101313 -0.06062,-0.05353 -0.102344,-0.110505 -0.12469,-0.170931 -0.02181,-0.05995 -0.02509,-0.121127 -0.0094,-0.183917 0.01524,-0.06226 0.04982,-0.123316 0.10287,-0.183403 z m -0.0025,0.128326 -0.102868,0.11638 c -0.06338,0.07178 -0.09201,0.141923 -0.08624,0.210415 0.0053,0.06902 0.04507,0.136319 0.118975,0.201582 0.14729,0.13005 0.284192,0.123306 0.410961,-0.02028 l 0.10287,-0.116374 z m -0.890494,0.940898 c 0.02219,9e-5 0.04417,0.0036 0.0665,0.0104 0.04516,0.01399 0.08816,0.041 0.128846,0.08157 0.03918,0.03907 0.06643,0.08111 0.08105,0.125736 0.0141,0.04512 0.01566,0.08934 0.0052,0.133001 -0.01,0.04415 -0.03249,0.08382 -0.06755,0.118975 -0.03404,0.03415 -0.07051,0.05585 -0.109624,0.06494 -0.03961,0.0096 -0.07988,0.0067 -0.120534,-0.0088 -0.04065,-0.01452 -0.0803,-0.04092 -0.118978,-0.07949 l -0.01196,-0.01196 0.272761,-0.273799 c -0.04615,-0.04436 -0.0913,-0.06944 -0.135088,-0.07273 -0.04515,-0.0028 -0.08829,0.01599 -0.129359,0.05714 -0.02206,0.02208 -0.03948,0.04668 -0.05248,0.07378 -0.01249,0.0276 -0.02041,0.05779 -0.02387,0.0904 l -0.07066,-0.02704 c 0.0011,-0.0321 0.01,-0.06566 0.02704,-0.100792 0.01752,-0.03462 0.03946,-0.06535 0.0665,-0.09248 0.03956,-0.03968 0.08161,-0.06587 0.125728,-0.07897 0.02206,-0.0065 0.0443,-0.01 0.0665,-0.0098 z m 0.164175,0.206258 -0.206261,0.206775 c 0.03143,0.02609 0.06248,0.04507 0.093,0.04883 0.04013,0.005 0.0771,-0.0095 0.110655,-0.04312 0.03508,-0.03515 0.04977,-0.07541 0.04468,-0.120537 -0.0035,-0.03046 -0.01975,-0.06129 -0.04208,-0.09196 z m -0.574098,0.202619 c 0.02178,0.0014 0.04358,0.0054 0.06546,0.01299 0.04377,0.01513 0.08453,0.04302 0.123133,0.08365 0.03811,0.0401 0.06456,0.08334 0.07845,0.128846 0.01335,0.046 0.01369,0.09075 0.0011,0.135081 -0.01265,0.04433 -0.03886,0.08548 -0.07794,0.122613 -0.02676,0.0254 -0.05692,0.04503 -0.0904,0.05923 -0.03299,0.01471 -0.06503,0.02159 -0.09612,0.02078 l -0.02601,-0.07222 c 0.0322,-0.0032 0.06141,-0.0098 0.08676,-0.02028 0.02534,-0.0094 0.04749,-0.02353 0.06702,-0.04209 0.03753,-0.03567 0.05587,-0.07643 0.05455,-0.12313 -0.0017,-0.04621 -0.02514,-0.09297 -0.06962,-0.139758 -0.04349,-0.04576 -0.08795,-0.07063 -0.133524,-0.07429 -0.04556,-0.0036 -0.08769,0.01321 -0.126248,0.04988 -0.01853,0.01757 -0.03352,0.03859 -0.0452,0.06338 -0.01168,0.02478 -0.01953,0.05322 -0.02389,0.08573 l -0.07119,-0.02961 c 0.0017,-0.03107 0.01116,-0.06292 0.02754,-0.09611 0.01688,-0.0327 0.03873,-0.06191 0.06598,-0.0878 0.03908,-0.03714 0.08077,-0.06128 0.124687,-0.0717 0.02172,-0.005 0.04367,-0.0065 0.06547,-0.0052 z m -0.38706,0.363686 c 0.02178,0.0017 0.0438,0.0069 0.06546,0.01504 0.0438,0.01688 0.08467,0.04612 0.122612,0.08832 0.03747,0.04168 0.06214,0.08558 0.0743,0.130926 0.01263,0.04588 0.01227,0.08999 -0.0011,0.132483 -0.01382,0.04297 -0.03994,0.08176 -0.07846,0.116377 -0.03904,0.03512 -0.08051,0.05673 -0.12417,0.06546 -0.04366,0.0087 -0.08768,0.0044 -0.13196,-0.01299 -0.0438,-0.01688 -0.08411,-0.04613 -0.121576,-0.08781 -0.03794,-0.0422 -0.06318,-0.08609 -0.07533,-0.131446 -0.01168,-0.04482 -0.01071,-0.08844 0.0022,-0.130925 0.01329,-0.04249 0.03941,-0.08128 0.07845,-0.11638 0.03852,-0.03461 0.07999,-0.05626 0.124173,-0.06546 0.02183,-0.0043 0.0432,-0.0056 0.06494,-0.0036 z m -0.01504,0.08624 c -0.04286,-0.0063 -0.08359,0.0074 -0.121572,0.04156 -0.03798,0.03415 -0.05627,0.07309 -0.05455,0.116383 0.0022,0.04381 0.02547,0.08967 0.0691,0.138196 0.04316,0.04801 0.08654,0.07522 0.130409,0.08157 0.04333,0.0069 0.08359,-0.0063 0.121055,-0.04001 0.03692,-0.0332 0.05465,-0.07209 0.05299,-0.116374 -0.0014,-0.04429 -0.02387,-0.09072 -0.06702,-0.138723 -0.04363,-0.04853 -0.08707,-0.07578 -0.130405,-0.08261 z m -0.459282,0.246263 0.50552,0.598516 -0.07429,0.06235 -0.220804,-0.261332 c 0.0085,0.03039 0.01151,0.06098 0.0036,0.09144 -0.01043,0.0404 -0.03383,0.07582 -0.07014,0.106506 -0.03629,0.03068 -0.07515,0.04899 -0.1169,0.05455 -0.04174,0.0056 -0.08406,-0.0017 -0.126245,-0.02078 -0.04228,-0.01816 -0.08124,-0.04864 -0.11742,-0.09144 -0.03618,-0.0428 -0.06045,-0.0867 -0.07221,-0.132481 -0.01187,-0.04479 -0.01143,-0.08814 0.0011,-0.129368 0.0124,-0.04023 0.03646,-0.07524 0.07222,-0.105469 0.03629,-0.03068 0.07526,-0.04785 0.116377,-0.05196 0.03248,-0.0028 0.06322,0.0054 0.093,0.0203 l -0.06702,-0.07897 z m -0.02598,0.18236 c -0.0431,-0.0082 -0.08413,0.0044 -0.123129,0.03741 -0.03847,0.03252 -0.0569,0.07093 -0.0556,0.115336 0.0017,0.04495 0.02325,0.09152 0.06443,0.140279 0.0403,0.04767 0.0821,0.07551 0.125207,0.08365 0.04357,0.0087 0.08415,-0.0028 0.122616,-0.03532 0.039,-0.03298 0.05794,-0.07197 0.05663,-0.116376 -0.0014,-0.0444 -0.02208,-0.09051 -0.06286,-0.13872 -0.04121,-0.04876 -0.08372,-0.07757 -0.127289,-0.08625 z m -0.467069,0.230161 0.241069,0.300294 c 0.01555,0.01936 0.03167,0.03816 0.04832,0.05663 0.01649,0.01947 0.03363,0.03793 0.05195,0.05507 l -0.07118,0.05715 -0.07221,-0.07533 c 0.01238,0.03316 0.01744,0.06523 0.0088,0.09612 -0.01087,0.03967 -0.03234,0.07243 -0.06442,0.09819 -0.0077,0.0062 -0.01541,0.01127 -0.02234,0.01508 -0.007,0.0048 -0.01391,0.0086 -0.02078,0.01143 l -0.05455,-0.06962 c 0.01786,-0.0061 0.03533,-0.01586 0.05247,-0.02961 0.02819,-0.02267 0.04615,-0.04679 0.05352,-0.07273 0.0073,-0.02595 0.0073,-0.05187 0,-0.0769 -0.0074,-0.02503 -0.01952,-0.04805 -0.03689,-0.06962 l -0.189633,-0.235873 z m -0.30757,0.244182 0.328873,0.422392 -0.0769,0.05975 -0.32835,-0.422389 z m -0.259772,0.233276 c 0.04427,-0.0047 0.08717,0.0032 0.128846,0.02339 0.04168,0.02022 0.07919,0.05279 0.112741,0.09768 0.03313,0.04432 0.05391,0.08981 0.06235,0.136642 0.0079,0.04725 0.0032,0.09203 -0.01455,0.134559 -0.0178,0.04254 -0.04826,0.07995 -0.09144,0.112224 -0.02954,0.02208 -0.06224,0.03815 -0.09716,0.04831 -0.03448,0.01071 -0.0669,0.01429 -0.09767,0.0098 l -0.01713,-0.07481 c 0.03235,2.62e-4 0.0614,-0.0032 0.0878,-0.0104 0.02623,-0.0063 0.05011,-0.01708 0.0717,-0.03323 0.04148,-0.031 0.06439,-0.06985 0.06858,-0.116379 0.0036,-0.0461 -0.01382,-0.09532 -0.05248,-0.147028 -0.0378,-0.05057 -0.07884,-0.08035 -0.123651,-0.08937 -0.04481,-0.009 -0.08883,0.0025 -0.131446,0.0343 -0.02047,0.0153 -0.03796,0.03441 -0.05248,0.05767 -0.01452,0.02325 -0.02562,0.05085 -0.03376,0.08261 l -0.06702,-0.0374 c 0.0054,-0.03065 0.01822,-0.06144 0.03844,-0.09248 0.02061,-0.03046 0.04626,-0.05698 0.07637,-0.07949 0.04318,-0.03228 0.08712,-0.05145 0.131966,-0.05663 z m -0.368878,0.24055 0.452008,0.639041 -0.07897,0.05611 -0.283153,-0.400049 -0.06027,0.338225 -0.09924,0.07014 0.0665,-0.360564 -0.393813,-0.06183 0.10131,-0.07222 0.363685,0.05507 -0.147554,-0.208336 z m 1.041168,0.0426 0.06442,0.08313 -0.08988,0.07014 -0.06442,-0.08313 z m -1.426665,0.303935 0.01351,0.07534 c -0.03581,-0.0025 -0.06901,1.83e-4 -0.100272,0.0083 -0.03146,0.0091 -0.06288,0.02414 -0.09352,0.04468 -0.03181,0.02133 -0.05243,0.04276 -0.06183,0.06442 -0.0096,0.02261 -0.0076,0.04431 0.0062,0.06494 0.01107,0.01649 0.02607,0.02547 0.04417,0.02703 0.01791,0.0025 0.04187,-0.0017 0.07273,-0.01299 l 0.08624,-0.03221 c 0.04384,-0.01738 0.0831,-0.02248 0.117937,-0.01505 0.03426,0.0078 0.06144,0.02656 0.08157,0.05663 0.01738,0.02595 0.02567,0.05413 0.02492,0.08365 -0.0014,0.0299 -0.01118,0.05871 -0.02961,0.08729 -0.01802,0.02915 -0.04465,0.0558 -0.08001,0.07949 -0.03125,0.02089 -0.06378,0.03563 -0.0982,0.04416 -0.03501,0.0089 -0.0687,0.01051 -0.100785,0.0047 l -0.01299,-0.07481 c 0.03306,0.0035 0.06352,0.0022 0.09144,-0.0047 0.02831,-0.0061 0.0548,-0.01758 0.07897,-0.03376 0.03004,-0.02014 0.04951,-0.04171 0.05871,-0.06494 0.0086,-0.02283 0.0061,-0.04439 -0.0073,-0.06442 -0.0114,-0.01705 -0.02578,-0.0272 -0.04312,-0.03015 -0.01733,-0.0028 -0.03957,2.61e-4 -0.0665,0.0098 l -0.08728,0.03221 c -0.04835,0.01955 -0.0898,0.0254 -0.123655,0.01819 -0.03345,-0.0066 -0.06077,-0.02584 -0.08208,-0.05767 -0.02607,-0.0389 -0.0311,-0.08084 -0.01508,-0.125733 0.01649,-0.04429 0.05177,-0.08422 0.105991,-0.120532 0.07604,-0.05092 0.14932,-0.07221 0.219768,-0.0639 z m -0.486297,0.248343 0.0639,0.09923 -0.09924,0.0639 -0.06442,-0.09923 z m -0.270681,0.20418 c 0.04452,-8.67e-4 0.08657,0.0104 0.126245,0.0343 0.04005,0.0245 0.07522,0.06128 0.104951,0.109623 0.02937,0.04773 0.04556,0.09504 0.04935,0.141835 0.0042,0.0474 -0.0043,0.09048 -0.02495,0.129886 -0.02134,0.03978 -0.05357,0.07314 -0.09767,0.100275 -0.04472,0.02748 -0.08953,0.04187 -0.134045,0.0426 -0.04452,8.67e-4 -0.08686,-0.01124 -0.12729,-0.03637 -0.04005,-0.0245 -0.07507,-0.06085 -0.104425,-0.108583 -0.02972,-0.04834 -0.0466,-0.09608 -0.0504,-0.142873 -0.0035,-0.04619 0.0052,-0.08893 0.026,-0.128328 0.02075,-0.03941 0.05349,-0.07277 0.0982,-0.100275 0.04411,-0.02715 0.08892,-0.04098 0.134044,-0.04208 z m -0.02805,0.08416 c -0.02114,0.0032 -0.04268,0.01154 -0.06442,0.02495 -0.04351,0.02676 -0.0682,0.06154 -0.0743,0.104424 -0.0057,0.0435 0.0084,0.093 0.04261,0.148594 0.0338,0.05498 0.07178,0.08977 0.113782,0.103907 0.0414,0.01451 0.08335,0.0087 0.126251,-0.01766 0.04229,-0.02601 0.0664,-0.06108 0.07274,-0.104948 0.0063,-0.04387 -0.0073,-0.09361 -0.04105,-0.148588 -0.03419,-0.05559 -0.07186,-0.09044 -0.113256,-0.104954 -0.0205,-0.0069 -0.04122,-0.0089 -0.06234,-0.0057 z m -0.434343,0.164696 0.193794,0.333028 c 0.01249,0.02144 0.02573,0.04265 0.03948,0.06339 0.01346,0.02172 0.02756,0.04216 0.04313,0.06182 l -0.07897,0.04624 -0.06027,-0.0852 c 0.0073,0.03465 0.0073,0.06736 -0.0057,0.09663 -0.01666,0.03762 -0.0429,0.06658 -0.07845,0.08728 -0.0086,0.005 -0.01649,0.0087 -0.02387,0.01143 -0.0076,0.0036 -0.01513,0.0065 -0.02234,0.0083 l -0.04364,-0.07689 c 0.01855,-0.0035 0.03762,-0.01076 0.05663,-0.02181 0.03124,-0.01822 0.05224,-0.03935 0.06339,-0.0639 0.01116,-0.02453 0.01502,-0.05002 0.0114,-0.07585 -0.0035,-0.02581 -0.01205,-0.05039 -0.02598,-0.07429 l -0.152229,-0.261329 z m -0.440049,0.04364 0.02234,0.07638 c -0.03844,-8.67e-4 -0.07266,0.0025 -0.10287,0.0093 -0.03082,0.0073 -0.06223,0.01964 -0.09456,0.0374 -0.04413,0.02425 -0.07114,0.05448 -0.08052,0.0904 -0.01034,0.03565 -0.0028,0.07609 0.02234,0.122089 l 0.0639,0.115865 c -0.0017,-0.01983 -0.0039,-0.03959 2.64e-4,-0.05871 0.006,-0.02598 0.01783,-0.05015 0.03532,-0.07274 0.01691,-0.02223 0.03989,-0.0416 0.0691,-0.05767 0.04103,-0.02256 0.08292,-0.03302 0.125213,-0.03117 0.04264,0.0022 0.08233,0.01613 0.119492,0.04105 0.03655,0.02525 0.06737,0.06145 0.093,0.108066 0.02562,0.04662 0.03931,0.09226 0.04104,0.136636 0.0014,0.04535 -0.008,0.08592 -0.02908,0.122615 -0.02078,0.03732 -0.05197,0.06732 -0.093,0.08988 -0.04288,0.02359 -0.08479,0.0333 -0.12625,0.02859 -0.0321,-0.0032 -0.06002,-0.01724 -0.08572,-0.03637 l 0.04624,0.08365 -0.08521,0.04676 -0.254053,-0.462914 c -0.0393,-0.07148 -0.05003,-0.135254 -0.03221,-0.191191 0.01686,-0.05621 0.061,-0.103571 0.132486,-0.142878 0.07149,-0.0393 0.142227,-0.05772 0.212496,-0.05507 z m 0.02025,0.321079 c -0.02134,0.0025 -0.04288,0.0097 -0.06494,0.02181 -0.04414,0.02425 -0.07087,0.05749 -0.08001,0.09976 -0.0088,0.04288 0.0011,0.08982 0.02908,0.140795 0.02802,0.05097 0.06247,0.08421 0.103396,0.09975 0.04093,0.01552 0.08315,0.01074 0.127286,-0.01351 0.04414,-0.02425 0.07111,-0.05756 0.08053,-0.100787 0.0094,-0.04323 -2.9e-5,-0.09035 -0.02805,-0.14132 -0.02837,-0.05159 -0.06322,-0.08465 -0.104427,-0.09923 -0.02061,-0.0073 -0.04153,-0.0097 -0.06286,-0.0073 z m -0.413555,0.0343 0.153263,0.886858 -0.07741,0.04053 -0.152228,-0.887381 z m -0.337707,0.243141 0.345497,0.70243 -0.08676,0.04312 -0.151186,-0.307567 c 8.67e-4,0.03163 -0.0036,0.06214 -0.01869,0.08988 -0.01992,0.03667 -0.05087,0.06527 -0.09352,0.08624 -0.04265,0.02097 -0.08492,0.02915 -0.126768,0.02439 -0.04184,-0.0047 -0.08112,-0.02161 -0.117417,-0.05039 -0.03661,-0.02784 -0.06723,-0.06661 -0.09195,-0.116899 -0.02473,-0.05029 -0.03709,-0.09924 -0.03741,-0.146513 -8.68e-4,-0.04632 0.01007,-0.08772 0.03221,-0.12469 0.02181,-0.03602 0.05358,-0.06455 0.0956,-0.08521 0.04265,-0.02097 0.08433,-0.02834 0.125211,-0.02234 0.0321,0.0052 0.05945,0.02114 0.08469,0.0426 l -0.0452,-0.093 z m -0.130924,0.157945 c -0.02141,0.0011 -0.04358,0.0074 -0.0665,0.01869 -0.04519,0.02223 -0.0726,0.0548 -0.08209,0.0982 -0.0092,0.04403 8.67e-4,0.09493 0.02859,0.152223 0.02756,0.05602 0.06095,0.09335 0.100789,0.111701 0.04016,0.01894 0.08313,0.01699 0.128328,-0.0052 0.04583,-0.02253 0.07312,-0.05532 0.08261,-0.09871 0.0095,-0.0434 2.61e-4,-0.09349 -0.02753,-0.150148 -0.02816,-0.05729 -0.06218,-0.09532 -0.102353,-0.114302 -0.01991,-0.0092 -0.04041,-0.01351 -0.06182,-0.01249 z m -0.447327,0.122092 0.161575,0.350173 c 0.0104,0.02253 0.02158,0.04455 0.03323,0.0665 0.01129,0.02292 0.02376,0.04492 0.03741,0.06598 l -0.08313,0.03844 -0.05195,-0.0904 c 0.0039,0.03505 8.67e-4,0.06729 -0.01504,0.09508 -0.02017,0.03587 -0.04889,0.06278 -0.08625,0.08001 -0.009,0.0042 -0.01727,0.0074 -0.02492,0.0093 -0.008,0.0028 -0.01605,0.0047 -0.02339,0.0057 l -0.03585,-0.08053 c 0.0188,-0.0017 0.03822,-0.0074 0.05819,-0.01664 0.03285,-0.01513 0.05619,-0.0343 0.06962,-0.05767 0.01346,-0.02336 0.01928,-0.04824 0.01819,-0.07429 -0.0011,-0.02607 -0.0071,-0.05125 -0.01869,-0.07638 l -0.126765,-0.274319 z m -0.356923,0.16314 0.216126,0.489411 -0.08832,0.03896 -0.216649,-0.489415 z m -0.308611,0.163653 c 0.0441,0.0061 0.08394,0.02381 0.119492,0.05351 0.03556,0.02968 0.06402,0.07043 0.08573,0.122095 0.02145,0.05101 0.03068,0.100067 0.02751,0.147551 -0.0038,0.04775 -0.01975,0.09032 -0.04727,0.127288 -0.02756,0.03697 -0.06616,0.06588 -0.115858,0.08676 -0.03402,0.01429 -0.06914,0.02194 -0.105472,0.02339 -0.03605,0.0022 -0.06836,-0.0028 -0.09715,-0.01455 l 0.0011,-0.07637 c 0.03124,0.0084 0.06041,0.01216 0.0878,0.01146 0.02698,1.89e-4 0.05308,-0.0051 0.07794,-0.01555 0.04774,-0.02003 0.07925,-0.05198 0.09456,-0.09612 0.01466,-0.04386 0.0094,-0.09583 -0.0156,-0.155342 -0.02442,-0.0582 -0.05741,-0.0968 -0.09872,-0.116379 -0.04131,-0.01955 -0.08603,-0.01906 -0.135076,0.0017 -0.02356,0.0099 -0.04525,0.02412 -0.06495,0.04312 -0.01969,0.01906 -0.03742,0.04336 -0.05299,0.07221 l -0.05559,-0.05299 c 0.01269,-0.02841 0.03266,-0.05529 0.05975,-0.08053 0.0274,-0.02458 0.05834,-0.04414 0.093,-0.05871 0.0497,-0.02089 0.09707,-0.02815 0.141835,-0.02234 z m -0.416679,0.143918 0.284713,0.72944 -0.08989,0.03532 -0.178722,-0.457716 -0.139754,0.314321 -0.113259,0.04416 0.151184,-0.333549 -0.367315,-0.155347 0.116374,-0.04519 0.339784,0.141317 -0.093,-0.237954 z m -0.640599,0.244705 c 0.02136,-0.0017 0.04265,-2.62e-4 0.06339,0.0036 0.04105,0.0094 0.07759,0.03029 0.110144,0.06235 0.03281,0.0327 0.05854,0.07555 0.07741,0.128325 0.01888,0.05276 0.02595,0.101972 0.02134,0.148065 -0.0052,0.04634 -0.02025,0.08655 -0.04572,0.120535 -0.02595,0.0349 -0.06102,0.0598 -0.104428,0.07533 -0.04541,0.01624 -0.08814,0.01906 -0.128328,0.0078 -0.03018,-0.008 -0.0551,-0.02607 -0.07741,-0.04936 l 0.03167,0.08936 -0.08988,0.0322 -0.18028,-0.503957 0.08988,-0.03221 0.0343,0.0956 c 0.0025,-0.0322 0.01032,-0.06227 0.02859,-0.08832 0.02417,-0.03352 0.05901,-0.05857 0.104431,-0.07481 0.02206,-0.0079 0.04355,-0.01271 0.06494,-0.01455 z m 1.640722,0.04831 0.0426,0.09663 -0.103908,0.04572 -0.04261,-0.09611 z m -1.631888,0.03688 c -0.02136,-0.0014 -0.04383,0.0017 -0.06754,0.0104 -0.04809,0.01722 -0.07909,0.04666 -0.093,0.0878 -0.01433,0.04205 -0.0106,0.09316 0.01094,0.153267 0.02147,0.06011 0.05081,0.101429 0.08832,0.124167 0.03776,0.02342 0.08039,0.02684 0.127808,0.0098 0.04742,-0.01697 0.07875,-0.04693 0.09352,-0.08988 0.01477,-0.04295 0.01138,-0.09434 -0.0098,-0.153784 -0.02125,-0.05944 -0.05118,-0.100628 -0.08936,-0.12313 -0.01908,-0.01127 -0.03939,-0.01733 -0.06079,-0.01869 z m -0.484217,0.08105 0.241067,0.745544 -0.09195,0.02961 -0.105471,-0.326272 c -0.0036,0.03157 -0.01274,0.0609 -0.03171,0.08625 -0.02498,0.03341 -0.05972,0.05759 -0.104951,0.07221 -0.04522,0.01466 -0.08811,0.01691 -0.128846,0.0062 -0.04073,-0.01068 -0.07733,-0.0333 -0.109102,-0.06702 -0.03224,-0.03281 -0.05705,-0.07552 -0.07429,-0.128845 -0.01724,-0.05332 -0.02259,-0.103327 -0.01611,-0.150152 0.0061,-0.04593 0.02267,-0.08609 0.04988,-0.119488 0.02673,-0.03252 0.06248,-0.05573 0.107023,-0.07015 0.04522,-0.0146 0.08769,-0.01599 0.127291,-0.0042 0.03096,0.0097 0.05606,0.02923 0.07793,0.05404 l -0.03171,-0.09819 z m -0.152229,0.137676 c -0.02134,-0.0022 -0.04428,0.0011 -0.06857,0.0088 -0.04792,0.01549 -0.07997,0.04415 -0.0956,0.08573 -0.01541,0.04226 -0.01291,0.09356 0.0068,0.154306 0.01919,0.05939 0.04685,0.101324 0.08364,0.125211 0.03702,0.02453 0.07937,0.02901 0.127291,0.01351 0.04859,-0.01569 0.081,-0.04414 0.09663,-0.08572 0.01563,-0.04158 0.01369,-0.09268 -0.0057,-0.15275 -0.01964,-0.06074 -0.04819,-0.103248 -0.0852,-0.127805 -0.01841,-0.01193 -0.03788,-0.01928 -0.05923,-0.02134 z m -0.460311,0.05663 0.224957,0.750223 -0.09299,0.02754 -0.22496,-0.749702 z m -0.40265,0.118455 c 0.02472,-0.0011 0.04824,2.64e-4 0.07066,0.0057 0.04485,0.01034 0.08313,0.03224 0.115337,0.06598 0.03238,0.03444 0.0563,0.07973 0.0717,0.135081 0.01482,0.05331 0.01761,0.10257 0.0083,0.148592 -0.01,0.04621 -0.03015,0.08616 -0.06078,0.118977 -0.03043,0.03348 -0.06958,0.05684 -0.11742,0.07014 -0.04648,0.01296 -0.08879,0.01349 -0.127288,0.0022 -0.03918,-0.01121 -0.07306,-0.03352 -0.100795,-0.06702 -0.02823,-0.03266 -0.04927,-0.07518 -0.0639,-0.127811 l -0.0047,-0.01664 0.372513,-0.103391 c -0.01827,-0.06143 -0.04508,-0.105401 -0.08157,-0.129888 -0.03782,-0.02484 -0.08475,-0.02909 -0.140795,-0.01351 -0.03008,0.0083 -0.05741,0.02075 -0.08209,0.03792 -0.0245,0.01786 -0.04637,0.04036 -0.06546,0.06702 l -0.04831,-0.05819 c 0.01666,-0.02745 0.04114,-0.05263 0.07325,-0.07481 0.03231,-0.02147 0.06649,-0.03702 0.10339,-0.04727 0.027,-0.0075 0.05322,-0.01185 0.07793,-0.01299 z m 0.17405,0.290428 -0.281592,0.07845 c 0.01446,0.03824 0.03245,0.06947 0.05715,0.08781 0.03249,0.02412 0.07163,0.02986 0.11742,0.01711 0.04783,-0.01329 0.08087,-0.04083 0.09871,-0.08261 0.01199,-0.02827 0.01269,-0.063 0.0083,-0.100795 z" />
</svg>
