<?xml version="1.0" encoding="UTF-8" standalone="no"?>
<!-- Created with Inkscape (http://www.inkscape.org/) -->

<svg
   version="1.1"
   id="svg5208"
   width="205.1282"
   height="205.1282"
   viewBox="0 0 205.1282 205.1282"
   sodipodi:docname="ecobrickable-icon-from-ecobricks-org-white.svg"
   inkscape:version="1.1.2 (0a00cf5339, 2022-02-04)"
   xmlns:inkscape="http://www.inkscape.org/namespaces/inkscape"
   xmlns:sodipodi="http://sodipodi.sourceforge.net/DTD/sodipodi-0.dtd"
   xmlns="http://www.w3.org/2000/svg"
   xmlns:svg="http://www.w3.org/2000/svg">
  <defs
     id="defs5212" />
  <sodipodi:namedview
     id="namedview5210"
     pagecolor="#ffffff"
     bordercolor="#666666"
     borderopacity="1.0"
     inkscape:pageshadow="2"
     inkscape:pageopacity="0.0"
     inkscape:pagecheckerboard="0"
     showgrid="false"
     inkscape:zoom="3.8723448"
     inkscape:cx="109.75262"
     inkscape:cy="54.101587"
     inkscape:window-width="1920"
     inkscape:window-height="1016"
     inkscape:window-x="0"
     inkscape:window-y="0"
     inkscape:window-maximized="1"
     inkscape:current-layer="g5214" />
  <g
     inkscape:groupmode="layer"
     inkscape:label="Image"
     id="g5214">
    <path
       id="path40278"
       style="fill:none;stroke-width:1.42548;stroke-opacity:0.741304"
       transform="rotate(28.418932)"
       d="M 217.40098,41.504555 A 78.123711,78.123711 0 0 1 139.27727,119.62827 78.123711,78.123711 0 0 1 61.153557,41.504555 78.123711,78.123711 0 0 1 139.27727,-36.619156 78.123711,78.123711 0 0 1 217.40098,41.504555 Z" />
    <path
       id="path5293-0"
       style="fill:#ffffff;fill-opacity:1;stroke-width:0.209326"
       d="M 104.88079,10.532875 C 92.872367,10.454842 80.964682,12.722297 69.606829,17.305447 44.939237,27.259364 25.585338,47.75822 16.992819,73.032655 7.4924824,100.97745 11.866218,131.58254 28.817931,155.78041 c 16.017379,22.86415 41.865945,37.34969 69.744722,39.08478 17.685227,1.10068 35.463767,-2.97394 51.075307,-11.70551 3.32064,-1.85724 8.99167,-5.68987 12.142,-8.20761 14.16201,-11.3182 24.59734,-26.35325 30.22343,-43.54733 7.61644,-23.27684 5.63006,-48.690024 -5.51291,-70.535994 -9.92526,-19.458631 -26.09165,-34.475747 -46.4812,-43.17863 -3.04542,-1.29987 -10.22911,-3.682173 -13.5013,-4.476513 -7.18164,-1.743376 -14.42213,-2.633905 -21.62719,-2.680728 z m 13.87201,13.588992 c 0.73375,-0.02216 1.48945,-0.01833 2.29806,0.01014 2.26235,0.07917 3.45375,0.224496 4.61403,0.562054 8.4621,2.46186 12.85243,10.702274 12.83162,24.082687 -0.0176,11.271902 -3.40597,23.456715 -11.53808,41.488484 l -0.63182,1.401164 3.07337,1.598445 c 3.53515,1.83735 4.01609,2.211211 4.01609,3.123202 0,0.951865 -0.51844,1.557386 -1.46094,1.708092 -0.80527,0.128714 -0.8195,0.148945 -2.95179,4.030045 -1.1787,2.14544 -2.21043,4.03143 -2.29206,4.19152 -0.26708,0.5235 0.43183,2.58184 2.00307,5.90556 1.83737,3.88675 2.3833,5.6874 2.53922,8.35311 0.11197,1.91417 0.0856,2.08544 -0.74144,4.60407 -1.48691,4.5282 -3.42351,8.34633 -6.02118,11.87094 -0.61156,0.82977 -2.40236,3.04319 -3.97824,4.91899 -4.55952,5.42722 -5.86634,7.68816 -8.44678,14.60945 -2.71475,7.28159 -5.40914,12.78024 -9.55495,19.49454 -1.81743,2.94343 -4.170641,4.81313 -7.179157,5.70628 -0.670884,0.19916 -1.871503,0.33493 -2.929866,0.33085 -1.729497,-0.006 -1.867494,-0.0429 -3.848689,-1.04439 -1.130051,-0.57123 -3.389561,-1.90345 -5.02261,-2.95976 -7.060242,-4.56676 -8.97542,-5.61222 -12.187835,-6.653 -2.45256,-0.79454 -6.608411,-3.19678 -7.77512,-4.49443 -2.391687,-2.66013 -3.338206,-6.64856 -2.463486,-10.38009 0.497678,-2.12298 5.272505,-10.8086 8.630163,-15.6997 0.750817,-1.09373 2.530154,-3.47328 3.954322,-5.2877 4.898005,-6.24019 6.006667,-8.27592 8.43681,-15.48244 1.817073,-5.38851 2.815818,-7.77278 4.462575,-10.65713 1.317969,-2.30851 3.875929,-5.73943 5.628513,-7.54789 2.308046,-2.381658 5.196675,-3.445015 10.95211,-4.034041 1.72696,-0.17674 3.7521,-0.486976 4.50044,-0.689623 l 1.35929,-0.368719 2.34389,-4.077894 c 2.19972,-3.827999 2.33672,-4.132814 2.22432,-4.95287 -0.10254,-0.748203 -0.0419,-0.952729 0.42052,-1.4151 0.96255,-0.962524 1.7527,-0.721879 5.94146,1.801766 l 0.67167,0.404602 0.33484,-0.797243 c 0.83643,-1.998715 3.3057,-9.085651 4.28916,-12.30942 2.91943,-9.569853 4.55315,-17.740398 4.75157,-23.763793 0.16928,-5.139009 -0.34367,-7.685147 -1.83763,-9.116459 -0.49697,-0.476114 -0.84933,-0.604153 -1.86556,-0.677656 -1.09998,-0.07957 -1.4387,-0.0017 -2.77439,0.633806 -2.86834,1.364623 -6.55787,4.843492 -11.27302,10.629226 -1.17282,1.43913 -2.19375,2.64265 -2.26813,2.67275 -0.13484,0.05452 -7.99382,-26.63224 -7.97841,-27.092268 0.0159,-0.473737 6.09095,-2.697427 9.85589,-3.60752 2.67912,-0.647614 4.68694,-0.955959 6.88818,-1.022463 z M 94.919248,29.35576 c 0.08088,0.146855 2.03362,6.154197 4.338993,13.349818 6.060909,18.917612 6.318129,19.730253 6.318129,20.016757 0,0.143098 -0.94777,1.181989 -2.1047,2.308012 -1.9474,1.895375 -2.42504,2.545231 -6.4497,8.753713 -2.390985,3.68838 -4.859476,7.479619 -5.485026,8.426854 -0.625517,0.947222 -1.184141,1.719071 -1.241696,1.714066 -0.05762,-0.0054 -0.812715,-0.624706 -1.676198,-1.377241 C 87.755574,81.795214 83.565077,78.324752 79.305268,74.836427 72.133151,68.963212 66.884036,64.582061 64.468586,62.45127 L 63.47801,61.576295 71.601926,51.14638 c 4.46854,-5.736525 8.221987,-10.429921 8.339146,-10.429921 0.117137,0 2.56402,2.44678 5.439186,5.437191 2.87516,2.990409 6.830388,7.104344 8.787599,9.140379 1.957195,2.036028 3.581232,3.678744 3.609506,3.651375 0.03841,-0.03724 -6.387443,-14.537579 -10.487726,-23.666135 l -0.28102,-0.623842 2.114694,-1.556615 c 4.189121,-3.087439 5.640509,-4.025275 5.795937,-3.743052 z m 25.960192,59.587872 -0.30294,0.587958 c -0.1663,0.322965 -1.26483,2.659167 -2.44156,5.192031 -4.60882,9.920249 -10.08597,20.373179 -14.53173,27.736049 -3.09661,5.12845 -6.496716,10.46517 -6.668932,10.46581 -0.08995,3.3e-4 -1.725879,-1.1341 -3.635419,-2.5213 -1.909555,-1.38718 -3.504207,-2.49101 -3.543748,-2.4515 -0.05914,0.059 -1.375084,18.28866 -1.594476,22.0856 -0.03489,0.60448 -0.05242,1.09825 -0.03777,1.09817 0.01441,-5e-5 0.561296,-0.23671 1.215799,-0.52617 0.654511,-0.28942 3.988222,-1.6628 7.406385,-3.05144 9.632441,-3.91323 14.272611,-5.87983 14.272611,-6.04907 0,-0.0853 -1.55224,-1.06992 -3.45005,-2.18843 l -3.45008,-2.03297 0.33884,-0.65773 c 0.18679,-0.36121 1.09215,-2.02612 2.01105,-3.6992 2.19464,-3.99588 6.03034,-11.6727 8.32918,-16.67032 3.48328,-7.57261 11.1093,-24.615715 11.04378,-24.680633 -0.0359,-0.03575 -1.16676,-0.644275 -2.51329,-1.351324 z m 53.98923,52.428598 c 0.17763,0.006 0.36032,0.0608 0.5481,0.16545 0.18543,0.10328 0.32964,0.23187 0.4325,0.38267 0.10147,0.15317 0.15521,0.31747 0.15946,0.49429 0.004,0.17683 -0.0448,0.35549 -0.14549,0.53615 -0.0688,0.12353 -0.15671,0.23063 -0.26309,0.32089 -0.10393,0.0915 -0.21411,0.15273 -0.32887,0.18534 l -0.17738,-0.23318 c 0.11429,-0.0484 0.21201,-0.10637 0.29297,-0.1734 0.082,-0.0633 0.14898,-0.14087 0.19933,-0.23121 0.0967,-0.17352 0.11593,-0.3447 0.0577,-0.51421 -0.0595,-0.16713 -0.19826,-0.31194 -0.41457,-0.4325 -0.21154,-0.11798 -0.40296,-0.15623 -0.57402,-0.11757 -0.17107,0.0387 -0.30523,0.14661 -0.40461,0.32488 -0.0476,0.0856 -0.0794,0.18091 -0.0936,0.28502 -0.0144,0.10415 -0.0109,0.21683 0.01,0.34081 l -0.29297,-0.026 c -0.0288,-0.11581 -0.0321,-0.24435 -0.01,-0.38467 0.0246,-0.13899 0.0713,-0.27266 0.1415,-0.39862 0.10063,-0.18067 0.2258,-0.31427 0.37471,-0.40263 0.14759,-0.086 0.3107,-0.12707 0.48831,-0.12163 z m -1.00054,1.77986 c 0.17741,0.0109 0.35902,0.0701 0.54412,0.17938 0.18275,0.1079 0.32347,0.23731 0.42254,0.39065 0.0977,0.15567 0.14567,0.32139 0.14549,0.49828 -1.8e-4,0.17689 -0.0522,0.35607 -0.15744,0.53415 -0.072,0.12177 -0.16246,0.22536 -0.27107,0.31292 -0.10627,0.0889 -0.21732,0.14764 -0.33284,0.17738 l -0.17141,-0.23718 c 0.11539,-0.0455 0.21435,-0.10243 0.29697,-0.16743 0.0835,-0.0614 0.15271,-0.13617 0.20528,-0.22522 0.10105,-0.17104 0.12368,-0.34132 0.0698,-0.51221 -0.0554,-0.16858 -0.18938,-0.31655 -0.4026,-0.44248 -0.20853,-0.12313 -0.39804,-0.16786 -0.57002,-0.13361 -0.17198,0.0342 -0.31077,0.13918 -0.41457,0.31492 -0.0499,0.0843 -0.0828,0.17931 -0.0998,0.28302 -0.017,0.10371 -0.016,0.21834 8e-4,0.3428 l -0.29297,-0.0358 c -0.026,-0.11646 -0.0256,-0.24493 0,-0.38467 0.0281,-0.13833 0.0782,-0.26846 0.15147,-0.39264 0.1052,-0.17806 0.23356,-0.31006 0.38467,-0.39464 0.1497,-0.0822 0.31289,-0.11755 0.49031,-0.10762 z m -2.03097,2.45551 2.43758,1.58452 -0.64976,0.99853 c -0.16018,0.24643 -0.34185,0.4019 -0.54412,0.46839 -0.20148,0.0702 -0.40483,0.0403 -0.6079,-0.0917 -0.14145,-0.092 -0.23535,-0.20944 -0.28302,-0.35079 -0.0425,-0.12463 -0.0401,-0.26044 -0.006,-0.40459 -0.12109,0.11457 -0.2541,0.1863 -0.40262,0.20328 -0.16128,0.0186 -0.32261,-0.0238 -0.48231,-0.12748 -0.21217,-0.13795 -0.32986,-0.31678 -0.35279,-0.53616 -0.0222,-0.21561 0.0522,-0.45343 0.22124,-0.71353 z m 0.0537,0.47834 -0.44846,0.69159 c -0.12014,0.18481 -0.17552,0.34119 -0.16344,0.47238 0.0122,0.13117 0.0913,0.24339 0.2352,0.33684 0.14372,0.0935 0.28001,0.11878 0.40859,0.0758 0.12708,-0.0406 0.25005,-0.15233 0.3687,-0.33486 l 0.44846,-0.68959 z m 1.11214,0.72349 -0.41258,0.63581 c -0.11565,0.17794 -0.16805,0.3329 -0.15743,0.46638 0.0109,0.13349 0.0843,0.24584 0.22122,0.33483 0.13238,0.086 0.25865,0.10574 0.38267,0.0598 0.12477,-0.0422 0.24757,-0.15461 0.36473,-0.33486 l 0.41258,-0.63579 z m -3.06939,1.65827 0.96068,0.67166 2.08081,0.0479 -0.25113,0.36075 -1.66624,-0.0618 0.63182,1.54465 -0.24715,0.35476 -0.76934,-1.93729 -0.95669,-0.66768 z m -2.28408,1.89743 2.91591,2.19442 -0.21128,0.28102 -2.91592,-2.19441 z m -0.71155,2.15655 2.25023,1.83764 -0.18139,0.22122 -2.83818,-0.10967 1.75593,1.43505 -0.22523,0.27904 -2.2522,-1.83964 0.18336,-0.22324 2.85015,0.11157 -1.76589,-1.44102 z m -1.94328,2.35585 2.17848,1.92334 -0.65774,0.74742 c -0.20533,0.23255 -0.42398,0.3928 -0.65375,0.48033 -0.22951,0.0913 -0.46273,0.10832 -0.70155,0.0499 -0.23861,-0.0545 -0.47307,-0.18513 -0.70357,-0.38867 -0.23255,-0.20533 -0.39262,-0.42392 -0.47835,-0.65573 -0.0837,-0.23001 -0.0962,-0.46468 -0.0359,-0.70555 0.0585,-0.23884 0.19111,-0.47308 0.39464,-0.70359 z m -0.01,0.49229 -0.39463,0.44646 c -0.24316,0.27538 -0.35296,0.54446 -0.33085,0.80721 0.0202,0.26478 0.17288,0.52295 0.45642,0.77332 0.56504,0.4989 1.09023,0.47303 1.57655,-0.0778 l 0.39464,-0.44645 z m -3.41616,3.60953 c 0.0851,3.3e-4 0.16944,0.014 0.25511,0.0399 0.17324,0.0537 0.33819,0.15729 0.49429,0.31292 0.1503,0.14987 0.25486,0.31117 0.31091,0.48235 0.0541,0.17311 0.0601,0.34275 0.0198,0.51023 -0.0382,0.16939 -0.12464,0.32153 -0.25912,0.45642 -0.13061,0.13102 -0.27049,0.21428 -0.42054,0.24913 -0.15196,0.0367 -0.30646,0.0256 -0.4624,-0.0339 -0.15593,-0.0557 -0.30804,-0.15698 -0.45643,-0.30494 l -0.0459,-0.0459 1.04639,-1.05036 c -0.17708,-0.17019 -0.35026,-0.26638 -0.51824,-0.27904 -0.17318,-0.0109 -0.3387,0.0614 -0.49626,0.21923 -0.0846,0.0847 -0.15144,0.17905 -0.20131,0.28303 -0.0479,0.10585 -0.0784,0.22171 -0.0916,0.3468 l -0.27105,-0.10372 c 0.004,-0.12313 0.0383,-0.25188 0.10371,-0.38666 0.0672,-0.1328 0.15138,-0.25072 0.25514,-0.35477 0.15176,-0.15225 0.31306,-0.25269 0.48232,-0.30297 0.0846,-0.0252 0.16996,-0.0382 0.25511,-0.0378 z m 0.62981,0.79125 -0.79127,0.79325 c 0.12056,0.10008 0.23969,0.17291 0.35679,0.18735 0.15394,0.019 0.29578,-0.0363 0.42449,-0.16542 0.13458,-0.13484 0.19092,-0.28925 0.17142,-0.46241 -0.0137,-0.11687 -0.0758,-0.23513 -0.16143,-0.35277 z m -2.20239,0.7773 c 0.0836,0.006 0.16719,0.0207 0.25114,0.0499 0.16791,0.058 0.32426,0.16505 0.47237,0.32088 0.14621,0.15384 0.24765,0.3197 0.30095,0.49428 0.0512,0.17647 0.0525,0.34814 0.004,0.51821 -0.0486,0.17008 -0.14907,0.32791 -0.29897,0.47037 -0.10264,0.0974 -0.21838,0.17276 -0.34678,0.22722 -0.12656,0.0564 -0.24949,0.0828 -0.36875,0.0797 l -0.0998,-0.27706 c 0.12354,-0.0122 0.23558,-0.0378 0.33283,-0.0778 0.0972,-0.0359 0.18216,-0.0903 0.25712,-0.16146 0.14399,-0.13685 0.21433,-0.29322 0.20927,-0.47236 -0.006,-0.17727 -0.0965,-0.35665 -0.26708,-0.53614 -0.16683,-0.17556 -0.33741,-0.27094 -0.51223,-0.28502 -0.17479,-0.014 -0.33639,0.0507 -0.48432,0.19134 -0.0711,0.0675 -0.12857,0.14807 -0.1734,0.24315 -0.0448,0.0951 -0.0749,0.20418 -0.0917,0.32887 l -0.27308,-0.11362 c 0.006,-0.11919 0.0428,-0.24135 0.10563,-0.36871 0.0647,-0.12545 0.14858,-0.23749 0.25312,-0.33683 0.14992,-0.14248 0.30987,-0.23507 0.47834,-0.27506 0.0833,-0.0191 0.16754,-0.0249 0.25115,-0.0198 z m -1.48486,1.39519 c 0.0835,0.006 0.16802,0.0265 0.25112,0.0577 0.16806,0.0647 0.32484,0.17692 0.47038,0.33881 0.14373,0.15989 0.23839,0.3283 0.28503,0.50227 0.0484,0.176 0.0471,0.34525 -0.004,0.50824 -0.0531,0.16484 -0.15323,0.31367 -0.30096,0.44645 -0.14975,0.1347 -0.30886,0.21767 -0.47635,0.25115 -0.16751,0.0335 -0.33638,0.0171 -0.50624,-0.0499 -0.16805,-0.0647 -0.32267,-0.17697 -0.46639,-0.33684 -0.14555,-0.1619 -0.24239,-0.33029 -0.28902,-0.50426 -0.0448,-0.17195 -0.041,-0.33926 0.009,-0.50227 0.051,-0.16299 0.15119,-0.31183 0.30095,-0.44646 0.14774,-0.13279 0.30684,-0.21583 0.47636,-0.25111 0.0838,-0.0167 0.16571,-0.0214 0.24914,-0.014 z m -0.0577,0.33085 c -0.16443,-0.0242 -0.32069,0.0284 -0.46638,0.15944 -0.14572,0.13103 -0.21586,0.28039 -0.20927,0.44647 0.009,0.16808 0.0977,0.34398 0.26506,0.53015 0.16558,0.18416 0.33201,0.28856 0.50029,0.31293 0.16623,0.0263 0.32068,-0.0243 0.4644,-0.15348 0.14165,-0.12736 0.20964,-0.27655 0.20328,-0.44644 -0.006,-0.16992 -0.0916,-0.34801 -0.25711,-0.53217 -0.16737,-0.18617 -0.33403,-0.29071 -0.50027,-0.3169 z m -1.76192,0.94473 1.9393,2.29606 -0.28501,0.23917 -0.84706,-1.00254 c 0.0326,0.11661 0.0442,0.23393 0.014,0.3508 -0.04,0.155 -0.12981,0.29086 -0.26906,0.40858 -0.13924,0.11769 -0.28832,0.18794 -0.44846,0.20929 -0.16012,0.0214 -0.32247,-0.006 -0.4843,-0.0797 -0.16218,-0.0697 -0.31166,-0.1866 -0.45045,-0.35079 -0.13879,-0.16416 -0.23191,-0.3326 -0.27705,-0.50823 -0.0455,-0.17181 -0.0438,-0.33811 0.004,-0.49629 0.0476,-0.15433 0.13989,-0.28865 0.27706,-0.4046 0.13923,-0.11768 0.2887,-0.18356 0.44645,-0.19932 0.12461,-0.0109 0.24253,0.0211 0.35675,0.0779 l -0.25711,-0.30296 z m -0.0997,0.69958 c -0.16536,-0.0313 -0.32273,0.0171 -0.47236,0.1435 -0.14755,0.12478 -0.21829,0.27211 -0.21329,0.44246 0.006,0.17244 0.0892,0.35112 0.24717,0.53815 0.1546,0.18288 0.31496,0.28965 0.48033,0.32089 0.16713,0.0334 0.32282,-0.0109 0.47038,-0.13551 0.14963,-0.12654 0.22229,-0.27611 0.21724,-0.44645 -0.006,-0.17036 -0.0847,-0.34721 -0.24116,-0.53217 -0.15811,-0.18704 -0.32117,-0.29755 -0.48831,-0.33086 z m -1.7918,0.88296 0.92481,1.152 c 0.0596,0.0743 0.12151,0.14641 0.18536,0.21725 0.0633,0.0747 0.12899,0.14552 0.1993,0.21127 l -0.27307,0.21924 -0.27703,-0.289 c 0.0474,0.12722 0.0669,0.25022 0.0339,0.36873 -0.0417,0.15221 -0.12408,0.27785 -0.24714,0.37669 -0.0297,0.0238 -0.0591,0.0432 -0.0857,0.0579 -0.027,0.0183 -0.0534,0.0332 -0.0797,0.0439 l -0.20928,-0.26707 c 0.0685,-0.0236 0.13552,-0.0608 0.20129,-0.11362 0.10818,-0.087 0.17703,-0.17951 0.20531,-0.27902 0.0282,-0.0996 0.0282,-0.19901 0,-0.29498 -0.0284,-0.096 -0.0749,-0.18433 -0.14152,-0.26707 l -0.72748,-0.90488 z m -1.17992,0.93674 1.26164,1.62041 -0.29498,0.2292 -1.25964,-1.6204 z m -0.99655,0.89491 c 0.16984,-0.0182 0.33441,0.0122 0.49428,0.0897 0.1599,0.0775 0.3038,0.20253 0.43251,0.37471 0.12708,0.17001 0.2068,0.34454 0.23917,0.52419 0.0303,0.18128 0.0122,0.35304 -0.0558,0.5162 -0.0683,0.16318 -0.18514,0.30669 -0.35078,0.43053 -0.11334,0.0847 -0.23876,0.14636 -0.37271,0.18535 -0.13225,0.0411 -0.25663,0.0548 -0.37469,0.0378 l -0.0657,-0.28698 c 0.12409,8e-4 0.23557,-0.0122 0.33684,-0.0399 0.10062,-0.0242 0.19223,-0.0655 0.27505,-0.12749 0.15912,-0.11892 0.24702,-0.26796 0.2631,-0.44646 0.0138,-0.17685 -0.0531,-0.36568 -0.20132,-0.56403 -0.145,-0.19398 -0.30242,-0.30825 -0.47436,-0.34283 -0.17193,-0.0345 -0.34078,0.01 -0.50426,0.13158 -0.0785,0.0587 -0.14564,0.13198 -0.20131,0.22121 -0.0557,0.0892 -0.0983,0.19505 -0.12952,0.31691 l -0.25712,-0.1435 c 0.0211,-0.11755 0.0699,-0.23571 0.14749,-0.35478 0.0791,-0.11688 0.17747,-0.2186 0.29299,-0.30493 0.16565,-0.12382 0.33423,-0.19738 0.50627,-0.21725 z m -1.41511,0.92281 1.73402,2.45153 -0.30296,0.21524 -1.08624,-1.53469 -0.2312,1.29752 -0.38069,0.26906 0.25511,-1.38321 -1.51077,-0.23718 0.38865,-0.27705 1.39519,0.21127 -0.56605,-0.79923 z m 3.99419,0.16342 0.24715,0.3189 -0.34481,0.26908 -0.24715,-0.3189 z m -5.47305,1.16598 0.0519,0.289 c -0.13739,-0.01 -0.26473,7e-4 -0.38467,0.032 -0.12069,0.035 -0.2412,0.0926 -0.35875,0.1714 -0.12205,0.0818 -0.20113,0.16406 -0.23719,0.24716 -0.0368,0.0867 -0.0291,0.16999 0.0238,0.24912 0.0425,0.0633 0.1,0.0977 0.16943,0.10371 0.0687,0.01 0.16062,-0.006 0.27902,-0.0499 l 0.33085,-0.12356 c 0.16816,-0.0667 0.31879,-0.0862 0.45244,-0.0577 0.13143,0.03 0.23569,0.10189 0.31291,0.21724 0.0667,0.0996 0.0985,0.20768 0.0956,0.32089 -0.006,0.1147 -0.0429,0.22525 -0.11361,0.33486 -0.0691,0.11183 -0.17126,0.21408 -0.30694,0.30493 -0.11986,0.0801 -0.24467,0.13669 -0.3767,0.16941 -0.1343,0.0342 -0.26357,0.0403 -0.38664,0.0179 l -0.0499,-0.287 c 0.12682,0.0137 0.24366,0.009 0.35078,-0.018 0.10859,-0.0236 0.21024,-0.0675 0.30294,-0.12953 0.11526,-0.0772 0.18995,-0.16 0.22523,-0.24914 0.0331,-0.0876 0.0236,-0.17027 -0.0281,-0.24715 -0.0438,-0.0654 -0.0989,-0.10436 -0.16542,-0.11566 -0.0665,-0.0109 -0.15179,8e-4 -0.25512,0.0378 l -0.33483,0.12356 c -0.18551,0.075 -0.34449,0.0974 -0.47438,0.0698 -0.12831,-0.0255 -0.23312,-0.0991 -0.3149,-0.22123 -0.1,-0.14924 -0.11932,-0.31013 -0.0579,-0.48234 0.0633,-0.16994 0.19858,-0.32308 0.40661,-0.4624 0.29168,-0.19532 0.57282,-0.27703 0.84308,-0.24515 z m -1.86556,0.9527 0.24515,0.38068 -0.38068,0.24516 -0.24716,-0.38069 z m -1.03841,0.78329 c 0.1708,-0.003 0.3321,0.0399 0.48431,0.13157 0.15366,0.094 0.28857,0.23512 0.40263,0.42055 0.11265,0.18311 0.17476,0.36458 0.18932,0.54411 0.016,0.18186 -0.0162,0.34713 -0.0957,0.49828 -0.0818,0.15259 -0.20549,0.2806 -0.37469,0.38468 -0.17155,0.10542 -0.34344,0.16062 -0.51423,0.16342 -0.17077,0.003 -0.33323,-0.0431 -0.48832,-0.13952 -0.15365,-0.094 -0.28799,-0.23344 -0.4006,-0.41655 -0.11403,-0.18544 -0.17877,-0.36857 -0.19334,-0.5481 -0.0137,-0.17722 0.0201,-0.34115 0.0998,-0.4923 0.0796,-0.15116 0.20518,-0.27916 0.37671,-0.38468 0.16919,-0.10414 0.34112,-0.15719 0.51423,-0.16143 z m -0.10762,0.32288 c -0.0811,0.0122 -0.16371,0.0443 -0.24715,0.0957 -0.16689,0.10265 -0.26163,0.23607 -0.28503,0.4006 -0.0219,0.16687 0.0321,0.35679 0.16345,0.57004 0.12966,0.21092 0.27535,0.34438 0.43649,0.39862 0.15883,0.0557 0.31975,0.0335 0.48433,-0.0678 0.16225,-0.0998 0.25474,-0.23432 0.27904,-0.4026 0.0243,-0.16828 -0.0279,-0.35911 -0.15748,-0.57003 -0.13116,-0.21326 -0.27566,-0.34694 -0.43448,-0.40263 -0.0787,-0.0266 -0.15811,-0.0342 -0.23917,-0.0219 z m -1.66625,0.63181 0.74344,1.27758 c 0.0479,0.0823 0.0987,0.1636 0.15146,0.24318 0.0516,0.0833 0.10574,0.16171 0.16544,0.23716 l -0.30294,0.1774 -0.23121,-0.32686 c 0.0281,0.13292 0.0283,0.25842 -0.0219,0.3707 -0.0639,0.14433 -0.16458,0.25541 -0.30096,0.33484 -0.033,0.0192 -0.0633,0.0335 -0.0915,0.0439 -0.0294,0.014 -0.058,0.0252 -0.0857,0.0318 l -0.16742,-0.29496 c 0.0712,-0.0137 0.14435,-0.0413 0.21725,-0.0837 0.11988,-0.0699 0.2004,-0.15096 0.24317,-0.24514 0.0428,-0.0941 0.0576,-0.19187 0.0438,-0.291 -0.0137,-0.099 -0.0462,-0.19331 -0.0996,-0.28502 l -0.584,-1.00252 z m -1.68814,0.16742 0.0857,0.293 c -0.14748,-0.003 -0.27875,0.01 -0.39463,0.0359 -0.11825,0.0279 -0.23874,0.0753 -0.36277,0.14349 -0.16929,0.0931 -0.2729,0.20899 -0.30891,0.34681 -0.0397,0.13674 -0.0109,0.29192 0.0857,0.46837 l 0.24515,0.44449 c -0.006,-0.0761 -0.015,-0.15185 8e-4,-0.22524 0.023,-0.0997 0.0684,-0.19237 0.13551,-0.27903 0.0649,-0.0853 0.15302,-0.15962 0.26509,-0.22124 0.15738,-0.0865 0.31809,-0.12667 0.48035,-0.1196 0.16356,0.009 0.31583,0.0619 0.4584,0.15746 0.14021,0.0969 0.25845,0.23573 0.35677,0.41457 0.0983,0.17885 0.1508,0.35393 0.15746,0.52417 0.006,0.17396 -0.0307,0.32962 -0.11158,0.47038 -0.0797,0.14317 -0.19938,0.25828 -0.35677,0.34482 -0.16452,0.0905 -0.32527,0.12775 -0.48433,0.10966 -0.12313,-0.0122 -0.23025,-0.0662 -0.32884,-0.13951 l 0.17738,0.32089 -0.32688,0.17938 -0.97461,-1.77586 c -0.15078,-0.27422 -0.19192,-0.51887 -0.12356,-0.73345 0.0647,-0.21568 0.23402,-0.39734 0.50826,-0.54812 0.27423,-0.15077 0.54562,-0.22144 0.81519,-0.21126 z m 0.0777,1.23174 c -0.0818,0.01 -0.1645,0.0372 -0.24914,0.0837 -0.16931,0.093 -0.27187,0.22053 -0.30692,0.38268 -0.0339,0.1645 0.004,0.3446 0.11156,0.54012 0.1075,0.19555 0.23963,0.32305 0.39665,0.38268 0.157,0.0595 0.31898,0.0412 0.4883,-0.0519 0.16931,-0.093 0.27278,-0.22083 0.30892,-0.38664 0.0362,-0.16584 -1.1e-4,-0.3466 -0.10763,-0.54214 -0.10884,-0.19794 -0.24253,-0.32474 -0.40061,-0.38069 -0.0791,-0.0279 -0.15933,-0.0374 -0.24116,-0.0279 z m -1.5865,0.13158 0.58796,3.40222 -0.29696,0.15547 -0.584,-3.40422 z m -1.29553,0.93276 1.32542,2.6947 -0.33285,0.16541 -0.57999,-1.1799 c 0.003,0.12136 -0.014,0.23841 -0.0717,0.34481 -0.0764,0.14066 -0.19515,0.25038 -0.35878,0.33085 -0.16359,0.0805 -0.32578,0.11183 -0.48631,0.0936 -0.16052,-0.0182 -0.3112,-0.0829 -0.45044,-0.19331 -0.14044,-0.10681 -0.25792,-0.25555 -0.35277,-0.44846 -0.0949,-0.19293 -0.14228,-0.38071 -0.1435,-0.56205 -0.003,-0.17769 0.0387,-0.33652 0.12355,-0.47835 0.0836,-0.13818 0.20556,-0.24761 0.36673,-0.32687 0.16361,-0.0804 0.3235,-0.10872 0.48034,-0.0857 0.12314,0.0199 0.22805,0.0811 0.32488,0.16344 l -0.1734,-0.35676 z m -0.50226,0.60592 c -0.0822,0.004 -0.16721,0.0285 -0.25512,0.0717 -0.17338,0.0853 -0.27852,0.2102 -0.31491,0.37671 -0.0353,0.16892 0.003,0.36418 0.10968,0.58397 0.10574,0.21489 0.23379,0.35812 0.38666,0.42851 0.15406,0.0727 0.31892,0.0652 0.4923,-0.0198 0.17582,-0.0864 0.2805,-0.21222 0.3169,-0.3787 0.0364,-0.16649 8e-4,-0.35867 -0.10563,-0.57601 -0.10804,-0.21978 -0.23857,-0.36566 -0.39265,-0.43849 -0.0764,-0.0353 -0.155,-0.0519 -0.23717,-0.0479 z m -1.71606,0.46838 0.61984,1.34335 c 0.0399,0.0864 0.0828,0.17092 0.12749,0.25512 0.0433,0.0879 0.0911,0.17233 0.14353,0.25313 l -0.31892,0.14747 -0.19929,-0.3468 c 0.015,0.13443 0.003,0.25811 -0.0577,0.36475 -0.0774,0.13758 -0.18757,0.24084 -0.33088,0.30694 -0.0345,0.0159 -0.0663,0.0284 -0.0956,0.0359 -0.0307,0.0109 -0.0615,0.018 -0.0897,0.0218 l -0.13752,-0.30893 c 0.0721,-0.006 0.14661,-0.0284 0.22321,-0.0638 0.126,-0.058 0.21556,-0.13157 0.26709,-0.22123 0.0516,-0.0896 0.0739,-0.18505 0.0698,-0.28502 -0.004,-0.1 -0.0273,-0.19661 -0.0717,-0.293 l -0.4863,-1.05236 z m -1.36925,0.62584 0.82912,1.87751 -0.33883,0.14948 -0.83113,-1.87752 z m -1.1839,0.62782 c 0.16918,0.0234 0.32201,0.0913 0.45839,0.20529 0.13641,0.11388 0.2456,0.27019 0.32888,0.46838 0.0823,0.19568 0.11768,0.38389 0.10553,0.56604 -0.0144,0.1832 -0.0758,0.34649 -0.18136,0.48832 -0.10574,0.14181 -0.25381,0.25274 -0.44447,0.33284 -0.1305,0.0548 -0.26521,0.0842 -0.40461,0.0897 -0.13833,0.009 -0.26226,-0.0109 -0.37271,-0.0558 l 0.004,-0.293 c 0.11987,0.0321 0.23176,0.0467 0.33683,0.0439 0.1035,7.3e-4 0.20361,-0.0196 0.29897,-0.0596 0.18313,-0.0768 0.304,-0.19942 0.36274,-0.36873 0.0563,-0.16825 0.0359,-0.36763 -0.0599,-0.59593 -0.0937,-0.22328 -0.22022,-0.37136 -0.37871,-0.44646 -0.15845,-0.075 -0.33003,-0.0731 -0.51818,0.006 -0.0904,0.038 -0.17357,0.0925 -0.24916,0.16542 -0.0755,0.0731 -0.14353,0.16634 -0.20329,0.27703 l -0.21325,-0.20329 c 0.0487,-0.10898 0.12531,-0.21212 0.22922,-0.30892 0.10509,-0.0943 0.22378,-0.16936 0.35675,-0.22522 0.19067,-0.0801 0.37239,-0.10803 0.54412,-0.0857 z m -1.5985,0.5521 1.09223,2.79832 -0.34482,0.1355 -0.68563,-1.75591 -0.53613,1.20581 -0.43449,0.16943 0.57998,-1.27958 -1.40912,-0.59595 0.44645,-0.17338 1.3035,0.54213 -0.35677,-0.91286 z m -2.45749,0.93875 c 0.0819,-0.006 0.16362,-8e-4 0.24316,0.014 0.15746,0.0361 0.29764,0.1162 0.42254,0.2392 0.12585,0.12543 0.22457,0.28985 0.29697,0.49229 0.0724,0.20241 0.0995,0.39118 0.0818,0.56801 -0.0201,0.17777 -0.0777,0.33203 -0.17541,0.4624 -0.0996,0.13388 -0.23406,0.22943 -0.40061,0.289 -0.17422,0.0623 -0.33815,0.0731 -0.4923,0.03 -0.11578,-0.0307 -0.21136,-0.1 -0.29696,-0.18933 l 0.12151,0.34281 -0.34482,0.12354 -0.69159,-1.93331 0.3448,-0.12355 0.13158,0.36674 c 0.01,-0.12355 0.0396,-0.23889 0.10967,-0.33882 0.0927,-0.12858 0.22638,-0.22469 0.40062,-0.28702 0.0846,-0.0302 0.16707,-0.0487 0.24913,-0.0558 z m 6.29422,0.18536 0.16343,0.37071 -0.39861,0.17539 -0.16344,-0.36871 z m -6.26034,0.14151 c -0.0819,-0.006 -0.16813,0.006 -0.2591,0.0399 -0.18449,0.066 -0.3034,0.17901 -0.35677,0.33683 -0.055,0.16129 -0.0406,0.35736 0.0419,0.58797 0.0824,0.2306 0.19491,0.38911 0.33881,0.47634 0.14485,0.0898 0.30839,0.10296 0.49031,0.0378 0.18191,-0.0651 0.30211,-0.18005 0.35877,-0.34481 0.0567,-0.16477 0.0436,-0.36191 -0.0378,-0.58996 -0.0815,-0.22803 -0.19634,-0.38603 -0.34281,-0.47235 -0.0732,-0.0432 -0.1511,-0.0665 -0.2332,-0.0717 z m -1.85758,0.31092 0.92479,2.8601 -0.35275,0.1136 -0.40461,-1.25166 c -0.014,0.12109 -0.0489,0.23361 -0.12164,0.33086 -0.0958,0.12817 -0.22912,0.22094 -0.40262,0.27704 -0.17348,0.0563 -0.33802,0.0649 -0.49429,0.0238 -0.15626,-0.041 -0.29664,-0.12776 -0.41854,-0.25712 -0.12368,-0.12586 -0.21887,-0.28973 -0.28502,-0.49429 -0.0662,-0.20455 -0.0866,-0.39639 -0.0618,-0.57601 0.0231,-0.17621 0.087,-0.33025 0.19135,-0.45839 0.10254,-0.12478 0.2397,-0.21383 0.41057,-0.2691 0.1735,-0.056 0.33641,-0.0614 0.48832,-0.0159 0.11878,0.0372 0.21506,0.1121 0.29896,0.20728 l -0.12164,-0.3767 z m -0.58399,0.52816 c -0.0818,-0.009 -0.16986,0.004 -0.26306,0.0339 -0.18384,0.0594 -0.30681,0.16934 -0.36673,0.32886 -0.0591,0.16212 -0.0495,0.35892 0.0259,0.59196 0.0736,0.22785 0.1797,0.3887 0.32088,0.48034 0.14201,0.0941 0.30446,0.11128 0.48832,0.0519 0.1864,-0.0602 0.31075,-0.16934 0.37071,-0.32885 0.0599,-0.15953 0.0525,-0.35554 -0.0218,-0.58598 -0.0753,-0.23303 -0.18486,-0.39609 -0.32686,-0.4903 -0.0707,-0.0458 -0.14531,-0.0739 -0.22723,-0.0818 z m -1.76587,0.21726 0.863,2.87804 -0.35675,0.10564 -0.86301,-2.87605 z m -1.54467,0.45442 c 0.0949,-0.004 0.18505,8e-4 0.27108,0.0219 0.17204,0.0397 0.31891,0.12369 0.44246,0.25311 0.12422,0.13211 0.21599,0.30586 0.27505,0.51821 0.0569,0.20449 0.0675,0.39348 0.0318,0.57004 -0.0382,0.17728 -0.11566,0.33055 -0.23318,0.45642 -0.11675,0.12845 -0.26692,0.21804 -0.45045,0.26907 -0.17829,0.0497 -0.3406,0.0518 -0.48831,0.009 -0.15033,-0.043 -0.28029,-0.12858 -0.38667,-0.2571 -0.10831,-0.12533 -0.18902,-0.28843 -0.24514,-0.49032 l -0.018,-0.0638 1.42906,-0.39663 c -0.0701,-0.23566 -0.17294,-0.40434 -0.31292,-0.49829 -0.14511,-0.0953 -0.32513,-0.11156 -0.54012,-0.0519 -0.11538,0.032 -0.22026,0.0796 -0.31492,0.14548 -0.094,0.0685 -0.17789,0.15484 -0.25113,0.2571 l -0.18537,-0.22321 c 0.0639,-0.10532 0.15782,-0.20191 0.28103,-0.28701 0.12396,-0.0824 0.25508,-0.14201 0.39663,-0.18136 0.10361,-0.0288 0.20418,-0.0455 0.29896,-0.0499 z m 0.6677,1.11416 -1.08025,0.30094 c 0.0555,0.14668 0.12448,0.26649 0.21924,0.33684 0.12463,0.0925 0.27477,0.11456 0.45045,0.0656 0.18351,-0.051 0.31025,-0.15666 0.37866,-0.3169 0.046,-0.10844 0.0486,-0.24169 0.0318,-0.38667 z" />
  </g>
</svg>
