<?xml version="1.0" encoding="UTF-8" standalone="no"?>
<!-- Created with Inkscape (http://www.inkscape.org/) -->

<svg
   version="1.1"
   id="svg5208"
   width="205.1282"
   height="205.1282"
   viewBox="0 0 205.1282 205.1282"
   sodipodi:docname="ecobrickable-icon-from-ecobricks-org-white.svg"
   inkscape:version="1.1.2 (0a00cf5339, 2022-02-04)"
   xmlns:inkscape="http://www.inkscape.org/namespaces/inkscape"
   xmlns:sodipodi="http://sodipodi.sourceforge.net/DTD/sodipodi-0.dtd"
   xmlns="http://www.w3.org/2000/svg"
   xmlns:svg="http://www.w3.org/2000/svg">
  <defs
     id="defs5212" />
  <sodipodi:namedview
     id="namedview5210"
     pagecolor="#ffffff"
     bordercolor="#666666"
     borderopacity="1.0"
     inkscape:pageshadow="2"
     inkscape:pageopacity="0.0"
     inkscape:pagecheckerboard="0"
     showgrid="false"
     inkscape:zoom="3.8723448"
     inkscape:cx="109.75262"
     inkscape:cy="102.65098"
     inkscape:window-width="1920"
     inkscape:window-height="1016"
     inkscape:window-x="0"
     inkscape:window-y="0"
     inkscape:window-maximized="1"
     inkscape:current-layer="g5214" />
  <g
     inkscape:groupmode="layer"
     inkscape:label="Image"
     id="g5214">
    <path
       id="path5293"
       style="fill:#ffffff;stroke-width:0.205128"
       d="M 103.125 12.244141 C 91.357458 12.167668 79.688626 14.389644 68.558594 18.880859 C 44.385827 28.635108 25.420149 48.722773 17 73.490234 C 7.690229 100.87448 11.976208 130.86566 28.587891 154.57812 C 44.28398 176.98364 69.614049 191.17863 96.933594 192.87891 C 114.26408 193.95751 131.68598 189.96462 146.98438 181.4082 C 150.23841 179.58821 155.79569 175.83245 158.88281 173.36523 C 172.76076 162.27406 182.98676 147.54059 188.5 130.69141 C 195.96366 107.8815 194.01711 82.978071 183.09766 61.570312 C 173.37149 42.502008 157.52939 27.786122 137.54883 19.257812 C 134.56451 17.984017 127.52491 15.649501 124.31836 14.871094 C 117.28079 13.162688 110.18553 12.290024 103.125 12.244141 z M 116.71875 25.560547 C 117.43778 25.538823 118.17832 25.542585 118.9707 25.570312 C 121.18768 25.64789 122.35518 25.790306 123.49219 26.121094 C 131.78454 28.533568 136.08681 36.608689 136.06641 49.720703 C 136.04924 60.766494 132.72876 72.70689 124.75977 90.376953 L 124.14062 91.75 L 127.15234 93.316406 C 130.61659 95.116896 131.08789 95.483263 131.08789 96.376953 C 131.08789 97.309713 130.57984 97.903091 129.65625 98.050781 C 128.86712 98.176971 128.85318 98.196738 126.76367 102 C 125.60861 104.10239 124.59758 105.95054 124.51758 106.10742 C 124.25587 106.62042 124.94076 108.63747 126.48047 111.89453 C 128.28098 115.70331 128.81597 117.46785 128.96875 120.08008 C 129.07845 121.95584 129.05263 122.12369 128.24219 124.5918 C 126.78512 129.02916 124.88736 132.77071 122.3418 136.22461 C 121.74251 137.03774 119.98762 139.20677 118.44336 141.04492 C 113.97531 146.36329 112.69469 148.57888 110.16602 155.36133 C 107.50572 162.49687 104.86537 167.88521 100.80273 174.46484 C 99.021751 177.34922 96.715744 179.18143 93.767578 180.05664 C 93.110154 180.25181 91.933606 180.38486 90.896484 180.38086 C 89.201684 180.37501 89.06645 180.33875 87.125 179.35742 C 86.017607 178.79767 83.803425 177.49216 82.203125 176.45703 C 75.284514 171.98187 73.407754 170.95737 70.259766 169.9375 C 67.856416 169.15888 63.783932 166.80483 62.640625 165.5332 C 60.29692 162.92644 59.369371 159.01802 60.226562 155.36133 C 60.714244 153.28093 65.393288 144.76956 68.683594 139.97656 C 69.419362 138.90477 71.162996 136.57295 72.558594 134.79492 C 77.35836 128.67991 78.44479 126.685 80.826172 119.62305 C 82.6068 114.34262 83.585511 112.00618 85.199219 109.17969 C 86.490776 106.91748 88.997427 103.55539 90.714844 101.7832 C 92.976596 99.449321 95.807278 98.407298 101.44727 97.830078 C 103.13958 97.656878 105.12409 97.352867 105.85742 97.154297 L 107.18945 96.792969 L 109.48633 92.796875 C 111.64191 89.045662 111.77617 88.746953 111.66602 87.943359 C 111.56553 87.210161 111.62503 87.009737 112.07812 86.556641 C 113.02135 85.613425 113.79566 85.849238 117.90039 88.322266 L 118.55859 88.71875 L 118.88672 87.9375 C 119.70636 85.978877 122.1261 79.034095 123.08984 75.875 C 125.9507 66.497115 127.55165 58.490461 127.74609 52.587891 C 127.91198 47.551963 127.40931 45.056898 125.94531 43.654297 C 125.45832 43.187735 125.11303 43.062264 124.11719 42.990234 C 123.03928 42.912267 122.70734 42.988606 121.39844 43.611328 C 118.58765 44.948577 114.97212 48.357662 110.35156 54.027344 C 109.20225 55.4376 108.20181 56.616984 108.12891 56.646484 C 107.99678 56.699965 100.29545 30.548456 100.31055 30.097656 C 100.32612 29.633422 106.27932 27.454338 109.96875 26.5625 C 112.59412 25.927877 114.56166 25.625717 116.71875 25.560547 z M 93.363281 30.689453 C 93.442532 30.833361 95.35611 36.720202 97.615234 43.771484 C 103.55457 62.309621 103.80664 63.105972 103.80664 63.386719 C 103.80664 63.526947 102.87786 64.54501 101.74414 65.648438 C 99.835806 67.505785 99.367755 68.142612 95.423828 74.226562 C 93.080791 77.840958 90.661819 81.556147 90.048828 82.484375 C 89.435839 83.412603 88.888441 84.168963 88.832031 84.164062 C 88.77562 84.159185 88.035607 83.551893 87.189453 82.814453 C 86.343299 82.077013 82.236859 78.676174 78.0625 75.257812 C 71.034254 69.50242 65.890427 65.209135 63.523438 63.121094 L 62.552734 62.263672 L 70.513672 52.042969 C 74.892585 46.421515 78.570745 41.822266 78.685547 41.822266 C 78.800351 41.822266 81.198138 44.219966 84.015625 47.150391 C 86.833113 50.080813 90.709005 54.112232 92.626953 56.107422 C 94.544902 58.102612 96.136353 59.712367 96.164062 59.685547 C 96.201692 59.649116 89.904742 45.439587 85.886719 36.494141 L 85.611328 35.882812 L 87.683594 34.357422 C 91.788689 31.331915 93.210975 30.412891 93.363281 30.689453 z M 118.80273 89.082031 L 118.50586 89.658203 C 118.34289 89.974683 117.26641 92.264044 116.11328 94.746094 C 111.59691 104.46734 106.22963 114.71061 101.87305 121.92578 C 98.838564 126.95135 95.50665 132.18103 95.337891 132.18164 C 95.249704 132.18197 93.646638 131.07031 91.775391 129.71094 C 89.904143 128.35157 88.341474 127.26989 88.302734 127.30859 C 88.2449 127.36642 86.955231 145.2304 86.740234 148.95117 C 86.706054 149.54355 86.688955 150.02741 86.703125 150.02734 C 86.717292 150.02727 87.253156 149.79537 87.894531 149.51172 C 88.535907 149.22808 91.80276 147.88227 95.152344 146.52148 C 104.59157 142.68674 109.13867 140.7596 109.13867 140.59375 C 109.13867 140.51025 107.61756 139.5453 105.75781 138.44922 L 102.37695 136.45703 L 102.70898 135.8125 C 102.89203 135.45853 103.77923 133.82701 104.67969 132.1875 C 106.83032 128.27176 110.58908 120.74894 112.8418 115.85156 C 116.2552 108.43086 123.72826 91.729626 123.66406 91.666016 C 123.62871 91.630972 122.5207 91.034658 121.20117 90.341797 L 118.80273 89.082031 z M 171.70898 140.45898 C 171.88303 140.4644 172.06208 140.51853 172.24609 140.62109 C 172.42778 140.72236 172.56911 140.84832 172.66992 140.99609 C 172.76943 141.1462 172.82201 141.30719 172.82617 141.48047 C 172.83034 141.65375 172.78226 141.82883 172.68359 142.00586 C 172.61608 142.12698 172.53003 142.23187 172.42578 142.32031 C 172.32387 142.41005 172.21597 142.46999 172.10352 142.50195 L 171.92969 142.27344 C 172.04165 142.22593 172.13745 142.16919 172.2168 142.10352 C 172.29718 142.04146 172.36278 141.96547 172.41211 141.87695 C 172.50688 141.70691 172.52576 141.53915 172.46875 141.37305 C 172.41044 141.20927 172.27447 141.06736 172.0625 140.94922 C 171.85519 140.83367 171.66763 140.79614 171.5 140.83398 C 171.33237 140.87183 171.20089 140.97765 171.10352 141.15234 C 171.05678 141.2362 171.02585 141.32961 171.01172 141.43164 C 170.99759 141.53367 171.00067 141.64412 171.02148 141.76562 L 170.73438 141.74023 C 170.70604 141.62675 170.70292 141.50079 170.72461 141.36328 C 170.74863 141.22708 170.79447 141.09611 170.86328 140.97266 C 170.96195 140.79563 171.08453 140.66469 171.23047 140.57812 C 171.37511 140.49389 171.53494 140.45356 171.70898 140.45898 z M 170.72852 142.20312 C 170.90237 142.2129 171.08033 142.27177 171.26172 142.37891 C 171.44081 142.48469 171.5787 142.61147 171.67578 142.76172 C 171.7715 142.91427 171.81853 143.07667 171.81836 143.25 C 171.81818 143.42333 171.76713 143.59894 171.66406 143.77344 C 171.59354 143.89283 171.50486 143.99428 171.39844 144.08008 C 171.29431 144.16723 171.18548 144.22477 171.07227 144.25391 L 170.9043 144.02148 C 171.01741 143.9768 171.11435 143.92109 171.19531 143.85742 C 171.27722 143.7974 171.34495 143.72397 171.39648 143.63672 C 171.49548 143.46911 171.51768 143.30224 171.46484 143.13477 C 171.41065 142.96958 171.27925 142.82458 171.07031 142.70117 C 170.86596 142.58047 170.68025 142.53668 170.51172 142.57031 C 170.34319 142.60395 170.20718 142.7067 170.10547 142.87891 C 170.05665 142.96156 170.02449 143.05461 170.00781 143.15625 C 169.99114 143.25789 169.992 143.3702 170.00977 143.49219 L 169.72266 143.45703 C 169.69717 143.34287 169.69753 143.217 169.72266 143.08008 C 169.75007 142.94452 169.79922 142.817 169.87109 142.69531 C 169.97416 142.52081 170.09998 142.39148 170.24805 142.30859 C 170.39475 142.228 170.55466 142.19335 170.72852 142.20312 z M 168.73828 144.60938 L 171.12695 146.16211 L 170.49023 147.14062 C 170.33326 147.38209 170.15524 147.53445 169.95703 147.59961 C 169.7596 147.66846 169.56031 147.63912 169.36133 147.50977 C 169.22271 147.41965 169.1307 147.30453 169.08398 147.16602 C 169.04235 147.04383 169.04465 146.9108 169.07812 146.76953 C 168.9594 146.8818 168.82912 146.95209 168.68359 146.96875 C 168.52552 146.98685 168.36744 146.94549 168.21094 146.84375 C 168.00301 146.70858 167.88769 146.53334 167.86523 146.31836 C 167.84356 146.10707 167.91634 145.87402 168.08203 145.61914 L 168.73828 144.60938 z M 168.79102 145.07812 L 168.35156 145.75586 C 168.23383 145.93695 168.17957 146.09019 168.19141 146.21875 C 168.20325 146.34731 168.28102 146.45726 168.42188 146.54883 C 168.56273 146.6404 168.69627 146.66518 168.82227 146.62305 C 168.94681 146.58315 169.06732 146.47378 169.18359 146.29492 L 169.62305 145.61914 L 168.79102 145.07812 z M 169.88086 145.78711 L 169.47656 146.41016 C 169.36319 146.58454 169.31188 146.73639 169.32227 146.86719 C 169.33265 146.99799 169.40492 147.1081 169.53906 147.19531 C 169.66874 147.27961 169.79254 147.29895 169.91406 147.25391 C 170.03637 147.21255 170.15666 147.10241 170.27148 146.92578 L 170.67578 146.30273 L 169.88086 145.78711 z M 166.87305 147.41211 L 167.81445 148.07031 L 169.85352 148.11719 L 169.60742 148.4707 L 167.97461 148.41016 L 168.59375 149.92383 L 168.35156 150.27148 L 167.59766 148.37305 L 166.66016 147.71875 L 166.87305 147.41211 z M 164.63477 149.27148 L 167.49219 151.42188 L 167.28516 151.69727 L 164.42773 149.54688 L 164.63477 149.27148 z M 163.9375 151.38477 L 166.14258 153.18555 L 165.96484 153.40234 L 163.18359 153.29492 L 164.9043 154.70117 L 164.68359 154.97461 L 162.47656 153.17188 L 162.65625 152.95312 L 165.44922 153.0625 L 163.71875 151.65039 L 163.9375 151.38477 z M 162.0332 153.69336 L 164.16797 155.57812 L 163.52344 156.31055 C 163.32222 156.53843 163.10797 156.69547 162.88281 156.78125 C 162.65789 156.8708 162.42936 156.88733 162.19531 156.83008 C 161.9615 156.77659 161.73174 156.64867 161.50586 156.44922 C 161.27798 156.248 161.12113 156.0338 161.03711 155.80664 C 160.95509 155.58125 160.94294 155.35128 161.00195 155.11523 C 161.0592 154.88119 161.18922 154.65166 161.38867 154.42578 L 162.0332 153.69336 z M 162.02344 154.17578 L 161.63672 154.61328 C 161.39844 154.88314 161.29083 155.14682 161.3125 155.4043 C 161.3324 155.66378 161.48191 155.91677 161.75977 156.16211 C 162.31347 156.65102 162.82813 156.62565 163.30469 156.08594 L 163.69141 155.64844 L 162.02344 154.17578 z M 158.67578 157.71289 C 158.75922 157.71324 158.84183 157.72662 158.92578 157.75195 C 159.09556 157.8045 159.2572 157.90608 159.41016 158.05859 C 159.55745 158.20546 159.65992 158.36351 159.71484 158.53125 C 159.76789 158.70088 159.77373 158.86714 159.73438 159.03125 C 159.6969 159.19724 159.61227 159.34633 159.48047 159.47852 C 159.35243 159.60692 159.21539 159.6885 159.06836 159.72266 C 158.91945 159.7587 158.76805 159.74768 158.61523 159.68945 C 158.46242 159.63499 158.31337 159.53561 158.16797 159.39062 L 158.12305 159.3457 L 159.14844 158.31641 C 158.97494 158.14962 158.80522 158.05539 158.64062 158.04297 C 158.4709 158.0319 158.30869 158.10297 158.1543 158.25781 C 158.07145 158.3409 158.00591 158.43326 157.95703 158.53516 C 157.91004 158.63893 157.88021 158.75242 157.86719 158.875 L 157.60156 158.77344 C 157.60516 158.65275 157.63921 158.52662 157.70312 158.39453 C 157.76893 158.26433 157.85145 158.14885 157.95312 158.04688 C 158.10187 157.89769 158.25992 157.79927 158.42578 157.75 C 158.50871 157.72537 158.59234 157.71254 158.67578 157.71289 z M 159.29297 158.48828 L 158.51758 159.26562 C 158.6357 159.36374 158.75246 159.43505 158.86719 159.44922 C 159.01806 159.46786 159.15705 159.41363 159.2832 159.28711 C 159.415 159.15492 159.47028 159.00366 159.45117 158.83398 C 159.43799 158.71948 159.3771 158.60358 159.29297 158.48828 z M 157.13477 159.25 C 157.21669 159.25491 157.29859 159.27033 157.38086 159.29883 C 157.5454 159.35583 157.69862 159.46058 157.84375 159.61328 C 157.98704 159.76405 158.08644 159.92657 158.13867 160.09766 C 158.18897 160.27058 158.1902 160.43881 158.14258 160.60547 C 158.09496 160.77213 157.99651 160.92679 157.84961 161.06641 C 157.7491 161.16193 157.63561 161.23568 157.50977 161.28906 C 157.38575 161.34438 157.26531 161.37016 157.14844 161.36719 L 157.05078 161.0957 C 157.17181 161.08369 157.28165 161.0586 157.37695 161.01953 C 157.47216 160.98423 157.55545 160.93114 157.62891 160.86133 C 157.77001 160.72722 157.83895 160.57398 157.83398 160.39844 C 157.82709 160.22473 157.73944 160.04895 157.57227 159.87305 C 157.40877 159.70101 157.24161 159.60754 157.07031 159.59375 C 156.89902 159.57996 156.74067 159.64347 156.5957 159.78125 C 156.52612 159.84738 156.46965 159.92634 156.42578 160.01953 C 156.38191 160.11273 156.35225 160.21961 156.33594 160.3418 L 156.06836 160.23047 C 156.0751 160.11369 156.11023 159.99395 156.17188 159.86914 C 156.23536 159.74626 156.31748 159.63643 156.41992 159.53906 C 156.56683 159.39945 156.72357 159.30872 156.88867 159.26953 C 156.97025 159.25086 157.05284 159.24509 157.13477 159.25 z M 155.67969 160.61719 C 155.76145 160.62437 155.84433 160.64306 155.92578 160.67383 C 156.09046 160.73735 156.24409 160.84721 156.38672 161.00586 C 156.52756 161.16253 156.62032 161.32756 156.66602 161.49805 C 156.71349 161.67052 156.71215 161.83636 156.66211 161.99609 C 156.61009 162.15761 156.51195 162.30345 156.36719 162.43359 C 156.22044 162.56552 156.06453 162.64688 155.90039 162.67969 C 155.73625 162.7125 155.57076 162.69636 155.4043 162.63086 C 155.23962 162.56734 155.08811 162.45745 154.94727 162.30078 C 154.80464 162.14213 154.70975 161.97713 154.66406 161.80664 C 154.62015 161.63814 154.62379 161.47418 154.67383 161.31445 C 154.72387 161.15472 154.822 161.00888 154.96875 160.87695 C 155.11352 160.74681 155.26943 160.66545 155.43555 160.63086 C 155.51762 160.61445 155.59793 160.61001 155.67969 160.61719 z M 155.62305 160.94141 C 155.46191 160.91773 155.3088 160.96929 155.16602 161.09766 C 155.02323 161.22602 154.95449 161.37242 154.96094 161.53516 C 154.96917 161.69987 155.05669 161.87224 155.2207 162.05469 C 155.38294 162.23515 155.54604 162.33745 155.71094 162.36133 C 155.87385 162.38699 156.02521 162.33752 156.16602 162.21094 C 156.30483 162.08614 156.37148 161.93994 156.36523 161.77344 C 156.35898 161.60694 156.27552 161.43242 156.11328 161.25195 C 155.94926 161.06951 155.78596 160.96707 155.62305 160.94141 z M 153.89648 161.86719 L 155.79688 164.11719 L 155.51758 164.35156 L 154.6875 163.36914 C 154.71927 163.48342 154.73074 163.59837 154.70117 163.71289 C 154.66195 163.86477 154.57394 163.99794 154.4375 164.11328 C 154.30106 164.22863 154.15496 164.29745 153.99805 164.31836 C 153.84113 164.33927 153.68203 164.31218 153.52344 164.24023 C 153.36453 164.17204 153.21804 164.05737 153.08203 163.89648 C 152.94603 163.7356 152.85478 163.57055 152.81055 163.39844 C 152.76599 163.23008 152.7674 163.06711 152.81445 162.91211 C 152.86119 162.76086 152.95153 162.62925 153.08594 162.51562 C 153.22238 162.40028 153.36887 162.33574 153.52344 162.32031 C 153.64554 162.30985 153.76111 162.34081 153.87305 162.39648 L 153.62109 162.09961 L 153.89648 161.86719 z M 153.79883 162.55273 C 153.63677 162.52212 153.48256 162.56941 153.33594 162.69336 C 153.19135 162.81559 153.12202 162.96002 153.12695 163.12695 C 153.13361 163.29592 153.2142 163.47101 153.36914 163.6543 C 153.52064 163.83351 153.67778 163.93814 153.83984 163.96875 C 154.00362 164.0014 154.15619 163.95817 154.30078 163.83594 C 154.44741 163.71198 154.51861 163.56537 154.51367 163.39844 C 154.50874 163.23151 154.43056 163.0582 154.27734 162.87695 C 154.1224 162.69367 153.96261 162.58538 153.79883 162.55273 z M 152.04297 163.41797 L 152.94922 164.54688 C 153.00767 164.61964 153.06825 164.69034 153.13086 164.75977 C 153.19306 164.83294 153.25733 164.90238 153.32617 164.9668 L 153.05859 165.18164 L 152.78711 164.89844 C 152.83363 165.02317 152.85267 165.14364 152.82031 165.25977 C 152.77938 165.40894 152.69871 165.53205 152.57812 165.62891 C 152.54902 165.65229 152.52035 165.67134 152.49414 165.68555 C 152.46752 165.70351 152.44182 165.71805 152.41602 165.72852 L 152.21094 165.4668 C 152.27794 165.44376 152.34375 165.40724 152.4082 165.35547 C 152.51423 165.2703 152.58167 165.17954 152.60938 165.08203 C 152.63708 164.98452 152.63705 164.88703 152.60938 164.79297 C 152.5817 164.6989 152.53583 164.61233 152.4707 164.53125 L 151.75781 163.64453 L 152.04297 163.41797 z M 150.88672 164.33594 L 152.12305 165.92383 L 151.83398 166.14844 L 150.59961 164.56055 L 150.88672 164.33594 z M 149.91016 165.21289 C 150.07658 165.19502 150.23785 165.2248 150.39453 165.30078 C 150.55121 165.37676 150.69223 165.49924 150.81836 165.66797 C 150.9429 165.83457 151.02101 166.00559 151.05273 166.18164 C 151.08232 166.35929 151.06497 166.52761 150.99805 166.6875 C 150.93113 166.84739 150.81662 166.98803 150.6543 167.10938 C 150.54323 167.1924 150.42032 167.25282 150.28906 167.29102 C 150.1594 167.33134 150.03758 167.34484 149.92188 167.32812 L 149.85742 167.04688 C 149.97902 167.0492 150.08826 167.03539 150.1875 167.00781 C 150.2862 166.98397 150.37587 166.94348 150.45703 166.88281 C 150.61295 166.76626 150.6991 166.62022 150.71484 166.44531 C 150.72845 166.272 150.66287 166.08694 150.51758 165.89258 C 150.37548 165.70249 150.22121 165.59051 150.05273 165.55664 C 149.88425 165.52277 149.71878 165.5658 149.55859 165.68555 C 149.4817 165.74303 149.41587 165.81496 149.36133 165.90234 C 149.30679 165.98972 149.26496 166.09347 149.23438 166.21289 L 148.98242 166.07227 C 149.00287 165.9571 149.05103 165.84129 149.12695 165.72461 C 149.20447 165.61007 149.30086 165.5104 149.41406 165.42578 C 149.57639 165.30444 149.74159 165.23236 149.91016 165.21289 z M 148.52344 166.11719 L 150.22266 168.51953 L 149.92578 168.73047 L 148.86133 167.22656 L 148.63477 168.49805 L 148.26172 168.76172 L 148.51172 167.40625 L 147.03125 167.17383 L 147.41211 166.90234 L 148.7793 167.10938 L 148.22461 166.32617 L 148.52344 166.11719 z M 152.4375 166.27734 L 152.67969 166.58984 L 152.3418 166.85352 L 152.09961 166.54102 L 152.4375 166.27734 z M 147.07422 167.41992 L 147.125 167.70312 C 146.99037 167.69379 146.86558 167.70381 146.74805 167.73438 C 146.62978 167.76864 146.5117 167.82519 146.39648 167.90234 C 146.27684 167.98247 146.19939 168.0631 146.16406 168.14453 C 146.128 168.22966 146.13557 168.31112 146.1875 168.38867 C 146.22905 168.45071 146.28546 168.48446 146.35352 168.49023 C 146.42084 168.49971 146.51092 168.4838 146.62695 168.44141 L 146.95117 168.32031 C 147.11597 168.25489 147.26356 168.23584 147.39453 168.26367 C 147.52328 168.29299 147.6255 168.36356 147.70117 168.47656 C 147.76646 168.57405 147.79765 168.68007 147.79492 168.79102 C 147.78998 168.90345 147.75289 169.01175 147.68359 169.11914 C 147.61578 169.22874 147.51576 169.32894 147.38281 169.41797 C 147.26538 169.49661 147.14304 169.55191 147.01367 169.58398 C 146.88209 169.61754 146.75537 169.6235 146.63477 169.60156 L 146.58594 169.32031 C 146.71022 169.33337 146.82472 169.3281 146.92969 169.30273 C 147.03614 169.27959 147.13572 169.23662 147.22656 169.17578 C 147.33956 169.10011 147.41269 169.01899 147.44727 168.93164 C 147.47963 168.84578 147.47037 168.76479 147.41992 168.68945 C 147.37689 168.6252 147.32292 168.58713 147.25781 168.57617 C 147.1927 168.56521 147.10906 168.57757 147.00781 168.61328 L 146.67969 168.73438 C 146.4979 168.80797 146.34211 168.82984 146.21484 168.80273 C 146.08906 168.77785 145.98638 168.70559 145.90625 168.58594 C 145.80832 168.4397 145.78931 168.28204 145.84961 168.11328 C 145.91139 167.94674 146.0442 167.79667 146.24805 167.66016 C 146.53388 167.46875 146.80938 167.38867 147.07422 167.41992 z M 145.24609 168.35352 L 145.48633 168.72656 L 145.11328 168.9668 L 144.87109 168.59375 L 145.24609 168.35352 z M 144.22852 169.12109 C 144.39588 169.11834 144.55395 169.16017 144.70312 169.25 C 144.85369 169.3421 144.98589 169.4804 145.09766 169.66211 C 145.20802 169.84155 145.26892 170.01939 145.2832 170.19531 C 145.29888 170.37351 145.2674 170.53547 145.18945 170.68359 C 145.10923 170.83312 144.98808 170.95856 144.82227 171.06055 C 144.65418 171.16393 144.48572 171.21795 144.31836 171.2207 C 144.151 171.22346 143.99181 171.17836 143.83984 171.08398 C 143.68927 170.99188 143.55763 170.85522 143.44727 170.67578 C 143.3355 170.49407 143.2721 170.3146 143.25781 170.13867 C 143.24493 169.96502 143.27752 169.80438 143.35547 169.65625 C 143.43342 169.50812 143.55652 169.38268 143.72461 169.2793 C 143.89042 169.17731 144.05888 169.12525 144.22852 169.12109 z M 144.12305 169.4375 C 144.0436 169.44958 143.96263 169.48096 143.88086 169.53125 C 143.71732 169.63184 143.62449 169.76259 143.60156 169.92383 C 143.58004 170.08734 143.63319 170.27345 143.76172 170.48242 C 143.88885 170.68912 144.03154 170.8199 144.18945 170.87305 C 144.3451 170.92759 144.50279 170.90583 144.66406 170.80664 C 144.82306 170.70885 144.9137 170.57702 144.9375 170.41211 C 144.9613 170.2472 144.91034 170.06021 144.7832 169.85352 C 144.65467 169.64455 144.51307 169.51353 144.35742 169.45898 C 144.2803 169.43285 144.20249 169.42542 144.12305 169.4375 z M 142.49023 170.05664 L 143.21875 171.30859 C 143.26573 171.38924 143.3156 171.46891 143.36719 171.54688 C 143.41781 171.62849 143.4708 171.70536 143.5293 171.7793 L 143.23242 171.95312 L 143.00586 171.63281 C 143.03334 171.76311 143.03366 171.88605 142.98438 171.99609 C 142.92171 172.13752 142.8231 172.24637 142.68945 172.32422 C 142.65719 172.34301 142.62764 172.35703 142.59961 172.36719 C 142.57062 172.38099 142.54269 172.39193 142.51562 172.39844 L 142.35156 172.10938 C 142.42125 172.09656 142.49302 172.06895 142.56445 172.02734 C 142.68197 171.95889 142.76083 171.87941 142.80273 171.78711 C 142.84464 171.69481 142.85908 171.59909 142.8457 171.50195 C 142.83233 171.40482 142.80039 171.31252 142.74805 171.22266 L 142.17578 170.24023 L 142.49023 170.05664 z M 140.83594 170.2207 L 140.91992 170.50781 C 140.77541 170.50511 140.64676 170.51705 140.5332 170.54297 C 140.41731 170.57017 140.29925 170.61678 140.17773 170.68359 C 140.01182 170.77481 139.9103 170.88839 139.875 171.02344 C 139.83608 171.15743 139.86391 171.3095 139.95898 171.48242 L 140.19922 171.91797 C 140.1929 171.84335 140.18447 171.76917 140.20117 171.69727 C 140.22362 171.59972 140.26808 171.50875 140.33398 171.42383 C 140.39755 171.34019 140.48392 171.26742 140.59375 171.20703 C 140.74798 171.12224 140.90545 171.08293 141.06445 171.08984 C 141.22474 171.0991 141.37396 171.15054 141.51367 171.24414 C 141.65105 171.33902 141.76692 171.47513 141.86328 171.65039 C 141.95964 171.82565 142.01106 171.99723 142.01758 172.16406 C 142.02305 172.33452 141.98755 172.48704 141.9082 172.625 C 141.83014 172.7653 141.71282 172.87809 141.55859 172.96289 C 141.39736 173.05154 141.23983 173.08809 141.08398 173.07031 C 140.96325 173.05772 140.85835 173.00553 140.76172 172.93359 L 140.93555 173.24805 L 140.61523 173.42383 L 139.66016 171.68359 C 139.51241 171.41487 139.47209 171.17513 139.53906 170.96484 C 139.60241 170.75351 139.76838 170.57549 140.03711 170.42773 C 140.30584 170.27998 140.57179 170.21074 140.83594 170.2207 z M 140.91211 171.42773 C 140.83191 171.43684 140.75092 171.46416 140.66797 171.50977 C 140.50206 171.60099 140.40156 171.72588 140.36719 171.88477 C 140.3341 172.04598 140.37121 172.22245 140.47656 172.41406 C 140.58192 172.60568 140.71138 172.73063 140.86523 172.78906 C 141.01909 172.8475 141.17784 172.8295 141.34375 172.73828 C 141.50966 172.64706 141.61106 172.52188 141.64648 172.35938 C 141.68191 172.19687 141.64637 172.01974 141.54102 171.82812 C 141.43438 171.63417 141.30334 171.50989 141.14844 171.45508 C 141.07098 171.42767 140.99231 171.41863 140.91211 171.42773 z M 139.35742 171.55664 L 139.93359 174.89062 L 139.64258 175.04297 L 139.07031 171.70703 L 139.35742 171.55664 z M 138.08789 172.4707 L 139.38672 175.11133 L 139.06055 175.27344 L 138.49219 174.11719 C 138.4955 174.23615 138.47848 174.35083 138.42188 174.45508 C 138.34702 174.59292 138.23064 174.70046 138.07031 174.7793 C 137.90998 174.85814 137.75106 174.88883 137.59375 174.87109 C 137.43644 174.85336 137.28878 174.78988 137.15234 174.68164 C 137.0147 174.57697 136.8996 174.43123 136.80664 174.24219 C 136.71368 174.05314 136.66722 173.86911 136.66602 173.69141 C 136.66359 173.51727 136.7039 173.36164 136.78711 173.22266 C 136.8691 173.08724 136.98855 172.98001 137.14648 172.90234 C 137.30681 172.8235 137.46349 172.79587 137.61719 172.81836 C 137.73781 172.83774 137.84065 172.89782 137.93555 172.97852 L 137.76562 172.62891 L 138.08789 172.4707 z M 137.5957 173.06445 C 137.51518 173.06839 137.43185 173.0924 137.3457 173.13477 C 137.1758 173.21831 137.07278 173.34076 137.03711 173.50391 C 137.00262 173.66945 137.03862 173.8608 137.14453 174.07617 C 137.24808 174.28675 137.37363 174.42712 137.52344 174.49609 C 137.67442 174.56746 137.83596 174.56011 138.00586 174.47656 C 138.17815 174.39184 138.28074 174.26862 138.31641 174.10547 C 138.35207 173.94232 138.31762 173.75399 138.21289 173.54102 C 138.10698 173.32565 137.97911 173.18269 137.82812 173.11133 C 137.75322 173.07684 137.67623 173.06051 137.5957 173.06445 z M 135.91406 173.52344 L 136.52148 174.83984 C 136.56058 174.92459 136.60255 175.00733 136.64648 175.08984 C 136.68912 175.1759 136.73591 175.25872 136.78711 175.33789 L 136.47461 175.48242 L 136.2793 175.14258 C 136.29396 175.27437 136.28198 175.39549 136.22266 175.5 C 136.14682 175.63483 136.03888 175.736 135.89844 175.80078 C 135.86454 175.81642 135.83356 175.82849 135.80469 175.83594 C 135.77451 175.84692 135.74436 175.85352 135.7168 175.85742 L 135.58203 175.55469 C 135.65262 175.54856 135.72572 175.52681 135.80078 175.49219 C 135.92428 175.43522 136.01201 175.36329 136.0625 175.27539 C 136.11299 175.18749 136.13494 175.09406 136.13086 174.99609 C 136.12678 174.89813 136.10411 174.80342 136.06055 174.70898 L 135.58398 173.67773 L 135.91406 173.52344 z M 134.57227 174.13672 L 135.38477 175.97656 L 135.05273 176.12305 L 134.23828 174.2832 L 134.57227 174.13672 z M 133.41211 174.75195 C 133.57792 174.77485 133.72767 174.84152 133.86133 174.95312 C 133.99499 175.06473 134.102 175.21789 134.18359 175.41211 C 134.26416 175.60387 134.29889 175.7883 134.28711 175.9668 C 134.27287 176.14633 134.21297 176.30634 134.10938 176.44531 C 134.00578 176.58428 133.86068 176.69299 133.67383 176.77148 C 133.54599 176.82519 133.41394 176.85405 133.27734 176.85938 C 133.14178 176.86716 133.02034 176.84888 132.91211 176.80469 L 132.91602 176.51758 C 133.03344 176.54923 133.14313 176.56331 133.24609 176.56055 C 133.34763 176.56127 133.44564 176.5412 133.53906 176.50195 C 133.71853 176.42655 133.83697 176.30654 133.89453 176.14062 C 133.94964 175.97574 133.92993 175.78037 133.83594 175.55664 C 133.74401 175.33783 133.62014 175.19274 133.46484 175.11914 C 133.30955 175.04555 133.14142 175.04753 132.95703 175.125 C 132.86852 175.16218 132.78694 175.21551 132.71289 175.28711 C 132.63884 175.35871 132.57222 175.45011 132.51367 175.55859 L 132.30469 175.35938 C 132.35237 175.25257 132.42742 175.1515 132.5293 175.05664 C 132.63221 174.96424 132.74861 174.89068 132.87891 174.83594 C 133.06575 174.75744 133.24384 174.73009 133.41211 174.75195 z M 131.8457 175.29297 L 132.91602 178.03516 L 132.57812 178.16797 L 131.90625 176.44727 L 131.38086 177.62891 L 130.95508 177.79492 L 131.52344 176.54102 L 130.14258 175.95703 L 130.58008 175.78711 L 131.85742 176.31836 L 131.50781 175.42383 L 131.8457 175.29297 z M 129.4375 176.21289 C 129.5179 176.20608 129.59783 176.21055 129.67578 176.22656 C 129.83007 176.262 129.96745 176.34046 130.08984 176.46094 C 130.21314 176.58393 130.30991 176.745 130.38086 176.94336 C 130.45181 177.14172 130.47825 177.32671 130.46094 177.5 C 130.44111 177.67419 130.38497 177.82536 130.28906 177.95312 C 130.19155 178.0843 130.05969 178.17795 129.89648 178.23633 C 129.72575 178.2974 129.56512 178.30788 129.41406 178.26562 C 129.30058 178.23559 129.20695 178.16761 129.12305 178.08008 L 129.24219 178.41602 L 128.9043 178.53711 L 128.22656 176.64258 L 128.56445 176.52148 L 128.69336 176.88086 C 128.70264 176.75972 128.73219 176.64676 128.80078 176.54883 C 128.89166 176.42286 129.02262 176.32865 129.19336 176.26758 C 129.27622 176.23794 129.3571 176.2197 129.4375 176.21289 z M 135.60547 176.39453 L 135.76562 176.75781 L 135.375 176.92969 L 135.21484 176.56836 L 135.60547 176.39453 z M 129.4707 176.5332 C 129.39025 176.528 129.30593 176.54038 129.2168 176.57227 C 129.03601 176.63693 128.91949 176.74769 128.86719 176.90234 C 128.81327 177.0604 128.82737 177.25254 128.9082 177.47852 C 128.98904 177.70449 129.0992 177.85982 129.24023 177.94531 C 129.38217 178.03332 129.54243 178.04619 129.7207 177.98242 C 129.89897 177.91865 130.01674 177.806 130.07227 177.64453 C 130.12779 177.48306 130.11509 177.28987 130.03516 177.06641 C 129.95522 176.84294 129.84276 176.68811 129.69922 176.60352 C 129.62745 176.56122 129.55116 176.53841 129.4707 176.5332 z M 127.65039 176.83789 L 128.55664 179.64062 L 128.21094 179.75195 L 127.81445 178.52539 C 127.80076 178.64401 127.76653 178.75431 127.69531 178.84961 C 127.60142 178.97526 127.47078 179.06612 127.30078 179.12109 C 127.13078 179.17607 126.96953 179.1847 126.81641 179.14453 C 126.66328 179.10437 126.52571 179.0193 126.40625 178.89258 C 126.28508 178.76921 126.19178 178.60865 126.12695 178.4082 C 126.06213 178.20776 126.04206 178.01978 126.06641 177.84375 C 126.08904 177.67107 126.15158 177.52011 126.25391 177.39453 C 126.35451 177.27231 126.48879 177.18502 126.65625 177.13086 C 126.82625 177.07588 126.9859 177.07089 127.13477 177.11523 C 127.25114 177.15168 127.34551 177.22513 127.42773 177.31836 L 127.30859 176.94922 L 127.65039 176.83789 z M 127.07812 177.35547 C 126.99787 177.34779 126.91165 177.35913 126.82031 177.38867 C 126.64017 177.44693 126.51968 177.55461 126.46094 177.71094 C 126.40301 177.8698 126.41248 178.06266 126.48633 178.29102 C 126.55854 178.5143 126.66244 178.67193 126.80078 178.76172 C 126.93994 178.85404 127.09915 178.87076 127.2793 178.8125 C 127.46198 178.75342 127.58383 178.64656 127.64258 178.49023 C 127.70133 178.33391 127.69412 178.14183 127.62109 177.91602 C 127.54724 177.68766 127.43994 177.52787 127.30078 177.43555 C 127.23161 177.39065 127.15838 177.36315 127.07812 177.35547 z M 125.34766 177.56836 L 126.19336 180.38867 L 125.84375 180.49219 L 124.99805 177.67383 L 125.34766 177.56836 z M 123.83398 178.01367 C 123.92687 178.0093 124.01531 178.01569 124.09961 178.03516 C 124.2682 178.07408 124.41213 178.15633 124.5332 178.2832 C 124.65499 178.41264 124.74487 178.58291 124.80273 178.79102 C 124.85845 178.99141 124.86892 179.1766 124.83398 179.34961 C 124.79648 179.52334 124.72063 179.67352 124.60547 179.79688 C 124.49102 179.9228 124.34391 180.01054 124.16406 180.06055 C 123.98936 180.10912 123.8303 180.11115 123.68555 180.06836 C 123.53823 180.02629 123.41087 179.94242 123.30664 179.81641 C 123.20055 179.69367 123.12141 179.53377 123.06641 179.33594 L 123.04883 179.27344 L 124.44922 178.88477 C 124.38053 178.65383 124.27975 178.48853 124.14258 178.39648 C 124.00038 178.30316 123.82396 178.28713 123.61328 178.3457 C 123.50024 178.37713 123.39746 178.42374 123.30469 178.48828 C 123.21263 178.55539 123.13037 178.64001 123.05859 178.74023 L 122.87695 178.52148 C 122.93959 178.41827 123.0316 178.32363 123.15234 178.24023 C 123.2738 178.15941 123.40228 178.10107 123.54102 178.0625 C 123.6425 178.03428 123.7411 178.01805 123.83398 178.01367 z M 124.48828 179.10547 L 123.42969 179.40039 C 123.48407 179.54412 123.55166 179.66153 123.64453 179.73047 C 123.7666 179.82108 123.9138 179.84278 124.08594 179.79492 C 124.26578 179.74492 124.38998 179.64141 124.45703 179.48438 C 124.5021 179.37809 124.50475 179.24755 124.48828 179.10547 z " />
    <path
       id="path40278"
       style="fill:none;stroke-width:1.42548;stroke-opacity:0.741304"
       transform="rotate(28.418932)"
       d="M 217.40098,41.504555 A 78.123711,78.123711 0 0 1 139.27727,119.62827 78.123711,78.123711 0 0 1 61.153557,41.504555 78.123711,78.123711 0 0 1 139.27727,-36.619156 78.123711,78.123711 0 0 1 217.40098,41.504555 Z" />
  </g>
</svg>
