<?xml version="1.0" encoding="UTF-8"?>
<svg width="138.92mm" height="138.92mm" version="1.1" viewBox="0 0 138.92 138.92" xmlns="http://www.w3.org/2000/svg" xmlns:cc="http://creativecommons.org/ns#" xmlns:dc="http://purl.org/dc/elements/1.1/" xmlns:rdf="http://www.w3.org/1999/02/22-rdf-syntax-ns#">
 <metadata>
  <rdf:RDF>
   <cc:Work rdf:about="">
    <dc:format>image/svg+xml</dc:format>
    <dc:type rdf:resource="http://purl.org/dc/dcmitype/StillImage"/>
   </cc:Work>
  </rdf:RDF>
 </metadata>
 <g transform="translate(-44.239 -65.104)">
  <g fill="#008000">
   <g transform="matrix(.23775 0 0 .23775 -638.21 249.38)">
    <path d="m3077.6-337.14c-11.317-0.25564-14.342-0.61047-15.703-1.842-2.0209-1.8289-2.1911-5.8098-0.3556-8.3212 1.2743-1.7437 2.9792-1.8312 40.781-2.0929l39.451-0.2731v-233.28l-3.0469-0.52739c-11.562-2.0012-91.084-13.645-91.689-13.425-0.415 0.15067 9.4457 21.657 21.912 47.792 20.391 42.746 23.109 47.941 27.065 51.728 5.5174 5.2822 6.2725 8.5882 4.1861 18.326-3.7232 17.376-16.17 33.989-32.203 42.982-10.047 5.6352-19.054 7.9404-31.225 7.9917-7.1189 0.03-12.851-0.4839-16.875-1.5128-18.04-4.6128-34.326-17.78-42.522-34.378-5.3261-10.787-7.8128-21.257-6.2766-26.427 0.6093-2.0506 2.5491-4.7625 4.7606-6.6555 3.2249-2.7603 6.3222-8.6004 22.777-42.946 10.474-21.863 21.385-44.308 24.246-49.877l5.2021-10.127-2.7207-0.54414c-4.5582-0.91164-5.9551-5.8277-2.7726-9.7579 1.4249-1.7597 2.5308-2.1237 5.8593-1.9283 3.9805 0.23366 33.807 4.5221 85.513 12.295 13.838 2.0802 25.722 3.7823 26.408 3.7823 0.9807 0 1.3147-3.5663 1.5585-16.641 0.3028-16.241 0.3728-16.747 2.9133-21.069 7.2666-12.362 24.59-12.826 32.98-0.88453l2.8541 4.0623 0.297 19.844c0.1634 10.914 0.6064 20.16 0.9846 20.547 0.3781 0.38681 24.502 4.285 53.609 8.6627 64.74 9.7368 63.614 9.549 65.213 10.876 1.7328 1.4382 1.6534 5.5578-0.1571 8.1426-1.0886 1.5541-2.3988 2.0836-5.1563 2.0836-2.5206 0-3.6968 0.41219-3.6968 1.2955 0 0.71254 9.9158 22.123 22.035 47.578 19.427 40.804 22.476 46.651 25.762 49.391 4.8494 4.0449 6.1686 8.5665 4.6504 15.94-5.0225 24.392-22.557 43.457-46.822 50.908-9.8878 3.0362-25.588 3.026-35.625-0.0231-23.982-7.2852-41.501-25.734-46.556-49.027-2.0555-9.4719-1.3483-12.514 4.1436-17.825 4.0007-3.8687 6.7198-9.0725 27.308-52.262 12.777-26.804 22.497-48.296 22.031-48.714-0.7824-0.70318-82.369-13.254-85.911-13.216-1.5533 0.0166-1.6406 6.0488-1.6406 113.41v113.39l39.232 0.28194c31.558 0.2268 39.535 0.5336 40.781 1.5686 1.8997 1.5779 2.021 6.6156 0.2188 9.081-1.2992 1.7773-3.2975 1.8211-85.547 1.8759-46.319 0.0308-90.524-0.0863-98.234-0.26052zm219.53-70.795c17.8-6.2736 32.218-23.207 36.334-42.673l0.6442-3.0469c-12.542-4.2202-32.569-6.188-53.052-8.018-37.865 0.59855-44.234 3.9301-56.055 8.018l0.6537 3.5156c2.1085 11.341 6.9088 19.952 16.35 29.328 7.5253 7.4739 15.027 12.072 23.623 14.481 7.8012 2.1861 22.933 1.4148 31.504-1.6059zm-250.98-32.047c17.158-3.6458 31.39-15.013 39.873-31.845 2.5055-4.972 3.2524-7.6092 3.2524-11.484v-5.0303c-19.065-4.3041-35.374-3.4952-52.568-4.3289-22.616 0.56881-29.383 1.0006-55.409 4.3289l0.6503 3.9844c3.3497 20.524 20.437 38.235 42.64 44.195 6.5643 1.7623 13.831 1.8231 21.562 0.18028zm282.17-13.073c10.074-0.0158 1.4765-10.998-27.132-70.223-7.1539-14.81-20.652-34.564-21.093-34.564-14.844 15.539-22.859 36.397-30.483 52.583-14.888 31.045-25.394 50.152-26.029 51.39-1.3087 2.553 0.3156 2.5988 6.5232 1.0818 25.004-6.1104 33.033-6.0145 50.242-6.0662 23.899-0.0718 46.967 5.8008 47.972 5.7992zm-250.29-60.579c-23.491-52.857-40.512-81.329-41.178-80.663-0.9795 0.97949-55.915 104.77-55.579 105.78 0.7484 2.2448 31.57 6.2841 54.494 6.335 24.467 0.0543 37.331-4.0298 53.504-6.163z" stroke-width=".9375"/>
    <path d="m3281.9-498.61c-4.3175-1.3476-4.3095-0.6233 0.027 2.2326 4.8539 3.2304 7.2471 6.4733 5.5212 7.496-2.3019 1.3595-8.3066 1.7336-11.596 0.74828-5.6297-1.7088-14.105-8.9803-16.057-13.78-1.0306-2.5443 14.16-6.8473 20.877-5.8995 8.0705 1.1232 12.416 4.989 11.868 10.564-0.2377 2.3948 3.2654 15.905 4.1375 15.905 0.8727 0 2.8863-7.5583 2.6509-9.9407-0.7402-7.5457 8.9229-12.49 19.952-10.215 4.9121 0.99827 13.222 4.0036 13.217 4.7519 0 1.1232-3.3421 5.5004-6.4212 8.4565-3.5466 3.405-10.676 6.9222-14.046 6.9346-2.6231 4e-3 -8.5289-1.4966-8.5289-2.1577 0-1.2467 4.5247-5.8995 7.276-7.496 3.6897-2.1576 3.3158-2.9061-0.8055-1.6215-6.4331 2.0082-10.611 9.7169-11.119 19.837 0.731 8.6671-0.622 15.119 0.8427 18.383 0.5333 1.188-8.6019 1.9072-7.9505-0.42444 6.9091-24.733-3.7917-41.597-9.8448-43.774z"/>
   </g>
   <path d="m113.7 76.05c-32.295-1e-6 -58.516 26.221-58.516 58.516 2e-6 32.295 26.221 58.516 58.516 58.516 32.295 0 58.516-26.221 58.516-58.516 0-32.295-26.221-58.516-58.516-58.516zm0 3.7251c30.283 3e-6 54.791 24.509 54.791 54.791 0 30.283-24.509 54.791-54.791 54.791-30.283 0-54.791-24.509-54.791-54.791 0-30.283 24.509-54.791 54.791-54.791z" color="#000000" stroke-width=".96765" style="-inkscape-stroke:none"/>
   <path d="m128.53 141.53c9.0527 1.4102 17.803 1.7701 25.94 0 0.45644 5.1718-4.3183 11.971-12.925 11.911-6.7946-0.041-11.991-3.3475-13.015-11.911z"/>
  </g>
 </g>
</svg>
