<?xml version="1.0" encoding="UTF-8" standalone="no"?>
<svg
   width="138.92mm"
   height="138.92mm"
   version="1.1"
   viewBox="0 0 138.92 138.92"
   id="svg138193"
   sodipodi:docname="ecological-accounting-icon-from-ecobricks-org.svg"
   inkscape:version="1.1.2 (0a00cf5339, 2022-02-04)"
   xmlns:inkscape="http://www.inkscape.org/namespaces/inkscape"
   xmlns:sodipodi="http://sodipodi.sourceforge.net/DTD/sodipodi-0.dtd"
   xmlns="http://www.w3.org/2000/svg"
   xmlns:svg="http://www.w3.org/2000/svg"
   xmlns:rdf="http://www.w3.org/1999/02/22-rdf-syntax-ns#"
   xmlns:cc="http://creativecommons.org/ns#"
   xmlns:dc="http://purl.org/dc/elements/1.1/">
  <defs
     id="defs138197" />
  <sodipodi:namedview
     id="namedview138195"
     pagecolor="#ffffff"
     bordercolor="#666666"
     borderopacity="1.0"
     inkscape:pageshadow="2"
     inkscape:pageopacity="0.0"
     inkscape:pagecheckerboard="0"
     inkscape:document-units="mm"
     showgrid="false"
     inkscape:zoom="1.4893764"
     inkscape:cx="181.28393"
     inkscape:cy="255.47605"
     inkscape:window-width="1920"
     inkscape:window-height="1016"
     inkscape:window-x="0"
     inkscape:window-y="0"
     inkscape:window-maximized="1"
     inkscape:current-layer="g138189" />
  <metadata
     id="metadata138177">
    <rdf:RDF>
      <cc:Work
         rdf:about="">
        <dc:format>image/svg+xml</dc:format>
        <dc:type
           rdf:resource="http://purl.org/dc/dcmitype/StillImage" />
      </cc:Work>
    </rdf:RDF>
  </metadata>
  <g
     transform="translate(-44.239 -65.104)"
     id="g138191">
    <g
       fill="#008000"
       id="g138189">
      <g
         transform="matrix(0.23775,0,0,0.23775,-766.77581,219.29589)"
         id="g138183" />
      <path
         d="m113.7 76.05c-32.295-1e-6 -58.516 26.221-58.516 58.516 2e-6 32.295 26.221 58.516 58.516 58.516 32.295 0 58.516-26.221 58.516-58.516 0-32.295-26.221-58.516-58.516-58.516zm0 3.7251c30.283 3e-6 54.791 24.509 54.791 54.791 0 30.283-24.509 54.791-54.791 54.791-30.283 0-54.791-24.509-54.791-54.791 0-30.283 24.509-54.791 54.791-54.791z"
         color="#000000"
         stroke-width=".96765"
         style="-inkscape-stroke:none"
         id="path138185" />
      <path
         d="m -19.364495,136.1502 c -1.026486,-0.32039 -1.024584,-0.14819 0.0064,0.5308 1.154015,0.76803 1.722998,1.53903 1.312666,1.78218 -0.547277,0.32322 -1.974895,0.41216 -2.756949,0.1779 -1.338462,-0.40627 -3.353464,-2.13507 -3.817552,-3.27619 -0.245025,-0.60491 3.36654,-1.62795 4.963507,-1.40261 1.918761,0.26704 2.951904,1.18613 2.821617,2.51159 -0.05651,0.56936 0.776348,3.78141 0.98369,3.78141 0.207485,0 0.686218,-1.79698 0.630252,-2.3634 -0.175983,-1.79399 2.121419,-2.96949 4.743588,-2.42861 1.1678514,0.23734 3.1435302,0.95185 3.1423414,1.12976 0,0.26704 -0.7945843,1.30772 -1.5266403,2.01053 -0.8432042,0.80954 -2.5382191,1.64576 -3.3394361,1.6487 -0.623642,9.6e-4 -2.027746,-0.35581 -2.027746,-0.51299 0,-0.2964 1.075747,-1.4026 1.729869,-1.78217 0.877226,-0.51297 0.788331,-0.69093 -0.191508,-0.38551 -1.52947,0.47745 -2.522765,2.31019 -2.643542,4.71624 0.173795,2.06061 -0.147881,3.59455 0.200352,4.37056 0.126792,0.28245 -2.045102,0.45344 -1.890232,-0.10091 1.642639,-5.88027 -0.901476,-9.88969 -2.340601,-10.40727 z"
         id="path138181"
         style="stroke-width:0.23775" />
    </g>
  </g>
  <g
     style="font-variant:normal;font-weight:normal;font-size:3.57951px;line-height:3.4;font-family:Arvo;-inkscape-font-specification:Arvo;writing-mode:lr-tb;fill:#000000;fill-opacity:1;fill-rule:nonzero;stroke:none;stroke-width:0.506008"
     id="g5778"
     transform="matrix(11.031623,-0.17080189,0.15814891,11.914228,-994.79253,-3176.1046)">
    <g
       style="fill:#008000;filter:url(#filter16988);fill-opacity:1"
       transform="matrix(0.02197909,3.1509154e-4,-3.1509154e-4,0.02197909,22.949722,283.46129)"
       id="g13412">
      <path
         sodipodi:nodetypes="sssscccssssssssssssscsssssssscsssssssssssssssssscsssssssscccssssssscccsssssccsssssscs"
         id="path12753"
         d="m 3077.5601,-337.13707 c -11.3174,-0.25564 -14.3423,-0.61047 -15.7031,-1.84204 -2.0209,-1.82888 -2.1911,-5.8098 -0.3556,-8.32124 1.2743,-1.74373 2.9792,-1.83123 40.7812,-2.0929 l 39.4513,-0.2731 V -466.3039 -582.94145 l -3.0469,-0.52739 c -11.5616,-2.00122 -91.0837,-13.64501 -91.6889,-13.42527 -0.415,0.15067 9.4457,21.65694 21.9125,47.7917 20.391,42.74644 23.1086,47.94051 27.0648,51.72802 5.5174,5.28222 6.2725,8.58816 4.1861,18.32575 -3.7232,17.37622 -16.1697,33.98878 -32.2029,42.98163 -10.047,5.63522 -19.0538,7.94042 -31.2247,7.99168 -7.1189,0.03 -12.8513,-0.4839 -16.875,-1.51275 -18.0403,-4.61284 -34.3265,-17.77993 -42.5218,-34.37823 -5.3261,-10.78699 -7.8128,-21.25703 -6.2766,-26.42705 0.6093,-2.05056 2.5491,-4.76247 4.7606,-6.65547 3.2249,-2.76033 6.3222,-8.60039 22.7766,-42.94555 10.4743,-21.86293 21.3852,-44.30774 24.2464,-49.87736 l 5.2021,-10.12658 -2.7207,-0.54414 c -4.5582,-0.91164 -5.9551,-5.82774 -2.7726,-9.75787 1.4249,-1.75972 2.5308,-2.12368 5.8593,-1.92829 3.9805,0.23366 33.8072,4.52209 85.5133,12.29493 13.8382,2.08025 25.722,3.78228 26.4084,3.78228 0.9807,0 1.3147,-3.56629 1.5585,-16.64063 0.3028,-16.24064 0.3728,-16.74706 2.9133,-21.06883 7.2666,-12.3617 24.5901,-12.82632 32.9803,-0.88453 l 2.8541,4.06226 0.297,19.84399 c 0.1634,10.91419 0.6064,20.16047 0.9846,20.54728 0.3781,0.38681 24.5023,4.28503 53.6092,8.66271 64.7398,9.73685 63.6137,9.54903 65.2132,10.8765 1.7328,1.43815 1.6534,5.55784 -0.1571,8.14265 -1.0886,1.55414 -2.3988,2.0836 -5.1563,2.0836 -2.5206,0 -3.6968,0.41219 -3.6968,1.29551 0,0.71254 9.9158,22.1227 22.035,47.57813 19.4269,40.80439 22.4761,46.65053 25.7617,49.39098 4.8494,4.04488 6.1686,8.56647 4.6504,15.93961 -5.0225,24.39194 -22.5573,43.45668 -46.8221,50.90759 -9.8878,3.03619 -25.5878,3.02601 -35.625,-0.0231 -23.9819,-7.28525 -41.5008,-25.73416 -46.5555,-49.02671 -2.0555,-9.4719 -1.3483,-12.51412 4.1436,-17.82485 4.0007,-3.86872 6.7198,-9.07254 27.3076,-52.26174 12.777,-26.80356 22.4969,-48.29558 22.0313,-48.71403 -0.7824,-0.70318 -82.3694,-13.25438 -85.9114,-13.21648 -1.5533,0.0166 -1.6406,6.04877 -1.6406,113.40749 v 113.38994 l 39.2322,0.28194 c 31.5584,0.2268 39.5351,0.5336 40.7812,1.5686 1.8997,1.57786 2.021,6.61561 0.2188,9.08103 -1.2992,1.7773 -3.2975,1.82112 -85.5469,1.87592 -46.3191,0.0308 -90.5245,-0.0863 -98.2341,-0.26052 z m 219.5326,-70.79495 c 17.7999,-6.27363 32.218,-23.20712 36.3335,-42.67252 l 0.6442,-3.04687 h -54.5538 -54.5539 l 0.6537,3.51562 c 2.1085,11.34094 6.9088,19.95171 16.3499,29.32843 7.5253,7.47387 15.0266,12.07231 23.6229,14.48122 7.8012,2.1861 22.9331,1.41475 31.5035,-1.60588 z m -250.9838,-32.0468 c 17.1577,-3.6458 31.3904,-15.01314 39.8726,-31.84543 2.5055,-4.97196 3.2524,-7.60923 3.2524,-11.48437 v -5.03029 h -53.9887 -53.9886 l 0.6503,3.98437 c 3.3497,20.52421 20.4366,38.23467 42.6395,44.19544 6.5643,1.76231 13.8313,1.82307 21.5625,0.18028 z m 282.1731,-13.07309 c 10.0738,-0.0158 1.4765,-10.99777 -27.1319,-70.223 -7.1539,-14.81011 -20.6523,-34.56424 -21.0932,-34.56424 -14.8435,15.53914 -22.8586,36.39709 -30.4827,52.5828 -14.888,31.04515 -26.1352,51.54897 -24.8507,52.08319 1.8596,0.77347 101.43,0.12459 103.5585,0.12125 z m -250.2886,-60.57916 c -23.4909,-52.85661 -40.5117,-81.32933 -41.1785,-80.66251 -0.9795,0.97949 -55.9154,104.77357 -55.5789,105.7827 0.7484,2.2448 31.6765,1.40894 54.5975,1.03745 l 53.4004,-0.86548 z"
         style="fill:#008000;stroke-width:0.9375;fill-opacity:1" />
    </g>
    <path
       sodipodi:nodetypes="cccc"
       id="path16125"
       d="m 88.62889,273.66741 2.373252,0.034 c 0.0353,0.47873 -0.390232,1.1013 -1.185799,1.0844 -0.628082,-0.0128 -1.10413,-0.32535 -1.187453,-1.11842 z"
       style="fill:#808080;fill-opacity:1;stroke:none;stroke-width:0.0206075px;stroke-linecap:butt;stroke-linejoin:miter;stroke-opacity:1;filter:url(#filter16988)" />
    <path
       style="fill:#000000;fill-opacity:1;stroke:none;stroke-width:0.0206075px;stroke-linecap:butt;stroke-linejoin:miter;stroke-opacity:1;filter:url(#filter16988)"
       d="m 93.974402,274.5066 2.39809,0.0344 c 0.0353,0.47872 -0.41508,1.10094 -1.21065,1.08405 -0.62808,-0.0128 -1.10413,-0.32536 -1.18744,-1.11843 z"
       id="path16125-3"
       sodipodi:nodetypes="cccc" />
    <path
       sodipodi:nodetypes="ccccc"
       id="path12177"
       d="m 96.448526,274.49873 c -0.143023,0.95872 -0.807342,1.21791 -1.23782,1.22388 -0.996427,0.0169 -1.343116,-0.80713 -1.2936,-1.28535 0.853802,0.0366 1.825874,-0.0301 2.53142,0.0615 z"
       style="fill:#00aa44;stroke:none;stroke-width:0.308582px;stroke-linecap:butt;stroke-linejoin:miter;stroke-opacity:1" />
  </g>
</svg>
