<?xml version="1.0" encoding="UTF-8"?>
<!-- Created with Inkscape (http://www.inkscape.org/) -->
<svg width="87.072mm" height="87.915mm" version="1.1" viewBox="0 0 87.072 87.915" xmlns="http://www.w3.org/2000/svg" xmlns:xlink="http://www.w3.org/1999/xlink">
 <defs>
  <linearGradient id="linearGradient4495">
   <stop stop-color="#fff" stop-opacity=".26697" offset="0"/>
   <stop stop-color="#ccc" stop-opacity="0" offset="1"/>
  </linearGradient>
  <linearGradient id="linearGradient4497" x1="92.213" x2="114.97" y1="99.74" y2="108.21" gradientTransform="matrix(.94262 0 0 .94262 5.0361 7.4196)" gradientUnits="userSpaceOnUse" xlink:href="#linearGradient4495"/>
  <linearGradient id="linearGradient5299" x1="92.213" x2="114.97" y1="99.74" y2="108.21" gradientTransform="matrix(.32932 -.88322 .88322 .32932 -50.524 170.63)" gradientUnits="userSpaceOnUse" xlink:href="#linearGradient4495"/>
  <linearGradient id="linearGradient5418" x1="92.213" x2="114.97" y1="99.74" y2="108.21" gradientTransform="matrix(-.69253 -.63949 .63949 -.69253 81.369 282.13)" gradientUnits="userSpaceOnUse" xlink:href="#linearGradient4495"/>
  <linearGradient id="linearGradient5541" x1="92.213" x2="114.97" y1="99.74" y2="108.21" gradientTransform="matrix(-.77409 .53789 -.53789 -.77409 239.11 177.22)" gradientUnits="userSpaceOnUse" xlink:href="#linearGradient4495"/>
  <linearGradient id="linearGradient5543" x1="92.213" x2="114.97" y1="99.74" y2="108.21" gradientTransform="matrix(.25957 .90618 -.90618 .25957 186.64 7.486)" gradientUnits="userSpaceOnUse" xlink:href="#linearGradient4495"/>
 </defs>
 <g transform="translate(-50.984 -87.283)">
  <g transform="matrix(1.1641 0 0 1.1641 -15.668 -19.462)">
   <path d="m94.979 97.293c-17.522 0-31.867 14.344-31.867 31.867s14.344 31.867 31.867 31.867c17.522 0 31.865-14.344 31.865-31.867s-14.343-31.867-31.865-31.867zm0 12.967c10.515 0 18.898 8.3853 18.898 18.9s-8.3838 18.9-18.898 18.9c-10.515 0-18.9-8.3853-18.9-18.9s8.3856-18.9 18.9-18.9z" color="#000000" fill="#008000" stroke-linecap="square" stroke-width=".94262" style="-inkscape-stroke:none"/>
   <g stroke-width=".2494px">
    <path d="m94.446 97.31c-3.9987 2.4908-2.8682 9.1394 0.01212 10.487 12.222 0.53145 17.295 8.0821 20.167 13.912l9.0583-5.3379c-4.8465-9.6522-12.753-18.792-29.237-19.061z" fill="url(#linearGradient4497)"/>
    <path d="m65.089 118.4c0.93681 4.6169 7.411 5.7418 9.6797 3.5138 4.768-11.266 13.615-13.381 20.081-14.036l-2.9184-9.9189c-11.829 1.6462-20.49 5.1727-26.842 20.441z" fill="url(#linearGradient5299)"/>
    <path d="m76.898 155.54c4.6275 0.88284 8.0725-4.8668 6.8705-7.8107-7.9779-5.6107-11.719-14.773-9.8739-21.005l-9.5425-4.824c-2.9875 10.379-1.3134 23.063 12.546 33.64z" fill="url(#linearGradient5418)"/>
    <path d="m114.61 154.38c1.8624-4.3272-3.0822-9.1026-6.2164-8.5655-10.34 6.538-18.814 3.2318-24.5 0.0836l-4.129 9.6283c14.101 7.0516 21.155 8.04 34.845-1.1463z" fill="url(#linearGradient5541)"/>
    <path d="m124.69 117.96c-3.4956-3.1582-9.4162-8e-3 -9.9183 3.1322 4.3779 10.474 2.4035 16.632-2.1633 22.954l6.3451 8.7453c7.8168-6.9568 11.22-23.26 5.7365-34.832z" fill="url(#linearGradient5543)"/>
   </g>
  </g>
 </g>
</svg>
