<?xml version="1.0" encoding="UTF-8"?>
<!-- Created with Inkscape (http://www.inkscape.org/) -->
<svg id="svg1" width="28.032mm" height="28.997mm" version="1.1" viewBox="0 0 28.032 28.997" xmlns="http://www.w3.org/2000/svg">
 <g id="layer1" transform="translate(-90.488 -133.88)">
  <g id="layer2" transform="matrix(.79165 0 0 .79165 95.012 140.33)">
   <g id="logo-emblem" transform="matrix(.17994 0 0 .17228 -8.078 -13.757)">
    <path id="logo-o-4" d="m57.668 152.74c-9.2502-1.3534-19.061-7.6796-23.502-15.154-6.5207-10.976-5.4798-24.126 2.6902-33.986 9.2459-11.159 25.306-15.484 39.551-10.653 9.6012 3.2563 17.375 10.864 20.455 20.019 1.1812 3.5104 1.6049 9.9045 0.91783 13.85-2.1116 12.125-13.293 22.86-26.693 25.625-3.5314 0.7288-9.5592 0.86258-13.419 0.29783zm13.695-25.066c2.3357-0.87388 4.7269-3.0533 5.6989-5.1942 0.91624-2.018 0.92305-5.7234 0.0142-7.7245-1.4885-3.2774-4.9303-5.5092-9.0254-5.8525-4.9484-0.41486-9.2023 1.9518-10.994 6.1165-1.1678 2.7146-0.95213 6.0936 0.54254 8.5006 1.1398 1.8356 3.8369 3.9445 5.7558 4.5005 2.1055 0.61011 5.8888 0.44646 8.0078-0.34638z" fill="#ff13ff" stop-color="#000000"/>
    <path id="logo-o-3" d="m91.762 95.146c-6.0323-1.1024-10.817-3.2737-15.614-7.0858-7.7524-6.1606-11.298-14.301-9.5199-21.856 1.2517-5.318 5.7069-9.3332 12.258-11.047 3.2063-0.83895 10.319-0.55709 14.093 0.55846 8.8948 2.6294 15.926 8.0849 19.653 15.248 2.9832 5.734 3.2765 10.438 0.94567 15.164-3.4721 7.0411-12.412 10.737-21.816 9.0184zm5.6098-15.97c0.63114-0.32638 1.4669-1.1171 1.8572-1.7572 2.5888-4.2457-2.9781-10.434-9.3865-10.434-6.3053 0-7.5095 6.8627-1.9249 10.97 2.8698 2.1105 6.7623 2.6133 9.4542 1.2212z" fill="#f00" stop-color="#000000"/>
    <path id="logo-o-2" d="m139.15 96.05c-4.2746-0.64713-9.8151-3.5489-13.863-7.2609-6.1268-5.6179-9.8162-13.842-8.6497-19.281 0.77912-3.6329 3.0603-6.3678 6.5263-7.8243 1.6997-0.71428 7.3789-0.67347 9.886 0.07104 6.7619 2.0081 13.498 7.3286 17.357 13.709 4.019 6.6458 4.0282 14.149 0.022 17.949-2.4446 2.3187-6.742 3.3234-11.278 2.6368zm0.60256-13.277c4.5516-2.1599 0.19972-10.214-5.9099-10.937-1.7358-0.20558-1.9462-0.14272-2.9786 0.88964-0.84498 0.84499-1.1108 1.4381-1.1108 2.4781 0 2.9325 2.7456 6.4136 5.9565 7.5524 1.9676 0.69783 2.6026 0.70052 4.0429 0.01709z" fill="#fa8d04" stop-color="#000000"/>
    <path id="logo-o-1" d="m170.19 135.15c-4.4102-0.97864-8.8468-3.8185-13.239-8.4741-5.237-5.5515-8.1182-11.258-9.0238-17.872-0.63718-4.6538 0.26393-8.7691 2.553-11.659 3.4428-4.3469 10.751-4.6111 17.356-0.6276 6.4765 3.9057 11.858 10.522 14.663 18.026 1.03 2.7562 1.1975 3.7032 1.3289 7.5158 0.13263 3.8467 0.0549 4.6166-0.6578 6.5139-1.9902 5.2984-7.0927 7.8838-12.981 6.5772zm1.1456-16.527c0.62187-0.62195 0.75888-1.1868 0.73404-3.0265-0.065-4.8117-4.0474-9.3183-8.2562-9.3426-2.1608-0.0125-3.1653 1.2216-3.1608 3.8834 8e-3 4.9181 4.475 9.8617 8.5018 9.4095 0.78023-0.0876 1.76-0.50259 2.1812-0.92375z" fill="#fddf00" stop-color="#000000"/>
    <path id="logo-o-6" d="m123.97 141.86c-16.888-4.4227-27.813-25.144-20.849-39.546 1.3901-2.8749 5.0851-6.4801 8.2103-8.0108 10.748-5.2641 25.847 1.4001 32.927 14.533 5.9371 11.012 5.0149 22.261-2.3788 29.018-4.7234 4.317-11.193 5.7638-17.91 4.0049zm6.8666-19.551c0.49984-0.35766 1.2888-1.3768 1.7531-2.2649 2.6479-5.0635-2.3372-12.686-8.2966-12.686-2.564 0-4.6158 1.117-5.4572 2.9708-2.0702 4.5612 0.99593 11.013 6.0025 12.63 1.5268 0.49325 4.9132 0.12619 5.9982-0.65016z" fill="#999" stop-color="#000000"/>
    <path id="logo-o-5" d="m102.44 222.87c-2.609-0.32932-4.9322-1.1181-8.6623-2.9412-2.469-1.2067-3.8058-2.2089-6.8237-5.1156-5.324-5.1279-8.0643-9.5322-10.438-16.777-1.5794-4.8194-2.1455-8.8583-2.1654-15.45-0.0204-6.7465 0.52093-10.287 2.3776-15.55 4.5461-12.886 13.506-22.079 24.193-24.823 3.1163-0.80007 8.4675-0.97647 11.559-0.38103 5.2672 1.0146 10.884 4.1397 15.071 8.3843 10.747 10.897 14.716 28.945 9.979 45.371-1.0461 3.6272-3.8025 9.6199-5.8293 12.673-4.2391 6.3864-11.812 12.155-18.345 13.973-2.0988 0.58416-8.4105 0.95177-10.915 0.63569zm10.411-33.87c2.3451-1.0921 5.0049-4.0437 5.9713-6.6265 0.83893-2.2422 1.034-7.644 0.36318-10.059-0.61285-2.2068-3.2828-5.7796-5.2096-6.9712-1.5191-0.93941-2.0581-1.0661-4.5185-1.062-3.2363 5e-3 -4.4731 0.51471-6.6186 2.7255-2.8696 2.9569-4.4169 8.1492-3.6782 12.343 0.44409 2.5211 1.8993 5.9232 3.071 7.1796 2.9905 3.2067 7.0243 4.1454 10.619 2.4712z" fill="#00e6ff" stop-color="#000000"/>
    <path id="path1" d="m166.38 196.37c-7.7042-1.1285-16.521-8.835-21.525-18.815-3.4217-6.8238-5.1304-14.66-4.8084-22.051 0.22139-5.0829 0.82226-7.5612 2.8645-11.815 4.2876-8.9298 12.903-11.833 22.073-7.4389 8.3075 3.9813 15.471 13.219 18.877 24.343 1.6615 5.4267 1.9722 7.9042 1.7934 14.299-0.14458 5.1696-0.26035 5.9838-1.2551 8.8276-3.2123 9.1832-9.8543 13.846-18.019 12.65zm1.5392-24.873c0.58211-0.30102 1.456-1.2416 1.9421-2.0903 1.775-3.0992 1.5491-6.8774-0.68336-11.429-3.441-7.0162-10.559-7.961-12.395-1.6452-2.3484 8.0781 5.1349 18.268 11.136 15.165z" fill="#05f30a" stop-color="#000000"/>
   </g>
  </g>
 </g>
</svg>
