<?xml version="1.0" encoding="UTF-8" standalone="no"?>
<!-- Created with Inkscape (http://www.inkscape.org/) -->

<svg
   width="73.329mm"
   height="81.492mm"
   version="1.1"
   viewBox="0 0 73.329 81.492"
   xml:space="preserve"
   id="svg1"
   sodipodi:docname="glossary.svg"
   inkscape:version="1.3.2 (1:1.3.2+202311252150+091e20ef0f)"
   xmlns:inkscape="http://www.inkscape.org/namespaces/inkscape"
   xmlns:sodipodi="http://sodipodi.sourceforge.net/DTD/sodipodi-0.dtd"
   xmlns="http://www.w3.org/2000/svg"
   xmlns:svg="http://www.w3.org/2000/svg"><defs
     id="defs1" /><sodipodi:namedview
     id="namedview1"
     pagecolor="#ffffff"
     bordercolor="#000000"
     borderopacity="0.25"
     inkscape:showpageshadow="2"
     inkscape:pageopacity="0.0"
     inkscape:pagecheckerboard="0"
     inkscape:deskcolor="#d1d1d1"
     inkscape:document-units="mm"
     inkscape:zoom="2.4188214"
     inkscape:cx="138.70392"
     inkscape:cy="154.00062"
     inkscape:window-width="1280"
     inkscape:window-height="987"
     inkscape:window-x="0"
     inkscape:window-y="0"
     inkscape:window-maximized="1"
     inkscape:current-layer="svg1" /><g
     transform="translate(-84.976 -175.33)"
     id="g1"
     style="fill:#c5c5c5;fill-opacity:1"><path
       d="m102.28 243.76c-2.4858-0.68425-4.6207-2.7943-5.4175-5.3544-0.32064-1.0302-0.33848-2.1804-0.35756-23.051l-0.0201-21.967 0.45476-0.99332c0.56668-1.2378 1.8307-2.6083 2.9852-3.2366 1.9742-1.0745 1.0494-1.0355 24.579-1.0355 21.32 0 21.566 4e-3 21.925 0.36303 0.57086 0.57087 0.4637 1.2362-0.30378 1.8859-1.9054 1.6131-2.4385 2.526-2.5598 4.3836-0.13436 2.0566 0.35982 2.9413 2.7509 4.9252l0.47568 0.39467v21.499c0 21.475-3.6e-4 21.499-0.3762 21.977l-0.3762 0.47827-21.451-0.0163c-17.003-0.0129-21.629-0.0652-22.308-0.25227zm41.97-22.058v-19.785h-39.752v39.57h39.752zm-16.632 13.709c-0.0593-0.15471 1.204-2.4863 3.0007-5.5379 1.7068-2.8989 3.1032-5.3488 3.1032-5.4444 0-0.1033-1.1138-0.17029-2.7484-0.16529-2.833 9e-3 -3.0503-0.0451-3.0573-0.7558-7e-3 -0.65991 0.34293-0.71698 4.3899-0.71698 3.7039 0 3.957 0.0211 3.957 0.32997 0 0.1815-1.3477 2.6419-2.995 5.4675-1.6472 2.8256-2.995 5.2093-2.995 5.297 0 0.0877 1.2089 0.15941 2.6864 0.15941 2.7657 0 3.122 0.0858 3.122 0.75207 0 0.17404-0.18154 0.44359-0.40342 0.599-0.58397 0.40902-7.9038 0.42296-8.0602 0.0153zm-17.13-1.911c-0.43689-0.43689-0.45391-0.69704-0.0805-1.2302 0.28229-0.40302 0.28838-0.40342 6.2742-0.40342 3.783 0 6.121 0.0693 6.3427 0.18791 0.4963 0.26561 0.46552 1.1635-0.0523 1.5262-0.34489 0.24158-1.2533 0.28257-6.2622 0.28257-5.6168 0-5.8738-0.015-6.2218-0.36303zm0-5.99c-0.19967-0.19966-0.36303-0.48555-0.36303-0.63529 0-0.14975 0.16336-0.43564 0.36303-0.6353 0.34802-0.34804 0.60504-0.36303 6.2218-0.36303 6.3606 0 6.6657 0.0455 6.6657 0.99566 0 0.99171-0.0608 1.001-6.5475 1.001-5.735 0-5.9917-0.0147-6.34-0.36304zm0.81951-7.3217c-0.26043-0.39748-0.16397-0.81589 1.5316-6.6435 0.99525-3.4206 1.9044-6.3336 2.0204-6.4734 0.26252-0.31633 0.96586-0.33071 1.2196-0.0249 0.10458 0.12601 1.0097 3.0452 2.0114 6.487 1.6832 5.7832 1.8009 6.289 1.5523 6.6684-0.56694 0.86526-1.2667 0.34557-1.7894-1.3288l-0.39192-1.2556h-3.9638l-0.37574 1.2037c-0.20665 0.66206-0.48545 1.3359-0.61953 1.4975-0.34843 0.41983-0.87188 0.3627-1.195-0.13042zm5.5335-4.5345c0-0.13163-0.12844-0.68297-0.28544-1.2252-0.87337-3.0166-1.0188-3.4632-1.1009-3.3811-0.1436 0.14361-1.3324 4.1773-1.3345 4.528-1e-3 0.27446 0.18323 0.31765 1.3595 0.31765 1.0058 0 1.3614-0.0625 1.3614-0.23933zm7.9601 1.8388c-0.59053-0.20287-0.77781-0.81765-0.4169-1.3685l0.27028-0.41247h6.131c4.5265 0 6.188 0.057 6.3488 0.21781 0.37764 0.37764 0.25904 1.1989-0.21829 1.5117-0.37607 0.24641-1.207 0.28098-6.0354 0.25111-3.0796-0.0191-5.8154-0.1089-6.0796-0.19965zm-0.33651-6.1373c-0.19967-0.19966-0.36303-0.48555-0.36303-0.6353s0.16336-0.43563 0.36303-0.6353c0.34833-0.34833 0.60505-0.36303 6.34-0.36303 5.1916 0 6.0145 0.0375 6.2622 0.28524 0.38251 0.38251 0.36067 1.0423-0.0467 1.411-0.29461 0.26663-0.99876 0.30041-6.2622 0.30041-5.6883 0-5.9451-0.0148-6.2933-0.36303zm17.469-12.085c0.0576-0.0576-0.10827-0.56805-0.36847-1.1345-0.89098-1.9395-0.726-5.1207 0.35715-6.8868l0.36373-0.59306-39.694 0.097-0.95979 0.4337c-0.54736 0.24734-1.2585 0.77304-1.6549 1.2234-2.3184 2.6338-0.6243 6.2065 3.2094 6.7683 1.1542 0.16914 38.581 0.25792 38.747 0.0919z"
       fill="#4d4d4d"
       stroke-width=".18151"
       id="path1"
       style="fill:#c5c5c5;fill-opacity:1" /></g></svg>
