<?xml version="1.0" encoding="UTF-8"?>
<!-- Created with Inkscape (http://www.inkscape.org/) -->
<svg id="svg139116" width="126.51mm" height="126.51mm" version="1.1" viewBox="0 0 126.51 126.51" xmlns="http://www.w3.org/2000/svg">
 <defs id="defs139113">
  <clipPath id="clipPath6603-6">
   <path id="path605" transform="matrix(.38984 -.0015378 .0015378 .38984 -191.48 -165.47)" d="m638.86 565.08-22.197-0.0302-0.56345 14.49 3.0937-3e-3c-0.0212 1.8291-0.0475 3.627-0.072 5.4948-4.3123 5.3811-8.475 4.9838-12.401 11.695-3.0607 12.43-0.64511 18.1 0.89325 27.415 1.1251 12.423-2.7724 12.529-1.908 35.529-0.0464 4.8162 4.2193 9.865 9.1615 9.7536l9.3328-9.4e-4v1e-3l16.495-6.7e-4c4.9422 0.11143 9.2079-4.9365 9.1615-9.7526 0.86445-23-3.0338-23.107-1.9088-35.531 1.5384-9.3143 3.9534-14.985 0.89275-27.415-3.9264-6.7113-8.0891-6.314-12.401-11.695-0.0246-1.8743-0.0507-3.679-0.0719-5.515l2.8867-4e-3 -0.39342-14.432z" fill="#fff" filter="url(#filter4530-5-2)" stroke="#000" stroke-linecap="round" stroke-linejoin="round" stroke-width="3.37"/>
  </clipPath>
 </defs>
 <g id="layer1" transform="translate(-40.679 -54.532)">
  <g id="g648" transform="matrix(.65618 -.56515 .56519 .65693 308 -674.23)">
   <g id="g179142" transform="matrix(.94693 0 0 .94693 -41.117 28.562)">
    <g id="g638" transform="matrix(3.8112 -.28689 .2891 3.8087 -1003 268)" clip-path="url(#clipPath6603-6)" fill-rule="evenodd">
     <g id="g179054">
      <path id="path628" d="m45.708 66.816 0.43519-9.7918c8.7427-10.184 13.385-2.9161 16.32 0.2176l0.2176 9.3566c-6.9137 3.8778-11.353 0.2398-16.972 0.21759z" fill="#0ff"/>
      <path id="path630" d="m45.578 74.494 0.43519-9.7918c8.0577-1.7312 10.172 3.8557 16.32 0.2176l0.2176 9.3566z" fill="#00f200"/>
      <path id="path632" d="m46.156 80.201-0.12695-8.7097c2.5623-3.0488 10.077 6.2534 16.882-0.8645l0.2176 9.3566c-5.8463 0.63489-12.788 4.5331-16.972 0.21759z" fill="#ff0"/>
      <path id="path634" d="m45.926 89.701 0.43519-9.7918c7.9476 3.6455 11.478-3.8916 16.32 0.2176l0.2176 9.3566z" fill="#f00"/>
      <path id="path636" d="m45.919 96.017 0.43553-8.935c8.0493 0.61277 11.765 4.5126 16.332 0.19856l0.21776 8.5379z" fill="#f0f"/>
     </g>
    </g>
    <g id="g646" stroke="#000" stroke-linecap="round" stroke-linejoin="round">
     <path id="path640" d="m-776.58 467.33c-5.4525 1.2816-16.632-0.70183-16.124 5.7321 0.40568 5.1332 0.66965 9.527 0.99129 14.342-5.7671 8.4948-11.997 8.3956-17.033 18.82-3.0723 18.81 1.1871 26.942 4.5764 40.587 3.144 18.308-2.6326 18.925 1.3783 52.963 0.50239 7.1542 7.6064 12.1 14.764 13.399" fill-opacity="0" stroke-width="5.0196"/>
     <path id="path642" d="m-784.12 467.93c5.5872 0.40678 16.311-3.3123 16.831 3.1208 0.4142 5.1324 0.85057 9.5126 1.2979 14.318 7.043 7.4797 13.179 6.4007 19.806 15.9 6.0198 18.09 3.1048 26.79 1.9242 40.797-0.19811 18.573 5.6038 18.272 7.0468 52.514 0.63959 7.1433-3.6832 11.973-12.451 15.555-5.6605 1.5646-17.778 5.788-38.362 3.0398" fill="none" stroke-width="5.0196"/>
     <path id="path644" d="m-797.73 458.04c13.24-4.3711 23.186-3.5948 32.972-2.5683l2.2967 21.377c-10.135 2.6697-21.325 3.9512-34.388 2.7654z" fill="#2479b3" fill-rule="evenodd" stroke-width="3.874"/>
    </g>
   </g>
  </g>
 </g>
</svg>
