<?xml version="1.0" encoding="UTF-8" standalone="no"?>
<!-- Created with Inkscape (http://www.inkscape.org/) -->

<svg
   width="126.50786mm"
   height="126.50786mm"
   viewBox="0 0 126.50786 126.50786"
   version="1.1"
   id="svg139116"
   inkscape:export-filename="gobrik-favicon-1000px.png"
   inkscape:export-xdpi="200.78"
   inkscape:export-ydpi="200.78"
   inkscape:version="1.3.2 (1:1.3.2+202311252150+091e20ef0f)"
   sodipodi:docname="gobrik-icon.svg"
   xmlns:inkscape="http://www.inkscape.org/namespaces/inkscape"
   xmlns:sodipodi="http://sodipodi.sourceforge.net/DTD/sodipodi-0.dtd"
   xmlns="http://www.w3.org/2000/svg"
   xmlns:svg="http://www.w3.org/2000/svg">
  <sodipodi:namedview
     id="namedview139118"
     pagecolor="#ffffff"
     bordercolor="#000000"
     borderopacity="0.25"
     inkscape:showpageshadow="2"
     inkscape:pageopacity="0.0"
     inkscape:pagecheckerboard="0"
     inkscape:deskcolor="#d1d1d1"
     inkscape:document-units="mm"
     showgrid="false"
     inkscape:zoom="0.84096521"
     inkscape:cx="271.7116"
     inkscape:cy="309.76311"
     inkscape:window-width="1503"
     inkscape:window-height="869"
     inkscape:window-x="0"
     inkscape:window-y="0"
     inkscape:window-maximized="1"
     inkscape:current-layer="g648" />
  <defs
     id="defs139113">
    <clipPath
       id="clipPath6603-6">
      <path
         transform="matrix(0.38984,-0.0015378,0.0015378,0.38984,-191.48,-165.47)"
         d="m 638.86,565.08 -22.197,-0.0302 -0.56345,14.49 3.0937,-0.003 c -0.0212,1.8291 -0.0475,3.627 -0.072,5.4948 -4.3123,5.3811 -8.475,4.9838 -12.401,11.695 -3.0607,12.43 -0.64511,18.1 0.89325,27.415 1.1251,12.423 -2.7724,12.529 -1.908,35.529 -0.0464,4.8162 4.2193,9.865 9.1615,9.7536 l 9.3328,-9.4e-4 v 10e-4 l 16.495,-6.7e-4 c 4.9422,0.11143 9.2079,-4.9365 9.1615,-9.7526 0.86445,-23 -3.0338,-23.107 -1.9088,-35.531 1.5384,-9.3143 3.9534,-14.985 0.89275,-27.415 -3.9264,-6.7113 -8.0891,-6.314 -12.401,-11.695 -0.0246,-1.8743 -0.0507,-3.679 -0.0719,-5.515 l 2.8867,-0.004 -0.39342,-14.432 z"
         fill="#ffffff"
         filter="url(#filter4530-5-2)"
         stroke="#000000"
         stroke-linecap="round"
         stroke-linejoin="round"
         stroke-width="3.37"
         id="path605" />
    </clipPath>
  </defs>
  <g
     inkscape:label="Layer 1"
     inkscape:groupmode="layer"
     id="layer1"
     transform="translate(-40.679379,-54.531818)">
    <g
       transform="matrix(0.65617909,-0.56514518,0.56519201,0.65692977,307.99665,-674.2268)"
       id="g648">
      <g
         id="g179142"
         transform="matrix(0.82788469,0,0,0.82788469,-133.33947,92.62305)">
        <g
           transform="matrix(3.8112,-0.28689,0.2891,3.8087,-1003,268)"
           clip-path="url(#clipPath6603-6)"
           fill-rule="evenodd"
           id="g638">
          <g
             id="g179054">
            <path
               d="m 45.708,66.816 0.43519,-9.7918 c 8.7427,-10.184 13.385,-2.9161 16.32,0.2176 l 0.2176,9.3566 c -6.9137,3.8778 -11.353,0.2398 -16.972,0.21759 z"
               fill="#ff00ff"
               id="path628"
               style="fill:#00ffff;fill-opacity:1" />
            <path
               d="m 45.578,74.494 0.43519,-9.7918 c 8.0577,-1.7312 10.172,3.8557 16.32,0.2176 l 0.2176,9.3566 z"
               fill="#00d6ff"
               id="path630"
               style="fill:#00f200;fill-opacity:1" />
            <path
               d="m 46.156,80.201 -0.12695,-8.7097 c 2.5623,-3.0488 10.077,6.2534 16.882,-0.8645 l 0.2176,9.3566 c -5.8463,0.63489 -12.788,4.5331 -16.972,0.21759 z"
               fill="#00f200"
               id="path632"
               style="fill:#ffff00;fill-opacity:1" />
            <path
               d="m 45.926,89.701 0.43519,-9.7918 c 7.9476,3.6455 11.478,-3.8916 16.32,0.2176 l 0.2176,9.3566 z"
               fill="#fff100"
               id="path634"
               style="fill:#ff0000;fill-opacity:1" />
            <path
               d="m 45.919,96.017 0.43553,-8.935 c 8.0493,0.61277 11.765,4.5126 16.332,0.19856 l 0.21776,8.5379 z"
               fill="#ff0000"
               id="path636"
               style="fill:#ff00ff;fill-opacity:1" />
          </g>
        </g>
        <g
           stroke="#000000"
           stroke-linecap="round"
           stroke-linejoin="round"
           id="g646">
          <path
             d="m -776.58,467.33 c -5.4525,1.2816 -16.632,-0.70183 -16.124,5.7321 0.40568,5.1332 0.66965,9.527 0.99129,14.342 -5.7671,8.4948 -11.997,8.3956 -17.033,18.82 -3.0723,18.81 1.1871,26.942 4.5764,40.587 3.144,18.308 -2.6326,18.925 1.3783,52.963 0.50239,7.1542 7.6064,12.1 14.764,13.399"
             fill-opacity="0"
             stroke-width="5.0196"
             id="path640" />
          <path
             d="m -784.12,467.93 c 5.5872,0.40678 16.311,-3.3123 16.831,3.1208 0.4142,5.1324 0.85057,9.5126 1.2979,14.318 7.043,7.4797 13.179,6.4007 19.806,15.9 6.0198,18.09 3.1048,26.79 1.9242,40.797 -0.19811,18.573 5.6038,18.272 7.0468,52.514 0.63959,7.1433 -3.6832,11.973 -12.451,15.555 -5.6605,1.5646 -17.778,5.788 -38.362,3.0398"
             fill="none"
             stroke-width="5.0196"
             id="path642" />
          <path
             d="m -797.73,458.04 c 13.24,-4.3711 23.186,-3.5948 32.972,-2.5683 l 2.2967,21.377 c -10.135,2.6697 -21.325,3.9512 -34.388,2.7654 z"
             fill="#2479b3"
             fill-rule="evenodd"
             stroke-width="3.874"
             id="path644" />
        </g>
      </g>
    </g>
  </g>
</svg>
