<?xml version="1.0" encoding="UTF-8"?>
<!-- Created with Inkscape (http://www.inkscape.org/) -->
<svg id="svg1" width="117.88mm" height="114.58mm" version="1.1" viewBox="0 0 117.88 114.58" xmlns="http://www.w3.org/2000/svg">
 <g id="layer1" transform="translate(-46.028 -54.909)">
  <path id="path46364" d="m112.78 55.498c-1.8165 0.85232-6.1659 48.166-3.6532 71.537 0.74453 6.5111 10.103 1.3554 10.479-5.4088 0.37944-6.0241-1.0176-15.667 8.2678-15.616 4.5558 0.11499 14.819 12.573 6.0563 31.145-10.918 18.004-46.249 17.662-56.912 0-10.138-17.069-0.52461-32.103 6.1525-32.803 4.6589-0.53324 7.3111-1.4796 8.4599 18.669 0.18397 6.3309 8.5115 9.5776 9.4211 4.0131 0.46712-23.943 0.92993-71.199-1.1527-71.886-24.727 5.1679-53.188 16.11-53.643 58.277 1.217 18.306 12.671 56.021 58.45 55.834 35.541-0.85375 58.834-24.54 58.834-49.553 1.5241-23.659-9.7955-61.834-50.759-64.209z" fill="#f9f9f9" fill-rule="evenodd"/>
 </g>
</svg>
