<?xml version="1.0" encoding="UTF-8" standalone="no"?>
<!-- Created with Inkscape (http://www.inkscape.org/) -->

<svg
   width="125.4125mm"
   height="125.4125mm"
   viewBox="0 0 125.4125 125.4125"
   version="1.1"
   id="svg2869"
   inkscape:version="1.3.2 (1:1.3.2+202311252150+091e20ef0f)"
   sodipodi:docname="language-button2.svg"
   xmlns:inkscape="http://www.inkscape.org/namespaces/inkscape"
   xmlns:sodipodi="http://sodipodi.sourceforge.net/DTD/sodipodi-0.dtd"
   xmlns="http://www.w3.org/2000/svg"
   xmlns:svg="http://www.w3.org/2000/svg">
  <sodipodi:namedview
     id="namedview2871"
     pagecolor="#ffffff"
     bordercolor="#666666"
     borderopacity="1.0"
     inkscape:pageshadow="2"
     inkscape:pageopacity="0.0"
     inkscape:pagecheckerboard="0"
     inkscape:document-units="mm"
     showgrid="false"
     inkscape:zoom="0.74297138"
     inkscape:cx="155.45686"
     inkscape:cy="292.74344"
     inkscape:window-width="1503"
     inkscape:window-height="869"
     inkscape:window-x="0"
     inkscape:window-y="0"
     inkscape:window-maximized="1"
     inkscape:current-layer="layer1"
     inkscape:showpageshadow="2"
     inkscape:deskcolor="#d1d1d1" />
  <defs
     id="defs2866" />
  <g
     inkscape:label="Layer 1"
     inkscape:groupmode="layer"
     id="layer1"
     transform="translate(-93.443268,-71.216679)">
    <path
       style="fill:#a0c0d2;fill-opacity:1;stroke-width:0.228503"
       d="m 150.66544,187.84974 c 0,-0.12567 -0.40611,-0.2285 -0.90246,-0.2285 -0.49635,0 -2.47576,-0.31233 -4.39869,-0.69407 -6.20369,-1.23156 -12.60639,-3.76189 -17.7484,-7.01412 l -1.22746,-0.77636 -9.99235,3.32826 c -5.4958,1.83055 -10.24679,3.32826 -10.55776,3.32826 -0.70525,0 -1.55908,-0.87837 -1.55908,-1.60388 0,-0.30039 1.49664,-5.03845 3.32586,-10.52901 l 3.32586,-9.98284 -0.88396,-1.4527 c -2.75348,-4.52506 -4.92953,-9.50563 -6.12772,-14.0252 -0.58357,-2.20123 -1.46807,-6.98472 -1.46807,-7.93949 0,-0.52851 -0.0913,-0.82364 -0.2285,-0.73883 -0.15006,0.0927 -0.22851,-1.86373 -0.22851,-5.69909 0,-3.21218 0.0807,-5.84032 0.17942,-5.84032 0.0987,0 0.30924,-0.96734 0.46791,-2.14964 1.17308,-8.74083 5.31633,-18.28624 11.06815,-25.49929 2.08189,-2.610783 5.96256,-6.516421 8.51291,-8.567682 5.93267,-4.771663 13.11927,-8.406467 20.13959,-10.186102 2.92383,-0.741185 6.24201,-1.352719 7.34561,-1.353784 0.44574,-4.3e-4 0.69815,-0.09453 0.6149,-0.229234 -0.0927,-0.150059 1.86373,-0.228503 5.69909,-0.228503 3.74121,0 5.84033,0.08213 5.84033,0.228503 0,0.125677 0.33419,0.228832 0.74263,0.229234 0.40845,4.02e-4 1.65138,0.159685 2.76205,0.353964 19.02816,3.328394 35.00272,16.648221 41.64065,34.720584 1.32952,3.61975 2.83761,10.08182 2.83966,12.16781 4.6e-4,0.40845 0.10356,0.74264 0.22923,0.74264 0.14624,0 0.2285,2.05653 0.2285,5.71258 0,3.65606 -0.0822,5.71259 -0.2285,5.71259 -0.12567,0 -0.2285,0.34191 -0.2285,0.75979 0,0.4179 -0.2042,1.88318 -0.45378,3.25618 -3.41048,18.76226 -16.60443,34.43356 -34.6215,41.12219 -2.90523,1.07854 -7.58444,2.2636 -10.45403,2.6476 -1.22535,0.16397 -2.22791,0.37887 -2.22791,0.47754 0,0.0987 -2.57066,0.17942 -5.71258,0.17942 -3.65606,0 -5.71259,-0.0822 -5.71259,-0.2285 z m 10.74863,-3.53231 c 3.75493,-0.39855 5.90312,-0.82922 9.35485,-1.87549 16.25756,-4.92789 28.99709,-17.666 33.90159,-33.89783 1.04567,-3.4607 1.47563,-5.60802 1.87351,-9.35662 1.00095,-9.43049 -0.56103,-18.48366 -4.67337,-27.08664 -7.77799,-16.27149 -23.42896,-27.06553 -41.60625,-28.694674 -12.22928,-1.096053 -24.77285,2.607258 -35.04086,10.345315 -2.59259,1.953796 -7.50713,6.934629 -9.53757,9.666229 -5.22492,7.0292 -8.47716,14.8213 -9.72793,23.30736 -0.54503,3.69784 -0.5429,10.65363 0.004,14.28146 1.09219,7.23994 3.44436,13.70108 7.1917,19.75472 0.77428,1.25081 1.40778,2.42934 1.40778,2.61895 0,0.18961 -1.29605,4.23684 -2.8801,8.99385 -1.58407,4.75701 -2.82442,8.70481 -2.75634,8.77289 0.0681,0.0681 4.01192,-1.17226 8.76411,-2.75631 4.75219,-1.58404 8.79943,-2.88008 8.99388,-2.88008 0.19445,0 1.36272,0.62158 2.59615,1.3813 9.83373,6.05696 20.91145,8.61679 32.13448,7.42557 z m -5.84374,-3.31384 c -1.02535,-0.41092 -1.03202,-0.46743 -1.08453,-9.18101 l -0.0501,-8.30846 -8.96876,-0.0598 c -4.93282,-0.0329 -8.96875,-0.0173 -8.96875,0.0346 0,0.0519 0.46823,1.26132 1.04052,2.68757 1.14049,2.84229 2.93271,6.34901 4.409,8.62681 1.48787,2.29567 1.16007,3.79746 -0.79357,3.63576 -0.77893,-0.0645 -0.97528,-0.21992 -1.82302,-1.44328 -2.01045,-2.90126 -3.95689,-6.7947 -5.59756,-11.19666 l -0.85166,-2.28504 -6.74682,-0.0605 -6.74681,-0.0605 -0.47093,-0.5987 c -0.76764,-0.9759 -0.58851,-1.94589 0.45942,-2.4878 0.5179,-0.26781 1.80768,-0.3343 6.48466,-0.3343 3.99026,0 5.83818,-0.0773 5.83818,-0.24422 0,-0.13432 -0.25108,-1.2397 -0.55797,-2.45641 -1.31465,-5.21216 -2.25751,-11.91988 -2.5914,-18.43594 l -0.16393,-3.19904 -9.27839,-0.0597 c -8.95122,-0.0575 -9.29299,-0.0757 -9.69235,-0.51707 -0.53079,-0.58653 -0.53079,-1.68756 0,-2.27407 0.39936,-0.44129 0.74113,-0.45953 9.69235,-0.51708 l 9.27839,-0.0597 0.15434,-2.97055 c 0.34693,-6.677 1.24547,-13.25084 2.48903,-18.20978 0.36847,-1.46935 0.66993,-2.78039 0.66993,-2.91342 0,-0.16367 -1.83595,-0.24187 -5.67848,-0.24187 -3.55662,0 -5.94919,-0.0944 -6.40292,-0.25254 -1.246,-0.43435 -1.57647,-1.80117 -0.64668,-2.67465 0.51001,-0.47913 0.71751,-0.49505 7.21774,-0.55396 l 6.69265,-0.0606 0.84914,-2.28503 c 1.54723,-4.16363 3.42739,-7.938596 5.4628,-10.968167 0.98618,-1.467852 1.14702,-1.605472 1.95394,-1.67178 0.59187,-0.04863 1.02137,0.05631 1.31389,0.321044 0.73632,0.666354 0.54213,1.656327 -0.715,3.64512 -1.59641,2.525517 -3.24249,5.785563 -4.32896,8.573453 -0.50575,1.29774 -0.91953,2.39225 -0.91953,2.43222 0,0.04 4.03593,0.0458 8.96875,0.0129 l 8.96876,-0.0598 0.0599,-8.364606 c 0.0563,-7.865463 0.0857,-8.387893 0.49117,-8.754886 0.57374,-0.519228 1.74038,-0.529442 2.30312,-0.02017 0.43445,0.393174 0.45606,0.762445 0.51345,8.77505 l 0.0599,8.364612 8.96875,0.0598 c 4.93282,0.0329 8.96876,0.0173 8.96876,-0.0346 0,-0.0519 -0.46823,-1.26132 -1.04053,-2.68756 -1.14049,-2.842302 -2.9327,-6.349017 -4.40899,-8.626825 -1.49002,-2.298978 -1.16046,-3.796851 0.79991,-3.635759 0.82536,0.06782 0.95842,0.191408 2.16886,2.014535 1.97314,2.971871 4.60203,8.51482 5.98766,12.624819 0.12429,0.3687 0.65794,0.39988 6.843,0.39988 h 6.70819 l 0.49684,0.52887 c 0.61311,0.65263 0.63676,1.53262 0.0604,2.24499 l -0.43652,0.53945 -6.19008,0.0676 c -3.98115,0.0435 -6.19009,0.15018 -6.19009,0.299 0,0.12725 0.30003,1.43357 0.66673,2.90293 1.28719,5.15762 2.13054,11.32254 2.49107,18.20977 l 0.1555,2.97055 9.27839,0.0597 c 8.95123,0.0575 9.29299,0.0758 9.69236,0.51709 0.53079,0.58651 0.53079,1.68754 0,2.27406 -0.39937,0.44129 -0.74113,0.45952 -9.69236,0.51708 l -9.27839,0.0597 -0.16798,3.3133 c -0.32299,6.37039 -1.21138,12.77017 -2.48024,17.86703 -0.3658,1.46935 -0.66508,2.77566 -0.66508,2.90292 0,0.14881 2.20894,0.25552 6.19009,0.299 l 6.19008,0.0676 0.43652,0.53946 c 0.56559,0.69896 0.55326,1.42127 -0.037,2.17177 l -0.47359,0.60207 h -6.70429 -6.70429 l -0.61939,1.65665 c -1.70333,4.55571 -4.00127,9.20121 -5.90593,11.93931 -0.85041,1.22254 -1.04823,1.37885 -1.82665,1.44327 -0.586,0.0485 -1.01581,-0.057 -1.30754,-0.32104 -0.73904,-0.66881 -0.5428,-1.6566 0.72414,-3.64512 2.28355,-3.5841 5.51009,-10.75502 4.938,-10.97455 -0.14924,-0.0573 -4.17843,-0.0771 -8.95375,-0.0442 l -8.68241,0.0599 -0.0599,8.3646 c -0.0545,7.61265 -0.0956,8.39594 -0.45701,8.71324 -0.54379,0.4774 -1.22053,0.63425 -1.77605,0.41162 z m -1.13458,-33.2562 v -12.11068 l -11.28938,-0.0593 -11.28937,-0.0593 0.15216,3.48685 c 0.28354,6.49714 1.50347,14.49349 3.01615,19.77022 l 0.34462,1.20214 9.53291,-0.0596 9.53291,-0.0596 z m 22.70789,11.4823 c 1.46537,-4.6161 2.85487,-13.54811 3.14624,-20.22473 l 0.15216,-3.48685 -11.28937,0.0593 -11.28937,0.0593 -0.0594,11.88218 c -0.0326,6.53519 -0.0102,12.01071 0.0499,12.1678 0.0851,0.22215 2.21451,0.28563 9.58171,0.28563 h 9.47235 z m -22.70789,-39.13122 v -12.11068 l -9.52148,-0.0596 -9.52148,-0.0596 -0.23656,0.74512 c -1.46605,4.61762 -2.85563,13.54885 -3.14707,20.22723 l -0.15216,3.48684 11.28937,-0.0593 11.28938,-0.0593 z m 25.85404,8.74026 c -0.28339,-6.49355 -1.50357,-14.4919 -3.01533,-19.76555 l -0.34389,-1.19964 h -9.59076 -9.59076 v 12.0726 c 0,6.63993 0.0686,12.14115 0.15234,12.22493 0.0838,0.0838 5.18966,0.15234 11.34639,0.15234 h 11.19407 z"
       id="path3138" />
  </g>
</svg>
