<?xml version="1.0" encoding="UTF-8" standalone="no"?>
<!-- Created with Inkscape (http://www.inkscape.org/) -->

<svg
   width="127.06244mm"
   height="76.17733mm"
   viewBox="0 0 127.06244 76.17733"
   version="1.1"
   id="svg27588"
   inkscape:version="1.3.2 (1:1.3.2+202311252150+091e20ef0f)"
   sodipodi:docname="language-button.svg"
   xmlns:inkscape="http://www.inkscape.org/namespaces/inkscape"
   xmlns:sodipodi="http://sodipodi.sourceforge.net/DTD/sodipodi-0.dtd"
   xmlns="http://www.w3.org/2000/svg"
   xmlns:svg="http://www.w3.org/2000/svg">
  <sodipodi:namedview
     id="namedview27590"
     pagecolor="#ffffff"
     bordercolor="#666666"
     borderopacity="1.0"
     inkscape:pageshadow="2"
     inkscape:pageopacity="0.0"
     inkscape:pagecheckerboard="0"
     inkscape:document-units="mm"
     showgrid="false"
     inkscape:zoom="0.74297138"
     inkscape:cx="260.44072"
     inkscape:cy="132.57577"
     inkscape:window-width="1503"
     inkscape:window-height="869"
     inkscape:window-x="0"
     inkscape:window-y="0"
     inkscape:window-maximized="1"
     inkscape:current-layer="layer1"
     inkscape:showpageshadow="2"
     inkscape:deskcolor="#d1d1d1" />
  <defs
     id="defs27585" />
  <g
     inkscape:label="Layer 1"
     inkscape:groupmode="layer"
     id="layer1"
     transform="translate(-36.04162,-113.58036)">
    <path
       style="fill:#808080;stroke-width:0.204735"
       d="m 58.6256,180.93199 c -3.84914,-0.63107 -7.056164,-3.76996 -7.894965,-7.72725 -0.424854,-2.00437 -0.424854,-41.04019 0,-43.04456 0.858958,-4.05236 4.050316,-7.10429 8.099701,-7.7458 1.83972,-0.29147 79.645284,-0.29147 81.485014,0 4.04937,0.64151 7.24073,3.69344 8.0997,7.7458 0.42485,2.00437 0.42485,41.04019 0,43.04456 -0.85684,4.04231 -4.06038,7.1059 -8.0997,7.74581 -1.68727,0.26732 -80.054783,0.24949 -81.68975,-0.0186 z m 39.718822,-29.24954 v -27.02516 l -19.398753,0.002 c -20.946831,0.002 -20.541771,-0.0172 -22.435535,1.09272 -1.308452,0.76681 -2.160443,1.71625 -2.875393,3.20431 l -0.639386,1.33079 v 21.39494 21.39492 l 0.637366,1.3308 c 1.002456,2.09307 2.793594,3.5711 4.940861,4.07718 0.422727,0.0996 9.5441,0.1904 20.269717,0.2017 l 19.501123,0.0206 z M 63.390221,166.1756 c -0.250882,-0.12108 -0.507456,-0.3818 -0.570161,-0.57936 -0.144262,-0.45453 -0.318979,-0.004 5.961136,-15.35505 5.621741,-13.7413 5.579739,-13.65868 6.687488,-13.15396 0.373762,0.17029 1.495657,2.73273 5.759114,13.15396 6.277799,15.3449 6.105327,14.90073 5.961705,15.35324 -0.142663,0.4495 -1.057807,0.8793 -1.543777,0.72507 -0.344831,-0.10945 -1.052682,-1.56424 -2.884932,-5.9292 l -0.649475,-1.54724 -7.179867,0.0538 -7.179868,0.0538 -1.481239,3.56418 c -0.814681,1.96031 -1.601223,3.64029 -1.74787,3.73331 -0.33956,0.21538 -0.565839,0.20089 -1.132254,-0.0726 z m 17.696792,-9.83538 c -0.05687,-0.14076 -1.414743,-3.50356 -3.017519,-7.47288 -1.602775,-3.96933 -2.982026,-7.21695 -3.064997,-7.21695 -0.08297,0 -1.462222,3.24762 -3.064998,7.21695 -1.602777,3.96932 -2.96066,7.33212 -3.017518,7.47288 -0.08135,0.20137 1.215153,0.25592 6.082516,0.25592 4.867361,0 6.163859,-0.0546 6.082516,-0.25592 z m 60.866217,21.62769 c 1.68676,-0.80786 2.75188,-1.87297 3.55973,-3.55972 l 0.63736,-1.3308 v -21.39494 -21.39492 l -0.63938,-1.33079 c -0.71495,-1.48806 -1.56695,-2.4375 -2.8754,-3.20431 -1.89376,-1.10981 -1.4887,-1.09009 -22.43552,-1.09272 l -19.39876,-0.002 v 27.03007 27.03008 l 19.9106,-0.0562 19.91059,-0.056 z m -27.02517,-11.80813 c -0.63938,-0.32184 -0.78993,-1.25017 -0.29198,-1.80039 0.19411,-0.21449 1.69154,-1.08701 3.32761,-1.93893 1.63608,-0.85192 3.24237,-1.73954 3.56954,-1.97252 l 0.59486,-0.42357 -3.29291,-3.31485 c -2.04079,-2.05438 -3.29292,-3.46981 -3.29292,-3.72234 0,-0.68098 0.50172,-1.16823 1.2029,-1.16823 0.56003,0 1.08169,0.42972 3.89384,3.20753 1.78594,1.76415 3.34137,3.20755 3.45649,3.20755 0.11514,0 0.69525,-0.52977 1.28912,-1.17723 2.80267,-3.05563 4.68885,-6.29113 6.20644,-10.64629 l 0.73126,-2.09855 h -10.34432 -10.34433 l -0.50253,-0.50254 c -0.27639,-0.27639 -0.50253,-0.60303 -0.50253,-0.72588 0,-0.12284 0.22614,-0.44949 0.50253,-0.72588 l 0.50253,-0.50253 h 5.63955 5.63956 v -1.9543 c 0,-1.80196 0.0391,-1.99348 0.50253,-2.45684 0.62792,-0.62793 0.82384,-0.62793 1.45177,0 0.46337,0.46336 0.50253,0.65488 0.50253,2.45684 v 1.9543 h 5.63956 5.63955 l 0.50253,0.50253 c 0.62793,0.62793 0.62793,0.82383 0,1.45176 -0.37766,0.37766 -0.7212,0.50254 -1.3825,0.50254 h -0.87995 l -0.89266,2.64926 c -1.50829,4.4764 -3.38813,7.79859 -6.34534,11.21397 l -1.45587,1.68144 0.86696,0.58878 c 0.4768,0.32382 2.01857,1.2658 3.42612,2.09328 2.69788,1.58604 3.48052,2.16216 3.48052,2.56207 0,0.39331 -0.82043,1.32272 -1.16761,1.32272 -0.32867,0 -6.24331,-3.29883 -7.78798,-4.34365 l -0.86852,-0.58748 -1.17885,0.79556 c -1.41555,0.95528 -7.06128,4.13681 -7.33334,4.13255 -0.10578,-0.002 -0.42265,-0.11897 -0.70416,-0.26068 z"
       id="path27679" />
  </g>
</svg>
