<?xml version="1.0" encoding="UTF-8"?>
<!-- Created with Inkscape (http://www.inkscape.org/) -->
<svg id="svg27588" width="127.06mm" height="76.177mm" version="1.1" viewBox="0 0 127.06 76.177" xmlns="http://www.w3.org/2000/svg">
 <g id="layer1" transform="translate(-36.042 -113.58)">
  <rect id="rect1" x="48.703" y="121.98" width="100.98" height="59.462" ry="8.0571" fill="#808080" stroke-width=".69506" style="-inkscape-stroke:none"/>
  <path id="path27679" d="m56.868 182.19c-4.0144-0.65816-7.3591-3.9318-8.2339-8.059-0.44309-2.0904-0.44309-42.802 0-44.892 0.89583-4.2263 4.2242-7.4092 8.4474-8.0783 1.9187-0.30399 83.064-0.30399 84.983 0 4.2232 0.66904 7.5515 3.852 8.4474 8.0783 0.44309 2.0904 0.44309 42.802 0 44.892-0.89362 4.2158-4.2347 7.4109-8.4474 8.0783-1.7597 0.27879-83.491 0.2602-85.196-0.0194zm41.424-30.505v-28.185l-20.231 2e-3c-21.846 2e-3 -21.424-0.0179-23.399 1.1396-1.3646 0.79972-2.2532 1.7899-2.9988 3.3418l-0.66683 1.3879v44.627l0.66472 1.3879c1.0455 2.1829 2.9135 3.7244 5.153 4.2522 0.44087 0.10388 9.9538 0.19857 21.14 0.21036l20.338 0.0215zm-36.455 15.115c-0.26165-0.12627-0.52924-0.39818-0.59464-0.60423-0.15046-0.47404-0.33267-4e-3 6.217-16.014 5.8631-14.331 5.8193-14.245 6.9746-13.719 0.38981 0.1776 1.5599 2.85 6.0063 13.719 6.5473 16.004 6.3674 15.54 6.2176 16.012-0.14879 0.46879-1.1032 0.91704-1.61 0.75619-0.35963-0.11415-1.0979-1.6314-3.0088-6.1837l-0.67735-1.6137-14.976 0.1122-1.5448 3.7172c-0.84965 2.0445-1.67 3.7966-1.8229 3.8936-0.35414 0.22462-0.59013 0.20951-1.1809-0.0757zm18.456-10.258c-0.05931-0.1468-1.4755-3.654-3.147-7.7936-1.6716-4.1397-3.11-7.5268-3.1966-7.5268-0.08653 0-1.525 3.387-3.1966 7.5268-1.6716 4.1397-3.0877 7.6468-3.147 7.7936-0.08484 0.21002 1.2673 0.26691 6.3436 0.26691 5.0763 0 6.4284-0.0569 6.3436-0.26691zm63.479 22.556c1.7592-0.84254 2.87-1.9534 3.7125-3.7125l0.66472-1.3879v-44.627l-0.66683-1.3879c-0.74564-1.5519-1.6342-2.5421-2.9988-3.3419-1.975-1.1574-1.5526-1.1369-23.399-1.1396l-20.231-2e-3v56.381l20.765-0.0586 20.765-0.0584zm-28.185-12.315c-0.66682-0.33566-0.82384-1.3038-0.30451-1.8777 0.20244-0.22369 1.7642-1.1337 3.4704-2.0222 1.7063-0.88849 3.3816-1.8142 3.7228-2.0572l0.6204-0.44175-3.4343-3.4571c-2.1284-2.1426-3.4343-3.6188-3.4343-3.8821 0-0.71021 0.52325-1.2184 1.2545-1.2184 0.58407 0 1.1281 0.44816 4.061 3.3452 1.8626 1.8399 3.4848 3.3452 3.6049 3.3452 0.12008 0 0.72509-0.55251 1.3445-1.2278 2.923-3.1868 4.8901-6.5612 6.4728-11.103l0.76265-2.1886h-21.577l-0.5241-0.52411c-0.28826-0.28825-0.5241-0.62891-0.5241-0.75704 0-0.12811 0.23584-0.46878 0.5241-0.75704l0.5241-0.5241h11.763v-2.0382c0-1.8793 0.0408-2.079 0.5241-2.5623 0.65488-0.65488 0.85921-0.65488 1.5141 0 0.48326 0.48325 0.5241 0.68299 0.5241 2.5623v2.0382h11.763l0.52411 0.5241c0.65488 0.65489 0.65488 0.8592 0 1.5141-0.39387 0.39387-0.75216 0.52411-1.4418 0.52411h-0.91772l-0.93098 2.763c-1.573 4.6686-3.5336 8.1334-6.6177 11.695l-1.5184 1.7536 0.90417 0.61405c0.49727 0.33772 2.1052 1.3201 3.5732 2.1831 2.8137 1.6541 3.6299 2.255 3.6299 2.672 0 0.41019-0.85565 1.3795-1.2177 1.3795-0.34278 0-6.5113-3.4404-8.1223-4.5301l-0.9058-0.6127-1.2294 0.82971c-1.4763 0.99629-7.3644 4.3144-7.6481 4.3099-0.11032-2e-3 -0.44079-0.12407-0.73439-0.27186z" fill="#f9f9f9" stroke-width=".21352"/>
 </g>
</svg>
