<?xml version="1.0" encoding="UTF-8"?>
<!-- Created with Inkscape (http://www.inkscape.org/) -->
<svg id="svg27588" width="127.06mm" height="76.177mm" version="1.1" viewBox="0 0 127.06 76.177" xmlns="http://www.w3.org/2000/svg">
 <g id="layer1" transform="translate(-36.042 -113.58)">
  <path id="path27679" d="m58.626 180.93c-3.8491-0.63107-7.0562-3.77-7.895-7.7272-0.42485-2.0044-0.42485-41.04 0-43.045 0.85896-4.0524 4.0503-7.1043 8.0997-7.7458 1.8397-0.29147 79.645-0.29147 81.485 0 4.0494 0.64151 7.2407 3.6934 8.0997 7.7458 0.42485 2.0044 0.42485 41.04 0 43.045-0.85684 4.0423-4.0604 7.1059-8.0997 7.7458-1.6873 0.26732-80.055 0.24949-81.69-0.0186zm39.719-29.25v-27.025l-19.399 2e-3c-20.947 2e-3 -20.542-0.0172-22.436 1.0927-1.3085 0.76681-2.1604 1.7162-2.8754 3.2043l-0.63939 1.3308v42.79l0.63737 1.3308c1.0025 2.0931 2.7936 3.5711 4.9409 4.0772 0.42273 0.0996 9.5441 0.1904 20.27 0.2017l19.501 0.0206zm-34.954 14.493c-0.25088-0.12108-0.50746-0.3818-0.57016-0.57936-0.14426-0.45453-0.31898-4e-3 5.9611-15.355 5.6217-13.741 5.5797-13.659 6.6875-13.154 0.37376 0.17029 1.4957 2.7327 5.7591 13.154 6.2778 15.345 6.1053 14.901 5.9617 15.353-0.14266 0.4495-1.0578 0.8793-1.5438 0.72507-0.34483-0.10945-1.0527-1.5642-2.8849-5.9292l-0.64948-1.5472-14.36 0.1076-1.4812 3.5642c-0.81468 1.9603-1.6012 3.6403-1.7479 3.7333-0.33956 0.21538-0.56584 0.20089-1.1323-0.0726zm17.697-9.8354c-0.05687-0.14076-1.4147-3.5036-3.0175-7.4729-1.6028-3.9693-2.982-7.217-3.065-7.217-0.08297 0-1.4622 3.2476-3.065 7.217-1.6028 3.9693-2.9607 7.3321-3.0175 7.4729-0.08135 0.20137 1.2152 0.25592 6.0825 0.25592 4.8674 0 6.1639-0.0546 6.0825-0.25592zm60.866 21.628c1.6868-0.80786 2.7519-1.873 3.5597-3.5597l0.63736-1.3308v-42.79l-0.63938-1.3308c-0.71495-1.4881-1.567-2.4375-2.8754-3.2043-1.8938-1.1098-1.4887-1.0901-22.436-1.0927l-19.399-2e-3v54.06l19.911-0.0562 19.911-0.056zm-27.025-11.808c-0.63938-0.32184-0.78993-1.2502-0.29198-1.8004 0.19411-0.21449 1.6915-1.087 3.3276-1.9389 1.6361-0.85192 3.2424-1.7395 3.5695-1.9725l0.59486-0.42357-3.2929-3.3148c-2.0408-2.0544-3.2929-3.4698-3.2929-3.7223 0-0.68098 0.50172-1.1682 1.2029-1.1682 0.56003 0 1.0817 0.42972 3.8938 3.2075 1.7859 1.7642 3.3414 3.2076 3.4565 3.2076 0.11514 0 0.69525-0.52977 1.2891-1.1772 2.8027-3.0556 4.6888-6.2911 6.2064-10.646l0.73126-2.0986h-20.689l-0.50253-0.50254c-0.27639-0.27639-0.50253-0.60303-0.50253-0.72588 0-0.12284 0.22614-0.44949 0.50253-0.72588l0.50253-0.50253h11.279v-1.9543c0-1.802 0.0391-1.9935 0.50253-2.4568 0.62792-0.62793 0.82384-0.62793 1.4518 0 0.46337 0.46336 0.50253 0.65488 0.50253 2.4568v1.9543h11.279l0.50253 0.50253c0.62793 0.62793 0.62793 0.82383 0 1.4518-0.37766 0.37766-0.7212 0.50254-1.3825 0.50254h-0.87995l-0.89266 2.6493c-1.5083 4.4764-3.3881 7.7986-6.3453 11.214l-1.4559 1.6814 0.86696 0.58878c0.4768 0.32382 2.0186 1.2658 3.4261 2.0933 2.6979 1.586 3.4805 2.1622 3.4805 2.5621 0 0.39331-0.82043 1.3227-1.1676 1.3227-0.32867 0-6.2433-3.2988-7.788-4.3436l-0.86852-0.58748-1.1788 0.79556c-1.4156 0.95528-7.0613 4.1368-7.3333 4.1326-0.10578-2e-3 -0.42265-0.11897-0.70416-0.26068z" fill="#fff" stroke-width=".20474"/>
 </g>
</svg>
