<?xml version="1.0" encoding="UTF-8" standalone="no"?>
<!-- Created with Inkscape (http://www.inkscape.org/) -->

<svg
   width="86.722771mm"
   height="86.865784mm"
   viewBox="0 0 86.722771 86.865784"
   version="1.1"
   id="svg5"
   inkscape:version="1.3.2 (1:1.3.2+202311252150+091e20ef0f)"
   sodipodi:docname="login-icon-over.svg"
   xml:space="preserve"
   xmlns:inkscape="http://www.inkscape.org/namespaces/inkscape"
   xmlns:sodipodi="http://sodipodi.sourceforge.net/DTD/sodipodi-0.dtd"
   xmlns="http://www.w3.org/2000/svg"
   xmlns:svg="http://www.w3.org/2000/svg"><sodipodi:namedview
     id="namedview7"
     pagecolor="#ffffff"
     bordercolor="#666666"
     borderopacity="1.0"
     inkscape:pageshadow="2"
     inkscape:pageopacity="0.0"
     inkscape:pagecheckerboard="0"
     inkscape:document-units="mm"
     showgrid="false"
     inkscape:zoom="1.419345"
     inkscape:cx="157.467"
     inkscape:cy="229.33114"
     inkscape:window-width="1503"
     inkscape:window-height="933"
     inkscape:window-x="0"
     inkscape:window-y="0"
     inkscape:window-maximized="1"
     inkscape:current-layer="layer1"
     inkscape:showpageshadow="2"
     inkscape:deskcolor="#d1d1d1"
     showguides="false" /><defs
     id="defs2"><inkscape:path-effect
       effect="fill_between_many"
       method="originald"
       linkedpaths="#path120039,0,1"
       id="path-effect120190" /><inkscape:path-effect
       effect="fill_between_many"
       method="originald"
       linkedpaths="#path120039,0,1"
       id="path-effect120194" /><inkscape:path-effect
       effect="fill_between_many"
       method="originald"
       linkedpaths="#path120232,0,1"
       id="path-effect120252" /><inkscape:path-effect
       effect="fill_between_many"
       method="originald"
       linkedpaths="#path120039,0,1"
       id="path-effect120190-6"
       is_visible="true"
       lpeversion="0"
       join="true"
       close="true"
       autoreverse="true" /><inkscape:path-effect
       effect="fill_between_many"
       method="originald"
       linkedpaths="#path120039,0,1"
       id="path-effect120194-6"
       is_visible="true"
       lpeversion="0"
       join="true"
       close="true"
       autoreverse="true" /><inkscape:path-effect
       effect="fill_between_many"
       method="originald"
       linkedpaths="#path120232,0,1"
       id="path-effect120252-4"
       is_visible="true"
       lpeversion="0"
       join="true"
       close="true"
       autoreverse="true" /></defs><g
     inkscape:label="Layer 1"
     inkscape:groupmode="layer"
     id="layer1"
     transform="translate(-59.996787,-65.111984)"><path
       id="path120196"
       style="fill:#808080;fill-opacity:1;stroke:none;stroke-width:0.705713;stroke-opacity:1"
       class="UnoptimicedTransforms"
       d="m 103.89355,83.602633 c -2.98518,-0.005 -5.975117,0.908911 -8.44043,2.742655 -2.497222,1.857476 -4.487865,4.706841 -5.243104,7.504052 -1.357672,5.028405 -0.05074,10.13097 3.527653,13.77275 2.189964,2.22871 5.27291,3.79544 8.187421,4.1602 7.28434,0.91161 13.85051,-3.55631 15.71202,-10.69165 0.26972,-1.03394 0.3108,-1.499107 0.30276,-3.394663 -0.008,-1.922761 -0.0521,-2.357167 -0.35359,-3.488195 -0.82955,-3.111406 -2.70831,-5.899508 -5.27878,-7.833841 -2.44786,-1.842058 -5.42878,-2.766255 -8.41395,-2.771308 z m -9.346311,14.474072 c 6.561801,4.347295 12.569181,4.288565 18.954521,-0.233743 -3.36165,12.348158 -15.095283,11.836688 -18.954521,0.233743 z"
       sodipodi:nodetypes="csccccccscccc" /><path
       inkscape:original-d="M 0,0"
       inkscape:path-effect="#path-effect120252-4"
       d="m -87.429832,84.053824 c -10.130629,0 -10.444146,0.01956 -14.125148,0.881671 -9.1333,2.13913 -16.75203,9.165178 -19.6006,18.076195 -1.25138,3.9148 -2.31702,10.28716 -1.75599,11.97629 7.63004,13.53867 28.285844,13.54547 36.142639,13.67049 9.376065,-0.70874 29.487714,-5.33737 34.253026,-15.51536 0.499268,-1.83841 -0.296823,-7.18849 -1.620092,-10.88604 -3.321075,-9.27996 -11.176051,-15.827933 -21.315833,-17.76967 -2.179133,-0.417267 -2.625846,-0.433544 -11.978002,-0.433544 z"
       id="path120254"
       class="UnoptimicedTransforms"
       transform="matrix(0.67454994,0,0,0.67454994,162.72752,58.305596)"
       style="fill:#808080;stroke:none;stroke-opacity:1;fill-opacity:1;stroke-width:1.0006672;stroke-dasharray:none" /><path
       d="m -18.615232,128.64425 c -9.68446,0 -9.98417,0.0187 -13.50305,0.84284 -8.731059,2.04492 -16.014249,8.76153 -18.737359,17.28009 -1.19627,3.74239 -2.214976,9.8341 -1.678656,11.44884 7.293996,12.9424 27.040089,12.9489 34.550859,13.06842 8.9631283,-0.67753 28.189028,-5.10231 32.744468,-14.83204 0.47728,-1.75745 -0.28375,-6.8719 -1.54874,-10.4066 -3.17481,-8.87126 -10.6838405,-15.13085 -20.3770505,-16.98707 -2.08316,-0.39889 -2.5102,-0.41445 -11.4504715,-0.41445 z m -1.82004,2.27842 c 0.93266,0.004 1.95993,0.0113 3.098,0.0222 9.0628715,0.0866 9.8288415,0.16243 13.2689615,1.30741 3.46997999,1.15493 6.14027,2.79027 8.93589,5.47357 4.625041,4.43923 6.9249705,9.19072 7.5607805,15.62023 0.19733,1.99541 0.1876,2.2223 -0.11834,2.86546 -0.218,0.45828 -0.53609,0.78377 -0.92604,0.94671 -8.2724872,17.2475 -49.286584,20.50183 -61.159818,1.449 -0.952624,-5.28406 1.351227,-12.69034 3.252757,-15.7111 3.58279,-5.69163 8.777238,-9.57418 14.868339,-11.1125 2.79902,-0.70687 4.69083,-0.88563 11.21947,-0.86093 z"
       style="fill:#808080;stroke:none;stroke-width:2.3922;stroke-dasharray:none;stroke-opacity:1;fill-opacity:1"
       id="path120232"
       class="UnoptimicedTransforms"
       transform="matrix(0.70562686,0,0,0.70562686,116.88714,24.22926)"
       sodipodi:nodetypes="ccccccscccccssssccsccc" /><circle
       style="fill:none;fill-opacity:0.766426;stroke:#808080;stroke-width:3.383;stroke-dasharray:none;stroke-opacity:1"
       id="path120308"
       cx="103.56588"
       cy="108.55082"
       r="36.360832" /></g></svg>
