<?xml version="1.0" encoding="UTF-8" standalone="no"?>
<!-- Created with Inkscape (http://www.inkscape.org/) -->

<svg
   width="86.722771mm"
   height="86.865784mm"
   viewBox="0 0 86.722771 86.865784"
   version="1.1"
   id="svg5"
   inkscape:version="1.3.2 (1:1.3.2+202311252150+091e20ef0f)"
   sodipodi:docname="login-icon.svg"
   xml:space="preserve"
   xmlns:inkscape="http://www.inkscape.org/namespaces/inkscape"
   xmlns:sodipodi="http://sodipodi.sourceforge.net/DTD/sodipodi-0.dtd"
   xmlns="http://www.w3.org/2000/svg"
   xmlns:svg="http://www.w3.org/2000/svg"><sodipodi:namedview
     id="namedview7"
     pagecolor="#ffffff"
     bordercolor="#666666"
     borderopacity="1.0"
     inkscape:pageshadow="2"
     inkscape:pageopacity="0.0"
     inkscape:pagecheckerboard="0"
     inkscape:document-units="mm"
     showgrid="false"
     inkscape:zoom="0.50181423"
     inkscape:cx="309.87563"
     inkscape:cy="341.75994"
     inkscape:window-width="1503"
     inkscape:window-height="869"
     inkscape:window-x="0"
     inkscape:window-y="0"
     inkscape:window-maximized="1"
     inkscape:current-layer="layer1"
     inkscape:showpageshadow="2"
     inkscape:deskcolor="#d1d1d1"
     showguides="false" /><defs
     id="defs2"><inkscape:path-effect
       effect="fill_between_many"
       method="originald"
       linkedpaths="#path120039,0,1"
       id="path-effect120190" /><inkscape:path-effect
       effect="fill_between_many"
       method="originald"
       linkedpaths="#path120039,0,1"
       id="path-effect120194" /><inkscape:path-effect
       effect="fill_between_many"
       method="originald"
       linkedpaths="#path120232,0,1"
       id="path-effect120252" /><inkscape:path-effect
       effect="fill_between_many"
       method="originald"
       linkedpaths="#path120039,0,1"
       id="path-effect120190-6"
       is_visible="true"
       lpeversion="0"
       join="true"
       close="true"
       autoreverse="true" /><inkscape:path-effect
       effect="fill_between_many"
       method="originald"
       linkedpaths="#path120039,0,1"
       id="path-effect120194-6"
       is_visible="true"
       lpeversion="0"
       join="true"
       close="true"
       autoreverse="true" /><inkscape:path-effect
       effect="fill_between_many"
       method="originald"
       linkedpaths="#path120232,0,1"
       id="path-effect120252-4"
       is_visible="true"
       lpeversion="0"
       join="true"
       close="true"
       autoreverse="true" /></defs><g
     inkscape:label="Layer 1"
     inkscape:groupmode="layer"
     id="layer1"
     transform="translate(-59.996787,-65.111984)"><path
       style="fill:#838383;fill-opacity:1;stroke-width:0.731651"
       d="m 100.9272,144.92115 c -7.615042,-0.67011 -14.393592,-3.44088 -20.132018,-8.2291 -5.808424,-4.84662 -9.995875,-11.57021 -11.765505,-18.89133 -0.701448,-2.90196 -0.994255,-5.42416 -0.98936,-8.52214 0.0037,-2.15534 0.0709,-3.103 0.366564,-5.14622 1.540982,-10.649334 7.956537,-20.134303 17.307469,-25.587934 4.54615,-2.651395 9.259029,-4.156379 14.80115,-4.726513 1.32688,-0.136499 4.92201,-0.135231 6.29898,0.0022 8.64705,0.863172 16.12811,4.367646 22.06764,10.337517 5.77412,5.803609 9.16493,12.79637 10.22482,21.0863 0.213,1.66597 0.21261,6.59622 -6.5e-4,8.19278 -0.29193,2.18552 -0.47123,3.13235 -0.9331,4.92739 -2.13033,8.27942 -7.34676,15.65274 -14.52162,20.526 -3.69067,2.50676 -8.03371,4.37243 -12.30841,5.28739 -2.84837,0.60967 -3.97562,0.72689 -7.24589,0.75348 -1.53974,0.0125 -2.96628,0.008 -3.17007,-0.01 z m 6.9577,-3.31763 c 1.48125,-0.20792 2.24334,-0.34897 3.40687,-0.63054 3.74688,-0.90675 7.49545,-2.56521 10.63202,-4.70386 0.80133,-0.54638 0.85405,-0.62892 1.43571,-2.24798 l 0.36993,-1.02972 -0.0789,-0.78175 c -0.43523,-4.31208 -1.72513,-7.15702 -4.50574,-9.93762 -2.01576,-2.01577 -3.82047,-3.10353 -6.52536,-3.93306 -1.72948,-0.5304 -2.00439,-0.55018 -8.28009,-0.59581 -4.759301,-0.0346 -5.683566,-0.0216 -6.693867,0.0945 -3.552385,0.40802 -6.4891,1.7882 -9.006587,4.23284 -1.904473,1.84938 -2.955124,3.46791 -3.751819,5.7797 -0.691988,2.00798 -1.048302,4.15522 -0.990868,5.97115 0.03124,0.98647 0.04968,1.08824 0.250759,1.3832 0.248249,0.36408 1.0542,0.95682 2.535515,1.86474 4.055871,2.48589 8.271937,3.95523 13.091988,4.56266 1.513839,0.19078 1.628959,0.19524 4.363989,0.16901 2.00817,-0.0192 2.75884,-0.0588 3.74646,-0.19745 z m -27.133332,-9.908 c 0.454743,-2.8644 1.068884,-4.99313 1.977609,-6.85476 2.210105,-4.52771 6.330215,-8.01074 11.09597,-9.38027 1.265435,-0.36363 2.410944,-0.60023 3.479118,-0.71856 1.238195,-0.13717 12.021635,-0.13873 13.133165,-0.002 4.08066,0.50232 8.03734,2.3841 10.87482,5.17201 3.06025,3.00678 4.82487,6.76787 5.39336,11.49529 0.0531,0.44154 0.10693,0.80281 0.11963,0.80281 0.0643,0 1.64647,-1.81158 2.33718,-2.67603 3.26874,-4.09099 5.53695,-9.09009 6.50054,-14.32708 0.39588,-2.15149 0.45658,-2.92269 0.46019,-5.84612 0.004,-2.91201 -0.0421,-3.50348 -0.44912,-5.80492 -2.40985,-13.628154 -13.54198,-24.404705 -27.25393,-26.383391 -3.12721,-0.451268 -6.34183,-0.451268 -9.469049,0 -12.001155,1.731813 -22.178026,10.214286 -26.072063,21.731198 -1.183643,3.500713 -1.697774,6.664973 -1.699091,10.457113 -0.0015,3.72142 0.489797,6.77346 1.660958,10.32264 1.184155,3.58853 3.027184,6.95285 5.486519,10.01524 0.790571,0.98441 2.219551,2.59369 2.30312,2.59369 0.01449,0 0.06892,-0.26863 0.121074,-0.59696 z m 21.657752,-19.48994 c -4.250538,-0.38148 -8.370048,-3.10408 -10.501047,-6.94017 -0.704434,-1.26807 -1.188157,-2.63757 -1.490827,-4.22078 -0.214461,-1.121816 -0.195855,-3.408233 0.03797,-4.667017 0.404771,-2.178952 1.24546,-4.041589 2.621535,-5.808314 2.604121,-3.343389 6.443855,-5.215281 10.684709,-5.208843 2.73241,0.0044 5.2265,0.768987 7.54421,2.313532 0.87113,0.580528 2.60251,2.252095 3.20923,3.098374 1.25278,1.747424 2.17799,3.874516 2.47504,5.690211 0.12067,0.737562 0.12007,4.025077 -7.3e-4,4.741907 -0.13629,0.80792 -0.76227,2.63257 -1.2103,3.52787 -1.97343,3.94357 -5.5835,6.62674 -9.87025,7.33604 -0.93285,0.15435 -2.58607,0.21917 -3.49943,0.13719 z m 3.50859,-3.28927 c 1.47975,-0.33184 2.82819,-0.94627 3.99404,-1.81992 2.12361,-1.59136 3.76139,-4.38495 4.03067,-6.87516 0.11315,-1.046361 0.0528,-2.857015 -0.12209,-3.664106 -0.506,-2.33486 -2.22284,-4.902311 -4.16536,-6.229109 -1.20897,-0.825763 -2.96369,-1.560524 -4.17598,-1.748616 -0.74881,-0.116179 -2.39715,-0.117379 -3.35806,-0.0022 -1.81985,0.217673 -3.971157,1.282957 -5.529076,2.737874 -1.263152,1.179649 -2.402003,3.07104 -2.859043,4.748269 -0.731498,2.684435 -0.345764,5.543108 1.075534,7.970788 0.501481,0.85658 0.96992,1.43796 1.80619,2.24171 1.596682,1.53458 3.544245,2.49608 5.671075,2.79981 0.81809,0.11683 2.78615,0.0307 3.6321,-0.15908 z"
       id="path1" /></g></svg>
