<?xml version="1.0" encoding="UTF-8"?>
<!-- Created with Inkscape (http://www.inkscape.org/) -->
<svg id="svg5" width="86.723mm" height="86.866mm" version="1.1" viewBox="0 0 86.723 86.866" xml:space="preserve" xmlns="http://www.w3.org/2000/svg"><g id="layer1" transform="translate(-59.997 -65.112)"><path id="path1" d="m100.93 144.92c-7.615-0.67011-14.394-3.4409-20.132-8.2291-5.8084-4.8466-9.9959-11.57-11.766-18.891-0.70145-2.902-0.99426-5.4242-0.98936-8.5221 0.0037-2.1553 0.0709-3.103 0.36656-5.1462 1.541-10.649 7.9565-20.134 17.307-25.588 4.5462-2.6514 9.259-4.1564 14.801-4.7265 1.3269-0.1365 4.922-0.13523 6.299 0.0022 8.647 0.86317 16.128 4.3676 22.068 10.338 5.7741 5.8036 9.1649 12.796 10.225 21.086 0.213 1.666 0.21261 6.5962-6.5e-4 8.1928-0.29193 2.1855-0.47123 3.1324-0.9331 4.9274-2.1303 8.2794-7.3468 15.653-14.522 20.526-3.6907 2.5068-8.0337 4.3724-12.308 5.2874-2.8484 0.60967-3.9756 0.72689-7.2459 0.75348-1.5397 0.0125-2.9663 8e-3 -3.1701-0.01zm6.9577-3.3176c1.4812-0.20792 2.2433-0.34897 3.4069-0.63054 3.7469-0.90675 7.4954-2.5652 10.632-4.7039 0.80133-0.54638 0.85405-0.62892 1.4357-2.248l0.36993-1.0297-0.0789-0.78175c-0.43523-4.3121-1.7251-7.157-4.5057-9.9376-2.0158-2.0158-3.8205-3.1035-6.5254-3.9331-1.7295-0.5304-2.0044-0.55018-8.2801-0.59581-4.7593-0.0346-5.6836-0.0216-6.6939 0.0945-3.5524 0.40802-6.4891 1.7882-9.0066 4.2328-1.9045 1.8494-2.9551 3.4679-3.7518 5.7797-0.69199 2.008-1.0483 4.1552-0.99087 5.9712 0.03124 0.98647 0.04968 1.0882 0.25076 1.3832 0.24825 0.36408 1.0542 0.95682 2.5355 1.8647 4.0559 2.4859 8.2719 3.9552 13.092 4.5627 1.5138 0.19078 1.629 0.19524 4.364 0.16901 2.0082-0.0192 2.7588-0.0588 3.7465-0.19745zm-27.133-9.908c0.45474-2.8644 1.0689-4.9931 1.9776-6.8548 2.2101-4.5277 6.3302-8.0107 11.096-9.3803 1.2654-0.36363 2.4109-0.60023 3.4791-0.71856 1.2382-0.13717 12.022-0.13873 13.133-2e-3 4.0807 0.50232 8.0373 2.3841 10.875 5.172 3.0602 3.0068 4.8249 6.7679 5.3934 11.495 0.0531 0.44154 0.10693 0.80281 0.11963 0.80281 0.0643 0 1.6465-1.8116 2.3372-2.676 3.2687-4.091 5.537-9.0901 6.5005-14.327 0.39588-2.1515 0.45658-2.9227 0.46019-5.8461 4e-3 -2.912-0.0421-3.5035-0.44912-5.8049-2.4098-13.628-13.542-24.405-27.254-26.383-3.1272-0.45127-6.3418-0.45127-9.469 0-12.001 1.7318-22.178 10.214-26.072 21.731-1.1836 3.5007-1.6978 6.665-1.6991 10.457-0.0015 3.7214 0.4898 6.7735 1.661 10.323 1.1842 3.5885 3.0272 6.9528 5.4865 10.015 0.79057 0.98441 2.2196 2.5937 2.3031 2.5937 0.01449 0 0.06892-0.26863 0.12107-0.59696zm21.658-19.49c-4.2505-0.38148-8.37-3.1041-10.501-6.9402-0.70443-1.2681-1.1882-2.6376-1.4908-4.2208-0.21446-1.1218-0.19586-3.4082 0.03797-4.667 0.40477-2.179 1.2455-4.0416 2.6215-5.8083 2.6041-3.3434 6.4439-5.2153 10.685-5.2088 2.7324 0.0044 5.2265 0.76899 7.5442 2.3135 0.87113 0.58053 2.6025 2.2521 3.2092 3.0984 1.2528 1.7474 2.178 3.8745 2.475 5.6902 0.12067 0.73756 0.12007 4.0251-7.3e-4 4.7419-0.13629 0.80792-0.76227 2.6326-1.2103 3.5279-1.9734 3.9436-5.5835 6.6267-9.8702 7.336-0.93285 0.15435-2.5861 0.21917-3.4994 0.13719zm3.5086-3.2893c1.4798-0.33184 2.8282-0.94627 3.994-1.8199 2.1236-1.5914 3.7614-4.385 4.0307-6.8752 0.11315-1.0464 0.0528-2.857-0.12209-3.6641-0.506-2.3349-2.2228-4.9023-4.1654-6.2291-1.209-0.82576-2.9637-1.5605-4.176-1.7486-0.74881-0.11618-2.3972-0.11738-3.3581-0.0022-1.8198 0.21767-3.9712 1.283-5.5291 2.7379-1.2632 1.1796-2.402 3.071-2.859 4.7483-0.7315 2.6844-0.34576 5.5431 1.0755 7.9708 0.50148 0.85658 0.96992 1.438 1.8062 2.2417 1.5967 1.5346 3.5442 2.4961 5.6711 2.7998 0.81809 0.11683 2.7862 0.0307 3.6321-0.15908z" fill="#fff" stroke-width=".73165"/></g></svg>
