<?xml version="1.0" encoding="UTF-8" standalone="no"?>
<!-- Created with Inkscape (http://www.inkscape.org/) -->

<svg
   id="svg5"
   width="86.723mm"
   height="86.866mm"
   version="1.1"
   viewBox="0 0 86.723 86.866"
   xml:space="preserve"
   sodipodi:docname="moon2.svg"
   inkscape:version="1.3.2 (1:1.3.2+202311252150+091e20ef0f)"
   xmlns:inkscape="http://www.inkscape.org/namespaces/inkscape"
   xmlns:sodipodi="http://sodipodi.sourceforge.net/DTD/sodipodi-0.dtd"
   xmlns="http://www.w3.org/2000/svg"
   xmlns:svg="http://www.w3.org/2000/svg"><defs
     id="defs1" /><sodipodi:namedview
     id="namedview1"
     pagecolor="#ffffff"
     bordercolor="#000000"
     borderopacity="0.25"
     inkscape:showpageshadow="2"
     inkscape:pageopacity="0.0"
     inkscape:pagecheckerboard="0"
     inkscape:deskcolor="#d1d1d1"
     inkscape:document-units="mm"
     inkscape:zoom="1.9708824"
     inkscape:cx="163.88598"
     inkscape:cy="164.13968"
     inkscape:window-width="1280"
     inkscape:window-height="987"
     inkscape:window-x="0"
     inkscape:window-y="0"
     inkscape:window-maximized="1"
     inkscape:current-layer="layer1" /><g
     id="layer1"
     transform="translate(-59.997 -65.112)"
     fill="#666"><path
       id="path2"
       d="m 91.442478,150.11812 c -7.364084,-2.16794 -14.550047,-6.62722 -19.618296,-12.17509 -6.440062,-7.04904 -10.28482,-15.60658 -11.307047,-25.1674 -0.173901,-1.6258 -0.171846,-6.71583 0.0033,-8.29974 0.766818,-6.932666 2.770493,-12.890735 6.216676,-18.486127 1.689115,-2.742273 3.111271,-4.560521 5.529696,-7.069585 1.814748,-1.882816 3.986306,-3.867108 5.33893,-4.878499 6.261714,-4.681978 13.593967,-7.585442 21.467248,-8.500323 1.841855,-0.214028 7.386555,-0.178798 9.323785,0.05929 8.6807,1.066783 16.4261,4.355647 22.88726,9.717606 7.22558,5.997124 12.05994,13.782473 14.55907,23.444879 1.21106,5.703099 0.71836,16.224039 0.29067,18.216359 -1.96306,9.14315 -6.01935,16.52317 -12.53178,22.79922 -3.27708,3.15833 -6.82835,5.64594 -10.92302,7.65157 -3.70999,1.81713 -6.39379,3.06375 -10.80757,3.65682 -6.78027,0.91099 -13.207927,1.10328 -20.42877,-0.96983 z m 17.816762,-8.50664 c 3.86055,-0.59492 6.77542,-1.4812 10.07825,-3.06443 5.47935,-2.62657 10.31811,-6.95388 13.66734,-12.22362 0.83819,-1.31865 2.2008,-3.92502 2.47565,-4.73559 0.16336,-0.4816 0.16248,-0.512 -0.0146,-0.512 -0.10351,0 -0.69475,0.19768 -1.31392,0.43929 -1.40827,0.54952 -3.5805,1.20203 -5.06,1.51991 -1.03732,0.22289 -1.41516,0.24343 -4.52712,0.24572 -3.66662,0.003 -4.2115,-0.0478 -6.46727,-0.59961 -2.68639,-0.65717 -5.79449,-2.01736 -8.17093,-3.57577 -3.07921,-2.01928 -6.00909,-5.02942 -7.99338,-8.21214 -1.3761,-2.20723 -2.751535,-5.71662 -3.28387,-8.37887 -0.432856,-2.16455 -0.524536,-3.348878 -0.464778,-6.004686 0.04532,-2.012173 0.10316,-2.687299 0.33341,-3.889908 0.53501,-2.794083 1.276313,-4.999053 2.455558,-7.304034 1.67772,-3.279123 3.91136,-6.010557 7.03618,-8.60417 l 1.284,-1.065732 -0.47562,-0.08429 c -0.93213,-0.165051 -4.38274,-0.266551 -5.99747,-0.176418 -4.679607,0.261213 -8.796288,1.383327 -13.102945,3.571704 -8.632501,4.386236 -14.981244,12.356818 -17.26365,21.676084 -0.714273,2.91576 -0.860021,4.24931 -0.861884,7.88524 -0.0022,3.53672 0.08805,4.46311 0.709182,7.3133 1.499592,6.88118 5.298183,13.27225 10.604039,17.84271 5.464904,4.70695 11.865797,7.40775 19.293208,8.14059 1.06254,0.10474 5.97782,-0.0372 7.06021,-0.20394 z m 19.51219,-31.6647 c 0.38051,-1.47363 0.68811,-2.45805 0.9013,-2.88438 0.33255,-0.66506 1.00698,-1.04636 2.74927,-1.55435 0.78003,-0.22743 1.44304,-0.45371 1.4734,-0.50285 0.0304,-0.0491 -0.22538,-0.16791 -0.56837,-0.26395 -3.39969,-0.95194 -3.63582,-1.16547 -4.35237,-3.93698 -0.19776,-0.76486 -0.39289,-1.355 -0.43358,-1.31143 -0.0409,0.04357 -0.15768,0.467264 -0.25994,0.94155 -0.29766,1.38072 -0.67195,2.46527 -1.01346,2.93676 -0.3662,0.50552 -0.80687,0.69903 -2.7837,1.22237 -0.69623,0.18429 -1.30859,0.37553 -1.36075,0.42491 -0.0521,0.0494 0.0933,0.12084 0.32337,0.15874 0.73909,0.1218 2.33986,0.5969 2.98281,0.8853 0.34343,0.15404 0.72186,0.4169 0.84093,0.58417 0.25426,0.35705 0.60629,1.36798 0.96161,2.76123 0.13986,0.54837 0.29184,0.99706 0.33771,0.99706 0.0459,0 0.13666,-0.20614 0.20171,-0.45812 z M 113.29239,98.64537 c 0.32726,-1.249566 0.63031,-1.548581 2.00348,-1.976616 0.32605,-0.101716 0.6604,-0.206444 0.74301,-0.232892 0.23195,-0.07417 0.12348,-0.125328 -0.88983,-0.418972 -1.34947,-0.391056 -1.42215,-0.455555 -1.74691,-1.549936 -0.15181,-0.511779 -0.30246,-1.003264 -0.33474,-1.092179 -0.0321,-0.08894 -0.19435,0.266902 -0.36017,0.790716 -0.42876,1.354428 -0.6667,1.577138 -2.10022,1.965667 l -0.86232,0.233716 0.48505,0.132732 c 0.81808,0.223872 1.43198,0.449382 1.69837,0.623925 0.33111,0.216954 0.62016,0.795151 0.845,1.690245 0.0995,0.396283 0.21516,0.681087 0.25695,0.632899 0.0418,-0.0482 0.1598,-0.407842 0.26231,-0.799248 z"
       stroke-width="0.40739"
       style="fill:#808080;fill-opacity:1" /></g></svg>
