<?xml version="1.0" encoding="UTF-8"?>
<!-- Created with Inkscape (http://www.inkscape.org/) -->
<svg id="svg5" width="86.723mm" height="86.866mm" version="1.1" viewBox="0 0 86.723 86.866" xml:space="preserve" xmlns="http://www.w3.org/2000/svg"><g id="layer1" transform="translate(-59.997 -65.112)" fill="#666"><circle id="path3" cx="103.71" cy="108.38" r="41.795" fill-opacity=".16506"/><path id="path2" d="m93.103 145.28c-6.5239-1.9206-12.89-5.8711-17.38-10.786-5.7053-6.2448-9.1114-13.826-10.017-22.296-0.15406-1.4403-0.15224-5.9496 3e-3 -7.3528 0.67933-6.1417 2.4544-11.42 5.5074-16.377 1.4964-2.4294 2.7563-4.0402 4.8988-6.263 1.6077-1.668 3.5315-3.4259 4.7298-4.3219 5.5473-4.1478 12.043-6.72 19.018-7.5305 1.6317-0.18961 6.5438-0.1584 8.26 0.05253 7.6903 0.94507 14.552 3.8587 20.276 8.6089 6.4012 5.3129 10.684 12.21 12.898 20.77 1.0729 5.0524 0.6364 14.373 0.25751 16.138-1.7391 8.1-5.3326 14.638-11.102 20.198-2.9032 2.798-6.0493 5.0018-9.6768 6.7786-3.2867 1.6098-5.6643 2.7142-9.5745 3.2396-6.0067 0.80705-11.701 0.9774-18.098-0.85918zm15.784-7.5361c3.4201-0.52704 6.0024-1.3122 8.9284-2.7148 4.8542-2.3269 9.1409-6.1605 12.108-10.829 0.74256-1.1682 1.9497-3.4772 2.1932-4.1953 0.14472-0.42664 0.14395-0.45357-0.0128-0.45357-0.0917 0-0.61547 0.17512-1.164 0.38916-1.2476 0.48682-3.172 1.0649-4.4827 1.3465-0.91897 0.19747-1.2537 0.21565-4.0106 0.21769-3.2483 3e-3 -3.731-0.0423-5.7294-0.5312-2.3799-0.5822-5.1334-1.7872-7.2387-3.1678-2.7279-1.7889-5.3235-4.4556-7.0814-7.2752-1.2191-1.9554-2.4376-5.0644-2.9092-7.4229-0.38347-1.9176-0.46469-2.9668-0.41175-5.3196 0.04014-1.7826 0.09139-2.3807 0.29537-3.4461 0.47397-2.4753 1.1307-4.4287 2.1754-6.4707 1.4863-2.905 3.4651-5.3248 6.2334-7.6225l1.1375-0.94414-0.42135-0.07467c-0.82578-0.14622-3.8827-0.23614-5.3132-0.15629-4.1457 0.23141-7.7927 1.2255-11.608 3.1642-7.6476 3.8858-13.272 10.947-15.294 19.203-0.63278 2.5831-0.7619 3.7645-0.76355 6.9856-2e-3 3.1332 0.07801 3.9539 0.62827 6.4789 1.3285 6.0961 4.6937 11.758 9.3942 15.807 4.8414 4.1699 10.512 6.5626 17.092 7.2118 0.9413 0.0928 5.2958-0.0329 6.2547-0.18067zm17.286-28.052c0.33709-1.3055 0.6096-2.1776 0.79847-2.5553 0.29461-0.58917 0.89209-0.92696 2.4356-1.377 0.69103-0.20148 1.2784-0.40195 1.3053-0.44548 0.027-0.0435-0.19967-0.14876-0.50353-0.23384-3.0118-0.84333-3.221-1.0325-3.8558-3.4878-0.1752-0.67759-0.34805-1.2004-0.38411-1.1618-0.0361 0.0386-0.13969 0.41396-0.23027 0.83412-0.26371 1.2232-0.5953 2.184-0.89784 2.6017-0.32442 0.44784-0.71481 0.61927-2.4661 1.0829-0.6168 0.16328-1.1593 0.33269-1.2055 0.37644-0.0462 0.0438 0.0827 0.10704 0.28647 0.14062 0.65477 0.10791 2.0729 0.52881 2.6425 0.78431 0.30424 0.13646 0.63949 0.36933 0.74499 0.51751 0.22524 0.31631 0.53711 1.2119 0.8519 2.4462 0.1239 0.48581 0.25853 0.88329 0.29918 0.88329 0.0406 0 0.12106-0.18262 0.17869-0.40584zm-13.713-10.012c0.28993-1.107 0.5584-1.3719 1.7749-1.7511 0.28885-0.09011 0.58505-0.18289 0.65823-0.20632 0.20549-0.06571 0.1094-0.11103-0.7883-0.37117-1.1955-0.34644-1.2599-0.40358-1.5476-1.3731-0.1345-0.45339-0.26795-0.8888-0.29655-0.96757-0.0285-0.0788-0.17218 0.23645-0.31908 0.7005-0.37984 1.1999-0.59063 1.3972-1.8606 1.7414l-0.76393 0.20705 0.42971 0.11759c0.72473 0.19833 1.2686 0.39811 1.5046 0.55274 0.29332 0.1922 0.5494 0.70443 0.74859 1.4974 0.0881 0.35107 0.19061 0.60338 0.22762 0.56069 0.037-0.0427 0.14158-0.36131 0.23239-0.70806z" stroke-width=".36091"/></g></svg>
