<?xml version="1.0" encoding="UTF-8"?>
<!-- Created with Inkscape (http://www.inkscape.org/) -->
<svg id="svg5" width="86.723mm" height="86.866mm" version="1.1" viewBox="0 0 86.723 86.866" xml:space="preserve" xmlns="http://www.w3.org/2000/svg"><g id="layer1" transform="translate(-59.997 -65.112)" fill="#808080"><path id="path2" d="m91.442 150.12c-7.3641-2.1679-14.55-6.6272-19.618-12.175-6.4401-7.049-10.285-15.607-11.307-25.167-0.1739-1.6258-0.17185-6.7158 0.0033-8.2997 0.76682-6.9327 2.7705-12.891 6.2167-18.486 1.6891-2.7423 3.1113-4.5605 5.5297-7.0696 1.8147-1.8828 3.9863-3.8671 5.3389-4.8785 6.2617-4.682 13.594-7.5854 21.467-8.5003 1.8419-0.21403 7.3866-0.1788 9.3238 0.05929 8.6807 1.0668 16.426 4.3556 22.887 9.7176 7.2256 5.9971 12.06 13.782 14.559 23.445 1.2111 5.7031 0.71836 16.224 0.29067 18.216-1.9631 9.1432-6.0194 16.523-12.532 22.799-3.2771 3.1583-6.8284 5.6459-10.923 7.6516-3.71 1.8171-6.3938 3.0638-10.808 3.6568-6.7803 0.91099-13.208 1.1033-20.429-0.96983zm17.817-8.5066c3.8606-0.59492 6.7754-1.4812 10.078-3.0644 5.4794-2.6266 10.318-6.9539 13.667-12.224 0.83819-1.3186 2.2008-3.925 2.4756-4.7356 0.16336-0.4816 0.16248-0.512-0.0146-0.512-0.10351 0-0.69475 0.19768-1.3139 0.43929-1.4083 0.54952-3.5805 1.202-5.06 1.5199-1.0373 0.22289-1.4152 0.24343-4.5271 0.24572-3.6666 3e-3 -4.2115-0.0478-6.4673-0.59961-2.6864-0.65717-5.7945-2.0174-8.1709-3.5758-3.0792-2.0193-6.0091-5.0294-7.9934-8.2121-1.3761-2.2072-2.7515-5.7166-3.2839-8.3789-0.43286-2.1646-0.52454-3.3489-0.46478-6.0047 0.04532-2.0122 0.10316-2.6873 0.33341-3.8899 0.53501-2.7941 1.2763-4.9991 2.4556-7.304 1.6777-3.2791 3.9114-6.0106 7.0362-8.6042l1.284-1.0657-0.47562-0.08429c-0.93213-0.16505-4.3827-0.26655-5.9975-0.17642-4.6796 0.26121-8.7963 1.3833-13.103 3.5717-8.6325 4.3862-14.981 12.357-17.264 21.676-0.71427 2.9158-0.86002 4.2493-0.86188 7.8852-0.0022 3.5367 0.08805 4.4631 0.70918 7.3133 1.4996 6.8812 5.2982 13.272 10.604 17.843 5.4649 4.707 11.866 7.4078 19.293 8.1406 1.0625 0.10474 5.9778-0.0372 7.0602-0.20394zm19.512-31.665c0.38051-1.4736 0.68811-2.458 0.9013-2.8844 0.33255-0.66506 1.007-1.0464 2.7493-1.5544 0.78003-0.22743 1.443-0.45371 1.4734-0.50285 0.0304-0.0491-0.22538-0.16791-0.56837-0.26395-3.3997-0.95194-3.6358-1.1655-4.3524-3.937-0.19776-0.76486-0.39289-1.355-0.43358-1.3114-0.0409 0.04357-0.15768 0.46726-0.25994 0.94155-0.29766 1.3807-0.67195 2.4653-1.0135 2.9368-0.3662 0.50552-0.80687 0.69903-2.7837 1.2224-0.69623 0.18429-1.3086 0.37553-1.3608 0.42491-0.0521 0.0494 0.0933 0.12084 0.32337 0.15874 0.73909 0.1218 2.3399 0.5969 2.9828 0.8853 0.34343 0.15404 0.72186 0.4169 0.84093 0.58417 0.25426 0.35705 0.60629 1.368 0.96161 2.7612 0.13986 0.54837 0.29184 0.99706 0.33771 0.99706 0.0459 0 0.13666-0.20614 0.20171-0.45812zm-15.479-11.301c0.32726-1.2496 0.63031-1.5486 2.0035-1.9766 0.32605-0.10172 0.6604-0.20644 0.74301-0.23289 0.23195-0.07417 0.12348-0.12533-0.88983-0.41897-1.3495-0.39106-1.4222-0.45556-1.7469-1.5499-0.15181-0.51178-0.30246-1.0033-0.33474-1.0922-0.0321-0.08894-0.19435 0.2669-0.36017 0.79072-0.42876 1.3544-0.6667 1.5771-2.1002 1.9657l-0.86232 0.23372 0.48505 0.13273c0.81808 0.22387 1.432 0.44938 1.6984 0.62392 0.33111 0.21695 0.62016 0.79515 0.845 1.6902 0.0995 0.39628 0.21516 0.68109 0.25695 0.6329 0.0418-0.0482 0.1598-0.40784 0.26231-0.79925z" stroke-width=".40739"/><path id="path1" d="m114.79 88.91-9.4381 7.877 4.3384 7.1701 15.574 9.1864 10.813-2.6424 2.1548-11.539z"/></g></svg>
