<?xml version="1.0" encoding="UTF-8"?>
<!-- Created with Inkscape (http://www.inkscape.org/) -->
<svg id="svg1" width="372.05mm" height="169.13mm" version="1.1" viewBox="0 0 372.05 169.13" xml:space="preserve" xmlns="http://www.w3.org/2000/svg"><g id="layer1" transform="translate(299.53 62.934)"><path id="path1" d="m-121.15 105.87c-6.1481-0.47663-10.989-1.4978-18.459-3.8936-4.0346-1.2941-5.432-1.8638-10.606-4.3243-2.9382-1.3973-3.8038-1.8816-8.0736-4.5167-12.925-7.9768-24.489-21.044-31.209-35.263-2.2952-4.8571-2.4991-5.364-3.8577-9.59-0.64244-1.9982-1.2523-3.6331-1.3552-3.6331-0.10288 0-0.53061 0.75257-0.95046 1.6724-0.94896 2.079-3.4128 6.0023-5.5818 8.888-1.809 2.4068-6.3215 7.0425-8.8387 9.08-4.2102 3.4079-9.6451 6.5491-15.103 8.729-2.9621 1.1831-4.1598 1.5254-8.0736 2.3068-4.4464 0.88786-7.1009 1.1568-11.418 1.1568-11.406 0-21.607-3.1569-30.902-9.5625-6.5706-4.5284-11.753-10.029-16.092-17.08-2.8975-4.7083-5.2314-10.369-6.2943-15.268-2.1248-9.7919-2.087-16.544 0.14802-26.475 1.1838-5.26 4.0033-11.549 7.5772-16.902 4.7472-7.1096 10.455-12.427 18.96-17.662 1.3411-0.82548 7.9004-3.6297 10.262-4.387 4.3684-1.4011 11.478-2.4667 16.424-2.4617 5.3942 0.0052 13.545 1.3444 17.794 2.9231 7.9382 2.9495 15.353 7.5918 20.757 12.996 3.7621 3.7619 8.3237 9.9951 10.258 14.017 0.50118 1.0421 0.99 1.8947 1.0863 1.8947 0.0962 0 0.70365-1.6326 1.3497-3.6279 3.7269-11.51 10.559-22.767 19.48-32.095 3.7758-3.948 10.89-9.7996 14.966-12.309 4.455-2.7432 5.3439-3.2535 7.7548-4.4515 1.3983-0.69486 2.5858-1.2634 2.6388-1.2634 0.0529 0 1.118-0.47831 2.3668-1.0629 5.4041-2.53 16.442-5.511 22.57-6.0955 1.3956-0.13312 3.1083-0.31617 3.8061-0.40678 1.8654-0.24223 11.165-0.14514 14.778 0.1543 10.863 0.90013 24.881 5.4211 33.959 10.952 4.6219 2.8162 5.6535 3.503 8.3915 5.5869 14.03 10.678 24.345 24.899 29.482 40.644 0.59066 1.8105 1.166 3.235 1.2785 3.1655 0.11249-0.069486 0.73386-1.1356 1.3808-2.3692 3.746-7.1422 10.542-14.558 17.763-19.383 8.1317-5.4336 16.189-8.2199 26.208-9.0629 6.636-0.55837 15.115 0.42429 21.217 2.4589 2.588 0.86292 8.6014 3.5841 10.509 4.7555 10.463 6.4252 18.037 14.915 22.6 25.332 2.1549 4.9192 3.0047 7.6268 3.7647 11.995 1.3428 7.7175 1.2793 13.609-0.23276 21.596-1.1028 5.8255-3.647 12.086-7.1893 17.691-2.4766 3.9187-4.3345 6.26-7.4442 9.3812-3.2057 3.2175-5.0587 4.7715-8.3043 6.9644-3.8427 2.5963-4.2509 2.8133-11.188 5.9474-2.7655 1.2495-9.3114 2.7563-14.159 3.2593-1.6248 0.16859-4.35 0.22342-7.1509 0.14387-8.5919-0.24401-15.223-1.9055-22.979-5.7572-2.7592-1.3702-8.4733-5.1345-10.256-6.7564-0.70261-0.63915-1.8107-1.6253-2.4625-2.1914-3.3132-2.8778-8.3813-9.4161-10.588-13.659-0.70924-1.3639-1.3742-2.4797-1.4777-2.4797-0.22552 0-0.38731 0.41244-1.6289 4.1521-1.1538 3.4753-1.8147 5.0193-4.1472 9.6883-1.886 3.7753-2.2945 4.4962-4.6458 8.1994-7.5839 11.944-20.257 23.321-33.074 29.69-3.8655 1.921-7.3936 3.3781-10.97 4.5306-8.3973 2.7064-12.262 3.5093-19.595 4.0705-5.1628 0.39514-9.8364 0.38514-15.224-0.0325zm17.07-32.344c1.459-0.26464 3.587-0.7529 4.7288-1.085 2.489-0.72399 7.8677-2.7226 9.4133-3.4978 2.1646-1.0857 6.5344-3.822 8.6947-5.4444 2.5712-1.9312 7.8521-7.1644 9.746-9.6582 2.1562-2.8391 5.1228-7.8526 6.293-10.635 3.6379-8.6504 4.7114-14.444 4.4132-23.815-0.21836-6.8629-1.0432-10.869-3.5364-17.176-1.815-4.5915-1.931-4.8231-4.2354-8.4532-3.2631-5.1404-6.5151-8.9187-10.538-12.244-3.0937-2.557-4.1762-3.3293-7.176-5.1203-3.3615-2.0069-4.6364-2.6182-8.2651-3.9633-6.4499-2.3908-10.667-3.2006-17.381-3.3379-7.6017-0.15547-13.068 0.76334-19.953 3.3536-3.8437 1.4461-5.4987 2.2532-8.8155 4.2992-7.5192 4.6382-12.798 9.9447-17.522 17.614-2.1078 3.4217-2.2907 3.7971-3.9873 8.1846-2.8028 7.2479-3.5768 11.898-3.3992 20.419 0.1528 7.329 0.71874 10.487 2.9763 16.609 1.5834 4.2934 2.7912 6.7712 4.9693 10.194 4.9905 7.8427 11.069 13.52 19.55 18.259 4.51 2.5202 12.079 5.0012 17.647 5.7846 3.6576 0.51458 12.849 0.35407 16.378-0.28599zm-137.48-29.217c4.7229-0.72564 7.306-1.7758 10.855-4.413 4.0085-2.9787 6.9558-7.3636 8.2017-12.202 1.6213-6.2966 0.51507-13.791-2.7353-18.532-2.3773-3.4675-5.8549-6.5573-9.2703-8.2363-0.89666-0.4408-2.6683-1.0773-3.937-1.4143-2.024-0.53774-2.7591-0.61436-5.9975-0.62505-3.0955-0.010197-4.0442 0.07367-5.8822 0.5199-4.7562 1.1548-9.238 4.0673-12.278 7.9789-2.1461 2.7612-3.191 4.8009-3.9803 7.7694-1.4511 5.4579-1.0149 11.492 1.1797 16.317 0.92869 2.042 3.3684 5.3855 5.0088 6.8642 3.0865 2.7823 5.9534 4.4017 9.3411 5.2765 4.0653 1.0498 6.185 1.2054 9.4944 0.69696zm261.59 0.09973c4.7351-0.5806 8.1335-1.9515 11.874-4.7898 3.5585-2.7004 6.665-7.303 7.7223-11.441 1.9082-7.4688 0.63897-14.616-3.6089-20.323-1.617-2.1721-3.3987-3.8244-5.9967-5.5613-2.4237-1.6204-4.1336-2.3026-7.5644-3.018-3.597-0.75012-7.2673-0.66141-10.962 0.26494-6.5234 1.6356-12.657 6.9922-14.991 13.092-2.2377 5.8485-2.3816 11.217-0.44769 16.701 0.97322 2.7601 1.6438 4.0321 3.2113 6.0912 3.1066 4.0809 7.1982 6.9175 11.771 8.1604 3.6044 0.97967 5.956 1.1948 8.9921 0.82248z" fill="#f9f9f9" stroke-width=".87184"/></g></svg>
