<?xml version="1.0" encoding="UTF-8" standalone="no"?>
<!-- Created with Inkscape (http://www.inkscape.org/) -->

<svg
   width="86.723mm"
   height="86.866mm"
   version="1.1"
   viewBox="0 0 86.723 86.866"
   xml:space="preserve"
   id="svg1"
   sodipodi:docname="search-day.svg"
   inkscape:version="1.3.2 (1:1.3.2+202311252150+091e20ef0f)"
   xmlns:inkscape="http://www.inkscape.org/namespaces/inkscape"
   xmlns:sodipodi="http://sodipodi.sourceforge.net/DTD/sodipodi-0.dtd"
   xmlns="http://www.w3.org/2000/svg"
   xmlns:svg="http://www.w3.org/2000/svg"><defs
     id="defs1" /><sodipodi:namedview
     id="namedview1"
     pagecolor="#ffffff"
     bordercolor="#000000"
     borderopacity="0.25"
     inkscape:showpageshadow="2"
     inkscape:pageopacity="0.0"
     inkscape:pagecheckerboard="0"
     inkscape:deskcolor="#d1d1d1"
     inkscape:document-units="mm"
     inkscape:zoom="2.1047025"
     inkscape:cx="163.91865"
     inkscape:cy="164.15622"
     inkscape:window-width="1503"
     inkscape:window-height="933"
     inkscape:window-x="0"
     inkscape:window-y="0"
     inkscape:window-maximized="1"
     inkscape:current-layer="svg1" /><path
     d="m 18.909711,70.048 10.8,-10.781 1.8804,1.3904 c 7.9338,5.8665 18.589,7.4972 28.13,4.3049 13.201,-4.4173 21.911,-17.795 20.573,-31.596 -0.75008,-7.736 -3.6751,-14.004 -8.9777,-19.239 -7.7885,-7.6893 -18.716,-10.551 -29.673,-7.772 -8.5348,2.1649 -16.521,9.0284 -20.015,17.201 -2.9277,6.8485 -3.2877,14.591 -1.0232,22.003 0.70006,2.2915 2.8157,6.3984 4.3738,8.4906 l 1.4032,1.8843 -10.66,10.728 c -6.5468004,6.5884 -10.7130004,10.939 -10.7980004,11.275 -0.35247,1.4044 0.83862,2.8914 2.316,2.8914 0.86447,0 0.94205,-0.07168 11.6710004,-10.781 z m 26.21,-8.5241 c -5.3925,-1.0092 -11.02,-4.0857 -14.494,-7.9234 -11.268,-12.448 -8.3875,-31.488 6.0787,-40.173 4.643,-2.7875 10.96,-4.0896 16.35,-3.3702 7.1552,0.95481 14.269,5.3422 18.16,11.2 3.0036,4.5217 4.2964,8.393 4.5216,13.54 0.31972,7.3095 -2.1808,13.854 -7.3366,19.203 -4.4169,4.5818 -10.413,7.3992 -16.897,7.9391 -1.4611,0.12167 -4.6093,-0.08301 -6.3831,-0.41498 z"
     fill="#808080"
     stroke-width="0.21311"
     id="path1" /></svg>
