<?xml version="1.0" encoding="UTF-8" standalone="no"?>
<!-- Created with Inkscape (http://www.inkscape.org/) -->

<svg
   width="86.723mm"
   height="86.866mm"
   version="1.1"
   viewBox="0 0 86.723 86.866"
   xml:space="preserve"
   id="svg1"
   sodipodi:docname="search-night.svg"
   inkscape:version="1.3.2 (1:1.3.2+202311252150+091e20ef0f)"
   xmlns:inkscape="http://www.inkscape.org/namespaces/inkscape"
   xmlns:sodipodi="http://sodipodi.sourceforge.net/DTD/sodipodi-0.dtd"
   xmlns="http://www.w3.org/2000/svg"
   xmlns:svg="http://www.w3.org/2000/svg"><defs
     id="defs1" /><sodipodi:namedview
     id="namedview1"
     pagecolor="#ffffff"
     bordercolor="#000000"
     borderopacity="0.25"
     inkscape:showpageshadow="2"
     inkscape:pageopacity="0.0"
     inkscape:pagecheckerboard="0"
     inkscape:deskcolor="#d1d1d1"
     inkscape:document-units="mm"
     inkscape:zoom="1.735963"
     inkscape:cx="163.88598"
     inkscape:cy="163.88598"
     inkscape:window-width="1503"
     inkscape:window-height="869"
     inkscape:window-x="0"
     inkscape:window-y="0"
     inkscape:window-maximized="1"
     inkscape:current-layer="svg1" /><path
     d="M 20.407191,68.203176 30.468597,58.159471 32.2204,59.454784 c 7.391221,5.4653 17.317729,6.984479 26.206237,4.010495 C 70.724843,59.35007 78.83918,46.887249 77.592684,34.030076 76.893901,26.823128 74.168918,20.983786 69.228954,16.106798 61.973096,8.9433565 51.792909,6.2773633 41.58524,8.8663122 33.63412,10.883158 26.194083,17.277275 22.939032,24.890965 c -2.72748,6.380143 -3.06286,13.593146 -0.953225,20.498252 0.652184,2.134788 2.623139,5.960824 4.074683,7.909942 l 1.307238,1.755436 -9.930981,9.99433 c -6.099076,6.137831 -9.9803562,10.190901 -10.0595432,10.503922 -0.3283652,1.308356 0.7812682,2.693662 2.1576127,2.693662 0.8053505,0 0.8776245,-0.06678 10.8728405,-10.043705 z M 44.824733,60.262025 C 39.801017,59.321843 34.558372,56.455739 31.321953,52.880493 20.824553,41.283791 23.50806,23.545904 36.984941,15.454856 c 4.325473,-2.596867 10.210465,-3.809919 15.231852,-3.139717 6.665868,0.889512 13.293167,4.976856 16.918068,10.434051 2.798189,4.212468 4.002576,7.819017 4.212375,12.614022 0.297855,6.809616 -2.031658,12.906548 -6.834862,17.889739 -4.114836,4.268459 -9.700873,6.893182 -15.741443,7.396159 -1.361178,0.113349 -4.294078,-0.07733 -5.94657,-0.3866 z"
     fill="#a0c0d2"
     stroke-width="0.198536"
     id="path1" /></svg>
