<?xml version="1.0" encoding="UTF-8" standalone="no"?>
<svg
   width="138.92mm"
   height="138.92mm"
   version="1.1"
   viewBox="0 0 138.92 138.92"
   xml:space="preserve"
   id="svg55537"
   sodipodi:docname="spiral-design-icon-ecobricks-org.svg"
   inkscape:version="1.3.2 (1:1.3.2+202311252150+091e20ef0f)"
   xmlns:inkscape="http://www.inkscape.org/namespaces/inkscape"
   xmlns:sodipodi="http://sodipodi.sourceforge.net/DTD/sodipodi-0.dtd"
   xmlns="http://www.w3.org/2000/svg"
   xmlns:svg="http://www.w3.org/2000/svg"
   xmlns:rdf="http://www.w3.org/1999/02/22-rdf-syntax-ns#"
   xmlns:cc="http://creativecommons.org/ns#"
   xmlns:dc="http://purl.org/dc/elements/1.1/"><defs
     id="defs55541" /><sodipodi:namedview
     id="namedview55539"
     pagecolor="#ffffff"
     bordercolor="#000000"
     borderopacity="0.25"
     inkscape:showpageshadow="2"
     inkscape:pageopacity="0.0"
     inkscape:pagecheckerboard="0"
     inkscape:deskcolor="#d1d1d1"
     inkscape:document-units="mm"
     showgrid="false"
     inkscape:zoom="0.63565975"
     inkscape:cx="357.89587"
     inkscape:cy="549.82245"
     inkscape:window-width="1503"
     inkscape:window-height="933"
     inkscape:window-x="0"
     inkscape:window-y="0"
     inkscape:window-maximized="1"
     inkscape:current-layer="g1" /><metadata
     id="metadata55519"><rdf:RDF><cc:Work
         rdf:about=""><dc:format>image/svg+xml</dc:format><dc:type
           rdf:resource="http://purl.org/dc/dcmitype/StillImage" /></cc:Work></rdf:RDF></metadata><g
     fill="#ececec"
     id="g55535"><g
       transform="translate(293.57 -73.232)"
       id="g55523"><path
         d="m87.986 190.48c-11.684-1.1234-23.507-10.093-29.695-22.524-3.007-6.0417-4.3006-11.287-4.4783-18.157-0.116-4.167 0.04555-6.1815 0.67955-9.6876l0.38066-2.0625 1.2355 1.0388c2.982 2.5042 6.943 3.8908 17.42 6.0993 11.946 2.5178 17.831 4.5928 22.989 8.1042 5.8172 3.9608 9.722 9.8594 11.324 17.107 0.53032 2.4033 0.5817 2.2757-1.0206 2.5632-1.7729 0.31811-8.0257 0.33483-10.418 3e-3 -6.0442-0.78705-11.917-2.4003-16.021-4.3956-0.91087-0.43837-1.6933-0.77132-1.7378-0.72428-0.0459 0.0495 0.54658 0.712 1.3105 1.4844 3.6993 3.7347 9.9164 6.4369 17.512 7.6116 3.0089 0.46445 9.6553 0.47413 12.413 0.0142 7.2625-1.2095 14.041-4.0397 19.75-8.2356 1.0277-0.75406 1.343-0.90988 1.4762-0.72147 1.0675 1.5269 1.273 3.9649 0.47182 5.676-0.66567 1.4151-1.5533 2.1868-4.1478 3.5978-6.163 3.3501-13.327 5.5188-20.03 6.0624l-1.4179 0.0932-1.5066 1.4467c-2.8162 2.7001-5.7618 4.3232-9.3661 5.1603-1.0208 0.23414-4.7123 0.64835-5.3519 0.59163-0.16368-0.0142-0.94105-0.0598-1.766-0.17008zm55.274-0.64604c0.16225-0.59294 0.27327-1.5608 0.27327-3.2365-6.4e-4 -3.6298-0.61195-6.2762-3.5108-15.25-3.3081-10.23-4.3973-15.034-4.6423-20.481-0.30565-6.6952 1.5159-12.814 5.3278-17.93 1.0254-1.3764 3.4999-4.0065 4.7717-5.0713l0.84316-0.71005 0.62373 0.68165c0.3455 0.37561 1.1632 1.4816 1.822 2.4561 4.0786 6.0381 7.5155 16.046 7.9469 23.141 0.0473 1.0804 0.16404 1.9011 0.25798 1.8265 0.3085-0.31419 1.0418-3.3156 1.2262-5.0417 0.81527-7.4216-2.6898-18.316-8.244-25.613-4.2529-5.5872-9.7055-10.047-16.186-13.237-1.586-0.77765-2.8818-1.4961-2.8818-1.5912 2e-3 -0.38579 1.1257-1.7657 1.8334-2.2541 1.85-1.2759 3.9724-1.4113 6.034-0.40159 1.5135 0.73965 5.6522 3.5066 7.4802 4.9892 3.3252 2.6981 7.11 6.7385 9.5901 10.237 0.682 0.96631 1.2917 1.6458 1.4645 1.6457 0.16332-1.4e-4 1.0042 0.15657 1.8662 0.45396 3.6279 1.0534 7.0962 3.3375 9.5392 6.2854 2.5 3.0168 4.2464 6.8427 5.2122 11.417 0.5605 2.6515 0.77776 8.2941 0.43902 11.289-1.4786 13.002-8.7623 24.817-19.696 31.951-2.282 1.4895-6.5029 3.5842-9.1762 4.5556-2.5854 0.93756-2.5635 0.94699-2.219-0.09zm-62.42-52.902c-1.642-0.38884-3.1129-1.5659-3.8675-3.1012-0.37845-0.76562-0.43684-1.1626-0.49289-3.265-0.16404-6.6703 1.4318-14.289 4.4463-21.07l0.90397-2.0335-0.49524-1.8816c-0.59807-2.2779-0.78957-5.5604-0.45556-7.8463 0.63073-4.3267 2.8893-8.6385 6.4669-12.356 5.7305-5.9538 13.671-9.7582 23.243-11.136 2.5997-0.37646 8.447-0.42379 10.906-0.05907 9.5184 1.2885 17.719 5.0685 24.617 11.344l0.59099 0.54057-0.76619 0.15727c-2.0695 0.56163-4.2081 1.849-6.8937 4.1762-2.0064 1.7345-3.0185 2.7885-8.4292 8.7614-7.8836 8.7025-12.179 12.38-17.608 15.073-2.1301 1.053-4.5204 1.9145-6.6702 2.3967-1.9598 0.43578-6.8645 0.54263-9.2335 0.15728-1.8803-0.28039-5.9129-1.3158-6.6641-1.7199-0.42507-0.23805-0.3808-0.48506 0.40169-2.4685 2.5009-6.3011 10.271-15.546 16.7-19.869l1.6326-1.0971-0.94848 0.08682c-0.52068 0.05622-1.6934 0.38301-2.6067 0.7109-4.008 1.4337-8.0277 4.314-11.73 8.4075-5.1194 5.661-8.1856 11.304-9.9879 18.38-1.0557 4.1509-1.3009 6.1412-1.3149 10.728-0.0036 2.1964 0.04697 4.688 0.14055 5.5412l0.16368 1.5496-0.67496-0.0142c-0.37127-0.0107-0.97375-0.0591-1.3428-0.15122z"
         fill="#ececec"
         id="path55521" /></g><g
       id="g55533"><g
         id="g1"><g
           id="g2"><path
             d="M 73.920145,110.74699 C 66.658338,119.01808 59.689,120.9044 51.708,120.8755 l -0.44287,0.24014 c -1.6134,1.2734 -4.1745,2.5749 -6.1229,3.1093 -3.6873,1.0128 -9.5652,0.74886 -13.804,-0.79662 -6.7885,-2.4758 -12.635,-7.4626 -17.113,-14.597 -1.2182,-1.9369 -3.3178,-6.5733 -3.8927,-8.6577 -1.7275,-8.657 -2.286,-19.393 0.10585,-26.418 5.4492,7.5819 10.97,8.525 16.683,10.417 9.7489,3.2269 14.208,5.3575 18.279,8.7349 1.5943,1.3264 3.127,2.9269 4.2712,4.4688 3.252102,4.30425 6.221635,7.40615 5.98248,13.1736 -0.04075,0.42158 -0.25392,0.47296 -2.1185,0.5445 -5.9279,0.21577 -17.7,-2.7069 -23.428,-6.3094 l -1.4542,-0.91505 0.40396,0.72431 c 0.2286,0.39465 0.90381,1.2134 1.4884,1.8254 2.5614,2.6874 6.2853,4.8778 10.869,6.3909 13.666,4.721 24.285454,1.11146 34.53127,-11.91218 -0.504082,4.3685 -0.896173,8.70405 -1.632273,9.07365 z"
             stroke-width="0.87217"
             id="path55525"
             sodipodi:nodetypes="ccccccccccccccccccccc"
             style="fill:#008000" /><path
             d="m 11.648,63.568 c 0.76233,-7.6915 2.9012,-13.074 7.4747,-20.466 l 1.3715,-2.2168 -0.32089,-2.23 c -0.38652,-2.6995 -0.14402,-6.4994 0.58316,-9.0828 1.3746,-4.8902 4.6908,-9.5446 9.4966,-13.339 7.6976,-6.0763 17.725,-9.3846 29.352,-9.6837 3.1581,-0.083907 10.147,0.64677 13.03,1.3962 11.389,3.8329 27.433,13.719 34.204,21.276 -14.57,-1.6125 -21.054,3.8775 -26.904,8.6698 -10.663,8.9477 -16.32,12.599 -23.189,14.967 -2.6947,0.92475 -5.6725,1.5943 -8.3086,1.8602 -2.4026,0.23798 -8.2743,-0.2976 -11.048,-1.0588 -2.2048,-0.57484 -7.9926,-3.0573 -8.8315,-3.6228 3.8792,-9.8786 14.125,-18.829 26.857,-23.679 l -1.1449,-0.02744 c -0.62981,-0.0054 -2.077,0.21252 -3.2146,0.46744 -4.9916,1.1104 -10.205,3.8825 -15.214,8.0922 -11.373899,8.767696 -17.203548,18.927296 -16.87384,30.878268 0.144557,5.239772 4.441465,10.887142 7.957716,15.262553 -6.8766,-2.6363 -15.656889,-10.185689 -15.024889,-16.710689 z"
             stroke-width="1.1799"
             id="path55527"
             sodipodi:nodetypes="ccccccccccccccccccsccc"
             style="fill:#008000" /><path
             id="path55529"
             style="fill:#008000"
             d="M 99.740682 32.73547 C 96.253881 32.72787 92.182719 33.738633 87.410685 36.077901 C 110.59996 33.715072 115.32077 57.8828 113.17397 77.055762 C 112.53707 84.294746 110.5626 90.519255 107.41412 95.223645 C 106.58362 96.458443 105.5173 97.850059 104.2324 98.901457 C 109.34869 86.357481 111.82261 69.403553 105.17343 59.741573 C 104.03143 59.920473 98.881839 61.755301 96.623043 62.966699 C 93.750949 64.459497 88.546631 68.49498 86.789535 70.518176 C 84.865537 72.741872 82.992927 75.554329 81.558329 78.358525 C 74.916543 94.583491 85.39501 114.98456 65.35105 132.93452 C 82.08843 137.74477 95.80471 131.1076 105.25249 126.99122 C 108.20519 125.40482 114.47507 120.67735 116.97115 118.20415 C 126.16895 109.10717 131.616 98.77897 132.9154 87.974992 C 133.7262 81.229006 132.62647 74.917381 129.75797 69.892891 C 128.24327 67.237697 125.34403 63.962007 122.83023 62.060811 L 120.75284 60.491398 L 120.05986 57.644027 L 120.05882 57.644027 C 117.19394 45.778426 112.19354 32.762734 99.740682 32.73547 z M 115.63687 111.6428 L 116.68125 112.8665 L 116.53966 112.98742 L 115.49528 111.76372 L 115.63687 111.6428 z M 115.51078 112.46755 C 115.6006 112.47089 115.68835 112.5234 115.77381 112.62517 L 116.27146 113.21583 L 116.1681 113.30316 L 116.03684 113.20343 L 116.03064 113.20859 C 116.03264 113.2879 116.02237 113.35666 115.99964 113.41478 C 115.9777 113.47198 115.92985 113.53123 115.85649 113.59307 C 115.77772 113.65947 115.69531 113.69432 115.60896 113.69694 C 115.5217 113.69827 115.44064 113.65445 115.36608 113.56619 C 115.29334 113.47986 115.27158 113.38514 115.30046 113.28146 C 115.32846 113.1767 115.41132 113.06228 115.54902 112.93884 L 115.69216 112.81017 L 115.64875 112.75849 C 115.58782 112.68619 115.53005 112.64907 115.47512 112.64739 C 115.42019 112.64539 115.36385 112.66862 115.30666 112.71715 C 115.26132 112.75535 115.22421 112.79881 115.19504 112.84738 C 115.16497 112.89484 115.1391 112.94218 115.11804 112.98949 L 114.98471 112.91921 C 115.00518 112.86687 115.03515 112.81202 115.07515 112.75436 C 115.11408 112.69583 115.16139 112.64289 115.21726 112.59571 L 115.21777 112.59519 C 115.32329 112.50644 115.42114 112.46389 115.51078 112.46755 z M 115.7733 112.91042 L 115.64979 113.02308 C 115.54552 113.11832 115.48503 113.19872 115.4684 113.2644 C 115.45287 113.32914 115.46806 113.38917 115.5144 113.44424 C 115.55533 113.49277 115.60002 113.51638 115.64824 113.51452 C 115.69757 113.51185 115.74552 113.49067 115.7919 113.45147 C 115.86528 113.38967 115.90928 113.31841 115.92419 113.23753 C 115.93819 113.15561 115.90986 113.07262 115.83892 112.98845 L 115.7733 112.91042 z M 114.77284 112.9838 L 114.86431 113.13056 C 114.84751 113.13903 114.82925 113.14937 114.81005 113.16157 C 114.79198 113.1729 114.77564 113.18462 114.76044 113.19722 C 114.7159 113.23416 114.6842 113.2814 114.66587 113.33882 C 114.6466 113.39515 114.64382 113.45534 114.65708 113.51969 C 114.67028 113.58202 114.70092 113.64291 114.74958 113.70159 L 115.13612 114.16719 L 114.99298 114.28605 L 114.26848 113.41323 L 114.38578 113.31556 L 114.53461 113.46181 L 114.54133 113.45664 C 114.52993 113.38543 114.53213 113.31439 114.54753 113.2427 C 114.5632 113.17101 114.60141 113.1097 114.66225 113.05925 C 114.67844 113.0458 114.69637 113.03199 114.71651 113.01894 C 114.73698 113.00381 114.75604 112.99227 114.77284 112.9838 z M 113.73259 113.3414 C 113.76166 113.34126 113.78928 113.35682 113.81528 113.38843 C 113.84034 113.41896 113.85018 113.44926 113.84525 113.47886 C 113.84125 113.50753 113.82867 113.53069 113.80701 113.54862 C 113.78301 113.56829 113.75629 113.5773 113.72743 113.5755 C 113.69856 113.5735 113.67188 113.55732 113.64681 113.52692 C 113.62088 113.49525 113.6101 113.46564 113.61477 113.43804 C 113.61877 113.4093 113.63276 113.38536 113.65663 113.36569 C 113.67843 113.34782 113.70366 113.3396 113.73259 113.3414 z M 113.99666 113.63647 L 114.71651 114.51394 L 114.57233 114.63176 L 113.85248 113.75481 L 113.99666 113.63647 z M 113.60754 114.11707 C 113.73568 114.13867 113.86148 114.22598 113.98477 114.37855 C 114.10629 114.52891 114.16496 114.67027 114.16099 114.80229 C 114.15832 114.93343 114.10196 115.04329 113.99201 115.13199 C 113.92397 115.18699 113.85742 115.22008 113.79202 115.23121 C 113.72682 115.24034 113.6675 115.23777 113.61477 115.22397 L 113.60495 115.23224 C 113.62222 115.24911 113.64325 115.27056 113.66851 115.29736 C 113.69378 115.32416 113.71521 115.34787 113.73208 115.36867 L 114.02456 115.73092 L 113.87987 115.84823 L 112.84738 114.57078 L 112.96571 114.47467 L 113.0825 114.57905 L 113.08974 114.57389 C 113.08507 114.51415 113.09359 114.45391 113.11506 114.39302 C 113.13659 114.33208 113.18276 114.27291 113.25407 114.21525 C 113.36272 114.12744 113.48048 114.09453 113.60754 114.11707 z M 113.44992 114.29535 C 113.40782 114.30443 113.36651 114.32556 113.3259 114.35839 C 113.23591 114.43113 113.1927 114.50771 113.19619 114.58835 C 113.20086 114.66811 113.24377 114.7604 113.32487 114.86534 L 113.3476 114.89325 C 113.43542 115.0019 113.52091 115.07166 113.60392 115.10253 C 113.68715 115.1314 113.7771 115.10715 113.87367 115.02915 C 113.92747 114.98569 113.9592 114.93539 113.96927 114.87826 C 113.98047 114.82026 113.97403 114.75912 113.94963 114.69532 C 113.9255 114.62952 113.88658 114.56375 113.83336 114.49792 C 113.75176 114.39695 113.66689 114.33205 113.5786 114.30362 C 113.535 114.28895 113.49203 114.28627 113.44992 114.29535 z M 112.65669 114.79299 L 112.69906 114.94854 C 112.6492 114.96287 112.59941 114.98043 112.54972 115.00177 C 112.50005 115.0231 112.45386 115.05128 112.41071 115.08548 C 112.35098 115.13282 112.31279 115.17918 112.2965 115.22449 C 112.28044 115.26782 112.28574 115.30603 112.31201 115.33921 C 112.33127 115.36355 112.35492 115.37887 112.38332 115.38521 C 112.41085 115.39054 112.44811 115.38797 112.49443 115.37797 C 112.54096 115.3663 112.60082 115.34941 112.67478 115.32681 C 112.74784 115.30314 112.81329 115.28667 112.87063 115.2772 C 112.92796 115.26773 112.97974 115.27052 113.02618 115.28599 C 113.07171 115.30032 113.11353 115.33147 113.15123 115.379 L 113.15123 115.37952 C 113.21959 115.46579 113.23924 115.55627 113.21014 115.65134 C 113.18108 115.74641 113.11236 115.83675 113.00396 115.92264 C 112.94202 115.97171 112.88407 116.0093 112.83084 116.03529 C 112.77871 116.06036 112.72876 116.07795 112.68046 116.08749 L 112.57504 115.95468 C 112.62444 115.94435 112.68042 115.927 112.74247 115.903 C 112.80474 115.87707 112.86154 115.84343 112.91352 115.80223 C 112.98762 115.7435 113.03207 115.68948 113.04685 115.63997 C 113.06071 115.58937 113.05202 115.54442 113.02049 115.50458 C 113.00296 115.48244 112.98106 115.46717 112.95486 115.4591 C 112.92866 115.45104 112.89242 115.45085 112.84634 115.45859 C 112.80134 115.46545 112.74109 115.48128 112.66496 115.50561 C 112.58992 115.52908 112.5229 115.54599 112.46445 115.55625 C 112.40599 115.56659 112.35348 115.56475 112.30684 115.55109 C 112.26017 115.53762 112.21776 115.50622 112.1792 115.45755 C 112.1196 115.38235 112.10377 115.30018 112.13217 115.21106 C 112.16171 115.12106 112.22645 115.03672 112.32596 114.95784 C 112.38016 114.91491 112.43457 114.88076 112.48977 114.855 C 112.54524 114.82727 112.6009 114.80659 112.65669 114.79299 z M 111.67897 115.01675 L 112.16421 116.55464 L 112.02055 116.66678 L 111.53531 115.12889 L 111.67897 115.01675 z M 111.14464 116.00894 C 111.239 116.01847 111.33038 116.08152 111.41956 116.19808 L 111.86862 116.78512 L 111.72238 116.89674 L 111.28106 116.32003 C 111.17046 116.17546 111.04813 116.15511 110.91364 116.25802 C 110.8139 116.33433 110.76625 116.41467 110.77102 116.49987 C 110.77568 116.58505 110.81847 116.68029 110.89917 116.78564 L 111.25677 117.25331 L 111.10898 117.36648 L 110.41962 116.46524 L 110.53847 116.37378 L 110.65423 116.48023 L 110.6625 116.47403 C 110.65563 116.40466 110.66944 116.339 110.70384 116.27714 C 110.73737 116.21414 110.78258 116.16065 110.83975 116.11694 L 110.84026 116.11643 C 110.94786 116.03411 111.04942 115.99828 111.14464 116.00894 z M 110.05116 116.79545 C 110.13302 116.78712 110.212 116.80273 110.28784 116.843 C 110.36397 116.88126 110.43291 116.94187 110.49455 117.02438 L 110.56173 117.1143 L 109.93903 117.57887 C 110.01813 117.68006 110.10299 117.73952 110.19327 117.75664 C 110.28383 117.77177 110.37413 117.74562 110.46458 117.67809 C 110.52224 117.63502 110.56969 117.59201 110.60617 117.5489 C 110.64297 117.50383 110.67726 117.45332 110.70952 117.39749 L 110.80719 117.52771 C 110.77606 117.58271 110.74129 117.63168 110.7028 117.67447 C 110.6652 117.7184 110.61514 117.76391 110.55294 117.81038 C 110.46702 117.87458 110.37762 117.91397 110.28474 117.92872 C 110.19299 117.94265 110.10278 117.92903 110.01396 117.88789 C 109.92542 117.84483 109.84365 117.77302 109.76849 117.6724 C 109.69419 117.57292 109.6468 117.47511 109.62638 117.3794 C 109.60712 117.28284 109.61275 117.19284 109.64395 117.10965 C 109.67629 117.02561 109.73266 116.9536 109.81294 116.89364 C 109.89094 116.83537 109.97043 116.80292 110.05116 116.79545 z M 110.01447 116.96185 C 109.9777 116.97039 109.94073 116.98885 109.90285 117.01715 C 109.83163 117.07035 109.79224 117.13592 109.78503 117.21352 C 109.7781 117.28914 109.80083 117.37063 109.85376 117.45795 L 110.31678 117.11223 C 110.25825 117.0362 110.19405 116.98729 110.12351 116.96599 C 110.08783 116.95475 110.05125 116.95332 110.01447 116.96185 z M 109.09877 116.98201 L 109.5375 118.53437 L 109.39074 118.64185 L 108.95201 117.08949 L 109.09877 116.98201 z M 108.44403 117.98608 C 108.53456 117.97675 108.62312 117.99467 108.70964 118.04034 C 108.79649 118.08401 108.87679 118.15684 108.94994 118.25893 C 109.05925 118.41148 109.10487 118.55753 109.08688 118.69715 C 109.07001 118.83595 108.99553 118.95299 108.86364 119.04751 C 108.78221 119.10585 108.69631 119.13945 108.60577 119.1488 C 108.51557 119.15613 108.42627 119.13727 108.33861 119.09247 C 108.25012 119.04654 108.1694 118.97289 108.09624 118.87078 C 107.98693 118.71823 107.94112 118.5728 107.95878 118.43515 C 107.97645 118.29749 108.05115 118.18137 108.18306 118.08685 C 108.26679 118.02685 108.35382 117.99344 108.44403 117.98608 z M 108.40992 118.15248 C 108.36441 118.16164 108.31794 118.18289 108.27091 118.21656 C 108.17686 118.28396 108.13099 118.36398 108.13293 118.45634 C 108.13493 118.54869 108.1748 118.64916 108.25282 118.75813 C 108.33091 118.86709 108.41447 118.93876 108.50294 118.97258 C 108.59173 119.00445 108.68277 118.98676 108.77682 118.91936 C 108.86974 118.85276 108.91539 118.77233 108.91377 118.67803 C 108.9111 118.58256 108.87122 118.48004 108.79336 118.37107 C 108.71527 118.2621 108.63225 118.19249 108.54428 118.16178 C 108.5003 118.14645 108.45543 118.14331 108.40992 118.15248 z M 107.29164 118.261 C 107.32064 118.263 107.34717 118.28069 107.37071 118.31423 C 107.39344 118.34656 107.40109 118.37708 107.39396 118.40621 C 107.38796 118.43454 107.3731 118.45667 107.35004 118.47287 C 107.32464 118.49074 107.29757 118.49806 107.2689 118.49406 C 107.24024 118.49006 107.21464 118.47162 107.19191 118.43928 C 107.16837 118.40582 107.1603 118.37553 107.1671 118.34833 C 107.1731 118.32 107.18879 118.29695 107.21413 118.27909 C 107.23719 118.26289 107.26291 118.257 107.29164 118.261 z M 107.53297 118.57467 L 108.18513 119.5033 L 108.03268 119.61027 L 107.38053 118.68216 L 107.53297 118.57467 z M 106.60125 119.3183 C 106.69491 119.33316 106.78289 119.40151 106.86531 119.52294 L 107.28027 120.13375 L 107.12783 120.23711 L 106.7201 119.63663 C 106.61787 119.48601 106.49692 119.45835 106.35682 119.55343 C 106.25291 119.62396 106.20083 119.70168 106.20075 119.787 C 106.20069 119.87232 106.23787 119.96975 106.31237 120.07949 L 106.64259 120.5668 L 106.48859 120.67119 L 105.85142 119.73274 L 105.97596 119.64799 L 106.08551 119.76065 L 106.0943 119.75445 C 106.09163 119.68481 106.10941 119.61995 106.14701 119.56014 C 106.18401 119.49926 106.2318 119.44857 106.29119 119.40822 C 106.4031 119.33234 106.50691 119.3023 106.60125 119.3183 z M 107.60118 119.63818 C 107.63525 119.64018 107.66699 119.66287 107.69679 119.70587 C 107.72572 119.7476 107.73537 119.78521 107.72624 119.81904 C 107.71824 119.85204 107.69953 119.87872 107.6694 119.89966 C 107.6404 119.91979 107.60908 119.92801 107.57535 119.92395 C 107.54161 119.91995 107.51023 119.89702 107.48129 119.85522 L 107.48078 119.85522 C 107.45104 119.81228 107.44097 119.77491 107.44977 119.74308 C 107.45857 119.71121 107.4771 119.68518 107.5061 119.66505 C 107.53623 119.64411 107.56825 119.63524 107.60118 119.63818 z M 105.46591 120.0397 C 105.54812 120.03637 105.62565 120.05718 105.69897 120.10171 C 105.7727 120.14438 105.83818 120.20892 105.89483 120.29498 L 105.95632 120.38852 L 105.30778 120.81588 C 105.38076 120.92158 105.46156 120.9857 105.55066 121.00812 C 105.64017 121.02858 105.73233 121.00766 105.82662 120.94559 C 105.88675 120.90599 105.93597 120.86552 105.97493 120.82467 C 106.01433 120.78187 106.05207 120.73381 106.08758 120.67997 L 106.17698 120.81588 C 106.14265 120.86888 106.10476 120.91593 106.06381 120.95644 C 106.02368 120.99811 105.97155 121.03987 105.90671 121.08253 C 105.81714 121.14153 105.72539 121.17562 105.6318 121.18485 C 105.53938 121.19332 105.45034 121.17479 105.36411 121.12852 C 105.27828 121.08026 105.20063 121.00342 105.13157 120.89856 C 105.06327 120.79485 105.02174 120.69456 105.00703 120.59781 C 104.99349 120.50027 105.00455 120.41132 105.04062 120.33012 C 105.07788 120.24814 105.13834 120.17955 105.222 120.12445 L 105.222 120.12393 C 105.30332 120.0704 105.38488 120.04237 105.46591 120.0397 z M 105.41941 120.20403 C 105.38219 120.21038 105.34365 120.22661 105.30417 120.25261 C 105.22992 120.30147 105.18676 120.36468 105.17498 120.44174 C 105.16358 120.51682 105.18209 120.5995 105.22975 120.68979 L 105.71241 120.37198 C 105.65848 120.29261 105.59656 120.23981 105.52741 120.21437 C 105.49246 120.20107 105.45662 120.19768 105.41941 120.20403 z M 103.68256 120.57972 L 103.93629 120.97815 C 103.96662 121.02575 103.99217 121.07224 104.01277 121.11767 L 104.02311 121.11044 C 104.02293 121.04193 104.04144 120.97864 104.07788 120.92027 C 104.11548 120.86113 104.16483 120.81191 104.22671 120.77247 C 104.34331 120.69812 104.4485 120.67052 104.54246 120.68927 C 104.63566 120.70681 104.72166 120.77651 104.7998 120.89908 L 105.19668 121.5223 L 105.04165 121.621 L 104.65149 121.00915 C 104.55363 120.85566 104.43305 120.82408 104.29028 120.9151 C 104.1832 120.98338 104.12874 121.06065 104.12698 121.14713 C 104.12564 121.23166 104.16057 121.32984 104.23188 121.44168 L 104.54711 121.93623 L 104.39001 122.03648 L 103.52546 120.67997 L 103.68256 120.57972 z M 103.17716 121.14816 L 103.31411 121.36934 L 103.59316 121.19674 L 103.66912 121.31921 L 103.39007 121.49181 L 103.73579 122.0494 C 103.77225 122.10813 103.81338 122.14362 103.85878 122.15533 C 103.90464 122.16507 103.94978 122.156 103.99417 122.12846 C 104.01817 122.1136 104.04152 122.0965 104.06445 122.0773 C 104.08665 122.0569 104.10404 122.03958 104.11664 122.02511 L 104.19157 122.14552 C 104.17997 122.16432 104.15983 122.18598 104.13163 122.21011 C 104.10416 122.23544 104.0762 122.25684 104.0474 122.27471 C 103.997 122.30591 103.94489 122.32672 103.89133 122.33672 C 103.8382 122.34479 103.7848 122.33516 103.73165 122.3083 C 103.67852 122.2815 103.62808 122.22917 103.57972 122.1512 L 103.23142 121.58999 L 103.095 121.67474 L 103.04797 121.5993 L 103.14771 121.45047 L 103.08363 121.20604 L 103.17716 121.14816 z M 102.96891 121.57346 L 103.03764 121.7321 C 103.01977 121.7381 103.00056 121.74616 102.97976 121.75536 C 102.96023 121.76389 102.94192 121.773 102.92498 121.78326 C 102.87552 121.81326 102.83743 121.85529 102.81078 121.90935 C 102.78345 121.96222 102.77172 122.02155 102.77512 122.08712 C 102.77912 122.15072 102.80083 122.21518 102.84023 122.28039 L 103.15391 122.79819 L 102.99475 122.89431 L 102.40667 121.92434 L 102.53689 121.84528 L 102.66247 122.01167 L 102.6697 122.00754 C 102.66904 121.93543 102.68149 121.8653 102.70743 121.7967 C 102.73349 121.7281 102.78038 121.67332 102.84799 121.63237 L 102.8485 121.63185 C 102.86664 121.62085 102.88651 121.61033 102.90845 121.60033 C 102.93091 121.5884 102.95104 121.57939 102.96891 121.57346 z M 102.06922 122.20959 C 102.15714 122.22833 102.23508 122.29524 102.30228 122.40958 L 102.69347 123.07569 L 102.57668 123.1439 L 102.46403 123.0235 L 102.45731 123.02763 C 102.44618 123.10619 102.4246 123.17213 102.3922 123.22555 C 102.361 123.27829 102.3039 123.32889 102.22115 123.37748 C 102.13234 123.42968 102.04523 123.44988 101.95967 123.43794 C 101.87339 123.42481 101.80073 123.3682 101.74211 123.26844 C 101.68491 123.17111 101.67912 123.07383 101.72506 122.97647 C 101.77026 122.87791 101.87137 122.7794 102.02788 122.68088 L 102.19066 122.57805 L 102.15656 122.51965 C 102.10869 122.43814 102.05749 122.39206 102.00359 122.38116 C 101.94973 122.37023 101.89082 122.38353 101.82634 122.42147 C 101.77521 122.45147 101.73096 122.48802 101.69405 122.53102 C 101.65638 122.57276 101.6235 122.61506 101.59483 122.65815 L 101.47443 122.56668 C 101.50343 122.51855 101.54263 122.46953 101.59173 122.4194 C 101.64004 122.36817 101.69554 122.32374 101.75865 122.28659 C 101.87768 122.21674 101.98142 122.19089 102.06922 122.20959 z M 102.25371 122.6907 L 102.11315 122.78062 C 101.99434 122.85698 101.92096 122.92641 101.89352 122.98836 C 101.86732 123.04956 101.87256 123.11128 101.90903 123.17336 C 101.94123 123.22809 101.98108 123.25856 102.02891 123.26483 C 102.07798 123.27016 102.12852 123.25764 102.18084 123.2271 C 102.26358 123.1785 102.31946 123.11568 102.34776 123.03848 C 102.37536 122.96008 102.36118 122.87294 102.30538 122.77804 L 102.25371 122.6907 z M 100.99694 122.79974 C 101.07919 122.80174 101.1557 122.82772 101.22586 122.87725 C 101.29656 122.92479 101.35701 122.99328 101.40776 123.08293 L 101.46306 123.18059 L 100.78713 123.563 C 100.85286 123.67335 100.9297 123.7429 101.01709 123.77126 C 101.10502 123.79766 101.1979 123.78293 101.29614 123.72733 C 101.35874 123.69186 101.41106 123.65541 101.45272 123.61726 C 101.49486 123.57719 101.53507 123.53113 101.57416 123.4798 L 101.65478 123.62191 C 101.61698 123.67251 101.57641 123.71656 101.53282 123.7542 C 101.48995 123.79307 101.43448 123.83173 101.36694 123.86996 C 101.27362 123.92276 101.17983 123.95067 101.08582 123.95367 C 100.99305 123.95567 100.9052 123.93048 100.82227 123.87874 C 100.73988 123.82488 100.66762 123.74363 100.60575 123.63431 C 100.54455 123.52625 100.51004 123.42333 100.50188 123.32581 C 100.49494 123.22759 100.51215 123.13931 100.55355 123.06071 C 100.59622 122.98141 100.66119 122.9168 100.74837 122.86744 C 100.83311 122.81944 100.91591 122.79694 100.99694 122.79974 z M 100.93958 122.96045 C 100.90202 122.96429 100.86289 122.97798 100.82175 123.00128 C 100.74439 123.04508 100.69709 123.10504 100.68016 123.18111 C 100.66376 123.25526 100.67642 123.33898 100.71788 123.43226 L 101.22069 123.14752 C 101.17223 123.06472 101.11436 123.00857 101.04706 122.97854 C 101.01308 122.96291 100.97713 122.95662 100.93958 122.96045 z M 98.84823 123.3935 L 99.244588 124.13454 C 99.255255 124.15448 99.268029 124.18149 99.282829 124.21516 C 99.298895 124.24816 99.312837 124.27661 99.32417 124.30094 L 99.330888 124.29681 C 99.332888 124.28287 99.336607 124.26249 99.34174 124.23583 C 99.346407 124.20916 99.351459 124.18285 99.356726 124.15625 C 99.362059 124.12771 99.366979 124.10392 99.371712 124.08545 L 99.510722 123.57695 L 99.702958 123.47463 L 99.526225 124.11852 L 100.2652 124.4601 L 100.06728 124.56604 L 99.470931 124.28492 L 99.409953 124.4446 L 99.606323 124.81202 L 99.444059 124.89884 L 98.685966 123.48032 L 98.84823 123.3935 z M 100.50188 124.07253 C 100.53554 124.07786 100.56504 124.10346 100.59024 124.14953 C 100.61471 124.19406 100.62093 124.2326 100.60833 124.26528 C 100.59693 124.29728 100.57483 124.32196 100.5427 124.3397 C 100.51177 124.3567 100.47972 124.3617 100.44658 124.35417 C 100.41345 124.34663 100.38475 124.32067 100.36028 124.27614 C 100.33508 124.2304 100.32858 124.19221 100.34065 124.16141 C 100.35271 124.13061 100.37437 124.10658 100.40524 124.08958 C 100.43737 124.07192 100.46941 124.06626 100.50188 124.07253 z M 98.464791 124.18467 C 98.555711 124.18867 98.640782 124.22 98.719556 124.2782 C 98.798949 124.33427 98.867014 124.41803 98.924194 124.52987 C 99.009634 124.69697 99.032981 124.84819 98.994474 124.98359 C 98.957208 125.11835 98.866639 125.22286 98.722139 125.29674 C 98.63294 125.34234 98.542792 125.36296 98.451872 125.35876 C 98.361572 125.35276 98.276623 125.32114 98.19659 125.26367 C 98.115912 125.20507 98.046544 125.11969 97.989368 125.00787 C 97.903925 124.84077 97.880648 124.69076 97.918571 124.55726 C 97.956498 124.42376 98.04746 124.32004 98.191939 124.24616 C 98.283659 124.1993 98.374491 124.1786 98.464791 124.18467 z M 98.406396 124.34435 C 98.360032 124.34666 98.311149 124.36087 98.259635 124.38724 C 98.156614 124.43991 98.098831 124.51213 98.087036 124.60376 C 98.075259 124.69525 98.100079 124.80087 98.160933 124.92002 L 98.160933 124.92054 C 98.221886 125.03967 98.294029 125.12257 98.376424 125.1691 C 98.459497 125.21377 98.55245 125.20989 98.655477 125.15722 C 98.757243 125.10515 98.814119 125.03211 98.826526 124.93863 C 98.838326 124.84386 98.813695 124.73708 98.752629 124.61772 C 98.691629 124.49836 98.620121 124.41672 98.537655 124.37329 C 98.496438 124.35155 98.452761 124.34203 98.406396 124.34435 z M 97.341345 124.75156 C 97.432159 124.75756 97.516429 124.79021 97.594043 124.84974 C 97.672308 124.90741 97.739083 124.99263 97.794031 125.10554 C 97.876143 125.2743 97.896222 125.4262 97.855009 125.56081 C 97.815062 125.6948 97.722394 125.79729 97.576473 125.86829 C 97.486382 125.91215 97.395986 125.9312 97.305172 125.92513 C 97.215009 125.9172 97.130322 125.88377 97.05144 125.82488 C 96.971941 125.76468 96.90485 125.67787 96.849902 125.56495 C 96.76779 125.39619 96.746808 125.2455 96.787374 125.11278 C 96.82794 124.98006 96.921025 124.87837 97.066943 124.80737 C 97.159572 124.7623 97.251183 124.74363 97.341345 124.75156 z M 97.279333 124.91021 C 97.232932 124.91154 97.18408 124.9248 97.132056 124.95 C 97.028007 125.0006 96.968932 125.07152 96.955322 125.1629 C 96.941716 125.25426 96.964372 125.36017 97.023018 125.48071 C 97.081672 125.60126 97.15182 125.68571 97.233341 125.73393 C 97.315515 125.78026 97.408346 125.77858 97.512394 125.72824 C 97.615174 125.67824 97.673833 125.60653 97.688094 125.51327 C 97.701741 125.41876 97.679051 125.31084 97.620398 125.19029 C 97.561745 125.06974 97.49163 124.9873 97.410075 124.94224 C 97.369297 124.91971 97.325735 124.90887 97.279333 124.91021 z M 95.470658 125.06007 L 95.634473 125.41508 C 95.654559 125.45862 95.672016 125.50048 95.687183 125.54014 C 95.703036 125.57787 95.714843 125.60809 95.722323 125.63109 L 95.731624 125.62696 C 95.741011 125.56982 95.764754 125.51473 95.802421 125.46159 C 95.840088 125.40846 95.899455 125.3634 95.980188 125.3262 C 96.108333 125.26713 96.231427 125.26457 96.349674 125.31897 C 96.468612 125.37137 96.568891 125.48631 96.650431 125.66313 C 96.731971 125.83997 96.754417 125.9911 96.717611 126.11685 C 96.680804 126.24259 96.599012 126.33482 96.472148 126.39332 C 96.391416 126.43052 96.318404 126.44614 96.253556 126.44034 C 96.18871 126.43434 96.131923 126.41748 96.083541 126.39022 L 96.070105 126.39642 L 96.095943 126.54318 L 95.97502 126.59899 L 95.30116 125.1381 L 95.470658 125.06007 z M 96.14917 125.44816 C 96.106834 125.44796 96.062297 125.45826 96.015845 125.47968 L 96.015845 125.47916 C 95.906922 125.52936 95.845729 125.5958 95.832393 125.67812 C 95.81906 125.76041 95.842847 125.86756 95.903707 125.99954 L 95.907324 126.0073 C 95.965817 126.13416 96.031369 126.22235 96.103695 126.27136 C 96.176707 126.3185 96.269463 126.31593 96.382231 126.26413 C 96.474495 126.22159 96.527342 126.15636 96.540877 126.06776 C 96.555691 125.97857 96.533818 125.86983 96.474731 125.74168 C 96.384772 125.54658 96.276178 125.44874 96.14917 125.44816 z M 94.569938 125.97836 C 94.602918 125.98722 94.629937 126.01636 94.65107 126.06569 C 94.67109 126.11236 94.673025 126.15115 94.657271 126.18248 C 94.642825 126.21321 94.618644 126.23571 94.584924 126.25017 C 94.552498 126.26404 94.520529 126.26588 94.488289 126.25534 C 94.456156 126.24464 94.429735 126.21595 94.409741 126.16956 C 94.388814 126.12054 94.385494 126.08059 94.400439 126.05122 C 94.415439 126.02175 94.439326 125.99998 94.471753 125.98611 C 94.505473 125.97164 94.538252 125.96922 94.569938 125.97836 z M 93.870756 126.27653 C 93.924377 126.27248 93.973473 126.27912 94.018034 126.29668 C 94.106622 126.33055 94.178936 126.41565 94.234558 126.55145 L 94.514644 127.23461 L 94.344112 127.30437 L 94.068677 126.63258 C 93.999684 126.46413 93.886896 126.41234 93.730196 126.47652 C 93.613977 126.52412 93.547349 126.58941 93.529692 126.67289 C 93.512032 126.75637 93.527994 126.85968 93.578267 126.98243 L 93.80151 127.52658 L 93.62891 127.59738 L 93.198962 126.54731 L 93.337972 126.49047 L 93.422205 126.62328 L 93.432023 126.61914 C 93.44351 126.55039 93.4736 126.49055 93.522974 126.43983 C 93.571814 126.38783 93.630012 126.34827 93.696606 126.32097 C 93.759286 126.29531 93.817135 126.28058 93.870756 126.27653 z M 92.595898 126.77831 C 92.642232 126.77304 92.68776 126.77458 92.732324 126.78244 C 92.822267 126.79638 92.903588 126.83628 92.97572 126.90233 C 93.048665 126.9666 93.107554 127.0574 93.152454 127.17467 C 93.21955 127.34994 93.226424 127.50305 93.173641 127.63355 C 93.122174 127.76356 93.020822 127.85718 92.869267 127.91519 C 92.7757 127.95099 92.683775 127.9622 92.593831 127.94826 C 92.504701 127.93253 92.423368 127.89188 92.349919 127.82631 C 92.275965 127.75943 92.216534 127.66712 92.171635 127.54984 C 92.104539 127.37456 92.096921 127.22273 92.148897 127.09405 C 92.200871 126.96536 92.302752 126.87198 92.454305 126.81396 C 92.502407 126.79556 92.549565 126.78357 92.595898 126.77831 z M 94.927539 126.81293 C 94.960519 126.8218 94.987574 126.8502 95.008154 126.8982 C 95.028174 126.94486 95.030109 126.98365 95.014355 127.01499 C 94.999909 127.04572 94.975728 127.06822 94.942008 127.08268 C 94.909582 127.09662 94.877097 127.09845 94.844857 127.08785 C 94.812617 127.07712 94.786845 127.04873 94.766825 127.00207 C 94.746252 126.95407 94.743584 126.91524 94.758557 126.8858 C 94.773564 126.85633 94.796934 126.83455 94.829354 126.82068 C 94.863074 126.80622 94.895852 126.8038 94.927539 126.81293 z M 92.656877 126.93489 C 92.610531 126.93224 92.56053 126.94106 92.506498 126.96176 C 92.398434 127.00309 92.333713 127.06878 92.312195 127.15865 C 92.290675 127.24847 92.303542 127.35591 92.351469 127.48111 C 92.399396 127.60631 92.462043 127.69676 92.539054 127.75189 C 92.61688 127.80523 92.710043 127.81086 92.818107 127.76946 C 92.924853 127.7286 92.989046 127.66267 93.011377 127.57102 C 93.033204 127.47806 93.020029 127.3686 92.972103 127.2434 C 92.924176 127.1182 92.861837 127.02977 92.784517 126.97778 C 92.745857 126.95178 92.703223 126.93754 92.656877 126.93489 z M 90.548478 127.07493 L 90.548478 127.07545 C 90.575178 127.06631 90.601633 127.06778 90.62806 127.07958 C 90.65536 127.08965 90.675778 127.11378 90.689038 127.15245 C 90.701838 127.18985 90.700354 127.22153 90.685421 127.24753 C 90.671794 127.27306 90.651659 127.29059 90.624959 127.29972 C 90.595586 127.30979 90.567663 127.30869 90.541243 127.29662 C 90.514817 127.28482 90.495649 127.26013 90.482849 127.22273 C 90.469589 127.18399 90.469823 127.15236 90.483883 127.12816 C 90.497509 127.10262 90.519112 127.085 90.548478 127.07493 z M 91.831087 127.11627 L 91.829537 127.2806 C 91.79337 127.28009 91.752344 127.28229 91.70603 127.2868 C 91.659717 127.29147 91.618165 127.30041 91.580973 127.31368 C 91.371118 127.38898 91.314211 127.56133 91.410958 127.83096 C 91.457184 127.95979 91.51812 128.04975 91.593376 128.10071 C 91.669481 128.14984 91.758049 128.15655 91.858993 128.12035 C 91.917432 128.09935 91.966212 128.07463 92.005754 128.04696 C 92.04662 128.01883 92.082761 127.98971 92.113757 127.95911 L 92.169568 128.11466 C 92.140381 128.14613 92.105161 128.17441 92.064665 128.19941 C 92.025978 128.22528 91.97642 128.24879 91.91532 128.27072 C 91.821018 128.30459 91.729635 128.31566 91.641435 128.3038 C 91.554563 128.29146 91.475297 128.25223 91.403723 128.18649 C 91.333477 128.12022 91.275882 128.02378 91.230607 127.89762 C 91.183427 127.76613 91.166718 127.65153 91.180998 127.55345 C 91.195278 127.45538 91.232576 127.37371 91.293136 127.30851 C 91.355022 127.24284 91.434184 127.19298 91.529814 127.15865 C 91.584267 127.13911 91.638865 127.12602 91.693628 127.11989 C 91.747915 127.11242 91.793494 127.11147 91.831087 127.11627 z M 90.772237 127.44855 L 91.139657 128.52187 L 90.96344 128.58182 L 90.596021 127.5085 L 90.772237 127.44855 z M 89.434334 127.89349 C 89.488102 127.89432 89.536217 127.90544 89.579028 127.92708 C 89.664235 127.96874 89.728521 128.05971 89.771781 128.19993 L 89.989339 128.90583 L 89.813639 128.96009 L 89.599699 128.26659 C 89.546039 128.09264 89.438013 128.03064 89.276204 128.08055 C 89.156196 128.11755 89.083695 128.17673 89.058647 128.25832 C 89.0336 128.33988 89.040734 128.44421 89.079834 128.57096 L 89.25295 129.1332 L 89.075183 129.18798 L 88.740837 128.10381 L 88.884497 128.05937 L 88.956327 128.19889 L 88.966146 128.19579 C 88.983732 128.12835 89.019407 128.07188 89.073116 128.02578 C 89.126409 127.97831 89.1878 127.94413 89.256567 127.92294 L 89.256567 127.92191 C 89.321291 127.90194 89.380567 127.89265 89.434334 127.89349 z M 86.992623 128.14825 C 87.01993 128.14112 87.046215 128.14479 87.071688 128.15859 C 87.098168 128.17065 87.116642 128.19605 87.126982 128.23558 C 87.136968 128.27378 87.1335 128.30528 87.116646 128.33015 C 87.10116 128.35462 87.079357 128.37056 87.052051 128.37769 C 87.022017 128.38556 86.994325 128.38278 86.968852 128.36891 C 86.943378 128.35511 86.925612 128.32908 86.915625 128.29088 C 86.905285 128.25128 86.90802 128.21989 86.923893 128.19683 C 86.93938 128.17236 86.962583 128.15612 86.992623 128.14825 z M 88.423543 128.19631 L 88.735669 129.30735 C 88.779536 129.46359 88.772508 129.59207 88.714482 129.69338 C 88.657808 129.7943 88.545688 129.86815 88.378585 129.91507 C 88.218273 129.96007 88.081069 129.97394 87.966207 129.95641 L 87.919698 129.79156 C 88.043047 129.81849 88.185392 129.80906 88.347062 129.76366 C 88.440804 129.73732 88.506605 129.68901 88.543949 129.61844 C 88.583036 129.54884 88.58926 129.46653 88.562553 129.37143 L 88.550151 129.32854 C 88.545551 129.31221 88.540111 129.28904 88.533097 129.25878 C 88.525684 129.22718 88.520701 129.20478 88.518628 129.19211 L 88.51036 129.19418 C 88.467893 129.32483 88.370545 129.41139 88.218388 129.45411 C 88.077097 129.49378 87.95277 129.47549 87.844767 129.39882 C 87.738123 129.32177 87.659611 129.19439 87.609639 129.01641 C 87.560813 128.84252 87.561547 128.69343 87.611707 128.56941 C 87.662873 128.44365 87.75858 128.36117 87.898511 128.32188 L 87.898511 128.3224 C 87.970515 128.3022 88.038977 128.29731 88.103666 128.30845 C 88.169713 128.31925 88.230719 128.34693 88.287118 128.39113 L 88.297453 128.38803 L 88.280916 128.23662 L 88.423543 128.19631 z M 88.115035 128.45056 C 88.07004 128.44561 88.020196 128.45059 87.965173 128.46606 C 87.874149 128.49159 87.813974 128.54805 87.784306 128.63556 C 87.754259 128.72167 87.757915 128.83231 87.795675 128.96681 C 87.833441 129.1013 87.886746 129.1974 87.955872 129.25568 C 88.025975 129.31221 88.108818 129.32737 88.203918 129.30063 C 88.313962 129.2697 88.386062 129.21811 88.419926 129.14561 C 88.453406 129.07172 88.451255 128.96888 88.414242 128.8371 L 88.402356 128.79421 C 88.360396 128.64476 88.30448 128.54539 88.234924 128.49603 C 88.199956 128.47067 88.16003 128.45551 88.115035 128.45056 z M 87.18796 128.53686 L 87.474764 129.63446 L 87.294413 129.68201 L 87.007609 128.58388 L 87.18796 128.53686 z M 84.485799 128.6862 L 84.794824 130.26492 L 84.647546 130.29334 L 84.591219 130.14916 L 84.582951 130.15123 C 84.558924 130.20483 84.522292 130.25394 84.473397 130.29799 C 84.424504 130.34206 84.356523 130.37239 84.269275 130.38946 L 84.269275 130.38842 C 84.130788 130.41549 84.010355 130.38966 83.908573 130.31039 C 83.806521 130.2297 83.737179 130.09377 83.699801 129.90267 C 83.662421 129.71155 83.675458 129.55904 83.739591 129.44585 C 83.804838 129.331 83.907029 129.26003 84.045516 129.23294 C 84.131378 129.21614 84.204384 129.21871 84.264624 129.24017 C 84.326251 129.26117 84.378679 129.29116 84.422237 129.33009 L 84.434639 129.32802 C 84.429706 129.31029 84.421768 129.28483 84.410868 129.25103 C 84.401055 129.21556 84.394258 129.18708 84.390198 129.16628 L 84.303381 128.72186 L 84.485799 128.6862 z M 86.57146 128.69499 C 86.63342 128.69299 86.692813 128.69762 86.749227 128.70842 L 86.722355 128.86759 C 86.671055 128.85979 86.61881 128.8549 86.564742 128.85363 C 86.510675 128.8523 86.456453 128.85859 86.402995 128.87172 C 86.328978 128.88985 86.275477 128.91587 86.241764 128.95027 C 86.209091 128.98294 86.197598 129.01971 86.207658 129.06086 C 86.215038 129.09099 86.230463 129.11509 86.25365 129.13269 C 86.276503 129.14889 86.310855 129.16201 86.357003 129.17248 C 86.404189 129.18128 86.465909 129.19115 86.542521 129.20142 C 86.618798 129.21035 86.685423 129.22226 86.741475 129.23759 C 86.797529 129.25292 86.843167 129.27757 86.878935 129.31097 C 86.914368 129.34297 86.939446 129.38845 86.953866 129.4474 C 86.980026 129.55431 86.960001 129.64493 86.893921 129.71921 C 86.827834 129.79349 86.727487 129.84706 86.593164 129.87993 C 86.516406 129.89873 86.448775 129.90902 86.389559 129.91042 C 86.331712 129.91175 86.278769 129.9062 86.230912 129.8944 L 86.190605 129.73007 C 86.239831 129.74127 86.297343 129.74874 86.363721 129.7528 C 86.431131 129.75547 86.49722 129.74872 86.561641 129.73265 C 86.653477 129.71018 86.716701 129.67953 86.750777 129.64067 C 86.784517 129.60047 86.79489 129.55567 86.782817 129.50631 C 86.77611 129.47891 86.762956 129.45636 86.742509 129.43809 C 86.722069 129.41983 86.688927 129.4043 86.643807 129.3921 C 86.60006 129.37957 86.538675 129.3687 86.459322 129.35903 C 86.38134 129.34903 86.313657 129.33631 86.256234 129.32131 C 86.198814 129.30631 86.151448 129.28321 86.11464 129.25154 C 86.077834 129.21988 86.052396 129.17388 86.037642 129.11357 C 86.014836 129.02036 86.034614 128.93933 86.097587 128.87017 C 86.161934 128.80067 86.255861 128.7505 86.379224 128.72031 C 86.446386 128.70391 86.510537 128.69539 86.57146 128.69499 z M 85.460417 128.95337 C 85.503348 128.9547 85.544041 128.96187 85.582373 128.97507 C 85.660414 129.00114 85.725621 129.04779 85.778227 129.11563 C 85.831907 129.18177 85.86964 129.26515 85.891915 129.36575 L 85.916203 129.4753 L 85.15811 129.64325 C 85.188636 129.76801 85.24149 129.85719 85.316756 129.9099 C 85.393096 129.9609 85.486108 129.97409 85.596326 129.94969 C 85.666589 129.93416 85.727242 129.91408 85.778227 129.88975 C 85.830287 129.86375 85.882438 129.83174 85.934806 129.79414 L 85.969946 129.95331 C 85.918953 129.99064 85.867584 130.02106 85.814917 130.04426 C 85.762557 130.06886 85.698457 130.08947 85.622681 130.10627 C 85.517973 130.12947 85.419904 130.12874 85.329159 130.1042 C 85.239791 130.0792 85.163278 130.02987 85.099198 129.95589 C 85.036192 129.88024 84.990967 129.78137 84.963806 129.65875 C 84.936953 129.53751 84.933784 129.42884 84.954504 129.33319 C 84.976611 129.23724 85.018985 129.15798 85.081628 129.09496 C 85.145648 129.03163 85.226688 128.98898 85.324508 128.96732 L 85.324508 128.96681 C 85.372039 128.95627 85.417485 128.95204 85.460417 128.95337 z M 82.591858 129.03398 L 82.85024 130.62148 L 82.666789 130.65146 L 82.40789 129.06396 L 82.591858 129.03398 z M 85.480054 129.11202 C 85.443019 129.10468 85.401666 129.10592 85.355514 129.11615 C 85.268718 129.13535 85.205875 129.17909 85.167411 129.24689 C 85.130018 129.31296 85.117871 129.39668 85.130204 129.49804 L 85.693994 129.37298 C 85.671867 129.27961 85.633251 129.20848 85.577722 129.16007 C 85.549806 129.13517 85.517088 129.11935 85.480054 129.11202 z M 84.261007 129.37763 C 84.215111 129.3672 84.161403 129.36763 84.099776 129.3797 C 84.00145 129.39897 83.935238 129.45331 83.900822 129.54196 C 83.867522 129.629 83.863726 129.73803 83.889453 129.86959 C 83.915453 130.00254 83.95995 130.10126 84.022778 130.16518 C 84.086992 130.22885 84.16905 130.25086 84.268758 130.23133 C 84.386472 130.20833 84.462541 130.16009 84.497168 130.08715 C 84.532908 130.01258 84.538131 129.91037 84.512671 129.78019 L 84.505953 129.74712 C 84.478866 129.60863 84.435267 129.5072 84.375212 129.44274 C 84.345048 129.40981 84.306902 129.38807 84.261007 129.37763 z M 80.04421 129.43603 L 80.04421 129.43654 C 80.072256 129.43321 80.097954 129.43981 80.121208 129.45721 C 80.145701 129.47288 80.160009 129.5013 80.164616 129.54196 C 80.169083 129.58123 80.161601 129.61181 80.141361 129.63395 C 80.122548 129.65595 80.099122 129.66847 80.071082 129.67167 C 80.040235 129.675 80.013203 129.66858 79.98995 129.65152 C 79.966696 129.63425 79.952532 129.60552 79.948092 129.56625 C 79.943492 129.52559 79.950829 129.49538 79.969796 129.47478 C 79.988609 129.45278 80.013363 129.43956 80.04421 129.43603 z M 81.932983 129.62155 C 81.98579 129.62918 82.031184 129.6454 82.068376 129.67064 C 82.14276 129.7211 82.189279 129.81223 82.208419 129.94349 L 82.32004 130.70778 L 82.185681 130.72742 L 82.127287 130.57343 L 82.118502 130.57446 C 82.078588 130.64303 82.033808 130.69584 81.983626 130.73311 C 81.93484 130.77017 81.863085 130.79579 81.768136 130.80959 C 81.666202 130.82445 81.577797 130.80996 81.503035 130.7667 C 81.42807 130.72203 81.382272 130.64247 81.365576 130.52795 C 81.34929 130.41624 81.380414 130.32435 81.459627 130.25148 C 81.538638 130.17721 81.669228 130.12354 81.851335 130.09128 L 82.040987 130.05718 L 82.031169 129.99052 C 82.017529 129.89696 81.988078 129.83488 81.942285 129.80448 C 81.896499 129.77408 81.836458 129.76422 81.762451 129.77502 C 81.703805 129.78356 81.649568 129.80077 81.599154 129.8267 C 81.548534 129.85117 81.501413 129.87773 81.458594 129.9068 L 81.382113 129.77709 C 81.427113 129.74342 81.481546 129.71252 81.545927 129.68459 C 81.6101 129.65526 81.678472 129.63525 81.751082 129.62465 L 81.751599 129.62516 C 81.82002 129.6152 81.880177 129.61391 81.932983 129.62155 z M 81.115462 129.71766 C 81.140842 129.71566 81.162881 129.71554 81.181608 129.71766 L 81.180058 129.89078 C 81.161324 129.88878 81.140799 129.88768 81.118046 129.88768 C 81.096693 129.88753 81.076151 129.88863 81.056551 129.89078 C 80.999151 129.89805 80.947342 129.92098 80.901005 129.95951 C 80.854492 129.99664 80.81914 130.04599 80.795585 130.1073 C 80.773252 130.16704 80.766925 130.2343 80.776465 130.30988 L 80.852429 130.91087 L 80.667428 130.93413 L 80.525317 129.80861 L 80.676729 129.78949 L 80.723755 129.99258 L 80.732023 129.99155 C 80.76065 129.92535 80.800684 129.86634 80.852429 129.8143 C 80.904176 129.76223 80.969366 129.73115 81.047766 129.72128 L 81.047766 129.7218 C 81.068766 129.71913 81.091309 129.71766 81.115462 129.71766 z M 80.182703 129.84892 L 80.309827 130.97598 L 80.124825 130.99717 L 79.997184 129.86959 L 80.182703 129.84892 z M 79.256661 129.9254 L 79.256661 129.92592 C 79.395719 129.91259 79.512398 129.95031 79.605994 130.03909 C 79.700994 130.12778 79.757755 130.26966 79.776526 130.4649 C 79.795026 130.65734 79.766319 130.80756 79.690226 130.91552 C 79.615536 131.02335 79.507712 131.08392 79.367249 131.09742 C 79.280161 131.10582 79.206253 131.09684 79.145557 131.07004 C 79.08613 131.0417 79.038389 131.0071 79.001896 130.96668 L 78.988977 130.96772 C 78.99411 130.99132 78.999737 131.02137 79.00603 131.05763 C 79.012364 131.0939 79.016913 131.12502 79.019466 131.15168 L 79.063908 131.61522 L 78.878906 131.63331 L 78.72181 129.99827 L 78.873222 129.9838 L 78.913529 130.13521 L 78.921798 130.13418 C 78.950784 130.08178 78.991182 130.03621 79.042721 129.99723 C 79.09426 129.95823 79.16536 129.93414 79.256661 129.9254 z M 78.084639 130.02669 C 78.153587 130.02136 78.217747 130.02392 78.277909 130.03392 C 78.339369 130.04199 78.397151 130.05578 78.451025 130.07578 L 78.398832 130.22823 C 78.349499 130.21216 78.298477 130.19909 78.245353 130.18895 C 78.192227 130.17882 78.137966 130.17603 78.083089 130.18017 C 78.007106 130.18617 77.949897 130.20319 77.911007 130.23133 C 77.87342 130.25826 77.856144 130.29302 77.85933 130.3352 C 77.861664 130.36613 77.87292 130.3921 77.89292 130.41323 C 77.912807 130.43296 77.944708 130.45169 77.988521 130.46956 C 78.033628 130.48596 78.092912 130.50522 78.166805 130.52795 C 78.240588 130.54928 78.304191 130.57241 78.356974 130.59668 C 78.409761 130.62101 78.450664 130.65245 78.480481 130.69125 C 78.510194 130.72865 78.527584 130.77753 78.532157 130.83801 C 78.540457 130.94776 78.505645 131.03394 78.428288 131.09639 C 78.350932 131.15886 78.243723 131.19553 78.105827 131.20594 C 78.02703 131.21194 77.958286 131.21048 77.899638 131.20181 C 77.842398 131.19341 77.790965 131.17967 77.745642 131.16047 L 77.732723 130.99149 C 77.77945 131.01062 77.835343 131.02778 77.900155 131.04265 C 77.966261 131.05605 78.032456 131.06005 78.098592 131.05505 C 78.192867 131.04792 78.260152 131.02836 78.30013 130.99562 C 78.340004 130.96149 78.357707 130.91865 78.353874 130.86798 C 78.35174 130.83985 78.342108 130.81542 78.324935 130.79408 C 78.307755 130.77275 78.278041 130.75206 78.235535 130.73259 C 78.194435 130.71306 78.135507 130.69208 78.058801 130.66954 C 77.983505 130.64694 77.918688 130.62398 77.864498 130.59978 C 77.810305 130.57558 77.767458 130.54455 77.73634 130.50728 C 77.70522 130.47001 77.687794 130.42036 77.683114 130.35845 C 77.67588 130.26276 77.708879 130.18589 77.782332 130.12797 C 77.857194 130.06997 77.958001 130.03628 78.084639 130.02669 z M 79.238057 130.08508 C 79.122878 130.09615 79.044476 130.13628 79.00293 130.20549 C 78.96279 130.27456 78.947574 130.37498 78.957454 130.50728 L 78.961072 130.54294 C 78.974438 130.682 79.007017 130.78766 79.059257 130.8592 C 79.11277 130.92918 79.201269 130.95838 79.324874 130.94653 C 79.393701 130.93986 79.448273 130.91522 79.488171 130.87315 C 79.529471 130.83088 79.557544 130.77646 79.572404 130.70985 C 79.588531 130.64167 79.59239 130.5652 79.58429 130.48092 C 79.571863 130.3517 79.53686 130.25101 79.47887 130.17862 C 79.422283 130.10609 79.342003 130.07509 79.238057 130.08508 z M 82.057524 130.18585 L 81.893193 130.21634 C 81.754372 130.24227 81.660312 130.27833 81.611556 130.32538 C 81.564196 130.37225 81.545876 130.43145 81.556262 130.50263 C 81.565422 130.5655 81.59128 130.60905 81.63326 130.63285 C 81.676633 130.65645 81.728246 130.66381 81.788289 130.65507 C 81.883241 130.64121 81.958297 130.60374 82.013599 130.54294 C 82.068699 130.48074 82.088396 130.39504 82.07251 130.2861 L 82.057524 130.18585 z " /><path
             d="M 82.857965,70.625698 C 80.395565,67.853498 72.1901,59.6527 63.3131,61.7525 c 9.4571,2.9151 13.860517,7.603407 16.366517,13.894407 0.959687,-2.025455 1.661198,-3.860967 3.178348,-5.021209 z"
             stroke-linecap="round"
             stroke-width="0.11732"
             id="path55531"
             sodipodi:nodetypes="cccc"
             style="fill:#008000" /><path
             style="opacity:0.92;fill:none;stroke:none;stroke-width:0.105833;stroke-linecap:round"
             d="m 75.703707,131.32601 c 10.241737,-0.79224 45.749483,-5.57406 54.815043,-45.521424"
             id="path55775"
             sodipodi:nodetypes="cc" /><path
             style="fill:none;stroke:none;stroke-width:0.2;stroke-dasharray:none"
             d="m 75.049817,126.39177 c 12.754678,-0.0122 26.650293,-3.04435 47.004153,-21.57749"
             id="path1"
             sodipodi:nodetypes="cc" /></g></g></g></g></svg>
