<?xml version="1.0" encoding="UTF-8" standalone="no"?>
<!-- Created with Inkscape (http://www.inkscape.org/) -->

<svg
   width="86.722771mm"
   height="86.865784mm"
   viewBox="0 0 86.722771 86.865784"
   version="1.1"
   id="svg5"
   inkscape:version="1.3.2 (1:1.3.2+202311252150+091e20ef0f)"
   sodipodi:docname="sun2.svg"
   xml:space="preserve"
   xmlns:inkscape="http://www.inkscape.org/namespaces/inkscape"
   xmlns:sodipodi="http://sodipodi.sourceforge.net/DTD/sodipodi-0.dtd"
   xmlns="http://www.w3.org/2000/svg"
   xmlns:svg="http://www.w3.org/2000/svg"><sodipodi:namedview
     id="namedview7"
     pagecolor="#ffffff"
     bordercolor="#666666"
     borderopacity="1.0"
     inkscape:pageshadow="2"
     inkscape:pageopacity="0.0"
     inkscape:pagecheckerboard="0"
     inkscape:document-units="mm"
     showgrid="false"
     inkscape:zoom="0.7198092"
     inkscape:cx="258.40181"
     inkscape:cy="385.51883"
     inkscape:window-width="1280"
     inkscape:window-height="987"
     inkscape:window-x="0"
     inkscape:window-y="0"
     inkscape:window-maximized="1"
     inkscape:current-layer="layer1"
     inkscape:showpageshadow="2"
     inkscape:deskcolor="#d1d1d1" /><defs
     id="defs2" /><g
     inkscape:label="Layer 1"
     inkscape:groupmode="layer"
     id="layer1"
     transform="translate(-59.996787,-65.111984)"><circle
       style="fill:#ffffff;fill-opacity:0.04351042;stroke:none;stroke-width:0.316283"
       id="path3"
       cx="103.70509"
       cy="108.3838"
       r="41.7952" /><path
       style="fill:#a0c0d2;stroke-width:0.91308;fill-opacity:1"
       d="m 103.20816,145.52701 c -0.1274,-0.0562 -0.41882,-0.301 -0.64761,-0.54407 l -0.41599,-0.44194 0.0555,-5.84181 0.0555,-5.84181 0.3557,-0.36483 c 0.43217,-0.44325 0.74477,-0.6008 1.18761,-0.59857 0.41596,0.002 0.84959,0.20114 1.29402,0.59394 l 0.34059,0.30102 0.0665,5.85596 0.0665,5.85595 -0.374,0.43205 c -0.2057,0.23763 -0.49309,0.4928 -0.63865,0.56704 -0.31516,0.16074 -1.01063,0.17473 -1.34557,0.0271 z M 78.534757,135.30238 c -0.607444,-0.38522 -0.999786,-0.97464 -0.996298,-1.49673 0.0037,-0.60605 0.275705,-0.93657 3.27531,-3.98515 1.681602,-1.70905 4.815201,-4.73597 5.087811,-4.91458 0.414885,-0.27185 1.452911,-0.0944 1.931164,0.3302 0.248678,0.22076 0.511453,0.87219 0.512275,1.26993 6.85e-4,0.33234 -0.03926,0.41333 -0.437612,0.88788 -1.084885,1.29235 -4.812663,5.14299 -6.579008,6.79586 -0.61106,0.5718 -1.253805,1.1045 -1.428331,1.18375 -0.47598,0.21615 -0.951329,0.19138 -1.365311,-0.0711 z m 49.379693,0.0748 c -0.16986,-0.0773 -0.82998,-0.62717 -1.46693,-1.22202 -1.34775,-1.25865 -5.61251,-5.56575 -6.42317,-6.48693 -0.64439,-0.73224 -0.71806,-0.95406 -0.5308,-1.59823 0.31083,-1.06921 1.52102,-1.70889 2.29996,-1.2157 0.84296,0.53371 7.98887,7.72617 8.25217,8.30592 0.29748,0.65498 0.13088,1.30577 -0.4742,1.85243 -0.57222,0.51696 -1.07749,0.62811 -1.65703,0.36453 z m -25.67138,-8.97177 c -1.94172,-0.0712 -2.804848,-0.25681 -4.709643,-1.01282 -1.778982,-0.70609 -3.317996,-1.64276 -4.825446,-2.93687 -2.67685,-2.29799 -4.461776,-4.97148 -5.50623,-8.24731 -0.422491,-1.32511 -0.490224,-1.8984 -0.533303,-4.51423 -0.05378,-3.2641 0.07086,-4.23307 0.797713,-6.20365 1.117108,-3.02853 2.944693,-5.653811 5.319021,-7.640655 2.292452,-1.918336 5.565507,-3.392449 8.441238,-3.801756 0.89545,-0.127456 4.72711,-0.05141 5.76488,0.1144 1.52771,0.244094 2.77597,0.649995 4.42297,1.438229 5.07678,2.429679 9.14225,7.990892 9.59638,13.126992 0.12215,1.38149 0.0524,5.03916 -0.11434,5.99806 -0.32523,1.87012 -1.40668,4.3978 -2.63426,6.15708 -2.48646,3.56343 -6.17084,6.19919 -10.04097,7.1832 -1.27137,0.32325 -3.29054,0.43787 -5.97801,0.33933 z m 4.26804,-3.50209 c 0.87953,-0.16828 2.58649,-0.7601 3.56339,-1.23547 3.67197,-1.7868 6.23614,-5.05783 7.3881,-9.42478 0.17308,-0.65613 0.1833,-0.82183 0.1833,-2.97248 0,-2.5495 -0.0263,-2.74421 -0.5933,-4.40037 -0.8318,-2.4294 -2.13417,-4.41558 -3.9318,-5.99616 -1.69898,-1.493844 -3.23849,-2.339119 -5.39603,-2.96268 -1.42336,-0.411388 -2.11622,-0.495227 -4.09198,-0.495191 l -1.81436,3.7e-5 -1.0423,0.277859 c -2.305125,0.614503 -4.050021,1.508537 -5.78459,2.963868 -2.879773,2.416187 -4.626158,5.770857 -4.95262,9.513637 -0.201225,2.30685 0.336214,5.03239 1.432951,7.26706 0.963418,1.96302 2.543056,3.80781 4.40942,5.14957 1.654419,1.18938 4.413089,2.26312 6.239599,2.42859 1.01308,0.0918 3.67735,0.0229 4.39022,-0.11349 z M 68.08775,110.49118 c -0.519579,-0.46017 -0.665124,-0.74417 -0.665124,-1.29781 0,-0.5376 0.13951,-0.81503 0.667069,-1.32657 l 0.452431,-0.4387 5.863299,0.0712 5.863308,0.0712 0.256603,0.24872 c 0.81823,0.79306 0.835651,1.85444 0.0431,2.62767 l -0.290853,0.28377 -1.621347,0.0414 c -0.891742,0.0227 -3.532224,0.0594 -5.867746,0.0814 l -4.246398,0.0401 z m 62.17035,0.34288 -2.82923,-0.0213 -0.27501,-0.3044 c -0.46249,-0.51192 -0.61146,-0.88282 -0.57631,-1.43482 0.0227,-0.35782 0.0837,-0.56027 0.23965,-0.79586 0.27657,-0.41793 0.52085,-0.56697 1.04713,-0.63885 0.23989,-0.0328 2.88556,-0.066 5.87926,-0.0739 l 5.44311,-0.0142 0.47686,0.43858 c 0.40016,0.36804 0.48969,0.49844 0.55664,0.81059 0.15626,0.72864 -0.0142,1.20273 -0.6248,1.73679 l -0.40605,0.3552 -3.051,-0.0184 c -1.67806,-0.01 -4.32417,-0.0278 -5.88025,-0.0395 z M 85.626049,93.178576 c -1.428067,-1.218497 -4.463803,-4.142663 -6.257841,-6.027863 -1.514554,-1.591499 -1.829092,-2.033101 -1.830689,-2.570212 -0.0018,-0.541986 0.58144,-1.296491 1.22024,-1.579062 0.385795,-0.170655 0.848891,-0.149937 1.246692,0.05579 0.63197,0.32681 7.895898,7.670896 8.239837,8.33077 0.130342,0.250065 0.08802,0.747119 -0.102795,1.205841 -0.254996,0.61317 -0.932337,1.07612 -1.579008,1.079206 -0.32565,0.0018 -0.402951,-0.03926 -0.936436,-0.494451 z m 34.918531,0.374363 c -0.86463,-0.375075 -1.41217,-1.328833 -1.13555,-1.978042 0.23739,-0.557162 5.10488,-5.657838 7.41876,-7.774166 1.17543,-1.075079 1.845,-1.187854 2.64954,-0.446259 0.79931,0.736774 0.8693,1.528725 0.20725,2.345018 -0.79456,0.97969 -6.43563,6.540996 -7.67219,7.56371 -0.44316,0.36652 -0.53604,0.411187 -0.84929,0.408503 -0.19343,-0.0018 -0.47177,-0.05506 -0.61852,-0.118764 z m -17.53363,-7.279724 c -0.18878,-0.121686 -0.43622,-0.321459 -0.54984,-0.443949 l -0.20659,-0.222691 -0.025,-5.674729 c -0.0138,-3.1211 0.003,-5.80709 0.0373,-5.96886 0.11916,-0.562859 0.90142,-1.211922 1.4595,-1.210982 0.51724,8.77e-4 0.85237,0.159743 1.35901,0.644215 l 0.49658,0.474865 -0.0549,5.867746 -0.0549,5.867745 -0.20549,0.220071 c -0.6369,0.682071 -1.59579,0.871909 -2.25569,0.446569 z"
       id="path1" /><path
       d="m 188.97239,214.84628 10.06141,-10.04371 1.7518,1.29531 c 7.39122,5.4653 17.31773,6.98448 26.20624,4.0105 12.2982,-4.11521 20.41254,-16.57803 19.16604,-29.4352 -0.69878,-7.20695 -3.42376,-13.04629 -8.36373,-17.92328 -7.25585,-7.16344 -17.43604,-9.82944 -27.64371,-7.24049 -7.95112,2.01685 -15.39116,8.41096 -18.64621,16.02465 -2.72748,6.38015 -3.06286,13.59315 -0.95322,20.49826 0.65218,2.13478 2.62314,5.96082 4.07468,7.90994 l 1.30724,1.75543 -9.93098,9.99433 c -6.09908,6.13784 -9.98036,10.19091 -10.05955,10.50393 -0.32836,1.30835 0.78127,2.69366 2.15762,2.69366 0.80535,0 0.87762,-0.0668 10.87284,-10.04371 z m 24.41754,-7.94116 c -5.02371,-0.94018 -10.26636,-3.80628 -13.50278,-7.38153 -10.4974,-11.5967 -7.81389,-29.33459 5.66299,-37.42563 4.32547,-2.59687 10.21047,-3.80992 15.23185,-3.13972 6.66587,0.88951 13.29317,4.97685 16.91807,10.43405 2.79819,4.21247 4.00258,7.81902 4.21238,12.61402 0.29785,6.80962 -2.03166,12.90655 -6.83487,17.88974 -4.11483,4.26846 -9.70087,6.89318 -15.74144,7.39616 -1.36118,0.11335 -4.29408,-0.0773 -5.94657,-0.3866 z"
       fill="#a0c0d2"
       stroke-width="0.198536"
       id="path1-3" /></g></svg>
