<?xml version="1.0" encoding="UTF-8"?>
<!-- Created with Inkscape (http://www.inkscape.org/) -->
<svg id="svg5" width="86.723mm" height="86.866mm" version="1.1" viewBox="0 0 86.723 86.866" xml:space="preserve" xmlns="http://www.w3.org/2000/svg"><g id="layer1" transform="translate(-59.997 -65.112)"><path id="path1" d="m102.56 151.49c-0.15017-0.0662-0.49367-0.3548-0.76335-0.64131l-0.49034-0.52092 0.1308-13.772 0.41927-0.43004c0.50941-0.52246 0.87788-0.70817 1.3999-0.70554 0.4903 2e-3 1.0014 0.23709 1.5253 0.70009l0.40146 0.35482 0.0784 6.9025 0.0784 6.9025-0.44084 0.50927c-0.24246 0.2801-0.58122 0.58087-0.75279 0.66838-0.37149 0.18947-1.1912 0.20596-1.586 0.0319zm-29.083-12.052c-0.71601-0.45407-1.1785-1.1488-1.1744-1.7642 0.0044-0.71436 0.32498-1.104 3.8607-4.6974 1.9821-2.0145 5.6758-5.5824 5.9971-5.7929 0.48903-0.32044 1.7126-0.11127 2.2763 0.38921 0.29312 0.26022 0.60286 1.0281 0.60383 1.4969 8.08e-4 0.39174-0.04628 0.48721-0.51582 1.0466-1.2788 1.5233-5.6728 6.0621-7.7548 8.0104-0.72027 0.67399-1.4779 1.3019-1.6836 1.3953-0.56105 0.25478-1.1214 0.22558-1.6093-0.0838zm58.205 0.0882c-0.20022-0.0911-0.97831-0.73926-1.7291-1.4404-1.5886-1.4836-6.6156-6.5605-7.5711-7.6463-0.75956-0.86311-0.84639-1.1246-0.62567-1.8839 0.36638-1.2603 1.7929-2.0143 2.711-1.433 0.99362 0.6291 9.4166 9.107 9.727 9.7904 0.35065 0.77204 0.15427 1.5391-0.55895 2.1835-0.67448 0.60935-1.27 0.74036-1.9532 0.42968zm-30.259-10.575c-2.2887-0.0839-3.3061-0.30271-5.5514-1.1938-2.0969-0.83229-3.911-1.9364-5.6879-3.4618-3.1553-2.7087-5.2592-5.86-6.4903-9.7213-0.498-1.5619-0.57784-2.2377-0.62862-5.321-0.06339-3.8475 0.08352-4.9896 0.94028-7.3124 1.3168-3.5698 3.471-6.6643 6.2696-9.0062 2.7022-2.2612 6.5602-3.9987 9.9499-4.4812 1.0555-0.15024 5.5719-0.0606 6.7952 0.13484 1.8007 0.28772 3.2721 0.76616 5.2134 1.6953 5.9841 2.8639 10.776 9.419 11.311 15.473 0.14398 1.6284 0.0618 5.9398-0.13478 7.07-0.38335 2.2044-1.6581 5.1838-3.105 7.2575-2.9308 4.2003-7.2737 7.3071-11.836 8.467-1.4986 0.38102-3.8786 0.51613-7.0464 0.39998zm5.0308-4.128c1.0367-0.19835 3.0487-0.89594 4.2002-1.4563 4.3282-2.1061 7.3507-5.9618 8.7085-11.109 0.20401-0.77339 0.21606-0.96871 0.21606-3.5037 0-3.0052-0.031-3.2347-0.69933-5.1868-0.98046-2.8636-2.5156-5.2047-4.6345-7.0678-2.0026-1.7608-3.8173-2.7572-6.3604-3.4922-1.6777-0.48491-2.4944-0.58373-4.8233-0.58369l-2.1386 4.3e-5 -1.2286 0.32752c-2.7171 0.72433-4.7738 1.7781-6.8184 3.4936-3.3944 2.848-5.4529 6.8022-5.8378 11.214-0.23719 2.7191 0.3963 5.9318 1.689 8.5658 1.1356 2.3139 2.9976 4.4884 5.1975 6.0699 1.9501 1.4019 5.2018 2.6676 7.3547 2.8626 1.1941 0.1082 4.3346 0.027 5.1748-0.13378zm-45.29-14.63c-0.61244-0.54241-0.784-0.87717-0.784-1.5298 0-0.63368 0.16444-0.9607 0.78629-1.5637l0.53329-0.5171 13.822 0.1678 0.30246 0.29317c0.96446 0.93479 0.985 2.1859 0.0508 3.0973l-0.34283 0.33449-1.9111 0.0488c-1.0511 0.0268-4.1635 0.07-6.9164 0.096l-5.0053 0.0473zm73.281 0.40416-3.3349-0.0251-0.32416-0.3588c-0.54515-0.60341-0.72074-1.0406-0.67931-1.6912 0.0268-0.42177 0.0987-0.6604 0.28248-0.9381 0.326-0.49262 0.61394-0.6683 1.2343-0.75302 0.28277-0.0387 3.4013-0.0778 6.93-0.0871l6.4159-0.0167 0.56209 0.51697c0.47167 0.43381 0.5772 0.58752 0.65612 0.95545 0.18419 0.85887-0.0167 1.4177-0.73647 2.0472l-0.47862 0.41869-3.5963-0.0217c-1.978-0.0118-5.097-0.0328-6.9312-0.0466zm-52.609-20.811c-1.6833-1.4363-5.2616-4.883-7.3762-7.1052-1.7852-1.8759-2.156-2.3965-2.1579-3.0296-0.0021-0.63885 0.68536-1.5282 1.4383-1.8613 0.45474-0.20115 1.0006-0.17673 1.4695 0.06576 0.74492 0.38522 9.3071 9.0418 9.7125 9.8196 0.15364 0.29476 0.10375 0.88064-0.12117 1.4213-0.30057 0.72276-1.099 1.2684-1.8612 1.2721-0.38385 0.0021-0.47497-0.04628-1.1038-0.58282zm41.159 0.44127c-1.0192-0.44211-1.6646-1.5663-1.3385-2.3316 0.27981-0.65674 6.0172-6.669 8.7446-9.1636 1.3855-1.2672 2.1747-1.4001 3.1231-0.52601 0.94216 0.86845 1.0247 1.8019 0.24429 2.7641-0.93657 1.1548-7.5858 7.71-9.0434 8.9155-0.52236 0.43202-0.63184 0.48467-1.0011 0.48151-0.228-0.0021-0.55609-0.0649-0.72907-0.13999zm-20.667-8.5808c-0.22252-0.14343-0.51419-0.37891-0.64811-0.52329l-0.24351-0.26249-0.0295-6.6889c-0.0163-3.6789 4e-3 -6.8449 0.044-7.0356 0.14046-0.66345 1.0625-1.4285 1.7204-1.4274 0.60968 1e-3 1.0047 0.18829 1.6019 0.75935l0.58533 0.55973-0.0647 6.9164-0.0647 6.9164-0.24222 0.2594c-0.75073 0.80397-1.881 1.0277-2.6588 0.52638z" fill="#808080" stroke-width="1.0763"/></g></svg>
