<?xml version="1.0" encoding="UTF-8" standalone="no"?>
<!-- Created with Inkscape (http://www.inkscape.org/) -->

<svg
   width="43.567mm"
   height="38.681mm"
   version="1.1"
   viewBox="0 0 43.567 38.681"
   id="svg4"
   sodipodi:docname="vitalize-biodiversity-icon-from-ecobricks-org.svg"
   inkscape:version="1.3.2 (1:1.3.2+202311252150+091e20ef0f)"
   xmlns:inkscape="http://www.inkscape.org/namespaces/inkscape"
   xmlns:sodipodi="http://sodipodi.sourceforge.net/DTD/sodipodi-0.dtd"
   xmlns="http://www.w3.org/2000/svg"
   xmlns:svg="http://www.w3.org/2000/svg">
  <defs
     id="defs4" />
  <sodipodi:namedview
     id="namedview4"
     pagecolor="#ffffff"
     bordercolor="#000000"
     borderopacity="0.25"
     inkscape:showpageshadow="2"
     inkscape:pageopacity="0.0"
     inkscape:pagecheckerboard="0"
     inkscape:deskcolor="#d1d1d1"
     inkscape:document-units="mm"
     inkscape:zoom="2.22014"
     inkscape:cx="122.74001"
     inkscape:cy="75.896115"
     inkscape:window-width="1503"
     inkscape:window-height="933"
     inkscape:window-x="0"
     inkscape:window-y="0"
     inkscape:window-maximized="1"
     inkscape:current-layer="g4" />
  <g
     transform="translate(-141.98 -75.258)"
     fill="#008000"
     id="g4">
    <path
       d="m146.78 84.879c-0.0159-3.4809 0.0665-5.3021 0.50994-5.792 0.73554-0.81276 2.7021-0.56954 4.4377 0.3173 1.7887 0.91395 4.9967 3.0197 7.3284 5.6938 2.4421 2.8008 3.2414 3.7552 4.0478 6.1452 5e-3 0.01488 0.0137 0.0044-2e-3 0.0044-0.29205-9.1e-4 -0.42368 0.06528-0.4241 0.31699l-9e-3 5.5458h-3.3643c-1.5559 0-1.2358 0.0022-2.1295 0.01534-0.38024 0.0056-0.40336 0.19734-0.4165 0.35928-0.0132 0.16286 3.9e-4 0.27774 3.9e-4 0.3821-8.0743-0.94406-9.9066-6.2285-9.9787-12.988z"
       stop-color="#000000"
       id="path1" />
    <path
       d="m154.76 109.58c-1.5835-1.0042-4.0911-4.2346-4.3477-5.6025-0.39135-2.0861 1.0136-3.9836 3.0563-4.9854 1.0399-0.51001 1.9615-0.92113 3.2656-0.93181 0.0244-2e-4 0.0116-0.01658 0.012 0.01111 9.3e-4 0.06473 9e-3 0.26824 9e-3 0.32616 0 0.34401 0.18017 0.41018 0.43826 0.41018 0.43216 0 1.8078 0.0019 2.3616 0.0022l3.0476-0.0082v3.2348l-3e-5 2.1466c4e-3 0.39562 0.10542 0.50362 0.50613 0.50429 0.15016 2.4e-4 -0.19245-6.7e-4 -0.0322-2.9e-4 -1.2453 0.54209-1.5053 2.1307-1.97 2.8052-1.8803 2.9906-4.2267 3.8264-6.3468 2.0876z"
       stop-color="#000000"
       id="path2" />
    <path
       id="path3"
       d="M 178.30026 78.59113 C 177.43804 78.609297 176.38886 78.904642 175.41258 79.403483 C 173.62389 80.317432 170.41553 82.423095 168.08383 85.097193 C 165.64174 87.89799 164.84242 88.852556 164.03602 91.242554 C 164.03102 91.257444 164.02239 91.246688 164.03809 91.246688 C 164.33013 91.245778 164.46193 91.311755 164.46235 91.563465 L 164.47113 97.109379 L 167.83579 97.109379 C 169.39168 97.109379 169.07116 97.111742 169.96486 97.124882 C 170.34509 97.130482 170.36823 97.322094 170.38137 97.484034 C 170.39457 97.646893 170.38137 97.762079 170.38137 97.866439 C 178.45566 96.92238 180.28799 91.637578 180.36009 84.878085 C 180.37599 81.397188 180.29348 79.57609 179.85004 79.08619 C 179.52824 78.730608 178.97089 78.577 178.30026 78.59113 z M 178.95449 81.680347 L 179.4449 81.863282 C 179.48563 81.878036 179.51836 81.897221 179.54257 81.921159 C 179.56677 81.944563 179.57903 81.977105 179.57926 82.018828 C 179.57933 82.031666 179.57821 82.042781 179.57667 82.052417 C 179.57567 82.062051 179.57465 82.070776 179.57305 82.077739 L 179.51673 82.077739 C 179.51779 82.071852 179.51883 82.065101 179.51983 82.057068 C 179.52083 82.048504 179.52138 82.039807 179.52138 82.030713 C 179.52124 82.006108 179.51418 81.986187 179.50019 81.971285 C 179.4862 81.955849 179.46743 81.944061 179.44438 81.935629 L 179.38754 81.913408 L 178.95655 82.089108 L 178.95655 82.01366 L 179.20047 81.919092 C 179.22182 81.910951 179.24273 81.903399 179.26248 81.896871 C 179.2817 81.890345 179.30014 81.885706 179.31777 81.882402 L 179.31777 81.879301 C 179.30438 81.876168 179.2865 81.871154 179.26506 81.864315 C 179.2431 81.857482 179.22141 81.850496 179.19943 81.843128 L 178.955 81.756828 L 178.95449 81.680347 z M 179.32811 82.107194 L 179.38185 82.107194 C 179.38558 82.114684 179.3885 82.125326 179.39064 82.139234 C 179.3933 82.153142 179.39477 82.166703 179.39477 82.179541 C 179.39477 82.202007 179.39089 82.222813 179.3834 82.24207 C 179.37538 82.260791 179.36184 82.275778 179.34258 82.287545 C 179.32332 82.299312 179.29621 82.305118 179.26145 82.305115 L 179.01133 82.305115 L 179.01133 82.366093 L 178.97722 82.366093 L 178.94932 82.304598 L 178.85785 82.276176 L 178.85785 82.234835 L 178.95655 82.234835 L 178.95655 82.110295 L 179.01133 82.110295 L 179.01133 82.234835 L 179.2599 82.234835 C 179.28611 82.234837 179.30546 82.228534 179.31829 82.216232 C 179.3306 82.203395 179.33689 82.186931 179.33689 82.167139 C 179.33689 82.156441 179.33591 82.145816 179.33431 82.134583 C 179.33218 82.12335 179.33024 82.114148 179.32811 82.107194 z M 178.83977 82.43689 C 178.85475 82.436952 178.8659 82.44122 178.87336 82.449809 C 178.88081 82.457864 178.88476 82.467533 178.88472 82.478231 C 178.88468 82.489999 178.88088 82.499694 178.87336 82.507687 C 178.86584 82.515679 178.85475 82.519634 178.83977 82.519572 C 178.82425 82.519508 178.8131 82.515222 178.80618 82.50717 C 178.79872 82.499115 178.79476 82.489482 178.79481 82.477714 C 178.79485 82.467016 178.79865 82.457802 178.80618 82.449809 C 178.81316 82.441279 178.82425 82.436825 178.83977 82.43689 z M 178.95604 82.443608 L 179.3865 82.445675 L 179.38599 82.515955 L 178.95604 82.514405 L 178.95604 82.443608 z M 179.26713 82.616207 C 179.30885 82.61659 179.34007 82.63253 179.36118 82.66375 C 179.38229 82.694969 179.39267 82.736387 179.39219 82.788806 C 179.39191 82.81876 179.38943 82.844952 179.38444 82.866838 C 179.37944 82.888189 179.37248 82.907179 179.36376 82.923682 L 179.29969 82.923165 C 179.3084 82.906127 179.31626 82.885672 179.32397 82.86167 C 179.33115 82.837129 179.33512 82.811879 179.33534 82.786739 C 179.33567 82.750901 179.3304 82.724857 179.31932 82.708708 C 179.3077 82.692553 179.29207 82.684597 179.27281 82.68442 C 179.26211 82.684322 179.25248 82.6874 179.24388 82.693205 C 179.23526 82.699012 179.22674 82.709296 179.21804 82.724728 C 179.20934 82.739626 179.19954 82.761073 179.18858 82.789323 C 179.17763 82.817039 179.16639 82.840943 179.15551 82.860637 C 179.14463 82.880329 179.13182 82.895551 179.11675 82.906112 C 179.10168 82.916673 179.08241 82.921831 179.05887 82.921615 C 179.0225 82.921281 178.99468 82.906257 178.97516 82.876656 C 178.95564 82.846521 178.94578 82.807491 178.94622 82.759351 C 178.94646 82.733142 178.94944 82.708904 178.955 82.686487 C 178.96 82.663531 178.96741 82.642116 178.97671 82.622408 L 179.03252 82.646696 C 179.02487 82.664814 179.01842 82.683798 179.01288 82.70354 C 179.00735 82.723282 179.0043 82.743658 179.0041 82.764519 C 179.00383 82.793403 179.00856 82.815581 179.01805 82.831181 C 179.027 82.846241 179.03921 82.853771 179.05526 82.853919 C 179.06702 82.854027 179.07713 82.850976 179.08575 82.8441 C 179.09383 82.83722 179.10238 82.82545 179.11055 82.809477 C 179.11819 82.792964 179.12751 82.771546 179.13846 82.744365 C 179.14887 82.717179 179.1591 82.69376 179.16998 82.674602 C 179.18085 82.655444 179.19416 82.640697 179.20977 82.630677 C 179.22484 82.620651 179.24413 82.615997 179.26713 82.616207 z M 178.9488 82.975358 L 179.01392 82.985177 C 179.01218 82.992105 179.01046 82.99989 179.00926 83.008431 C 179.00806 83.016437 179.00733 83.024198 179.0072 83.031686 C 179.00686 83.053614 179.01277 83.074251 179.02477 83.093697 C 179.03623 83.113135 179.05315 83.129132 179.07489 83.14124 C 179.09611 83.152804 179.12094 83.158877 179.14982 83.159326 L 179.37927 83.162427 L 179.37823 83.233224 L 178.94829 83.226506 L 178.94932 83.168628 L 179.02787 83.16191 L 179.02787 83.15881 C 179.00455 83.144538 178.9847 83.126228 178.96792 83.104033 C 178.95115 83.081838 178.94265 83.055953 178.94312 83.026001 C 178.94324 83.017979 178.94398 83.009239 178.94519 83.000163 C 178.94585 82.990544 178.94707 82.982286 178.9488 82.975358 z M 179.13277 83.335026 L 179.17515 83.33606 L 179.16843 83.630616 C 179.21711 83.630658 179.25487 83.618936 179.28108 83.595992 C 179.30677 83.572502 179.3199 83.539556 179.32087 83.496774 C 179.3215 83.4695 179.31955 83.445393 179.31519 83.424427 C 179.31032 83.402913 179.30362 83.380444 179.29452 83.357764 L 179.35601 83.359314 C 179.36514 83.38146 179.37186 83.403455 179.37565 83.424943 C 179.37998 83.446444 179.38148 83.472012 179.38082 83.501424 C 179.37988 83.542067 179.37072 83.577738 179.35343 83.608911 C 179.33614 83.639549 179.31101 83.663322 179.27798 83.680225 C 179.24444 83.69658 179.20414 83.704049 179.15654 83.702963 C 179.10948 83.701889 179.06896 83.693404 179.03562 83.677124 C 179.00229 83.660312 178.97719 83.637669 178.95965 83.608911 C 178.94213 83.579618 178.93347 83.545594 178.93433 83.507626 C 178.9352 83.470726 178.94407 83.439412 178.96069 83.413575 C 178.97734 83.387203 179.00072 83.367379 179.03045 83.354147 C 179.05966 83.340367 179.09373 83.334134 179.13277 83.335026 z M 179.11727 83.408407 C 179.08089 83.408111 179.05122 83.416113 179.02838 83.432178 C 179.00501 83.448231 178.99303 83.47438 178.99221 83.510209 C 178.99141 83.5439 179.00171 83.570537 179.02322 83.590825 C 179.04417 83.610565 179.0742 83.622892 179.11262 83.627515 L 179.11727 83.408407 z M 178.93743 83.738619 L 179.36221 83.915869 L 179.35963 83.997001 L 178.92451 84.14583 L 178.9271 84.070899 L 179.1829 83.987183 C 179.19479 83.983276 179.2081 83.979143 179.22269 83.974781 C 179.23727 83.970421 179.25158 83.966735 179.26506 83.963412 C 179.27801 83.960072 179.289 83.957497 179.29814 83.956177 L 179.29814 83.953076 C 179.28912 83.950656 179.2778 83.947425 179.26455 83.943258 C 179.25131 83.938565 179.23801 83.933538 179.22372 83.928272 C 179.20945 83.922472 179.19659 83.917379 179.18548 83.913286 L 178.93485 83.814067 L 178.93743 83.738619 z M 178.80566 84.202157 C 178.82063 84.202722 178.83157 84.207791 178.83873 84.216626 C 178.84591 84.224927 178.84947 84.234358 178.84907 84.245048 C 178.84862 84.256808 178.84445 84.266251 178.83667 84.273987 C 178.82888 84.281722 178.81753 84.285404 178.80256 84.284839 C 178.78706 84.284254 178.77613 84.2802 178.76949 84.27192 C 178.76231 84.263619 178.75871 84.25319 178.75915 84.241431 C 178.75955 84.23074 178.76377 84.221778 178.77155 84.214042 C 178.77883 84.205752 178.79016 84.201572 178.80566 84.202157 z M 178.92141 84.213009 L 179.35136 84.229545 L 179.34878 84.299825 L 178.91883 84.283806 L 178.92141 84.213009 z M 178.73435 84.404729 L 179.34361 84.432634 L 179.34103 84.489478 L 179.28315 84.497229 L 179.28263 84.50033 C 179.30022 84.513979 179.31522 84.532117 179.32707 84.554073 C 179.33893 84.576029 179.3441 84.603607 179.34258 84.637272 C 179.34018 84.690708 179.31995 84.732457 179.2816 84.762846 C 179.24274 84.793211 179.18636 84.807016 179.11262 84.803671 C 179.03888 84.800324 178.98372 84.781617 178.94777 84.74786 C 178.91131 84.713543 178.89471 84.669521 178.89713 84.616085 C 178.89866 84.582954 178.90562 84.556269 178.91883 84.535987 C 178.93209 84.51517 178.94813 84.498937 178.96637 84.486377 L 178.96637 84.48121 C 178.9594 84.481429 178.94931 84.482283 178.93588 84.483277 C 178.92194 84.483715 178.91083 84.48364 178.90281 84.483277 L 178.73125 84.475525 L 178.73435 84.404729 z M 179.1276 84.492578 C 179.07417 84.490152 179.0327 84.497414 179.00358 84.513766 C 178.97393 84.53009 178.9582 84.561809 178.95604 84.609367 C 178.9543 84.647307 178.96778 84.676598 178.99738 84.697217 C 179.02645 84.717277 179.0665 84.728503 179.11727 84.730807 C 179.16857 84.733133 179.20902 84.725486 179.23819 84.708069 C 179.26738 84.690117 179.28295 84.661794 179.2847 84.62332 C 179.28677 84.577899 179.2759 84.545451 179.25214 84.526168 C 179.22788 84.506326 179.19024 84.495374 179.14001 84.493095 L 179.1276 84.492578 z M 179.10642 84.887386 C 179.17745 84.891413 179.23175 84.912424 179.26868 84.950948 C 179.30564 84.98894 179.32229 85.038877 179.31881 85.100293 C 179.31667 85.138211 179.30608 85.171607 179.28728 85.200546 C 179.268 85.22892 179.24127 85.250445 179.20719 85.265658 C 179.17257 85.280838 179.13173 85.286955 179.0842 85.284261 C 179.01317 85.280261 178.95939 85.25972 178.92296 85.221733 C 178.88654 85.183772 178.86988 85.133804 178.87336 85.072388 C 178.87556 85.033402 178.88661 84.999993 178.90591 84.971619 C 178.9247 84.94268 178.95093 84.920669 178.98498 84.90599 C 179.01852 84.890747 179.05889 84.884693 179.10642 84.887386 z M 179.10228 84.96025 C 179.05155 84.957377 179.01135 84.964847 178.98136 84.983505 C 178.95137 85.002165 178.93527 85.033764 178.93278 85.077556 C 178.93032 85.121348 178.9428 85.153829 178.97051 85.175224 C 178.99823 85.196619 179.03759 85.208522 179.08833 85.211398 C 179.13906 85.214271 179.17977 85.206723 179.2108 85.18866 C 179.24133 85.170031 179.25793 85.138918 179.26041 85.095126 C 179.26288 85.051867 179.24989 85.019416 179.22165 84.997457 C 179.19289 84.975468 179.15301 84.963125 179.10228 84.96025 z M 178.74726 85.36746 C 178.76221 85.36846 178.77291 85.373447 178.77982 85.382447 C 178.78677 85.39094 178.79033 85.400705 178.78964 85.411385 C 178.78891 85.423125 178.78423 85.432804 178.7762 85.440324 C 178.76821 85.447844 178.75704 85.451129 178.7421 85.450143 C 178.72662 85.449143 178.71544 85.44414 178.70902 85.435673 C 178.70207 85.42718 178.69897 85.416931 178.69972 85.405184 C 178.70039 85.394511 178.70461 85.385832 178.71264 85.378313 C 178.72013 85.370226 178.73178 85.366454 178.74726 85.36746 z M 178.86302 85.381413 L 179.29193 85.409318 L 179.28728 85.480115 L 178.85837 85.451693 L 178.86302 85.381413 z M 179.06611 85.575716 C 179.13972 85.581183 179.19397 85.601885 179.22889 85.637211 C 179.26381 85.672525 179.27932 85.71669 179.2754 85.769503 C 179.27293 85.80311 179.26448 85.830208 179.25059 85.850635 C 179.23674 85.871062 179.22104 85.886661 179.20305 85.897661 L 179.20253 85.903345 L 179.25576 85.921432 L 179.25214 85.972075 L 178.64391 85.926599 L 178.64908 85.856319 L 178.79739 85.867172 C 178.81553 85.868505 178.83263 85.870589 178.84855 85.872856 C 178.86398 85.874523 178.87625 85.87629 178.88524 85.878024 L 178.88524 85.873889 C 178.86801 85.860269 178.85406 85.842393 178.84338 85.820146 C 178.8327 85.797899 178.82849 85.770037 178.83098 85.73643 C 178.83491 85.683084 178.85686 85.641634 178.89661 85.612407 C 178.93584 85.5826 178.99249 85.570243 179.06611 85.575716 z M 179.05991 85.64858 C 178.95162 85.640527 178.89461 85.675099 178.88886 85.75245 C 178.88546 85.79779 178.89604 85.830572 178.9209 85.850118 C 178.94573 85.869665 178.98585 85.881172 179.04079 85.885258 L 179.04389 85.885775 C 179.0967 85.889708 179.13786 85.884212 179.16739 85.869239 C 179.19644 85.853699 179.21248 85.822134 179.21597 85.775188 C 179.21884 85.736781 179.20721 85.707594 179.18031 85.686821 C 179.15347 85.665514 179.11325 85.652547 179.05991 85.64858 z M 178.67492 85.998946 L 179.22786 86.260429 L 179.22217 86.329159 L 178.66923 86.067676 L 178.67492 85.998946 z M 178.93692 86.359131 C 178.9573 86.356808 178.97937 86.356835 179.00306 86.359131 C 179.07387 86.365998 179.12687 86.389438 179.16223 86.429411 C 179.19763 86.468851 179.21208 86.519079 179.20615 86.580306 C 179.20248 86.618106 179.19094 86.651358 179.17101 86.679525 C 179.1506 86.707105 179.12299 86.727703 179.08833 86.741537 C 179.05314 86.755323 179.01169 86.760083 178.96431 86.755489 C 178.89349 86.748623 178.84105 86.72563 178.80618 86.686243 C 178.7713 86.646856 178.75683 86.596061 178.76277 86.534831 C 178.76657 86.495964 178.77857 86.463192 178.79894 86.435612 C 178.81887 86.407446 178.84598 86.386384 178.88059 86.373084 C 178.89765 86.36614 178.91654 86.361455 178.93692 86.359131 z M 178.99583 86.431995 C 178.94525 86.427062 178.90458 86.433125 178.87387 86.450598 C 178.84316 86.468045 178.82591 86.498929 178.82168 86.542583 C 178.81748 86.586242 178.82846 86.619315 178.85527 86.641801 C 178.88211 86.664288 178.92096 86.677726 178.97154 86.682626 C 179.02212 86.687559 179.06332 86.681896 179.09505 86.665056 C 179.12629 86.647662 179.14404 86.616732 179.14827 86.573072 C 179.15247 86.529945 179.14099 86.49692 179.11365 86.473853 C 179.0858 86.450733 179.04641 86.436902 178.99583 86.431995 z M 178.62427 86.822152 C 178.63917 86.823752 178.6503 86.829368 178.65683 86.838688 C 178.66343 86.847468 178.66623 86.856987 178.6651 86.867627 C 178.66383 86.879327 178.65893 86.888876 178.65063 86.896049 C 178.64232 86.903223 178.63038 86.905891 178.61549 86.904318 C 178.60007 86.902651 178.58951 86.897535 178.58345 86.888815 C 178.57685 86.880035 178.57443 86.869509 178.5757 86.857809 C 178.57683 86.847175 178.58133 86.838634 178.58965 86.831454 C 178.59749 86.823687 178.60885 86.820519 178.62427 86.822152 z M 178.73951 86.840756 L 179.16688 86.887264 L 179.15964 86.957544 L 178.73176 86.911035 L 178.73951 86.840756 z M 179.10228 87.078984 C 179.12142 87.081184 179.13473 87.087554 179.14207 87.098621 C 179.14948 87.109161 179.15246 87.121491 179.15086 87.135311 C 179.14932 87.148598 179.14391 87.159281 179.13432 87.167867 C 179.12472 87.176454 179.11005 87.179873 179.09091 87.177686 C 179.07125 87.175419 179.058 87.169039 179.05112 87.158566 C 179.04425 87.148086 179.04183 87.136196 179.04337 87.122909 C 179.04497 87.109096 179.05034 87.097972 179.05939 87.089319 C 179.06852 87.080139 179.08262 87.076731 179.10228 87.078984 z M 178.84235 87.269153 L 179.12037 87.304293 L 179.11158 87.37354 L 178.83822 87.338916 C 178.76976 87.33021 178.73159 87.357925 178.72349 87.421599 C 178.71749 87.468825 178.72666 87.503017 178.75088 87.524435 C 178.77512 87.545855 178.81211 87.559946 178.86199 87.566293 L 179.08316 87.594198 L 179.07438 87.664478 L 178.64805 87.610218 L 178.65528 87.553374 L 178.71471 87.550273 L 178.71523 87.546656 C 178.69469 87.530022 178.68036 87.508854 178.67285 87.483094 C 178.66481 87.457267 178.66269 87.430572 178.66613 87.403512 C 178.6726 87.352572 178.69007 87.315754 178.71833 87.292924 C 178.74605 87.270031 178.78717 87.262133 178.84235 87.269153 z M 178.76328 87.734758 C 178.78061 87.733624 178.79926 87.734535 178.81858 87.737342 L 178.86044 87.743543 L 178.81806 88.034998 C 178.86639 88.040931 178.90503 88.033934 178.93382 88.014327 C 178.96215 87.994114 178.97935 87.96314 178.98549 87.920793 C 178.98943 87.893793 178.99091 87.869263 178.98911 87.847929 C 178.98691 87.825989 178.98252 87.803336 178.97619 87.779716 L 179.03717 87.788501 C 179.04357 87.811588 179.0474 87.834411 179.04854 87.856197 C 179.05021 87.878064 179.04912 87.903565 179.04492 87.932679 C 179.03905 87.972912 179.02553 88.007181 179.00461 88.036031 C 178.98375 88.064351 178.95572 88.08474 178.9209 88.097526 C 178.88562 88.109706 178.8445 88.112641 178.79739 88.105795 C 178.7508 88.099035 178.71224 88.085674 178.68112 88.065487 C 178.65007 88.044767 178.62735 88.018639 178.61342 87.987972 C 178.59957 87.956772 178.59557 87.922719 178.60102 87.885136 C 178.60629 87.84861 178.61855 87.818336 178.63823 87.794702 C 178.65795 87.770536 178.6836 87.7536 178.71471 87.74406 C 178.73004 87.738986 178.74596 87.735891 178.76328 87.734758 z M 178.74468 87.808138 C 178.72951 87.810262 178.71565 87.814477 178.70334 87.821057 C 178.67819 87.834164 178.66301 87.858455 178.65786 87.893921 C 178.653 87.927268 178.66016 87.955414 178.67905 87.978154 C 178.69746 88.00028 178.72519 88.015939 178.76277 88.025179 L 178.79429 87.808655 C 178.77625 87.806322 178.75985 87.806015 178.74468 87.808138 z M 178.64236 88.196228 C 178.66309 88.193002 178.68701 88.193299 178.71419 88.197779 L 178.99066 88.243254 L 178.97929 88.3125 L 178.70747 88.267542 C 178.63939 88.256329 178.60008 88.28224 178.58965 88.345573 C 178.58183 88.393073 178.58998 88.428095 178.61394 88.450476 C 178.63746 88.472243 178.6744 88.487268 178.72401 88.495435 L 178.94312 88.531608 L 178.93175 88.601372 L 178.32972 88.502153 L 178.3416 88.43239 L 178.51782 88.461845 C 178.53893 88.465312 178.55869 88.469588 178.57673 88.475281 L 178.57725 88.47063 C 178.55787 88.453344 178.54472 88.432115 178.53746 88.407068 C 178.53029 88.381495 178.52882 88.354933 178.53332 88.327486 C 178.54184 88.27576 178.56059 88.239189 178.58965 88.217416 C 178.60392 88.206482 178.62164 88.199455 178.64236 88.196228 z M 178.49302 88.611707 L 178.54676 88.621525 L 178.52402 88.743999 L 178.76897 88.78844 C 178.79476 88.793174 178.81511 88.790489 178.82995 88.780689 C 178.84435 88.770269 178.85327 88.755204 178.85682 88.73573 C 178.85875 88.725204 178.86004 88.714514 178.86044 88.703174 C 178.86035 88.691741 178.85973 88.682496 178.85889 88.675269 L 178.91211 88.684571 C 178.91445 88.692611 178.9151 88.704094 178.9147 88.71816 C 178.91483 88.73232 178.91393 88.745318 178.9116 88.757951 C 178.9076 88.780051 178.90023 88.800296 178.88937 88.817896 C 178.87812 88.834876 178.86185 88.846983 178.8408 88.855103 C 178.81975 88.863223 178.79232 88.864457 178.75812 88.858203 L 178.51162 88.813245 L 178.50077 88.87319 L 178.4677 88.866988 L 178.45116 88.801359 L 178.36589 88.757434 L 178.37364 88.716093 L 178.4708 88.73418 L 178.49302 88.611707 z M 178.44031 88.881458 L 178.50284 88.902645 C 178.4999 88.909179 178.49672 88.916699 178.49405 88.924866 C 178.49145 88.932533 178.48932 88.940257 178.48785 88.947604 C 178.48358 88.969117 178.48572 88.990402 178.49405 89.011682 C 178.50186 89.032856 178.51564 89.051183 178.53487 89.066976 C 178.55369 89.082143 178.57733 89.092389 178.60567 89.097982 L 178.83046 89.142424 L 178.81703 89.21167 L 178.39483 89.128471 L 178.4062 89.071627 L 178.48475 89.079379 L 178.48527 89.076278 C 178.46487 89.058071 178.44872 89.036516 178.43617 89.011682 C 178.42363 88.986849 178.42003 88.959937 178.42584 88.93055 L 178.42584 88.930034 C 178.42737 88.92216 178.42976 88.913942 178.43256 88.905229 C 178.43496 88.895889 178.43737 88.887971 178.44031 88.881458 z M 178.43876 89.275232 C 178.458 89.272994 178.47982 89.274526 178.50439 89.279883 L 178.79067 89.342412 L 178.77982 89.392538 L 178.71729 89.392538 L 178.71626 89.395638 C 178.73527 89.418945 178.74848 89.442111 178.75502 89.464885 C 178.76168 89.487138 178.76075 89.516161 178.75295 89.551701 C 178.74463 89.589854 178.72815 89.619315 178.70282 89.640068 C 178.67697 89.660708 178.64233 89.666461 178.59947 89.657121 C 178.55766 89.648008 178.52899 89.624151 178.51369 89.586324 C 178.49787 89.548384 178.49674 89.495048 178.50955 89.426127 L 178.52247 89.354297 L 178.49767 89.348613 C 178.46265 89.340979 178.43653 89.343681 178.41964 89.355847 C 178.40274 89.368041 178.39105 89.387575 178.38501 89.415275 C 178.38021 89.437229 178.37945 89.459048 178.38191 89.480388 C 178.38385 89.501614 178.38713 89.521776 178.39173 89.540849 L 178.3354 89.550668 C 178.32947 89.530208 178.32588 89.506954 178.32455 89.480388 C 178.32268 89.453708 178.3243 89.426436 178.33024 89.399256 L 178.33075 89.399772 C 178.34192 89.348553 178.36131 89.31298 178.38915 89.293319 C 178.40306 89.283486 178.41952 89.277471 178.43876 89.275232 z M 178.57053 89.365666 L 178.55916 89.428194 C 178.54986 89.480914 178.55054 89.518827 178.56071 89.542399 C 178.57101 89.565453 178.58935 89.580001 178.61601 89.585808 C 178.63953 89.590941 178.65828 89.587722 178.67233 89.575989 C 178.6865 89.563749 178.69586 89.546269 178.70076 89.523796 C 178.7085 89.488256 178.70515 89.456445 178.69094 89.428711 C 178.6762 89.400865 178.64851 89.382828 178.60774 89.373934 L 178.57053 89.365666 z M 178.40775 89.692261 C 178.42511 89.692778 178.44304 89.695389 178.46201 89.700013 L 178.50335 89.710348 L 178.43359 89.996118 C 178.48113 90.006625 178.52037 90.00359 178.55089 89.986817 C 178.58103 89.969397 178.60069 89.940023 178.61084 89.89845 C 178.61731 89.87195 178.6209 89.848026 178.62117 89.82662 C 178.62105 89.804566 178.61898 89.781487 178.61497 89.757373 L 178.67492 89.771843 C 178.67905 89.795429 178.68095 89.818249 178.68009 89.840056 C 178.67969 89.861982 178.67569 89.88744 178.66872 89.91602 C 178.65908 89.955513 178.6427 89.988512 178.61911 90.015239 C 178.59564 90.041445 178.56559 90.059059 178.52971 90.068465 C 178.49343 90.077225 178.45245 90.076141 178.4062 90.064848 C 178.36047 90.053681 178.32312 90.036748 178.29406 90.013688 C 178.26513 89.990109 178.24506 89.962343 178.23412 89.930489 C 178.2233 89.898116 178.22251 89.863516 178.23153 89.82662 C 178.24029 89.790766 178.2552 89.76198 178.27701 89.74032 C 178.29894 89.718147 178.32626 89.703445 178.35814 89.696912 C 178.37388 89.693322 178.3904 89.691744 178.40775 89.692261 z M 178.38191 89.763575 C 178.36661 89.764241 178.35242 89.76749 178.33954 89.772876 C 178.31326 89.78353 178.29584 89.806269 178.28734 89.841089 C 178.27935 89.873829 178.28365 89.902445 178.30026 89.926872 C 178.31648 89.950652 178.3428 89.968876 178.37933 89.981649 L 178.43152 89.768742 C 178.41379 89.764689 178.39722 89.762908 178.38191 89.763575 z M 178.1194 90.356303 C 178.12691 90.355787 178.13545 90.35664 178.14523 90.359404 C 178.16376 90.36467 178.17593 90.373672 178.18141 90.385759 C 178.18701 90.397352 178.18779 90.409579 178.18399 90.422966 C 178.18033 90.435832 178.17312 90.446005 178.16229 90.452938 C 178.15143 90.459871 178.13689 90.460272 178.11836 90.455005 L 178.11836 90.455522 C 178.0988 90.449989 178.08626 90.441137 178.08116 90.429684 C 178.07609 90.418237 178.07549 90.406377 178.07909 90.39351 C 178.08289 90.38013 178.08995 90.369584 178.10028 90.362504 C 178.10552 90.358708 178.11188 90.35682 178.1194 90.356303 z M 178.45064 90.449838 C 178.45803 90.449288 178.46644 90.450241 178.47596 90.452938 C 178.49449 90.458205 178.50615 90.467206 178.51162 90.479293 C 178.51722 90.490886 178.51852 90.503114 178.51472 90.5165 C 178.51105 90.529367 178.50385 90.539539 178.49302 90.546472 C 178.48216 90.553406 178.4671 90.553806 178.44858 90.54854 C 178.42953 90.54314 178.41749 90.535175 178.4124 90.523735 C 178.40733 90.512288 178.40673 90.499911 178.41033 90.487045 C 178.41413 90.473665 178.4212 90.463635 178.43152 90.456556 C 178.43677 90.452759 178.44326 90.450388 178.45064 90.449838 z M 178.0455 90.554741 L 178.46304 90.683932 C 178.52181 90.702105 178.56158 90.730911 178.5819 90.770231 C 178.60237 90.809038 178.60286 90.85982 178.58345 90.922677 C 178.5648 90.982977 178.54085 91.029247 178.51162 91.062203 L 178.44961 91.043083 C 178.48356 91.00935 178.50986 90.962302 178.52867 90.90149 C 178.53958 90.86623 178.53776 90.835402 178.52299 90.808989 C 178.50887 90.782222 178.48383 90.763205 178.44806 90.752145 L 178.43204 90.746977 C 178.42591 90.74511 178.41728 90.742192 178.4062 90.738192 C 178.39461 90.734059 178.38636 90.73134 178.38191 90.729407 L 178.38088 90.732508 C 178.41374 90.772908 178.42132 90.821519 178.40362 90.878752 C 178.38718 90.931899 178.35568 90.967625 178.30905 90.986239 C 178.26258 91.004339 178.20598 91.003322 178.13903 90.982622 C 178.07362 90.962388 178.0266 90.931607 177.99744 90.890121 C 177.96793 90.847961 177.96101 90.800649 177.97729 90.748011 L 177.97729 90.747494 C 177.98566 90.720407 177.99815 90.698098 178.01501 90.679798 C 178.03203 90.660984 178.0534 90.646793 178.07909 90.63794 L 178.08064 90.634322 L 178.02896 90.608484 L 178.0455 90.554741 z M 178.1566 90.668946 C 178.13504 90.667596 178.11684 90.670187 178.10183 90.67618 C 178.07129 90.688014 178.04952 90.714369 178.03671 90.755762 C 178.02613 90.790002 178.03202 90.820823 178.05377 90.848263 C 178.07501 90.875549 178.11066 90.897212 178.16125 90.912858 C 178.21185 90.928505 178.25354 90.931173 178.28631 90.921127 C 178.31873 90.910433 178.34036 90.887647 178.35142 90.85188 C 178.36422 90.810487 178.36291 90.776816 178.34677 90.751111 C 178.33013 90.725251 178.29712 90.704433 178.24755 90.689099 L 178.23102 90.683932 C 178.20291 90.675238 178.17816 90.670296 178.1566 90.668946 z M 177.97367 91.043083 C 177.99477 91.043533 178.01873 91.048349 178.04498 91.057552 L 178.30905 91.150053 L 178.28631 91.216199 L 178.02638 91.125249 C 177.96125 91.102442 177.91789 91.120996 177.89667 91.181576 C 177.88094 91.226509 177.88264 91.262026 177.90184 91.288029 C 177.92107 91.314036 177.95464 91.335488 178.00209 91.352108 L 178.21241 91.426005 L 178.18916 91.492668 L 177.7835 91.350558 L 177.8021 91.296814 L 177.86101 91.306116 L 177.86205 91.302499 C 177.84544 91.281945 177.83611 91.257945 177.83414 91.231185 C 177.83168 91.204252 177.83496 91.177867 177.84396 91.15212 L 177.84448 91.15212 C 177.86145 91.103654 177.88598 91.071395 177.91837 91.054969 C 177.93432 91.046665 177.95257 91.042633 177.97367 91.043083 z M 177.61297 91.41412 C 177.61898 91.414129 177.62536 91.415469 177.6326 91.418254 C 177.64659 91.423587 177.65554 91.431849 177.65948 91.442542 C 177.66361 91.452715 177.66382 91.462528 177.65999 91.472514 C 177.65579 91.483507 177.64867 91.491472 177.63881 91.496285 C 177.62895 91.501085 177.61714 91.500588 177.60315 91.495252 C 177.58866 91.489718 177.57939 91.481991 177.57576 91.471997 C 177.57163 91.461824 177.57206 91.451461 177.57628 91.440475 C 177.58008 91.430481 177.58654 91.423067 177.59643 91.418254 C 177.60121 91.415487 177.60696 91.41411 177.61297 91.41412 z M 177.73906 91.465796 L 178.14058 91.619792 L 178.11526 91.685421 L 177.71374 91.531942 L 177.73906 91.465796 z M 177.68531 91.606356 L 177.73596 91.627027 L 177.68893 91.742265 L 177.91889 91.836316 C 177.94316 91.846216 177.96385 91.847534 177.98039 91.840967 C 177.99663 91.833727 178.00856 91.821053 178.01604 91.802727 C 178.02011 91.79282 178.02365 91.782727 178.02638 91.771721 C 178.02865 91.760514 178.02985 91.751069 178.03051 91.743815 L 178.08012 91.763969 C 178.08076 91.772316 178.07981 91.783356 178.0765 91.797042 C 178.0737 91.810929 178.06996 91.823913 178.06514 91.835799 C 178.05665 91.856599 178.04524 91.874536 178.03103 91.889543 C 178.01653 91.90385 177.99802 91.912795 177.97574 91.916415 C 177.95346 91.920015 177.92628 91.915575 177.89409 91.902462 L 177.66206 91.807894 L 177.63932 91.864222 L 177.6078 91.851302 L 177.60522 91.783606 L 177.53132 91.723145 L 177.54682 91.684388 L 177.63829 91.721595 L 177.68531 91.606356 z M 177.6326 91.941219 C 177.65358 91.943511 177.67702 91.950433 177.70237 91.96189 L 177.95713 92.077128 L 177.92871 92.141207 L 177.67808 92.027519 C 177.6152 91.999092 177.57016 92.013984 177.54372 92.072478 C 177.52411 92.115857 177.52271 92.15134 177.53959 92.178931 C 177.55647 92.206518 177.58782 92.231081 177.63364 92.251795 L 177.83724 92.343262 L 177.80779 92.407858 L 177.41608 92.230607 L 177.43933 92.178931 L 177.49721 92.1934 L 177.49876 92.189783 C 177.48402 92.167856 177.47719 92.143229 177.47757 92.116403 C 177.47747 92.089356 177.48287 92.063748 177.49411 92.038888 C 177.51526 91.992095 177.54257 91.961981 177.57628 91.948454 C 177.59289 91.941581 177.61163 91.938928 177.6326 91.941219 z M 177.36647 92.33396 L 177.74888 92.530847 L 177.72252 92.582524 L 177.66671 92.565471 L 177.66516 92.568571 C 177.67875 92.591231 177.68502 92.615695 177.68325 92.642469 C 177.68098 92.668995 177.67325 92.694746 177.66051 92.719466 C 177.63672 92.76558 177.6081 92.794793 177.57421 92.8068 C 177.53985 92.818566 177.49816 92.811666 177.44967 92.786646 L 177.19956 92.657455 L 177.23211 92.593893 L 177.47809 92.721017 C 177.53894 92.75241 177.5843 92.73986 177.61348 92.683293 C 177.63532 92.640986 177.63822 92.605784 177.62279 92.577356 C 177.6076 92.548456 177.57755 92.522385 177.53287 92.499325 L 177.33443 92.396489 L 177.36647 92.33396 z M 177.22798 92.800082 C 177.26478 92.801948 177.30378 92.814639 177.34477 92.838839 C 177.40603 92.875019 177.44437 92.918921 177.45949 92.970097 C 177.47489 93.02081 177.467 93.072673 177.43572 93.125643 C 177.4164 93.158343 177.39179 93.182971 177.36182 93.200057 C 177.33166 93.216411 177.2978 93.223888 177.26053 93.221761 C 177.22281 93.219361 177.1837 93.20566 177.14271 93.181454 C 177.08145 93.145274 177.04292 93.10219 177.02799 93.051746 C 177.01306 93.001299 177.02151 92.949681 177.05279 92.896717 C 177.07265 92.863097 177.09757 92.838146 177.12773 92.821786 C 177.1577 92.804699 177.19099 92.797495 177.22798 92.800082 z M 177.18922 92.867261 C 177.15401 92.870061 177.12523 92.890459 177.10292 92.928239 C 177.08061 92.966006 177.07675 93.000894 177.09155 93.032626 C 177.10636 93.064359 177.13565 93.093085 177.1794 93.118925 C 177.22316 93.144765 177.26292 93.156905 177.29877 93.155099 C 177.33444 93.152565 177.3638 93.132411 177.38611 93.094637 C 177.40814 93.057331 177.41144 93.022198 177.39644 92.989734 C 177.38099 92.957001 177.35132 92.927731 177.30756 92.901884 C 177.26381 92.876044 177.22443 92.864448 177.18922 92.867261 z M 176.94531 93.120476 L 176.982 93.171118 C 176.97086 93.179118 176.95837 93.189237 176.94531 93.201091 C 176.93223 93.212944 176.92159 93.224811 176.91327 93.237264 C 176.8663 93.307529 176.8881 93.372775 176.97838 93.433118 C 177.02152 93.461951 177.06023 93.475899 177.09465 93.474459 C 177.12893 93.472259 177.15733 93.453979 177.17992 93.420199 C 177.193 93.400632 177.20253 93.382258 177.20834 93.364905 C 177.21447 93.347112 177.21875 93.330065 177.22126 93.313745 L 177.27345 93.348369 C 177.27165 93.364535 177.26723 93.381218 177.26053 93.397978 C 177.2546 93.414585 177.24477 93.433329 177.23108 93.453789 C 177.20997 93.485362 177.18465 93.508815 177.15511 93.525102 C 177.12587 93.540942 177.09305 93.547089 177.05641 93.543189 C 177.02007 93.538855 176.98084 93.522866 176.93859 93.494613 C 176.89456 93.465186 176.86385 93.433668 176.84609 93.400562 C 176.82833 93.367455 176.82115 93.334346 176.8249 93.300826 C 176.82897 93.26686 176.84176 93.233628 176.86314 93.201608 C 176.87533 93.183374 176.88867 93.167258 176.90397 93.153032 C 176.91882 93.138512 176.93283 93.127582 176.94531 93.120476 z M 176.74325 93.421749 L 176.77736 93.473942 C 176.76581 93.481336 176.75281 93.490714 176.73912 93.501848 C 176.72543 93.512988 176.71399 93.524484 176.70501 93.536471 C 176.65436 93.604127 176.67286 93.670347 176.75979 93.735425 C 176.80132 93.766518 176.83903 93.782567 176.87348 93.782967 C 176.90782 93.782617 176.93748 93.765901 176.96184 93.733358 C 176.97595 93.714518 176.98612 93.696635 176.99285 93.679615 C 176.9999 93.662168 177.00546 93.645642 177.00887 93.629488 L 177.059 93.666695 C 177.05633 93.682742 177.05107 93.698891 177.04349 93.715271 C 177.03666 93.731538 177.02568 93.749832 177.01094 93.769532 C 176.98818 93.799932 176.96173 93.822541 176.93135 93.837228 C 176.9013 93.851481 176.86799 93.855483 176.83162 93.84963 C 176.79556 93.843363 176.75706 93.82481 176.71638 93.794336 C 176.67399 93.762596 176.64501 93.730158 176.62905 93.696151 C 176.61308 93.662144 176.60801 93.628142 176.61354 93.594865 C 176.61941 93.561159 176.63388 93.529057 176.65695 93.49823 C 176.6701 93.480677 176.68433 93.465108 176.70036 93.451722 C 176.71597 93.438015 176.73042 93.428183 176.74325 93.421749 z M 176.48797 93.775733 C 176.52178 93.771466 176.55767 93.785514 176.59597 93.818107 L 176.81922 94.00776 L 176.78563 94.047034 L 176.73033 94.017578 L 176.72827 94.020162 C 176.73407 94.049669 176.73475 94.076054 176.72982 94.099227 C 176.72522 94.121987 176.71102 94.147485 176.68744 94.175192 C 176.66214 94.204938 176.63326 94.222548 176.60114 94.228935 C 176.56862 94.235002 176.53585 94.223785 176.50244 94.195345 C 176.46984 94.167619 176.45575 94.133597 176.46007 94.093026 C 176.464 94.052106 176.48764 94.004128 176.53138 93.949366 L 176.57685 93.892521 L 176.55722 93.875985 C 176.52992 93.852765 176.50603 93.842173 176.48539 93.844979 C 176.46474 93.847779 176.44536 93.860069 176.42699 93.881669 C 176.41244 93.898783 176.40128 93.917493 176.3934 93.93748 C 176.38512 93.95712 176.37816 93.976364 176.37325 93.995358 L 176.31899 93.977788 C 176.32339 93.956941 176.33143 93.934151 176.34276 93.910091 C 176.35369 93.885678 176.36815 93.863065 176.38617 93.841879 C 176.42013 93.801945 176.45416 93.779979 176.48797 93.775733 z M 176.61354 93.924561 L 176.57427 93.974687 C 176.54124 94.01682 176.52367 94.050896 176.52156 94.07649 C 176.51983 94.101676 176.52923 94.122895 176.54998 94.140568 C 176.56832 94.156162 176.58685 94.161858 176.60476 94.158138 C 176.62302 94.154005 176.63947 94.143619 176.65437 94.126099 C 176.67794 94.098392 176.69002 94.068892 176.69054 94.037732 C 176.69065 94.006226 176.67479 93.976916 176.643 93.949882 L 176.61354 93.924561 z M 176.09471 94.176742 L 176.29522 94.659917 C 176.31218 94.699783 176.32002 94.736995 176.31899 94.771021 C 176.31835 94.804681 176.30286 94.835955 176.27248 94.864555 C 176.26313 94.873355 176.25424 94.880309 176.24613 94.885743 C 176.23839 94.891543 176.23162 94.896075 176.22545 94.899695 L 176.1867 94.858871 C 176.1917 94.855604 176.19767 94.851692 176.20427 94.846985 C 176.21123 94.841919 176.21832 94.836185 176.22494 94.829932 C 176.24285 94.813065 176.2525 94.794515 176.25388 94.774121 C 176.25561 94.753361 176.2515 94.731622 176.24199 94.709009 L 176.21925 94.652165 L 175.80533 94.460445 L 175.83323 94.494552 L 175.73815 94.574134 L 175.89731 94.76482 C 175.91412 94.784926 175.93131 94.795933 175.94899 94.797893 C 175.96673 94.799093 175.98341 94.793533 175.9986 94.780839 C 176.0068 94.773979 176.01478 94.766542 176.02237 94.758102 C 176.02961 94.749255 176.03494 94.741464 176.0389 94.735364 L 176.07353 94.776705 C 176.07019 94.784379 176.06371 94.793527 176.05441 94.804094 C 176.04545 94.815067 176.03635 94.824799 176.0265 94.833033 C 176.00927 94.847446 175.99079 94.857955 175.97121 94.864555 C 175.9517 94.870422 175.93109 94.869755 175.90971 94.862488 C 175.88833 94.855261 175.8669 94.838002 175.8446 94.811328 L 175.68389 94.619609 L 175.63686 94.658366 L 175.61516 94.632528 L 175.64461 94.57155 L 175.6074 94.483183 L 175.63944 94.456828 L 175.70301 94.532276 L 175.79861 94.452694 L 175.79964 94.454244 L 175.85235 94.405152 L 176.08748 94.519357 C 176.10799 94.529437 176.12763 94.539316 176.14587 94.549329 C 176.16375 94.558949 176.18001 94.569165 176.19445 94.579818 L 176.19652 94.577751 C 176.18969 94.565811 176.18132 94.549515 176.17171 94.529175 C 176.16174 94.508442 176.15235 94.487753 176.14277 94.466647 L 176.0389 94.228935 L 176.09471 94.176742 z M 175.45548 94.538994 C 175.4665 94.539308 175.47653 94.545802 175.48597 94.558114 C 175.49507 94.570001 175.49853 94.581584 175.4963 94.592737 C 175.4945 94.603564 175.4893 94.612069 175.4808 94.618575 C 175.47146 94.625735 175.46124 94.62897 175.45031 94.627877 C 175.43938 94.62681 175.42944 94.620127 175.42034 94.60824 C 175.4109 94.595927 175.40734 94.584534 175.40948 94.574134 C 175.41128 94.563307 175.41667 94.554415 175.42602 94.547262 C 175.43451 94.540729 175.44456 94.537927 175.45548 94.538994 z M 175.55159 94.654232 L 175.81308 94.995813 L 175.75727 95.038705 L 175.49578 94.697124 L 175.55159 94.654232 z M 175.43532 94.770504 L 175.44721 94.830449 C 175.42798 94.834582 175.40866 94.839642 175.38933 94.846468 C 175.37 94.853282 175.35174 94.863057 175.33455 94.87489 C 175.31076 94.89127 175.29536 94.907773 175.28804 94.9245 C 175.28086 94.94048 175.28203 94.954688 175.29115 94.967908 C 175.29782 94.977601 175.3064 94.984438 175.31698 94.987545 C 175.32726 94.990212 175.34107 94.990035 175.35884 94.987545 C 175.37675 94.984278 175.40007 94.979179 175.4286 94.972559 C 175.45684 94.965466 175.48213 94.96123 175.50405 94.959123 C 175.52598 94.95699 175.54528 94.959291 175.56245 94.966358 C 175.57931 94.972958 175.59436 94.985678 175.6074 95.004598 C 175.63106 95.038965 175.63633 95.073767 175.62291 95.108985 C 175.60948 95.144198 175.58082 95.176927 175.53764 95.206653 C 175.51297 95.22364 175.49022 95.23591 175.46943 95.244377 C 175.44908 95.252544 175.43006 95.258043 175.41155 95.260397 L 175.37486 95.207687 C 175.39381 95.20502 175.41538 95.19965 175.43946 95.192184 C 175.46367 95.183957 175.48593 95.172847 175.50664 95.158594 C 175.53616 95.138274 175.55456 95.11907 175.56141 95.100716 C 175.56795 95.081923 175.56563 95.064383 175.55469 95.048523 C 175.54863 95.03971 175.54062 95.033633 175.53092 95.02992 C 175.52122 95.026186 175.50773 95.025086 175.4901 95.026819 C 175.47291 95.028286 175.44976 95.032498 175.42034 95.039738 C 175.39136 95.046698 175.3657 95.051284 175.34334 95.053691 C 175.32097 95.056091 175.30122 95.054273 175.28391 95.048007 C 175.2666 95.04174 175.25126 95.029159 175.23792 95.009766 C 175.21729 94.979806 175.21354 94.948185 175.22655 94.915198 C 175.24 94.881911 175.26648 94.851548 175.30613 94.824248 C 175.32772 94.809388 175.34919 94.797958 175.37073 94.789624 C 175.39241 94.780551 175.41387 94.774237 175.43532 94.770504 z M 175.15369 94.934318 L 175.17952 94.994263 C 175.17274 94.996463 175.16571 94.999515 175.15782 95.003048 C 175.15039 95.006248 175.14305 95.009503 175.13663 95.013383 C 175.11784 95.02469 175.10338 95.040976 175.09322 95.061442 C 175.08279 95.081456 175.07858 95.103768 175.07979 95.128622 C 175.08119 95.152748 175.08919 95.177249 175.10408 95.202002 L 175.22242 95.398373 L 175.16195 95.435063 L 174.94026 95.06661 L 174.98987 95.036638 L 175.0369 95.099683 L 175.04 95.098133 C 175.03978 95.070793 175.04449 95.044007 175.05447 95.018034 C 175.06444 94.992061 175.08203 94.971462 175.10769 94.956022 C 175.11457 94.951889 175.1226 94.94791 175.13095 94.944137 C 175.13947 94.939604 175.1469 94.936498 175.15369 94.934318 z M 174.80487 95.160144 C 174.836 95.162144 174.8643 95.173411 174.89014 95.193217 C 174.9162 95.212284 174.9384 95.239119 174.95628 95.273833 L 174.9754 95.311556 L 174.71392 95.446432 C 174.73716 95.489218 174.76496 95.516551 174.79764 95.528597 C 174.83055 95.539924 174.86605 95.535788 174.90409 95.516195 C 174.92834 95.503702 174.94873 95.490237 174.96507 95.476404 C 174.98164 95.461851 174.99757 95.445641 175.01313 95.426795 L 175.04155 95.481572 C 175.02646 95.500172 175.01056 95.516024 174.99349 95.529631 C 174.97668 95.543711 174.95505 95.557499 174.92889 95.570972 C 174.89275 95.589585 174.85654 95.598647 174.82089 95.598361 C 174.78572 95.597827 174.75282 95.587247 174.72219 95.566321 C 174.69178 95.544674 174.66596 95.512523 174.64416 95.470203 C 174.6226 95.428356 174.61117 95.388927 174.60953 95.351864 C 174.6084 95.314557 174.61595 95.281798 174.63279 95.252645 C 174.65014 95.223252 174.67603 95.199759 174.70979 95.182365 C 174.7426 95.165465 174.77422 95.157884 174.80487 95.160144 z M 174.78058 95.220089 C 174.7663 95.220972 174.75104 95.225848 174.73511 95.234042 C 174.70515 95.249475 174.68684 95.271111 174.6793 95.299671 C 174.67198 95.327511 174.67532 95.359836 174.68963 95.395789 L 174.88445 95.295537 C 174.86732 95.263443 174.84592 95.240737 174.82089 95.228357 C 174.80825 95.221931 174.79487 95.219206 174.78058 95.220089 z M 174.5315 95.283134 L 174.55114 95.742538 L 174.47672 95.774577 L 174.15685 95.443848 L 174.22609 95.414392 L 174.41058 95.61128 C 174.41916 95.6204 174.42836 95.630402 174.43848 95.641769 C 174.44861 95.653135 174.45818 95.664035 174.46691 95.674842 C 174.47542 95.685155 174.48199 95.69451 174.48706 95.70223 L 174.49016 95.70068 C 174.48856 95.69148 174.48686 95.68034 174.48499 95.666573 C 174.48366 95.6526 174.48219 95.637822 174.48086 95.622648 C 174.48006 95.607268 174.47927 95.593624 174.47827 95.581824 L 174.46226 95.31259 L 174.5315 95.283134 z M 174.02249 95.319308 C 174.03251 95.315574 174.04232 95.31565 174.05246 95.319825 C 174.06291 95.323358 174.07079 95.332196 174.07623 95.346696 C 174.0815 95.360723 174.08163 95.372856 174.07623 95.38287 C 174.07137 95.392696 174.06404 95.39978 174.05401 95.40354 C 174.04299 95.407674 174.03211 95.407222 174.02197 95.403024 C 174.01183 95.398824 174.00398 95.390172 173.99872 95.376152 C 173.99325 95.361625 173.99311 95.349305 173.9982 95.339978 C 174.00307 95.330152 174.01145 95.323441 174.02249 95.319308 z M 173.88348 95.352381 L 174.06796 95.933224 L 174.0137 95.950794 L 173.98632 95.898601 L 173.98321 95.899634 C 173.97649 95.920854 173.9651 95.940865 173.94859 95.959579 C 173.93209 95.978292 173.90785 95.99278 173.87573 96.002987 C 173.82475 96.019187 173.77848 96.014488 173.73672 95.989034 C 173.69479 95.963068 173.66244 95.915207 173.64008 95.844857 C 173.61773 95.774506 173.61621 95.71663 173.63543 95.671224 C 173.65503 95.625144 173.69039 95.59389 173.74137 95.57769 C 173.77298 95.567643 173.80044 95.565592 173.82405 95.570972 C 173.84817 95.576239 173.86953 95.58509 173.88761 95.597844 L 173.89175 95.596293 C 173.88915 95.589827 173.88545 95.580648 173.87986 95.568388 C 173.87466 95.555455 173.87044 95.545029 173.86798 95.537382 L 173.8163 95.373568 L 173.88348 95.352381 z M 174.11137 95.458317 L 174.26227 95.860877 L 174.19612 95.885681 L 174.04523 95.483122 L 174.11137 95.458317 z M 172.97294 95.615414 C 172.98343 95.61328 172.99357 95.615298 173.00291 95.621098 C 173.01267 95.626231 173.01897 95.636387 173.02203 95.651587 C 173.02497 95.666267 173.02322 95.678211 173.01635 95.687244 C 173.00995 95.696171 173.0015 95.701674 172.99103 95.70378 C 172.97949 95.706114 172.96884 95.704413 172.9595 95.698613 C 172.95016 95.692879 172.94385 95.682314 172.9409 95.667607 C 172.93783 95.6524 172.9396 95.640867 172.94607 95.632467 C 172.95247 95.62354 172.96141 95.617734 172.97294 95.615414 z M 173.8287 95.622648 C 173.81097 95.620707 173.79093 95.623193 173.76824 95.6304 C 173.73205 95.6419 173.70915 95.66527 173.70003 95.700163 C 173.69125 95.734383 173.69499 95.775759 173.71036 95.824187 C 173.72592 95.873126 173.74646 95.908257 173.77289 95.929606 C 173.79983 95.950793 173.83179 95.955743 173.86849 95.944076 C 173.91183 95.930303 173.93871 95.90895 173.94859 95.879997 C 173.95882 95.850364 173.95607 95.811642 173.94084 95.763725 L 173.93722 95.751323 C 173.92102 95.700343 173.9001 95.663957 173.87469 95.642285 C 173.86191 95.631195 173.84644 95.62459 173.8287 95.622648 z M 172.54144 95.672258 L 172.56521 95.819019 C 172.56808 95.836979 172.56995 95.854165 172.57141 95.870179 C 172.57335 95.885579 172.57463 95.897715 172.57503 95.906869 L 172.57917 95.906352 C 172.58843 95.886445 172.60236 95.868659 172.62154 95.853125 C 172.64072 95.837592 172.66682 95.826936 172.70009 95.821603 C 172.75291 95.813136 172.79838 95.824849 172.836 95.856743 C 172.87406 95.888023 172.89873 95.940436 172.91041 96.013322 C 172.9221 96.08621 172.915 96.143268 172.88871 96.185405 C 172.86241 96.227538 172.82317 96.252982 172.77089 96.261369 C 172.73761 96.266702 172.70921 96.264935 172.68614 96.256201 C 172.66306 96.247442 172.64415 96.235498 172.62929 96.220545 L 172.62361 96.221578 L 172.61844 96.277906 L 172.56831 96.285657 L 172.47168 95.683627 L 172.54144 95.672258 z M 173.37808 95.687761 C 173.39576 95.687944 173.41285 95.690472 173.42924 95.695512 C 173.46242 95.704966 173.49099 95.723606 173.51503 95.75184 C 173.53945 95.779426 173.55738 95.816204 173.56877 95.862427 C 173.5858 95.931503 173.58131 95.989441 173.55533 96.03606 C 173.52988 96.082553 173.48742 96.113324 173.42769 96.128044 C 173.39082 96.137131 173.35597 96.136978 173.32279 96.127527 C 173.29 96.117427 173.26105 96.098273 173.23649 96.070166 C 173.2118 96.04154 173.19413 96.00425 173.18275 95.958028 C 173.16572 95.888952 173.16956 95.8314 173.19515 95.785429 C 173.22073 95.739456 173.26358 95.709199 173.32331 95.694479 C 173.34226 95.689805 173.36041 95.687577 173.37808 95.687761 z M 173.3941 95.749256 C 173.37679 95.746084 173.35752 95.74711 173.33623 95.752356 C 173.29364 95.76285 173.26585 95.784165 173.25354 95.816952 C 173.24124 95.849732 173.24138 95.891116 173.25354 95.940458 C 173.2657 95.989798 173.28503 96.026697 173.31142 96.051046 C 173.33819 96.074746 173.3727 96.081176 173.41529 96.070683 C 173.45736 96.060316 173.48476 96.038487 173.49746 96.005054 C 173.51002 95.971107 173.51013 95.929339 173.49797 95.879997 C 173.48581 95.830657 173.46674 95.794659 173.4401 95.771477 C 173.42677 95.759887 173.41141 95.752427 173.3941 95.749256 z M 173.03857 95.766826 L 173.12332 96.188505 L 173.05459 96.202458 L 172.96932 95.780778 L 173.03857 95.766826 z M 172.6975 95.881547 C 172.65261 95.888741 172.62345 95.906611 172.61017 95.935291 C 172.59689 95.963964 172.59471 96.005429 172.60345 96.059831 L 172.60397 96.062932 C 172.61235 96.115218 172.62754 96.153918 172.64893 96.179204 C 172.67076 96.203877 172.70477 96.212495 172.75125 96.205042 C 172.78928 96.198975 172.81528 96.180735 172.82928 96.149748 C 172.84381 96.118708 172.84704 96.076475 172.83858 96.023658 C 172.82139 95.916439 172.77409 95.869271 172.6975 95.881547 z " />
    <path
       d="m172.38 109.58c1.5835-1.0042 4.0911-4.2347 4.3477-5.6025 0.39135-2.0861-1.0136-3.9836-3.0563-4.9854-1.0399-0.51001-1.9615-0.92113-3.2656-0.93181-0.0244-2e-4 -0.0116-0.01658-0.012 0.01111-9.3e-4 0.06473-9e-3 0.26824-9e-3 0.32616 0 0.34401-0.18017 0.41018-0.43826 0.41018-0.43216 0-1.8078 0.0019-2.3616 0.0022l-3.0476-0.0082v3.2348l3e-5 2.1466c-4e-3 0.39563-0.10542 0.50363-0.50613 0.5043-0.15016 2.4e-4 0.19245-6.7e-4 0.0322-2.9e-4 1.2453 0.54209 1.5053 2.1307 1.97 2.8052 1.8803 2.9906 4.2267 3.8264 6.3468 2.0876z"
       stop-color="#000000"
       id="path4" />
  </g>
  <path
     style="fill:none;stroke:none;stroke-width:0.0834176;stroke-dasharray:none"
     d="m 29.39502,21.124912 c 5.449643,-0.17121 8.289384,-3.698151 7.990245,-15.837667"
     id="path1-9"
     sodipodi:nodetypes="cc" />
</svg>
