<?xml version="1.0" encoding="UTF-8"?>
<!-- Created with Inkscape (http://www.inkscape.org/) -->
<svg width="43.567mm" height="38.681mm" version="1.1" viewBox="0 0 43.567 38.681" xmlns="http://www.w3.org/2000/svg">
 <g transform="translate(-141.98 -75.258)" fill="#008000">
  <path d="m146.78 84.879c-0.0159-3.4809 0.0665-5.3021 0.50994-5.792 0.73554-0.81276 2.7021-0.56954 4.4377 0.3173 1.7887 0.91395 4.9967 3.0197 7.3284 5.6938 2.4421 2.8008 3.2414 3.7552 4.0478 6.1452 5e-3 0.01488 0.0137 0.0044-2e-3 0.0044-0.29205-9.1e-4 -0.42368 0.06528-0.4241 0.31699l-9e-3 5.5458h-3.3643c-1.5559 0-1.2358 0.0022-2.1295 0.01534-0.38024 0.0056-0.40336 0.19734-0.4165 0.35928-0.0132 0.16286 3.9e-4 0.27774 3.9e-4 0.3821-8.0743-0.94406-9.9066-6.2285-9.9787-12.988z" stop-color="#000000"/>
  <path d="m154.76 109.58c-1.5835-1.0042-4.0911-4.2346-4.3477-5.6025-0.39135-2.0861 1.0136-3.9836 3.0563-4.9854 1.0399-0.51001 1.9615-0.92113 3.2656-0.93181 0.0244-2e-4 0.0116-0.01658 0.012 0.01111 9.3e-4 0.06473 9e-3 0.26824 9e-3 0.32616 0 0.34401 0.18017 0.41018 0.43826 0.41018 0.43216 0 1.8078 0.0019 2.3616 0.0022l3.0476-0.0082v3.2348l-3e-5 2.1466c4e-3 0.39562 0.10542 0.50362 0.50613 0.50429 0.15016 2.4e-4 -0.19245-6.7e-4 -0.0322-2.9e-4 -1.2453 0.54209-1.5053 2.1307-1.97 2.8052-1.8803 2.9906-4.2267 3.8264-6.3468 2.0876z" stop-color="#000000"/>
  <path d="m180.36 84.878c0.0159-3.4809-0.0665-5.3021-0.50994-5.792-0.73554-0.81276-2.7021-0.56953-4.4377 0.3173-1.7887 0.91395-4.9967 3.0197-7.3284 5.6938-2.4421 2.8008-3.2414 3.7552-4.0478 6.1452-5e-3 0.01489-0.0137 0.0044 2e-3 0.0044 0.29205-9.1e-4 0.42368 0.06528 0.4241 0.31699l9e-3 5.5458h3.3643c1.5559 0 1.2358 0.0022 2.1295 0.01534 0.38024 0.0056 0.40336 0.19734 0.4165 0.35928 0.0132 0.16286-3.9e-4 0.27774-3.9e-4 0.3821 8.0743-0.94406 9.9066-6.2285 9.9787-12.988z" stop-color="#000000"/>
  <path d="m172.38 109.58c1.5835-1.0042 4.0911-4.2347 4.3477-5.6025 0.39135-2.0861-1.0136-3.9836-3.0563-4.9854-1.0399-0.51001-1.9615-0.92113-3.2656-0.93181-0.0244-2e-4 -0.0116-0.01658-0.012 0.01111-9.3e-4 0.06473-9e-3 0.26824-9e-3 0.32616 0 0.34401-0.18017 0.41018-0.43826 0.41018-0.43216 0-1.8078 0.0019-2.3616 0.0022l-3.0476-0.0082v3.2348l3e-5 2.1466c-4e-3 0.39563-0.10542 0.50363-0.50613 0.5043-0.15016 2.4e-4 0.19245-6.7e-4 0.0322-2.9e-4 1.2453 0.54209 1.5053 2.1307 1.97 2.8052 1.8803 2.9906 4.2267 3.8264 6.3468 2.0876z" stop-color="#000000"/>
 </g>
</svg>
