<?xml version="1.0" encoding="UTF-8"?>
<svg id="svg47" width="111.21mm" height="31.902mm" version="1.1" viewBox="0 0 111.21 31.902" xml:space="preserve" xmlns="http://www.w3.org/2000/svg" xmlns:cc="http://creativecommons.org/ns#" xmlns:dc="http://purl.org/dc/elements/1.1/" xmlns:rdf="http://www.w3.org/1999/02/22-rdf-syntax-ns#"><metadata id="metadata1"><rdf:RDF><cc:Work rdf:about=""><dc:format>image/svg+xml</dc:format><dc:type rdf:resource="http://purl.org/dc/dcmitype/StillImage"/></cc:Work></rdf:RDF></metadata><g id="g47" transform="translate(-35.138 -93.551)"><g fill="#808080"><g id="g10" transform="matrix(.14604 0 0 .14604 179.48 101.64)" aria-label="Global Ecobrick Alliance"><g id="g9" fill="#808080" stroke-linecap="round" stroke-width="9.2715" aria-label="ecoJoiner"><path id="path1" d="m-707.15 40.237q-3.4408 3.2322-8.8626 5.109-5.3176 1.8768-10.948 1.8768-8.1328 0-14.076-3.2322-5.8389-3.2322-9.0711-9.2797-3.128-6.1517-3.128-14.597 0-8.1327 3.128-14.284 3.128-6.1517 8.6541-9.5925 5.6304-3.4408 12.929-3.4408 6.9858 0 11.991 3.128 5.0048 3.0237 7.6114 8.7583 2.7109 5.7346 2.7109 13.763v1.564h-39.621v-5.5261h34.825l-2.7109 3.8578q0.20853-9.1754-3.6493-14.076-3.7536-4.9005-11.052-4.9005-7.6114 0-11.991 5.4218-4.2749 5.3176-4.2749 14.806 0 10.218 4.4834 15.431 4.5877 5.2133 13.346 5.2133 4.5877 0 8.7583-1.4597 4.2749-1.564 8.1328-4.692z"/><path id="path2" d="m-674.41 47.223q-7.7157 0-13.346-3.3365-5.6304-3.3365-8.7583-9.3839-3.0237-6.0474-3.0237-14.284 0-8.1327 3.128-14.284 3.128-6.256 8.8626-9.6967 5.7346-3.4408 13.555-3.4408 5.3176 0 10.218 1.8768 5.0048 1.7725 8.237 5.0048l-2.8152 6.256q-3.8578-3.0237-7.6114-4.4834-3.6493-1.564-7.6114-1.564-7.9242 0-12.616 5.3176-4.5877 5.3176-4.5877 15.014 0 9.5925 4.5877 14.806 4.5877 5.2133 12.616 5.2133 3.8578 0 7.6114-1.4597 3.7536-1.564 7.6114-4.5877l2.8152 6.256q-3.3365 3.128-8.4456 5.0048-5.0048 1.7725-10.427 1.7725z"/><path id="path3" d="m-626.14 47.223q-7.5072 0-13.138-3.3365-5.5261-3.3365-8.6541-9.3839-3.0237-6.1517-3.0237-14.493 0-8.237 3.0237-14.389 3.128-6.1517 8.6541-9.4882 5.6304-3.3365 13.138-3.3365t13.033 3.3365q5.6304 3.3365 8.6541 9.4882 3.128 6.1517 3.128 14.389 0 8.3413-3.128 14.493-3.0237 6.0474-8.6541 9.3839-5.5261 3.3365-13.033 3.3365zm0-6.9858q7.7157 0 11.886-5.109 4.2749-5.2133 4.2749-15.119 0-9.6967-4.2749-14.91t-11.886-5.2133-11.991 5.2133q-4.2749 5.2133-4.2749 14.91 0 9.9053 4.1706 15.119 4.2749 5.109 12.095 5.109z"/><path id="path4" d="m-599.55 65.052v-10.948q6.5688 0.93839 10.114 0.41706 3.545-0.41706 4.9005-3.0237 1.3555-2.6066 1.3555-8.0285v-71.214h13.45v71.109q0 9.1754-2.8152 14.597-2.8152 5.4218-9.3839 7.0901-6.4645 1.7725-17.621 0z"/><path id="path5" d="m-533.66 47.223q-8.237 0-14.284-3.3365-5.9432-3.3365-9.1754-9.3839-3.2322-6.1517-3.2322-14.597 0-8.3413 3.2322-14.493 3.2322-6.256 9.1754-9.5925 6.0474-3.3365 14.284-3.3365 8.0285 0 13.972 3.3365 6.0474 3.3365 9.2797 9.5925 3.3365 6.1517 3.3365 14.493 0 8.4455-3.3365 14.597-3.2322 6.0474-9.2797 9.3839-5.9432 3.3365-13.972 3.3365zm0-10.01q6.4645 0 9.9053-4.2749 3.545-4.3792 3.545-13.033 0-8.5498-3.545-12.825-3.4408-4.3792-9.9053-4.3792-6.5688 0-10.218 4.3792-3.545 4.2749-3.545 12.825 0 8.6541 3.545 13.033 3.545 4.2749 10.218 4.2749z"/><path id="path6" d="m-498.94 46.493v-52.654h13.033v52.654zm-0.62559-76.531h14.493v12.825h-14.493z"/><path id="path7" d="m-474.86 46.493v-37.744q0-3.7536-0.20853-7.5072-0.10427-3.7536-0.6256-7.4029h12.303l1.1469 10.427-1.1469 0.3128q2.5024-5.9432 7.4029-8.9669 5.0048-3.128 11.469-3.128 18.768 0 18.768 21.687v32.322h-13.033v-31.801q0-6.1517-2.3981-8.9669-2.3981-2.9194-7.4029-2.9194-6.0474 0-9.6967 3.8578-3.545 3.7536-3.545 10.01v29.82z"/><path id="path8" d="m-369.86 40.654q-3.7536 3.128-9.2797 4.9005-5.4218 1.6683-11.052 1.6683-8.5498 0-14.806-3.2322-6.1517-3.2322-9.4882-9.3839t-3.3365-14.597q0-8.1327 3.2322-14.284 3.2322-6.256 8.9669-9.6967 5.7346-3.545 13.242-3.545 7.2986 0 12.512 3.2322 5.2133 3.128 8.0285 9.0711 2.9194 5.9432 2.9194 14.076v1.9811h-37.431l0.10426-6.9858h29.612l-3.545 3.545q0.10427-7.6114-3.0237-11.574-3.0237-3.9621-8.8626-3.9621-6.256 0-9.6967 4.4834-3.4408 4.3792-3.4408 12.616 0 9.3839 3.8578 13.867 3.8578 4.3792 11.678 4.3792 4.2749 0 8.3413-1.3555 4.1706-1.4597 7.7157-4.1706z"/><path id="path9" d="m-361 46.493v-37.744q0-3.6493-0.20853-7.4029-0.10427-3.8578-0.6256-7.5072h12.303l1.4597 13.555-1.4597-0.72986q1.3555-6.9858 6.1517-10.531 4.7962-3.545 10.844-3.545 1.564 0 2.9194 0.20853t2.3981 0.6256l-0.20854 11.886q-3.2322-1.3555-6.8816-1.3555-4.692 0-7.7157 1.8768-2.9194 1.8768-4.4834 5.109-1.4597 3.128-1.4597 7.0901v28.465z"/></g></g><g id="g24" transform="matrix(.099232 0 0 .099232 58.551 115.63)"><g id="g23" transform="matrix(10.203 0 0 10.203 -3037.5 -2980.9)" fill="#808080" aria-label="Ecobricks.org"><g id="g22" transform="matrix(.14205 0 0 .14205 278.95 191.13)" fill="#808080" aria-label="ecobricks.org"><path id="path10" d="m220.69 720.5c0.0605 2.1995 2.1632 3.8166 4.2215 4.0762 2.4547 0.33278 4.9038-0.36081 7.1652-1.2637 0.71615 1.3346 1.4323 2.6693 2.1484 4.0039-1.9928 1.2689-4.1952 2.3419-6.592 2.4848-2.9576 0.29464-6.1237-0.14753-8.5581-1.9659-3.1256-2.213-4.5127-6.2519-4.1578-9.9744 0.26207-3.7407 2.6699-7.2619 6.1394-8.7335 2.6436-1.1371 5.7525-1.2018 8.4446-0.18914 2.8717 1.06 4.9414 3.7069 5.6448 6.6436 0.3981 1.6029 0.49585 3.2728 0.44621 4.9182-4.9675-2e-5 -9.9349-3e-5 -14.902-5e-5zm4.668-7.3828c-1.6706-0.0716-3.4893 0.70303-4.1516 2.3279-0.43805 0.6726-0.38251 1.1143 0.43892 0.93383h7.6775c-0.22117-1.34-1.03-2.6957-2.4225-3.0524-0.49666-0.16146-1.0225-0.20827-1.5424-0.20934z"/><path id="path11" d="m252.42 716.11c-0.99915-1.3263-2.6273-2.2223-4.3164-2.0508-2.2322-0.23714-4.3596 1.4336-4.8694 3.5803-0.6632 2.2898 0.20168 5.0927 2.3938 6.2256 1.3177 0.70954 2.949 0.9189 4.3234 0.23071 1.2864-0.54212 2.2443-1.6604 2.8201-2.9077 1.7904 0.49479 3.5807 0.98959 5.3711 1.4844-1.0987 3.7308-4.5949 6.4353-8.3794 7.0178-3.0425 0.4971-6.3338-0.15786-8.7352-2.1575-2.955-2.3546-4.3391-6.3341-3.826-10.037 0.48689-4.2074 3.8157-7.934 7.9887-8.7662 1.7165-0.3135 3.5078-0.33253 5.2213 4e-3 1.274 0.26573 2.4632 0.86166 3.5717 1.4976h3.8268v5.8789h-5.3906z"/><path id="path12" d="m258.77 719.15c-0.0717-3.9838 2.3029-7.9145 5.9412-9.5853 4.1136-1.9764 9.4827-1.1837 12.663 2.1566 3.4151 3.4941 3.853 9.3406 1.2103 13.405-1.9627 3.126-5.7104 4.8674-9.3562 4.7038-3.6663 6e-3 -7.3136-1.9837-9.0856-5.229-0.94365-1.6493-1.3763-3.5591-1.3727-5.4513zm5.8398 0c-0.0884 2.4369 1.6973 4.8884 4.1766 5.2185 2.0632 0.36374 4.2552-0.78661 5.088-2.7201 1.0292-2.3055 0.58797-5.452-1.5937-6.9466-2.2494-1.5173-5.7688-0.82206-7.0094 1.679-0.46313 0.84426-0.6673 1.8106-0.66147 2.7692z"/><path id="path13" d="m280.85 698.96h8.8281v10.605q1.0547-0.50781 2.168-0.78125t2.2852-0.27344q2.2461 0 4.1602 0.83984 1.9141 0.83985 3.3008 2.2852t2.168 3.3789q0.80078 1.9336 0.80078 4.1016 0 2.1875-0.78125 4.1211-0.76172 1.9336-2.1484 3.3789-1.3867 1.4258-3.3008 2.2656-1.9141 0.82032-4.1992 0.82032-1.2305 0-2.3438-0.23438-1.1133-0.23437-2.1094-0.66406v0.54687h-5.9961v-25.039h-2.832zm12.871 14.941q-1.2891 0-2.3242 0.58593-1.0156 0.58594-1.7188 1.6797v6.0547q0.625 0.9375 1.6602 1.5234 1.0547 0.5664 2.3438 0.5664 0.9961 0 1.8945-0.35156 0.89843-0.37109 1.5625-1.0352 0.68359-0.68359 1.0742-1.6211 0.39063-0.95703 0.39063-2.1484 0-1.2109-0.39063-2.1875-0.39062-0.97656-1.0547-1.6602-0.66407-0.6836-1.5625-1.0352-0.87891-0.37109-1.875-0.37109z"/><path id="path14" d="m324.29 716.48h-5.4883v-2.0898q-0.80078 0-1.4648 0.11718-0.66406 0.0977-1.1719 0.35157-0.48829 0.2539-0.83985 0.70312-0.33203 0.44922-0.46875 1.1133v7.3242h4.1211v5.3516h-13.203v-5.3516h3.0273v-9.5312h-2.9883v-5.3516h9.0039v1.4258q0.85937-0.68359 1.9336-1.0547 1.0742-0.37109 2.3438-0.37109 1.2891 0 2.6562 0.0195 1.3672 0.0195 2.5391 0.0195z"/><path id="path15" d="m326.27 709.11h9.082v14.883h2.8125v5.3516h-11.895v-5.3516h3.0469v-9.5312h-3.0469zm2.7344-6.5234q0-0.72265 0.2539-1.3476 0.27344-0.64454 0.74219-1.1133t1.0938-0.74218q0.64453-0.27344 1.3867-0.27344 0.70313 0 1.3281 0.27344 0.625 0.27343 1.0938 0.74218t0.74218 1.1133q0.27344 0.625 0.27344 1.3476 0 0.72266-0.27344 1.3672-0.27343 0.625-0.74218 1.0938t-1.0938 0.74219q-0.625 0.27343-1.3281 0.27343-0.74219 0-1.3867-0.27343-0.625-0.27344-1.0938-0.74219t-0.74219-1.0938q-0.2539-0.64453-0.2539-1.3672z"/><path id="path16" d="m355.52 716.11q-0.83984-1.0547-1.875-1.582-1.0352-0.54688-2.4414-0.46875-1.1328-0.0781-2.0703 0.3125-0.91797 0.39062-1.6016 1.0938-0.66406 0.70312-1.0352 1.6797-0.37109 0.95703-0.37109 2.168 0 1.0742 0.39062 2.0312 0.39063 0.95703 1.0547 1.6602 0.68359 0.68359 1.6016 1.0742 0.9375 0.39062 2.0312 0.46875 0.91797-0.0781 1.6602-0.3711 0.76172-0.3125 1.3477-0.78125 0.58593-0.48828 0.99609-1.0742 0.42969-0.60546 0.66406-1.1328l5.3711 1.4844q-0.33204 1.1719-1.1524 2.4414-0.80078 1.2695-2.1094 2.3242-1.2891 1.0352-3.0859 1.7188-1.7773 0.6836-4.0625 0.6836-2.3242 0-4.2773-0.83985-1.9531-0.85937-3.3594-2.3242-1.4062-1.4648-2.207-3.4375-0.78125-1.9726-0.78125-4.2383 0-2.2461 0.80078-4.1602 0.82031-1.9336 2.2461-3.3594 1.4258-1.4453 3.3789-2.2461 1.9727-0.80078 4.2773-0.72266 1.6406-0.0781 3.1836 0.37109 1.543 0.44922 2.9297 1.3477h3.8867v5.8789z"/><path id="path17" d="m361.62 698.96h9.1211v17.52h3.418l1.4062-2.0117v-5.3516h10.469v5.3516h-3.6328l-3.7695 4.3555 3.8476 4.6484h3.3594v5.8789h-5.4883l-6.5625-8.6719h-3.0469v3.3203h2.0703v5.3516h-11.191v-5.3516h3.125v-19.688h-3.125z"/><path id="path18" d="m401.92 715.31c-0.0721-1.3188-1.5263-1.9213-2.6367-2.168-1.3245-0.24718-2.8304-0.39221-4.0332 0.32712-1.0781 0.67041-0.45651 2.2983 0.70313 2.4121 2.5641 0.60337 5.239 0.82723 7.6762 1.8855 1.6958 0.70149 3.1871 2.1475 3.4518 4.0276 0.41266 2.1096-0.42425 4.3535-2.0779 5.7173-2.4554 2.0314-5.8482 2.6028-8.9468 2.2094-1.4433-0.19839-2.8913-0.68022-3.9998-1.6572h-3.5352v-5.4297h5.5274c-0.0496 1.3118 1.3312 2.0338 2.4414 2.2656 1.32 0.20431 2.7654 0.25945 4.0039-0.3125 1.0392-0.41962 1.0437-1.9884 0.032-2.4313-1.1129-0.50093-2.3519-0.60356-3.5284-0.89972-2.4797-0.50894-5.1723-1.022-6.9834-2.9428-1.9464-2.0642-1.7929-5.6265 0.23139-7.5883 2.4039-2.4253 6.1026-2.9366 9.3516-2.429 1.4263 0.18873 2.8232 0.69279 3.9632 1.5841h3.3984v5.4297l-5.0391 3e-5z"/><path id="path19" d="m408.99 726.18c-0.031-1.3626 0.75207-2.7068 1.9641-3.335 1.0374-0.576 2.3535-0.64344 3.4199-0.10414 1.2539 0.57085 2.1388 1.8695 2.1895 3.2496 0.0809 1.4951-0.79839 3.0116-2.1735 3.6288-1.2411 0.62627-2.8052 0.43122-3.9084-0.39332-0.91145-0.64497-1.4628-1.7355-1.4874-2.8473-3e-3 -0.0662-4e-3 -0.13243-4e-3 -0.19867z"/><path id="path20" d="m418.24 719.23c-0.0362-3.3317 1.3105-6.7918 4.0499-8.8028 2.8557-2.1119 6.814-2.4171 10.092-1.1855 2.9515 1.0901 5.0932 3.819 5.7812 6.8491 0.88219 3.796 0.17234 8.1754-2.6298 11.03-2.269 2.3582-5.75 3.2029-8.9223 2.7031-3.1311-0.42027-5.9738-2.5046-7.256-5.4014-0.76739-1.616-1.1045-3.4101-1.1145-5.1923zm3.8477 0c-0.0691 2.7486 1.165 5.7284 3.7266 7.0003 2.6456 1.358 6.2028 0.33432 7.7056-2.2386 1.4778-2.4304 1.5742-5.5437 0.69283-8.1998-0.69416-2.1184-2.5847-3.8215-4.8304-4.0714-2.4182-0.40941-5.0386 0.7538-6.2106 2.9392-0.80377 1.3784-1.0896 2.9909-1.084 4.5703z"/><path id="path21" d="m454.6 713.39h-3.7109v-1.25c-2.1155-1e-3 -3.8288 1.8219-4.1858 3.8229-0.11328 0.84493-0.0241 1.7102-0.0525 2.5637v7.461h3.4375v3.3594h-10.039v-3.3594h2.793c7e-3 -4.5052 0.013-9.0104 0.0195-13.516h-2.8125v-3.3594h6.4648v2.793c0.8552-1.6342 2.4918-3.0255 4.4251-2.9492 1.2203 4e-3 2.4413-0.0176 3.6608 0.0391 1e-5 1.4648 3e-5 2.9297 4e-5 4.3945z"/><path id="path22" d="m470.45 727.57c-1.6922 1.8761-4.3733 2.534-6.8121 2.1277-3.2068-0.34994-6.0715-2.5792-7.2321-5.5844-1.1335-2.8692-1.2188-6.1565-0.29877-9.0953 0.97394-3.1895 3.8196-5.6511 7.1018-6.2028 2.4509-0.42727 5.1963-0.21551 7.2412 1.333 0.10419-0.33419-0.25544-1.1322 0.27997-1.0352h3.3528c-9e-3 6.7233 0.0183 13.447-0.0139 20.17-0.0642 2.9231-1.0727 6.1715-3.7465 7.7188-2.7023 1.5048-5.9866 1.4977-8.9495 0.91-1.8983-0.44154-3.783-1.1691-5.2783-2.4512 0.65104-0.98307 1.3021-1.9662 1.9531-2.9492 2.5691 2.1097 6.2403 2.8696 9.4321 1.926 2.0502-0.66991 2.7851-2.9556 2.903-4.9012 0.0584-0.65369 0.0702-1.3102 0.0673-1.9662zm-4.8438-0.9375c1.7948 7e-3 3.7936-0.63507 4.8438-2.1403v-11.004c-1.7529-1.5082-4.2872-1.9494-6.5112-1.4694-2.423 0.55044-4.1469 2.7763-4.5257 5.1672-0.43142 2.794-0.0331 6.0804 2.1802 8.0655 1.0991 0.95366 2.5738 1.3886 4.013 1.3812z"/></g></g></g><g id="g30" transform="matrix(.14031 0 0 .14168 40.483 88.281)"><path id="path24" d="m57.668 152.74c-9.2502-1.3534-19.061-7.6796-23.502-15.154-6.5207-10.976-5.4798-24.126 2.6902-33.986 9.2459-11.159 25.306-15.484 39.551-10.653 9.6012 3.2563 17.375 10.864 20.455 20.019 1.1812 3.5104 1.6049 9.9045 0.91783 13.85-2.1116 12.125-13.293 22.86-26.693 25.625-3.5314 0.7288-9.5592 0.86258-13.419 0.29783zm13.695-25.066c2.3357-0.87388 4.7269-3.0533 5.6989-5.1942 0.91624-2.018 0.92305-5.7234 0.0142-7.7245-1.4885-3.2774-4.9303-5.5092-9.0254-5.8525-4.9484-0.41486-9.2023 1.9518-10.994 6.1165-1.1678 2.7146-0.95213 6.0936 0.54254 8.5006 1.1398 1.8356 3.8369 3.9445 5.7558 4.5005 2.1055 0.61011 5.8888 0.44646 8.0078-0.34638z" stop-color="#000000"/><path id="path25" d="m91.762 95.146c-6.0323-1.1024-10.817-3.2737-15.614-7.0858-7.7524-6.1606-11.298-14.301-9.5199-21.856 1.2517-5.318 5.7069-9.3332 12.258-11.047 3.2063-0.83895 10.319-0.55709 14.093 0.55846 8.8948 2.6294 15.926 8.0849 19.653 15.248 2.9832 5.734 3.2765 10.438 0.94567 15.164-3.4721 7.0411-12.412 10.737-21.816 9.0184zm5.6098-15.97c0.63114-0.32638 1.4669-1.1171 1.8572-1.7572 2.5888-4.2457-2.9781-10.434-9.3865-10.434-6.3053 0-7.5095 6.8627-1.9249 10.97 2.8698 2.1105 6.7623 2.6133 9.4542 1.2212z" stop-color="#000000"/><path id="path26" d="m139.15 96.05c-4.2746-0.64713-9.8151-3.5489-13.863-7.2609-6.1268-5.6179-9.8162-13.842-8.6497-19.281 0.77912-3.6329 3.0603-6.3678 6.5263-7.8243 1.6997-0.71428 7.3789-0.67347 9.886 0.07104 6.7619 2.0081 13.498 7.3286 17.357 13.709 4.019 6.6458 4.0282 14.149 0.022 17.949-2.4446 2.3187-6.742 3.3234-11.278 2.6368zm0.60256-13.277c4.5516-2.1599 0.19972-10.214-5.9099-10.937-1.7358-0.20558-1.9462-0.14272-2.9786 0.88964-0.84498 0.84499-1.1108 1.4381-1.1108 2.4781 0 2.9325 2.7456 6.4136 5.9565 7.5524 1.9676 0.69783 2.6026 0.70052 4.0429 0.01709z" stop-color="#000000"/><path id="path27" d="m170.19 135.15c-4.4102-0.97864-8.8468-3.8185-13.239-8.4741-5.237-5.5515-8.1182-11.258-9.0238-17.872-0.63718-4.6538 0.26393-8.7691 2.553-11.659 3.4428-4.3469 10.751-4.6111 17.356-0.6276 6.4765 3.9057 11.858 10.522 14.663 18.026 1.03 2.7562 1.1975 3.7032 1.3289 7.5158 0.13263 3.8467 0.0549 4.6166-0.6578 6.5139-1.9902 5.2984-7.0927 7.8838-12.981 6.5772zm1.1456-16.527c0.62187-0.62195 0.75888-1.1868 0.73404-3.0265-0.065-4.8117-4.0474-9.3183-8.2562-9.3426-2.1608-0.0125-3.1653 1.2216-3.1608 3.8834 8e-3 4.9181 4.475 9.8617 8.5018 9.4095 0.78023-0.0876 1.76-0.50259 2.1812-0.92375z" stop-color="#000000"/><path id="path28" d="m123.97 141.86c-16.888-4.4227-27.813-25.144-20.849-39.546 1.3901-2.8749 5.0851-6.4801 8.2103-8.0108 10.748-5.2641 25.847 1.4001 32.927 14.533 5.9371 11.012 5.0149 22.261-2.3788 29.018-4.7234 4.317-11.193 5.7638-17.91 4.0049zm6.8666-19.551c0.49984-0.35766 1.2888-1.3768 1.7531-2.2649 2.6479-5.0635-2.3372-12.686-8.2966-12.686-2.564 0-4.6158 1.117-5.4572 2.9708-2.0702 4.5612 0.99593 11.013 6.0025 12.63 1.5268 0.49325 4.9132 0.12619 5.9982-0.65016z" stop-color="#000000"/><path id="path29" d="m102.44 222.87c-2.609-0.32932-4.9322-1.1181-8.6623-2.9412-2.469-1.2067-3.8058-2.2089-6.8237-5.1156-5.324-5.1279-8.0643-9.5322-10.438-16.777-1.5794-4.8194-2.1455-8.8583-2.1654-15.45-0.0204-6.7465 0.52093-10.287 2.3776-15.55 4.5461-12.886 13.506-22.079 24.193-24.823 3.1163-0.80007 8.4675-0.97647 11.559-0.38103 5.2672 1.0146 10.884 4.1397 15.071 8.3843 10.747 10.897 14.716 28.945 9.979 45.371-1.0461 3.6272-3.8025 9.6199-5.8293 12.673-4.2391 6.3864-11.812 12.155-18.345 13.973-2.0988 0.58416-8.4105 0.95177-10.915 0.63569zm10.411-33.87c2.3451-1.0921 5.0049-4.0437 5.9713-6.6265 0.83893-2.2422 1.034-7.644 0.36318-10.059-0.61285-2.2068-3.2828-5.7796-5.2096-6.9712-1.5191-0.93941-2.0581-1.0661-4.5185-1.062-3.2363 5e-3 -4.4731 0.51471-6.6186 2.7255-2.8696 2.9569-4.4169 8.1492-3.6782 12.343 0.44409 2.5211 1.8993 5.9232 3.071 7.1796 2.9905 3.2067 7.0243 4.1454 10.619 2.4712z" stop-color="#000000"/><path id="path30" d="m166.38 196.37c-7.7042-1.1285-16.521-8.835-21.525-18.815-3.4217-6.8238-5.1304-14.66-4.8084-22.051 0.22139-5.0829 0.82226-7.5612 2.8645-11.815 4.2876-8.9298 12.903-11.833 22.073-7.4389 8.3075 3.9813 15.471 13.219 18.877 24.343 1.6615 5.4267 1.9722 7.9042 1.7934 14.299-0.14458 5.1696-0.26035 5.9838-1.2551 8.8276-3.2123 9.1832-9.8543 13.846-18.019 12.65zm1.5392-24.873c0.58211-0.30102 1.456-1.2416 1.9421-2.0903 1.775-3.0992 1.5491-6.8774-0.68336-11.429-3.441-7.0162-10.559-7.961-12.395-1.6452-2.3484 8.0781 5.1349 18.268 11.136 15.165z" stop-color="#000000"/></g><g id="g40" stroke-linecap="round" stroke-width=".25653" aria-label="a project by"><path id="path31" d="m71.308 112.9q-0.19329 0-0.34042-0.0894-0.14424-0.0923-0.22502-0.25964-0.07789-0.1702-0.07789-0.39811t0.08078-0.39811q0.08078-0.17021 0.22502-0.26541 0.14713-0.0952 0.33753-0.0952 0.19906 0 0.33753 0.0981t0.18752 0.27984l-0.03462 0.0231v-0.36638h0.23079v1.4511h-0.23079v-0.37503l0.03462 0.0173q-0.04904 0.18175-0.18752 0.27984-0.13848 0.0981-0.33753 0.0981zm0.04616-0.19328q0.21348 0 0.32888-0.14425 0.1154-0.14713 0.1154-0.41542t-0.11828-0.41254q-0.1154-0.14424-0.32599-0.14424-0.21348 0-0.33465 0.15001-0.11828 0.14713-0.11828 0.41254t0.11828 0.40965q0.12116 0.14425 0.33465 0.14425z"/><path id="path32" d="m73.236 113.5v-1.6675q0-0.10097-0.0058-0.20194-0.0029-0.10385-0.01731-0.20482h0.22214l0.02596 0.30002-0.02308 0.0433q0.04904-0.18175 0.18752-0.27984 0.13847-0.0981 0.33465-0.0981 0.1904 0 0.33465 0.0952 0.14713 0.0952 0.22791 0.26541 0.08366 0.1702 0.08366 0.39811t-0.08366 0.39811q-0.08078 0.16733-0.22502 0.25964-0.14424 0.0894-0.33753 0.0894-0.19617 0-0.33465-0.0981t-0.18752-0.27984l0.03173-0.0288v1.0097zm0.68083-0.79622q0.2106 0 0.32888-0.14425 0.11828-0.14424 0.11828-0.40965t-0.11828-0.41254q-0.11828-0.15001-0.32888-0.15001-0.21637 0-0.33176 0.14424-0.1154 0.14425-0.1154 0.41254t0.1154 0.41542q0.1154 0.14425 0.33176 0.14425z"/><path id="path33" d="m74.966 112.88v-1.0443q0-0.10097-0.0058-0.20194-0.0029-0.10385-0.01731-0.20482h0.22214l0.03173 0.35772-0.03173-9e-3q0.04039-0.19041 0.17309-0.28561 0.13559-0.0981 0.30291-0.0981 0.0375 0 0.06924 6e-3 0.03462 3e-3 0.06347 0.0115l-0.0058 0.21348q-0.06635-0.0231-0.1529-0.0231-0.15001 0-0.24233 0.0663-0.08943 0.0663-0.1327 0.17021-0.04039 0.10097-0.04039 0.21348v0.82796z"/><path id="path34" d="m76.582 112.9q-0.20771 0-0.3635-0.0923-0.1529-0.0923-0.23944-0.25964-0.08366-0.17021-0.08366-0.401 0-0.22791 0.08366-0.39811 0.08655-0.17021 0.23944-0.26253 0.15578-0.0923 0.3635-0.0923 0.20771 0 0.36061 0.0923 0.15578 0.0923 0.23944 0.26253 0.08655 0.1702 0.08655 0.39811 0 0.23079-0.08655 0.401-0.08366 0.16732-0.23944 0.25964-0.1529 0.0923-0.36061 0.0923zm0-0.19328q0.21348 0 0.32888-0.14136 0.11828-0.14425 0.11828-0.41831 0-0.26829-0.11828-0.41254-0.11828-0.14424-0.32888-0.14424t-0.33176 0.14424q-0.11828 0.14425-0.11828 0.41254 0 0.27406 0.1154 0.41831 0.11828 0.14136 0.33465 0.14136z"/><path id="path35" d="m77.248 113.28q0.04327 0.0115 0.07789 0.0173 0.03173 6e-3 0.06347 6e-3 0.06635 0 0.12116-0.026 0.0577-0.0231 0.08943-0.0866 0.03173-0.0606 0.03173-0.17598v-1.5953h0.23368v1.6242q0 0.23368-0.1154 0.34619-0.1154 0.11539-0.31157 0.11539-0.04616 0-0.0952-6e-3t-0.0952-0.0202zm0.35772-2.4752h0.2856v0.2654h-0.2856z"/><path id="path36" d="m79.507 112.7q-0.0952 0.0894-0.24522 0.14136-0.14713 0.0519-0.30291 0.0519-0.22502 0-0.38946-0.0894-0.16155-0.0894-0.25098-0.25675-0.08655-0.17021-0.08655-0.40388 0-0.22503 0.08655-0.39523 0.08655-0.17021 0.23944-0.26541 0.15578-0.0952 0.35772-0.0952 0.19329 0 0.33176 0.0865 0.13847 0.0837 0.2106 0.24233 0.07501 0.15867 0.07501 0.38081v0.0433h-1.0963v-0.1529h0.96355l-0.07501 0.10674q0.0058-0.25387-0.10097-0.38946-0.10386-0.13559-0.3058-0.13559-0.2106 0-0.33176 0.15002-0.11828 0.14713-0.11828 0.40965 0 0.28272 0.12405 0.42696 0.12694 0.14425 0.36926 0.14425 0.12694 0 0.24233-0.0404 0.11828-0.0433 0.22502-0.12982z"/><path id="path37" d="m80.497 112.9q-0.21348 0-0.36926-0.0923t-0.24233-0.25964q-0.08366-0.16732-0.08366-0.39523 0-0.22502 0.08655-0.39523 0.08655-0.17309 0.24522-0.26829t0.37504-0.0952q0.14713 0 0.28272 0.0519 0.13847 0.049 0.2279 0.13848l-0.07789 0.17309q-0.10674-0.0837-0.2106-0.12405-0.10097-0.0433-0.2106-0.0433-0.21925 0-0.34907 0.14713-0.12694 0.14713-0.12694 0.41542 0 0.26541 0.12694 0.40965 0.12693 0.14425 0.34907 0.14425 0.10674 0 0.2106-0.0404 0.10386-0.0433 0.2106-0.12694l0.07789 0.1731q-0.09232 0.0865-0.23368 0.13847-0.13847 0.049-0.28849 0.049z"/><path id="path38" d="m81.114 111.61v-0.18463h0.93182v0.18463zm0.92605 1.0588v0.19906q-0.04904 0.0144-0.09809 0.0202-0.04616 9e-3 -0.10386 9e-3 -0.20194 0-0.32311-0.11539-0.11828-0.1154-0.11828-0.34619v-1.3818l0.23368-0.0837v1.4338q0 0.11539 0.03173 0.17886 0.03462 0.0635 0.09232 0.0894 0.0577 0.0231 0.12982 0.0231 0.04327 0 0.07789-6e-3t0.07789-0.0202z"/><path id="path39" d="m83.082 112.88v-2.1233h0.23368v1.0443l-0.03173-0.0288q0.04904-0.17887 0.18752-0.27695 0.13848-0.10097 0.33465-0.10097 0.19329 0 0.33753 0.0923t0.22502 0.25964q0.08366 0.16733 0.08366 0.39523 0 0.22791-0.08366 0.401-0.08078 0.17021-0.22791 0.26541-0.14424 0.0923-0.33465 0.0923-0.19617 0-0.33465-0.0981-0.13847-0.0981-0.18752-0.27984l0.03173-0.0317v0.38946zm0.68083-0.17309q0.2106 0 0.32888-0.14713 0.11828-0.15002 0.11828-0.41831 0-0.26252-0.11828-0.40677-0.11828-0.14424-0.32888-0.14424-0.21637 0-0.33176 0.14713-0.1154 0.14424-0.1154 0.40965 0 0.26829 0.1154 0.41542 0.1154 0.14425 0.33176 0.14425z"/><path id="path40" d="m84.726 113.53-0.04904-0.18175q0.1327-0.0317 0.22214-0.075 0.09232-0.0404 0.1529-0.10674 0.06347-0.0663 0.10963-0.17597l0.09232-0.21349 0.05193-0.0721 0.53082-1.2809h0.23368l-0.67795 1.5838q-0.07789 0.17598-0.17598 0.27984-0.09808 0.10674-0.22214 0.16155-0.12116 0.0548-0.26829 0.0808zm0.53082-0.57986-0.65198-1.5261h0.24522l0.52505 1.2809z"/></g></g><g id="g46" transform="translate(-1.9542 -1.0743)" stroke="#808080"><g id="g45" transform="matrix(.14604 0 0 .14604 176.13 101.89)" stroke-linecap="round"><rect id="rect40" x="-430.73" y="67.073" width="106.31" height="83.328" ry="14.302" fill="none" stroke-width="3.4369"/><g id="g44" stroke-width="3.9378" aria-label="v0.2"><path id="path41" d="m-410.93 110.13-9.4767-22.23h3.7641l8.0597 19.618h-1.0628l8.1482-19.618h3.587l-9.6096 22.23z"/><path id="path42" d="m-384.14 110.48q-5.4026 0-8.2368-4.0741-2.7899-4.1184-2.7899-12.045t2.7899-12.001q2.7899-4.1184 8.2368-4.1184t8.2368 4.1184q2.7899 4.0741 2.7899 11.957 0 7.9268-2.8342 12.045-2.7899 4.1184-8.1925 4.1184zm0-3.0556q3.7641 0 5.5355-3.1884 1.8156-3.1884 1.8156-9.9196 0-6.7311-1.8156-9.831-1.7714-3.1441-5.5355-3.1441t-5.5798 3.1441q-1.7714 3.1442-1.7714 9.831 0 6.7311 1.7714 9.9196 1.8156 3.1884 5.5798 3.1884z"/><path id="path43" d="m-368.02 105.57h4.5612v4.5612h-4.5612z"/><path id="path44" d="m-356.95 110.13v-2.7456l11.027-12.222q2.2142-2.4799 3.2327-4.4727t1.0185-3.9855q0-2.6127-1.5056-3.9855-1.5056-1.4171-4.2955-1.4171-2.3028 0-4.517 0.92996-2.2142 0.88568-4.4284 2.7013l-1.3728-2.7899q1.8599-1.7714 4.6941-2.8342t5.7126-1.0628 4.9598 1.0185q2.1256 0.97424 3.277 2.8342 1.1514 1.8599 1.1514 4.4284 0 2.7013-1.24 5.2255-1.1957 2.4799-4.0298 5.5798l-10.628 11.514-0.26571-1.7714h17.492v3.0556z"/></g></g><path id="path45" d="m125.08 122.23c-0.054-0.0186-0.0796-0.0294-0.14956-0.0638-0.19937-0.0981-0.36411-0.23929-0.49629-0.42545-0.14348-0.20208-0.22798-0.4294-0.24887-0.66959-7e-3 -0.0849-4e-3 -0.21011 8e-3 -0.30038 5e-3 -0.0431 0.0247-0.13564 0.0364-0.17745 0.0535-0.18908 0.14808-0.36626 0.27544-0.51584 0.0337-0.0396 0.11961-0.12485 0.15816-0.15698 0.20463-0.17053 0.43438-0.27315 0.69216-0.30916 0.0687-0.01 0.10297-0.0117 0.18632-0.0114 0.10612 3.2e-4 0.18925 9e-3 0.27934 0.0289 0.26622 0.0588 0.49748 0.187 0.68666 0.38057 0.18976 0.19414 0.31716 0.43769 0.36466 0.6971 0.0162 0.0887 0.0226 0.16095 0.0226 0.25688-4e-5 0.21018-0.0477 0.41192-0.1416 0.59988-0.067 0.1341-0.14613 0.2435-0.25462 0.35214-0.089 0.0891-0.17004 0.15095-0.28401 0.21666-0.0818 0.0471-0.22364 0.11017-0.24803 0.11017-8e-3 0-4e-3 8e-3 -0.0754-0.18631-0.14807-0.40639-0.25485-0.70149-0.25406-0.70217 3.2e-4 -3.2e-4 0.0116-3e-3 0.0247-8e-3 0.0969-0.0276 0.19402-0.11084 0.24273-0.20784 0.0167-0.0333 0.0274-0.0626 0.0334-0.0917 0.0145-0.0707 0.0105-0.1516-0.0111-0.21906-0.0511-0.15971-0.18764-0.26602-0.35777-0.27838-0.0908-7e-3 -0.18783 0.0173-0.25869 0.0637-0.0337 0.0221-0.0933 0.0801-0.11095 0.10808-0.0239 0.0378-0.0424 0.0779-0.0534 0.11582-0.0113 0.0389-0.0143 0.0591-0.0157 0.10621-3e-3 0.0926 0.0149 0.15578 0.062 0.22164 0.0253 0.0354 0.0895 0.099 0.12103 0.11993 0.0294 0.0195 0.0793 0.0454 0.11026 0.0572 0.0118 4e-3 0.0234 9e-3 0.0257 0.01 3e-3 2e-3 8.7e-4 9e-3 -0.0172 0.0601-0.0118 0.0321-0.0607 0.16667-0.10889 0.29912-0.17938 0.49379-0.1941 0.53357-0.19744 0.53354-8.7e-4 -3e-5 -0.022-7e-3 -0.0456-0.0148zm-0.1093-0.35733c2e-3 -3e-3 0.022-0.0558 0.0446-0.11581 0.0226-0.06 0.0548-0.14491 0.0715-0.18881l0.0304-0.0798-0.0148-0.0126c-0.0287-0.0244-0.0776-0.0739-0.0979-0.099-0.0759-0.0937-0.12304-0.20598-0.13905-0.3308-4e-3 -0.0354-4e-3 -0.14784-5e-5 -0.17999 0.0231-0.16396 0.0962-0.30539 0.2129-0.41178 0.0948-0.0864 0.20866-0.1411 0.34645-0.1664 0.0378-7e-3 0.13898-0.01 0.18882-5e-3 0.0948 9e-3 0.19478 0.0427 0.28141 0.0951 0.0493 0.0299 0.0865 0.06 0.13311 0.10809 0.0883 0.091 0.14734 0.20436 0.17506 0.3363 0.0128 0.061 0.0139 0.19224 3e-3 0.25909-0.0161 0.0919-0.063 0.2-0.12105 0.27884-0.0175 0.0237-0.0717 0.08-0.10771 0.11172l-0.0185 0.0163 0.0257 0.0672c0.0141 0.0369 0.0381 0.10026 0.0532 0.14069 0.0595 0.15938 0.0694 0.18378 0.0743 0.18378 5e-3 0 0.0576-0.0355 0.0955-0.0643 0.0642-0.0489 0.15459-0.13992 0.20163-0.20311 0.10164-0.13656 0.16546-0.27984 0.19872-0.44613 0.0148-0.0743 0.0163-0.092 0.0162-0.2028-9e-5 -0.13099-4e-3 -0.17534-0.0273-0.26271-0.0505-0.1954-0.14347-0.36247-0.27886-0.50128-0.0894-0.0916-0.18135-0.1591-0.29421-0.21585-0.0802-0.0403-0.13756-0.0616-0.22814-0.0847-0.0976-0.0248-0.12657-0.028-0.2611-0.0278-0.12641 1.4e-4 -0.15924 3e-3 -0.25222 0.0275-0.16236 0.0415-0.29692 0.10822-0.42657 0.21149-0.0365 0.0291-0.12474 0.11552-0.15305 0.14993-0.10149 0.12339-0.17276 0.25849-0.21233 0.40243-0.0313 0.1138-0.0414 0.20007-0.0389 0.33194 3e-3 0.11002 0.0203 0.21191 0.0568 0.31831 0.0422 0.12298 0.11106 0.24579 0.1876 0.33447 0.0523 0.0606 0.13159 0.13701 0.17954 0.17304 0.0409 0.0308 0.0878 0.0622 0.0904 0.0606 8.7e-4 -6.6e-4 3e-3 -4e-3 6e-3 -8e-3zm-8.7134 0.34513c-0.12737-9e-3 -0.22636-0.028-0.33471-0.0645-0.19346-0.0651-0.3509-0.16246-0.50212-0.31051-0.12421-0.12161-0.21725-0.25571-0.28332-0.40836-0.13243-0.30588-0.14139-0.64593-0.0253-0.96136 0.0795-0.21588 0.216-0.40566 0.40838-0.56756 0.18889-0.15896 0.43209-0.257 0.68627-0.27664 0.0528-4e-3 0.21121-3e-3 0.25558 8.7e-4 0.24391 0.0249 0.4509 0.10363 0.63698 0.24227 0.13826 0.10301 0.25224 0.22599 0.33823 0.36498 0.028 0.0452 0.0738 0.13588 0.0928 0.18362 0.0524 0.13181 0.0848 0.27486 0.0925 0.4101 8.7e-4 0.0165 3e-3 0.0305 3e-3 0.0312 8.7e-4 6.4e-4 3e-3 -3e-3 3e-3 -7e-3 4e-5 -0.0212 5e-3 -0.0855 0.0103-0.11993 0.021-0.15284 0.0714-0.30544 0.14448-0.43653 0.0599-0.10743 0.13661-0.20858 0.22664-0.29867 0.11643-0.11649 0.22929-0.19679 0.36764-0.26154 0.125-0.0585 0.28251-0.0988 0.4294-0.10992 0.0529-4e-3 0.23637-2e-3 0.27654 3e-3 0.13235 0.0172 0.22628 0.0403 0.33207 0.082 0.15942 0.0627 0.29407 0.15309 0.42983 0.28845 0.14646 0.14602 0.24581 0.30432 0.30787 0.49053 0.0358 0.10756 0.0548 0.20285 0.0643 0.32272 2e-3 0.0248 4e-3 0.0456 4e-3 0.0464 6.4e-4 6.6e-4 2e-3 -0.0117 3e-3 -0.0275 0.0198-0.32275 0.15525-0.6126 0.39738-0.85013 0.19107-0.18744 0.41669-0.30203 0.67513-0.34289 0.19465-0.0308 0.40591-0.0198 0.58429 0.0305 0.13031 0.0367 0.24659 0.0902 0.35995 0.16572 0.11401 0.0759 0.2433 0.19965 0.32831 0.31415 0.14155 0.19067 0.21907 0.39813 0.2425 0.64905 5e-3 0.053 4e-3 0.20189-8.7e-4 0.25475-0.0251 0.24224-0.0934 0.42839-0.22565 0.61471-0.11524 0.1624-0.29397 0.31627-0.47443 0.40844-0.25858 0.13208-0.56078 0.17226-0.85461 0.11364-0.17006-0.0339-0.32346-0.10023-0.46816-0.20234-0.0782-0.0551-0.12726-0.097-0.19696-0.16802-0.22463-0.22881-0.3466-0.50024-0.36639-0.81534-8.7e-4 -0.0151-3e-3 -0.0268-3e-3 -0.026-6.5e-4 6.5e-4 -3e-3 0.0222-4e-3 0.0477-0.0126 0.17302-0.0529 0.32562-0.12384 0.46963-0.0627 0.12732-0.14112 0.23378-0.24994 0.33942-0.11264 0.10933-0.21265 0.18144-0.34331 0.24753-0.14078 0.0712-0.29086 0.11335-0.46128 0.12948-0.0436 4e-3 -0.17796 4e-3 -0.22434 1e-4 -0.12849-0.0113-0.24866-0.0382-0.35047-0.0782-0.047-0.0185-0.12898-0.0571-0.16575-0.0781-0.14899-0.085-0.29881-0.21566-0.40698-0.355-0.094-0.12106-0.15738-0.23977-0.20309-0.38023-0.0336-0.10344-0.0523-0.20261-0.059-0.31491-8.7e-4 -0.0157-3e-3 -0.028-3e-3 -0.0273-8.7e-4 6.5e-4 -3e-3 0.0163-3e-3 0.0348-6e-3 0.12213-0.037 0.26366-0.0826 0.38363-0.0532 0.14002-0.1362 0.27429-0.23357 0.3781-0.0384 0.041-0.10907 0.109-0.14023 0.13503-0.19148 0.15992-0.43958 0.26738-0.68446 0.29643-0.0729 9e-3 -0.17056 0.0124-0.22434 9e-3zm2.7833-0.24065c0.12734-0.0143 0.22701-0.0419 0.3346-0.0928 0.14432-0.0683 0.29376-0.18873 0.40115-0.32335 0.11213-0.14055 0.17939-0.30436 0.20346-0.49551 6e-3 -0.0497 9e-3 -0.13379 6e-3 -0.19854-9e-3 -0.2232-0.0841-0.42815-0.21928-0.59858-0.0233-0.0293-0.079-0.0908-0.10427-0.11494-0.0784-0.0751-0.1751-0.14392-0.2661-0.18951-0.15211-0.0763-0.33118-0.11215-0.51887-0.10416-0.0625 3e-3 -0.0886 5e-3 -0.14757 0.0151-0.12107 0.02-0.23218 0.0612-0.34177 0.12644-0.15886 0.0946-0.31223 0.25671-0.4046 0.42765-0.084 0.1555-0.12245 0.31102-0.12235 0.4952 9e-5 0.16885 0.0331 0.31354 0.10382 0.45502 0.0888 0.17754 0.24437 0.3468 0.41674 0.45327 0.13971 0.0863 0.29594 0.13554 0.47491 0.14973 0.0261 2e-3 0.15085-8.7e-4 0.18378-5e-3zm-0.31749-0.53145-6.5e-4 -0.31495-0.0745-6.6e-4 -0.0745-6.4e-4 2e-3 -0.2769 2e-3 -0.27689 6e-3 -0.0115c8e-3 -0.0149 0.0244-0.0316 0.0397-0.0394l0.0121-6e-3 0.2897 3e-5 0.2897 1e-5 0.0134 8e-3c0.0169 0.01 0.0315 0.0246 0.039 0.0399l6e-3 0.0118 6.4e-4 0.27567 6.6e-4 0.27567h-0.1472v0.62785l-0.0513 2e-3c-0.0282 8.7e-4 -0.11891 2e-3 -0.20152 2e-3l-0.15018 2e-5zm0.16539-1.0031c-0.0595-5e-3 -0.0988-0.0301-0.12393-0.0784-0.0148-0.0285-0.018-0.0457-0.018-0.10041-3e-5 -0.0385 6.6e-4 -0.0486 5e-3 -0.0647 0.0153-0.0554 0.0465-0.0887 0.0999-0.10676 0.0166-5e-3 0.0215-6e-3 0.0736-6e-3 0.054 4e-5 0.0564 2.3e-4 0.0743 7e-3 0.0252 9e-3 0.0514 0.0252 0.0626 0.0382 0.0192 0.0224 0.0337 0.056 0.0395 0.0915 3e-3 0.0242 2e-3 0.0815-4e-3 0.10556-6e-3 0.0254-0.0198 0.0513-0.0368 0.0695-0.0353 0.0377-0.09 0.0518-0.17228 0.0447zm2.6818 1.5386c0.0911-4e-3 0.14277-0.0116 0.22442-0.0328 0.18641-0.0483 0.35436-0.14966 0.50326-0.30369 0.16746-0.17324 0.25583-0.36583 0.28173-0.61405 5e-3 -0.0466 4e-3 -0.17616-8.7e-4 -0.22499-0.0294-0.26492-0.13125-0.4687-0.32867-0.65787-0.17739-0.16996-0.38208-0.26317-0.62739-0.28569-0.0362-3e-3 -0.15616-3e-3 -0.19798 4e-5 -0.12569 0.0101-0.24824 0.043-0.35798 0.0964-0.0677 0.0329-0.12227 0.0671-0.18676 0.11692-0.0411 0.0318-0.15395 0.14442-0.18907 0.18873-0.13023 0.16425-0.19995 0.3259-0.22692 0.52622-5e-3 0.0394-8e-3 0.1864-3e-3 0.22659 0.0245 0.2453 0.11321 0.43995 0.28304 0.62076 0.0968 0.10311 0.19602 0.17876 0.3103 0.2367 0.10383 0.0526 0.20855 0.0845 0.32954 0.10037 0.0687 9e-3 0.10249 0.0101 0.18751 6e-3zm-0.12161-0.34979c-0.17138-9e-3 -0.34232-0.10976-0.42904-0.25217-0.0426-0.07-0.0673-0.14023-0.0841-0.23982l-2e-3 -9e-3 0.0156-2e-3c0.0204-3e-3 0.21486-3e-3 0.26897 1e-5l0.042 2e-3 2e-3 0.0192c4e-3 0.0456 0.0234 0.0965 0.048 0.12756 0.0165 0.0207 0.042 0.0408 0.0685 0.0539 0.0393 0.0193 0.0714 0.0271 0.13329 0.0321 0.091 7e-3 0.15717-0.0152 0.21545-0.0736 0.0625-0.0627 0.0972-0.13819 0.11441-0.24905 8e-3 -0.0488 9e-3 -0.16788 8.7e-4 -0.21749-0.011-0.0777-0.0297-0.13838-0.0569-0.18378-0.0564-0.0942-0.14853-0.13841-0.26772-0.12855-0.041 3e-3 -0.0646 8e-3 -0.0941 0.0174-0.0652 0.0213-0.11003 0.0606-0.13827 0.12096-9e-3 0.02-0.0252 0.0732-0.0252 0.0846v6e-3h0.0926l-0.12799 0.12802-0.12799 0.12801-0.12603-0.126c-0.0693-0.0693-0.1254-0.12662-0.12464-0.12738 6.4e-4 -6.5e-4 0.0226-2e-3 0.0487-3e-3l0.0473-8.7e-4 4e-3 -0.0215c0.0151-0.0738 0.0294-0.11788 0.0566-0.17443 0.0211-0.0437 0.0432-0.0791 0.0672-0.10702 0.0841-0.098 0.18696-0.15799 0.31507-0.18361 0.0524-0.0105 0.0783-0.0124 0.14989-0.0107 0.0738 2e-3 0.10776 6e-3 0.16646 0.0208 0.0413 0.0105 0.0506 0.0135 0.0862 0.028 0.0741 0.0302 0.13429 0.0701 0.1911 0.1266 0.11209 0.11157 0.1753 0.25005 0.19498 0.42714 7e-3 0.0635 4e-3 0.17931-6e-3 0.23828-0.0244 0.13879-0.0851 0.25998-0.17924 0.35769-0.0916 0.095-0.19529 0.15178-0.33029 0.18073-0.0594 0.0127-0.12393 0.0163-0.21025 0.0117zm-5.071 0.3473c0.11532-5e-3 0.2156-0.0252 0.32479-0.066 0.19835-0.0742 0.38606-0.2178 0.50626-0.38747 0.10398-0.1468 0.16196-0.30733 0.17908-0.49586 3e-3 -0.0389 3e-3 -0.16029 9e-5 -0.20153-8e-3 -0.0935-0.0214-0.16052-0.0494-0.24461-0.0485-0.14591-0.11966-0.26555-0.22901-0.38485-0.10055-0.1097-0.23363-0.20467-0.36296-0.25901-0.17778-0.0747-0.37836-0.0988-0.58049-0.0697-0.19021 0.0274-0.35518 0.10041-0.49937 0.22115-0.12538 0.10498-0.22799 0.23502-0.29654 0.37583-0.11798 0.24236-0.13765 0.51406-0.0558 0.77061 0.053 0.16596 0.15782 0.32975 0.29021 0.45333 0.1659 0.15486 0.35941 0.24852 0.57929 0.28037 0.0724 0.0104 0.10052 0.0116 0.19385 8e-3zm-0.45628-0.6567c-0.0498-9e-3 -0.0641-0.0118-0.0896-0.0206-0.0566-0.0194-0.0905-0.0408-0.13371-0.0841-0.0426-0.0427-0.068-0.0836-0.0856-0.13722-0.0312-0.0954-0.029-0.23624 5e-3 -0.32696 0.0364-0.097 0.11876-0.17784 0.21583-0.21186 0.0472-0.0166 0.12343-0.0252 0.17926-0.0202 0.12571 0.0111 0.20552 0.0537 0.27634 0.14753 0.0205 0.0272 0.0238 0.034 0.0187 0.0389-3e-3 3e-3 -0.0904 0.0491-0.14059 0.0743-0.0192 0.01-0.0263 0.0121-0.0285 0.01-2e-3 -2e-3 -3e-3 -3e-3 -3e-3 -5e-3 0-3e-3 -0.0186-0.0298-0.0302-0.043-0.0143-0.0162-0.0415-0.0337-0.0661-0.0427-0.0177-6e-3 -0.0239-8e-3 -0.0463-8e-3 -0.0498 8e-5 -0.0831 0.0128-0.11381 0.0434-0.0198 0.0196-0.0367 0.0514-0.0452 0.0846-0.0115 0.045-0.0129 0.13626-3e-3 0.18124 0.0101 0.0449 0.0268 0.0776 0.0533 0.10415 0.0312 0.0313 0.0612 0.0429 0.11057 0.0429 0.0436 0 0.0752-0.01 0.10394-0.0312 0.0172-0.013 0.0337-0.0328 0.0482-0.0581 5e-3 -9e-3 0.0108-0.0171 0.012-0.0171 3e-3 0 0.13744 0.0675 0.15459 0.0778 6e-3 3e-3 -0.0358 0.0613-0.0653 0.0909-0.0498 0.05-0.10948 0.0841-0.17697 0.10114-0.0375 0.01-0.1183 0.0142-0.15014 9e-3zm0.7592 8.7e-4c-3e-3 -6.5e-4 -0.0149-3e-3 -0.0254-3e-3 -0.0614-9e-3 -0.12057-0.0316-0.16386-0.0633-0.0837-0.0611-0.13025-0.14383-0.14576-0.25842-5e-3 -0.0362-4e-3 -0.12428 8.7e-4 -0.15843 0.0141-0.0882 0.0439-0.14972 0.10073-0.20789 0.0532-0.0544 0.10443-0.0837 0.1777-0.10136 0.085-0.0206 0.19447-0.0113 0.27502 0.0234 0.0426 0.0184 0.0879 0.053 0.12023 0.0919 0.0173 0.0207 0.0403 0.0546 0.0403 0.0593 0 2e-3 -0.0294 0.0182-0.0653 0.0369-0.0359 0.0186-0.0735 0.0383-0.0835 0.0437l-0.0181 0.01-0.0156-0.0228c-0.0445-0.065-0.10167-0.0893-0.17627-0.075-0.0579 0.0111-0.0999 0.0545-0.11946 0.12373-6e-3 0.0215-7e-3 0.0282-8e-3 0.0853-2e-3 0.0698 3.2e-4 0.0868 0.0131 0.12459 0.0197 0.059 0.0627 0.10364 0.11056 0.11494 0.0241 6e-3 0.0703 5e-3 0.0948-8.7e-4 0.0454-0.0116 0.0803-0.0412 0.10391-0.0881 3e-3 -7e-3 8e-3 -0.0133 9e-3 -0.0133 3e-3 0 0.14894 0.0717 0.1552 0.0765 4e-3 3e-3 3e-3 5e-3 -0.0138 0.0314-0.0244 0.0368-0.0698 0.0825-0.10505 0.10577-0.0697 0.046-0.14338 0.0682-0.22336 0.0674-0.0179-1.8e-4 -0.0355-6.5e-4 -0.0389-8.7e-4zm6.7327-0.10737v-0.24333l-0.24399-6.5e-4 -0.24398-6.6e-4 -0.0013-0.1712h0.4893v-0.48923h0.1724v0.48923h0.4867v0.1724h-0.4867v0.4867h-0.1724z" fill="#808080" stroke-width=".0025349"/></g></g></svg>
