<?xml version="1.0" encoding="UTF-8"?>
<svg width="130.09mm" height="28.997mm" version="1.1" viewBox="0 0 130.09 28.997" xmlns="http://www.w3.org/2000/svg">
 <g transform="translate(-36.122 -89.481)">
  <g transform="matrix(2.6995 0 0 2.6995 -768.61 -687.29)" fill="#f9f9f9" aria-label="Ecobricks.org">
   <g transform="matrix(.14205 0 0 .14205 278.95 191.13)" fill="#f9f9f9" aria-label="ecobricks.org">
    <path d="m220.69 720.5c0.0605 2.1995 2.1632 3.8166 4.2215 4.0762 2.4547 0.33278 4.9038-0.36081 7.1652-1.2637 0.71615 1.3346 1.4323 2.6693 2.1484 4.0039-1.9928 1.2689-4.1952 2.3419-6.592 2.4848-2.9576 0.29464-6.1237-0.14753-8.5581-1.9659-3.1256-2.213-4.5127-6.2519-4.1578-9.9744 0.26207-3.7407 2.6699-7.2619 6.1394-8.7335 2.6436-1.1371 5.7525-1.2018 8.4446-0.18914 2.8717 1.06 4.9414 3.7069 5.6448 6.6436 0.3981 1.6029 0.49585 3.2728 0.44621 4.9182-4.9675-2e-5 -9.9349-3e-5 -14.902-5e-5zm4.668-7.3828c-1.6706-0.0716-3.4893 0.70303-4.1516 2.3279-0.43805 0.6726-0.38251 1.1143 0.43892 0.93383h7.6775c-0.22117-1.34-1.03-2.6957-2.4225-3.0524-0.49666-0.16146-1.0225-0.20827-1.5424-0.20934z"/>
    <path d="m252.42 716.11c-0.99915-1.3263-2.6273-2.2223-4.3164-2.0508-2.2322-0.23714-4.3596 1.4336-4.8694 3.5803-0.6632 2.2898 0.20168 5.0927 2.3938 6.2256 1.3177 0.70954 2.949 0.9189 4.3234 0.23071 1.2864-0.54212 2.2443-1.6604 2.8201-2.9077 1.7904 0.49479 3.5807 0.98959 5.3711 1.4844-1.0987 3.7308-4.5949 6.4353-8.3794 7.0178-3.0425 0.4971-6.3338-0.15786-8.7352-2.1575-2.955-2.3546-4.3391-6.3341-3.826-10.037 0.48689-4.2074 3.8157-7.934 7.9887-8.7662 1.7165-0.3135 3.5078-0.33253 5.2213 4e-3 1.274 0.26573 2.4632 0.86166 3.5717 1.4976h3.8268v5.8789h-5.3906z"/>
    <path d="m258.77 719.15c-0.0717-3.9838 2.3029-7.9145 5.9412-9.5853 4.1136-1.9764 9.4827-1.1837 12.663 2.1566 3.4151 3.4941 3.853 9.3406 1.2103 13.405-1.9627 3.126-5.7104 4.8674-9.3562 4.7038-3.6663 6e-3 -7.3136-1.9837-9.0856-5.229-0.94365-1.6493-1.3763-3.5591-1.3727-5.4513zm5.8398 0c-0.0884 2.4369 1.6973 4.8884 4.1766 5.2185 2.0632 0.36374 4.2552-0.78661 5.088-2.7201 1.0292-2.3055 0.58797-5.452-1.5937-6.9466-2.2494-1.5173-5.7688-0.82206-7.0094 1.679-0.46313 0.84426-0.6673 1.8106-0.66147 2.7692z"/>
    <path d="m280.85 698.96h8.8281v10.605q1.0547-0.50781 2.168-0.78125t2.2852-0.27344q2.2461 0 4.1602 0.83984 1.9141 0.83985 3.3008 2.2852t2.168 3.3789q0.80078 1.9336 0.80078 4.1016 0 2.1875-0.78125 4.1211-0.76172 1.9336-2.1484 3.3789-1.3867 1.4258-3.3008 2.2656-1.9141 0.82032-4.1992 0.82032-1.2305 0-2.3438-0.23438-1.1133-0.23437-2.1094-0.66406v0.54687h-5.9961v-25.039h-2.832zm12.871 14.941q-1.2891 0-2.3242 0.58593-1.0156 0.58594-1.7188 1.6797v6.0547q0.625 0.9375 1.6602 1.5234 1.0547 0.5664 2.3438 0.5664 0.9961 0 1.8945-0.35156 0.89843-0.37109 1.5625-1.0352 0.68359-0.68359 1.0742-1.6211 0.39063-0.95703 0.39063-2.1484 0-1.2109-0.39063-2.1875-0.39062-0.97656-1.0547-1.6602-0.66407-0.6836-1.5625-1.0352-0.87891-0.37109-1.875-0.37109z"/>
    <path d="m324.29 716.48h-5.4883v-2.0898q-0.80078 0-1.4648 0.11718-0.66406 0.0977-1.1719 0.35157-0.48829 0.2539-0.83985 0.70312-0.33203 0.44922-0.46875 1.1133v7.3242h4.1211v5.3516h-13.203v-5.3516h3.0273v-9.5312h-2.9883v-5.3516h9.0039v1.4258q0.85937-0.68359 1.9336-1.0547 1.0742-0.37109 2.3438-0.37109 1.2891 0 2.6562 0.0195 1.3672 0.0195 2.5391 0.0195z"/>
    <path d="m326.27 709.11h9.082v14.883h2.8125v5.3516h-11.895v-5.3516h3.0469v-9.5312h-3.0469zm2.7344-6.5234q0-0.72265 0.2539-1.3476 0.27344-0.64454 0.74219-1.1133t1.0938-0.74218q0.64453-0.27344 1.3867-0.27344 0.70313 0 1.3281 0.27344 0.625 0.27343 1.0938 0.74218t0.74218 1.1133q0.27344 0.625 0.27344 1.3476 0 0.72266-0.27344 1.3672-0.27343 0.625-0.74218 1.0938t-1.0938 0.74219q-0.625 0.27343-1.3281 0.27343-0.74219 0-1.3867-0.27343-0.625-0.27344-1.0938-0.74219t-0.74219-1.0938q-0.2539-0.64453-0.2539-1.3672z"/>
    <path d="m355.52 716.11q-0.83984-1.0547-1.875-1.582-1.0352-0.54688-2.4414-0.46875-1.1328-0.0781-2.0703 0.3125-0.91797 0.39062-1.6016 1.0938-0.66406 0.70312-1.0352 1.6797-0.37109 0.95703-0.37109 2.168 0 1.0742 0.39062 2.0312 0.39063 0.95703 1.0547 1.6602 0.68359 0.68359 1.6016 1.0742 0.9375 0.39062 2.0312 0.46875 0.91797-0.0781 1.6602-0.3711 0.76172-0.3125 1.3477-0.78125 0.58593-0.48828 0.99609-1.0742 0.42969-0.60546 0.66406-1.1328l5.3711 1.4844q-0.33204 1.1719-1.1524 2.4414-0.80078 1.2695-2.1094 2.3242-1.2891 1.0352-3.0859 1.7188-1.7773 0.6836-4.0625 0.6836-2.3242 0-4.2773-0.83985-1.9531-0.85937-3.3594-2.3242-1.4062-1.4648-2.207-3.4375-0.78125-1.9726-0.78125-4.2383 0-2.2461 0.80078-4.1602 0.82031-1.9336 2.2461-3.3594 1.4258-1.4453 3.3789-2.2461 1.9727-0.80078 4.2773-0.72266 1.6406-0.0781 3.1836 0.37109 1.543 0.44922 2.9297 1.3477h3.8867v5.8789z"/>
    <path d="m361.62 698.96h9.1211v17.52h3.418l1.4062-2.0117v-5.3516h10.469v5.3516h-3.6328l-3.7695 4.3555 3.8476 4.6484h3.3594v5.8789h-5.4883l-6.5625-8.6719h-3.0469v3.3203h2.0703v5.3516h-11.191v-5.3516h3.125v-19.688h-3.125z"/>
    <path d="m401.92 715.31c-0.0721-1.3188-1.5263-1.9213-2.6367-2.168-1.3245-0.24718-2.8304-0.39221-4.0332 0.32712-1.0781 0.67041-0.45651 2.2983 0.70313 2.4121 2.5641 0.60337 5.239 0.82723 7.6762 1.8855 1.6958 0.70149 3.1871 2.1475 3.4518 4.0276 0.41266 2.1096-0.42425 4.3535-2.0779 5.7173-2.4554 2.0314-5.8482 2.6028-8.9468 2.2094-1.4433-0.19839-2.8913-0.68022-3.9998-1.6572h-3.5352v-5.4297h5.5274c-0.0496 1.3118 1.3312 2.0338 2.4414 2.2656 1.32 0.20431 2.7654 0.25945 4.0039-0.3125 1.0392-0.41962 1.0437-1.9884 0.032-2.4313-1.1129-0.50093-2.3519-0.60356-3.5284-0.89972-2.4797-0.50894-5.1723-1.022-6.9834-2.9428-1.9464-2.0642-1.7929-5.6265 0.23139-7.5883 2.4039-2.4253 6.1026-2.9366 9.3516-2.429 1.4263 0.18873 2.8232 0.69279 3.9632 1.5841h3.3984v5.4297l-5.0391 3e-5z"/>
    <path d="m408.99 726.18c-0.031-1.3626 0.75207-2.7068 1.9641-3.335 1.0374-0.576 2.3535-0.64344 3.4199-0.10414 1.2539 0.57085 2.1388 1.8695 2.1895 3.2496 0.0809 1.4951-0.79839 3.0116-2.1735 3.6288-1.2411 0.62627-2.8052 0.43122-3.9084-0.39332-0.91145-0.64497-1.4628-1.7355-1.4874-2.8473-3e-3 -0.0662-4e-3 -0.13243-4e-3 -0.19867z"/>
    <path d="m418.24 719.23c-0.0362-3.3317 1.3105-6.7918 4.0499-8.8028 2.8557-2.1119 6.814-2.4171 10.092-1.1855 2.9515 1.0901 5.0932 3.819 5.7812 6.8491 0.88219 3.796 0.17234 8.1754-2.6298 11.03-2.269 2.3582-5.75 3.2029-8.9223 2.7031-3.1311-0.42027-5.9738-2.5046-7.256-5.4014-0.76739-1.616-1.1045-3.4101-1.1145-5.1923zm3.8477 0c-0.0691 2.7486 1.165 5.7284 3.7266 7.0003 2.6456 1.358 6.2028 0.33432 7.7056-2.2386 1.4778-2.4304 1.5742-5.5437 0.69283-8.1998-0.69416-2.1184-2.5847-3.8215-4.8304-4.0714-2.4182-0.40941-5.0386 0.7538-6.2106 2.9392-0.80377 1.3784-1.0896 2.9909-1.084 4.5703z"/>
    <path d="m454.6 713.39h-3.7109v-1.25c-2.1155-1e-3 -3.8288 1.8219-4.1858 3.8229-0.11328 0.84493-0.0241 1.7102-0.0525 2.5637v7.461h3.4375v3.3594h-10.039v-3.3594h2.793c7e-3 -4.5052 0.013-9.0104 0.0195-13.516h-2.8125v-3.3594h6.4648v2.793c0.8552-1.6342 2.4918-3.0255 4.4251-2.9492 1.2203 4e-3 2.4413-0.0176 3.6608 0.0391 1e-5 1.4648 3e-5 2.9297 4e-5 4.3945z"/>
    <path d="m470.45 727.57c-1.6922 1.8761-4.3733 2.534-6.8121 2.1277-3.2068-0.34994-6.0715-2.5792-7.2321-5.5844-1.1335-2.8692-1.2188-6.1565-0.29877-9.0953 0.97394-3.1895 3.8196-5.6511 7.1018-6.2028 2.4509-0.42727 5.1963-0.21551 7.2412 1.333 0.10419-0.33419-0.25544-1.1322 0.27997-1.0352h3.3528c-9e-3 6.7233 0.0183 13.447-0.0139 20.17-0.0642 2.9231-1.0727 6.1715-3.7465 7.7188-2.7023 1.5048-5.9866 1.4977-8.9495 0.91-1.8983-0.44154-3.783-1.1691-5.2783-2.4512 0.65104-0.98307 1.3021-1.9662 1.9531-2.9492 2.5691 2.1097 6.2403 2.8696 9.4321 1.926 2.0502-0.66991 2.7851-2.9556 2.903-4.9012 0.0584-0.65369 0.0702-1.3102 0.0673-1.9662zm-4.8438-0.9375c1.7948 7e-3 3.7936-0.63507 4.8438-2.1403v-11.004c-1.7529-1.5082-4.2872-1.9494-6.5112-1.4694-2.423 0.55044-4.1469 2.7763-4.5257 5.1672-0.43142 2.794-0.0331 6.0804 2.1802 8.0655 1.0991 0.95366 2.5738 1.3886 4.013 1.3812z"/>
   </g>
  </g>
 </g>
 <g transform="translate(2.6953 4.339)">
  <g transform="matrix(.17994 0 0 .17228 -8.078 -13.757)">
   <path d="m57.668 152.74c-9.2502-1.3534-19.061-7.6796-23.502-15.154-6.5207-10.976-5.4798-24.126 2.6902-33.986 9.2459-11.159 25.306-15.484 39.551-10.653 9.6012 3.2563 17.375 10.864 20.455 20.019 1.1812 3.5104 1.6049 9.9045 0.91783 13.85-2.1116 12.125-13.293 22.86-26.693 25.625-3.5314 0.7288-9.5592 0.86258-13.419 0.29783zm13.695-25.066c2.3357-0.87388 4.7269-3.0533 5.6989-5.1942 0.91624-2.018 0.92305-5.7234 0.0142-7.7245-1.4885-3.2774-4.9303-5.5092-9.0254-5.8525-4.9484-0.41486-9.2023 1.9518-10.994 6.1165-1.1678 2.7146-0.95213 6.0936 0.54254 8.5006 1.1398 1.8356 3.8369 3.9445 5.7558 4.5005 2.1055 0.61011 5.8888 0.44646 8.0078-0.34638z" fill="#ff13ff" stop-color="#000000"/>
   <path d="m91.762 95.146c-6.0323-1.1024-10.817-3.2737-15.614-7.0858-7.7524-6.1606-11.298-14.301-9.5199-21.856 1.2517-5.318 5.7069-9.3332 12.258-11.047 3.2063-0.83895 10.319-0.55709 14.093 0.55846 8.8948 2.6294 15.926 8.0849 19.653 15.248 2.9832 5.734 3.2765 10.438 0.94567 15.164-3.4721 7.0411-12.412 10.737-21.816 9.0184zm5.6098-15.97c0.63114-0.32638 1.4669-1.1171 1.8572-1.7572 2.5888-4.2457-2.9781-10.434-9.3865-10.434-6.3053 0-7.5095 6.8627-1.9249 10.97 2.8698 2.1105 6.7623 2.6133 9.4542 1.2212z" fill="#f00" stop-color="#000000"/>
   <path d="m139.15 96.05c-4.2746-0.64713-9.8151-3.5489-13.863-7.2609-6.1268-5.6179-9.8162-13.842-8.6497-19.281 0.77912-3.6329 3.0603-6.3678 6.5263-7.8243 1.6997-0.71428 7.3789-0.67347 9.886 0.07104 6.7619 2.0081 13.498 7.3286 17.357 13.709 4.019 6.6458 4.0282 14.149 0.022 17.949-2.4446 2.3187-6.742 3.3234-11.278 2.6368zm0.60256-13.277c4.5516-2.1599 0.19972-10.214-5.9099-10.937-1.7358-0.20558-1.9462-0.14272-2.9786 0.88964-0.84498 0.84499-1.1108 1.4381-1.1108 2.4781 0 2.9325 2.7456 6.4136 5.9565 7.5524 1.9676 0.69783 2.6026 0.70052 4.0429 0.01709z" fill="#fa8d04" stop-color="#000000"/>
   <path d="m170.19 135.15c-4.4102-0.97864-8.8468-3.8185-13.239-8.4741-5.237-5.5515-8.1182-11.258-9.0238-17.872-0.63718-4.6538 0.26393-8.7691 2.553-11.659 3.4428-4.3469 10.751-4.6111 17.356-0.6276 6.4765 3.9057 11.858 10.522 14.663 18.026 1.03 2.7562 1.1975 3.7032 1.3289 7.5158 0.13263 3.8467 0.0549 4.6166-0.6578 6.5139-1.9902 5.2984-7.0927 7.8838-12.981 6.5772zm1.1456-16.527c0.62187-0.62195 0.75888-1.1868 0.73404-3.0265-0.065-4.8117-4.0474-9.3183-8.2562-9.3426-2.1608-0.0125-3.1653 1.2216-3.1608 3.8834 8e-3 4.9181 4.475 9.8617 8.5018 9.4095 0.78023-0.0876 1.76-0.50259 2.1812-0.92375z" fill="#fddf00" stop-color="#000000"/>
   <path d="m123.97 141.86c-16.888-4.4227-27.813-25.144-20.849-39.546 1.3901-2.8749 5.0851-6.4801 8.2103-8.0108 10.748-5.2641 25.847 1.4001 32.927 14.533 5.9371 11.012 5.0149 22.261-2.3788 29.018-4.7234 4.317-11.193 5.7638-17.91 4.0049zm6.8666-19.551c0.49984-0.35766 1.2888-1.3768 1.7531-2.2649 2.6479-5.0635-2.3372-12.686-8.2966-12.686-2.564 0-4.6158 1.117-5.4572 2.9708-2.0702 4.5612 0.99593 11.013 6.0025 12.63 1.5268 0.49325 4.9132 0.12619 5.9982-0.65016z" fill="#999" stop-color="#000000"/>
   <path d="m102.44 222.87c-2.609-0.32932-4.9322-1.1181-8.6623-2.9412-2.469-1.2067-3.8058-2.2089-6.8237-5.1156-5.324-5.1279-8.0643-9.5322-10.438-16.777-1.5794-4.8194-2.1455-8.8583-2.1654-15.45-0.0204-6.7465 0.52093-10.287 2.3776-15.55 4.5461-12.886 13.506-22.079 24.193-24.823 3.1163-0.80007 8.4675-0.97647 11.559-0.38103 5.2672 1.0146 10.884 4.1397 15.071 8.3843 10.747 10.897 14.716 28.945 9.979 45.371-1.0461 3.6272-3.8025 9.6199-5.8293 12.673-4.2391 6.3864-11.812 12.155-18.345 13.973-2.0988 0.58416-8.4105 0.95177-10.915 0.63569zm10.411-33.87c2.3451-1.0921 5.0049-4.0437 5.9713-6.6265 0.83893-2.2422 1.034-7.644 0.36318-10.059-0.61285-2.2068-3.2828-5.7796-5.2096-6.9712-1.5191-0.93941-2.0581-1.0661-4.5185-1.062-3.2363 5e-3 -4.4731 0.51471-6.6186 2.7255-2.8696 2.9569-4.4169 8.1492-3.6782 12.343 0.44409 2.5211 1.8993 5.9232 3.071 7.1796 2.9905 3.2067 7.0243 4.1454 10.619 2.4712z" fill="#00e6ff" stop-color="#000000"/>
   <path d="m166.38 196.37c-7.7042-1.1285-16.521-8.835-21.525-18.815-3.4217-6.8238-5.1304-14.66-4.8084-22.051 0.22139-5.0829 0.82226-7.5612 2.8645-11.815 4.2876-8.9298 12.903-11.833 22.073-7.4389 8.3075 3.9813 15.471 13.219 18.877 24.343 1.6615 5.4267 1.9722 7.9042 1.7934 14.299-0.14458 5.1696-0.26035 5.9838-1.2551 8.8276-3.2123 9.1832-9.8543 13.846-18.019 12.65zm1.5392-24.873c0.58211-0.30102 1.456-1.2416 1.9421-2.0903 1.775-3.0992 1.5491-6.8774-0.68336-11.429-3.441-7.0162-10.559-7.961-12.395-1.6452-2.3484 8.0781 5.1349 18.268 11.136 15.165z" fill="#05f30a" stop-color="#000000"/>
  </g>
 </g>
 <g transform="translate(-36.122 -89.481)" display="none" fill="#666666" font-family="Mulish" letter-spacing="0px" word-spacing="0px">
  <text transform="matrix(.19017 0 0 .19017 210.48 97.699)" x="-762.10284" y="397.78857" font-size="55.652px" stroke-width="1.3913px" style="line-height:1.25" xml:space="preserve"><tspan x="-762.10284" y="397.78857" stroke-width="1.3913px">Global Ecobrick Alliance</tspan></text>
  <text transform="matrix(.19017 0 0 .19017 210.48 97.699)" x="-809.11816" y="-348.41016" font-size="79.226px" stroke-width="1.9806px" style="line-height:1.25" xml:space="preserve"><tspan x="-809.11816" y="-348.41016" stroke-width="1.9806px"><tspan font-family="Mulish" font-weight="bold" stroke-width="1.9806px">ecobricks.</tspan>org</tspan></text>
 </g>
</svg>
