<?xml version="1.0" encoding="UTF-8"?>
<svg width="127.42mm" height="23.094mm" version="1.1" viewBox="0 0 127.42 23.094" xmlns="http://www.w3.org/2000/svg">
 <g transform="translate(-39.065 -94.729)">
  <g transform="matrix(.26458 0 0 .26458 34.813 100.63)" fill="#666">
   <g transform="matrix(.71876 0 0 .71876 662.96 -14.04)" stroke-width="1px" aria-label="Global Ecobrick Alliance">
    <path d="m-731.19 103.96v-5.9375c-1.6961 3.7617-5.7958 5.9267-9.8116 6.0416-3.7576 0.19762-7.6601-1.0879-10.239-3.8992-4.166-4.3772-5.1601-11.163-3.2776-16.79 1.4756-4.5087 5.2472-8.2775 9.9195-9.351 4.0288-0.9404 8.5405-0.1914 11.751 2.5182 0.9361 0.50128 1.4943 1.7727 2.4564 2.0267h1.5644v3.4766h-4.1992c-1.7836-3.1878-5.4842-5.1584-9.13-4.732-4.2421 0.29513-7.6506 3.8014-8.7588 7.763-1.2487 4.291-0.48415 9.3982 2.6684 12.699 2.1908 2.2326 5.4377 3.2277 8.5152 2.7769 2.8964-0.2458 5.6822-1.9442 6.9195-4.6258 0.22469-0.76962 1.4019-2.4886 0.686-2.8069h-7.9511v-3.3594h12.52v14.199h-3.6328z"/>
    <path d="m-722.14 73.448h6.5625v27.031h3.0469v3.3594h-9.6094v-3.3594h2.9297v-23.672h-2.9297z"/>
    <path d="m-709.21 93.722c-0.0362-3.3317 1.3105-6.7918 4.0499-8.8028 2.8557-2.1119 6.814-2.4171 10.092-1.1855 2.9515 1.0901 5.0932 3.819 5.7812 6.8491 0.88219 3.7959 0.17234 8.1754-2.6298 11.03-2.269 2.3582-5.75 3.2029-8.9223 2.7031-3.1311-0.42027-5.9739-2.5046-7.256-5.4014-0.76739-1.616-1.1045-3.4101-1.1145-5.1923zm3.8477 0c-0.0691 2.7487 1.165 5.7285 3.7266 7.0003 2.6456 1.3581 6.2028 0.33431 7.7056-2.2386 1.4778-2.4304 1.5742-5.5437 0.69283-8.1998-0.69416-2.1184-2.5847-3.8215-4.8304-4.0713-2.4182-0.40941-5.0385 0.7538-6.2106 2.9391-0.80377 1.3784-1.0896 2.9909-1.084 4.5703z"/>
    <path d="m-685.87 73.448h6.5625v11.836c2.649-2.1375 6.4624-2.8564 9.6094-1.4258 3.5486 1.5236 5.4079 5.4928 5.388 9.2081 0.17662 3.938-1.6542 8.1541-5.2716 10.007-3.0086 1.5213-6.9447 1.5313-9.7258-0.50468-0.0885 0.38467 0.18438 1.1308-0.15007 1.2695h-3.4828v-27.031h-2.9297v-3.3594zm11.562 12.871c-1.8724-0.01023-3.7074 0.82716-5 2.168v10.879c1.8022 1.6637 4.5536 1.9891 6.8496 1.3312 2.8444-0.85847 4.3756-3.9339 4.3922-6.7487 0.19856-2.8173-1.06-6.0179-3.8199-7.1411-0.76162-0.33037-1.5927-0.49012-2.4219-0.48828z"/>
    <path d="m-648.69 101.96c-1.6678 1.5836-3.9306 2.654-6.2711 2.4249-2.687-0.0997-5.4136-1.877-6.0549-4.5824-0.56328-2.3466 0.33618-5.0408 2.4085-6.3614 2.611-1.7174 5.8962-1.7261 8.8918-1.392 0.64933 0.15548 1.2476 0.31664 1.0532-0.50914 0.0562-1.4002 0.02-2.959-1.0422-4.0188-1.4713-1.4723-3.7633-1.2626-5.6366-0.92834-1.1675 0.24154-2.3403 0.59308-3.3487 1.246-0.39714-0.83984-0.79427-1.6797-1.1914-2.5195 2.955-1.8423 6.6523-2.67 10.073-1.839 1.9707 0.42094 3.6918 1.8681 4.3076 3.8065 0.68655 1.9849 0.40215 4.103 0.45753 6.1607-5e-3 2.3427-9e-3 4.6854-0.0136 7.0281h2.2461v3.3594h-5.8789v-1.875zm-4.9219-0.60547c1.8396-0.0256 3.6858-0.81483 4.9219-2.1875 6e-3 -1.5234 0.013-3.0469 0.0195-4.5703-1.7428 0.02613-3.4903-0.05968-5.2295 0.05859-1.6358 0.14783-3.4452 1.1096-3.7054 2.879-0.29644 1.3965 0.4349 2.9648 1.8237 3.439 0.68208 0.29249 1.4337 0.37753 2.1698 0.38116z"/>
    <path d="m-638.86 73.448h6.5625v27.031h3.0469v3.3594h-9.6094v-3.3594h2.9297v-23.672h-2.9297z"/>
    <path d="m-627.61 103.84z"/>
    <path d="m-616.07 74.23h21.211v8.3789h-4.0039v-5h-10.566v9.4727h8.8867v3.3594h-8.8867v10.039h10.566v-5h4.0039v8.3594h-21.211v-3.3594h2.8125v-22.871h-2.8125z"/>
    <path d="m-577.14 88.995c-0.9243-1.8406-2.9718-2.9071-5-2.832-2.4246-0.05336-4.6182 1.6764-5.4498 3.9018-0.89097 2.2711-0.91089 4.9153 6.9e-4 7.1831 0.86365 2.1915 3.035 3.9091 5.4491 3.837 2.098 0.0773 4.155-1.0855 5.1412-2.9446 0.15721-0.66196 0.50516-0.65161 0.98692-0.30424 0.78281 0.38632 1.5656 0.77264 2.3484 1.159-1.2865 2.8887-4.1321 4.9928-7.2809 5.3354-2.9226 0.38788-6.03-0.58579-8.0615-2.7573-2.7711-2.9317-3.4739-7.3796-2.4713-11.198 0.88349-3.381 3.5852-6.2886 7.0146-7.1335 3.1153-0.76585 6.7052 0.01412 8.9437 2.3935h2.0508v3.3594h-3.6719z"/>
    <path d="m-570.15 93.722c-0.0362-3.3317 1.3105-6.7918 4.0499-8.8028 2.8557-2.1119 6.814-2.4171 10.092-1.1855 2.9515 1.0901 5.0932 3.819 5.7812 6.8491 0.88219 3.7959 0.17234 8.1754-2.6298 11.03-2.269 2.3582-5.75 3.2029-8.9223 2.7031-3.1311-0.42027-5.9739-2.5046-7.256-5.4014-0.76739-1.616-1.1045-3.4101-1.1145-5.1923zm3.8477 0c-0.0691 2.7487 1.165 5.7285 3.7266 7.0003 2.6456 1.3581 6.2028 0.33431 7.7056-2.2386 1.4778-2.4304 1.5742-5.5437 0.69283-8.1998-0.69416-2.1184-2.5847-3.8215-4.8304-4.0713-2.4182-0.40941-5.0385 0.7538-6.2106 2.9391-0.80377 1.3784-1.0896 2.9909-1.084 4.5703z"/>
    <path d="m-546.81 73.448h6.5625v11.836c2.649-2.1375 6.4624-2.8564 9.6094-1.4258 3.5486 1.5236 5.4079 5.4928 5.388 9.2081 0.17662 3.938-1.6542 8.1541-5.2716 10.007-3.0086 1.5213-6.9447 1.5313-9.7258-0.50468-0.0885 0.38467 0.18438 1.1308-0.15007 1.2695h-3.4828v-27.031h-2.9297v-3.3594zm11.562 12.871c-1.8724-0.01023-3.7074 0.82716-5 2.168v10.879c1.8022 1.6637 4.5536 1.9891 6.8496 1.3312 2.8444-0.85847 4.3756-3.9339 4.3922-6.7487 0.19856-2.8173-1.06-6.0179-3.8199-7.1411-0.76162-0.33037-1.5927-0.49012-2.4219-0.48828z"/>
    <path d="m-506.97 87.882h-3.7109v-1.25c-2.1155-0.0011-3.8288 1.8219-4.1858 3.8229-0.11328 0.84494-0.0241 1.7102-0.0525 2.5637v7.461h3.4375v3.3594h-10.039v-3.3594h2.793c6e-3 -4.5052 0.013-9.0104 0.0195-13.516h-2.8125v-3.3594h6.4648v2.793c0.8552-1.6342 2.4918-3.0255 4.4251-2.9492 1.2203 0.0044 2.4413-0.01754 3.6608 0.03906 1e-5 1.4648 3e-5 2.9297 4e-5 4.3945z"/>
    <path d="m-502.92 83.605h6.6016v16.875h3.0469v3.3594h-9.6094v-3.3594h2.8906v-13.516h-2.9297v-3.3594zm2.2461-7.168c-0.0621-1.8131 2.1803-3.1766 3.7414-2.1973 1.385 0.70083 1.7652 2.6801 0.74097 3.8416-0.98412 1.3942-3.3381 1.2077-4.1095-0.31036-0.25069-0.39719-0.37526-0.86537-0.37293-1.3339z"/>
    <path d="m-475.35 88.995q-0.82031-1.4648-2.0898-2.1484-1.25-0.68359-2.9102-0.68359-1.2695 0-2.3828 0.52734-1.1133 0.52734-1.9531 1.5039-0.82031 0.97656-1.3086 2.3828-0.46875 1.3867-0.46875 3.1055 0 1.6992 0.46875 3.0664 0.48828 1.3672 1.3281 2.3438 0.83985 0.95703 1.9336 1.4844 1.1133 0.50781 2.3828 0.50781 1.875 0 3.2617-0.89843 1.3867-0.91797 2.207-2.6758l3.0078 1.4844q-0.58593 1.25-1.4453 2.2461-0.85937 0.9961-1.9531 1.6992-1.0742 0.70313-2.3828 1.0742-1.2891 0.39063-2.7344 0.39063-2.1094 0-3.9062-0.78125-1.7774-0.80078-3.0859-2.2266-1.2891-1.4258-2.0117-3.3984-0.72265-1.9727-0.72265-4.3164t0.76171-4.3164q0.76172-1.9727 2.0898-3.3789 1.3281-1.4258 3.1055-2.2266 1.7773-0.80078 3.8086-0.80078 1.9141 0 3.6133 0.66406 1.7188 0.66406 3.0078 2.0117h2.0508v3.3594z"/>
    <path d="m-468.24 73.448h7.1289v3.3594h-0.0391v15.117h3.5156l4.8047-4.9609h-1.2109v-3.3594h7.6758v3.3594h-2.5586l-6.1523 6.3477 6.7188 7.168h2.4414v3.3594h-4.2773l-8.2812-9.043h-2.6758v5.6836h1.6797v3.3594h-8.6524v-3.3594h3.3203v-23.672h-3.4375z"/>
    <path d="m-444.88 103.84z"/>
    <path d="m-415.82 100.48h2.4609l-2.3438-6.7188h-11.387l-2.2852 6.7188h3.0469v3.3594h-9.6094v-3.3594h2.5781l9.2188-26.25h5.7617l9.1992 26.25h2.9688v3.3594h-9.6094zm-10.156-9.9609h9.1406l-4.6094-13.242z"/>
    <path d="m-404.17 73.448h6.5625v27.031h3.0469v3.3594h-9.6094v-3.3594h2.9297v-23.672h-2.9297z"/>
    <path d="m-391.13 73.448h6.5625v27.031h3.0469v3.3594h-9.6094v-3.3594h2.9297v-23.672h-2.9297z"/>
    <path d="m-378.08 83.605h6.6016v16.875h3.0469v3.3594h-9.6094v-3.3594h2.8906v-13.516h-2.9297v-3.3594zm2.2461-7.168c-0.0621-1.8131 2.1803-3.1766 3.7414-2.1973 1.385 0.70083 1.7652 2.6801 0.74097 3.8416-0.98412 1.3942-3.3381 1.2077-4.1095-0.31036-0.25069-0.39719-0.37526-0.86537-0.37293-1.3339z"/>
    <path d="m-353.22 101.96c-1.6678 1.5836-3.9306 2.654-6.2711 2.4249-2.687-0.0997-5.4136-1.877-6.0549-4.5824-0.56328-2.3466 0.33618-5.0408 2.4085-6.3614 2.611-1.7174 5.8962-1.7261 8.8918-1.392 0.64933 0.15548 1.2476 0.31664 1.0532-0.50914 0.0562-1.4002 0.02-2.959-1.0422-4.0188-1.4713-1.4723-3.7633-1.2626-5.6366-0.92834-1.1675 0.24154-2.3403 0.59308-3.3487 1.246-0.39714-0.83984-0.79427-1.6797-1.1914-2.5195 2.955-1.8423 6.6523-2.67 10.073-1.839 1.9707 0.42094 3.6918 1.8681 4.3076 3.8065 0.68655 1.9849 0.40215 4.103 0.45753 6.1607-5e-3 2.3427-9e-3 4.6854-0.0136 7.0281h2.2461v3.3594h-5.8789v-1.875zm-4.9219-0.60547c1.8396-0.0256 3.6858-0.81483 4.9219-2.1875 6e-3 -1.5234 0.013-3.0469 0.0195-4.5703-1.7428 0.02613-3.4903-0.05968-5.2295 0.05859-1.6358 0.14783-3.4452 1.1096-3.7054 2.879-0.29644 1.3965 0.4349 2.9648 1.8237 3.439 0.68208 0.29249 1.4337 0.37753 2.1698 0.38116z"/>
    <path d="m-329.92 100.48h2.8516c-0.0117-3.2671 0.0239-6.5352-0.0186-9.8016-0.0367-1.7222-1.077-3.484-2.8187-3.9314-1.8954-0.58804-3.9365-0.0198-5.5465 1.0524-0.56449 0.38609-1.4112 0.68331-1.1865 1.5009v11.18h2.8516v3.3594h-9.4531v-3.3594h2.8125v-13.516h-2.8125v-3.3594h6.4453v2.3828c1.8763-1.6189 4.2806-2.9157 6.8457-2.7469 2.2665 0.02138 4.7018 1.0304 5.7355 3.1628 1.2308 2.3212 0.87884 4.9952 0.93445 7.5213v6.5549h2.8125v3.3594h-9.4531c-1e-5 -1.1198-3e-5 -2.2396-4e-5 -3.3594z"/>
    <path d="m-301.91 88.995c-0.92429-1.8407-2.9718-2.9071-5-2.832-2.4246-0.05335-4.6182 1.6764-5.4498 3.9018-0.89097 2.2711-0.91089 4.9153 6.8e-4 7.1831 0.86365 2.1915 3.035 3.9091 5.4491 3.837 2.098 0.0773 4.155-1.0855 5.1412-2.9446 0.15721-0.66196 0.50516-0.6516 0.98692-0.30424 0.78281 0.38632 1.5656 0.77264 2.3484 1.159-1.2865 2.8887-4.1321 4.9928-7.2809 5.3354-2.9226 0.38788-6.03-0.5858-8.0615-2.7573-2.7711-2.9317-3.4739-7.3796-2.4713-11.198 0.88349-3.3811 3.5852-6.2886 7.0146-7.1335 3.1153-0.76585 6.7052 0.01412 8.9437 2.3935h2.0508v3.3594h-3.6719z"/>
    <path d="m-291.21 94.191c-0.0689 2.4536 1.054 5.1681 3.408 6.2108 2.4732 1.139 5.4023 0.65545 7.7998-0.44487 0.54846-0.0155 1.3636-1.1839 1.6373-0.3409 0.41231 0.69817 0.82461 1.3963 1.2369 2.0945-3.0992 2.2011-7.1196 3.2922-10.865 2.3722-2.5677-0.59221-4.7516-2.4778-5.7663-4.9028-1.113-2.5411-1.2627-5.4347-0.80801-8.1466 0.47947-2.789 2.0623-5.4855 4.6125-6.8386 2.2512-1.2469 4.9981-1.3757 7.4643-0.78474 2.4912 0.63378 4.445 2.7159 5.1134 5.1715 0.60083 1.8053 0.74049 3.7188 0.73735 5.6094h-14.57zm5.6836-8.0664c-1.7898-0.06463-3.6749 0.74016-4.559 2.3584-0.51196 0.8784-0.75942 1.8819-0.92926 2.876h10.488c-0.11386-1.7429-0.63525-3.7414-2.2962-4.6289-0.81674-0.4689-1.775-0.60612-2.7038-0.60547z"/>
   </g>
   <g transform="matrix(10.203 0 0 10.203 -3037.5 -2980.9)" aria-label="Ecobricks.org">
    <g transform="matrix(.14205 0 0 .14205 278.95 191.13)" fill="#666" aria-label="ecobricks.org">
     <path d="m220.69 720.5c0.0605 2.1995 2.1632 3.8166 4.2215 4.0762 2.4547 0.33278 4.9038-0.36081 7.1652-1.2637 0.71615 1.3346 1.4323 2.6693 2.1484 4.0039-1.9928 1.2689-4.1952 2.3419-6.592 2.4848-2.9576 0.29464-6.1237-0.14753-8.5581-1.9659-3.1256-2.213-4.5127-6.2519-4.1578-9.9744 0.26207-3.7407 2.6699-7.2619 6.1394-8.7335 2.6436-1.1371 5.7525-1.2018 8.4446-0.18914 2.8717 1.06 4.9414 3.7069 5.6448 6.6436 0.3981 1.6029 0.49585 3.2728 0.44621 4.9182-4.9675-2e-5 -9.9349-3e-5 -14.902-5e-5zm4.668-7.3828c-1.6706-0.0716-3.4893 0.70303-4.1516 2.3279-0.43805 0.6726-0.38251 1.1143 0.43892 0.93383h7.6775c-0.22117-1.34-1.03-2.6957-2.4225-3.0524-0.49666-0.16146-1.0225-0.20827-1.5424-0.20934z"/>
     <path d="m252.42 716.11c-0.99915-1.3263-2.6273-2.2223-4.3164-2.0508-2.2322-0.23714-4.3596 1.4336-4.8694 3.5803-0.6632 2.2898 0.20168 5.0927 2.3938 6.2256 1.3177 0.70954 2.949 0.9189 4.3234 0.23071 1.2864-0.54212 2.2443-1.6604 2.8201-2.9077 1.7904 0.49479 3.5807 0.98959 5.3711 1.4844-1.0987 3.7308-4.5949 6.4353-8.3794 7.0178-3.0425 0.4971-6.3338-0.15786-8.7352-2.1575-2.955-2.3546-4.3391-6.3341-3.826-10.037 0.48689-4.2074 3.8157-7.934 7.9887-8.7662 1.7165-0.3135 3.5078-0.33253 5.2213 4e-3 1.274 0.26573 2.4632 0.86166 3.5717 1.4976h3.8268v5.8789h-5.3906z"/>
     <path d="m258.77 719.15c-0.0717-3.9838 2.3029-7.9145 5.9412-9.5853 4.1136-1.9764 9.4827-1.1837 12.663 2.1566 3.4151 3.4941 3.853 9.3406 1.2103 13.405-1.9627 3.126-5.7104 4.8674-9.3562 4.7038-3.6663 6e-3 -7.3136-1.9837-9.0856-5.229-0.94365-1.6493-1.3763-3.5591-1.3727-5.4513zm5.8398 0c-0.0884 2.4369 1.6973 4.8884 4.1766 5.2185 2.0632 0.36374 4.2552-0.78661 5.088-2.7201 1.0292-2.3055 0.58797-5.452-1.5937-6.9466-2.2494-1.5173-5.7688-0.82206-7.0094 1.679-0.46313 0.84426-0.6673 1.8106-0.66147 2.7692z"/>
     <path d="m280.85 698.96h8.8281v10.605q1.0547-0.50781 2.168-0.78125t2.2852-0.27344q2.2461 0 4.1602 0.83984 1.9141 0.83985 3.3008 2.2852t2.168 3.3789q0.80078 1.9336 0.80078 4.1016 0 2.1875-0.78125 4.1211-0.76172 1.9336-2.1484 3.3789-1.3867 1.4258-3.3008 2.2656-1.9141 0.82032-4.1992 0.82032-1.2305 0-2.3438-0.23438-1.1133-0.23437-2.1094-0.66406v0.54687h-5.9961v-25.039h-2.832zm12.871 14.941q-1.2891 0-2.3242 0.58593-1.0156 0.58594-1.7188 1.6797v6.0547q0.625 0.9375 1.6602 1.5234 1.0547 0.5664 2.3438 0.5664 0.9961 0 1.8945-0.35156 0.89843-0.37109 1.5625-1.0352 0.68359-0.68359 1.0742-1.6211 0.39063-0.95703 0.39063-2.1484 0-1.2109-0.39063-2.1875-0.39062-0.97656-1.0547-1.6602-0.66407-0.6836-1.5625-1.0352-0.87891-0.37109-1.875-0.37109z"/>
     <path d="m324.29 716.48h-5.4883v-2.0898q-0.80078 0-1.4648 0.11718-0.66406 0.0977-1.1719 0.35157-0.48829 0.2539-0.83985 0.70312-0.33203 0.44922-0.46875 1.1133v7.3242h4.1211v5.3516h-13.203v-5.3516h3.0273v-9.5312h-2.9883v-5.3516h9.0039v1.4258q0.85937-0.68359 1.9336-1.0547 1.0742-0.37109 2.3438-0.37109 1.2891 0 2.6562 0.0195 1.3672 0.0195 2.5391 0.0195z"/>
     <path d="m326.27 709.11h9.082v14.883h2.8125v5.3516h-11.895v-5.3516h3.0469v-9.5312h-3.0469zm2.7344-6.5234q0-0.72265 0.2539-1.3476 0.27344-0.64454 0.74219-1.1133t1.0938-0.74218q0.64453-0.27344 1.3867-0.27344 0.70313 0 1.3281 0.27344 0.625 0.27343 1.0938 0.74218t0.74218 1.1133q0.27344 0.625 0.27344 1.3476 0 0.72266-0.27344 1.3672-0.27343 0.625-0.74218 1.0938t-1.0938 0.74219q-0.625 0.27343-1.3281 0.27343-0.74219 0-1.3867-0.27343-0.625-0.27344-1.0938-0.74219t-0.74219-1.0938q-0.2539-0.64453-0.2539-1.3672z"/>
     <path d="m355.52 716.11q-0.83984-1.0547-1.875-1.582-1.0352-0.54688-2.4414-0.46875-1.1328-0.0781-2.0703 0.3125-0.91797 0.39062-1.6016 1.0938-0.66406 0.70312-1.0352 1.6797-0.37109 0.95703-0.37109 2.168 0 1.0742 0.39062 2.0312 0.39063 0.95703 1.0547 1.6602 0.68359 0.68359 1.6016 1.0742 0.9375 0.39062 2.0312 0.46875 0.91797-0.0781 1.6602-0.3711 0.76172-0.3125 1.3477-0.78125 0.58593-0.48828 0.99609-1.0742 0.42969-0.60546 0.66406-1.1328l5.3711 1.4844q-0.33204 1.1719-1.1524 2.4414-0.80078 1.2695-2.1094 2.3242-1.2891 1.0352-3.0859 1.7188-1.7773 0.6836-4.0625 0.6836-2.3242 0-4.2773-0.83985-1.9531-0.85937-3.3594-2.3242-1.4062-1.4648-2.207-3.4375-0.78125-1.9726-0.78125-4.2383 0-2.2461 0.80078-4.1602 0.82031-1.9336 2.2461-3.3594 1.4258-1.4453 3.3789-2.2461 1.9727-0.80078 4.2773-0.72266 1.6406-0.0781 3.1836 0.37109 1.543 0.44922 2.9297 1.3477h3.8867v5.8789z"/>
     <path d="m361.62 698.96h9.1211v17.52h3.418l1.4062-2.0117v-5.3516h10.469v5.3516h-3.6328l-3.7695 4.3555 3.8476 4.6484h3.3594v5.8789h-5.4883l-6.5625-8.6719h-3.0469v3.3203h2.0703v5.3516h-11.191v-5.3516h3.125v-19.688h-3.125z"/>
     <path d="m401.92 715.31c-0.0721-1.3188-1.5263-1.9213-2.6367-2.168-1.3245-0.24718-2.8304-0.39221-4.0332 0.32712-1.0781 0.67041-0.45651 2.2983 0.70313 2.4121 2.5641 0.60337 5.239 0.82723 7.6762 1.8855 1.6958 0.70149 3.1871 2.1475 3.4518 4.0276 0.41266 2.1096-0.42425 4.3535-2.0779 5.7173-2.4554 2.0314-5.8482 2.6028-8.9468 2.2094-1.4433-0.19839-2.8913-0.68022-3.9998-1.6572h-3.5352v-5.4297h5.5274c-0.0496 1.3118 1.3312 2.0338 2.4414 2.2656 1.32 0.20431 2.7654 0.25945 4.0039-0.3125 1.0392-0.41962 1.0437-1.9884 0.032-2.4313-1.1129-0.50093-2.3519-0.60356-3.5284-0.89972-2.4797-0.50894-5.1723-1.022-6.9834-2.9428-1.9464-2.0642-1.7929-5.6265 0.23139-7.5883 2.4039-2.4253 6.1026-2.9366 9.3516-2.429 1.4263 0.18873 2.8232 0.69279 3.9632 1.5841h3.3984v5.4297l-5.0391 3e-5z"/>
     <path d="m408.99 726.18c-0.031-1.3626 0.75207-2.7068 1.9641-3.335 1.0374-0.576 2.3535-0.64344 3.4199-0.10414 1.2539 0.57085 2.1388 1.8695 2.1895 3.2496 0.0809 1.4951-0.79839 3.0116-2.1735 3.6288-1.2411 0.62627-2.8052 0.43122-3.9084-0.39332-0.91145-0.64497-1.4628-1.7355-1.4874-2.8473-3e-3 -0.0662-4e-3 -0.13243-4e-3 -0.19867z"/>
     <path d="m418.24 719.23c-0.0362-3.3317 1.3105-6.7918 4.0499-8.8028 2.8557-2.1119 6.814-2.4171 10.092-1.1855 2.9515 1.0901 5.0932 3.819 5.7812 6.8491 0.88219 3.796 0.17234 8.1754-2.6298 11.03-2.269 2.3582-5.75 3.2029-8.9223 2.7031-3.1311-0.42027-5.9738-2.5046-7.256-5.4014-0.76739-1.616-1.1045-3.4101-1.1145-5.1923zm3.8477 0c-0.0691 2.7486 1.165 5.7284 3.7266 7.0003 2.6456 1.358 6.2028 0.33432 7.7056-2.2386 1.4778-2.4304 1.5742-5.5437 0.69283-8.1998-0.69416-2.1184-2.5847-3.8215-4.8304-4.0714-2.4182-0.40941-5.0386 0.7538-6.2106 2.9392-0.80377 1.3784-1.0896 2.9909-1.084 4.5703z"/>
     <path d="m454.6 713.39h-3.7109v-1.25c-2.1155-1e-3 -3.8288 1.8219-4.1858 3.8229-0.11328 0.84493-0.0241 1.7102-0.0525 2.5637v7.461h3.4375v3.3594h-10.039v-3.3594h2.793c7e-3 -4.5052 0.013-9.0104 0.0195-13.516h-2.8125v-3.3594h6.4648v2.793c0.8552-1.6342 2.4918-3.0255 4.4251-2.9492 1.2203 4e-3 2.4413-0.0176 3.6608 0.0391 1e-5 1.4648 3e-5 2.9297 4e-5 4.3945z"/>
     <path d="m470.45 727.57c-1.6922 1.8761-4.3733 2.534-6.8121 2.1277-3.2068-0.34994-6.0715-2.5792-7.2321-5.5844-1.1335-2.8692-1.2188-6.1565-0.29877-9.0953 0.97394-3.1895 3.8196-5.6511 7.1018-6.2028 2.4509-0.42727 5.1963-0.21551 7.2412 1.333 0.10419-0.33419-0.25544-1.1322 0.27997-1.0352h3.3528c-9e-3 6.7233 0.0183 13.447-0.0139 20.17-0.0642 2.9231-1.0727 6.1715-3.7465 7.7188-2.7023 1.5048-5.9866 1.4977-8.9495 0.91-1.8983-0.44154-3.783-1.1691-5.2783-2.4512 0.65104-0.98307 1.3021-1.9662 1.9531-2.9492 2.5691 2.1097 6.2403 2.8696 9.4321 1.926 2.0502-0.66991 2.7851-2.9556 2.903-4.9012 0.0584-0.65369 0.0702-1.3102 0.0673-1.9662zm-4.8438-0.9375c1.7948 7e-3 3.7936-0.63507 4.8438-2.1403v-11.004c-1.7529-1.5082-4.2872-1.9494-6.5112-1.4694-2.423 0.55044-4.1469 2.7763-4.5257 5.1672-0.43142 2.794-0.0331 6.0804 2.1802 8.0655 1.0991 0.95366 2.5738 1.3886 4.013 1.3812z"/>
    </g>
   </g>
  </g>
  <path d="m47.014 117.8c-0.99531-0.10655-1.9511-0.57786-2.6083-1.3386-0.9844-1.055-1.2826-2.656-0.83834-4.0154 0.45685-1.3462 1.642-2.4174 3.0413-2.6957 1.2946-0.26685 2.7149 0.1138 3.6542 1.057 1.2068 1.1187 1.587 2.9961 0.94265 4.5051-0.34404 0.8521-1.0161 1.5585-1.8072 2.0134-0.7286 0.3848-1.5629 0.56247-2.3842 0.47416zm0.98746-2.9232c0.74388-0.31475 1.0017-1.3675 0.47545-1.9842-0.24395-0.34492-0.65556-0.52724-1.0737-0.50875-0.8048-0.0345-1.4571 0.85093-1.2377 1.6168 0.13422 0.65675 0.82215 1.1045 1.4756 0.98507 0.12446-0.0189 0.24635-0.0553 0.3603-0.1089z" fill="#00e6ff"/>
  <path d="m55.669 117.8c-0.99531-0.10655-1.9511-0.57786-2.6083-1.3386-0.9844-1.055-1.2826-2.656-0.83834-4.0154 0.45685-1.3462 1.642-2.4174 3.0413-2.6957 1.2946-0.26685 2.7149 0.1138 3.6542 1.057 1.2068 1.1187 1.587 2.9961 0.94265 4.5051-0.34405 0.8521-1.0161 1.5585-1.8072 2.0134-0.7286 0.3848-1.5629 0.56247-2.3842 0.47416zm0.98746-2.9232c0.74388-0.31475 1.0017-1.3675 0.47545-1.9842-0.24395-0.34492-0.65556-0.52724-1.0737-0.50875-0.8048-0.0345-1.4571 0.85093-1.2377 1.6168 0.13422 0.65675 0.82215 1.1045 1.4756 0.98507 0.12446-0.0189 0.24635-0.0553 0.3603-0.1089z" fill="#05f30a"/>
  <path d="m51.339 110.34c-0.99531-0.10655-1.9511-0.57787-2.6083-1.3386-0.9844-1.055-1.2826-2.656-0.83834-4.0154 0.45685-1.3462 1.642-2.4174 3.0413-2.6957 1.2946-0.26685 2.7149 0.1138 3.6542 1.057 1.2068 1.1187 1.587 2.9961 0.94265 4.5051-0.34405 0.8521-1.0161 1.5585-1.8072 2.0134-0.7286 0.3848-1.5629 0.56246-2.3842 0.47416zm0.98746-2.9232c0.74388-0.31475 1.0017-1.3675 0.47545-1.9842-0.24395-0.34493-0.65556-0.52725-1.0737-0.50875-0.8048-0.0345-1.4571 0.85093-1.2377 1.6168 0.13422 0.65676 0.82215 1.1045 1.4756 0.98507 0.12446-0.0189 0.24635-0.0553 0.3603-0.1089z" fill="#999"/>
  <path d="m42.712 110.34c-0.99531-0.10655-1.9511-0.57787-2.6083-1.3386-0.9844-1.055-1.2826-2.656-0.83834-4.0154 0.45685-1.3462 1.642-2.4174 3.0413-2.6957 1.2946-0.26685 2.7149 0.1138 3.6542 1.057 1.2068 1.1187 1.587 2.9961 0.94265 4.5051-0.34405 0.8521-1.0161 1.5585-1.8072 2.0134-0.7286 0.38481-1.5629 0.56247-2.3842 0.47417zm0.98746-2.9232c0.74388-0.31475 1.0017-1.3675 0.47545-1.9842-0.24395-0.34493-0.65556-0.52725-1.0737-0.50875-0.8048-0.0345-1.4571 0.85093-1.2377 1.6168 0.13422 0.65676 0.82215 1.1045 1.4756 0.98507 0.12446-0.0189 0.24635-0.0553 0.3603-0.1089z" fill="#ff13ff"/>
  <path d="m59.954 110.34c-0.99531-0.10655-1.9511-0.57787-2.6083-1.3386-0.9844-1.055-1.2826-2.656-0.83834-4.0154 0.45685-1.3462 1.642-2.4174 3.0413-2.6957 1.2946-0.26685 2.7149 0.1138 3.6542 1.057 1.2068 1.1187 1.587 2.9961 0.94265 4.5051-0.34404 0.8521-1.0161 1.5585-1.8072 2.0134-0.7286 0.38481-1.5629 0.56247-2.3842 0.47417zm0.98746-2.9232c0.74388-0.31475 1.0017-1.3675 0.47545-1.9842-0.24395-0.34493-0.65556-0.52725-1.0737-0.50875-0.8048-0.0345-1.4571 0.85093-1.2377 1.6168 0.13422 0.65676 0.82215 1.1045 1.4756 0.98507 0.12446-0.0189 0.24634-0.0553 0.3603-0.1089z" fill="#fddf00"/>
  <path d="m55.645 102.9c-0.99531-0.10655-1.9511-0.57787-2.6083-1.3386-0.9844-1.055-1.2825-2.656-0.83834-4.0154 0.45685-1.3462 1.642-2.4174 3.0413-2.6957 1.2946-0.26685 2.7149 0.1138 3.6542 1.057 1.2068 1.1187 1.587 2.9961 0.94265 4.5051-0.34404 0.8521-1.0161 1.5585-1.8072 2.0134-0.7286 0.3848-1.5629 0.56246-2.3842 0.47416zm0.98746-2.9232c0.74388-0.31475 1.0017-1.3675 0.47545-1.9842-0.24395-0.34492-0.65556-0.52724-1.0737-0.50874-0.8048-0.0345-1.4571 0.85092-1.2377 1.6168 0.13422 0.65676 0.82215 1.1045 1.4756 0.98507 0.12446-0.0189 0.24634-0.0553 0.3603-0.1089z" fill="#fa8d04"/>
  <path d="m47.046 102.86c-0.99531-0.10654-1.9511-0.57786-2.6083-1.3386-0.9844-1.055-1.2826-2.656-0.83834-4.0154 0.45685-1.3462 1.642-2.4174 3.0413-2.6957 1.2946-0.26685 2.7149 0.11379 3.6542 1.057 1.2068 1.1187 1.587 2.9961 0.94265 4.5051-0.34404 0.8521-1.0161 1.5585-1.8072 2.0134-0.7286 0.38481-1.5629 0.56247-2.3842 0.47416zm0.98746-2.9232c0.74388-0.31475 1.0017-1.3675 0.47545-1.9842-0.24395-0.34492-0.65556-0.52724-1.0737-0.50875-0.8048-0.0345-1.4571 0.85093-1.2377 1.6168 0.13422 0.65675 0.82215 1.1045 1.4756 0.98507 0.12446-0.0189 0.24635-0.0553 0.3603-0.1089z" fill="#f00"/>
 </g>
</svg>
